<?xml version="1.0" encoding="utf-8" standalone="no"?>
<!DOCTYPE svg PUBLIC "-//W3C//DTD SVG 1.1//EN"
  "http://www.w3.org/Graphics/SVG/1.1/DTD/svg11.dtd">
<svg xmlns:xlink="http://www.w3.org/1999/xlink" width="370.329544pt" height="97.903242pt" viewBox="0 0 370.329544 97.903242" xmlns="http://www.w3.org/2000/svg" version="1.1">
 <metadata>
  <rdf:RDF xmlns:dc="http://purl.org/dc/elements/1.1/" xmlns:cc="http://creativecommons.org/ns#" xmlns:rdf="http://www.w3.org/1999/02/22-rdf-syntax-ns#">
   <cc:Work>
    <dc:type rdf:resource="http://purl.org/dc/dcmitype/StillImage"/>
    <dc:date>2025-08-11T22:19:29.856467</dc:date>
    <dc:format>image/svg+xml</dc:format>
    <dc:creator>
     <cc:Agent>
      <dc:title>Matplotlib v3.10.5, https://matplotlib.org/</dc:title>
     </cc:Agent>
    </dc:creator>
   </cc:Work>
  </rdf:RDF>
 </metadata>
 <defs>
  <style type="text/css">*{stroke-linejoin: round; stroke-linecap: butt}</style>
 </defs>
 <g id="figure_1">
  <g id="patch_1">
   <path d="M 0 97.903242 
L 370.329544 97.903242 
L 370.329544 0 
L 0 0 
L 0 97.903242 
z
" style="fill: none"/>
  </g>
  <g id="axes_1">
   <g id="patch_2">
    <path d="M 25.466968 76.372745 
L 111.866968 76.372745 
L 111.866968 22.974608 
L 25.466968 22.974608 
L 25.466968 76.372745 
z
" style="fill: none"/>
   </g>
   <g id="matplotlib.axis_1">
    <g id="xtick_1">
     <g id="line2d_1">
      <path d="M 29.394241 76.372745 
L 29.394241 22.974608 
" clip-path="url(#pf6afbfd0c7)" style="fill: none; stroke-dasharray: 2.96,1.28; stroke-dashoffset: 0; stroke: #dddfe5; stroke-width: 0.8"/>
     </g>
     <g id="line2d_2">
      <defs>
       <path id="m8edcab229f" d="M 0 0 
L 0 3.5 
" style="stroke: #4d4f53; stroke-width: 0.8"/>
      </defs>
      <g>
       <use xlink:href="#m8edcab229f" x="29.394241" y="76.372745" style="fill: #4d4f53; stroke: #4d4f53; stroke-width: 0.8"/>
      </g>
     </g>
     <g id="text_1">
      <!-- $\mathdefault{0}$ -->
      <g style="fill: #4d4f53" transform="translate(27.189853 89.089634) scale(0.0833 -0.0833)">
       <defs>
        <path id="LMRoman17-Regular-30" d="M 2688 2025 
C 2688 2416 2682 3080 2413 3591 
C 2176 4039 1798 4198 1466 4198 
C 1158 4198 768 4058 525 3597 
C 269 3118 243 2524 243 2025 
C 243 1661 250 1106 448 619 
C 723 -39 1216 -128 1466 -128 
C 1760 -128 2208 -7 2470 600 
C 2662 1042 2688 1559 2688 2025 
z
M 2278 2096 
C 2278 1680 2278 1169 2202 792 
C 2067 95 1690 -26 1466 -26 
C 1056 -26 813 325 723 812 
C 653 1188 653 1738 653 2096 
C 653 2588 653 2997 736 3387 
C 858 3929 1216 4096 1466 4096 
C 1728 4096 2067 3923 2189 3400 
C 2272 3036 2278 2607 2278 2096 
z
" transform="scale(0.015625)"/>
       </defs>
       <use xlink:href="#LMRoman17-Regular-30" transform="scale(0.996264)"/>
      </g>
     </g>
    </g>
    <g id="xtick_2">
     <g id="line2d_3">
      <path d="M 71.063899 76.372745 
L 71.063899 22.974608 
" clip-path="url(#pf6afbfd0c7)" style="fill: none; stroke-dasharray: 2.96,1.28; stroke-dashoffset: 0; stroke: #dddfe5; stroke-width: 0.8"/>
     </g>
     <g id="line2d_4">
      <g>
       <use xlink:href="#m8edcab229f" x="71.063899" y="76.372745" style="fill: #4d4f53; stroke: #4d4f53; stroke-width: 0.8"/>
      </g>
     </g>
     <g id="text_2">
      <!-- $\mathdefault{5}$ -->
      <g style="fill: #4d4f53" transform="translate(68.859511 89.089634) scale(0.0833 -0.0833)">
       <defs>
        <path id="LMRoman17-Regular-35" d="M 2669 1264 
C 2669 2030 2170 2624 1549 2624 
C 1222 2624 947 2503 730 2274 
L 730 3692 
C 794 3666 1056 3584 1325 3584 
C 1920 3584 2246 3911 2432 4100 
C 2432 4157 2432 4192 2394 4192 
C 2394 4192 2374 4192 2323 4163 
C 2099 4058 1837 3973 1517 3973 
C 1325 3973 1037 3999 723 4139 
C 653 4171 634 4171 634 4171 
C 602 4171 595 4164 595 4037 
L 595 2203 
C 595 2089 595 2057 659 2057 
C 691 2057 704 2070 736 2114 
C 941 2401 1222 2522 1542 2522 
C 1766 2522 2246 2382 2246 1289 
C 2246 1085 2246 715 2054 421 
C 1894 159 1645 25 1370 25 
C 947 25 518 320 403 814 
C 429 807 480 795 506 795 
C 589 795 749 840 749 1038 
C 749 1210 627 1280 506 1280 
C 358 1280 262 1190 262 1011 
C 262 454 704 -128 1382 -128 
C 2042 -128 2669 440 2669 1264 
z
" transform="scale(0.015625)"/>
       </defs>
       <use xlink:href="#LMRoman17-Regular-35" transform="scale(0.996264)"/>
      </g>
     </g>
    </g>
   </g>
   <g id="matplotlib.axis_2">
    <g id="ytick_1">
     <g id="line2d_5">
      <path d="M 25.466968 73.967029 
L 111.866968 73.967029 
" clip-path="url(#pf6afbfd0c7)" style="fill: none; stroke-dasharray: 2.96,1.28; stroke-dashoffset: 0; stroke: #dddfe5; stroke-width: 0.8"/>
     </g>
     <g id="line2d_6">
      <defs>
       <path id="m7a4f308d96" d="M 0 0 
L -3.5 0 
" style="stroke: #4d4f53; stroke-width: 0.8"/>
      </defs>
      <g>
       <use xlink:href="#m7a4f308d96" x="25.466968" y="73.967029" style="fill: #4d4f53; stroke: #4d4f53; stroke-width: 0.8"/>
      </g>
     </g>
     <g id="text_3">
      <!-- $\mathdefault{−1}$ -->
      <g style="fill: #4d4f53" transform="translate(7.2 76.825473) scale(0.0833 -0.0833)">
       <defs>
        <path id="LMMathSymbols10-Regular-0" d="M 4442 1600 
C 4442 1728 4320 1728 4230 1728 
L 742 1728 
C 653 1728 531 1728 531 1600 
C 531 1472 653 1472 742 1472 
L 4230 1472 
C 4320 1472 4442 1472 4442 1600 
z
" transform="scale(0.015625)"/>
        <path id="LMRoman17-Regular-31" d="M 2458 0 
L 2458 160 
L 2266 160 
C 1715 160 1702 230 1702 458 
L 1702 4058 
C 1702 4192 1696 4192 1606 4192 
C 1357 3916 979 3827 621 3827 
C 602 3827 570 3827 563 3808 
C 557 3795 557 3782 557 3648 
C 755 3648 1088 3686 1344 3839 
L 1344 461 
C 1344 236 1331 160 781 160 
L 589 160 
L 589 0 
L 1523 0 
L 2458 0 
z
" transform="scale(0.015625)"/>
       </defs>
       <use xlink:href="#LMMathSymbols10-Regular-0" transform="scale(0.996264)"/>
       <use xlink:href="#LMRoman17-Regular-31" transform="translate(77.487468 0) scale(0.996264)"/>
      </g>
     </g>
    </g>
    <g id="ytick_2">
     <g id="line2d_7">
      <path d="M 25.466968 50.836382 
L 111.866968 50.836382 
" clip-path="url(#pf6afbfd0c7)" style="fill: none; stroke-dasharray: 2.96,1.28; stroke-dashoffset: 0; stroke: #dddfe5; stroke-width: 0.8"/>
     </g>
     <g id="line2d_8">
      <g>
       <use xlink:href="#m7a4f308d96" x="25.466968" y="50.836382" style="fill: #4d4f53; stroke: #4d4f53; stroke-width: 0.8"/>
      </g>
     </g>
     <g id="text_4">
      <!-- $\mathdefault{0}$ -->
      <g style="fill: #4d4f53" transform="translate(14.058193 53.694827) scale(0.0833 -0.0833)">
       <use xlink:href="#LMRoman17-Regular-30" transform="scale(0.996264)"/>
      </g>
     </g>
    </g>
    <g id="ytick_3">
     <g id="line2d_9">
      <path d="M 25.466968 27.705736 
L 111.866968 27.705736 
" clip-path="url(#pf6afbfd0c7)" style="fill: none; stroke-dasharray: 2.96,1.28; stroke-dashoffset: 0; stroke: #dddfe5; stroke-width: 0.8"/>
     </g>
     <g id="line2d_10">
      <g>
       <use xlink:href="#m7a4f308d96" x="25.466968" y="27.705736" style="fill: #4d4f53; stroke: #4d4f53; stroke-width: 0.8"/>
      </g>
     </g>
     <g id="text_5">
      <!-- $\mathdefault{1}$ -->
      <g style="fill: #4d4f53" transform="translate(14.058193 30.56418) scale(0.0833 -0.0833)">
       <use xlink:href="#LMRoman17-Regular-31" transform="scale(0.996264)"/>
      </g>
     </g>
    </g>
   </g>
   <g id="line2d_11">
    <path d="M 29.394241 33.507447 
L 30.023864 31.536808 
L 30.18127 31.861235 
L 30.338675 29.947172 
L 30.496081 30.254313 
L 30.653487 31.433902 
L 30.968298 29.769695 
L 31.125704 30.706105 
L 31.28311 28.499351 
L 31.440515 29.535302 
L 31.755327 28.317728 
L 31.912732 29.127019 
L 32.227544 28.249745 
L 32.38495 27.673443 
L 32.542355 28.835589 
L 32.699761 28.449378 
L 32.857167 27.419342 
L 33.014573 27.675357 
L 33.171978 28.287359 
L 33.329384 27.621998 
L 33.48679 28.002029 
L 33.801601 26.331756 
L 33.959007 27.737801 
L 34.116413 25.869167 
L 34.273818 27.025008 
L 34.431224 26.77678 
L 34.58863 26.703557 
L 34.746035 27.797698 
L 35.060847 25.461109 
L 35.375658 27.423162 
L 35.69047 26.102991 
L 35.847875 27.707306 
L 36.005281 26.875778 
L 36.162687 27.618155 
L 36.320093 25.960387 
L 36.477498 27.017646 
L 36.634904 26.250421 
L 36.79231 26.796069 
L 36.949716 25.747078 
L 37.421933 26.935643 
L 37.579338 26.031887 
L 37.89415 28.524695 
L 38.051556 28.473446 
L 38.208961 26.63685 
L 38.366367 26.694326 
L 38.681178 28.455213 
L 38.838584 27.732294 
L 38.99599 29.547242 
L 39.153396 27.990347 
L 39.310801 28.378414 
L 39.468207 29.6816 
L 39.783019 28.418127 
L 39.940424 30.363278 
L 40.09783 28.851863 
L 40.255236 30.434744 
L 40.412641 29.799094 
L 40.570047 31.045776 
L 40.727453 30.707087 
L 40.884859 31.751422 
L 41.042264 31.340864 
L 41.357076 32.048721 
L 41.514481 31.413591 
L 41.671887 32.390901 
L 41.829293 32.150595 
L 41.986699 32.289859 
L 42.144104 33.616074 
L 42.30151 32.635938 
L 42.931133 34.958321 
L 43.088539 34.287287 
L 43.560756 36.874444 
L 43.718162 35.592798 
L 44.190379 38.338218 
L 44.347784 38.266531 
L 44.820002 40.123191 
L 44.977407 39.223764 
L 45.134813 41.136471 
L 45.292219 41.058483 
L 45.60703 40.245946 
L 45.921842 42.283795 
L 46.079247 41.665042 
L 46.236653 41.760176 
L 46.551464 43.994193 
L 46.70887 43.703204 
L 47.023682 46.098365 
L 47.181087 45.793331 
L 47.338493 45.909859 
L 47.495899 47.351144 
L 47.653305 45.778982 
L 48.597739 50.218474 
L 48.755145 50.394791 
L 48.91255 49.804561 
L 49.069956 50.706014 
L 49.227362 50.089179 
L 49.699579 53.12819 
L 50.01439 53.42507 
L 50.171796 54.679431 
L 50.329202 53.815359 
L 50.486608 55.579279 
L 50.644013 54.466621 
L 50.801419 55.037944 
L 50.958825 56.966624 
L 51.11623 55.64176 
L 51.273636 57.041452 
L 51.431042 56.444489 
L 51.903259 59.071259 
L 52.060665 57.915442 
L 52.21807 59.646705 
L 52.375476 58.948079 
L 52.532882 59.760899 
L 52.690288 59.372164 
L 53.162505 62.414325 
L 53.31991 60.764608 
L 53.634722 63.368989 
L 53.792128 62.509229 
L 54.106939 63.504794 
L 54.264345 63.0285 
L 54.421751 63.386695 
L 54.579156 65.193399 
L 54.736562 64.467347 
L 55.208779 66.954152 
L 55.366185 66.922581 
L 55.523591 66.218474 
L 55.680996 67.333465 
L 55.838402 67.261218 
L 55.995808 67.768314 
L 56.153213 67.689931 
L 56.310619 67.601552 
L 56.468025 67.185119 
L 56.625431 69.562459 
L 56.782836 68.603192 
L 56.940242 68.652109 
L 57.097648 70.005234 
L 57.255053 68.921826 
L 57.412459 69.949982 
L 57.569865 69.858515 
L 57.727271 69.913301 
L 57.884676 69.497378 
L 58.199488 70.378593 
L 58.514299 72.079181 
L 58.829111 70.695109 
L 58.986516 71.028987 
L 59.143922 72.341591 
L 59.301328 72.301119 
L 59.458734 72.55721 
L 59.773545 71.766416 
L 60.088356 72.828415 
L 60.403168 71.668788 
L 60.560574 72.442689 
L 60.717979 72.095017 
L 60.875385 72.820811 
L 61.190197 71.997044 
L 61.347602 73.893682 
L 61.505008 72.256307 
L 61.662414 72.304534 
L 61.977225 72.143948 
L 62.134631 71.781338 
L 62.449442 73.464574 
L 62.764254 71.523673 
L 63.079065 71.696979 
L 63.393877 73.530679 
L 63.708688 71.670521 
L 63.866094 71.625885 
L 64.023499 72.790193 
L 64.180905 72.760514 
L 64.338311 72.536964 
L 64.495717 70.869323 
L 64.810528 72.066392 
L 64.967934 70.862204 
L 65.12534 72.069031 
L 65.282745 71.766343 
L 65.440151 71.544925 
L 65.754962 69.991632 
L 65.912368 69.889188 
L 66.22718 69.066022 
L 66.541991 70.129292 
L 66.699397 68.935335 
L 66.856802 69.123022 
L 67.014208 68.976568 
L 67.486425 66.701641 
L 67.643831 67.471956 
L 67.958642 66.075125 
L 68.116048 66.748637 
L 68.43086 64.758839 
L 68.588265 66.234847 
L 68.903077 64.408969 
L 69.060483 65.435746 
L 69.375294 63.361158 
L 70.63454 60.22994 
L 70.791945 61.263835 
L 70.949351 59.857649 
L 71.106757 60.584138 
L 71.264163 58.704151 
L 71.421568 60.133088 
L 71.73638 59.356431 
L 72.051191 57.354059 
L 72.208597 58.107063 
L 72.366003 57.694035 
L 72.680814 55.18493 
L 72.83822 55.958849 
L 73.153031 53.690319 
L 73.310437 53.293986 
L 73.467843 53.501203 
L 73.94006 51.779393 
L 74.097466 52.112136 
L 74.569683 49.860966 
L 74.727088 50.501566 
L 74.884494 49.66133 
L 75.0419 49.992248 
L 75.671523 47.199468 
L 75.828929 48.14375 
L 75.986334 47.570199 
L 76.14374 45.638051 
L 76.301146 45.9349 
L 76.458551 44.28628 
L 76.615957 45.817395 
L 77.24558 42.142915 
L 77.402986 43.534694 
L 77.717797 41.665051 
L 77.875203 42.105924 
L 78.032609 42.230541 
L 78.190014 40.589007 
L 78.34742 41.098541 
L 78.504826 39.308515 
L 78.662231 39.859683 
L 78.819637 39.593097 
L 79.134449 38.131966 
L 79.291854 38.476836 
L 79.44926 37.092087 
L 79.606666 37.518326 
L 79.764072 36.314779 
L 79.921477 37.619725 
L 80.078883 35.259956 
L 80.236289 35.516707 
L 80.393694 35.617046 
L 80.5511 36.270303 
L 81.023317 33.178032 
L 81.338129 33.389094 
L 81.495534 33.419507 
L 81.65294 32.140423 
L 81.810346 32.431297 
L 81.967752 31.761521 
L 82.282563 32.654014 
L 82.439969 30.356156 
L 82.597374 32.303622 
L 82.912186 30.905091 
L 83.069592 31.065665 
L 83.226997 30.765323 
L 83.541809 29.510055 
L 83.699215 29.298817 
L 83.85662 28.729529 
L 84.014026 29.788678 
L 84.171432 28.022884 
L 84.328837 28.372828 
L 84.486243 29.613674 
L 84.643649 28.163229 
L 84.801055 28.504089 
L 84.95846 28.421393 
L 85.115866 28.606542 
L 85.430677 26.526091 
L 85.588083 28.015894 
L 85.745489 27.022256 
L 86.217706 27.981329 
L 86.375112 27.556096 
L 86.532518 26.049714 
L 86.689923 27.717943 
L 87.004735 26.213139 
L 87.319546 27.154635 
L 87.476952 25.559048 
L 87.634358 25.621706 
L 87.791763 26.30059 
L 88.106575 25.425988 
L 88.26398 25.687603 
L 88.421386 26.576986 
L 88.578792 25.886327 
L 88.736198 25.957789 
L 88.893603 27.431246 
L 89.051009 26.488481 
L 89.208415 27.726702 
L 89.36582 27.491622 
L 89.523226 27.76551 
L 89.838038 27.224201 
L 89.995443 27.687648 
L 90.310255 26.581058 
L 90.625066 28.720414 
L 90.782472 26.893083 
L 90.939878 28.354297 
L 91.254689 27.302958 
L 91.412095 27.757737 
L 91.569501 29.663257 
L 91.726906 29.062339 
L 91.884312 29.593427 
L 92.041718 28.898031 
L 92.199123 29.270811 
L 92.356529 28.669836 
L 92.513935 30.121877 
L 92.671341 29.324685 
L 93.143558 31.334488 
L 93.300963 30.617026 
L 93.458369 31.190055 
L 93.615775 30.534642 
L 93.930586 32.794456 
L 94.087992 32.024475 
L 94.245398 32.394191 
L 94.402804 32.097475 
L 94.560209 32.399556 
L 94.717615 34.259366 
L 94.875021 33.920207 
L 95.504644 36.293296 
L 95.662049 34.579065 
L 96.449078 37.06353 
L 96.606484 38.496714 
L 96.763889 37.244902 
L 96.921295 39.679413 
L 97.078701 38.691923 
L 97.236107 40.451621 
L 97.393512 38.685057 
L 98.180541 42.597727 
L 98.337947 41.445703 
L 98.652758 43.890206 
L 98.810164 43.819325 
L 98.967569 42.751861 
L 99.439787 45.736483 
L 99.597192 44.93647 
L 99.754598 46.836693 
L 99.912004 46.592688 
L 100.069409 46.032086 
L 100.226815 48.441966 
L 100.541627 47.080312 
L 100.699032 49.241931 
L 100.856438 48.504389 
L 101.17125 49.076079 
L 101.643467 52.212522 
L 101.800872 51.542948 
L 102.27309 52.875224 
L 102.587901 54.599283 
L 102.902712 53.550996 
L 103.532335 56.874793 
L 103.689741 55.818059 
L 104.161958 58.967904 
L 104.319364 58.43579 
L 104.47677 59.803014 
L 104.634175 58.822231 
L 104.791581 60.483579 
L 104.948987 60.107248 
L 105.106393 61.010772 
L 105.263798 59.656307 
L 105.421204 61.718877 
L 105.57861 61.372471 
L 105.736015 63.06528 
L 105.893421 62.053311 
L 106.365638 63.612147 
L 106.523044 62.83684 
L 106.68045 64.813805 
L 106.837855 63.972759 
L 106.995261 64.112439 
L 107.467478 65.260354 
L 107.78229 67.301324 
L 107.939696 65.69252 
L 107.939696 65.69252 
" clip-path="url(#pf6afbfd0c7)" style="fill: none; stroke: #3362b0; stroke-width: 1.5; stroke-linecap: square"/>
   </g>
   <g id="line2d_12">
    <path d="M 29.394241 27.29247 
L 29.551647 25.952184 
L 29.709052 26.07687 
L 29.866458 27.482096 
L 30.023864 26.093865 
L 30.18127 27.441654 
L 30.338675 27.406372 
L 30.653487 27.330609 
L 30.810892 28.062735 
L 30.968298 27.648411 
L 31.125704 28.272398 
L 31.28311 28.114325 
L 31.440515 27.11476 
L 31.755327 29.15837 
L 31.912732 27.982867 
L 32.070138 29.175557 
L 32.38495 27.916331 
L 32.699761 30.233877 
L 32.857167 29.843306 
L 33.014573 30.120277 
L 33.329384 31.362949 
L 33.48679 30.193436 
L 33.644195 30.76512 
L 33.801601 30.137562 
L 34.116413 31.233708 
L 34.58863 33.59138 
L 34.746035 33.386843 
L 34.903441 32.867848 
L 35.060847 34.421737 
L 35.375658 33.503999 
L 35.533064 35.479724 
L 35.69047 33.843379 
L 36.634904 37.373903 
L 36.79231 36.773113 
L 36.949716 38.639806 
L 37.107121 36.914708 
L 37.421933 39.773435 
L 37.579338 39.886018 
L 37.736744 38.585123 
L 38.051556 40.776478 
L 38.208961 40.781686 
L 38.366367 42.058239 
L 38.523773 40.787752 
L 38.681178 42.308091 
L 38.838584 41.597621 
L 39.153396 44.106789 
L 39.310801 42.787544 
L 39.783019 45.405692 
L 39.940424 44.201717 
L 40.09783 45.706543 
L 40.255236 45.128596 
L 40.727453 47.354764 
L 40.884859 46.720323 
L 41.042264 49.283963 
L 41.19967 47.844947 
L 41.357076 50.185366 
L 41.514481 49.814626 
L 41.671887 49.846796 
L 42.616321 53.08309 
L 42.773727 52.15157 
L 42.931133 52.841171 
L 43.245944 55.290883 
L 43.40335 54.731238 
L 43.718162 56.06652 
L 44.032973 56.817746 
L 44.347784 56.195835 
L 44.820002 58.869669 
L 44.977407 59.239846 
L 45.134813 58.392522 
L 45.449624 61.116367 
L 45.60703 60.492851 
L 45.921842 62.226292 
L 46.079247 60.565633 
L 46.236653 62.104629 
L 46.394059 61.356064 
L 47.023682 64.773291 
L 47.181087 63.647205 
L 47.338493 64.939488 
L 47.495899 64.178361 
L 47.653305 65.587388 
L 47.81071 65.47762 
L 47.968116 65.477517 
L 48.125522 66.850975 
L 48.282927 66.100473 
L 48.440333 67.592152 
L 48.597739 67.323362 
L 48.755145 67.502118 
L 48.91255 68.160867 
L 49.069956 66.710737 
L 49.227362 69.110499 
L 49.384767 67.457072 
L 49.542173 68.29995 
L 49.699579 67.793943 
L 49.856985 68.909693 
L 50.01439 68.846226 
L 50.171796 68.736987 
L 50.329202 69.080961 
L 50.486608 70.695949 
L 50.644013 70.153699 
L 50.801419 70.778181 
L 50.958825 69.570443 
L 51.273636 70.902098 
L 51.431042 70.737095 
L 51.588448 72.137628 
L 51.745853 70.618959 
L 52.060665 72.669524 
L 52.375476 71.667452 
L 52.690288 73.165256 
L 52.847693 71.196176 
L 53.162505 73.252161 
L 53.31991 72.180641 
L 53.477316 73.474165 
L 53.634722 73.417416 
L 53.792128 73.57371 
L 54.106939 71.668542 
L 54.421751 73.662965 
L 54.579156 73.580309 
L 54.893968 72.365567 
L 55.051373 72.510323 
L 55.208779 73.852526 
L 55.366185 72.519524 
L 55.523591 73.735161 
L 55.680996 72.314415 
L 55.838402 72.937197 
L 55.995808 71.43928 
L 56.153213 71.561022 
L 56.310619 71.758894 
L 56.468025 71.496702 
L 56.940242 72.84587 
L 57.097648 71.819243 
L 57.255053 72.420503 
L 57.412459 70.887719 
L 57.569865 72.21254 
L 57.727271 72.11744 
L 58.042082 69.897563 
L 58.356894 71.363336 
L 58.514299 70.247896 
L 58.671705 70.965015 
L 58.829111 70.402768 
L 58.986516 68.737446 
L 59.143922 70.51659 
L 59.301328 70.333856 
L 59.458734 69.95612 
L 59.616139 68.899571 
L 59.773545 69.239898 
L 59.930951 67.366306 
L 60.088356 68.383229 
L 60.560574 67.028811 
L 60.717979 66.066742 
L 60.875385 67.447307 
L 61.190197 65.422266 
L 61.347602 65.169484 
L 61.505008 66.18502 
L 61.819819 64.538835 
L 61.977225 65.454679 
L 62.292037 63.153872 
L 62.449442 64.440226 
L 62.764254 62.4273 
L 62.921659 62.974399 
L 63.079065 62.924828 
L 63.393877 60.530607 
L 63.551282 60.633475 
L 63.708688 61.022211 
L 64.023499 60.468196 
L 64.180905 59.243968 
L 64.338311 59.738257 
L 64.810528 58.580451 
L 64.967934 56.844459 
L 65.12534 57.014136 
L 65.597557 55.05018 
L 65.754962 55.128039 
L 66.069774 53.207705 
L 66.22718 54.467184 
L 66.384585 54.045157 
L 66.856802 51.494939 
L 67.014208 50.938778 
L 67.32902 51.850214 
L 67.643831 49.028981 
L 68.588265 46.248588 
L 68.745671 47.001293 
L 68.903077 45.658926 
L 69.060483 46.584525 
L 69.375294 44.172531 
L 69.5327 45.066161 
L 69.690105 44.741949 
L 70.004917 42.829134 
L 70.162323 43.111002 
L 70.477134 41.799802 
L 70.63454 42.926979 
L 71.106757 39.778487 
L 71.264163 40.818447 
L 71.578974 38.23538 
L 71.893786 39.333759 
L 72.208597 36.715865 
L 72.523408 37.859181 
L 72.83822 35.66165 
L 72.995626 37.181897 
L 73.310437 34.680661 
L 73.467843 35.089321 
L 73.782654 33.501178 
L 73.94006 33.719756 
L 74.254871 33.064836 
L 74.412277 34.135215 
L 74.727088 32.001678 
L 74.884494 33.1079 
L 75.0419 31.212872 
L 75.356711 32.475948 
L 75.671523 30.767098 
L 75.828929 30.628257 
L 76.14374 30.955246 
L 76.301146 30.015473 
L 76.615957 30.577409 
L 76.773363 28.26905 
L 76.930769 29.225409 
L 77.088174 27.894271 
L 77.402986 28.794398 
L 77.717797 27.26577 
L 77.875203 28.727714 
L 78.032609 28.420795 
L 78.190014 27.755477 
L 78.34742 28.204927 
L 78.504826 27.447522 
L 78.662231 27.527636 
L 78.819637 27.59636 
L 78.977043 27.378195 
L 79.134449 25.878192 
L 79.44926 27.916838 
L 79.606666 25.643333 
L 79.764072 26.013401 
L 79.921477 27.092693 
L 80.078883 26.819702 
L 80.236289 26.055523 
L 80.393694 26.939378 
L 80.5511 26.737881 
L 80.708506 26.898017 
L 81.023317 26.484526 
L 81.180723 25.534468 
L 81.338129 27.09412 
L 81.495534 26.046699 
L 81.810346 27.563188 
L 82.125157 26.060106 
L 82.282563 27.323237 
L 82.439969 26.133141 
L 82.597374 27.762281 
L 82.75478 27.551327 
L 83.069592 26.818749 
L 83.226997 27.104472 
L 83.384403 28.199319 
L 83.541809 27.241469 
L 83.85662 28.694963 
L 84.014026 29.14936 
L 84.171432 28.727368 
L 84.328837 27.706056 
L 84.486243 28.065768 
L 84.801055 29.674638 
L 85.115866 28.433978 
L 85.588083 31.311099 
L 85.745489 30.531804 
L 86.0603 31.787555 
L 86.217706 30.454663 
L 86.375112 30.61426 
L 86.532518 31.330086 
L 86.689923 33.17245 
L 86.847329 32.73866 
L 87.004735 31.660159 
L 87.16214 31.794461 
L 87.634358 33.712359 
L 87.949169 34.727796 
L 88.106575 34.51428 
L 88.26398 36.206017 
L 88.578792 35.215179 
L 88.736198 37.017071 
L 88.893603 36.934242 
L 89.208415 38.298994 
L 89.36582 38.287254 
L 89.523226 39.138868 
L 89.680632 37.689508 
L 89.995443 38.820708 
L 90.152849 38.506949 
L 90.310255 40.048469 
L 90.467661 40.016764 
L 90.625066 40.166668 
L 90.782472 42.045397 
L 90.939878 41.16252 
L 91.097283 41.463742 
L 91.254689 42.326832 
L 91.412095 41.894851 
L 91.569501 43.301909 
L 91.726906 42.864628 
L 92.513935 45.008001 
L 92.828746 46.803846 
L 92.986152 46.524338 
L 93.458369 49.076835 
L 93.615775 49.045514 
L 94.402804 52.151137 
L 94.560209 50.626194 
L 94.717615 52.480776 
L 94.875021 52.459489 
L 95.189832 54.102062 
L 95.347238 52.55304 
L 95.819455 55.397009 
L 96.449078 57.425805 
L 96.606484 55.931361 
L 96.921295 58.132758 
L 97.078701 57.538838 
L 97.236107 57.758806 
L 97.393512 60.204334 
L 97.550918 59.450479 
L 97.708324 60.885201 
L 98.023135 59.906011 
L 98.495352 61.313124 
L 98.652758 61.429522 
L 99.282381 63.945111 
L 99.439787 64.805762 
L 99.754598 64.067162 
L 99.912004 64.127734 
L 100.226815 66.677364 
L 100.384221 66.048657 
L 100.856438 67.733177 
L 101.013844 66.564855 
L 101.17125 68.255876 
L 101.486061 66.832193 
L 101.643467 67.350656 
L 101.958278 69.696869 
L 102.115684 68.760504 
L 102.587901 69.895842 
L 102.745307 68.895902 
L 102.902712 70.775618 
L 103.060118 69.405085 
L 103.217524 69.440206 
L 103.37493 69.711147 
L 103.689741 71.337136 
L 103.847147 70.179412 
L 104.004552 70.353799 
L 104.319364 72.406138 
L 104.47677 71.33885 
L 104.634175 72.030167 
L 104.791581 71.922132 
L 104.948987 71.750051 
L 105.106393 71.175012 
L 105.421204 72.565538 
L 105.57861 73.04354 
L 105.893421 72.452237 
L 106.050827 72.626303 
L 106.208233 73.55475 
L 106.365638 71.863609 
L 106.68045 73.945557 
L 106.837855 73.038348 
L 107.152667 73.867703 
L 107.624884 72.048374 
L 107.78229 72.426103 
L 107.939696 73.367569 
L 107.939696 73.367569 
" clip-path="url(#pf6afbfd0c7)" style="fill: none; stroke: #cc3164; stroke-width: 1.5; stroke-linecap: square"/>
   </g>
   <g id="patch_3">
    <path d="M 25.466968 76.372745 
L 25.466968 22.974608 
" style="fill: none; stroke: #4d4f53; stroke-width: 0.8; stroke-linejoin: miter; stroke-linecap: square"/>
   </g>
   <g id="patch_4">
    <path d="M 111.866968 76.372745 
L 111.866968 22.974608 
" style="fill: none; stroke: #4d4f53; stroke-width: 0.8; stroke-linejoin: miter; stroke-linecap: square"/>
   </g>
   <g id="patch_5">
    <path d="M 25.466968 76.372745 
L 111.866968 76.372745 
" style="fill: none; stroke: #4d4f53; stroke-width: 0.8; stroke-linejoin: miter; stroke-linecap: square"/>
   </g>
   <g id="patch_6">
    <path d="M 25.466968 22.974608 
L 111.866968 22.974608 
" style="fill: none; stroke: #4d4f53; stroke-width: 0.8; stroke-linejoin: miter; stroke-linecap: square"/>
   </g>
   <g id="legend_1">
    <g id="patch_7">
     <path d="M 25.466968 22.974608 
L 111.866968 22.974608 
L 111.866968 7.2 
L 25.466968 7.2 
z
" style="fill: #ffffff; stroke: #4d4f53; stroke-width: 0.8; stroke-linejoin: miter"/>
    </g>
    <g id="text_6">
     <!-- title -->
     <g style="fill: #4d4f53" transform="translate(29.631968 17.196) scale(0.0833 -0.0833)">
      <defs>
       <path id="LMRoman17-Regular-74" d="M 1965 777 
L 1965 1140 
L 1850 1140 
L 1850 783 
C 1850 344 1677 51 1408 51 
C 1222 51 966 178 966 758 
L 966 2560 
L 1862 2560 
L 1862 2725 
L 966 2725 
L 966 3904 
L 851 3904 
C 838 3245 614 2668 70 2668 
L 70 2560 
L 627 2560 
L 627 771 
C 627 650 627 -64 1370 -64 
C 1747 -64 1965 306 1965 777 
z
" transform="scale(0.015625)"/>
       <path id="LMRoman17-Regular-69" d="M 1370 -13 
L 1370 153 
C 992 153 979 191 979 420 
L 979 2778 
L 243 2708 
L 243 2542 
C 602 2542 653 2503 653 2198 
L 653 427 
C 653 184 627 153 218 153 
L 218 -13 
C 371 0 646 0 806 0 
C 960 0 1222 0 1370 -13 
z
M 1056 3835 
C 1056 3988 934 4096 800 4096 
C 646 4096 538 3975 538 3835 
C 538 3682 659 3574 794 3574 
C 947 3574 1056 3695 1056 3835 
z
" transform="scale(0.015625)"/>
       <path id="LMRoman17-Regular-6c" d="M 1414 -13 
L 1414 153 
C 1005 153 979 178 979 426 
L 979 4396 
L 218 4326 
L 218 4160 
C 595 4160 653 4122 653 3817 
L 653 426 
C 653 184 627 153 218 153 
L 218 -13 
C 371 0 653 0 813 0 
C 979 0 1261 0 1414 -13 
z
" transform="scale(0.015625)"/>
       <path id="LMRoman17-Regular-65" d="M 2464 1576 
C 2464 2238 2118 2816 1389 2816 
C 710 2816 173 2169 173 1383 
C 173 551 781 -64 1459 -64 
C 2176 -64 2458 606 2458 739 
C 2458 784 2406 784 2406 784 
C 2362 784 2355 771 2330 695 
C 2189 265 1837 51 1504 51 
C 1229 51 954 203 781 480 
C 582 803 582 1176 582 1472 
L 2438 1472 
C 2464 1498 2464 1511 2464 1576 
z
M 2118 1568 
L 589 1568 
C 634 2505 1126 2714 1382 2714 
C 1818 2714 2112 2297 2118 1568 
z
" transform="scale(0.015625)"/>
      </defs>
      <use xlink:href="#LMRoman17-Regular-74" transform="scale(0.996264)"/>
      <use xlink:href="#LMRoman17-Regular-69" transform="translate(35.281528 0) scale(0.996264)"/>
      <use xlink:href="#LMRoman17-Regular-74" transform="translate(60.153544 0) scale(0.996264)"/>
      <use xlink:href="#LMRoman17-Regular-6c" transform="translate(95.435072 0) scale(0.996264)"/>
      <use xlink:href="#LMRoman17-Regular-65" transform="translate(120.307088 0) scale(0.996264)"/>
     </g>
    </g>
    <g id="line2d_13">
     <path d="M 52.164492 14.2805 
L 57.995492 14.2805 
L 63.826492 14.2805 
" style="fill: none; stroke: #3362b0; stroke-width: 1.5; stroke-linecap: square"/>
    </g>
    <g id="text_7">
     <!-- $x_1$ -->
     <g style="fill: #4d4f53" transform="translate(67.991492 17.196) scale(0.0833 -0.0833)">
      <defs>
       <path id="LMMathItalic12-Regular-78" d="M 3072 913 
C 3072 945 3046 971 3008 971 
C 2950 971 2944 939 2925 888 
C 2752 326 2381 64 2093 64 
C 1869 64 1747 230 1747 492 
C 1747 632 1773 734 1875 1156 
L 2099 2024 
C 2195 2408 2413 2689 2707 2689 
C 2707 2689 2899 2689 3034 2606 
C 2829 2567 2752 2414 2752 2293 
C 2752 2139 2874 2088 2963 2088 
C 3155 2088 3290 2254 3290 2427 
C 3290 2695 2982 2816 2714 2816 
C 2323 2816 2106 2433 2048 2312 
C 1901 2816 1504 2816 1389 2816 
C 736 2816 390 1980 390 1839 
C 390 1814 416 1782 461 1782 
C 512 1782 525 1820 538 1846 
C 755 2555 1184 2689 1370 2689 
C 1658 2689 1715 2420 1715 2267 
C 1715 2127 1677 1980 1600 1673 
L 1382 798 
C 1286 415 1101 64 762 64 
C 730 64 570 64 435 147 
C 666 192 717 383 717 460 
C 717 588 621 664 499 664 
C 346 664 179 530 179 326 
C 179 57 480 -64 755 -64 
C 1062 -64 1280 179 1414 441 
C 1517 64 1837 -64 2074 -64 
C 2726 -64 3072 773 3072 913 
z
" transform="scale(0.015625)"/>
      </defs>
      <use xlink:href="#LMMathItalic12-Regular-78" transform="scale(0.996264)"/>
      <use xlink:href="#LMRoman17-Regular-31" transform="translate(55.43406 -14.943915) scale(0.697382)"/>
     </g>
    </g>
    <g id="line2d_14">
     <path d="M 83.361392 14.2805 
L 89.192392 14.2805 
L 95.023392 14.2805 
" style="fill: none; stroke: #cc3164; stroke-width: 1.5; stroke-linecap: square"/>
    </g>
    <g id="text_8">
     <!-- $x_2$ -->
     <g style="fill: #4d4f53" transform="translate(99.188392 17.196) scale(0.0833 -0.0833)">
      <defs>
       <path id="LMRoman17-Regular-32" d="M 2669 989 
L 2554 989 
C 2490 536 2438 459 2413 420 
C 2381 369 1920 369 1830 369 
L 602 369 
L 1824 1597 
C 2214 1967 2669 2402 2669 3035 
C 2669 3790 2067 4224 1395 4224 
C 691 4224 262 3604 262 3030 
C 262 2780 448 2748 525 2748 
C 589 2748 781 2787 781 3010 
C 781 3207 614 3264 525 3264 
C 486 3264 448 3258 422 3245 
C 544 3790 915 4058 1306 4058 
C 1862 4058 2227 3617 2227 3035 
C 2227 2479 1901 2000 1536 1584 
L 262 146 
L 262 0 
L 2515 0 
L 2669 989 
z
" transform="scale(0.015625)"/>
      </defs>
      <use xlink:href="#LMMathItalic12-Regular-78" transform="scale(0.996264)"/>
      <use xlink:href="#LMRoman17-Regular-32" transform="translate(55.43406 -14.943915) scale(0.697382)"/>
     </g>
    </g>
   </g>
  </g>
  <g id="axes_2">
   <g id="patch_8">
    <path d="M 133.466968 76.372745 
L 219.866968 76.372745 
L 219.866968 22.974608 
L 133.466968 22.974608 
L 133.466968 76.372745 
z
" style="fill: none"/>
   </g>
   <g id="matplotlib.axis_3">
    <g id="xtick_3">
     <g id="line2d_15">
      <path d="M 137.394241 76.372745 
L 137.394241 22.974608 
" clip-path="url(#pe5455df5d2)" style="fill: none; stroke-dasharray: 2.96,1.28; stroke-dashoffset: 0; stroke: #dddfe5; stroke-width: 0.8"/>
     </g>
     <g id="line2d_16">
      <g>
       <use xlink:href="#m8edcab229f" x="137.394241" y="76.372745" style="fill: #4d4f53; stroke: #4d4f53; stroke-width: 0.8"/>
      </g>
     </g>
     <g id="text_9">
      <!-- $\mathdefault{0}$ -->
      <g style="fill: #4d4f53" transform="translate(135.189853 89.089634) scale(0.0833 -0.0833)">
       <use xlink:href="#LMRoman17-Regular-30" transform="scale(0.996264)"/>
      </g>
     </g>
    </g>
    <g id="xtick_4">
     <g id="line2d_17">
      <path d="M 179.063899 76.372745 
L 179.063899 22.974608 
" clip-path="url(#pe5455df5d2)" style="fill: none; stroke-dasharray: 2.96,1.28; stroke-dashoffset: 0; stroke: #dddfe5; stroke-width: 0.8"/>
     </g>
     <g id="line2d_18">
      <g>
       <use xlink:href="#m8edcab229f" x="179.063899" y="76.372745" style="fill: #4d4f53; stroke: #4d4f53; stroke-width: 0.8"/>
      </g>
     </g>
     <g id="text_10">
      <!-- $\mathdefault{5}$ -->
      <g style="fill: #4d4f53" transform="translate(176.859511 89.089634) scale(0.0833 -0.0833)">
       <use xlink:href="#LMRoman17-Regular-35" transform="scale(0.996264)"/>
      </g>
     </g>
    </g>
   </g>
   <g id="matplotlib.axis_4">
    <g id="ytick_4">
     <g id="line2d_19">
      <path d="M 133.466968 73.967029 
L 219.866968 73.967029 
" clip-path="url(#pe5455df5d2)" style="fill: none; stroke-dasharray: 2.96,1.28; stroke-dashoffset: 0; stroke: #dddfe5; stroke-width: 0.8"/>
     </g>
     <g id="line2d_20">
      <g>
       <use xlink:href="#m7a4f308d96" x="133.466968" y="73.967029" style="fill: #4d4f53; stroke: #4d4f53; stroke-width: 0.8"/>
      </g>
     </g>
     <g id="text_11">
      <!-- $\mathdefault{−1}$ -->
      <g style="fill: #4d4f53" transform="translate(115.2 76.825473) scale(0.0833 -0.0833)">
       <use xlink:href="#LMMathSymbols10-Regular-0" transform="scale(0.996264)"/>
       <use xlink:href="#LMRoman17-Regular-31" transform="translate(77.487468 0) scale(0.996264)"/>
      </g>
     </g>
    </g>
    <g id="ytick_5">
     <g id="line2d_21">
      <path d="M 133.466968 50.836382 
L 219.866968 50.836382 
" clip-path="url(#pe5455df5d2)" style="fill: none; stroke-dasharray: 2.96,1.28; stroke-dashoffset: 0; stroke: #dddfe5; stroke-width: 0.8"/>
     </g>
     <g id="line2d_22">
      <g>
       <use xlink:href="#m7a4f308d96" x="133.466968" y="50.836382" style="fill: #4d4f53; stroke: #4d4f53; stroke-width: 0.8"/>
      </g>
     </g>
     <g id="text_12">
      <!-- $\mathdefault{0}$ -->
      <g style="fill: #4d4f53" transform="translate(122.058193 53.694827) scale(0.0833 -0.0833)">
       <use xlink:href="#LMRoman17-Regular-30" transform="scale(0.996264)"/>
      </g>
     </g>
    </g>
    <g id="ytick_6">
     <g id="line2d_23">
      <path d="M 133.466968 27.705736 
L 219.866968 27.705736 
" clip-path="url(#pe5455df5d2)" style="fill: none; stroke-dasharray: 2.96,1.28; stroke-dashoffset: 0; stroke: #dddfe5; stroke-width: 0.8"/>
     </g>
     <g id="line2d_24">
      <g>
       <use xlink:href="#m7a4f308d96" x="133.466968" y="27.705736" style="fill: #4d4f53; stroke: #4d4f53; stroke-width: 0.8"/>
      </g>
     </g>
     <g id="text_13">
      <!-- $\mathdefault{1}$ -->
      <g style="fill: #4d4f53" transform="translate(122.058193 30.56418) scale(0.0833 -0.0833)">
       <use xlink:href="#LMRoman17-Regular-31" transform="scale(0.996264)"/>
      </g>
     </g>
    </g>
   </g>
   <g id="line2d_25">
    <path d="M 137.394241 33.507447 
L 138.023864 31.536808 
L 138.18127 31.861235 
L 138.338675 29.947172 
L 138.496081 30.254313 
L 138.653487 31.433902 
L 138.968298 29.769695 
L 139.125704 30.706105 
L 139.28311 28.499351 
L 139.440515 29.535302 
L 139.755327 28.317728 
L 139.912732 29.127019 
L 140.227544 28.249745 
L 140.38495 27.673443 
L 140.542355 28.835589 
L 140.699761 28.449378 
L 140.857167 27.419342 
L 141.014573 27.675357 
L 141.171978 28.287359 
L 141.329384 27.621998 
L 141.48679 28.002029 
L 141.801601 26.331756 
L 141.959007 27.737801 
L 142.116413 25.869167 
L 142.273818 27.025008 
L 142.431224 26.77678 
L 142.58863 26.703557 
L 142.746035 27.797698 
L 143.060847 25.461109 
L 143.375658 27.423162 
L 143.69047 26.102991 
L 143.847875 27.707306 
L 144.005281 26.875778 
L 144.162687 27.618155 
L 144.320093 25.960387 
L 144.477498 27.017646 
L 144.634904 26.250421 
L 144.79231 26.796069 
L 144.949716 25.747078 
L 145.421933 26.935643 
L 145.579338 26.031887 
L 145.89415 28.524695 
L 146.051556 28.473446 
L 146.208961 26.63685 
L 146.366367 26.694326 
L 146.681178 28.455213 
L 146.838584 27.732294 
L 146.99599 29.547242 
L 147.153396 27.990347 
L 147.310801 28.378414 
L 147.468207 29.6816 
L 147.783019 28.418127 
L 147.940424 30.363278 
L 148.09783 28.851863 
L 148.255236 30.434744 
L 148.412641 29.799094 
L 148.570047 31.045776 
L 148.727453 30.707087 
L 148.884859 31.751422 
L 149.042264 31.340864 
L 149.357076 32.048721 
L 149.514481 31.413591 
L 149.671887 32.390901 
L 149.829293 32.150595 
L 149.986699 32.289859 
L 150.144104 33.616074 
L 150.30151 32.635938 
L 150.931133 34.958321 
L 151.088539 34.287287 
L 151.560756 36.874444 
L 151.718162 35.592798 
L 152.190379 38.338218 
L 152.347784 38.266531 
L 152.820002 40.123191 
L 152.977407 39.223764 
L 153.134813 41.136471 
L 153.292219 41.058483 
L 153.60703 40.245946 
L 153.921842 42.283795 
L 154.079247 41.665042 
L 154.236653 41.760176 
L 154.551464 43.994193 
L 154.70887 43.703204 
L 155.023682 46.098365 
L 155.181087 45.793331 
L 155.338493 45.909859 
L 155.495899 47.351144 
L 155.653305 45.778982 
L 156.597739 50.218474 
L 156.755145 50.394791 
L 156.91255 49.804561 
L 157.069956 50.706014 
L 157.227362 50.089179 
L 157.699579 53.12819 
L 158.01439 53.42507 
L 158.171796 54.679431 
L 158.329202 53.815359 
L 158.486608 55.579279 
L 158.644013 54.466621 
L 158.801419 55.037944 
L 158.958825 56.966624 
L 159.11623 55.64176 
L 159.273636 57.041452 
L 159.431042 56.444489 
L 159.903259 59.071259 
L 160.060665 57.915442 
L 160.21807 59.646705 
L 160.375476 58.948079 
L 160.532882 59.760899 
L 160.690288 59.372164 
L 161.162505 62.414325 
L 161.31991 60.764608 
L 161.634722 63.368989 
L 161.792128 62.509229 
L 162.106939 63.504794 
L 162.264345 63.0285 
L 162.421751 63.386695 
L 162.579156 65.193399 
L 162.736562 64.467347 
L 163.208779 66.954152 
L 163.366185 66.922581 
L 163.523591 66.218474 
L 163.680996 67.333465 
L 163.838402 67.261218 
L 163.995808 67.768314 
L 164.153213 67.689931 
L 164.310619 67.601552 
L 164.468025 67.185119 
L 164.625431 69.562459 
L 164.782836 68.603192 
L 164.940242 68.652109 
L 165.097648 70.005234 
L 165.255053 68.921826 
L 165.412459 69.949982 
L 165.569865 69.858515 
L 165.727271 69.913301 
L 165.884676 69.497378 
L 166.199488 70.378593 
L 166.514299 72.079181 
L 166.829111 70.695109 
L 166.986516 71.028987 
L 167.143922 72.341591 
L 167.301328 72.301119 
L 167.458734 72.55721 
L 167.773545 71.766416 
L 168.088356 72.828415 
L 168.403168 71.668788 
L 168.560574 72.442689 
L 168.717979 72.095017 
L 168.875385 72.820811 
L 169.190197 71.997044 
L 169.347602 73.893682 
L 169.505008 72.256307 
L 169.662414 72.304534 
L 169.977225 72.143948 
L 170.134631 71.781338 
L 170.449442 73.464574 
L 170.764254 71.523673 
L 171.079065 71.696979 
L 171.393877 73.530679 
L 171.708688 71.670521 
L 171.866094 71.625885 
L 172.023499 72.790193 
L 172.180905 72.760514 
L 172.338311 72.536964 
L 172.495717 70.869323 
L 172.810528 72.066392 
L 172.967934 70.862204 
L 173.12534 72.069031 
L 173.282745 71.766343 
L 173.440151 71.544925 
L 173.754962 69.991632 
L 173.912368 69.889188 
L 174.22718 69.066022 
L 174.541991 70.129292 
L 174.699397 68.935335 
L 174.856802 69.123022 
L 175.014208 68.976568 
L 175.486425 66.701641 
L 175.643831 67.471956 
L 175.958642 66.075125 
L 176.116048 66.748637 
L 176.43086 64.758839 
L 176.588265 66.234847 
L 176.903077 64.408969 
L 177.060483 65.435746 
L 177.375294 63.361158 
L 178.63454 60.22994 
L 178.791945 61.263835 
L 178.949351 59.857649 
L 179.106757 60.584138 
L 179.264163 58.704151 
L 179.421568 60.133088 
L 179.73638 59.356431 
L 180.051191 57.354059 
L 180.208597 58.107063 
L 180.366003 57.694035 
L 180.680814 55.18493 
L 180.83822 55.958849 
L 181.153031 53.690319 
L 181.310437 53.293986 
L 181.467843 53.501203 
L 181.94006 51.779393 
L 182.097466 52.112136 
L 182.569683 49.860966 
L 182.727088 50.501566 
L 182.884494 49.66133 
L 183.0419 49.992248 
L 183.671523 47.199468 
L 183.828929 48.14375 
L 183.986334 47.570199 
L 184.14374 45.638051 
L 184.301146 45.9349 
L 184.458551 44.28628 
L 184.615957 45.817395 
L 185.24558 42.142915 
L 185.402986 43.534694 
L 185.717797 41.665051 
L 185.875203 42.105924 
L 186.032609 42.230541 
L 186.190014 40.589007 
L 186.34742 41.098541 
L 186.504826 39.308515 
L 186.662231 39.859683 
L 186.819637 39.593097 
L 187.134449 38.131966 
L 187.291854 38.476836 
L 187.44926 37.092087 
L 187.606666 37.518326 
L 187.764072 36.314779 
L 187.921477 37.619725 
L 188.078883 35.259956 
L 188.236289 35.516707 
L 188.393694 35.617046 
L 188.5511 36.270303 
L 189.023317 33.178032 
L 189.338129 33.389094 
L 189.495534 33.419507 
L 189.65294 32.140423 
L 189.810346 32.431297 
L 189.967752 31.761521 
L 190.282563 32.654014 
L 190.439969 30.356156 
L 190.597374 32.303622 
L 190.912186 30.905091 
L 191.069592 31.065665 
L 191.226997 30.765323 
L 191.541809 29.510055 
L 191.699215 29.298817 
L 191.85662 28.729529 
L 192.014026 29.788678 
L 192.171432 28.022884 
L 192.328837 28.372828 
L 192.486243 29.613674 
L 192.643649 28.163229 
L 192.801055 28.504089 
L 192.95846 28.421393 
L 193.115866 28.606542 
L 193.430677 26.526091 
L 193.588083 28.015894 
L 193.745489 27.022256 
L 194.217706 27.981329 
L 194.375112 27.556096 
L 194.532518 26.049714 
L 194.689923 27.717943 
L 195.004735 26.213139 
L 195.319546 27.154635 
L 195.476952 25.559048 
L 195.634358 25.621706 
L 195.791763 26.30059 
L 196.106575 25.425988 
L 196.26398 25.687603 
L 196.421386 26.576986 
L 196.578792 25.886327 
L 196.736198 25.957789 
L 196.893603 27.431246 
L 197.051009 26.488481 
L 197.208415 27.726702 
L 197.36582 27.491622 
L 197.523226 27.76551 
L 197.838038 27.224201 
L 197.995443 27.687648 
L 198.310255 26.581058 
L 198.625066 28.720414 
L 198.782472 26.893083 
L 198.939878 28.354297 
L 199.254689 27.302958 
L 199.412095 27.757737 
L 199.569501 29.663257 
L 199.726906 29.062339 
L 199.884312 29.593427 
L 200.041718 28.898031 
L 200.199123 29.270811 
L 200.356529 28.669836 
L 200.513935 30.121877 
L 200.671341 29.324685 
L 201.143558 31.334488 
L 201.300963 30.617026 
L 201.458369 31.190055 
L 201.615775 30.534642 
L 201.930586 32.794456 
L 202.087992 32.024475 
L 202.245398 32.394191 
L 202.402804 32.097475 
L 202.560209 32.399556 
L 202.717615 34.259366 
L 202.875021 33.920207 
L 203.504644 36.293296 
L 203.662049 34.579065 
L 204.449078 37.06353 
L 204.606484 38.496714 
L 204.763889 37.244902 
L 204.921295 39.679413 
L 205.078701 38.691923 
L 205.236107 40.451621 
L 205.393512 38.685057 
L 206.180541 42.597727 
L 206.337947 41.445703 
L 206.652758 43.890206 
L 206.810164 43.819325 
L 206.967569 42.751861 
L 207.439787 45.736483 
L 207.597192 44.93647 
L 207.754598 46.836693 
L 207.912004 46.592688 
L 208.069409 46.032086 
L 208.226815 48.441966 
L 208.541627 47.080312 
L 208.699032 49.241931 
L 208.856438 48.504389 
L 209.17125 49.076079 
L 209.643467 52.212522 
L 209.800872 51.542948 
L 210.27309 52.875224 
L 210.587901 54.599283 
L 210.902712 53.550996 
L 211.532335 56.874793 
L 211.689741 55.818059 
L 212.161958 58.967904 
L 212.319364 58.43579 
L 212.47677 59.803014 
L 212.634175 58.822231 
L 212.791581 60.483579 
L 212.948987 60.107248 
L 213.106393 61.010772 
L 213.263798 59.656307 
L 213.421204 61.718877 
L 213.57861 61.372471 
L 213.736015 63.06528 
L 213.893421 62.053311 
L 214.365638 63.612147 
L 214.523044 62.83684 
L 214.68045 64.813805 
L 214.837855 63.972759 
L 214.995261 64.112439 
L 215.467478 65.260354 
L 215.78229 67.301324 
L 215.939696 65.69252 
L 215.939696 65.69252 
" clip-path="url(#pe5455df5d2)" style="fill: none; stroke: #3362b0; stroke-width: 1.5; stroke-linecap: square"/>
   </g>
   <g id="line2d_26">
    <path d="M 137.394241 27.29247 
L 137.551647 25.952184 
L 137.709052 26.07687 
L 137.866458 27.482096 
L 138.023864 26.093865 
L 138.18127 27.441654 
L 138.338675 27.406372 
L 138.653487 27.330609 
L 138.810892 28.062735 
L 138.968298 27.648411 
L 139.125704 28.272398 
L 139.28311 28.114325 
L 139.440515 27.11476 
L 139.755327 29.15837 
L 139.912732 27.982867 
L 140.070138 29.175557 
L 140.38495 27.916331 
L 140.699761 30.233877 
L 140.857167 29.843306 
L 141.014573 30.120277 
L 141.329384 31.362949 
L 141.48679 30.193436 
L 141.644195 30.76512 
L 141.801601 30.137562 
L 142.116413 31.233708 
L 142.58863 33.59138 
L 142.746035 33.386843 
L 142.903441 32.867848 
L 143.060847 34.421737 
L 143.375658 33.503999 
L 143.533064 35.479724 
L 143.69047 33.843379 
L 144.634904 37.373903 
L 144.79231 36.773113 
L 144.949716 38.639806 
L 145.107121 36.914708 
L 145.421933 39.773435 
L 145.579338 39.886018 
L 145.736744 38.585123 
L 146.051556 40.776478 
L 146.208961 40.781686 
L 146.366367 42.058239 
L 146.523773 40.787752 
L 146.681178 42.308091 
L 146.838584 41.597621 
L 147.153396 44.106789 
L 147.310801 42.787544 
L 147.783019 45.405692 
L 147.940424 44.201717 
L 148.09783 45.706543 
L 148.255236 45.128596 
L 148.727453 47.354764 
L 148.884859 46.720323 
L 149.042264 49.283963 
L 149.19967 47.844947 
L 149.357076 50.185366 
L 149.514481 49.814626 
L 149.671887 49.846796 
L 150.616321 53.08309 
L 150.773727 52.15157 
L 150.931133 52.841171 
L 151.245944 55.290883 
L 151.40335 54.731238 
L 151.718162 56.06652 
L 152.032973 56.817746 
L 152.347784 56.195835 
L 152.820002 58.869669 
L 152.977407 59.239846 
L 153.134813 58.392522 
L 153.449624 61.116367 
L 153.60703 60.492851 
L 153.921842 62.226292 
L 154.079247 60.565633 
L 154.236653 62.104629 
L 154.394059 61.356064 
L 155.023682 64.773291 
L 155.181087 63.647205 
L 155.338493 64.939488 
L 155.495899 64.178361 
L 155.653305 65.587388 
L 155.81071 65.47762 
L 155.968116 65.477517 
L 156.125522 66.850975 
L 156.282927 66.100473 
L 156.440333 67.592152 
L 156.597739 67.323362 
L 156.755145 67.502118 
L 156.91255 68.160867 
L 157.069956 66.710737 
L 157.227362 69.110499 
L 157.384767 67.457072 
L 157.542173 68.29995 
L 157.699579 67.793943 
L 157.856985 68.909693 
L 158.01439 68.846226 
L 158.171796 68.736987 
L 158.329202 69.080961 
L 158.486608 70.695949 
L 158.644013 70.153699 
L 158.801419 70.778181 
L 158.958825 69.570443 
L 159.273636 70.902098 
L 159.431042 70.737095 
L 159.588448 72.137628 
L 159.745853 70.618959 
L 160.060665 72.669524 
L 160.375476 71.667452 
L 160.690288 73.165256 
L 160.847693 71.196176 
L 161.162505 73.252161 
L 161.31991 72.180641 
L 161.477316 73.474165 
L 161.634722 73.417416 
L 161.792128 73.57371 
L 162.106939 71.668542 
L 162.421751 73.662965 
L 162.579156 73.580309 
L 162.893968 72.365567 
L 163.051373 72.510323 
L 163.208779 73.852526 
L 163.366185 72.519524 
L 163.523591 73.735161 
L 163.680996 72.314415 
L 163.838402 72.937197 
L 163.995808 71.43928 
L 164.153213 71.561022 
L 164.310619 71.758894 
L 164.468025 71.496702 
L 164.940242 72.84587 
L 165.097648 71.819243 
L 165.255053 72.420503 
L 165.412459 70.887719 
L 165.569865 72.21254 
L 165.727271 72.11744 
L 166.042082 69.897563 
L 166.356894 71.363336 
L 166.514299 70.247896 
L 166.671705 70.965015 
L 166.829111 70.402768 
L 166.986516 68.737446 
L 167.143922 70.51659 
L 167.301328 70.333856 
L 167.458734 69.95612 
L 167.616139 68.899571 
L 167.773545 69.239898 
L 167.930951 67.366306 
L 168.088356 68.383229 
L 168.560574 67.028811 
L 168.717979 66.066742 
L 168.875385 67.447307 
L 169.190197 65.422266 
L 169.347602 65.169484 
L 169.505008 66.18502 
L 169.819819 64.538835 
L 169.977225 65.454679 
L 170.292037 63.153872 
L 170.449442 64.440226 
L 170.764254 62.4273 
L 170.921659 62.974399 
L 171.079065 62.924828 
L 171.393877 60.530607 
L 171.551282 60.633475 
L 171.708688 61.022211 
L 172.023499 60.468196 
L 172.180905 59.243968 
L 172.338311 59.738257 
L 172.810528 58.580451 
L 172.967934 56.844459 
L 173.12534 57.014136 
L 173.597557 55.05018 
L 173.754962 55.128039 
L 174.069774 53.207705 
L 174.22718 54.467184 
L 174.384585 54.045157 
L 174.856802 51.494939 
L 175.014208 50.938778 
L 175.32902 51.850214 
L 175.643831 49.028981 
L 176.588265 46.248588 
L 176.745671 47.001293 
L 176.903077 45.658926 
L 177.060483 46.584525 
L 177.375294 44.172531 
L 177.5327 45.066161 
L 177.690105 44.741949 
L 178.004917 42.829134 
L 178.162323 43.111002 
L 178.477134 41.799802 
L 178.63454 42.926979 
L 179.106757 39.778487 
L 179.264163 40.818447 
L 179.578974 38.23538 
L 179.893786 39.333759 
L 180.208597 36.715865 
L 180.523408 37.859181 
L 180.83822 35.66165 
L 180.995626 37.181897 
L 181.310437 34.680661 
L 181.467843 35.089321 
L 181.782654 33.501178 
L 181.94006 33.719756 
L 182.254871 33.064836 
L 182.412277 34.135215 
L 182.727088 32.001678 
L 182.884494 33.1079 
L 183.0419 31.212872 
L 183.356711 32.475948 
L 183.671523 30.767098 
L 183.828929 30.628257 
L 184.14374 30.955246 
L 184.301146 30.015473 
L 184.615957 30.577409 
L 184.773363 28.26905 
L 184.930769 29.225409 
L 185.088174 27.894271 
L 185.402986 28.794398 
L 185.717797 27.26577 
L 185.875203 28.727714 
L 186.032609 28.420795 
L 186.190014 27.755477 
L 186.34742 28.204927 
L 186.504826 27.447522 
L 186.662231 27.527636 
L 186.819637 27.59636 
L 186.977043 27.378195 
L 187.134449 25.878192 
L 187.44926 27.916838 
L 187.606666 25.643333 
L 187.764072 26.013401 
L 187.921477 27.092693 
L 188.078883 26.819702 
L 188.236289 26.055523 
L 188.393694 26.939378 
L 188.5511 26.737881 
L 188.708506 26.898017 
L 189.023317 26.484526 
L 189.180723 25.534468 
L 189.338129 27.09412 
L 189.495534 26.046699 
L 189.810346 27.563188 
L 190.125157 26.060106 
L 190.282563 27.323237 
L 190.439969 26.133141 
L 190.597374 27.762281 
L 190.75478 27.551327 
L 191.069592 26.818749 
L 191.226997 27.104472 
L 191.384403 28.199319 
L 191.541809 27.241469 
L 191.85662 28.694963 
L 192.014026 29.14936 
L 192.171432 28.727368 
L 192.328837 27.706056 
L 192.486243 28.065768 
L 192.801055 29.674638 
L 193.115866 28.433978 
L 193.588083 31.311099 
L 193.745489 30.531804 
L 194.0603 31.787555 
L 194.217706 30.454663 
L 194.375112 30.61426 
L 194.532518 31.330086 
L 194.689923 33.17245 
L 194.847329 32.73866 
L 195.004735 31.660159 
L 195.16214 31.794461 
L 195.634358 33.712359 
L 195.949169 34.727796 
L 196.106575 34.51428 
L 196.26398 36.206017 
L 196.578792 35.215179 
L 196.736198 37.017071 
L 196.893603 36.934242 
L 197.208415 38.298994 
L 197.36582 38.287254 
L 197.523226 39.138868 
L 197.680632 37.689508 
L 197.995443 38.820708 
L 198.152849 38.506949 
L 198.310255 40.048469 
L 198.467661 40.016764 
L 198.625066 40.166668 
L 198.782472 42.045397 
L 198.939878 41.16252 
L 199.097283 41.463742 
L 199.254689 42.326832 
L 199.412095 41.894851 
L 199.569501 43.301909 
L 199.726906 42.864628 
L 200.513935 45.008001 
L 200.828746 46.803846 
L 200.986152 46.524338 
L 201.458369 49.076835 
L 201.615775 49.045514 
L 202.402804 52.151137 
L 202.560209 50.626194 
L 202.717615 52.480776 
L 202.875021 52.459489 
L 203.189832 54.102062 
L 203.347238 52.55304 
L 203.819455 55.397009 
L 204.449078 57.425805 
L 204.606484 55.931361 
L 204.921295 58.132758 
L 205.078701 57.538838 
L 205.236107 57.758806 
L 205.393512 60.204334 
L 205.550918 59.450479 
L 205.708324 60.885201 
L 206.023135 59.906011 
L 206.495352 61.313124 
L 206.652758 61.429522 
L 207.282381 63.945111 
L 207.439787 64.805762 
L 207.754598 64.067162 
L 207.912004 64.127734 
L 208.226815 66.677364 
L 208.384221 66.048657 
L 208.856438 67.733177 
L 209.013844 66.564855 
L 209.17125 68.255876 
L 209.486061 66.832193 
L 209.643467 67.350656 
L 209.958278 69.696869 
L 210.115684 68.760504 
L 210.587901 69.895842 
L 210.745307 68.895902 
L 210.902712 70.775618 
L 211.060118 69.405085 
L 211.217524 69.440206 
L 211.37493 69.711147 
L 211.689741 71.337136 
L 211.847147 70.179412 
L 212.004552 70.353799 
L 212.319364 72.406138 
L 212.47677 71.33885 
L 212.634175 72.030167 
L 212.791581 71.922132 
L 212.948987 71.750051 
L 213.106393 71.175012 
L 213.421204 72.565538 
L 213.57861 73.04354 
L 213.893421 72.452237 
L 214.050827 72.626303 
L 214.208233 73.55475 
L 214.365638 71.863609 
L 214.68045 73.945557 
L 214.837855 73.038348 
L 215.152667 73.867703 
L 215.624884 72.048374 
L 215.78229 72.426103 
L 215.939696 73.367569 
L 215.939696 73.367569 
" clip-path="url(#pe5455df5d2)" style="fill: none; stroke: #cc3164; stroke-width: 1.5; stroke-linecap: square"/>
   </g>
   <g id="patch_9">
    <path d="M 133.466968 76.372745 
L 133.466968 22.974608 
" style="fill: none; stroke: #4d4f53; stroke-width: 0.8; stroke-linejoin: miter; stroke-linecap: square"/>
   </g>
   <g id="patch_10">
    <path d="M 219.866968 76.372745 
L 219.866968 22.974608 
" style="fill: none; stroke: #4d4f53; stroke-width: 0.8; stroke-linejoin: miter; stroke-linecap: square"/>
   </g>
   <g id="patch_11">
    <path d="M 133.466968 76.372745 
L 219.866968 76.372745 
" style="fill: none; stroke: #4d4f53; stroke-width: 0.8; stroke-linejoin: miter; stroke-linecap: square"/>
   </g>
   <g id="patch_12">
    <path d="M 133.466968 22.974608 
L 219.866968 22.974608 
" style="fill: none; stroke: #4d4f53; stroke-width: 0.8; stroke-linejoin: miter; stroke-linecap: square"/>
   </g>
   <g id="legend_2">
    <g id="patch_13">
     <path d="M 187.196392 76.372745 
L 219.866968 76.372745 
L 219.866968 39.159031 
L 187.196392 39.159031 
z
" style="fill: #ffffff; stroke: #4d4f53; stroke-width: 0.8; stroke-linejoin: miter"/>
    </g>
    <g id="text_14">
     <!-- title -->
     <g style="fill: #4d4f53" transform="translate(195.693581 49.04092) scale(0.0833 -0.0833)">
      <use xlink:href="#LMRoman17-Regular-74" transform="scale(0.996264)"/>
      <use xlink:href="#LMRoman17-Regular-69" transform="translate(35.281528 0) scale(0.996264)"/>
      <use xlink:href="#LMRoman17-Regular-74" transform="translate(60.153544 0) scale(0.996264)"/>
      <use xlink:href="#LMRoman17-Regular-6c" transform="translate(95.435072 0) scale(0.996264)"/>
      <use xlink:href="#LMRoman17-Regular-65" transform="translate(120.307088 0) scale(0.996264)"/>
     </g>
    </g>
    <g id="line2d_27">
     <path d="M 191.361392 56.902028 
L 197.192392 56.902028 
L 203.023392 56.902028 
" style="fill: none; stroke: #3362b0; stroke-width: 1.5; stroke-linecap: square"/>
    </g>
    <g id="text_15">
     <!-- $x_1$ -->
     <g style="fill: #4d4f53" transform="translate(207.188392 59.817528) scale(0.0833 -0.0833)">
      <use xlink:href="#LMMathItalic12-Regular-78" transform="scale(0.996264)"/>
      <use xlink:href="#LMRoman17-Regular-31" transform="translate(55.43406 -14.943915) scale(0.697382)"/>
     </g>
    </g>
    <g id="line2d_28">
     <path d="M 191.361392 67.678637 
L 197.192392 67.678637 
L 203.023392 67.678637 
" style="fill: none; stroke: #cc3164; stroke-width: 1.5; stroke-linecap: square"/>
    </g>
    <g id="text_16">
     <!-- $x_2$ -->
     <g style="fill: #4d4f53" transform="translate(207.188392 70.594137) scale(0.0833 -0.0833)">
      <use xlink:href="#LMMathItalic12-Regular-78" transform="scale(0.996264)"/>
      <use xlink:href="#LMRoman17-Regular-32" transform="translate(55.43406 -14.943915) scale(0.697382)"/>
     </g>
    </g>
   </g>
  </g>
  <g id="axes_3">
   <g id="patch_14">
    <path d="M 241.466968 76.372745 
L 327.866968 76.372745 
L 327.866968 22.974608 
L 241.466968 22.974608 
L 241.466968 76.372745 
z
" style="fill: none"/>
   </g>
   <g id="matplotlib.axis_5">
    <g id="xtick_5">
     <g id="line2d_29">
      <path d="M 245.394241 76.372745 
L 245.394241 22.974608 
" clip-path="url(#p5632c0a247)" style="fill: none; stroke-dasharray: 2.96,1.28; stroke-dashoffset: 0; stroke: #dddfe5; stroke-width: 0.8"/>
     </g>
     <g id="line2d_30">
      <g>
       <use xlink:href="#m8edcab229f" x="245.394241" y="76.372745" style="fill: #4d4f53; stroke: #4d4f53; stroke-width: 0.8"/>
      </g>
     </g>
     <g id="text_17">
      <!-- $\mathdefault{0}$ -->
      <g style="fill: #4d4f53" transform="translate(243.189853 89.089634) scale(0.0833 -0.0833)">
       <use xlink:href="#LMRoman17-Regular-30" transform="scale(0.996264)"/>
      </g>
     </g>
    </g>
    <g id="xtick_6">
     <g id="line2d_31">
      <path d="M 287.063899 76.372745 
L 287.063899 22.974608 
" clip-path="url(#p5632c0a247)" style="fill: none; stroke-dasharray: 2.96,1.28; stroke-dashoffset: 0; stroke: #dddfe5; stroke-width: 0.8"/>
     </g>
     <g id="line2d_32">
      <g>
       <use xlink:href="#m8edcab229f" x="287.063899" y="76.372745" style="fill: #4d4f53; stroke: #4d4f53; stroke-width: 0.8"/>
      </g>
     </g>
     <g id="text_18">
      <!-- $\mathdefault{5}$ -->
      <g style="fill: #4d4f53" transform="translate(284.859511 89.089634) scale(0.0833 -0.0833)">
       <use xlink:href="#LMRoman17-Regular-35" transform="scale(0.996264)"/>
      </g>
     </g>
    </g>
   </g>
   <g id="matplotlib.axis_6">
    <g id="ytick_7">
     <g id="line2d_33">
      <path d="M 241.466968 73.967029 
L 327.866968 73.967029 
" clip-path="url(#p5632c0a247)" style="fill: none; stroke-dasharray: 2.96,1.28; stroke-dashoffset: 0; stroke: #dddfe5; stroke-width: 0.8"/>
     </g>
     <g id="line2d_34">
      <g>
       <use xlink:href="#m7a4f308d96" x="241.466968" y="73.967029" style="fill: #4d4f53; stroke: #4d4f53; stroke-width: 0.8"/>
      </g>
     </g>
     <g id="text_19">
      <!-- $\mathdefault{−1}$ -->
      <g style="fill: #4d4f53" transform="translate(223.2 76.825473) scale(0.0833 -0.0833)">
       <use xlink:href="#LMMathSymbols10-Regular-0" transform="scale(0.996264)"/>
       <use xlink:href="#LMRoman17-Regular-31" transform="translate(77.487468 0) scale(0.996264)"/>
      </g>
     </g>
    </g>
    <g id="ytick_8">
     <g id="line2d_35">
      <path d="M 241.466968 50.836382 
L 327.866968 50.836382 
" clip-path="url(#p5632c0a247)" style="fill: none; stroke-dasharray: 2.96,1.28; stroke-dashoffset: 0; stroke: #dddfe5; stroke-width: 0.8"/>
     </g>
     <g id="line2d_36">
      <g>
       <use xlink:href="#m7a4f308d96" x="241.466968" y="50.836382" style="fill: #4d4f53; stroke: #4d4f53; stroke-width: 0.8"/>
      </g>
     </g>
     <g id="text_20">
      <!-- $\mathdefault{0}$ -->
      <g style="fill: #4d4f53" transform="translate(230.058193 53.694827) scale(0.0833 -0.0833)">
       <use xlink:href="#LMRoman17-Regular-30" transform="scale(0.996264)"/>
      </g>
     </g>
    </g>
    <g id="ytick_9">
     <g id="line2d_37">
      <path d="M 241.466968 27.705736 
L 327.866968 27.705736 
" clip-path="url(#p5632c0a247)" style="fill: none; stroke-dasharray: 2.96,1.28; stroke-dashoffset: 0; stroke: #dddfe5; stroke-width: 0.8"/>
     </g>
     <g id="line2d_38">
      <g>
       <use xlink:href="#m7a4f308d96" x="241.466968" y="27.705736" style="fill: #4d4f53; stroke: #4d4f53; stroke-width: 0.8"/>
      </g>
     </g>
     <g id="text_21">
      <!-- $\mathdefault{1}$ -->
      <g style="fill: #4d4f53" transform="translate(230.058193 30.56418) scale(0.0833 -0.0833)">
       <use xlink:href="#LMRoman17-Regular-31" transform="scale(0.996264)"/>
      </g>
     </g>
    </g>
   </g>
   <g id="line2d_39">
    <path d="M 245.394241 33.507447 
L 246.023864 31.536808 
L 246.18127 31.861235 
L 246.338675 29.947172 
L 246.496081 30.254313 
L 246.653487 31.433902 
L 246.968298 29.769695 
L 247.125704 30.706105 
L 247.28311 28.499351 
L 247.440515 29.535302 
L 247.755327 28.317728 
L 247.912732 29.127019 
L 248.227544 28.249745 
L 248.38495 27.673443 
L 248.542355 28.835589 
L 248.699761 28.449378 
L 248.857167 27.419342 
L 249.014573 27.675357 
L 249.171978 28.287359 
L 249.329384 27.621998 
L 249.48679 28.002029 
L 249.801601 26.331756 
L 249.959007 27.737801 
L 250.116413 25.869167 
L 250.273818 27.025008 
L 250.431224 26.77678 
L 250.58863 26.703557 
L 250.746035 27.797698 
L 251.060847 25.461109 
L 251.375658 27.423162 
L 251.69047 26.102991 
L 251.847875 27.707306 
L 252.005281 26.875778 
L 252.162687 27.618155 
L 252.320093 25.960387 
L 252.477498 27.017646 
L 252.634904 26.250421 
L 252.79231 26.796069 
L 252.949716 25.747078 
L 253.421933 26.935643 
L 253.579338 26.031887 
L 253.89415 28.524695 
L 254.051556 28.473446 
L 254.208961 26.63685 
L 254.366367 26.694326 
L 254.681178 28.455213 
L 254.838584 27.732294 
L 254.99599 29.547242 
L 255.153396 27.990347 
L 255.310801 28.378414 
L 255.468207 29.6816 
L 255.783019 28.418127 
L 255.940424 30.363278 
L 256.09783 28.851863 
L 256.255236 30.434744 
L 256.412641 29.799094 
L 256.570047 31.045776 
L 256.727453 30.707087 
L 256.884859 31.751422 
L 257.042264 31.340864 
L 257.357076 32.048721 
L 257.514481 31.413591 
L 257.671887 32.390901 
L 257.829293 32.150595 
L 257.986699 32.289859 
L 258.144104 33.616074 
L 258.30151 32.635938 
L 258.931133 34.958321 
L 259.088539 34.287287 
L 259.560756 36.874444 
L 259.718162 35.592798 
L 260.190379 38.338218 
L 260.347784 38.266531 
L 260.820002 40.123191 
L 260.977407 39.223764 
L 261.134813 41.136471 
L 261.292219 41.058483 
L 261.60703 40.245946 
L 261.921842 42.283795 
L 262.079247 41.665042 
L 262.236653 41.760176 
L 262.551464 43.994193 
L 262.70887 43.703204 
L 263.023682 46.098365 
L 263.181087 45.793331 
L 263.338493 45.909859 
L 263.495899 47.351144 
L 263.653305 45.778982 
L 264.597739 50.218474 
L 264.755145 50.394791 
L 264.91255 49.804561 
L 265.069956 50.706014 
L 265.227362 50.089179 
L 265.699579 53.12819 
L 266.01439 53.42507 
L 266.171796 54.679431 
L 266.329202 53.815359 
L 266.486608 55.579279 
L 266.644013 54.466621 
L 266.801419 55.037944 
L 266.958825 56.966624 
L 267.11623 55.64176 
L 267.273636 57.041452 
L 267.431042 56.444489 
L 267.903259 59.071259 
L 268.060665 57.915442 
L 268.21807 59.646705 
L 268.375476 58.948079 
L 268.532882 59.760899 
L 268.690288 59.372164 
L 269.162505 62.414325 
L 269.31991 60.764608 
L 269.634722 63.368989 
L 269.792128 62.509229 
L 270.106939 63.504794 
L 270.264345 63.0285 
L 270.421751 63.386695 
L 270.579156 65.193399 
L 270.736562 64.467347 
L 271.208779 66.954152 
L 271.366185 66.922581 
L 271.523591 66.218474 
L 271.680996 67.333465 
L 271.838402 67.261218 
L 271.995808 67.768314 
L 272.153213 67.689931 
L 272.310619 67.601552 
L 272.468025 67.185119 
L 272.625431 69.562459 
L 272.782836 68.603192 
L 272.940242 68.652109 
L 273.097648 70.005234 
L 273.255053 68.921826 
L 273.412459 69.949982 
L 273.569865 69.858515 
L 273.727271 69.913301 
L 273.884676 69.497378 
L 274.199488 70.378593 
L 274.514299 72.079181 
L 274.829111 70.695109 
L 274.986516 71.028987 
L 275.143922 72.341591 
L 275.301328 72.301119 
L 275.458734 72.55721 
L 275.773545 71.766416 
L 276.088356 72.828415 
L 276.403168 71.668788 
L 276.560574 72.442689 
L 276.717979 72.095017 
L 276.875385 72.820811 
L 277.190197 71.997044 
L 277.347602 73.893682 
L 277.505008 72.256307 
L 277.662414 72.304534 
L 277.977225 72.143948 
L 278.134631 71.781338 
L 278.449442 73.464574 
L 278.764254 71.523673 
L 279.079065 71.696979 
L 279.393877 73.530679 
L 279.708688 71.670521 
L 279.866094 71.625885 
L 280.023499 72.790193 
L 280.180905 72.760514 
L 280.338311 72.536964 
L 280.495717 70.869323 
L 280.810528 72.066392 
L 280.967934 70.862204 
L 281.12534 72.069031 
L 281.282745 71.766343 
L 281.440151 71.544925 
L 281.754962 69.991632 
L 281.912368 69.889188 
L 282.22718 69.066022 
L 282.541991 70.129292 
L 282.699397 68.935335 
L 282.856802 69.123022 
L 283.014208 68.976568 
L 283.486425 66.701641 
L 283.643831 67.471956 
L 283.958642 66.075125 
L 284.116048 66.748637 
L 284.43086 64.758839 
L 284.588265 66.234847 
L 284.903077 64.408969 
L 285.060483 65.435746 
L 285.375294 63.361158 
L 286.63454 60.22994 
L 286.791945 61.263835 
L 286.949351 59.857649 
L 287.106757 60.584138 
L 287.264163 58.704151 
L 287.421568 60.133088 
L 287.73638 59.356431 
L 288.051191 57.354059 
L 288.208597 58.107063 
L 288.366003 57.694035 
L 288.680814 55.18493 
L 288.83822 55.958849 
L 289.153031 53.690319 
L 289.310437 53.293986 
L 289.467843 53.501203 
L 289.94006 51.779393 
L 290.097466 52.112136 
L 290.569683 49.860966 
L 290.727088 50.501566 
L 290.884494 49.66133 
L 291.0419 49.992248 
L 291.671523 47.199468 
L 291.828929 48.14375 
L 291.986334 47.570199 
L 292.14374 45.638051 
L 292.301146 45.9349 
L 292.458551 44.28628 
L 292.615957 45.817395 
L 293.24558 42.142915 
L 293.402986 43.534694 
L 293.717797 41.665051 
L 293.875203 42.105924 
L 294.032609 42.230541 
L 294.190014 40.589007 
L 294.34742 41.098541 
L 294.504826 39.308515 
L 294.662231 39.859683 
L 294.819637 39.593097 
L 295.134449 38.131966 
L 295.291854 38.476836 
L 295.44926 37.092087 
L 295.606666 37.518326 
L 295.764072 36.314779 
L 295.921477 37.619725 
L 296.078883 35.259956 
L 296.236289 35.516707 
L 296.393694 35.617046 
L 296.5511 36.270303 
L 297.023317 33.178032 
L 297.338129 33.389094 
L 297.495534 33.419507 
L 297.65294 32.140423 
L 297.810346 32.431297 
L 297.967752 31.761521 
L 298.282563 32.654014 
L 298.439969 30.356156 
L 298.597374 32.303622 
L 298.912186 30.905091 
L 299.069592 31.065665 
L 299.226997 30.765323 
L 299.541809 29.510055 
L 299.699215 29.298817 
L 299.85662 28.729529 
L 300.014026 29.788678 
L 300.171432 28.022884 
L 300.328837 28.372828 
L 300.486243 29.613674 
L 300.643649 28.163229 
L 300.801055 28.504089 
L 300.95846 28.421393 
L 301.115866 28.606542 
L 301.430677 26.526091 
L 301.588083 28.015894 
L 301.745489 27.022256 
L 302.217706 27.981329 
L 302.375112 27.556096 
L 302.532518 26.049714 
L 302.689923 27.717943 
L 303.004735 26.213139 
L 303.319546 27.154635 
L 303.476952 25.559048 
L 303.634358 25.621706 
L 303.791763 26.30059 
L 304.106575 25.425988 
L 304.26398 25.687603 
L 304.421386 26.576986 
L 304.578792 25.886327 
L 304.736198 25.957789 
L 304.893603 27.431246 
L 305.051009 26.488481 
L 305.208415 27.726702 
L 305.36582 27.491622 
L 305.523226 27.76551 
L 305.838038 27.224201 
L 305.995443 27.687648 
L 306.310255 26.581058 
L 306.625066 28.720414 
L 306.782472 26.893083 
L 306.939878 28.354297 
L 307.254689 27.302958 
L 307.412095 27.757737 
L 307.569501 29.663257 
L 307.726906 29.062339 
L 307.884312 29.593427 
L 308.041718 28.898031 
L 308.199123 29.270811 
L 308.356529 28.669836 
L 308.513935 30.121877 
L 308.671341 29.324685 
L 309.143558 31.334488 
L 309.300963 30.617026 
L 309.458369 31.190055 
L 309.615775 30.534642 
L 309.930586 32.794456 
L 310.087992 32.024475 
L 310.245398 32.394191 
L 310.402804 32.097475 
L 310.560209 32.399556 
L 310.717615 34.259366 
L 310.875021 33.920207 
L 311.504644 36.293296 
L 311.662049 34.579065 
L 312.449078 37.06353 
L 312.606484 38.496714 
L 312.763889 37.244902 
L 312.921295 39.679413 
L 313.078701 38.691923 
L 313.236107 40.451621 
L 313.393512 38.685057 
L 314.180541 42.597727 
L 314.337947 41.445703 
L 314.652758 43.890206 
L 314.810164 43.819325 
L 314.967569 42.751861 
L 315.439787 45.736483 
L 315.597192 44.93647 
L 315.754598 46.836693 
L 315.912004 46.592688 
L 316.069409 46.032086 
L 316.226815 48.441966 
L 316.541627 47.080312 
L 316.699032 49.241931 
L 316.856438 48.504389 
L 317.17125 49.076079 
L 317.643467 52.212522 
L 317.800872 51.542948 
L 318.27309 52.875224 
L 318.587901 54.599283 
L 318.902712 53.550996 
L 319.532335 56.874793 
L 319.689741 55.818059 
L 320.161958 58.967904 
L 320.319364 58.43579 
L 320.47677 59.803014 
L 320.634175 58.822231 
L 320.791581 60.483579 
L 320.948987 60.107248 
L 321.106393 61.010772 
L 321.263798 59.656307 
L 321.421204 61.718877 
L 321.57861 61.372471 
L 321.736015 63.06528 
L 321.893421 62.053311 
L 322.365638 63.612147 
L 322.523044 62.83684 
L 322.68045 64.813805 
L 322.837855 63.972759 
L 322.995261 64.112439 
L 323.467478 65.260354 
L 323.78229 67.301324 
L 323.939696 65.69252 
L 323.939696 65.69252 
" clip-path="url(#p5632c0a247)" style="fill: none; stroke: #3362b0; stroke-width: 1.5; stroke-linecap: square"/>
   </g>
   <g id="line2d_40">
    <path d="M 245.394241 27.29247 
L 245.551647 25.952184 
L 245.709052 26.07687 
L 245.866458 27.482096 
L 246.023864 26.093865 
L 246.18127 27.441654 
L 246.338675 27.406372 
L 246.653487 27.330609 
L 246.810892 28.062735 
L 246.968298 27.648411 
L 247.125704 28.272398 
L 247.28311 28.114325 
L 247.440515 27.11476 
L 247.755327 29.15837 
L 247.912732 27.982867 
L 248.070138 29.175557 
L 248.38495 27.916331 
L 248.699761 30.233877 
L 248.857167 29.843306 
L 249.014573 30.120277 
L 249.329384 31.362949 
L 249.48679 30.193436 
L 249.644195 30.76512 
L 249.801601 30.137562 
L 250.116413 31.233708 
L 250.58863 33.59138 
L 250.746035 33.386843 
L 250.903441 32.867848 
L 251.060847 34.421737 
L 251.375658 33.503999 
L 251.533064 35.479724 
L 251.69047 33.843379 
L 252.634904 37.373903 
L 252.79231 36.773113 
L 252.949716 38.639806 
L 253.107121 36.914708 
L 253.421933 39.773435 
L 253.579338 39.886018 
L 253.736744 38.585123 
L 254.051556 40.776478 
L 254.208961 40.781686 
L 254.366367 42.058239 
L 254.523773 40.787752 
L 254.681178 42.308091 
L 254.838584 41.597621 
L 255.153396 44.106789 
L 255.310801 42.787544 
L 255.783019 45.405692 
L 255.940424 44.201717 
L 256.09783 45.706543 
L 256.255236 45.128596 
L 256.727453 47.354764 
L 256.884859 46.720323 
L 257.042264 49.283963 
L 257.19967 47.844947 
L 257.357076 50.185366 
L 257.514481 49.814626 
L 257.671887 49.846796 
L 258.616321 53.08309 
L 258.773727 52.15157 
L 258.931133 52.841171 
L 259.245944 55.290883 
L 259.40335 54.731238 
L 259.718162 56.06652 
L 260.032973 56.817746 
L 260.347784 56.195835 
L 260.820002 58.869669 
L 260.977407 59.239846 
L 261.134813 58.392522 
L 261.449624 61.116367 
L 261.60703 60.492851 
L 261.921842 62.226292 
L 262.079247 60.565633 
L 262.236653 62.104629 
L 262.394059 61.356064 
L 263.023682 64.773291 
L 263.181087 63.647205 
L 263.338493 64.939488 
L 263.495899 64.178361 
L 263.653305 65.587388 
L 263.81071 65.47762 
L 263.968116 65.477517 
L 264.125522 66.850975 
L 264.282927 66.100473 
L 264.440333 67.592152 
L 264.597739 67.323362 
L 264.755145 67.502118 
L 264.91255 68.160867 
L 265.069956 66.710737 
L 265.227362 69.110499 
L 265.384767 67.457072 
L 265.542173 68.29995 
L 265.699579 67.793943 
L 265.856985 68.909693 
L 266.01439 68.846226 
L 266.171796 68.736987 
L 266.329202 69.080961 
L 266.486608 70.695949 
L 266.644013 70.153699 
L 266.801419 70.778181 
L 266.958825 69.570443 
L 267.273636 70.902098 
L 267.431042 70.737095 
L 267.588448 72.137628 
L 267.745853 70.618959 
L 268.060665 72.669524 
L 268.375476 71.667452 
L 268.690288 73.165256 
L 268.847693 71.196176 
L 269.162505 73.252161 
L 269.31991 72.180641 
L 269.477316 73.474165 
L 269.634722 73.417416 
L 269.792128 73.57371 
L 270.106939 71.668542 
L 270.421751 73.662965 
L 270.579156 73.580309 
L 270.893968 72.365567 
L 271.051373 72.510323 
L 271.208779 73.852526 
L 271.366185 72.519524 
L 271.523591 73.735161 
L 271.680996 72.314415 
L 271.838402 72.937197 
L 271.995808 71.43928 
L 272.153213 71.561022 
L 272.310619 71.758894 
L 272.468025 71.496702 
L 272.940242 72.84587 
L 273.097648 71.819243 
L 273.255053 72.420503 
L 273.412459 70.887719 
L 273.569865 72.21254 
L 273.727271 72.11744 
L 274.042082 69.897563 
L 274.356894 71.363336 
L 274.514299 70.247896 
L 274.671705 70.965015 
L 274.829111 70.402768 
L 274.986516 68.737446 
L 275.143922 70.51659 
L 275.301328 70.333856 
L 275.458734 69.95612 
L 275.616139 68.899571 
L 275.773545 69.239898 
L 275.930951 67.366306 
L 276.088356 68.383229 
L 276.560574 67.028811 
L 276.717979 66.066742 
L 276.875385 67.447307 
L 277.190197 65.422266 
L 277.347602 65.169484 
L 277.505008 66.18502 
L 277.819819 64.538835 
L 277.977225 65.454679 
L 278.292037 63.153872 
L 278.449442 64.440226 
L 278.764254 62.4273 
L 278.921659 62.974399 
L 279.079065 62.924828 
L 279.393877 60.530607 
L 279.551282 60.633475 
L 279.708688 61.022211 
L 280.023499 60.468196 
L 280.180905 59.243968 
L 280.338311 59.738257 
L 280.810528 58.580451 
L 280.967934 56.844459 
L 281.12534 57.014136 
L 281.597557 55.05018 
L 281.754962 55.128039 
L 282.069774 53.207705 
L 282.22718 54.467184 
L 282.384585 54.045157 
L 282.856802 51.494939 
L 283.014208 50.938778 
L 283.32902 51.850214 
L 283.643831 49.028981 
L 284.588265 46.248588 
L 284.745671 47.001293 
L 284.903077 45.658926 
L 285.060483 46.584525 
L 285.375294 44.172531 
L 285.5327 45.066161 
L 285.690105 44.741949 
L 286.004917 42.829134 
L 286.162323 43.111002 
L 286.477134 41.799802 
L 286.63454 42.926979 
L 287.106757 39.778487 
L 287.264163 40.818447 
L 287.578974 38.23538 
L 287.893786 39.333759 
L 288.208597 36.715865 
L 288.523408 37.859181 
L 288.83822 35.66165 
L 288.995626 37.181897 
L 289.310437 34.680661 
L 289.467843 35.089321 
L 289.782654 33.501178 
L 289.94006 33.719756 
L 290.254871 33.064836 
L 290.412277 34.135215 
L 290.727088 32.001678 
L 290.884494 33.1079 
L 291.0419 31.212872 
L 291.356711 32.475948 
L 291.671523 30.767098 
L 291.828929 30.628257 
L 292.14374 30.955246 
L 292.301146 30.015473 
L 292.615957 30.577409 
L 292.773363 28.26905 
L 292.930769 29.225409 
L 293.088174 27.894271 
L 293.402986 28.794398 
L 293.717797 27.26577 
L 293.875203 28.727714 
L 294.032609 28.420795 
L 294.190014 27.755477 
L 294.34742 28.204927 
L 294.504826 27.447522 
L 294.662231 27.527636 
L 294.819637 27.59636 
L 294.977043 27.378195 
L 295.134449 25.878192 
L 295.44926 27.916838 
L 295.606666 25.643333 
L 295.764072 26.013401 
L 295.921477 27.092693 
L 296.078883 26.819702 
L 296.236289 26.055523 
L 296.393694 26.939378 
L 296.5511 26.737881 
L 296.708506 26.898017 
L 297.023317 26.484526 
L 297.180723 25.534468 
L 297.338129 27.09412 
L 297.495534 26.046699 
L 297.810346 27.563188 
L 298.125157 26.060106 
L 298.282563 27.323237 
L 298.439969 26.133141 
L 298.597374 27.762281 
L 298.75478 27.551327 
L 299.069592 26.818749 
L 299.226997 27.104472 
L 299.384403 28.199319 
L 299.541809 27.241469 
L 299.85662 28.694963 
L 300.014026 29.14936 
L 300.171432 28.727368 
L 300.328837 27.706056 
L 300.486243 28.065768 
L 300.801055 29.674638 
L 301.115866 28.433978 
L 301.588083 31.311099 
L 301.745489 30.531804 
L 302.0603 31.787555 
L 302.217706 30.454663 
L 302.375112 30.61426 
L 302.532518 31.330086 
L 302.689923 33.17245 
L 302.847329 32.73866 
L 303.004735 31.660159 
L 303.16214 31.794461 
L 303.634358 33.712359 
L 303.949169 34.727796 
L 304.106575 34.51428 
L 304.26398 36.206017 
L 304.578792 35.215179 
L 304.736198 37.017071 
L 304.893603 36.934242 
L 305.208415 38.298994 
L 305.36582 38.287254 
L 305.523226 39.138868 
L 305.680632 37.689508 
L 305.995443 38.820708 
L 306.152849 38.506949 
L 306.310255 40.048469 
L 306.467661 40.016764 
L 306.625066 40.166668 
L 306.782472 42.045397 
L 306.939878 41.16252 
L 307.097283 41.463742 
L 307.254689 42.326832 
L 307.412095 41.894851 
L 307.569501 43.301909 
L 307.726906 42.864628 
L 308.513935 45.008001 
L 308.828746 46.803846 
L 308.986152 46.524338 
L 309.458369 49.076835 
L 309.615775 49.045514 
L 310.402804 52.151137 
L 310.560209 50.626194 
L 310.717615 52.480776 
L 310.875021 52.459489 
L 311.189832 54.102062 
L 311.347238 52.55304 
L 311.819455 55.397009 
L 312.449078 57.425805 
L 312.606484 55.931361 
L 312.921295 58.132758 
L 313.078701 57.538838 
L 313.236107 57.758806 
L 313.393512 60.204334 
L 313.550918 59.450479 
L 313.708324 60.885201 
L 314.023135 59.906011 
L 314.495352 61.313124 
L 314.652758 61.429522 
L 315.282381 63.945111 
L 315.439787 64.805762 
L 315.754598 64.067162 
L 315.912004 64.127734 
L 316.226815 66.677364 
L 316.384221 66.048657 
L 316.856438 67.733177 
L 317.013844 66.564855 
L 317.17125 68.255876 
L 317.486061 66.832193 
L 317.643467 67.350656 
L 317.958278 69.696869 
L 318.115684 68.760504 
L 318.587901 69.895842 
L 318.745307 68.895902 
L 318.902712 70.775618 
L 319.060118 69.405085 
L 319.217524 69.440206 
L 319.37493 69.711147 
L 319.689741 71.337136 
L 319.847147 70.179412 
L 320.004552 70.353799 
L 320.319364 72.406138 
L 320.47677 71.33885 
L 320.634175 72.030167 
L 320.791581 71.922132 
L 320.948987 71.750051 
L 321.106393 71.175012 
L 321.421204 72.565538 
L 321.57861 73.04354 
L 321.893421 72.452237 
L 322.050827 72.626303 
L 322.208233 73.55475 
L 322.365638 71.863609 
L 322.68045 73.945557 
L 322.837855 73.038348 
L 323.152667 73.867703 
L 323.624884 72.048374 
L 323.78229 72.426103 
L 323.939696 73.367569 
L 323.939696 73.367569 
" clip-path="url(#p5632c0a247)" style="fill: none; stroke: #cc3164; stroke-width: 1.5; stroke-linecap: square"/>
   </g>
   <g id="patch_15">
    <path d="M 241.466968 76.372745 
L 241.466968 22.974608 
" style="fill: none; stroke: #4d4f53; stroke-width: 0.8; stroke-linejoin: miter; stroke-linecap: square"/>
   </g>
   <g id="patch_16">
    <path d="M 327.866968 76.372745 
L 327.866968 22.974608 
" style="fill: none; stroke: #4d4f53; stroke-width: 0.8; stroke-linejoin: miter; stroke-linecap: square"/>
   </g>
   <g id="patch_17">
    <path d="M 241.466968 76.372745 
L 327.866968 76.372745 
" style="fill: none; stroke: #4d4f53; stroke-width: 0.8; stroke-linejoin: miter; stroke-linecap: square"/>
   </g>
   <g id="patch_18">
    <path d="M 241.466968 22.974608 
L 327.866968 22.974608 
" style="fill: none; stroke: #4d4f53; stroke-width: 0.8; stroke-linejoin: miter; stroke-linecap: square"/>
   </g>
   <g id="legend_3">
    <g id="patch_19">
     <path d="M 330.458968 68.280534 
L 363.129544 68.280534 
L 363.129544 31.06682 
L 330.458968 31.06682 
z
" style="fill: #ffffff; stroke: #4d4f53; stroke-width: 0.8; stroke-linejoin: miter"/>
    </g>
    <g id="text_22">
     <!-- title -->
     <g style="fill: #4d4f53" transform="translate(338.956156 40.948708) scale(0.0833 -0.0833)">
      <use xlink:href="#LMRoman17-Regular-74" transform="scale(0.996264)"/>
      <use xlink:href="#LMRoman17-Regular-69" transform="translate(35.281528 0) scale(0.996264)"/>
      <use xlink:href="#LMRoman17-Regular-74" transform="translate(60.153544 0) scale(0.996264)"/>
      <use xlink:href="#LMRoman17-Regular-6c" transform="translate(95.435072 0) scale(0.996264)"/>
      <use xlink:href="#LMRoman17-Regular-65" transform="translate(120.307088 0) scale(0.996264)"/>
     </g>
    </g>
    <g id="line2d_41">
     <path d="M 334.623968 48.809817 
L 340.454968 48.809817 
L 346.285968 48.809817 
" style="fill: none; stroke: #3362b0; stroke-width: 1.5; stroke-linecap: square"/>
    </g>
    <g id="text_23">
     <!-- $x_1$ -->
     <g style="fill: #4d4f53" transform="translate(350.450968 51.725317) scale(0.0833 -0.0833)">
      <use xlink:href="#LMMathItalic12-Regular-78" transform="scale(0.996264)"/>
      <use xlink:href="#LMRoman17-Regular-31" transform="translate(55.43406 -14.943915) scale(0.697382)"/>
     </g>
    </g>
    <g id="line2d_42">
     <path d="M 334.623968 59.586425 
L 340.454968 59.586425 
L 346.285968 59.586425 
" style="fill: none; stroke: #cc3164; stroke-width: 1.5; stroke-linecap: square"/>
    </g>
    <g id="text_24">
     <!-- $x_2$ -->
     <g style="fill: #4d4f53" transform="translate(350.450968 62.501925) scale(0.0833 -0.0833)">
      <use xlink:href="#LMMathItalic12-Regular-78" transform="scale(0.996264)"/>
      <use xlink:href="#LMRoman17-Regular-32" transform="translate(55.43406 -14.943915) scale(0.697382)"/>
     </g>
    </g>
   </g>
  </g>
 </g>
 <defs>
  <clipPath id="pf6afbfd0c7">
   <rect x="25.466968" y="22.974608" width="86.4" height="53.398137"/>
  </clipPath>
  <clipPath id="pe5455df5d2">
   <rect x="133.466968" y="22.974608" width="86.4" height="53.398137"/>
  </clipPath>
  <clipPath id="p5632c0a247">
   <rect x="241.466968" y="22.974608" width="86.4" height="53.398137"/>
  </clipPath>
 </defs>
</svg>
