<?xml version="1.0" encoding="utf-8" standalone="no"?>
<!DOCTYPE svg PUBLIC "-//W3C//DTD SVG 1.1//EN"
  "http://www.w3.org/Graphics/SVG/1.1/DTD/svg11.dtd">
<svg xmlns:xlink="http://www.w3.org/1999/xlink" width="372.817382pt" height="100.676006pt" viewBox="0 0 372.817382 100.676006" xmlns="http://www.w3.org/2000/svg" version="1.1">
 <metadata>
  <rdf:RDF xmlns:dc="http://purl.org/dc/elements/1.1/" xmlns:cc="http://creativecommons.org/ns#" xmlns:rdf="http://www.w3.org/1999/02/22-rdf-syntax-ns#">
   <cc:Work>
    <dc:type rdf:resource="http://purl.org/dc/dcmitype/StillImage"/>
    <dc:date>2026-04-30T17:21:25.354835</dc:date>
    <dc:format>image/svg+xml</dc:format>
    <dc:creator>
     <cc:Agent>
      <dc:title>Matplotlib v3.10.9, https://matplotlib.org/</dc:title>
     </cc:Agent>
    </dc:creator>
   </cc:Work>
  </rdf:RDF>
 </metadata>
 <defs>
  <style type="text/css">*{stroke-linejoin: round; stroke-linecap: butt}</style>
 </defs>
 <g id="figure_1">
  <g id="patch_1">
   <path d="M 0 100.676006 
L 372.817382 100.676006 
L 372.817382 0 
L 0 0 
L 0 100.676006 
z
" style="fill: none"/>
  </g>
  <g id="axes_1">
   <g id="patch_2">
    <path d="M 26.480242 78.414128 
L 112.712831 78.414128 
L 112.712831 25.257878 
L 26.480242 25.257878 
L 26.480242 78.414128 
z
" style="fill: none"/>
   </g>
   <g id="matplotlib.axis_1">
    <g id="xtick_1">
     <g id="line2d_1">
      <defs>
       <path id="m8594a27ec5" d="M 0 0 
L 0 3.5 
" style="stroke: #4d4f53; stroke-width: 0.8"/>
      </defs>
      <g>
       <use xlink:href="#m8594a27ec5" x="33.666291" y="78.414128" style="fill: #4d4f53; stroke: #4d4f53; stroke-width: 0.8"/>
      </g>
     </g>
     <g id="text_1">
      <!-- 0 -->
      <g style="fill: #4d4f53" transform="translate(31.01631 91.743627) scale(0.0833 -0.0833)">
       <defs>
        <path id="DejaVuSans-30" d="M 2034 4250 
Q 1547 4250 1301 3770 
Q 1056 3291 1056 2328 
Q 1056 1369 1301 889 
Q 1547 409 2034 409 
Q 2525 409 2770 889 
Q 3016 1369 3016 2328 
Q 3016 3291 2770 3770 
Q 2525 4250 2034 4250 
z
M 2034 4750 
Q 2819 4750 3233 4129 
Q 3647 3509 3647 2328 
Q 3647 1150 3233 529 
Q 2819 -91 2034 -91 
Q 1250 -91 836 529 
Q 422 1150 422 2328 
Q 422 3509 836 4129 
Q 1250 4750 2034 4750 
z
" transform="scale(0.015625)"/>
       </defs>
       <use xlink:href="#DejaVuSans-30"/>
      </g>
     </g>
    </g>
    <g id="xtick_2">
     <g id="line2d_2">
      <g>
       <use xlink:href="#m8594a27ec5" x="71.789466" y="78.414128" style="fill: #4d4f53; stroke: #4d4f53; stroke-width: 0.8"/>
      </g>
     </g>
     <g id="text_2">
      <!-- 5 -->
      <g style="fill: #4d4f53" transform="translate(69.139485 91.743627) scale(0.0833 -0.0833)">
       <defs>
        <path id="DejaVuSans-35" d="M 691 4666 
L 3169 4666 
L 3169 4134 
L 1269 4134 
L 1269 2991 
Q 1406 3038 1543 3061 
Q 1681 3084 1819 3084 
Q 2600 3084 3056 2656 
Q 3513 2228 3513 1497 
Q 3513 744 3044 326 
Q 2575 -91 1722 -91 
Q 1428 -91 1123 -41 
Q 819 9 494 109 
L 494 744 
Q 775 591 1075 516 
Q 1375 441 1709 441 
Q 2250 441 2565 725 
Q 2881 1009 2881 1497 
Q 2881 1984 2565 2268 
Q 2250 2553 1709 2553 
Q 1456 2553 1204 2497 
Q 953 2441 691 2322 
L 691 4666 
z
" transform="scale(0.015625)"/>
       </defs>
       <use xlink:href="#DejaVuSans-35"/>
      </g>
     </g>
    </g>
    <g id="xtick_3">
     <g id="line2d_3">
      <g>
       <use xlink:href="#m8594a27ec5" x="109.91264" y="78.414128" style="fill: #4d4f53; stroke: #4d4f53; stroke-width: 0.8"/>
      </g>
     </g>
     <g id="text_3">
      <!-- 10 -->
      <g style="fill: #4d4f53" transform="translate(104.612678 91.743627) scale(0.0833 -0.0833)">
       <defs>
        <path id="DejaVuSans-31" d="M 794 531 
L 1825 531 
L 1825 4091 
L 703 3866 
L 703 4441 
L 1819 4666 
L 2450 4666 
L 2450 531 
L 3481 531 
L 3481 0 
L 794 0 
L 794 531 
z
" transform="scale(0.015625)"/>
       </defs>
       <use xlink:href="#DejaVuSans-31"/>
       <use xlink:href="#DejaVuSans-30" transform="translate(63.623047 0)"/>
      </g>
     </g>
    </g>
   </g>
   <g id="matplotlib.axis_2">
    <g id="ytick_1">
     <g id="line2d_4">
      <defs>
       <path id="m45d607f3ee" d="M 0 0 
L -3.5 0 
" style="stroke: #4d4f53; stroke-width: 0.8"/>
      </defs>
      <g>
       <use xlink:href="#m45d607f3ee" x="26.480242" y="74.004034" style="fill: #4d4f53; stroke: #4d4f53; stroke-width: 0.8"/>
      </g>
     </g>
     <g id="text_4">
      <!-- −1 -->
      <g style="fill: #4d4f53" transform="translate(7.2 77.168783) scale(0.0833 -0.0833)">
       <defs>
        <path id="DejaVuSans-2212" d="M 678 2272 
L 4684 2272 
L 4684 1741 
L 678 1741 
L 678 2272 
z
" transform="scale(0.015625)"/>
       </defs>
       <use xlink:href="#DejaVuSans-2212"/>
       <use xlink:href="#DejaVuSans-31" transform="translate(83.789062 0)"/>
      </g>
     </g>
    </g>
    <g id="ytick_2">
     <g id="line2d_5">
      <g>
       <use xlink:href="#m45d607f3ee" x="26.480242" y="52.896989" style="fill: #4d4f53; stroke: #4d4f53; stroke-width: 0.8"/>
      </g>
     </g>
     <g id="text_5">
      <!-- 0 -->
      <g style="fill: #4d4f53" transform="translate(14.18028 56.061738) scale(0.0833 -0.0833)">
       <use xlink:href="#DejaVuSans-30"/>
      </g>
     </g>
    </g>
    <g id="ytick_3">
     <g id="line2d_6">
      <g>
       <use xlink:href="#m45d607f3ee" x="26.480242" y="31.789943" style="fill: #4d4f53; stroke: #4d4f53; stroke-width: 0.8"/>
      </g>
     </g>
     <g id="text_6">
      <!-- 1 -->
      <g style="fill: #4d4f53" transform="translate(14.18028 34.954692) scale(0.0833 -0.0833)">
       <use xlink:href="#DejaVuSans-31"/>
      </g>
     </g>
    </g>
   </g>
   <g id="line2d_7">
    <path d="M 33.666291 37.084087 
L 34.242327 35.285851 
L 34.386336 35.581895 
L 34.530345 33.835285 
L 34.674354 34.115556 
L 34.818363 35.191948 
L 35.106381 33.673336 
L 35.25039 34.527823 
L 35.394399 32.514128 
L 35.538408 33.459448 
L 35.826426 32.348395 
L 35.970435 33.086884 
L 36.114444 32.802778 
L 36.402462 31.760475 
L 36.546471 32.82095 
L 36.69048 32.468528 
L 36.834489 31.528605 
L 36.978498 31.762222 
L 37.122507 32.320683 
L 37.266516 31.713531 
L 37.410525 32.060315 
L 37.698543 30.536167 
L 37.842552 31.819203 
L 37.986561 30.114048 
L 38.13057 31.168769 
L 38.274579 30.942258 
L 38.418588 30.875441 
L 38.562597 31.87386 
L 38.850615 29.741689 
L 39.138633 31.532091 
L 39.426651 30.327416 
L 39.57066 31.791376 
L 39.714669 31.032595 
L 39.858678 31.710024 
L 40.002687 30.197288 
L 40.146696 31.162051 
L 40.290705 30.461948 
L 40.434714 30.95986 
L 40.578723 30.00264 
L 40.722732 30.358426 
L 41.01075 31.087222 
L 41.154759 30.262532 
L 41.442777 32.537255 
L 41.586786 32.49049 
L 41.730795 30.81457 
L 41.874804 30.867017 
L 42.162822 32.473852 
L 42.306831 31.814178 
L 42.45084 33.470344 
L 42.594849 32.049655 
L 42.738858 32.403771 
L 42.882867 33.592948 
L 43.170885 32.44001 
L 43.314894 34.214989 
L 43.458903 32.835801 
L 43.602912 34.280202 
L 43.746921 33.700162 
L 43.89093 34.837778 
L 44.034939 34.528719 
L 44.178948 35.481689 
L 44.322957 35.10705 
L 44.610975 35.752979 
L 44.754984 35.173414 
L 44.898993 36.065224 
L 45.043002 35.845941 
L 45.187011 35.973021 
L 45.33102 37.183211 
L 45.475029 36.288823 
L 46.051065 38.408031 
L 46.195074 37.795703 
L 46.627101 40.15652 
L 46.77111 38.987 
L 47.203137 41.492235 
L 47.347146 41.426819 
L 47.779173 43.121048 
L 47.923182 42.300309 
L 48.067191 44.045681 
L 48.2112 43.974516 
L 48.499218 43.233064 
L 48.787236 45.09263 
L 48.931245 44.52801 
L 49.075254 44.614821 
L 49.363272 46.653393 
L 49.507281 46.387862 
L 49.795299 48.57348 
L 49.939308 48.295133 
L 50.083317 48.401466 
L 50.227326 49.716659 
L 50.371335 48.282039 
L 51.235389 52.333139 
L 51.379398 52.494031 
L 51.523407 51.955436 
L 51.667416 52.778025 
L 51.811425 52.215155 
L 52.243452 54.988295 
L 52.53147 55.259203 
L 52.675479 56.403825 
L 52.819488 55.615348 
L 52.963497 57.224949 
L 53.107506 56.209633 
L 53.251515 56.730974 
L 53.395524 58.490922 
L 53.539533 57.281965 
L 53.683542 58.559204 
L 53.827551 58.014466 
L 54.259578 60.411431 
L 54.403587 59.356732 
L 54.547596 60.936534 
L 54.691605 60.299027 
L 54.835614 61.040738 
L 54.979623 60.686011 
L 55.41165 63.462026 
L 55.555659 61.956637 
L 55.843677 64.333172 
L 55.987686 63.548628 
L 56.275704 64.457095 
L 56.419713 64.02247 
L 56.563722 64.349329 
L 56.707731 65.997971 
L 56.85174 65.335438 
L 57.283767 67.604683 
L 57.427776 67.575875 
L 57.571785 66.933367 
L 57.715794 67.950812 
L 57.859803 67.884886 
L 58.003812 68.347618 
L 58.147821 68.276092 
L 58.29183 68.195445 
L 58.435839 67.815444 
L 58.579848 69.984801 
L 58.723857 69.109456 
L 58.867866 69.154093 
L 59.011875 70.388839 
L 59.155884 69.400214 
L 59.299893 70.338422 
L 59.443902 70.254957 
L 59.587911 70.30495 
L 59.73192 69.925414 
L 60.019938 70.729535 
L 60.307956 72.281345 
L 60.595974 71.01836 
L 60.739983 71.323029 
L 60.883992 72.520799 
L 61.028001 72.483867 
L 61.17201 72.717554 
L 61.460028 71.995944 
L 61.748046 72.965033 
L 62.036064 71.906856 
L 62.180073 72.613052 
L 62.324082 72.295796 
L 62.468091 72.958094 
L 62.756109 72.206395 
L 62.900118 73.937104 
L 63.044127 72.442976 
L 63.188136 72.486983 
L 63.476154 72.340447 
L 63.620163 72.00956 
L 63.908181 73.545537 
L 64.196199 71.774437 
L 64.484217 71.932582 
L 64.772235 73.605858 
L 65.060253 71.908438 
L 65.204262 71.867707 
L 65.348271 72.930155 
L 65.49228 72.903072 
L 65.636289 72.699079 
L 65.780298 71.177334 
L 66.068316 72.269676 
L 66.212325 71.170837 
L 66.356334 72.272083 
L 66.500343 71.995877 
L 66.644352 71.793829 
L 66.93237 70.376428 
L 67.076379 70.282946 
L 67.364397 69.531795 
L 67.652415 70.502044 
L 67.796424 69.412542 
L 67.940433 69.583808 
L 68.084442 69.450167 
L 68.516469 67.374264 
L 68.660478 68.077187 
L 69.380523 65.60143 
L 69.524532 66.948308 
L 69.81255 65.282167 
L 69.956559 66.219116 
L 70.244577 64.326025 
L 71.396649 61.468744 
L 71.540658 62.412188 
L 71.684667 61.129023 
L 71.828676 61.791955 
L 71.972685 60.07644 
L 72.116694 61.380366 
L 72.260703 61.009284 
L 72.404712 60.671655 
L 72.69273 58.844462 
L 72.836739 59.531589 
L 72.980748 59.154695 
L 73.268766 56.865101 
L 73.412775 57.571313 
L 73.700793 55.501246 
L 73.844802 55.139587 
L 73.988811 55.328675 
L 74.420838 53.7575 
L 74.564847 54.061132 
L 74.996874 52.006907 
L 75.140883 52.591464 
L 75.284892 51.824736 
L 75.428901 52.126704 
L 76.004937 49.578252 
L 76.148946 50.439923 
L 76.292955 49.91655 
L 76.724982 46.919927 
L 76.868991 48.317091 
L 77.445027 44.964075 
L 77.589036 46.234094 
L 77.877054 44.528017 
L 78.021063 44.93032 
L 78.165072 45.044036 
L 78.597099 42.377645 
L 78.741108 42.880594 
L 78.885117 42.63733 
L 79.173135 41.304027 
L 79.317144 41.618726 
L 79.461153 40.355123 
L 79.605162 40.744072 
L 79.749171 39.645818 
L 79.89318 40.8366 
L 80.037189 38.683277 
L 80.181198 38.917566 
L 80.325207 39.009127 
L 80.469216 39.605233 
L 80.901243 36.783492 
L 81.189261 36.976089 
L 81.33327 37.003841 
L 81.477279 35.836659 
L 81.621288 36.102085 
L 81.765297 35.490905 
L 82.053315 36.305318 
L 82.197324 34.208489 
L 82.341333 35.98558 
L 82.485342 35.349616 
L 82.629351 34.709401 
L 82.77336 34.855927 
L 82.917369 34.58186 
L 83.349396 33.243653 
L 83.493405 32.724169 
L 83.637414 33.690658 
L 83.781423 32.079346 
L 83.925432 32.398674 
L 84.069441 33.530964 
L 84.21345 32.207412 
L 84.357459 32.518452 
L 84.501468 32.44299 
L 84.645477 32.611942 
L 84.933495 30.7135 
L 85.077504 32.072967 
L 85.221513 31.166258 
L 85.365522 31.524564 
L 85.509531 31.438135 
L 85.65354 32.041426 
L 85.797549 31.653394 
L 85.941558 30.278799 
L 86.085567 31.801082 
L 86.229576 31.319353 
L 86.373585 30.427927 
L 86.661603 31.287055 
L 86.805612 29.83106 
L 86.949621 29.888237 
L 87.09363 30.507728 
L 87.381648 29.709641 
L 87.525657 29.948368 
L 87.669666 30.759943 
L 87.813675 30.129707 
L 87.957684 30.194917 
L 88.101693 31.539467 
L 88.245702 30.67918 
L 88.389711 31.809075 
L 88.53372 31.594561 
L 88.677729 31.844488 
L 88.965747 31.350536 
L 89.109756 31.773438 
L 89.397774 30.763659 
L 89.685792 32.715851 
L 89.829801 31.048386 
L 89.97381 32.381765 
L 90.261828 31.422403 
L 90.405837 31.837395 
L 90.549846 33.57621 
L 90.693855 33.027863 
L 90.837864 33.512488 
L 90.981873 32.87793 
L 91.125882 33.218097 
L 91.269891 32.669698 
L 91.4139 33.994707 
L 91.557909 33.267257 
L 91.989936 35.101231 
L 92.133945 34.446538 
L 92.277954 34.969434 
L 92.421963 34.371361 
L 92.709981 36.433473 
L 92.85399 35.730855 
L 92.997999 36.068226 
L 93.142008 35.797468 
L 93.286017 36.073121 
L 93.430026 37.770224 
L 93.574035 37.460737 
L 94.150071 39.626215 
L 94.29408 38.061955 
L 94.438089 38.542952 
L 95.014125 40.329064 
L 95.158134 41.636865 
L 95.302143 40.494569 
L 95.446152 42.716095 
L 95.590161 41.814996 
L 95.73417 43.420746 
L 95.878179 41.808731 
L 96.022188 42.376972 
L 96.598224 45.379098 
L 96.742233 44.327859 
L 97.030251 46.558503 
L 97.17426 46.493824 
L 97.318269 45.519748 
L 97.750296 48.243257 
L 97.894305 47.513234 
L 98.038314 49.247215 
L 98.182323 49.024557 
L 98.326332 48.513 
L 98.470341 50.71205 
L 98.758359 49.469521 
L 98.902368 51.442029 
L 99.046377 50.769011 
L 99.334395 51.290686 
L 99.766422 54.152736 
L 99.910431 53.54174 
L 100.342458 54.75746 
L 100.630476 56.330689 
L 100.918494 55.374113 
L 101.49453 58.407125 
L 101.638539 57.442839 
L 102.070566 60.317119 
L 102.214575 59.831557 
L 102.358584 61.079168 
L 102.502593 60.18419 
L 102.646602 61.700193 
L 102.790611 61.356786 
L 102.93462 62.181265 
L 103.078629 60.945296 
L 103.510656 64.056033 
L 103.654665 63.132596 
L 104.086692 64.555056 
L 104.230701 63.847577 
L 104.37471 65.651586 
L 104.518719 64.88412 
L 104.662728 65.01158 
L 105.094755 66.059069 
L 105.382773 67.921483 
L 105.526782 66.453427 
L 105.526782 66.453427 
" clip-path="url(#p023f4bf059)" style="fill: none; stroke: #3362b0; stroke-width: 1.5; stroke-linecap: square"/>
   </g>
   <g id="line2d_8">
    <path d="M 33.666291 31.412832 
L 33.8103 30.189802 
L 33.954309 30.30358 
L 34.098318 31.585868 
L 34.242327 30.319088 
L 34.386336 31.548965 
L 34.530345 31.516769 
L 34.818363 31.447635 
L 34.962372 32.11571 
L 35.106381 31.737633 
L 35.25039 32.307031 
L 35.394399 32.162786 
L 35.538408 31.250669 
L 35.826426 33.115493 
L 35.970435 32.042829 
L 36.114444 33.131176 
L 36.402462 31.982115 
L 36.69048 34.096908 
L 36.834489 33.740506 
L 36.978498 33.993247 
L 37.266516 35.127202 
L 37.410525 34.060005 
L 37.554534 34.581675 
L 37.698543 34.009019 
L 38.13057 35.583414 
L 38.274579 35.757904 
L 38.418588 37.160678 
L 38.562597 36.974034 
L 38.706606 36.500444 
L 38.850615 37.91839 
L 38.994624 37.398473 
L 39.138633 37.080941 
L 39.282642 38.883819 
L 39.426651 37.39063 
L 40.290705 40.612284 
L 40.434714 40.064055 
L 40.578723 41.767438 
L 40.722732 40.193262 
L 41.01075 42.801892 
L 41.154759 42.904625 
L 41.298768 41.717539 
L 41.586786 43.717182 
L 41.730795 43.721935 
L 41.874804 44.886808 
L 42.018813 43.72747 
L 42.162822 45.114801 
L 42.306831 44.466487 
L 42.594849 46.756139 
L 42.738858 45.552309 
L 43.170885 47.941406 
L 43.314894 46.842762 
L 43.458903 48.215937 
L 43.602912 47.688552 
L 44.034939 49.719962 
L 44.178948 49.141026 
L 44.322957 51.480383 
L 44.466966 50.167261 
L 44.610975 52.302927 
L 44.754984 51.964621 
L 44.898993 51.993977 
L 45.763047 54.947141 
L 45.907056 54.097117 
L 46.051065 54.726387 
L 46.339083 56.961784 
L 46.483092 56.4511 
L 46.915119 58.350876 
L 47.203137 58.180282 
L 47.347146 57.787565 
L 47.923182 60.565269 
L 48.067191 59.792074 
L 48.355209 62.277621 
L 48.499218 61.708654 
L 48.787236 63.290444 
L 48.931245 61.775069 
L 49.075254 63.179425 
L 49.219263 62.496348 
L 49.795299 65.614617 
L 49.939308 64.587047 
L 50.083317 65.766274 
L 50.227326 65.071735 
L 50.371335 66.357492 
L 50.515344 66.257327 
L 50.659353 66.257233 
L 50.803362 67.510533 
L 50.947371 66.82569 
L 51.09138 68.186867 
L 51.235389 67.941593 
L 51.379398 68.104711 
L 51.523407 68.705828 
L 51.667416 67.382564 
L 51.811425 69.572381 
L 51.955434 68.063605 
L 52.099443 68.832744 
L 52.243452 68.371005 
L 52.387461 69.389142 
L 52.53147 69.331228 
L 52.675479 69.231546 
L 52.819488 69.545427 
L 52.963497 71.019127 
L 53.107506 70.524316 
L 53.251515 71.094165 
L 53.395524 69.992086 
L 53.683542 71.207241 
L 53.827551 71.056674 
L 53.97156 72.33468 
L 54.115569 70.948873 
L 54.403587 72.820042 
L 54.691605 71.905637 
L 54.979623 73.272405 
L 55.123632 71.475591 
L 55.267641 72.173558 
L 55.41165 73.351707 
L 55.555659 72.37393 
L 55.699668 73.554288 
L 55.843677 73.502504 
L 55.987686 73.645125 
L 56.275704 71.906632 
L 56.563722 73.726571 
L 56.707731 73.651146 
L 56.995749 72.542677 
L 57.139758 72.674769 
L 57.283767 73.899548 
L 57.427776 72.683165 
L 57.571785 73.792451 
L 57.715794 72.496001 
L 57.859803 73.064297 
L 58.003812 71.697427 
L 58.147821 71.808518 
L 58.29183 71.98908 
L 58.435839 71.749825 
L 58.867866 72.980961 
L 59.011875 72.044148 
L 59.155884 72.592807 
L 59.299893 71.19412 
L 59.443902 72.403038 
L 59.587911 72.316258 
L 59.875929 70.290588 
L 60.163947 71.628127 
L 60.307956 70.610272 
L 60.451965 71.264653 
L 60.595974 70.751595 
L 60.739983 69.231965 
L 60.883992 70.855459 
L 61.028001 70.688712 
L 61.17201 70.344022 
L 61.604037 67.98078 
L 61.748046 68.908737 
L 61.892055 68.588406 
L 62.036064 68.510572 
L 62.324082 66.794909 
L 62.468091 68.054695 
L 62.756109 66.206815 
L 62.900118 65.976148 
L 63.044127 66.90284 
L 63.332145 65.400672 
L 63.476154 66.236393 
L 63.764172 64.136874 
L 63.908181 65.31069 
L 64.196199 63.473866 
L 64.340208 63.973102 
L 64.484217 63.927868 
L 64.772235 61.743107 
L 64.916244 61.836975 
L 65.060253 62.191702 
L 65.348271 61.686156 
L 65.49228 60.56903 
L 65.636289 61.020077 
L 66.068316 59.963562 
L 66.212325 58.379445 
L 66.356334 58.534277 
L 66.788361 56.742139 
L 66.93237 56.813187 
L 67.220388 55.060855 
L 67.364397 56.210147 
L 67.508406 55.825042 
L 68.084442 52.990426 
L 68.37246 53.822124 
L 68.660478 51.247709 
L 69.524532 48.710561 
L 69.668541 49.397415 
L 69.81255 48.172486 
L 69.956559 49.017108 
L 70.244577 46.816129 
L 70.388586 47.631579 
L 70.532595 47.335731 
L 70.820613 45.59026 
L 70.964622 45.847468 
L 71.25264 44.65098 
L 71.396649 45.679545 
L 71.828676 42.806501 
L 71.972685 43.75548 
L 72.260703 41.398394 
L 72.548721 42.400681 
L 72.836739 40.011815 
L 73.124757 41.055107 
L 73.412775 39.049829 
L 73.556784 40.437076 
L 73.844802 38.154662 
L 73.988811 38.52757 
L 74.276829 37.078367 
L 74.420838 37.277823 
L 74.708856 36.680199 
L 74.852865 37.656935 
L 75.140883 35.710052 
L 75.284892 36.719495 
L 75.428901 34.990255 
L 75.716919 36.14283 
L 76.004937 34.58348 
L 76.148946 34.456785 
L 76.436964 34.755168 
L 76.580973 33.897611 
L 76.868991 34.410386 
L 77.013 32.303976 
L 77.157009 33.176667 
L 77.301018 31.961984 
L 77.589036 32.783363 
L 77.877054 31.388468 
L 78.021063 32.722513 
L 78.165072 32.442445 
L 78.309081 31.835332 
L 78.45309 32.245462 
L 78.597099 31.55432 
L 78.741108 31.627425 
L 78.885117 31.690136 
L 79.029126 31.491058 
L 79.173135 30.122283 
L 79.461153 31.982577 
L 79.605162 29.907971 
L 79.749171 30.245664 
L 79.89318 31.230533 
L 80.037189 30.981425 
L 80.181198 30.284101 
L 80.325207 31.090631 
L 80.469216 30.906762 
L 80.613225 31.052889 
L 80.901243 30.675572 
L 81.045252 29.80863 
L 81.189261 31.231835 
L 81.33327 30.276049 
L 81.621288 31.659867 
L 81.909306 30.288283 
L 82.053315 31.440908 
L 82.197324 30.354928 
L 82.341333 31.841542 
L 82.485342 31.649043 
L 82.77336 30.980555 
L 82.917369 31.241282 
L 83.061378 32.240345 
L 83.205387 31.366293 
L 83.637414 33.107271 
L 83.925432 31.790236 
L 84.069441 32.118478 
L 84.357459 33.586594 
L 84.645477 32.454475 
L 85.077504 35.079889 
L 85.221513 34.368771 
L 85.509531 35.514662 
L 85.65354 34.298379 
L 85.797549 34.444013 
L 85.941558 35.097215 
L 86.085567 36.778398 
L 86.229576 36.382559 
L 86.373585 35.398411 
L 86.517594 35.520963 
L 86.949621 37.271073 
L 87.237639 38.197674 
L 87.381648 38.002837 
L 87.525657 39.546572 
L 87.813675 38.642418 
L 87.957684 40.28667 
L 88.101693 40.211087 
L 88.389711 41.456442 
L 88.53372 41.44573 
L 88.677729 42.222839 
L 88.821738 40.900278 
L 89.109756 41.932514 
L 89.253765 41.646205 
L 89.397774 43.052863 
L 89.541783 43.023933 
L 89.685792 43.160722 
L 89.829801 44.875089 
L 89.97381 44.069451 
L 90.117819 44.34432 
L 90.261828 45.131903 
L 90.405837 44.737714 
L 90.549846 46.021674 
L 90.693855 45.622649 
L 91.4139 47.578508 
L 91.701918 49.217242 
L 91.845927 48.962187 
L 92.277954 51.291377 
L 92.421963 51.262796 
L 93.142008 54.096721 
L 93.286017 52.705189 
L 93.430026 54.397521 
L 93.574035 54.378097 
L 93.862053 55.876968 
L 94.006062 54.463463 
L 94.438089 57.058626 
L 95.014125 58.909931 
L 95.158134 57.546229 
L 96.166197 62.06668 
L 96.454215 61.173154 
L 96.886242 62.457165 
L 97.030251 62.563379 
L 97.606287 64.858891 
L 97.750296 65.644247 
L 98.038314 64.970264 
L 98.182323 65.025537 
L 98.470341 67.352111 
L 98.61435 66.778407 
L 99.046377 68.315555 
L 99.190386 67.249445 
L 99.334395 68.792525 
L 99.478404 68.192798 
L 99.622413 67.493395 
L 99.766422 67.966499 
L 100.05444 70.107452 
L 100.198449 69.253005 
L 100.630476 70.289018 
L 100.774485 69.376559 
L 100.918494 71.091826 
L 101.062503 69.841195 
L 101.206512 69.873244 
L 101.350521 70.120481 
L 101.638539 71.60422 
L 101.782548 70.54778 
L 101.926557 70.70691 
L 102.214575 72.579699 
L 102.358584 71.605783 
L 102.502593 72.23662 
L 102.646602 72.138036 
L 102.790611 71.98101 
L 102.93462 71.456278 
L 103.222638 72.725154 
L 103.366647 73.161337 
L 103.654665 72.621765 
L 103.798674 72.780603 
L 103.942683 73.627824 
L 104.086692 72.084633 
L 104.37471 73.984441 
L 104.518719 73.156599 
L 104.806737 73.913398 
L 105.238764 72.253234 
L 105.526782 73.457019 
L 105.526782 73.457019 
" clip-path="url(#p023f4bf059)" style="fill: none; stroke: #cc3164; stroke-width: 1.5; stroke-linecap: square"/>
   </g>
   <g id="patch_3">
    <path d="M 26.480242 73.984441 
L 26.480242 29.687566 
" style="fill: none; stroke: #4d4f53; stroke-width: 0.8; stroke-linejoin: miter; stroke-linecap: square"/>
   </g>
   <g id="patch_4">
    <path d="M 33.666291 78.414128 
L 105.526782 78.414128 
" style="fill: none; stroke: #4d4f53; stroke-width: 0.8; stroke-linejoin: miter; stroke-linecap: square"/>
   </g>
   <g id="legend_1">
    <g id="patch_5">
     <path d="M 28.146242 23.591878 
L 111.046831 23.591878 
L 111.046831 7.2 
L 28.146242 7.2 
z
" style="fill: #ffffff"/>
    </g>
    <g id="text_7">
     <!-- title -->
     <g style="fill: #4d4f53" transform="translate(32.311242 17.694498) scale(0.0833 -0.0833)">
      <defs>
       <path id="DejaVuSans-74" d="M 1172 4494 
L 1172 3500 
L 2356 3500 
L 2356 3053 
L 1172 3053 
L 1172 1153 
Q 1172 725 1289 603 
Q 1406 481 1766 481 
L 2356 481 
L 2356 0 
L 1766 0 
Q 1100 0 847 248 
Q 594 497 594 1153 
L 594 3053 
L 172 3053 
L 172 3500 
L 594 3500 
L 594 4494 
L 1172 4494 
z
" transform="scale(0.015625)"/>
       <path id="DejaVuSans-69" d="M 603 3500 
L 1178 3500 
L 1178 0 
L 603 0 
L 603 3500 
z
M 603 4863 
L 1178 4863 
L 1178 4134 
L 603 4134 
L 603 4863 
z
" transform="scale(0.015625)"/>
       <path id="DejaVuSans-6c" d="M 603 4863 
L 1178 4863 
L 1178 0 
L 603 0 
L 603 4863 
z
" transform="scale(0.015625)"/>
       <path id="DejaVuSans-65" d="M 3597 1894 
L 3597 1613 
L 953 1613 
Q 991 1019 1311 708 
Q 1631 397 2203 397 
Q 2534 397 2845 478 
Q 3156 559 3463 722 
L 3463 178 
Q 3153 47 2828 -22 
Q 2503 -91 2169 -91 
Q 1331 -91 842 396 
Q 353 884 353 1716 
Q 353 2575 817 3079 
Q 1281 3584 2069 3584 
Q 2775 3584 3186 3129 
Q 3597 2675 3597 1894 
z
M 3022 2063 
Q 3016 2534 2758 2815 
Q 2500 3097 2075 3097 
Q 1594 3097 1305 2825 
Q 1016 2553 972 2059 
L 3022 2063 
z
" transform="scale(0.015625)"/>
      </defs>
      <use xlink:href="#DejaVuSans-74"/>
      <use xlink:href="#DejaVuSans-69" transform="translate(39.208984 0)"/>
      <use xlink:href="#DejaVuSans-74" transform="translate(66.992188 0)"/>
      <use xlink:href="#DejaVuSans-6c" transform="translate(106.201172 0)"/>
      <use xlink:href="#DejaVuSans-65" transform="translate(133.984375 0)"/>
     </g>
    </g>
    <g id="line2d_9">
     <path d="M 52.999012 14.778998 
L 58.830012 14.778998 
L 64.661012 14.778998 
" style="fill: none; stroke: #3362b0; stroke-width: 1.5; stroke-linecap: square"/>
    </g>
    <g id="text_8">
     <!-- $x_1$ -->
     <g style="fill: #4d4f53" transform="translate(68.826012 17.694498) scale(0.0833 -0.0833)">
      <defs>
       <path id="DejaVuSans-Oblique-78" d="M 3841 3500 
L 2234 1784 
L 3219 0 
L 2559 0 
L 1819 1388 
L 531 0 
L -166 0 
L 1556 1844 
L 641 3500 
L 1300 3500 
L 1972 2234 
L 3144 3500 
L 3841 3500 
z
" transform="scale(0.015625)"/>
      </defs>
      <use xlink:href="#DejaVuSans-Oblique-78" transform="translate(0 0.3125)"/>
      <use xlink:href="#DejaVuSans-31" transform="translate(59.179688 -16.09375) scale(0.7)"/>
     </g>
    </g>
    <g id="line2d_10">
     <path d="M 82.141731 14.778998 
L 87.972731 14.778998 
L 93.803731 14.778998 
" style="fill: none; stroke: #cc3164; stroke-width: 1.5; stroke-linecap: square"/>
    </g>
    <g id="text_9">
     <!-- $x_2$ -->
     <g style="fill: #4d4f53" transform="translate(97.968731 17.694498) scale(0.0833 -0.0833)">
      <defs>
       <path id="DejaVuSans-32" d="M 1228 531 
L 3431 531 
L 3431 0 
L 469 0 
L 469 531 
Q 828 903 1448 1529 
Q 2069 2156 2228 2338 
Q 2531 2678 2651 2914 
Q 2772 3150 2772 3378 
Q 2772 3750 2511 3984 
Q 2250 4219 1831 4219 
Q 1534 4219 1204 4116 
Q 875 4013 500 3803 
L 500 4441 
Q 881 4594 1212 4672 
Q 1544 4750 1819 4750 
Q 2544 4750 2975 4387 
Q 3406 4025 3406 3419 
Q 3406 3131 3298 2873 
Q 3191 2616 2906 2266 
Q 2828 2175 2409 1742 
Q 1991 1309 1228 531 
z
" transform="scale(0.015625)"/>
      </defs>
      <use xlink:href="#DejaVuSans-Oblique-78" transform="translate(0 0.3125)"/>
      <use xlink:href="#DejaVuSans-32" transform="translate(59.179688 -16.09375) scale(0.7)"/>
     </g>
    </g>
   </g>
  </g>
  <g id="axes_2">
   <g id="patch_6">
    <path d="M 134.270979 78.414128 
L 220.503568 78.414128 
L 220.503568 25.257878 
L 134.270979 25.257878 
L 134.270979 78.414128 
z
" style="fill: none"/>
   </g>
   <g id="matplotlib.axis_3">
    <g id="xtick_4">
     <g id="line2d_11">
      <g>
       <use xlink:href="#m8594a27ec5" x="141.457028" y="78.414128" style="fill: #4d4f53; stroke: #4d4f53; stroke-width: 0.8"/>
      </g>
     </g>
     <g id="text_10">
      <!-- 0 -->
      <g style="fill: #4d4f53" transform="translate(138.807047 91.743627) scale(0.0833 -0.0833)">
       <use xlink:href="#DejaVuSans-30"/>
      </g>
     </g>
    </g>
    <g id="xtick_5">
     <g id="line2d_12">
      <g>
       <use xlink:href="#m8594a27ec5" x="179.580202" y="78.414128" style="fill: #4d4f53; stroke: #4d4f53; stroke-width: 0.8"/>
      </g>
     </g>
     <g id="text_11">
      <!-- 5 -->
      <g style="fill: #4d4f53" transform="translate(176.930221 91.743627) scale(0.0833 -0.0833)">
       <use xlink:href="#DejaVuSans-35"/>
      </g>
     </g>
    </g>
    <g id="xtick_6">
     <g id="line2d_13">
      <g>
       <use xlink:href="#m8594a27ec5" x="217.703377" y="78.414128" style="fill: #4d4f53; stroke: #4d4f53; stroke-width: 0.8"/>
      </g>
     </g>
     <g id="text_12">
      <!-- 10 -->
      <g style="fill: #4d4f53" transform="translate(212.403415 91.743627) scale(0.0833 -0.0833)">
       <use xlink:href="#DejaVuSans-31"/>
       <use xlink:href="#DejaVuSans-30" transform="translate(63.623047 0)"/>
      </g>
     </g>
    </g>
   </g>
   <g id="matplotlib.axis_4">
    <g id="ytick_4">
     <g id="line2d_14">
      <g>
       <use xlink:href="#m45d607f3ee" x="134.270979" y="74.004034" style="fill: #4d4f53; stroke: #4d4f53; stroke-width: 0.8"/>
      </g>
     </g>
     <g id="text_13">
      <!-- −1 -->
      <g style="fill: #4d4f53" transform="translate(114.990737 77.168783) scale(0.0833 -0.0833)">
       <use xlink:href="#DejaVuSans-2212"/>
       <use xlink:href="#DejaVuSans-31" transform="translate(83.789062 0)"/>
      </g>
     </g>
    </g>
    <g id="ytick_5">
     <g id="line2d_15">
      <g>
       <use xlink:href="#m45d607f3ee" x="134.270979" y="52.896989" style="fill: #4d4f53; stroke: #4d4f53; stroke-width: 0.8"/>
      </g>
     </g>
     <g id="text_14">
      <!-- 0 -->
      <g style="fill: #4d4f53" transform="translate(121.971016 56.061738) scale(0.0833 -0.0833)">
       <use xlink:href="#DejaVuSans-30"/>
      </g>
     </g>
    </g>
    <g id="ytick_6">
     <g id="line2d_16">
      <g>
       <use xlink:href="#m45d607f3ee" x="134.270979" y="31.789943" style="fill: #4d4f53; stroke: #4d4f53; stroke-width: 0.8"/>
      </g>
     </g>
     <g id="text_15">
      <!-- 1 -->
      <g style="fill: #4d4f53" transform="translate(121.971016 34.954692) scale(0.0833 -0.0833)">
       <use xlink:href="#DejaVuSans-31"/>
      </g>
     </g>
    </g>
   </g>
   <g id="line2d_17">
    <path d="M 141.457028 37.084087 
L 142.033064 35.285851 
L 142.177073 35.581895 
L 142.321082 33.835285 
L 142.465091 34.115556 
L 142.6091 35.191948 
L 142.897118 33.673336 
L 143.041127 34.527823 
L 143.185136 32.514128 
L 143.329145 33.459448 
L 143.617163 32.348395 
L 143.761172 33.086884 
L 143.905181 32.802778 
L 144.193199 31.760475 
L 144.337208 32.82095 
L 144.481217 32.468528 
L 144.625226 31.528605 
L 144.769235 31.762222 
L 144.913244 32.320683 
L 145.057253 31.713531 
L 145.201262 32.060315 
L 145.48928 30.536167 
L 145.633289 31.819203 
L 145.777298 30.114048 
L 145.921307 31.168769 
L 146.065316 30.942258 
L 146.209325 30.875441 
L 146.353334 31.87386 
L 146.641352 29.741689 
L 146.92937 31.532091 
L 147.217388 30.327416 
L 147.361397 31.791376 
L 147.505406 31.032595 
L 147.649415 31.710024 
L 147.793424 30.197288 
L 147.937433 31.162051 
L 148.081442 30.461948 
L 148.225451 30.95986 
L 148.36946 30.00264 
L 148.513469 30.358426 
L 148.801487 31.087222 
L 148.945496 30.262532 
L 149.233514 32.537255 
L 149.377523 32.49049 
L 149.521532 30.81457 
L 149.665541 30.867017 
L 149.953559 32.473852 
L 150.097568 31.814178 
L 150.241577 33.470344 
L 150.385586 32.049655 
L 150.529595 32.403771 
L 150.673604 33.592948 
L 150.961622 32.44001 
L 151.105631 34.214989 
L 151.24964 32.835801 
L 151.393649 34.280202 
L 151.537658 33.700162 
L 151.681667 34.837778 
L 151.825676 34.528719 
L 151.969685 35.481689 
L 152.113694 35.10705 
L 152.401712 35.752979 
L 152.545721 35.173414 
L 152.68973 36.065224 
L 152.833739 35.845941 
L 152.977748 35.973021 
L 153.121757 37.183211 
L 153.265766 36.288823 
L 153.841802 38.408031 
L 153.985811 37.795703 
L 154.417838 40.15652 
L 154.561847 38.987 
L 154.993874 41.492235 
L 155.137883 41.426819 
L 155.56991 43.121048 
L 155.713919 42.300309 
L 155.857928 44.045681 
L 156.001937 43.974516 
L 156.289955 43.233064 
L 156.577973 45.09263 
L 156.721982 44.52801 
L 156.865991 44.614821 
L 157.154009 46.653393 
L 157.298018 46.387862 
L 157.586036 48.57348 
L 157.730045 48.295133 
L 157.874054 48.401466 
L 158.018063 49.716659 
L 158.162072 48.282039 
L 159.026126 52.333139 
L 159.170135 52.494031 
L 159.314144 51.955436 
L 159.458153 52.778025 
L 159.602162 52.215155 
L 160.034189 54.988295 
L 160.322207 55.259203 
L 160.466216 56.403825 
L 160.610225 55.615348 
L 160.754234 57.224949 
L 160.898243 56.209633 
L 161.042252 56.730974 
L 161.186261 58.490922 
L 161.33027 57.281965 
L 161.474279 58.559204 
L 161.618288 58.014466 
L 162.050315 60.411431 
L 162.194324 59.356732 
L 162.338333 60.936534 
L 162.482342 60.299027 
L 162.626351 61.040738 
L 162.77036 60.686011 
L 163.202387 63.462026 
L 163.346396 61.956637 
L 163.634414 64.333172 
L 163.778423 63.548628 
L 164.066441 64.457095 
L 164.21045 64.02247 
L 164.354459 64.349329 
L 164.498468 65.997971 
L 164.642477 65.335438 
L 165.074504 67.604683 
L 165.218513 67.575875 
L 165.362522 66.933367 
L 165.506531 67.950812 
L 165.65054 67.884886 
L 165.794549 68.347618 
L 165.938558 68.276092 
L 166.082567 68.195445 
L 166.226576 67.815444 
L 166.370585 69.984801 
L 166.514594 69.109456 
L 166.658603 69.154093 
L 166.802612 70.388839 
L 166.946621 69.400214 
L 167.09063 70.338422 
L 167.234639 70.254957 
L 167.378648 70.30495 
L 167.522657 69.925414 
L 167.810675 70.729535 
L 168.098693 72.281345 
L 168.386711 71.01836 
L 168.53072 71.323029 
L 168.674729 72.520799 
L 168.818738 72.483867 
L 168.962747 72.717554 
L 169.250765 71.995944 
L 169.538783 72.965033 
L 169.826801 71.906856 
L 169.97081 72.613052 
L 170.114819 72.295796 
L 170.258828 72.958094 
L 170.546846 72.206395 
L 170.690855 73.937104 
L 170.834864 72.442976 
L 170.978873 72.486983 
L 171.266891 72.340447 
L 171.4109 72.00956 
L 171.698918 73.545537 
L 171.986936 71.774437 
L 172.274954 71.932582 
L 172.562972 73.605858 
L 172.85099 71.908438 
L 172.994999 71.867707 
L 173.139008 72.930155 
L 173.283017 72.903072 
L 173.427026 72.699079 
L 173.571035 71.177334 
L 173.859053 72.269676 
L 174.003062 71.170837 
L 174.147071 72.272083 
L 174.29108 71.995877 
L 174.435089 71.793829 
L 174.723107 70.376428 
L 174.867116 70.282946 
L 175.155134 69.531795 
L 175.443152 70.502044 
L 175.587161 69.412542 
L 175.73117 69.583808 
L 175.875179 69.450167 
L 176.307206 67.374264 
L 176.451215 68.077187 
L 177.17126 65.60143 
L 177.315269 66.948308 
L 177.603287 65.282167 
L 177.747296 66.219116 
L 178.035314 64.326025 
L 179.187386 61.468744 
L 179.331395 62.412188 
L 179.475404 61.129023 
L 179.619413 61.791955 
L 179.763422 60.07644 
L 179.907431 61.380366 
L 180.05144 61.009284 
L 180.195449 60.671655 
L 180.483467 58.844462 
L 180.627476 59.531589 
L 180.771485 59.154695 
L 181.059503 56.865101 
L 181.203512 57.571313 
L 181.49153 55.501246 
L 181.635539 55.139587 
L 181.779548 55.328675 
L 182.211575 53.7575 
L 182.355584 54.061132 
L 182.787611 52.006907 
L 182.93162 52.591464 
L 183.075629 51.824736 
L 183.219638 52.126704 
L 183.795674 49.578252 
L 183.939683 50.439923 
L 184.083692 49.91655 
L 184.515719 46.919927 
L 184.659728 48.317091 
L 185.235764 44.964075 
L 185.379773 46.234094 
L 185.667791 44.528017 
L 185.8118 44.93032 
L 185.955809 45.044036 
L 186.387836 42.377645 
L 186.531845 42.880594 
L 186.675854 42.63733 
L 186.963872 41.304027 
L 187.107881 41.618726 
L 187.25189 40.355123 
L 187.395899 40.744072 
L 187.539908 39.645818 
L 187.683917 40.8366 
L 187.827926 38.683277 
L 187.971935 38.917566 
L 188.115944 39.009127 
L 188.259953 39.605233 
L 188.69198 36.783492 
L 188.979998 36.976089 
L 189.124007 37.003841 
L 189.268016 35.836659 
L 189.412025 36.102085 
L 189.556034 35.490905 
L 189.844052 36.305318 
L 189.988061 34.208489 
L 190.13207 35.98558 
L 190.276079 35.349616 
L 190.420088 34.709401 
L 190.564097 34.855927 
L 190.708106 34.58186 
L 191.140133 33.243653 
L 191.284142 32.724169 
L 191.428151 33.690658 
L 191.57216 32.079346 
L 191.716169 32.398674 
L 191.860178 33.530964 
L 192.004187 32.207412 
L 192.148196 32.518452 
L 192.292205 32.44299 
L 192.436214 32.611942 
L 192.724232 30.7135 
L 192.868241 32.072967 
L 193.01225 31.166258 
L 193.156259 31.524564 
L 193.300268 31.438135 
L 193.444277 32.041426 
L 193.588286 31.653394 
L 193.732295 30.278799 
L 193.876304 31.801082 
L 194.020313 31.319353 
L 194.164322 30.427927 
L 194.45234 31.287055 
L 194.596349 29.83106 
L 194.740358 29.888237 
L 194.884367 30.507728 
L 195.172385 29.709641 
L 195.316394 29.948368 
L 195.460403 30.759943 
L 195.604412 30.129707 
L 195.748421 30.194917 
L 195.89243 31.539467 
L 196.036439 30.67918 
L 196.180448 31.809075 
L 196.324457 31.594561 
L 196.468466 31.844488 
L 196.756484 31.350536 
L 196.900493 31.773438 
L 197.188511 30.763659 
L 197.476529 32.715851 
L 197.620538 31.048386 
L 197.764547 32.381765 
L 198.052565 31.422403 
L 198.196574 31.837395 
L 198.340583 33.57621 
L 198.484592 33.027863 
L 198.628601 33.512488 
L 198.77261 32.87793 
L 198.916619 33.218097 
L 199.060628 32.669698 
L 199.204637 33.994707 
L 199.348646 33.267257 
L 199.780673 35.101231 
L 199.924682 34.446538 
L 200.068691 34.969434 
L 200.2127 34.371361 
L 200.500718 36.433473 
L 200.644727 35.730855 
L 200.788736 36.068226 
L 200.932745 35.797468 
L 201.076754 36.073121 
L 201.220763 37.770224 
L 201.364772 37.460737 
L 201.940808 39.626215 
L 202.084817 38.061955 
L 202.228826 38.542952 
L 202.804862 40.329064 
L 202.948871 41.636865 
L 203.09288 40.494569 
L 203.236889 42.716095 
L 203.380898 41.814996 
L 203.524907 43.420746 
L 203.668916 41.808731 
L 203.812925 42.376972 
L 204.388961 45.379098 
L 204.53297 44.327859 
L 204.820988 46.558503 
L 204.964997 46.493824 
L 205.109006 45.519748 
L 205.541033 48.243257 
L 205.685042 47.513234 
L 205.829051 49.247215 
L 205.97306 49.024557 
L 206.117069 48.513 
L 206.261078 50.71205 
L 206.549096 49.469521 
L 206.693105 51.442029 
L 206.837114 50.769011 
L 207.125132 51.290686 
L 207.557159 54.152736 
L 207.701168 53.54174 
L 208.133195 54.75746 
L 208.421213 56.330689 
L 208.709231 55.374113 
L 209.285267 58.407125 
L 209.429276 57.442839 
L 209.861303 60.317119 
L 210.005312 59.831557 
L 210.149321 61.079168 
L 210.29333 60.18419 
L 210.437339 61.700193 
L 210.581348 61.356786 
L 210.725357 62.181265 
L 210.869366 60.945296 
L 211.301393 64.056033 
L 211.445402 63.132596 
L 211.877429 64.555056 
L 212.021438 63.847577 
L 212.165447 65.651586 
L 212.309456 64.88412 
L 212.453465 65.01158 
L 212.885492 66.059069 
L 213.17351 67.921483 
L 213.317519 66.453427 
L 213.317519 66.453427 
" clip-path="url(#p4b2d97527c)" style="fill: none; stroke: #3362b0; stroke-width: 1.5; stroke-linecap: square"/>
   </g>
   <g id="line2d_18">
    <path d="M 141.457028 31.412832 
L 141.601037 30.189802 
L 141.745046 30.30358 
L 141.889055 31.585868 
L 142.033064 30.319088 
L 142.177073 31.548965 
L 142.321082 31.516769 
L 142.6091 31.447635 
L 142.753109 32.11571 
L 142.897118 31.737633 
L 143.041127 32.307031 
L 143.185136 32.162786 
L 143.329145 31.250669 
L 143.617163 33.115493 
L 143.761172 32.042829 
L 143.905181 33.131176 
L 144.193199 31.982115 
L 144.481217 34.096908 
L 144.625226 33.740506 
L 144.769235 33.993247 
L 145.057253 35.127202 
L 145.201262 34.060005 
L 145.345271 34.581675 
L 145.48928 34.009019 
L 145.921307 35.583414 
L 146.065316 35.757904 
L 146.209325 37.160678 
L 146.353334 36.974034 
L 146.497343 36.500444 
L 146.641352 37.91839 
L 146.785361 37.398473 
L 146.92937 37.080941 
L 147.073379 38.883819 
L 147.217388 37.39063 
L 148.081442 40.612284 
L 148.225451 40.064055 
L 148.36946 41.767438 
L 148.513469 40.193262 
L 148.801487 42.801892 
L 148.945496 42.904625 
L 149.089505 41.717539 
L 149.377523 43.717182 
L 149.521532 43.721935 
L 149.665541 44.886808 
L 149.80955 43.72747 
L 149.953559 45.114801 
L 150.097568 44.466487 
L 150.385586 46.756139 
L 150.529595 45.552309 
L 150.961622 47.941406 
L 151.105631 46.842762 
L 151.24964 48.215937 
L 151.393649 47.688552 
L 151.825676 49.719962 
L 151.969685 49.141026 
L 152.113694 51.480383 
L 152.257703 50.167261 
L 152.401712 52.302927 
L 152.545721 51.964621 
L 152.68973 51.993977 
L 153.553784 54.947141 
L 153.697793 54.097117 
L 153.841802 54.726387 
L 154.12982 56.961784 
L 154.273829 56.4511 
L 154.705856 58.350876 
L 154.993874 58.180282 
L 155.137883 57.787565 
L 155.713919 60.565269 
L 155.857928 59.792074 
L 156.145946 62.277621 
L 156.289955 61.708654 
L 156.577973 63.290444 
L 156.721982 61.775069 
L 156.865991 63.179425 
L 157.01 62.496348 
L 157.586036 65.614617 
L 157.730045 64.587047 
L 157.874054 65.766274 
L 158.018063 65.071735 
L 158.162072 66.357492 
L 158.306081 66.257327 
L 158.45009 66.257233 
L 158.594099 67.510533 
L 158.738108 66.82569 
L 158.882117 68.186867 
L 159.026126 67.941593 
L 159.170135 68.104711 
L 159.314144 68.705828 
L 159.458153 67.382564 
L 159.602162 69.572381 
L 159.746171 68.063605 
L 159.89018 68.832744 
L 160.034189 68.371005 
L 160.178198 69.389142 
L 160.322207 69.331228 
L 160.466216 69.231546 
L 160.610225 69.545427 
L 160.754234 71.019127 
L 160.898243 70.524316 
L 161.042252 71.094165 
L 161.186261 69.992086 
L 161.474279 71.207241 
L 161.618288 71.056674 
L 161.762297 72.33468 
L 161.906306 70.948873 
L 162.194324 72.820042 
L 162.482342 71.905637 
L 162.77036 73.272405 
L 162.914369 71.475591 
L 163.058378 72.173558 
L 163.202387 73.351707 
L 163.346396 72.37393 
L 163.490405 73.554288 
L 163.634414 73.502504 
L 163.778423 73.645125 
L 164.066441 71.906632 
L 164.354459 73.726571 
L 164.498468 73.651146 
L 164.786486 72.542677 
L 164.930495 72.674769 
L 165.074504 73.899548 
L 165.218513 72.683165 
L 165.362522 73.792451 
L 165.506531 72.496001 
L 165.65054 73.064297 
L 165.794549 71.697427 
L 165.938558 71.808518 
L 166.082567 71.98908 
L 166.226576 71.749825 
L 166.658603 72.980961 
L 166.802612 72.044148 
L 166.946621 72.592807 
L 167.09063 71.19412 
L 167.234639 72.403038 
L 167.378648 72.316258 
L 167.666666 70.290588 
L 167.954684 71.628127 
L 168.098693 70.610272 
L 168.242702 71.264653 
L 168.386711 70.751595 
L 168.53072 69.231965 
L 168.674729 70.855459 
L 168.818738 70.688712 
L 168.962747 70.344022 
L 169.394774 67.98078 
L 169.538783 68.908737 
L 169.682792 68.588406 
L 169.826801 68.510572 
L 170.114819 66.794909 
L 170.258828 68.054695 
L 170.546846 66.206815 
L 170.690855 65.976148 
L 170.834864 66.90284 
L 171.122882 65.400672 
L 171.266891 66.236393 
L 171.554909 64.136874 
L 171.698918 65.31069 
L 171.986936 63.473866 
L 172.130945 63.973102 
L 172.274954 63.927868 
L 172.562972 61.743107 
L 172.706981 61.836975 
L 172.85099 62.191702 
L 173.139008 61.686156 
L 173.283017 60.56903 
L 173.427026 61.020077 
L 173.859053 59.963562 
L 174.003062 58.379445 
L 174.147071 58.534277 
L 174.579098 56.742139 
L 174.723107 56.813187 
L 175.011125 55.060855 
L 175.155134 56.210147 
L 175.299143 55.825042 
L 175.875179 52.990426 
L 176.163197 53.822124 
L 176.451215 51.247709 
L 177.315269 48.710561 
L 177.459278 49.397415 
L 177.603287 48.172486 
L 177.747296 49.017108 
L 178.035314 46.816129 
L 178.179323 47.631579 
L 178.323332 47.335731 
L 178.61135 45.59026 
L 178.755359 45.847468 
L 179.043377 44.65098 
L 179.187386 45.679545 
L 179.619413 42.806501 
L 179.763422 43.75548 
L 180.05144 41.398394 
L 180.339458 42.400681 
L 180.627476 40.011815 
L 180.915494 41.055107 
L 181.203512 39.049829 
L 181.347521 40.437076 
L 181.635539 38.154662 
L 181.779548 38.52757 
L 182.067566 37.078367 
L 182.211575 37.277823 
L 182.499593 36.680199 
L 182.643602 37.656935 
L 182.93162 35.710052 
L 183.075629 36.719495 
L 183.219638 34.990255 
L 183.507656 36.14283 
L 183.795674 34.58348 
L 183.939683 34.456785 
L 184.227701 34.755168 
L 184.37171 33.897611 
L 184.659728 34.410386 
L 184.803737 32.303976 
L 184.947746 33.176667 
L 185.091755 31.961984 
L 185.379773 32.783363 
L 185.667791 31.388468 
L 185.8118 32.722513 
L 185.955809 32.442445 
L 186.099818 31.835332 
L 186.243827 32.245462 
L 186.387836 31.55432 
L 186.531845 31.627425 
L 186.675854 31.690136 
L 186.819863 31.491058 
L 186.963872 30.122283 
L 187.25189 31.982577 
L 187.395899 29.907971 
L 187.539908 30.245664 
L 187.683917 31.230533 
L 187.827926 30.981425 
L 187.971935 30.284101 
L 188.115944 31.090631 
L 188.259953 30.906762 
L 188.403962 31.052889 
L 188.69198 30.675572 
L 188.835989 29.80863 
L 188.979998 31.231835 
L 189.124007 30.276049 
L 189.412025 31.659867 
L 189.700043 30.288283 
L 189.844052 31.440908 
L 189.988061 30.354928 
L 190.13207 31.841542 
L 190.276079 31.649043 
L 190.564097 30.980555 
L 190.708106 31.241282 
L 190.852115 32.240345 
L 190.996124 31.366293 
L 191.428151 33.107271 
L 191.716169 31.790236 
L 191.860178 32.118478 
L 192.148196 33.586594 
L 192.436214 32.454475 
L 192.868241 35.079889 
L 193.01225 34.368771 
L 193.300268 35.514662 
L 193.444277 34.298379 
L 193.588286 34.444013 
L 193.732295 35.097215 
L 193.876304 36.778398 
L 194.020313 36.382559 
L 194.164322 35.398411 
L 194.308331 35.520963 
L 194.740358 37.271073 
L 195.028376 38.197674 
L 195.172385 38.002837 
L 195.316394 39.546572 
L 195.604412 38.642418 
L 195.748421 40.28667 
L 195.89243 40.211087 
L 196.180448 41.456442 
L 196.324457 41.44573 
L 196.468466 42.222839 
L 196.612475 40.900278 
L 196.900493 41.932514 
L 197.044502 41.646205 
L 197.188511 43.052863 
L 197.33252 43.023933 
L 197.476529 43.160722 
L 197.620538 44.875089 
L 197.764547 44.069451 
L 197.908556 44.34432 
L 198.052565 45.131903 
L 198.196574 44.737714 
L 198.340583 46.021674 
L 198.484592 45.622649 
L 199.204637 47.578508 
L 199.492655 49.217242 
L 199.636664 48.962187 
L 200.068691 51.291377 
L 200.2127 51.262796 
L 200.932745 54.096721 
L 201.076754 52.705189 
L 201.220763 54.397521 
L 201.364772 54.378097 
L 201.65279 55.876968 
L 201.796799 54.463463 
L 202.228826 57.058626 
L 202.804862 58.909931 
L 202.948871 57.546229 
L 203.956934 62.06668 
L 204.244952 61.173154 
L 204.676979 62.457165 
L 204.820988 62.563379 
L 205.397024 64.858891 
L 205.541033 65.644247 
L 205.829051 64.970264 
L 205.97306 65.025537 
L 206.261078 67.352111 
L 206.405087 66.778407 
L 206.837114 68.315555 
L 206.981123 67.249445 
L 207.125132 68.792525 
L 207.269141 68.192798 
L 207.41315 67.493395 
L 207.557159 67.966499 
L 207.845177 70.107452 
L 207.989186 69.253005 
L 208.421213 70.289018 
L 208.565222 69.376559 
L 208.709231 71.091826 
L 208.85324 69.841195 
L 208.997249 69.873244 
L 209.141258 70.120481 
L 209.429276 71.60422 
L 209.573285 70.54778 
L 209.717294 70.70691 
L 210.005312 72.579699 
L 210.149321 71.605783 
L 210.29333 72.23662 
L 210.437339 72.138036 
L 210.581348 71.98101 
L 210.725357 71.456278 
L 211.013375 72.725154 
L 211.157384 73.161337 
L 211.445402 72.621765 
L 211.589411 72.780603 
L 211.73342 73.627824 
L 211.877429 72.084633 
L 212.165447 73.984441 
L 212.309456 73.156599 
L 212.597474 73.913398 
L 213.029501 72.253234 
L 213.317519 73.457019 
L 213.317519 73.457019 
" clip-path="url(#p4b2d97527c)" style="fill: none; stroke: #cc3164; stroke-width: 1.5; stroke-linecap: square"/>
   </g>
   <g id="patch_7">
    <path d="M 134.270979 73.984441 
L 134.270979 29.687566 
" style="fill: none; stroke: #4d4f53; stroke-width: 0.8; stroke-linejoin: miter; stroke-linecap: square"/>
   </g>
   <g id="patch_8">
    <path d="M 141.457028 78.414128 
L 213.317519 78.414128 
" style="fill: none; stroke: #4d4f53; stroke-width: 0.8; stroke-linejoin: miter; stroke-linecap: square"/>
   </g>
   <g id="legend_2">
    <g id="patch_9">
     <path d="M 185.767468 76.748128 
L 218.837568 76.748128 
L 218.837568 37.568494 
L 185.767468 37.568494 
z
" style="fill: #ffffff"/>
    </g>
    <g id="text_16">
     <!-- title -->
     <g style="fill: #4d4f53" transform="translate(194.159943 48.062992) scale(0.0833 -0.0833)">
      <use xlink:href="#DejaVuSans-74"/>
      <use xlink:href="#DejaVuSans-69" transform="translate(39.208984 0)"/>
      <use xlink:href="#DejaVuSans-74" transform="translate(66.992188 0)"/>
      <use xlink:href="#DejaVuSans-6c" transform="translate(106.201172 0)"/>
      <use xlink:href="#DejaVuSans-65" transform="translate(133.984375 0)"/>
     </g>
    </g>
    <g id="line2d_19">
     <path d="M 189.932468 56.54137 
L 195.763468 56.54137 
L 201.594468 56.54137 
" style="fill: none; stroke: #3362b0; stroke-width: 1.5; stroke-linecap: square"/>
    </g>
    <g id="text_17">
     <!-- $x_1$ -->
     <g style="fill: #4d4f53" transform="translate(205.759468 59.45687) scale(0.0833 -0.0833)">
      <use xlink:href="#DejaVuSans-Oblique-78" transform="translate(0 0.3125)"/>
      <use xlink:href="#DejaVuSans-31" transform="translate(59.179688 -16.09375) scale(0.7)"/>
     </g>
    </g>
    <g id="line2d_20">
     <path d="M 189.932468 67.935248 
L 195.763468 67.935248 
L 201.594468 67.935248 
" style="fill: none; stroke: #cc3164; stroke-width: 1.5; stroke-linecap: square"/>
    </g>
    <g id="text_18">
     <!-- $x_2$ -->
     <g style="fill: #4d4f53" transform="translate(205.759468 70.850748) scale(0.0833 -0.0833)">
      <use xlink:href="#DejaVuSans-Oblique-78" transform="translate(0 0.3125)"/>
      <use xlink:href="#DejaVuSans-32" transform="translate(59.179688 -16.09375) scale(0.7)"/>
     </g>
    </g>
   </g>
  </g>
  <g id="axes_3">
   <g id="patch_10">
    <path d="M 242.061715 78.414128 
L 328.294305 78.414128 
L 328.294305 25.257878 
L 242.061715 25.257878 
L 242.061715 78.414128 
z
" style="fill: none"/>
   </g>
   <g id="matplotlib.axis_5">
    <g id="xtick_7">
     <g id="line2d_21">
      <g>
       <use xlink:href="#m8594a27ec5" x="249.247765" y="78.414128" style="fill: #4d4f53; stroke: #4d4f53; stroke-width: 0.8"/>
      </g>
     </g>
     <g id="text_19">
      <!-- 0 -->
      <g style="fill: #4d4f53" transform="translate(246.597783 91.743627) scale(0.0833 -0.0833)">
       <use xlink:href="#DejaVuSans-30"/>
      </g>
     </g>
    </g>
    <g id="xtick_8">
     <g id="line2d_22">
      <g>
       <use xlink:href="#m8594a27ec5" x="287.370939" y="78.414128" style="fill: #4d4f53; stroke: #4d4f53; stroke-width: 0.8"/>
      </g>
     </g>
     <g id="text_20">
      <!-- 5 -->
      <g style="fill: #4d4f53" transform="translate(284.720958 91.743627) scale(0.0833 -0.0833)">
       <use xlink:href="#DejaVuSans-35"/>
      </g>
     </g>
    </g>
    <g id="xtick_9">
     <g id="line2d_23">
      <g>
       <use xlink:href="#m8594a27ec5" x="325.494114" y="78.414128" style="fill: #4d4f53; stroke: #4d4f53; stroke-width: 0.8"/>
      </g>
     </g>
     <g id="text_21">
      <!-- 10 -->
      <g style="fill: #4d4f53" transform="translate(320.194151 91.743627) scale(0.0833 -0.0833)">
       <use xlink:href="#DejaVuSans-31"/>
       <use xlink:href="#DejaVuSans-30" transform="translate(63.623047 0)"/>
      </g>
     </g>
    </g>
   </g>
   <g id="matplotlib.axis_6">
    <g id="ytick_7">
     <g id="line2d_24">
      <g>
       <use xlink:href="#m45d607f3ee" x="242.061715" y="74.004034" style="fill: #4d4f53; stroke: #4d4f53; stroke-width: 0.8"/>
      </g>
     </g>
     <g id="text_22">
      <!-- −1 -->
      <g style="fill: #4d4f53" transform="translate(222.781473 77.168783) scale(0.0833 -0.0833)">
       <use xlink:href="#DejaVuSans-2212"/>
       <use xlink:href="#DejaVuSans-31" transform="translate(83.789062 0)"/>
      </g>
     </g>
    </g>
    <g id="ytick_8">
     <g id="line2d_25">
      <g>
       <use xlink:href="#m45d607f3ee" x="242.061715" y="52.896989" style="fill: #4d4f53; stroke: #4d4f53; stroke-width: 0.8"/>
      </g>
     </g>
     <g id="text_23">
      <!-- 0 -->
      <g style="fill: #4d4f53" transform="translate(229.761753 56.061738) scale(0.0833 -0.0833)">
       <use xlink:href="#DejaVuSans-30"/>
      </g>
     </g>
    </g>
    <g id="ytick_9">
     <g id="line2d_26">
      <g>
       <use xlink:href="#m45d607f3ee" x="242.061715" y="31.789943" style="fill: #4d4f53; stroke: #4d4f53; stroke-width: 0.8"/>
      </g>
     </g>
     <g id="text_24">
      <!-- 1 -->
      <g style="fill: #4d4f53" transform="translate(229.761753 34.954692) scale(0.0833 -0.0833)">
       <use xlink:href="#DejaVuSans-31"/>
      </g>
     </g>
    </g>
   </g>
   <g id="line2d_27">
    <path d="M 249.247765 37.084087 
L 249.823801 35.285851 
L 249.96781 35.581895 
L 250.111819 33.835285 
L 250.255828 34.115556 
L 250.399837 35.191948 
L 250.687855 33.673336 
L 250.831864 34.527823 
L 250.975873 32.514128 
L 251.119882 33.459448 
L 251.4079 32.348395 
L 251.551909 33.086884 
L 251.695918 32.802778 
L 251.983936 31.760475 
L 252.127945 32.82095 
L 252.271954 32.468528 
L 252.415963 31.528605 
L 252.559972 31.762222 
L 252.703981 32.320683 
L 252.84799 31.713531 
L 252.991999 32.060315 
L 253.280017 30.536167 
L 253.424026 31.819203 
L 253.568035 30.114048 
L 253.712044 31.168769 
L 253.856053 30.942258 
L 254.000062 30.875441 
L 254.144071 31.87386 
L 254.432089 29.741689 
L 254.720107 31.532091 
L 255.008125 30.327416 
L 255.152134 31.791376 
L 255.296143 31.032595 
L 255.440152 31.710024 
L 255.584161 30.197288 
L 255.72817 31.162051 
L 255.872179 30.461948 
L 256.016188 30.95986 
L 256.160197 30.00264 
L 256.304206 30.358426 
L 256.592224 31.087222 
L 256.736233 30.262532 
L 257.024251 32.537255 
L 257.16826 32.49049 
L 257.312269 30.81457 
L 257.456278 30.867017 
L 257.744296 32.473852 
L 257.888305 31.814178 
L 258.032314 33.470344 
L 258.176323 32.049655 
L 258.320332 32.403771 
L 258.464341 33.592948 
L 258.752359 32.44001 
L 258.896368 34.214989 
L 259.040377 32.835801 
L 259.184386 34.280202 
L 259.328395 33.700162 
L 259.472404 34.837778 
L 259.616413 34.528719 
L 259.760422 35.481689 
L 259.904431 35.10705 
L 260.192449 35.752979 
L 260.336458 35.173414 
L 260.480467 36.065224 
L 260.624476 35.845941 
L 260.768485 35.973021 
L 260.912494 37.183211 
L 261.056503 36.288823 
L 261.632539 38.408031 
L 261.776548 37.795703 
L 262.208575 40.15652 
L 262.352584 38.987 
L 262.784611 41.492235 
L 262.92862 41.426819 
L 263.360647 43.121048 
L 263.504656 42.300309 
L 263.648665 44.045681 
L 263.792674 43.974516 
L 264.080692 43.233064 
L 264.36871 45.09263 
L 264.512719 44.52801 
L 264.656728 44.614821 
L 264.944746 46.653393 
L 265.088755 46.387862 
L 265.376773 48.57348 
L 265.520782 48.295133 
L 265.664791 48.401466 
L 265.8088 49.716659 
L 265.952809 48.282039 
L 266.816863 52.333139 
L 266.960872 52.494031 
L 267.104881 51.955436 
L 267.24889 52.778025 
L 267.392899 52.215155 
L 267.824926 54.988295 
L 268.112944 55.259203 
L 268.256953 56.403825 
L 268.400962 55.615348 
L 268.544971 57.224949 
L 268.68898 56.209633 
L 268.832989 56.730974 
L 268.976998 58.490922 
L 269.121007 57.281965 
L 269.265016 58.559204 
L 269.409025 58.014466 
L 269.841052 60.411431 
L 269.985061 59.356732 
L 270.12907 60.936534 
L 270.273079 60.299027 
L 270.417088 61.040738 
L 270.561097 60.686011 
L 270.993124 63.462026 
L 271.137133 61.956637 
L 271.425151 64.333172 
L 271.56916 63.548628 
L 271.857178 64.457095 
L 272.001187 64.02247 
L 272.145196 64.349329 
L 272.289205 65.997971 
L 272.433214 65.335438 
L 272.865241 67.604683 
L 273.00925 67.575875 
L 273.153259 66.933367 
L 273.297268 67.950812 
L 273.441277 67.884886 
L 273.585286 68.347618 
L 273.729295 68.276092 
L 273.873304 68.195445 
L 274.017313 67.815444 
L 274.161322 69.984801 
L 274.305331 69.109456 
L 274.44934 69.154093 
L 274.593349 70.388839 
L 274.737358 69.400214 
L 274.881367 70.338422 
L 275.025376 70.254957 
L 275.169385 70.30495 
L 275.313394 69.925414 
L 275.601412 70.729535 
L 275.88943 72.281345 
L 276.177448 71.01836 
L 276.321457 71.323029 
L 276.465466 72.520799 
L 276.609475 72.483867 
L 276.753484 72.717554 
L 277.041502 71.995944 
L 277.32952 72.965033 
L 277.617538 71.906856 
L 277.761547 72.613052 
L 277.905556 72.295796 
L 278.049565 72.958094 
L 278.337583 72.206395 
L 278.481592 73.937104 
L 278.625601 72.442976 
L 278.76961 72.486983 
L 279.057628 72.340447 
L 279.201637 72.00956 
L 279.489655 73.545537 
L 279.777673 71.774437 
L 280.065691 71.932582 
L 280.353709 73.605858 
L 280.641727 71.908438 
L 280.785736 71.867707 
L 280.929745 72.930155 
L 281.073754 72.903072 
L 281.217763 72.699079 
L 281.361772 71.177334 
L 281.64979 72.269676 
L 281.793799 71.170837 
L 281.937808 72.272083 
L 282.081817 71.995877 
L 282.225826 71.793829 
L 282.513844 70.376428 
L 282.657853 70.282946 
L 282.945871 69.531795 
L 283.233889 70.502044 
L 283.377898 69.412542 
L 283.521907 69.583808 
L 283.665916 69.450167 
L 284.097943 67.374264 
L 284.241952 68.077187 
L 284.961997 65.60143 
L 285.106006 66.948308 
L 285.394024 65.282167 
L 285.538033 66.219116 
L 285.826051 64.326025 
L 286.978123 61.468744 
L 287.122132 62.412188 
L 287.266141 61.129023 
L 287.41015 61.791955 
L 287.554159 60.07644 
L 287.698168 61.380366 
L 287.842177 61.009284 
L 287.986186 60.671655 
L 288.274204 58.844462 
L 288.418213 59.531589 
L 288.562222 59.154695 
L 288.85024 56.865101 
L 288.994249 57.571313 
L 289.282267 55.501246 
L 289.426276 55.139587 
L 289.570285 55.328675 
L 290.002312 53.7575 
L 290.146321 54.061132 
L 290.578348 52.006907 
L 290.722357 52.591464 
L 290.866366 51.824736 
L 291.010375 52.126704 
L 291.586411 49.578252 
L 291.73042 50.439923 
L 291.874429 49.91655 
L 292.306456 46.919927 
L 292.450465 48.317091 
L 293.026501 44.964075 
L 293.17051 46.234094 
L 293.458528 44.528017 
L 293.602537 44.93032 
L 293.746546 45.044036 
L 294.178573 42.377645 
L 294.322582 42.880594 
L 294.466591 42.63733 
L 294.754609 41.304027 
L 294.898618 41.618726 
L 295.042627 40.355123 
L 295.186636 40.744072 
L 295.330645 39.645818 
L 295.474654 40.8366 
L 295.618663 38.683277 
L 295.762672 38.917566 
L 295.906681 39.009127 
L 296.05069 39.605233 
L 296.482717 36.783492 
L 296.770735 36.976089 
L 296.914744 37.003841 
L 297.058753 35.836659 
L 297.202762 36.102085 
L 297.346771 35.490905 
L 297.634789 36.305318 
L 297.778798 34.208489 
L 297.922807 35.98558 
L 298.066816 35.349616 
L 298.210825 34.709401 
L 298.354834 34.855927 
L 298.498843 34.58186 
L 298.93087 33.243653 
L 299.074879 32.724169 
L 299.218888 33.690658 
L 299.362897 32.079346 
L 299.506906 32.398674 
L 299.650915 33.530964 
L 299.794924 32.207412 
L 299.938933 32.518452 
L 300.082942 32.44299 
L 300.226951 32.611942 
L 300.514969 30.7135 
L 300.658978 32.072967 
L 300.802987 31.166258 
L 300.946996 31.524564 
L 301.091005 31.438135 
L 301.235014 32.041426 
L 301.379023 31.653394 
L 301.523032 30.278799 
L 301.667041 31.801082 
L 301.81105 31.319353 
L 301.955059 30.427927 
L 302.243077 31.287055 
L 302.387086 29.83106 
L 302.531095 29.888237 
L 302.675104 30.507728 
L 302.963122 29.709641 
L 303.107131 29.948368 
L 303.25114 30.759943 
L 303.395149 30.129707 
L 303.539158 30.194917 
L 303.683167 31.539467 
L 303.827176 30.67918 
L 303.971185 31.809075 
L 304.115194 31.594561 
L 304.259203 31.844488 
L 304.547221 31.350536 
L 304.69123 31.773438 
L 304.979248 30.763659 
L 305.267266 32.715851 
L 305.411275 31.048386 
L 305.555284 32.381765 
L 305.843302 31.422403 
L 305.987311 31.837395 
L 306.13132 33.57621 
L 306.275329 33.027863 
L 306.419338 33.512488 
L 306.563347 32.87793 
L 306.707356 33.218097 
L 306.851365 32.669698 
L 306.995374 33.994707 
L 307.139383 33.267257 
L 307.57141 35.101231 
L 307.715419 34.446538 
L 307.859428 34.969434 
L 308.003437 34.371361 
L 308.291455 36.433473 
L 308.435464 35.730855 
L 308.579473 36.068226 
L 308.723482 35.797468 
L 308.867491 36.073121 
L 309.0115 37.770224 
L 309.155509 37.460737 
L 309.731545 39.626215 
L 309.875554 38.061955 
L 310.019563 38.542952 
L 310.595599 40.329064 
L 310.739608 41.636865 
L 310.883617 40.494569 
L 311.027626 42.716095 
L 311.171635 41.814996 
L 311.315644 43.420746 
L 311.459653 41.808731 
L 311.603662 42.376972 
L 312.179698 45.379098 
L 312.323707 44.327859 
L 312.611725 46.558503 
L 312.755734 46.493824 
L 312.899743 45.519748 
L 313.33177 48.243257 
L 313.475779 47.513234 
L 313.619788 49.247215 
L 313.763797 49.024557 
L 313.907806 48.513 
L 314.051815 50.71205 
L 314.339833 49.469521 
L 314.483842 51.442029 
L 314.627851 50.769011 
L 314.915869 51.290686 
L 315.347896 54.152736 
L 315.491905 53.54174 
L 315.923932 54.75746 
L 316.21195 56.330689 
L 316.499968 55.374113 
L 317.076004 58.407125 
L 317.220013 57.442839 
L 317.65204 60.317119 
L 317.796049 59.831557 
L 317.940058 61.079168 
L 318.084067 60.18419 
L 318.228076 61.700193 
L 318.372085 61.356786 
L 318.516094 62.181265 
L 318.660103 60.945296 
L 319.09213 64.056033 
L 319.236139 63.132596 
L 319.668166 64.555056 
L 319.812175 63.847577 
L 319.956184 65.651586 
L 320.100193 64.88412 
L 320.244202 65.01158 
L 320.676229 66.059069 
L 320.964247 67.921483 
L 321.108256 66.453427 
L 321.108256 66.453427 
" clip-path="url(#p6bcd8a27fd)" style="fill: none; stroke: #3362b0; stroke-width: 1.5; stroke-linecap: square"/>
   </g>
   <g id="line2d_28">
    <path d="M 249.247765 31.412832 
L 249.391774 30.189802 
L 249.535783 30.30358 
L 249.679792 31.585868 
L 249.823801 30.319088 
L 249.96781 31.548965 
L 250.111819 31.516769 
L 250.399837 31.447635 
L 250.543846 32.11571 
L 250.687855 31.737633 
L 250.831864 32.307031 
L 250.975873 32.162786 
L 251.119882 31.250669 
L 251.4079 33.115493 
L 251.551909 32.042829 
L 251.695918 33.131176 
L 251.983936 31.982115 
L 252.271954 34.096908 
L 252.415963 33.740506 
L 252.559972 33.993247 
L 252.84799 35.127202 
L 252.991999 34.060005 
L 253.136008 34.581675 
L 253.280017 34.009019 
L 253.712044 35.583414 
L 253.856053 35.757904 
L 254.000062 37.160678 
L 254.144071 36.974034 
L 254.28808 36.500444 
L 254.432089 37.91839 
L 254.576098 37.398473 
L 254.720107 37.080941 
L 254.864116 38.883819 
L 255.008125 37.39063 
L 255.872179 40.612284 
L 256.016188 40.064055 
L 256.160197 41.767438 
L 256.304206 40.193262 
L 256.592224 42.801892 
L 256.736233 42.904625 
L 256.880242 41.717539 
L 257.16826 43.717182 
L 257.312269 43.721935 
L 257.456278 44.886808 
L 257.600287 43.72747 
L 257.744296 45.114801 
L 257.888305 44.466487 
L 258.176323 46.756139 
L 258.320332 45.552309 
L 258.752359 47.941406 
L 258.896368 46.842762 
L 259.040377 48.215937 
L 259.184386 47.688552 
L 259.616413 49.719962 
L 259.760422 49.141026 
L 259.904431 51.480383 
L 260.04844 50.167261 
L 260.192449 52.302927 
L 260.336458 51.964621 
L 260.480467 51.993977 
L 261.344521 54.947141 
L 261.48853 54.097117 
L 261.632539 54.726387 
L 261.920557 56.961784 
L 262.064566 56.4511 
L 262.496593 58.350876 
L 262.784611 58.180282 
L 262.92862 57.787565 
L 263.504656 60.565269 
L 263.648665 59.792074 
L 263.936683 62.277621 
L 264.080692 61.708654 
L 264.36871 63.290444 
L 264.512719 61.775069 
L 264.656728 63.179425 
L 264.800737 62.496348 
L 265.376773 65.614617 
L 265.520782 64.587047 
L 265.664791 65.766274 
L 265.8088 65.071735 
L 265.952809 66.357492 
L 266.096818 66.257327 
L 266.240827 66.257233 
L 266.384836 67.510533 
L 266.528845 66.82569 
L 266.672854 68.186867 
L 266.816863 67.941593 
L 266.960872 68.104711 
L 267.104881 68.705828 
L 267.24889 67.382564 
L 267.392899 69.572381 
L 267.536908 68.063605 
L 267.680917 68.832744 
L 267.824926 68.371005 
L 267.968935 69.389142 
L 268.112944 69.331228 
L 268.256953 69.231546 
L 268.400962 69.545427 
L 268.544971 71.019127 
L 268.68898 70.524316 
L 268.832989 71.094165 
L 268.976998 69.992086 
L 269.265016 71.207241 
L 269.409025 71.056674 
L 269.553034 72.33468 
L 269.697043 70.948873 
L 269.985061 72.820042 
L 270.273079 71.905637 
L 270.561097 73.272405 
L 270.705106 71.475591 
L 270.849115 72.173558 
L 270.993124 73.351707 
L 271.137133 72.37393 
L 271.281142 73.554288 
L 271.425151 73.502504 
L 271.56916 73.645125 
L 271.857178 71.906632 
L 272.145196 73.726571 
L 272.289205 73.651146 
L 272.577223 72.542677 
L 272.721232 72.674769 
L 272.865241 73.899548 
L 273.00925 72.683165 
L 273.153259 73.792451 
L 273.297268 72.496001 
L 273.441277 73.064297 
L 273.585286 71.697427 
L 273.729295 71.808518 
L 273.873304 71.98908 
L 274.017313 71.749825 
L 274.44934 72.980961 
L 274.593349 72.044148 
L 274.737358 72.592807 
L 274.881367 71.19412 
L 275.025376 72.403038 
L 275.169385 72.316258 
L 275.457403 70.290588 
L 275.745421 71.628127 
L 275.88943 70.610272 
L 276.033439 71.264653 
L 276.177448 70.751595 
L 276.321457 69.231965 
L 276.465466 70.855459 
L 276.609475 70.688712 
L 276.753484 70.344022 
L 277.185511 67.98078 
L 277.32952 68.908737 
L 277.473529 68.588406 
L 277.617538 68.510572 
L 277.905556 66.794909 
L 278.049565 68.054695 
L 278.337583 66.206815 
L 278.481592 65.976148 
L 278.625601 66.90284 
L 278.913619 65.400672 
L 279.057628 66.236393 
L 279.345646 64.136874 
L 279.489655 65.31069 
L 279.777673 63.473866 
L 279.921682 63.973102 
L 280.065691 63.927868 
L 280.353709 61.743107 
L 280.497718 61.836975 
L 280.641727 62.191702 
L 280.929745 61.686156 
L 281.073754 60.56903 
L 281.217763 61.020077 
L 281.64979 59.963562 
L 281.793799 58.379445 
L 281.937808 58.534277 
L 282.369835 56.742139 
L 282.513844 56.813187 
L 282.801862 55.060855 
L 282.945871 56.210147 
L 283.08988 55.825042 
L 283.665916 52.990426 
L 283.953934 53.822124 
L 284.241952 51.247709 
L 285.106006 48.710561 
L 285.250015 49.397415 
L 285.394024 48.172486 
L 285.538033 49.017108 
L 285.826051 46.816129 
L 285.97006 47.631579 
L 286.114069 47.335731 
L 286.402087 45.59026 
L 286.546096 45.847468 
L 286.834114 44.65098 
L 286.978123 45.679545 
L 287.41015 42.806501 
L 287.554159 43.75548 
L 287.842177 41.398394 
L 288.130195 42.400681 
L 288.418213 40.011815 
L 288.706231 41.055107 
L 288.994249 39.049829 
L 289.138258 40.437076 
L 289.426276 38.154662 
L 289.570285 38.52757 
L 289.858303 37.078367 
L 290.002312 37.277823 
L 290.29033 36.680199 
L 290.434339 37.656935 
L 290.722357 35.710052 
L 290.866366 36.719495 
L 291.010375 34.990255 
L 291.298393 36.14283 
L 291.586411 34.58348 
L 291.73042 34.456785 
L 292.018438 34.755168 
L 292.162447 33.897611 
L 292.450465 34.410386 
L 292.594474 32.303976 
L 292.738483 33.176667 
L 292.882492 31.961984 
L 293.17051 32.783363 
L 293.458528 31.388468 
L 293.602537 32.722513 
L 293.746546 32.442445 
L 293.890555 31.835332 
L 294.034564 32.245462 
L 294.178573 31.55432 
L 294.322582 31.627425 
L 294.466591 31.690136 
L 294.6106 31.491058 
L 294.754609 30.122283 
L 295.042627 31.982577 
L 295.186636 29.907971 
L 295.330645 30.245664 
L 295.474654 31.230533 
L 295.618663 30.981425 
L 295.762672 30.284101 
L 295.906681 31.090631 
L 296.05069 30.906762 
L 296.194699 31.052889 
L 296.482717 30.675572 
L 296.626726 29.80863 
L 296.770735 31.231835 
L 296.914744 30.276049 
L 297.202762 31.659867 
L 297.49078 30.288283 
L 297.634789 31.440908 
L 297.778798 30.354928 
L 297.922807 31.841542 
L 298.066816 31.649043 
L 298.354834 30.980555 
L 298.498843 31.241282 
L 298.642852 32.240345 
L 298.786861 31.366293 
L 299.218888 33.107271 
L 299.506906 31.790236 
L 299.650915 32.118478 
L 299.938933 33.586594 
L 300.226951 32.454475 
L 300.658978 35.079889 
L 300.802987 34.368771 
L 301.091005 35.514662 
L 301.235014 34.298379 
L 301.379023 34.444013 
L 301.523032 35.097215 
L 301.667041 36.778398 
L 301.81105 36.382559 
L 301.955059 35.398411 
L 302.099068 35.520963 
L 302.531095 37.271073 
L 302.819113 38.197674 
L 302.963122 38.002837 
L 303.107131 39.546572 
L 303.395149 38.642418 
L 303.539158 40.28667 
L 303.683167 40.211087 
L 303.971185 41.456442 
L 304.115194 41.44573 
L 304.259203 42.222839 
L 304.403212 40.900278 
L 304.69123 41.932514 
L 304.835239 41.646205 
L 304.979248 43.052863 
L 305.123257 43.023933 
L 305.267266 43.160722 
L 305.411275 44.875089 
L 305.555284 44.069451 
L 305.699293 44.34432 
L 305.843302 45.131903 
L 305.987311 44.737714 
L 306.13132 46.021674 
L 306.275329 45.622649 
L 306.995374 47.578508 
L 307.283392 49.217242 
L 307.427401 48.962187 
L 307.859428 51.291377 
L 308.003437 51.262796 
L 308.723482 54.096721 
L 308.867491 52.705189 
L 309.0115 54.397521 
L 309.155509 54.378097 
L 309.443527 55.876968 
L 309.587536 54.463463 
L 310.019563 57.058626 
L 310.595599 58.909931 
L 310.739608 57.546229 
L 311.747671 62.06668 
L 312.035689 61.173154 
L 312.467716 62.457165 
L 312.611725 62.563379 
L 313.187761 64.858891 
L 313.33177 65.644247 
L 313.619788 64.970264 
L 313.763797 65.025537 
L 314.051815 67.352111 
L 314.195824 66.778407 
L 314.627851 68.315555 
L 314.77186 67.249445 
L 314.915869 68.792525 
L 315.059878 68.192798 
L 315.203887 67.493395 
L 315.347896 67.966499 
L 315.635914 70.107452 
L 315.779923 69.253005 
L 316.21195 70.289018 
L 316.355959 69.376559 
L 316.499968 71.091826 
L 316.643977 69.841195 
L 316.787986 69.873244 
L 316.931995 70.120481 
L 317.220013 71.60422 
L 317.364022 70.54778 
L 317.508031 70.70691 
L 317.796049 72.579699 
L 317.940058 71.605783 
L 318.084067 72.23662 
L 318.228076 72.138036 
L 318.372085 71.98101 
L 318.516094 71.456278 
L 318.804112 72.725154 
L 318.948121 73.161337 
L 319.236139 72.621765 
L 319.380148 72.780603 
L 319.524157 73.627824 
L 319.668166 72.084633 
L 319.956184 73.984441 
L 320.100193 73.156599 
L 320.388211 73.913398 
L 320.820238 72.253234 
L 321.108256 73.457019 
L 321.108256 73.457019 
" clip-path="url(#p6bcd8a27fd)" style="fill: none; stroke: #cc3164; stroke-width: 1.5; stroke-linecap: square"/>
   </g>
   <g id="patch_11">
    <path d="M 242.061715 73.984441 
L 242.061715 29.687566 
" style="fill: none; stroke: #4d4f53; stroke-width: 0.8; stroke-linejoin: miter; stroke-linecap: square"/>
   </g>
   <g id="patch_12">
    <path d="M 249.247765 78.414128 
L 321.108256 78.414128 
" style="fill: none; stroke: #4d4f53; stroke-width: 0.8; stroke-linejoin: miter; stroke-linecap: square"/>
   </g>
   <g id="legend_3">
    <g id="patch_13">
     <path d="M 332.547282 71.42582 
L 365.617382 71.42582 
L 365.617382 32.246186 
L 332.547282 32.246186 
z
" style="fill: #ffffff"/>
    </g>
    <g id="text_25">
     <!-- title -->
     <g style="fill: #4d4f53" transform="translate(340.939757 42.740684) scale(0.0833 -0.0833)">
      <use xlink:href="#DejaVuSans-74"/>
      <use xlink:href="#DejaVuSans-69" transform="translate(39.208984 0)"/>
      <use xlink:href="#DejaVuSans-74" transform="translate(66.992188 0)"/>
      <use xlink:href="#DejaVuSans-6c" transform="translate(106.201172 0)"/>
      <use xlink:href="#DejaVuSans-65" transform="translate(133.984375 0)"/>
     </g>
    </g>
    <g id="line2d_29">
     <path d="M 336.712282 51.219062 
L 342.543282 51.219062 
L 348.374282 51.219062 
" style="fill: none; stroke: #3362b0; stroke-width: 1.5; stroke-linecap: square"/>
    </g>
    <g id="text_26">
     <!-- $x_1$ -->
     <g style="fill: #4d4f53" transform="translate(352.539282 54.134563) scale(0.0833 -0.0833)">
      <use xlink:href="#DejaVuSans-Oblique-78" transform="translate(0 0.3125)"/>
      <use xlink:href="#DejaVuSans-31" transform="translate(59.179688 -16.09375) scale(0.7)"/>
     </g>
    </g>
    <g id="line2d_30">
     <path d="M 336.712282 62.612941 
L 342.543282 62.612941 
L 348.374282 62.612941 
" style="fill: none; stroke: #cc3164; stroke-width: 1.5; stroke-linecap: square"/>
    </g>
    <g id="text_27">
     <!-- $x_2$ -->
     <g style="fill: #4d4f53" transform="translate(352.539282 65.528441) scale(0.0833 -0.0833)">
      <use xlink:href="#DejaVuSans-Oblique-78" transform="translate(0 0.3125)"/>
      <use xlink:href="#DejaVuSans-32" transform="translate(59.179688 -16.09375) scale(0.7)"/>
     </g>
    </g>
   </g>
  </g>
 </g>
 <defs>
  <clipPath id="p023f4bf059">
   <rect x="26.480242" y="25.257878" width="86.232589" height="53.15625"/>
  </clipPath>
  <clipPath id="p4b2d97527c">
   <rect x="134.270979" y="25.257878" width="86.232589" height="53.15625"/>
  </clipPath>
  <clipPath id="p6bcd8a27fd">
   <rect x="242.061715" y="25.257878" width="86.232589" height="53.15625"/>
  </clipPath>
 </defs>
</svg>
