<?xml version="1.0" encoding="utf-8" standalone="no"?>
<!DOCTYPE svg PUBLIC "-//W3C//DTD SVG 1.1//EN"
  "http://www.w3.org/Graphics/SVG/1.1/DTD/svg11.dtd">
<svg xmlns:xlink="http://www.w3.org/1999/xlink" width="371.151382pt" height="99.010006pt" viewBox="0 0 371.151382 99.010006" xmlns="http://www.w3.org/2000/svg" version="1.1">
 <metadata>
  <rdf:RDF xmlns:dc="http://purl.org/dc/elements/1.1/" xmlns:cc="http://creativecommons.org/ns#" xmlns:rdf="http://www.w3.org/1999/02/22-rdf-syntax-ns#">
   <cc:Work>
    <dc:type rdf:resource="http://purl.org/dc/dcmitype/StillImage"/>
    <dc:date>2026-04-30T17:21:25.290492</dc:date>
    <dc:format>image/svg+xml</dc:format>
    <dc:creator>
     <cc:Agent>
      <dc:title>Matplotlib v3.10.9, https://matplotlib.org/</dc:title>
     </cc:Agent>
    </dc:creator>
   </cc:Work>
  </rdf:RDF>
 </metadata>
 <defs>
  <style type="text/css">*{stroke-linejoin: round; stroke-linecap: butt}</style>
 </defs>
 <g id="figure_1">
  <g id="patch_1">
   <path d="M 0 99.010006 
L 371.151382 99.010006 
L 371.151382 0 
L 0 0 
L 0 99.010006 
z
" style="fill: none"/>
  </g>
  <g id="axes_1">
   <g id="patch_2">
    <path d="M 26.480242 76.748128 
L 112.712831 76.748128 
L 112.712831 23.591878 
L 26.480242 23.591878 
L 26.480242 76.748128 
z
" style="fill: none"/>
   </g>
   <g id="matplotlib.axis_1">
    <g id="xtick_1">
     <g id="line2d_1">
      <path d="M 30.399905 76.748128 
L 30.399905 23.591878 
" clip-path="url(#p49959c7ae9)" style="fill: none; stroke-dasharray: 2.96,1.28; stroke-dashoffset: 0; stroke: #dddfe5; stroke-width: 0.8"/>
     </g>
     <g id="line2d_2">
      <defs>
       <path id="m993ffb15ea" d="M 0 0 
L 0 3.5 
" style="stroke: #4d4f53; stroke-width: 0.8"/>
      </defs>
      <g>
       <use xlink:href="#m993ffb15ea" x="30.399905" y="76.748128" style="fill: #4d4f53; stroke: #4d4f53; stroke-width: 0.8"/>
      </g>
     </g>
     <g id="text_1">
      <!-- 0 -->
      <g style="fill: #4d4f53" transform="translate(27.749924 90.077627) scale(0.0833 -0.0833)">
       <defs>
        <path id="DejaVuSans-30" d="M 2034 4250 
Q 1547 4250 1301 3770 
Q 1056 3291 1056 2328 
Q 1056 1369 1301 889 
Q 1547 409 2034 409 
Q 2525 409 2770 889 
Q 3016 1369 3016 2328 
Q 3016 3291 2770 3770 
Q 2525 4250 2034 4250 
z
M 2034 4750 
Q 2819 4750 3233 4129 
Q 3647 3509 3647 2328 
Q 3647 1150 3233 529 
Q 2819 -91 2034 -91 
Q 1250 -91 836 529 
Q 422 1150 422 2328 
Q 422 3509 836 4129 
Q 1250 4750 2034 4750 
z
" transform="scale(0.015625)"/>
       </defs>
       <use xlink:href="#DejaVuSans-30"/>
      </g>
     </g>
    </g>
    <g id="xtick_2">
     <g id="line2d_3">
      <path d="M 71.988823 76.748128 
L 71.988823 23.591878 
" clip-path="url(#p49959c7ae9)" style="fill: none; stroke-dasharray: 2.96,1.28; stroke-dashoffset: 0; stroke: #dddfe5; stroke-width: 0.8"/>
     </g>
     <g id="line2d_4">
      <g>
       <use xlink:href="#m993ffb15ea" x="71.988823" y="76.748128" style="fill: #4d4f53; stroke: #4d4f53; stroke-width: 0.8"/>
      </g>
     </g>
     <g id="text_2">
      <!-- 5 -->
      <g style="fill: #4d4f53" transform="translate(69.338842 90.077627) scale(0.0833 -0.0833)">
       <defs>
        <path id="DejaVuSans-35" d="M 691 4666 
L 3169 4666 
L 3169 4134 
L 1269 4134 
L 1269 2991 
Q 1406 3038 1543 3061 
Q 1681 3084 1819 3084 
Q 2600 3084 3056 2656 
Q 3513 2228 3513 1497 
Q 3513 744 3044 326 
Q 2575 -91 1722 -91 
Q 1428 -91 1123 -41 
Q 819 9 494 109 
L 494 744 
Q 775 591 1075 516 
Q 1375 441 1709 441 
Q 2250 441 2565 725 
Q 2881 1009 2881 1497 
Q 2881 1984 2565 2268 
Q 2250 2553 1709 2553 
Q 1456 2553 1204 2497 
Q 953 2441 691 2322 
L 691 4666 
z
" transform="scale(0.015625)"/>
       </defs>
       <use xlink:href="#DejaVuSans-35"/>
      </g>
     </g>
    </g>
   </g>
   <g id="matplotlib.axis_2">
    <g id="ytick_1">
     <g id="line2d_5">
      <path d="M 26.480242 74.35331 
L 112.712831 74.35331 
" clip-path="url(#p49959c7ae9)" style="fill: none; stroke-dasharray: 2.96,1.28; stroke-dashoffset: 0; stroke: #dddfe5; stroke-width: 0.8"/>
     </g>
     <g id="line2d_6">
      <defs>
       <path id="m5a6caa3c67" d="M 0 0 
L -3.5 0 
" style="stroke: #4d4f53; stroke-width: 0.8"/>
      </defs>
      <g>
       <use xlink:href="#m5a6caa3c67" x="26.480242" y="74.35331" style="fill: #4d4f53; stroke: #4d4f53; stroke-width: 0.8"/>
      </g>
     </g>
     <g id="text_3">
      <!-- −1 -->
      <g style="fill: #4d4f53" transform="translate(7.2 77.518059) scale(0.0833 -0.0833)">
       <defs>
        <path id="DejaVuSans-2212" d="M 678 2272 
L 4684 2272 
L 4684 1741 
L 678 1741 
L 678 2272 
z
" transform="scale(0.015625)"/>
        <path id="DejaVuSans-31" d="M 794 531 
L 1825 531 
L 1825 4091 
L 703 3866 
L 703 4441 
L 1819 4666 
L 2450 4666 
L 2450 531 
L 3481 531 
L 3481 0 
L 794 0 
L 794 531 
z
" transform="scale(0.015625)"/>
       </defs>
       <use xlink:href="#DejaVuSans-2212"/>
       <use xlink:href="#DejaVuSans-31" transform="translate(83.789062 0)"/>
      </g>
     </g>
    </g>
    <g id="ytick_2">
     <g id="line2d_7">
      <path d="M 26.480242 51.327442 
L 112.712831 51.327442 
" clip-path="url(#p49959c7ae9)" style="fill: none; stroke-dasharray: 2.96,1.28; stroke-dashoffset: 0; stroke: #dddfe5; stroke-width: 0.8"/>
     </g>
     <g id="line2d_8">
      <g>
       <use xlink:href="#m5a6caa3c67" x="26.480242" y="51.327442" style="fill: #4d4f53; stroke: #4d4f53; stroke-width: 0.8"/>
      </g>
     </g>
     <g id="text_4">
      <!-- 0 -->
      <g style="fill: #4d4f53" transform="translate(14.18028 54.492191) scale(0.0833 -0.0833)">
       <use xlink:href="#DejaVuSans-30"/>
      </g>
     </g>
    </g>
    <g id="ytick_3">
     <g id="line2d_9">
      <path d="M 26.480242 28.301574 
L 112.712831 28.301574 
" clip-path="url(#p49959c7ae9)" style="fill: none; stroke-dasharray: 2.96,1.28; stroke-dashoffset: 0; stroke: #dddfe5; stroke-width: 0.8"/>
     </g>
     <g id="line2d_10">
      <g>
       <use xlink:href="#m5a6caa3c67" x="26.480242" y="28.301574" style="fill: #4d4f53; stroke: #4d4f53; stroke-width: 0.8"/>
      </g>
     </g>
     <g id="text_5">
      <!-- 1 -->
      <g style="fill: #4d4f53" transform="translate(14.18028 31.466323) scale(0.0833 -0.0833)">
       <use xlink:href="#DejaVuSans-31"/>
      </g>
     </g>
    </g>
   </g>
   <g id="line2d_11">
    <path d="M 30.399905 34.077004 
L 31.028308 32.115292 
L 31.185409 32.438249 
L 31.34251 30.532856 
L 31.49961 30.838607 
L 31.656711 32.012852 
L 31.970913 30.356184 
L 32.128013 31.288352 
L 32.285114 29.091594 
L 32.442215 30.122852 
L 32.756416 28.910794 
L 32.913517 29.716419 
L 33.227718 28.843119 
L 33.384819 28.269427 
L 33.54192 29.426309 
L 33.699021 29.041848 
L 33.856121 28.016478 
L 34.013222 28.271333 
L 34.170323 28.880563 
L 34.327424 28.218215 
L 34.484524 28.596525 
L 34.798726 26.933818 
L 34.955826 28.333494 
L 35.112927 26.473325 
L 35.270028 27.62393 
L 35.427129 27.376826 
L 35.584229 27.303935 
L 35.74133 28.39312 
L 36.055532 26.067115 
L 36.369733 28.02028 
L 36.683934 26.706089 
L 36.841035 28.303137 
L 36.998136 27.475376 
L 37.155237 28.21439 
L 37.312337 26.564132 
L 37.469438 27.616601 
L 37.626539 26.852852 
L 37.78364 27.396028 
L 37.94074 26.351789 
L 38.412042 27.534969 
L 38.569143 26.635307 
L 38.883345 29.116824 
L 39.040445 29.065807 
L 39.197546 27.237531 
L 39.354647 27.294746 
L 39.668848 29.047656 
L 39.825949 28.328012 
L 39.98305 30.134738 
L 40.14015 28.584896 
L 40.297251 28.971205 
L 40.454352 30.268488 
L 40.768553 29.010738 
L 40.925654 30.947078 
L 41.082755 29.44251 
L 41.239856 31.01822 
L 41.396956 30.385449 
L 41.554057 31.626485 
L 41.711158 31.28933 
L 41.868258 32.328933 
L 42.025359 31.920236 
L 42.339561 32.624886 
L 42.496661 31.992634 
L 42.653762 32.965517 
L 42.810863 32.726299 
L 42.967964 32.864931 
L 43.125064 34.185139 
L 43.282165 33.209443 
L 43.910568 35.521306 
L 44.067669 34.853312 
L 44.538971 37.428749 
L 44.696072 36.152909 
L 45.167374 38.885892 
L 45.324474 38.81453 
L 45.795777 40.662779 
L 45.952877 39.767427 
L 46.109978 41.671469 
L 46.267079 41.593835 
L 46.58128 40.784979 
L 46.895482 42.813596 
L 47.052582 42.197647 
L 47.209683 42.29235 
L 47.523885 44.516246 
L 47.680985 44.226576 
L 47.995187 46.610887 
L 48.152288 46.307235 
L 48.309388 46.423235 
L 48.466489 47.857991 
L 48.62359 46.292951 
L 49.566194 50.712333 
L 49.723295 50.887851 
L 49.880396 50.300294 
L 50.037496 51.197664 
L 50.194597 50.583624 
L 50.665899 53.608868 
L 50.980101 53.904403 
L 51.137201 55.153082 
L 51.294302 54.292924 
L 51.451403 56.048854 
L 51.608504 54.941236 
L 51.765604 55.509971 
L 51.922705 57.429915 
L 52.079806 56.111052 
L 52.236906 57.504404 
L 52.394007 56.910144 
L 52.865309 59.525015 
L 53.02241 58.374435 
L 53.179511 60.097855 
L 53.336612 59.402393 
L 53.493712 60.211532 
L 53.650813 59.824557 
L 54.122115 62.852938 
L 54.279216 61.210694 
L 54.593417 63.803278 
L 54.750518 62.947412 
L 55.06472 63.938467 
L 55.22182 63.464331 
L 55.378921 63.820904 
L 55.536022 65.619423 
L 55.693122 64.89666 
L 56.164425 67.3722 
L 56.321525 67.340772 
L 56.478626 66.639855 
L 56.635727 67.749795 
L 56.792828 67.677875 
L 56.949928 68.182674 
L 57.107029 68.104646 
L 57.26413 68.016668 
L 57.42123 67.602121 
L 57.578331 69.968692 
L 57.735432 69.01377 
L 57.892533 69.062465 
L 58.049633 70.409461 
L 58.206734 69.330961 
L 58.363835 70.35446 
L 58.520936 70.263407 
L 58.678036 70.317945 
L 58.835137 69.903906 
L 59.149338 70.781129 
L 59.46354 72.474013 
L 59.777741 71.096211 
L 59.934842 71.428577 
L 60.091943 72.735235 
L 60.249044 72.694946 
L 60.406144 72.949877 
L 60.720346 72.162666 
L 61.034547 73.219854 
L 61.348749 72.065479 
L 61.505849 72.835874 
L 61.66295 72.489778 
L 61.820051 73.212284 
L 62.134252 72.392249 
L 62.291353 74.280295 
L 62.448454 72.650337 
L 62.605554 72.698345 
L 62.919756 72.538487 
L 63.076857 72.17752 
L 63.391058 73.853131 
L 63.70526 71.921022 
L 64.019461 72.093543 
L 64.333662 73.918936 
L 64.647864 72.067204 
L 64.804965 72.022771 
L 64.962065 73.181805 
L 65.119166 73.15226 
L 65.276267 72.929722 
L 65.433368 71.269636 
L 65.747569 72.461282 
L 65.90467 71.262549 
L 66.06177 72.463909 
L 66.218871 72.162592 
L 66.375972 71.942177 
L 66.690173 70.395921 
L 66.847274 70.293941 
L 67.161476 69.474504 
L 67.475677 70.532957 
L 67.632778 69.344409 
L 67.789878 69.531245 
L 67.946979 69.385455 
L 68.418281 67.120833 
L 68.575382 67.887658 
L 68.889584 66.497155 
L 69.046684 67.167616 
L 69.360886 65.186832 
L 69.517986 66.656153 
L 69.832188 64.838546 
L 69.989289 65.860672 
L 70.30349 63.795482 
L 71.560296 60.678448 
L 71.717397 61.707659 
L 71.874497 60.307843 
L 72.031598 61.031041 
L 72.188699 59.15957 
L 72.3458 60.582035 
L 72.660001 59.808896 
L 72.974202 57.815595 
L 73.131303 58.565187 
L 73.288404 58.15403 
L 73.602605 55.656291 
L 73.759706 56.426705 
L 74.073908 54.16845 
L 74.231008 53.773913 
L 74.388109 53.980191 
L 74.859411 52.266181 
L 75.016512 52.597417 
L 75.487814 50.356444 
L 75.644915 50.994142 
L 75.802016 50.157712 
L 75.959116 50.487131 
L 76.587519 47.707002 
L 76.74462 48.647006 
L 76.901721 48.076054 
L 77.058821 46.152658 
L 77.215922 46.448162 
L 77.373023 44.807011 
L 77.530124 46.33119 
L 78.158526 42.673354 
L 78.315627 44.058829 
L 78.629829 42.197655 
L 78.786929 42.636531 
L 78.94403 42.760584 
L 79.101131 41.126485 
L 79.258232 41.633711 
L 79.415332 39.851794 
L 79.572433 40.400466 
L 79.729534 40.135087 
L 80.043735 38.680575 
L 80.200836 39.023882 
L 80.357937 37.645406 
L 80.515037 38.069715 
L 80.672138 36.87162 
L 80.829239 38.170654 
L 80.98634 35.821575 
L 81.14344 36.077163 
L 81.300541 36.177047 
L 81.457642 36.827345 
L 81.928944 33.749082 
L 82.243145 33.959188 
L 82.400246 33.989463 
L 82.557347 32.716173 
L 82.714448 33.005729 
L 82.871548 32.338987 
L 83.18575 33.227437 
L 83.34285 30.939988 
L 83.499951 32.878632 
L 83.814153 31.486437 
L 83.971253 31.646284 
L 84.128354 31.347301 
L 84.442556 30.09772 
L 84.599656 29.887439 
L 84.756757 29.32073 
L 84.913858 30.375081 
L 85.070958 28.617286 
L 85.228059 28.965644 
L 85.38516 30.20087 
L 85.542261 28.756995 
L 85.699361 29.096311 
L 85.856462 29.013989 
L 86.013563 29.1983 
L 86.327764 27.127273 
L 86.484865 28.610327 
L 86.641966 27.62119 
L 87.113268 28.575919 
L 87.270369 28.152612 
L 87.427469 26.653054 
L 87.58457 28.313726 
L 87.898772 26.815738 
L 88.212973 27.752969 
L 88.370074 26.16461 
L 88.527174 26.226985 
L 88.684275 26.902794 
L 88.998477 26.032154 
L 89.155577 26.292583 
L 89.312678 27.177937 
L 89.469779 26.490407 
L 89.62688 26.561545 
L 89.78398 28.028327 
L 89.941081 27.089833 
L 90.098182 28.322446 
L 90.255282 28.08843 
L 90.412383 28.361077 
L 90.726585 27.82222 
L 90.883685 28.283569 
L 91.197887 27.181991 
L 91.512088 29.311656 
L 91.669189 27.492603 
L 91.82629 28.947198 
L 92.140491 27.900621 
L 92.297592 28.35334 
L 92.454693 30.250228 
L 92.611793 29.652032 
L 92.768894 30.180714 
L 92.925995 29.488469 
L 93.083096 29.85956 
L 93.240196 29.261307 
L 93.397297 30.706771 
L 93.554398 29.913189 
L 94.0257 31.913888 
L 94.182801 31.199677 
L 94.339901 31.77011 
L 94.497002 31.117666 
L 94.811204 33.367243 
L 94.968304 32.60075 
L 95.125405 32.968791 
L 95.282506 32.673419 
L 95.439606 32.974131 
L 95.596707 34.825517 
L 95.753808 34.487894 
L 96.382211 36.850234 
L 96.539312 35.143768 
L 97.324815 37.616979 
L 97.481916 39.043671 
L 97.639017 37.797529 
L 97.796117 40.221012 
L 97.953218 39.237995 
L 98.110319 40.989722 
L 98.26742 39.231161 
L 99.052923 43.126107 
L 99.210024 41.979301 
L 99.524225 44.41273 
L 99.681326 44.342171 
L 99.838427 43.279543 
L 100.309729 46.250644 
L 100.46683 45.454255 
L 100.62393 47.345871 
L 100.781031 47.102971 
L 100.938132 46.544909 
L 101.095233 48.943872 
L 101.409434 47.588386 
L 101.566535 49.740214 
L 101.723636 49.006012 
L 102.037837 49.575112 
L 102.509139 52.697348 
L 102.66624 52.030806 
L 103.137542 53.357047 
L 103.451744 55.073297 
L 103.765945 54.029759 
L 104.394348 57.338499 
L 104.551449 56.286552 
L 105.022751 59.422129 
L 105.179852 58.892426 
L 105.336952 60.253455 
L 105.494053 59.277116 
L 105.651154 60.930938 
L 105.808255 60.556311 
L 105.965355 61.455743 
L 106.122456 60.107413 
L 106.279557 62.16064 
L 106.436657 61.815804 
L 106.593758 63.500944 
L 106.750859 62.493559 
L 107.222161 64.045334 
L 107.379262 63.273539 
L 107.536363 65.241548 
L 107.693463 64.404312 
L 107.850564 64.543359 
L 108.321866 65.686075 
L 108.636068 67.7178 
L 108.793168 66.116283 
L 108.793168 66.116283 
" clip-path="url(#p49959c7ae9)" style="fill: none; stroke: #3362b0; stroke-width: 1.5; stroke-linecap: square"/>
   </g>
   <g id="line2d_12">
    <path d="M 30.399905 27.89018 
L 30.557006 26.555966 
L 30.714107 26.680087 
L 30.871208 28.078947 
L 31.028308 26.697005 
L 31.185409 28.038688 
L 31.34251 28.003566 
L 31.656711 27.928147 
L 31.813812 28.656956 
L 31.970913 28.244509 
L 32.128013 28.86567 
L 32.285114 28.708312 
L 32.442215 27.713275 
L 32.756416 29.747629 
L 32.913517 28.57745 
L 33.070618 29.764737 
L 33.384819 28.511216 
L 33.699021 30.818263 
L 33.856121 30.429461 
L 34.013222 30.705178 
L 34.327424 31.94222 
L 34.484524 30.778005 
L 34.641625 31.3471 
L 34.798726 30.722384 
L 35.112927 31.813565 
L 35.584229 34.160557 
L 35.74133 33.956946 
L 35.898431 33.440302 
L 36.055532 34.987153 
L 36.369733 34.073572 
L 36.526834 36.040347 
L 36.683934 34.411415 
L 37.626539 37.925946 
L 37.78364 37.327878 
L 37.94074 39.186114 
L 38.097841 37.468831 
L 38.412042 40.314609 
L 38.569143 40.426681 
L 38.726244 39.131679 
L 39.040445 41.313108 
L 39.197546 41.318292 
L 39.354647 42.589063 
L 39.511748 41.324331 
L 39.668848 42.837782 
L 39.825949 42.130531 
L 40.14015 44.628333 
L 40.297251 43.315064 
L 40.768553 45.921352 
L 40.925654 44.722831 
L 41.082755 46.22084 
L 41.239856 45.645511 
L 41.711158 47.861595 
L 41.868258 47.230028 
L 42.025359 49.782054 
L 42.18246 48.349558 
L 42.339561 50.679374 
L 42.496661 50.310314 
L 42.653762 50.342338 
L 43.596366 53.563972 
L 43.753467 52.636672 
L 43.910568 53.323149 
L 44.224769 55.761764 
L 44.38187 55.204654 
L 44.696072 56.533888 
L 45.010273 57.281711 
L 45.324474 56.662617 
L 45.795777 59.324339 
L 45.952877 59.692839 
L 46.109978 58.849353 
L 46.42418 61.56086 
L 46.58128 60.940168 
L 46.895482 62.665757 
L 47.052582 61.01262 
L 47.209683 62.544645 
L 47.366784 61.799471 
L 47.995187 65.201218 
L 48.152288 64.080233 
L 48.309388 65.366662 
L 48.466489 64.608983 
L 48.62359 66.011627 
L 48.78069 65.902357 
L 48.937791 65.902254 
L 49.094892 67.26949 
L 49.251993 66.522389 
L 49.409093 68.00731 
L 49.566194 67.739737 
L 49.723295 67.917684 
L 49.880396 68.573449 
L 50.037496 67.129888 
L 50.194597 69.518779 
L 50.351698 67.872841 
L 50.508798 68.711902 
L 50.665899 68.208187 
L 50.823 69.318882 
L 50.980101 69.255703 
L 51.137201 69.14696 
L 51.294302 69.489375 
L 51.451403 71.097047 
L 51.608504 70.557253 
L 51.765604 71.178907 
L 51.922705 69.976639 
L 52.236906 71.302263 
L 52.394007 71.138007 
L 52.551108 72.532196 
L 52.708209 71.020406 
L 53.02241 73.061682 
L 53.336612 72.064149 
L 53.650813 73.555169 
L 53.807914 71.595008 
L 54.122115 73.64168 
L 54.279216 72.575014 
L 54.436317 73.862678 
L 54.593417 73.806186 
L 54.750518 73.961773 
L 55.06472 72.065235 
L 55.378921 74.050623 
L 55.536022 73.968341 
L 55.850223 72.759102 
L 56.007324 72.903202 
L 56.164425 74.239325 
L 56.321525 72.912362 
L 56.478626 74.122492 
L 56.635727 72.708182 
L 56.792828 73.328142 
L 56.949928 71.837011 
L 57.107029 71.958202 
L 57.26413 72.155178 
L 57.42123 71.894173 
L 57.892533 73.237229 
L 58.049633 72.215252 
L 58.206734 72.813789 
L 58.363835 71.287949 
L 58.520936 72.606768 
L 58.678036 72.512099 
L 58.992238 70.302278 
L 59.306439 71.761412 
L 59.46354 70.651024 
L 59.620641 71.364894 
L 59.777741 70.805195 
L 59.934842 69.147416 
L 60.091943 70.9185 
L 60.249044 70.736595 
L 60.406144 70.360569 
L 60.563245 69.308807 
L 60.720346 69.647592 
L 60.877446 67.782487 
L 61.034547 68.794804 
L 61.505849 67.446521 
L 61.66295 66.48881 
L 61.820051 67.863122 
L 62.134252 65.847253 
L 62.291353 65.595616 
L 62.448454 66.606552 
L 62.762655 64.967824 
L 62.919756 65.87952 
L 63.233957 63.589135 
L 63.391058 64.869662 
L 63.70526 62.865854 
L 63.86236 63.410475 
L 64.019461 63.361129 
L 64.333662 60.977753 
L 64.490763 61.080155 
L 64.647864 61.46713 
L 64.962065 60.915625 
L 65.119166 59.696942 
L 65.276267 60.188992 
L 65.747569 59.036431 
L 65.90467 57.308303 
L 66.06177 57.477211 
L 66.533073 55.522151 
L 66.690173 55.599658 
L 67.004375 53.688023 
L 67.161476 54.941797 
L 67.318576 54.521681 
L 67.789878 51.983015 
L 67.946979 51.429373 
L 68.261181 52.336681 
L 68.575382 49.528228 
L 69.517986 46.76043 
L 69.675087 47.509725 
L 69.832188 46.173439 
L 69.989289 47.094845 
L 70.30349 44.693777 
L 70.460591 45.583358 
L 70.617692 45.260615 
L 70.931893 43.356466 
L 71.088994 43.637056 
L 71.403195 42.331796 
L 71.560296 43.453867 
L 72.031598 40.319637 
L 72.188699 41.354887 
L 72.5029 38.783521 
L 72.817102 39.876924 
L 73.131303 37.270889 
L 73.445505 38.409026 
L 73.759706 36.22145 
L 73.916807 37.73481 
L 74.231008 35.244903 
L 74.388109 35.651712 
L 74.70231 34.070764 
L 74.859411 34.288352 
L 75.173613 33.636399 
L 75.330713 34.701928 
L 75.644915 32.578057 
L 75.802016 33.679267 
L 75.959116 31.792824 
L 76.273318 33.050178 
L 76.587519 31.349069 
L 76.74462 31.210856 
L 77.058821 31.536365 
L 77.215922 30.600848 
L 77.530124 31.160239 
L 77.687224 28.862337 
L 77.844325 29.814363 
L 78.001426 28.489256 
L 78.315627 29.385304 
L 78.629829 27.863601 
L 78.786929 29.318923 
L 78.94403 29.013394 
L 79.101131 28.35109 
L 79.258232 28.798504 
L 79.415332 28.04453 
L 79.572433 28.124281 
L 79.729534 28.192694 
L 79.886634 27.975517 
L 80.043735 26.482309 
L 80.357937 28.51172 
L 80.515037 26.248514 
L 80.672138 26.616905 
L 80.829239 27.691309 
L 80.98634 27.419554 
L 81.14344 26.658837 
L 81.300541 27.538688 
L 81.457642 27.338104 
L 81.614742 27.497515 
L 81.928944 27.085896 
L 82.086045 26.140142 
L 82.243145 27.692729 
L 82.400246 26.650053 
L 82.714448 28.159672 
L 83.028649 26.663399 
L 83.18575 27.920808 
L 83.34285 26.736103 
L 83.499951 28.357863 
L 83.657052 28.147865 
L 83.971253 27.418605 
L 84.128354 27.703034 
L 84.285455 28.792921 
L 84.442556 27.83941 
L 84.756757 29.28632 
L 84.913858 29.738658 
L 85.070958 29.318578 
L 85.228059 28.301893 
L 85.38516 28.659976 
L 85.699361 30.261557 
L 86.013563 29.026518 
L 86.484865 31.890606 
L 86.641966 31.11484 
L 86.956167 32.364903 
L 87.113268 31.038049 
L 87.270369 31.196923 
L 87.427469 31.909506 
L 87.58457 33.743525 
L 87.741671 33.3117 
L 87.898772 32.238085 
L 88.055872 32.371778 
L 88.527174 34.280988 
L 88.841376 35.291826 
L 88.998477 35.079277 
L 89.155577 36.763351 
L 89.469779 35.777001 
L 89.62688 37.57073 
L 89.78398 37.488277 
L 90.098182 38.846846 
L 90.255282 38.835159 
L 90.412383 39.682915 
L 90.569484 38.240121 
L 90.883685 39.366197 
L 91.040786 39.05386 
L 91.197887 40.588396 
L 91.354988 40.556835 
L 91.512088 40.70606 
L 91.669189 42.576279 
L 91.82629 41.6974 
L 91.98339 41.997258 
L 92.140491 42.856439 
L 92.297592 42.426415 
L 92.454693 43.827099 
L 92.611793 43.391798 
L 93.397297 45.525462 
L 93.711498 47.313173 
L 93.868599 47.034931 
L 94.339901 49.575865 
L 94.497002 49.544686 
L 95.282506 52.636241 
L 95.439606 51.118206 
L 95.596707 52.964386 
L 95.753808 52.943196 
L 96.068009 54.578328 
L 96.22511 53.036323 
L 96.696412 55.86741 
L 97.324815 57.887015 
L 97.481916 56.399341 
L 97.796117 58.590765 
L 97.953218 57.999537 
L 98.110319 58.218508 
L 98.26742 60.652958 
L 98.42452 59.902518 
L 98.581621 61.330741 
L 98.895822 60.355986 
L 99.367125 61.756725 
L 99.524225 61.872596 
L 100.152628 64.37679 
L 100.309729 65.233542 
L 100.62393 64.498288 
L 100.781031 64.558586 
L 101.095233 67.096666 
L 101.252333 66.470807 
L 101.723636 68.147696 
L 101.880736 66.984667 
L 102.037837 68.668027 
L 102.352038 67.250794 
L 102.509139 67.766908 
L 102.823341 70.102493 
L 102.980441 69.170369 
L 103.451744 70.300565 
L 103.608844 69.305155 
L 103.765945 71.176355 
L 103.923046 69.812031 
L 104.080147 69.846993 
L 104.237247 70.116706 
L 104.551449 71.73533 
L 104.708549 70.58285 
L 104.86565 70.756447 
L 105.179852 72.799489 
L 105.336952 71.737036 
L 105.494053 72.425221 
L 105.651154 72.317675 
L 105.808255 72.146374 
L 105.965355 71.57394 
L 106.279557 72.958167 
L 106.436657 73.434004 
L 106.750859 72.845379 
L 106.90796 73.018657 
L 107.06506 73.942898 
L 107.222161 72.259418 
L 107.536363 74.331935 
L 107.693463 73.428835 
L 108.007665 74.254434 
L 108.478967 72.443346 
L 108.636068 72.819364 
L 108.793168 73.756565 
L 108.793168 73.756565 
" clip-path="url(#p49959c7ae9)" style="fill: none; stroke: #cc3164; stroke-width: 1.5; stroke-linecap: square"/>
   </g>
   <g id="patch_3">
    <path d="M 26.480242 76.748128 
L 26.480242 23.591878 
" style="fill: none; stroke: #4d4f53; stroke-width: 0.8; stroke-linejoin: miter; stroke-linecap: square"/>
   </g>
   <g id="patch_4">
    <path d="M 112.712831 76.748128 
L 112.712831 23.591878 
" style="fill: none; stroke: #4d4f53; stroke-width: 0.8; stroke-linejoin: miter; stroke-linecap: square"/>
   </g>
   <g id="patch_5">
    <path d="M 26.480242 76.748128 
L 112.712831 76.748128 
" style="fill: none; stroke: #4d4f53; stroke-width: 0.8; stroke-linejoin: miter; stroke-linecap: square"/>
   </g>
   <g id="patch_6">
    <path d="M 26.480242 23.591878 
L 112.712831 23.591878 
" style="fill: none; stroke: #4d4f53; stroke-width: 0.8; stroke-linejoin: miter; stroke-linecap: square"/>
   </g>
   <g id="legend_1">
    <g id="patch_7">
     <path d="M 26.480242 23.591878 
L 112.712831 23.591878 
L 112.712831 7.2 
L 26.480242 7.2 
z
" style="fill: #ffffff; stroke: #4d4f53; stroke-width: 0.8; stroke-linejoin: miter"/>
    </g>
    <g id="text_6">
     <!-- title -->
     <g style="fill: #4d4f53" transform="translate(30.645242 17.694498) scale(0.0833 -0.0833)">
      <defs>
       <path id="DejaVuSans-74" d="M 1172 4494 
L 1172 3500 
L 2356 3500 
L 2356 3053 
L 1172 3053 
L 1172 1153 
Q 1172 725 1289 603 
Q 1406 481 1766 481 
L 2356 481 
L 2356 0 
L 1766 0 
Q 1100 0 847 248 
Q 594 497 594 1153 
L 594 3053 
L 172 3053 
L 172 3500 
L 594 3500 
L 594 4494 
L 1172 4494 
z
" transform="scale(0.015625)"/>
       <path id="DejaVuSans-69" d="M 603 3500 
L 1178 3500 
L 1178 0 
L 603 0 
L 603 3500 
z
M 603 4863 
L 1178 4863 
L 1178 4134 
L 603 4134 
L 603 4863 
z
" transform="scale(0.015625)"/>
       <path id="DejaVuSans-6c" d="M 603 4863 
L 1178 4863 
L 1178 0 
L 603 0 
L 603 4863 
z
" transform="scale(0.015625)"/>
       <path id="DejaVuSans-65" d="M 3597 1894 
L 3597 1613 
L 953 1613 
Q 991 1019 1311 708 
Q 1631 397 2203 397 
Q 2534 397 2845 478 
Q 3156 559 3463 722 
L 3463 178 
Q 3153 47 2828 -22 
Q 2503 -91 2169 -91 
Q 1331 -91 842 396 
Q 353 884 353 1716 
Q 353 2575 817 3079 
Q 1281 3584 2069 3584 
Q 2775 3584 3186 3129 
Q 3597 2675 3597 1894 
z
M 3022 2063 
Q 3016 2534 2758 2815 
Q 2500 3097 2075 3097 
Q 1594 3097 1305 2825 
Q 1016 2553 972 2059 
L 3022 2063 
z
" transform="scale(0.015625)"/>
      </defs>
      <use xlink:href="#DejaVuSans-74"/>
      <use xlink:href="#DejaVuSans-69" transform="translate(39.208984 0)"/>
      <use xlink:href="#DejaVuSans-74" transform="translate(66.992188 0)"/>
      <use xlink:href="#DejaVuSans-6c" transform="translate(106.201172 0)"/>
      <use xlink:href="#DejaVuSans-65" transform="translate(133.984375 0)"/>
     </g>
    </g>
    <g id="line2d_13">
     <path d="M 52.999012 14.778998 
L 58.830012 14.778998 
L 64.661012 14.778998 
" style="fill: none; stroke: #3362b0; stroke-width: 1.5; stroke-linecap: square"/>
    </g>
    <g id="text_7">
     <!-- $x_1$ -->
     <g style="fill: #4d4f53" transform="translate(68.826012 17.694498) scale(0.0833 -0.0833)">
      <defs>
       <path id="DejaVuSans-Oblique-78" d="M 3841 3500 
L 2234 1784 
L 3219 0 
L 2559 0 
L 1819 1388 
L 531 0 
L -166 0 
L 1556 1844 
L 641 3500 
L 1300 3500 
L 1972 2234 
L 3144 3500 
L 3841 3500 
z
" transform="scale(0.015625)"/>
      </defs>
      <use xlink:href="#DejaVuSans-Oblique-78" transform="translate(0 0.3125)"/>
      <use xlink:href="#DejaVuSans-31" transform="translate(59.179688 -16.09375) scale(0.7)"/>
     </g>
    </g>
    <g id="line2d_14">
     <path d="M 83.807731 14.778998 
L 89.638731 14.778998 
L 95.469731 14.778998 
" style="fill: none; stroke: #cc3164; stroke-width: 1.5; stroke-linecap: square"/>
    </g>
    <g id="text_8">
     <!-- $x_2$ -->
     <g style="fill: #4d4f53" transform="translate(99.634731 17.694498) scale(0.0833 -0.0833)">
      <defs>
       <path id="DejaVuSans-32" d="M 1228 531 
L 3431 531 
L 3431 0 
L 469 0 
L 469 531 
Q 828 903 1448 1529 
Q 2069 2156 2228 2338 
Q 2531 2678 2651 2914 
Q 2772 3150 2772 3378 
Q 2772 3750 2511 3984 
Q 2250 4219 1831 4219 
Q 1534 4219 1204 4116 
Q 875 4013 500 3803 
L 500 4441 
Q 881 4594 1212 4672 
Q 1544 4750 1819 4750 
Q 2544 4750 2975 4387 
Q 3406 4025 3406 3419 
Q 3406 3131 3298 2873 
Q 3191 2616 2906 2266 
Q 2828 2175 2409 1742 
Q 1991 1309 1228 531 
z
" transform="scale(0.015625)"/>
      </defs>
      <use xlink:href="#DejaVuSans-Oblique-78" transform="translate(0 0.3125)"/>
      <use xlink:href="#DejaVuSans-32" transform="translate(59.179688 -16.09375) scale(0.7)"/>
     </g>
    </g>
   </g>
  </g>
  <g id="axes_2">
   <g id="patch_8">
    <path d="M 134.270979 76.748128 
L 220.503568 76.748128 
L 220.503568 23.591878 
L 134.270979 23.591878 
L 134.270979 76.748128 
z
" style="fill: none"/>
   </g>
   <g id="matplotlib.axis_3">
    <g id="xtick_3">
     <g id="line2d_15">
      <path d="M 138.190642 76.748128 
L 138.190642 23.591878 
" clip-path="url(#p0bb4048da6)" style="fill: none; stroke-dasharray: 2.96,1.28; stroke-dashoffset: 0; stroke: #dddfe5; stroke-width: 0.8"/>
     </g>
     <g id="line2d_16">
      <g>
       <use xlink:href="#m993ffb15ea" x="138.190642" y="76.748128" style="fill: #4d4f53; stroke: #4d4f53; stroke-width: 0.8"/>
      </g>
     </g>
     <g id="text_9">
      <!-- 0 -->
      <g style="fill: #4d4f53" transform="translate(135.540661 90.077627) scale(0.0833 -0.0833)">
       <use xlink:href="#DejaVuSans-30"/>
      </g>
     </g>
    </g>
    <g id="xtick_4">
     <g id="line2d_17">
      <path d="M 179.77956 76.748128 
L 179.77956 23.591878 
" clip-path="url(#p0bb4048da6)" style="fill: none; stroke-dasharray: 2.96,1.28; stroke-dashoffset: 0; stroke: #dddfe5; stroke-width: 0.8"/>
     </g>
     <g id="line2d_18">
      <g>
       <use xlink:href="#m993ffb15ea" x="179.77956" y="76.748128" style="fill: #4d4f53; stroke: #4d4f53; stroke-width: 0.8"/>
      </g>
     </g>
     <g id="text_10">
      <!-- 5 -->
      <g style="fill: #4d4f53" transform="translate(177.129578 90.077627) scale(0.0833 -0.0833)">
       <use xlink:href="#DejaVuSans-35"/>
      </g>
     </g>
    </g>
   </g>
   <g id="matplotlib.axis_4">
    <g id="ytick_4">
     <g id="line2d_19">
      <path d="M 134.270979 74.35331 
L 220.503568 74.35331 
" clip-path="url(#p0bb4048da6)" style="fill: none; stroke-dasharray: 2.96,1.28; stroke-dashoffset: 0; stroke: #dddfe5; stroke-width: 0.8"/>
     </g>
     <g id="line2d_20">
      <g>
       <use xlink:href="#m5a6caa3c67" x="134.270979" y="74.35331" style="fill: #4d4f53; stroke: #4d4f53; stroke-width: 0.8"/>
      </g>
     </g>
     <g id="text_11">
      <!-- −1 -->
      <g style="fill: #4d4f53" transform="translate(114.990737 77.518059) scale(0.0833 -0.0833)">
       <use xlink:href="#DejaVuSans-2212"/>
       <use xlink:href="#DejaVuSans-31" transform="translate(83.789062 0)"/>
      </g>
     </g>
    </g>
    <g id="ytick_5">
     <g id="line2d_21">
      <path d="M 134.270979 51.327442 
L 220.503568 51.327442 
" clip-path="url(#p0bb4048da6)" style="fill: none; stroke-dasharray: 2.96,1.28; stroke-dashoffset: 0; stroke: #dddfe5; stroke-width: 0.8"/>
     </g>
     <g id="line2d_22">
      <g>
       <use xlink:href="#m5a6caa3c67" x="134.270979" y="51.327442" style="fill: #4d4f53; stroke: #4d4f53; stroke-width: 0.8"/>
      </g>
     </g>
     <g id="text_12">
      <!-- 0 -->
      <g style="fill: #4d4f53" transform="translate(121.971016 54.492191) scale(0.0833 -0.0833)">
       <use xlink:href="#DejaVuSans-30"/>
      </g>
     </g>
    </g>
    <g id="ytick_6">
     <g id="line2d_23">
      <path d="M 134.270979 28.301574 
L 220.503568 28.301574 
" clip-path="url(#p0bb4048da6)" style="fill: none; stroke-dasharray: 2.96,1.28; stroke-dashoffset: 0; stroke: #dddfe5; stroke-width: 0.8"/>
     </g>
     <g id="line2d_24">
      <g>
       <use xlink:href="#m5a6caa3c67" x="134.270979" y="28.301574" style="fill: #4d4f53; stroke: #4d4f53; stroke-width: 0.8"/>
      </g>
     </g>
     <g id="text_13">
      <!-- 1 -->
      <g style="fill: #4d4f53" transform="translate(121.971016 31.466323) scale(0.0833 -0.0833)">
       <use xlink:href="#DejaVuSans-31"/>
      </g>
     </g>
    </g>
   </g>
   <g id="line2d_25">
    <path d="M 138.190642 34.077004 
L 138.819045 32.115292 
L 138.976146 32.438249 
L 139.133246 30.532856 
L 139.290347 30.838607 
L 139.447448 32.012852 
L 139.761649 30.356184 
L 139.91875 31.288352 
L 140.075851 29.091594 
L 140.232951 30.122852 
L 140.547153 28.910794 
L 140.704254 29.716419 
L 141.018455 28.843119 
L 141.175556 28.269427 
L 141.332656 29.426309 
L 141.489757 29.041848 
L 141.646858 28.016478 
L 141.803959 28.271333 
L 141.961059 28.880563 
L 142.11816 28.218215 
L 142.275261 28.596525 
L 142.589462 26.933818 
L 142.746563 28.333494 
L 142.903664 26.473325 
L 143.060764 27.62393 
L 143.217865 27.376826 
L 143.374966 27.303935 
L 143.532067 28.39312 
L 143.846268 26.067115 
L 144.16047 28.02028 
L 144.474671 26.706089 
L 144.631772 28.303137 
L 144.788872 27.475376 
L 144.945973 28.21439 
L 145.103074 26.564132 
L 145.260175 27.616601 
L 145.417275 26.852852 
L 145.574376 27.396028 
L 145.731477 26.351789 
L 146.202779 27.534969 
L 146.35988 26.635307 
L 146.674081 29.116824 
L 146.831182 29.065807 
L 146.988283 27.237531 
L 147.145383 27.294746 
L 147.459585 29.047656 
L 147.616686 28.328012 
L 147.773786 30.134738 
L 147.930887 28.584896 
L 148.087988 28.971205 
L 148.245088 30.268488 
L 148.55929 29.010738 
L 148.716391 30.947078 
L 148.873491 29.44251 
L 149.030592 31.01822 
L 149.187693 30.385449 
L 149.344794 31.626485 
L 149.501894 31.28933 
L 149.658995 32.328933 
L 149.816096 31.920236 
L 150.130297 32.624886 
L 150.287398 31.992634 
L 150.444499 32.965517 
L 150.601599 32.726299 
L 150.7587 32.864931 
L 150.915801 34.185139 
L 151.072902 33.209443 
L 151.701305 35.521306 
L 151.858405 34.853312 
L 152.329707 37.428749 
L 152.486808 36.152909 
L 152.95811 38.885892 
L 153.115211 38.81453 
L 153.586513 40.662779 
L 153.743614 39.767427 
L 153.900715 41.671469 
L 154.057815 41.593835 
L 154.372017 40.784979 
L 154.686218 42.813596 
L 154.843319 42.197647 
L 155.00042 42.29235 
L 155.314621 44.516246 
L 155.471722 44.226576 
L 155.785923 46.610887 
L 155.943024 46.307235 
L 156.100125 46.423235 
L 156.257226 47.857991 
L 156.414326 46.292951 
L 157.356931 50.712333 
L 157.514031 50.887851 
L 157.671132 50.300294 
L 157.828233 51.197664 
L 157.985334 50.583624 
L 158.456636 53.608868 
L 158.770837 53.904403 
L 158.927938 55.153082 
L 159.085039 54.292924 
L 159.242139 56.048854 
L 159.39924 54.941236 
L 159.556341 55.509971 
L 159.713442 57.429915 
L 159.870542 56.111052 
L 160.027643 57.504404 
L 160.184744 56.910144 
L 160.656046 59.525015 
L 160.813147 58.374435 
L 160.970247 60.097855 
L 161.127348 59.402393 
L 161.284449 60.211532 
L 161.44155 59.824557 
L 161.912852 62.852938 
L 162.069953 61.210694 
L 162.384154 63.803278 
L 162.541255 62.947412 
L 162.855456 63.938467 
L 163.012557 63.464331 
L 163.169658 63.820904 
L 163.326758 65.619423 
L 163.483859 64.89666 
L 163.955161 67.3722 
L 164.112262 67.340772 
L 164.269363 66.639855 
L 164.426463 67.749795 
L 164.583564 67.677875 
L 164.740665 68.182674 
L 164.897766 68.104646 
L 165.054866 68.016668 
L 165.211967 67.602121 
L 165.369068 69.968692 
L 165.526169 69.01377 
L 165.683269 69.062465 
L 165.84037 70.409461 
L 165.997471 69.330961 
L 166.154571 70.35446 
L 166.311672 70.263407 
L 166.468773 70.317945 
L 166.625874 69.903906 
L 166.940075 70.781129 
L 167.254277 72.474013 
L 167.568478 71.096211 
L 167.725579 71.428577 
L 167.882679 72.735235 
L 168.03978 72.694946 
L 168.196881 72.949877 
L 168.511082 72.162666 
L 168.825284 73.219854 
L 169.139485 72.065479 
L 169.296586 72.835874 
L 169.453687 72.489778 
L 169.610787 73.212284 
L 169.924989 72.392249 
L 170.08209 74.280295 
L 170.23919 72.650337 
L 170.396291 72.698345 
L 170.710493 72.538487 
L 170.867593 72.17752 
L 171.181795 73.853131 
L 171.495996 71.921022 
L 171.810198 72.093543 
L 172.124399 73.918936 
L 172.438601 72.067204 
L 172.595701 72.022771 
L 172.752802 73.181805 
L 172.909903 73.15226 
L 173.067003 72.929722 
L 173.224104 71.269636 
L 173.538306 72.461282 
L 173.695406 71.262549 
L 173.852507 72.463909 
L 174.009608 72.162592 
L 174.166709 71.942177 
L 174.48091 70.395921 
L 174.638011 70.293941 
L 174.952212 69.474504 
L 175.266414 70.532957 
L 175.423514 69.344409 
L 175.580615 69.531245 
L 175.737716 69.385455 
L 176.209018 67.120833 
L 176.366119 67.887658 
L 176.68032 66.497155 
L 176.837421 67.167616 
L 177.151622 65.186832 
L 177.308723 66.656153 
L 177.622925 64.838546 
L 177.780025 65.860672 
L 178.094227 63.795482 
L 179.351033 60.678448 
L 179.508133 61.707659 
L 179.665234 60.307843 
L 179.822335 61.031041 
L 179.979435 59.15957 
L 180.136536 60.582035 
L 180.450738 59.808896 
L 180.764939 57.815595 
L 180.92204 58.565187 
L 181.079141 58.15403 
L 181.393342 55.656291 
L 181.550443 56.426705 
L 181.864644 54.16845 
L 182.021745 53.773913 
L 182.178846 53.980191 
L 182.650148 52.266181 
L 182.807249 52.597417 
L 183.278551 50.356444 
L 183.435651 50.994142 
L 183.592752 50.157712 
L 183.749853 50.487131 
L 184.378256 47.707002 
L 184.535357 48.647006 
L 184.692457 48.076054 
L 184.849558 46.152658 
L 185.006659 46.448162 
L 185.163759 44.807011 
L 185.32086 46.33119 
L 185.949263 42.673354 
L 186.106364 44.058829 
L 186.420565 42.197655 
L 186.577666 42.636531 
L 186.734767 42.760584 
L 186.891867 41.126485 
L 187.048968 41.633711 
L 187.206069 39.851794 
L 187.36317 40.400466 
L 187.52027 40.135087 
L 187.834472 38.680575 
L 187.991573 39.023882 
L 188.148673 37.645406 
L 188.305774 38.069715 
L 188.462875 36.87162 
L 188.619975 38.170654 
L 188.777076 35.821575 
L 188.934177 36.077163 
L 189.091278 36.177047 
L 189.248378 36.827345 
L 189.719681 33.749082 
L 190.033882 33.959188 
L 190.190983 33.989463 
L 190.348083 32.716173 
L 190.505184 33.005729 
L 190.662285 32.338987 
L 190.976486 33.227437 
L 191.133587 30.939988 
L 191.290688 32.878632 
L 191.604889 31.486437 
L 191.76199 31.646284 
L 191.919091 31.347301 
L 192.233292 30.09772 
L 192.390393 29.887439 
L 192.547494 29.32073 
L 192.704594 30.375081 
L 192.861695 28.617286 
L 193.018796 28.965644 
L 193.175897 30.20087 
L 193.332997 28.756995 
L 193.490098 29.096311 
L 193.647199 29.013989 
L 193.804299 29.1983 
L 194.118501 27.127273 
L 194.275602 28.610327 
L 194.432702 27.62119 
L 194.904005 28.575919 
L 195.061105 28.152612 
L 195.218206 26.653054 
L 195.375307 28.313726 
L 195.689508 26.815738 
L 196.00371 27.752969 
L 196.16081 26.16461 
L 196.317911 26.226985 
L 196.475012 26.902794 
L 196.789213 26.032154 
L 196.946314 26.292583 
L 197.103415 27.177937 
L 197.260515 26.490407 
L 197.417616 26.561545 
L 197.574717 28.028327 
L 197.731818 27.089833 
L 197.888918 28.322446 
L 198.046019 28.08843 
L 198.20312 28.361077 
L 198.517321 27.82222 
L 198.674422 28.283569 
L 198.988623 27.181991 
L 199.302825 29.311656 
L 199.459926 27.492603 
L 199.617026 28.947198 
L 199.931228 27.900621 
L 200.088329 28.35334 
L 200.245429 30.250228 
L 200.40253 29.652032 
L 200.559631 30.180714 
L 200.716731 29.488469 
L 200.873832 29.85956 
L 201.030933 29.261307 
L 201.188034 30.706771 
L 201.345134 29.913189 
L 201.816437 31.913888 
L 201.973537 31.199677 
L 202.130638 31.77011 
L 202.287739 31.117666 
L 202.60194 33.367243 
L 202.759041 32.60075 
L 202.916142 32.968791 
L 203.073242 32.673419 
L 203.230343 32.974131 
L 203.387444 34.825517 
L 203.544545 34.487894 
L 204.172947 36.850234 
L 204.330048 35.143768 
L 205.115552 37.616979 
L 205.272653 39.043671 
L 205.429753 37.797529 
L 205.586854 40.221012 
L 205.743955 39.237995 
L 205.901055 40.989722 
L 206.058156 39.231161 
L 206.84366 43.126107 
L 207.000761 41.979301 
L 207.314962 44.41273 
L 207.472063 44.342171 
L 207.629163 43.279543 
L 208.100466 46.250644 
L 208.257566 45.454255 
L 208.414667 47.345871 
L 208.571768 47.102971 
L 208.728869 46.544909 
L 208.885969 48.943872 
L 209.200171 47.588386 
L 209.357271 49.740214 
L 209.514372 49.006012 
L 209.828574 49.575112 
L 210.299876 52.697348 
L 210.456977 52.030806 
L 210.928279 53.357047 
L 211.24248 55.073297 
L 211.556682 54.029759 
L 212.185085 57.338499 
L 212.342185 56.286552 
L 212.813487 59.422129 
L 212.970588 58.892426 
L 213.127689 60.253455 
L 213.28479 59.277116 
L 213.44189 60.930938 
L 213.598991 60.556311 
L 213.756092 61.455743 
L 213.913193 60.107413 
L 214.070293 62.16064 
L 214.227394 61.815804 
L 214.384495 63.500944 
L 214.541595 62.493559 
L 215.012898 64.045334 
L 215.169998 63.273539 
L 215.327099 65.241548 
L 215.4842 64.404312 
L 215.641301 64.543359 
L 216.112603 65.686075 
L 216.426804 67.7178 
L 216.583905 66.116283 
L 216.583905 66.116283 
" clip-path="url(#p0bb4048da6)" style="fill: none; stroke: #3362b0; stroke-width: 1.5; stroke-linecap: square"/>
   </g>
   <g id="line2d_26">
    <path d="M 138.190642 27.89018 
L 138.347743 26.555966 
L 138.504843 26.680087 
L 138.661944 28.078947 
L 138.819045 26.697005 
L 138.976146 28.038688 
L 139.133246 28.003566 
L 139.447448 27.928147 
L 139.604548 28.656956 
L 139.761649 28.244509 
L 139.91875 28.86567 
L 140.075851 28.708312 
L 140.232951 27.713275 
L 140.547153 29.747629 
L 140.704254 28.57745 
L 140.861354 29.764737 
L 141.175556 28.511216 
L 141.489757 30.818263 
L 141.646858 30.429461 
L 141.803959 30.705178 
L 142.11816 31.94222 
L 142.275261 30.778005 
L 142.432362 31.3471 
L 142.589462 30.722384 
L 142.903664 31.813565 
L 143.374966 34.160557 
L 143.532067 33.956946 
L 143.689167 33.440302 
L 143.846268 34.987153 
L 144.16047 34.073572 
L 144.31757 36.040347 
L 144.474671 34.411415 
L 145.417275 37.925946 
L 145.574376 37.327878 
L 145.731477 39.186114 
L 145.888578 37.468831 
L 146.202779 40.314609 
L 146.35988 40.426681 
L 146.51698 39.131679 
L 146.831182 41.313108 
L 146.988283 41.318292 
L 147.145383 42.589063 
L 147.302484 41.324331 
L 147.459585 42.837782 
L 147.616686 42.130531 
L 147.930887 44.628333 
L 148.087988 43.315064 
L 148.55929 45.921352 
L 148.716391 44.722831 
L 148.873491 46.22084 
L 149.030592 45.645511 
L 149.501894 47.861595 
L 149.658995 47.230028 
L 149.816096 49.782054 
L 149.973197 48.349558 
L 150.130297 50.679374 
L 150.287398 50.310314 
L 150.444499 50.342338 
L 151.387103 53.563972 
L 151.544204 52.636672 
L 151.701305 53.323149 
L 152.015506 55.761764 
L 152.172607 55.204654 
L 152.486808 56.533888 
L 152.80101 57.281711 
L 153.115211 56.662617 
L 153.586513 59.324339 
L 153.743614 59.692839 
L 153.900715 58.849353 
L 154.214916 61.56086 
L 154.372017 60.940168 
L 154.686218 62.665757 
L 154.843319 61.01262 
L 155.00042 62.544645 
L 155.157521 61.799471 
L 155.785923 65.201218 
L 155.943024 64.080233 
L 156.100125 65.366662 
L 156.257226 64.608983 
L 156.414326 66.011627 
L 156.571427 65.902357 
L 156.728528 65.902254 
L 156.885629 67.26949 
L 157.042729 66.522389 
L 157.19983 68.00731 
L 157.356931 67.739737 
L 157.514031 67.917684 
L 157.671132 68.573449 
L 157.828233 67.129888 
L 157.985334 69.518779 
L 158.142434 67.872841 
L 158.299535 68.711902 
L 158.456636 68.208187 
L 158.613737 69.318882 
L 158.770837 69.255703 
L 158.927938 69.14696 
L 159.085039 69.489375 
L 159.242139 71.097047 
L 159.39924 70.557253 
L 159.556341 71.178907 
L 159.713442 69.976639 
L 160.027643 71.302263 
L 160.184744 71.138007 
L 160.341845 72.532196 
L 160.498945 71.020406 
L 160.813147 73.061682 
L 161.127348 72.064149 
L 161.44155 73.555169 
L 161.59865 71.595008 
L 161.912852 73.64168 
L 162.069953 72.575014 
L 162.227053 73.862678 
L 162.384154 73.806186 
L 162.541255 73.961773 
L 162.855456 72.065235 
L 163.169658 74.050623 
L 163.326758 73.968341 
L 163.64096 72.759102 
L 163.798061 72.903202 
L 163.955161 74.239325 
L 164.112262 72.912362 
L 164.269363 74.122492 
L 164.426463 72.708182 
L 164.583564 73.328142 
L 164.740665 71.837011 
L 164.897766 71.958202 
L 165.054866 72.155178 
L 165.211967 71.894173 
L 165.683269 73.237229 
L 165.84037 72.215252 
L 165.997471 72.813789 
L 166.154571 71.287949 
L 166.311672 72.606768 
L 166.468773 72.512099 
L 166.782974 70.302278 
L 167.097176 71.761412 
L 167.254277 70.651024 
L 167.411377 71.364894 
L 167.568478 70.805195 
L 167.725579 69.147416 
L 167.882679 70.9185 
L 168.03978 70.736595 
L 168.196881 70.360569 
L 168.353982 69.308807 
L 168.511082 69.647592 
L 168.668183 67.782487 
L 168.825284 68.794804 
L 169.296586 67.446521 
L 169.453687 66.48881 
L 169.610787 67.863122 
L 169.924989 65.847253 
L 170.08209 65.595616 
L 170.23919 66.606552 
L 170.553392 64.967824 
L 170.710493 65.87952 
L 171.024694 63.589135 
L 171.181795 64.869662 
L 171.495996 62.865854 
L 171.653097 63.410475 
L 171.810198 63.361129 
L 172.124399 60.977753 
L 172.2815 61.080155 
L 172.438601 61.46713 
L 172.752802 60.915625 
L 172.909903 59.696942 
L 173.067003 60.188992 
L 173.538306 59.036431 
L 173.695406 57.308303 
L 173.852507 57.477211 
L 174.323809 55.522151 
L 174.48091 55.599658 
L 174.795111 53.688023 
L 174.952212 54.941797 
L 175.109313 54.521681 
L 175.580615 51.983015 
L 175.737716 51.429373 
L 176.051917 52.336681 
L 176.366119 49.528228 
L 177.308723 46.76043 
L 177.465824 47.509725 
L 177.622925 46.173439 
L 177.780025 47.094845 
L 178.094227 44.693777 
L 178.251327 45.583358 
L 178.408428 45.260615 
L 178.72263 43.356466 
L 178.87973 43.637056 
L 179.193932 42.331796 
L 179.351033 43.453867 
L 179.822335 40.319637 
L 179.979435 41.354887 
L 180.293637 38.783521 
L 180.607838 39.876924 
L 180.92204 37.270889 
L 181.236241 38.409026 
L 181.550443 36.22145 
L 181.707543 37.73481 
L 182.021745 35.244903 
L 182.178846 35.651712 
L 182.493047 34.070764 
L 182.650148 34.288352 
L 182.964349 33.636399 
L 183.12145 34.701928 
L 183.435651 32.578057 
L 183.592752 33.679267 
L 183.749853 31.792824 
L 184.064054 33.050178 
L 184.378256 31.349069 
L 184.535357 31.210856 
L 184.849558 31.536365 
L 185.006659 30.600848 
L 185.32086 31.160239 
L 185.477961 28.862337 
L 185.635062 29.814363 
L 185.792162 28.489256 
L 186.106364 29.385304 
L 186.420565 27.863601 
L 186.577666 29.318923 
L 186.734767 29.013394 
L 186.891867 28.35109 
L 187.048968 28.798504 
L 187.206069 28.04453 
L 187.36317 28.124281 
L 187.52027 28.192694 
L 187.677371 27.975517 
L 187.834472 26.482309 
L 188.148673 28.51172 
L 188.305774 26.248514 
L 188.462875 26.616905 
L 188.619975 27.691309 
L 188.777076 27.419554 
L 188.934177 26.658837 
L 189.091278 27.538688 
L 189.248378 27.338104 
L 189.405479 27.497515 
L 189.719681 27.085896 
L 189.876781 26.140142 
L 190.033882 27.692729 
L 190.190983 26.650053 
L 190.505184 28.159672 
L 190.819386 26.663399 
L 190.976486 27.920808 
L 191.133587 26.736103 
L 191.290688 28.357863 
L 191.447789 28.147865 
L 191.76199 27.418605 
L 191.919091 27.703034 
L 192.076191 28.792921 
L 192.233292 27.83941 
L 192.547494 29.28632 
L 192.704594 29.738658 
L 192.861695 29.318578 
L 193.018796 28.301893 
L 193.175897 28.659976 
L 193.490098 30.261557 
L 193.804299 29.026518 
L 194.275602 31.890606 
L 194.432702 31.11484 
L 194.746904 32.364903 
L 194.904005 31.038049 
L 195.061105 31.196923 
L 195.218206 31.909506 
L 195.375307 33.743525 
L 195.532407 33.3117 
L 195.689508 32.238085 
L 195.846609 32.371778 
L 196.317911 34.280988 
L 196.632113 35.291826 
L 196.789213 35.079277 
L 196.946314 36.763351 
L 197.260515 35.777001 
L 197.417616 37.57073 
L 197.574717 37.488277 
L 197.888918 38.846846 
L 198.046019 38.835159 
L 198.20312 39.682915 
L 198.360221 38.240121 
L 198.674422 39.366197 
L 198.831523 39.05386 
L 198.988623 40.588396 
L 199.145724 40.556835 
L 199.302825 40.70606 
L 199.459926 42.576279 
L 199.617026 41.6974 
L 199.774127 41.997258 
L 199.931228 42.856439 
L 200.088329 42.426415 
L 200.245429 43.827099 
L 200.40253 43.391798 
L 201.188034 45.525462 
L 201.502235 47.313173 
L 201.659336 47.034931 
L 202.130638 49.575865 
L 202.287739 49.544686 
L 203.073242 52.636241 
L 203.230343 51.118206 
L 203.387444 52.964386 
L 203.544545 52.943196 
L 203.858746 54.578328 
L 204.015847 53.036323 
L 204.487149 55.86741 
L 205.115552 57.887015 
L 205.272653 56.399341 
L 205.586854 58.590765 
L 205.743955 57.999537 
L 205.901055 58.218508 
L 206.058156 60.652958 
L 206.215257 59.902518 
L 206.372358 61.330741 
L 206.686559 60.355986 
L 207.157861 61.756725 
L 207.314962 61.872596 
L 207.943365 64.37679 
L 208.100466 65.233542 
L 208.414667 64.498288 
L 208.571768 64.558586 
L 208.885969 67.096666 
L 209.04307 66.470807 
L 209.514372 68.147696 
L 209.671473 66.984667 
L 209.828574 68.668027 
L 210.142775 67.250794 
L 210.299876 67.766908 
L 210.614077 70.102493 
L 210.771178 69.170369 
L 211.24248 70.300565 
L 211.399581 69.305155 
L 211.556682 71.176355 
L 211.713782 69.812031 
L 211.870883 69.846993 
L 212.027984 70.116706 
L 212.342185 71.73533 
L 212.499286 70.58285 
L 212.656387 70.756447 
L 212.970588 72.799489 
L 213.127689 71.737036 
L 213.28479 72.425221 
L 213.44189 72.317675 
L 213.598991 72.146374 
L 213.756092 71.57394 
L 214.070293 72.958167 
L 214.227394 73.434004 
L 214.541595 72.845379 
L 214.698696 73.018657 
L 214.855797 73.942898 
L 215.012898 72.259418 
L 215.327099 74.331935 
L 215.4842 73.428835 
L 215.798401 74.254434 
L 216.269703 72.443346 
L 216.426804 72.819364 
L 216.583905 73.756565 
L 216.583905 73.756565 
" clip-path="url(#p0bb4048da6)" style="fill: none; stroke: #cc3164; stroke-width: 1.5; stroke-linecap: square"/>
   </g>
   <g id="patch_9">
    <path d="M 134.270979 76.748128 
L 134.270979 23.591878 
" style="fill: none; stroke: #4d4f53; stroke-width: 0.8; stroke-linejoin: miter; stroke-linecap: square"/>
   </g>
   <g id="patch_10">
    <path d="M 220.503568 76.748128 
L 220.503568 23.591878 
" style="fill: none; stroke: #4d4f53; stroke-width: 0.8; stroke-linejoin: miter; stroke-linecap: square"/>
   </g>
   <g id="patch_11">
    <path d="M 134.270979 76.748128 
L 220.503568 76.748128 
" style="fill: none; stroke: #4d4f53; stroke-width: 0.8; stroke-linejoin: miter; stroke-linecap: square"/>
   </g>
   <g id="patch_12">
    <path d="M 134.270979 23.591878 
L 220.503568 23.591878 
" style="fill: none; stroke: #4d4f53; stroke-width: 0.8; stroke-linejoin: miter; stroke-linecap: square"/>
   </g>
   <g id="legend_2">
    <g id="patch_13">
     <path d="M 187.433468 76.748128 
L 220.503568 76.748128 
L 220.503568 37.568494 
L 187.433468 37.568494 
z
" style="fill: #ffffff; stroke: #4d4f53; stroke-width: 0.8; stroke-linejoin: miter"/>
    </g>
    <g id="text_14">
     <!-- title -->
     <g style="fill: #4d4f53" transform="translate(195.825943 48.062992) scale(0.0833 -0.0833)">
      <use xlink:href="#DejaVuSans-74"/>
      <use xlink:href="#DejaVuSans-69" transform="translate(39.208984 0)"/>
      <use xlink:href="#DejaVuSans-74" transform="translate(66.992188 0)"/>
      <use xlink:href="#DejaVuSans-6c" transform="translate(106.201172 0)"/>
      <use xlink:href="#DejaVuSans-65" transform="translate(133.984375 0)"/>
     </g>
    </g>
    <g id="line2d_27">
     <path d="M 191.598468 56.54137 
L 197.429468 56.54137 
L 203.260468 56.54137 
" style="fill: none; stroke: #3362b0; stroke-width: 1.5; stroke-linecap: square"/>
    </g>
    <g id="text_15">
     <!-- $x_1$ -->
     <g style="fill: #4d4f53" transform="translate(207.425468 59.45687) scale(0.0833 -0.0833)">
      <use xlink:href="#DejaVuSans-Oblique-78" transform="translate(0 0.3125)"/>
      <use xlink:href="#DejaVuSans-31" transform="translate(59.179688 -16.09375) scale(0.7)"/>
     </g>
    </g>
    <g id="line2d_28">
     <path d="M 191.598468 67.935248 
L 197.429468 67.935248 
L 203.260468 67.935248 
" style="fill: none; stroke: #cc3164; stroke-width: 1.5; stroke-linecap: square"/>
    </g>
    <g id="text_16">
     <!-- $x_2$ -->
     <g style="fill: #4d4f53" transform="translate(207.425468 70.850748) scale(0.0833 -0.0833)">
      <use xlink:href="#DejaVuSans-Oblique-78" transform="translate(0 0.3125)"/>
      <use xlink:href="#DejaVuSans-32" transform="translate(59.179688 -16.09375) scale(0.7)"/>
     </g>
    </g>
   </g>
  </g>
  <g id="axes_3">
   <g id="patch_14">
    <path d="M 242.061715 76.748128 
L 328.294305 76.748128 
L 328.294305 23.591878 
L 242.061715 23.591878 
L 242.061715 76.748128 
z
" style="fill: none"/>
   </g>
   <g id="matplotlib.axis_5">
    <g id="xtick_5">
     <g id="line2d_29">
      <path d="M 245.981379 76.748128 
L 245.981379 23.591878 
" clip-path="url(#p182c15e4a4)" style="fill: none; stroke-dasharray: 2.96,1.28; stroke-dashoffset: 0; stroke: #dddfe5; stroke-width: 0.8"/>
     </g>
     <g id="line2d_30">
      <g>
       <use xlink:href="#m993ffb15ea" x="245.981379" y="76.748128" style="fill: #4d4f53; stroke: #4d4f53; stroke-width: 0.8"/>
      </g>
     </g>
     <g id="text_17">
      <!-- 0 -->
      <g style="fill: #4d4f53" transform="translate(243.331397 90.077627) scale(0.0833 -0.0833)">
       <use xlink:href="#DejaVuSans-30"/>
      </g>
     </g>
    </g>
    <g id="xtick_6">
     <g id="line2d_31">
      <path d="M 287.570296 76.748128 
L 287.570296 23.591878 
" clip-path="url(#p182c15e4a4)" style="fill: none; stroke-dasharray: 2.96,1.28; stroke-dashoffset: 0; stroke: #dddfe5; stroke-width: 0.8"/>
     </g>
     <g id="line2d_32">
      <g>
       <use xlink:href="#m993ffb15ea" x="287.570296" y="76.748128" style="fill: #4d4f53; stroke: #4d4f53; stroke-width: 0.8"/>
      </g>
     </g>
     <g id="text_18">
      <!-- 5 -->
      <g style="fill: #4d4f53" transform="translate(284.920315 90.077627) scale(0.0833 -0.0833)">
       <use xlink:href="#DejaVuSans-35"/>
      </g>
     </g>
    </g>
   </g>
   <g id="matplotlib.axis_6">
    <g id="ytick_7">
     <g id="line2d_33">
      <path d="M 242.061715 74.35331 
L 328.294305 74.35331 
" clip-path="url(#p182c15e4a4)" style="fill: none; stroke-dasharray: 2.96,1.28; stroke-dashoffset: 0; stroke: #dddfe5; stroke-width: 0.8"/>
     </g>
     <g id="line2d_34">
      <g>
       <use xlink:href="#m5a6caa3c67" x="242.061715" y="74.35331" style="fill: #4d4f53; stroke: #4d4f53; stroke-width: 0.8"/>
      </g>
     </g>
     <g id="text_19">
      <!-- −1 -->
      <g style="fill: #4d4f53" transform="translate(222.781473 77.518059) scale(0.0833 -0.0833)">
       <use xlink:href="#DejaVuSans-2212"/>
       <use xlink:href="#DejaVuSans-31" transform="translate(83.789062 0)"/>
      </g>
     </g>
    </g>
    <g id="ytick_8">
     <g id="line2d_35">
      <path d="M 242.061715 51.327442 
L 328.294305 51.327442 
" clip-path="url(#p182c15e4a4)" style="fill: none; stroke-dasharray: 2.96,1.28; stroke-dashoffset: 0; stroke: #dddfe5; stroke-width: 0.8"/>
     </g>
     <g id="line2d_36">
      <g>
       <use xlink:href="#m5a6caa3c67" x="242.061715" y="51.327442" style="fill: #4d4f53; stroke: #4d4f53; stroke-width: 0.8"/>
      </g>
     </g>
     <g id="text_20">
      <!-- 0 -->
      <g style="fill: #4d4f53" transform="translate(229.761753 54.492191) scale(0.0833 -0.0833)">
       <use xlink:href="#DejaVuSans-30"/>
      </g>
     </g>
    </g>
    <g id="ytick_9">
     <g id="line2d_37">
      <path d="M 242.061715 28.301574 
L 328.294305 28.301574 
" clip-path="url(#p182c15e4a4)" style="fill: none; stroke-dasharray: 2.96,1.28; stroke-dashoffset: 0; stroke: #dddfe5; stroke-width: 0.8"/>
     </g>
     <g id="line2d_38">
      <g>
       <use xlink:href="#m5a6caa3c67" x="242.061715" y="28.301574" style="fill: #4d4f53; stroke: #4d4f53; stroke-width: 0.8"/>
      </g>
     </g>
     <g id="text_21">
      <!-- 1 -->
      <g style="fill: #4d4f53" transform="translate(229.761753 31.466323) scale(0.0833 -0.0833)">
       <use xlink:href="#DejaVuSans-31"/>
      </g>
     </g>
    </g>
   </g>
   <g id="line2d_39">
    <path d="M 245.981379 34.077004 
L 246.609781 32.115292 
L 246.766882 32.438249 
L 246.923983 30.532856 
L 247.081084 30.838607 
L 247.238184 32.012852 
L 247.552386 30.356184 
L 247.709487 31.288352 
L 247.866587 29.091594 
L 248.023688 30.122852 
L 248.337889 28.910794 
L 248.49499 29.716419 
L 248.809192 28.843119 
L 248.966292 28.269427 
L 249.123393 29.426309 
L 249.280494 29.041848 
L 249.437595 28.016478 
L 249.594695 28.271333 
L 249.751796 28.880563 
L 249.908897 28.218215 
L 250.065997 28.596525 
L 250.380199 26.933818 
L 250.5373 28.333494 
L 250.6944 26.473325 
L 250.851501 27.62393 
L 251.008602 27.376826 
L 251.165703 27.303935 
L 251.322803 28.39312 
L 251.637005 26.067115 
L 251.951206 28.02028 
L 252.265408 26.706089 
L 252.422508 28.303137 
L 252.579609 27.475376 
L 252.73671 28.21439 
L 252.893811 26.564132 
L 253.050911 27.616601 
L 253.208012 26.852852 
L 253.365113 27.396028 
L 253.522213 26.351789 
L 253.993516 27.534969 
L 254.150616 26.635307 
L 254.464818 29.116824 
L 254.621919 29.065807 
L 254.779019 27.237531 
L 254.93612 27.294746 
L 255.250321 29.047656 
L 255.407422 28.328012 
L 255.564523 30.134738 
L 255.721624 28.584896 
L 255.878724 28.971205 
L 256.035825 30.268488 
L 256.350027 29.010738 
L 256.507127 30.947078 
L 256.664228 29.44251 
L 256.821329 31.01822 
L 256.978429 30.385449 
L 257.13553 31.626485 
L 257.292631 31.28933 
L 257.449732 32.328933 
L 257.606832 31.920236 
L 257.921034 32.624886 
L 258.078135 31.992634 
L 258.235235 32.965517 
L 258.392336 32.726299 
L 258.549437 32.864931 
L 258.706537 34.185139 
L 258.863638 33.209443 
L 259.492041 35.521306 
L 259.649142 34.853312 
L 260.120444 37.428749 
L 260.277545 36.152909 
L 260.748847 38.885892 
L 260.905948 38.81453 
L 261.37725 40.662779 
L 261.534351 39.767427 
L 261.691451 41.671469 
L 261.848552 41.593835 
L 262.162753 40.784979 
L 262.476955 42.813596 
L 262.634056 42.197647 
L 262.791156 42.29235 
L 263.105358 44.516246 
L 263.262459 44.226576 
L 263.57666 46.610887 
L 263.733761 46.307235 
L 263.890861 46.423235 
L 264.047962 47.857991 
L 264.205063 46.292951 
L 265.147667 50.712333 
L 265.304768 50.887851 
L 265.461869 50.300294 
L 265.618969 51.197664 
L 265.77607 50.583624 
L 266.247372 53.608868 
L 266.561574 53.904403 
L 266.718675 55.153082 
L 266.875775 54.292924 
L 267.032876 56.048854 
L 267.189977 54.941236 
L 267.347077 55.509971 
L 267.504178 57.429915 
L 267.661279 56.111052 
L 267.81838 57.504404 
L 267.97548 56.910144 
L 268.446783 59.525015 
L 268.603883 58.374435 
L 268.760984 60.097855 
L 268.918085 59.402393 
L 269.075185 60.211532 
L 269.232286 59.824557 
L 269.703588 62.852938 
L 269.860689 61.210694 
L 270.174891 63.803278 
L 270.331991 62.947412 
L 270.646193 63.938467 
L 270.803293 63.464331 
L 270.960394 63.820904 
L 271.117495 65.619423 
L 271.274596 64.89666 
L 271.745898 67.3722 
L 271.902999 67.340772 
L 272.060099 66.639855 
L 272.2172 67.749795 
L 272.374301 67.677875 
L 272.531401 68.182674 
L 272.688502 68.104646 
L 272.845603 68.016668 
L 273.002704 67.602121 
L 273.159804 69.968692 
L 273.316905 69.01377 
L 273.474006 69.062465 
L 273.631107 70.409461 
L 273.788207 69.330961 
L 273.945308 70.35446 
L 274.102409 70.263407 
L 274.259509 70.317945 
L 274.41661 69.903906 
L 274.730812 70.781129 
L 275.045013 72.474013 
L 275.359215 71.096211 
L 275.516315 71.428577 
L 275.673416 72.735235 
L 275.830517 72.694946 
L 275.987617 72.949877 
L 276.301819 72.162666 
L 276.61602 73.219854 
L 276.930222 72.065479 
L 277.087323 72.835874 
L 277.244423 72.489778 
L 277.401524 73.212284 
L 277.715725 72.392249 
L 277.872826 74.280295 
L 278.029927 72.650337 
L 278.187028 72.698345 
L 278.501229 72.538487 
L 278.65833 72.17752 
L 278.972531 73.853131 
L 279.286733 71.921022 
L 279.600934 72.093543 
L 279.915136 73.918936 
L 280.229337 72.067204 
L 280.386438 72.022771 
L 280.543539 73.181805 
L 280.700639 73.15226 
L 280.85774 72.929722 
L 281.014841 71.269636 
L 281.329042 72.461282 
L 281.486143 71.262549 
L 281.643244 72.463909 
L 281.800344 72.162592 
L 281.957445 71.942177 
L 282.271647 70.395921 
L 282.428747 70.293941 
L 282.742949 69.474504 
L 283.05715 70.532957 
L 283.214251 69.344409 
L 283.371352 69.531245 
L 283.528452 69.385455 
L 283.999755 67.120833 
L 284.156855 67.887658 
L 284.471057 66.497155 
L 284.628157 67.167616 
L 284.942359 65.186832 
L 285.09946 66.656153 
L 285.413661 64.838546 
L 285.570762 65.860672 
L 285.884963 63.795482 
L 287.141769 60.678448 
L 287.29887 61.707659 
L 287.455971 60.307843 
L 287.613071 61.031041 
L 287.770172 59.15957 
L 287.927273 60.582035 
L 288.241474 59.808896 
L 288.555676 57.815595 
L 288.712776 58.565187 
L 288.869877 58.15403 
L 289.184079 55.656291 
L 289.341179 56.426705 
L 289.655381 54.16845 
L 289.812482 53.773913 
L 289.969582 53.980191 
L 290.440884 52.266181 
L 290.597985 52.597417 
L 291.069287 50.356444 
L 291.226388 50.994142 
L 291.383489 50.157712 
L 291.54059 50.487131 
L 292.168992 47.707002 
L 292.326093 48.647006 
L 292.483194 48.076054 
L 292.640295 46.152658 
L 292.797395 46.448162 
L 292.954496 44.807011 
L 293.111597 46.33119 
L 293.74 42.673354 
L 293.8971 44.058829 
L 294.211302 42.197655 
L 294.368403 42.636531 
L 294.525503 42.760584 
L 294.682604 41.126485 
L 294.839705 41.633711 
L 294.996806 39.851794 
L 295.153906 40.400466 
L 295.311007 40.135087 
L 295.625208 38.680575 
L 295.782309 39.023882 
L 295.93941 37.645406 
L 296.096511 38.069715 
L 296.253611 36.87162 
L 296.410712 38.170654 
L 296.567813 35.821575 
L 296.724914 36.077163 
L 296.882014 36.177047 
L 297.039115 36.827345 
L 297.510417 33.749082 
L 297.824619 33.959188 
L 297.981719 33.989463 
L 298.13882 32.716173 
L 298.295921 33.005729 
L 298.453022 32.338987 
L 298.767223 33.227437 
L 298.924324 30.939988 
L 299.081424 32.878632 
L 299.395626 31.486437 
L 299.552727 31.646284 
L 299.709827 31.347301 
L 300.024029 30.09772 
L 300.18113 29.887439 
L 300.33823 29.32073 
L 300.495331 30.375081 
L 300.652432 28.617286 
L 300.809532 28.965644 
L 300.966633 30.20087 
L 301.123734 28.756995 
L 301.280835 29.096311 
L 301.437935 29.013989 
L 301.595036 29.1983 
L 301.909238 27.127273 
L 302.066338 28.610327 
L 302.223439 27.62119 
L 302.694741 28.575919 
L 302.851842 28.152612 
L 303.008943 26.653054 
L 303.166043 28.313726 
L 303.480245 26.815738 
L 303.794446 27.752969 
L 303.951547 26.16461 
L 304.108648 26.226985 
L 304.265748 26.902794 
L 304.57995 26.032154 
L 304.737051 26.292583 
L 304.894151 27.177937 
L 305.051252 26.490407 
L 305.208353 26.561545 
L 305.365454 28.028327 
L 305.522554 27.089833 
L 305.679655 28.322446 
L 305.836756 28.08843 
L 305.993856 28.361077 
L 306.308058 27.82222 
L 306.465159 28.283569 
L 306.77936 27.181991 
L 307.093562 29.311656 
L 307.250662 27.492603 
L 307.407763 28.947198 
L 307.721964 27.900621 
L 307.879065 28.35334 
L 308.036166 30.250228 
L 308.193267 29.652032 
L 308.350367 30.180714 
L 308.507468 29.488469 
L 308.664569 29.85956 
L 308.82167 29.261307 
L 308.97877 30.706771 
L 309.135871 29.913189 
L 309.607173 31.913888 
L 309.764274 31.199677 
L 309.921375 31.77011 
L 310.078475 31.117666 
L 310.392677 33.367243 
L 310.549778 32.60075 
L 310.706878 32.968791 
L 310.863979 32.673419 
L 311.02108 32.974131 
L 311.17818 34.825517 
L 311.335281 34.487894 
L 311.963684 36.850234 
L 312.120785 35.143768 
L 312.906288 37.616979 
L 313.063389 39.043671 
L 313.22049 37.797529 
L 313.377591 40.221012 
L 313.534691 39.237995 
L 313.691792 40.989722 
L 313.848893 39.231161 
L 314.634396 43.126107 
L 314.791497 41.979301 
L 315.105699 44.41273 
L 315.262799 44.342171 
L 315.4199 43.279543 
L 315.891202 46.250644 
L 316.048303 45.454255 
L 316.205404 47.345871 
L 316.362504 47.102971 
L 316.519605 46.544909 
L 316.676706 48.943872 
L 316.990907 47.588386 
L 317.148008 49.740214 
L 317.305109 49.006012 
L 317.61931 49.575112 
L 318.090612 52.697348 
L 318.247713 52.030806 
L 318.719015 53.357047 
L 319.033217 55.073297 
L 319.347418 54.029759 
L 319.975821 57.338499 
L 320.132922 56.286552 
L 320.604224 59.422129 
L 320.761325 58.892426 
L 320.918426 60.253455 
L 321.075526 59.277116 
L 321.232627 60.930938 
L 321.389728 60.556311 
L 321.546828 61.455743 
L 321.703929 60.107413 
L 321.86103 62.16064 
L 322.018131 61.815804 
L 322.175231 63.500944 
L 322.332332 62.493559 
L 322.803634 64.045334 
L 322.960735 63.273539 
L 323.117836 65.241548 
L 323.274936 64.404312 
L 323.432037 64.543359 
L 323.903339 65.686075 
L 324.217541 67.7178 
L 324.374642 66.116283 
L 324.374642 66.116283 
" clip-path="url(#p182c15e4a4)" style="fill: none; stroke: #3362b0; stroke-width: 1.5; stroke-linecap: square"/>
   </g>
   <g id="line2d_40">
    <path d="M 245.981379 27.89018 
L 246.138479 26.555966 
L 246.29558 26.680087 
L 246.452681 28.078947 
L 246.609781 26.697005 
L 246.766882 28.038688 
L 246.923983 28.003566 
L 247.238184 27.928147 
L 247.395285 28.656956 
L 247.552386 28.244509 
L 247.709487 28.86567 
L 247.866587 28.708312 
L 248.023688 27.713275 
L 248.337889 29.747629 
L 248.49499 28.57745 
L 248.652091 29.764737 
L 248.966292 28.511216 
L 249.280494 30.818263 
L 249.437595 30.429461 
L 249.594695 30.705178 
L 249.908897 31.94222 
L 250.065997 30.778005 
L 250.223098 31.3471 
L 250.380199 30.722384 
L 250.6944 31.813565 
L 251.165703 34.160557 
L 251.322803 33.956946 
L 251.479904 33.440302 
L 251.637005 34.987153 
L 251.951206 34.073572 
L 252.108307 36.040347 
L 252.265408 34.411415 
L 253.208012 37.925946 
L 253.365113 37.327878 
L 253.522213 39.186114 
L 253.679314 37.468831 
L 253.993516 40.314609 
L 254.150616 40.426681 
L 254.307717 39.131679 
L 254.621919 41.313108 
L 254.779019 41.318292 
L 254.93612 42.589063 
L 255.093221 41.324331 
L 255.250321 42.837782 
L 255.407422 42.130531 
L 255.721624 44.628333 
L 255.878724 43.315064 
L 256.350027 45.921352 
L 256.507127 44.722831 
L 256.664228 46.22084 
L 256.821329 45.645511 
L 257.292631 47.861595 
L 257.449732 47.230028 
L 257.606832 49.782054 
L 257.763933 48.349558 
L 257.921034 50.679374 
L 258.078135 50.310314 
L 258.235235 50.342338 
L 259.17784 53.563972 
L 259.33494 52.636672 
L 259.492041 53.323149 
L 259.806243 55.761764 
L 259.963343 55.204654 
L 260.277545 56.533888 
L 260.591746 57.281711 
L 260.905948 56.662617 
L 261.37725 59.324339 
L 261.534351 59.692839 
L 261.691451 58.849353 
L 262.005653 61.56086 
L 262.162753 60.940168 
L 262.476955 62.665757 
L 262.634056 61.01262 
L 262.791156 62.544645 
L 262.948257 61.799471 
L 263.57666 65.201218 
L 263.733761 64.080233 
L 263.890861 65.366662 
L 264.047962 64.608983 
L 264.205063 66.011627 
L 264.362164 65.902357 
L 264.519264 65.902254 
L 264.676365 67.26949 
L 264.833466 66.522389 
L 264.990567 68.00731 
L 265.147667 67.739737 
L 265.304768 67.917684 
L 265.461869 68.573449 
L 265.618969 67.129888 
L 265.77607 69.518779 
L 265.933171 67.872841 
L 266.090272 68.711902 
L 266.247372 68.208187 
L 266.404473 69.318882 
L 266.561574 69.255703 
L 266.718675 69.14696 
L 266.875775 69.489375 
L 267.032876 71.097047 
L 267.189977 70.557253 
L 267.347077 71.178907 
L 267.504178 69.976639 
L 267.81838 71.302263 
L 267.97548 71.138007 
L 268.132581 72.532196 
L 268.289682 71.020406 
L 268.603883 73.061682 
L 268.918085 72.064149 
L 269.232286 73.555169 
L 269.389387 71.595008 
L 269.703588 73.64168 
L 269.860689 72.575014 
L 270.01779 73.862678 
L 270.174891 73.806186 
L 270.331991 73.961773 
L 270.646193 72.065235 
L 270.960394 74.050623 
L 271.117495 73.968341 
L 271.431696 72.759102 
L 271.588797 72.903202 
L 271.745898 74.239325 
L 271.902999 72.912362 
L 272.060099 74.122492 
L 272.2172 72.708182 
L 272.374301 73.328142 
L 272.531401 71.837011 
L 272.688502 71.958202 
L 272.845603 72.155178 
L 273.002704 71.894173 
L 273.474006 73.237229 
L 273.631107 72.215252 
L 273.788207 72.813789 
L 273.945308 71.287949 
L 274.102409 72.606768 
L 274.259509 72.512099 
L 274.573711 70.302278 
L 274.887912 71.761412 
L 275.045013 70.651024 
L 275.202114 71.364894 
L 275.359215 70.805195 
L 275.516315 69.147416 
L 275.673416 70.9185 
L 275.830517 70.736595 
L 275.987617 70.360569 
L 276.144718 69.308807 
L 276.301819 69.647592 
L 276.45892 67.782487 
L 276.61602 68.794804 
L 277.087323 67.446521 
L 277.244423 66.48881 
L 277.401524 67.863122 
L 277.715725 65.847253 
L 277.872826 65.595616 
L 278.029927 66.606552 
L 278.344128 64.967824 
L 278.501229 65.87952 
L 278.815431 63.589135 
L 278.972531 64.869662 
L 279.286733 62.865854 
L 279.443833 63.410475 
L 279.600934 63.361129 
L 279.915136 60.977753 
L 280.072236 61.080155 
L 280.229337 61.46713 
L 280.543539 60.915625 
L 280.700639 59.696942 
L 280.85774 60.188992 
L 281.329042 59.036431 
L 281.486143 57.308303 
L 281.643244 57.477211 
L 282.114546 55.522151 
L 282.271647 55.599658 
L 282.585848 53.688023 
L 282.742949 54.941797 
L 282.900049 54.521681 
L 283.371352 51.983015 
L 283.528452 51.429373 
L 283.842654 52.336681 
L 284.156855 49.528228 
L 285.09946 46.76043 
L 285.25656 47.509725 
L 285.413661 46.173439 
L 285.570762 47.094845 
L 285.884963 44.693777 
L 286.042064 45.583358 
L 286.199165 45.260615 
L 286.513366 43.356466 
L 286.670467 43.637056 
L 286.984668 42.331796 
L 287.141769 43.453867 
L 287.613071 40.319637 
L 287.770172 41.354887 
L 288.084374 38.783521 
L 288.398575 39.876924 
L 288.712776 37.270889 
L 289.026978 38.409026 
L 289.341179 36.22145 
L 289.49828 37.73481 
L 289.812482 35.244903 
L 289.969582 35.651712 
L 290.283784 34.070764 
L 290.440884 34.288352 
L 290.755086 33.636399 
L 290.912187 34.701928 
L 291.226388 32.578057 
L 291.383489 33.679267 
L 291.54059 31.792824 
L 291.854791 33.050178 
L 292.168992 31.349069 
L 292.326093 31.210856 
L 292.640295 31.536365 
L 292.797395 30.600848 
L 293.111597 31.160239 
L 293.268698 28.862337 
L 293.425798 29.814363 
L 293.582899 28.489256 
L 293.8971 29.385304 
L 294.211302 27.863601 
L 294.368403 29.318923 
L 294.525503 29.013394 
L 294.682604 28.35109 
L 294.839705 28.798504 
L 294.996806 28.04453 
L 295.153906 28.124281 
L 295.311007 28.192694 
L 295.468108 27.975517 
L 295.625208 26.482309 
L 295.93941 28.51172 
L 296.096511 26.248514 
L 296.253611 26.616905 
L 296.410712 27.691309 
L 296.567813 27.419554 
L 296.724914 26.658837 
L 296.882014 27.538688 
L 297.039115 27.338104 
L 297.196216 27.497515 
L 297.510417 27.085896 
L 297.667518 26.140142 
L 297.824619 27.692729 
L 297.981719 26.650053 
L 298.295921 28.159672 
L 298.610122 26.663399 
L 298.767223 27.920808 
L 298.924324 26.736103 
L 299.081424 28.357863 
L 299.238525 28.147865 
L 299.552727 27.418605 
L 299.709827 27.703034 
L 299.866928 28.792921 
L 300.024029 27.83941 
L 300.33823 29.28632 
L 300.495331 29.738658 
L 300.652432 29.318578 
L 300.809532 28.301893 
L 300.966633 28.659976 
L 301.280835 30.261557 
L 301.595036 29.026518 
L 302.066338 31.890606 
L 302.223439 31.11484 
L 302.53764 32.364903 
L 302.694741 31.038049 
L 302.851842 31.196923 
L 303.008943 31.909506 
L 303.166043 33.743525 
L 303.323144 33.3117 
L 303.480245 32.238085 
L 303.637346 32.371778 
L 304.108648 34.280988 
L 304.422849 35.291826 
L 304.57995 35.079277 
L 304.737051 36.763351 
L 305.051252 35.777001 
L 305.208353 37.57073 
L 305.365454 37.488277 
L 305.679655 38.846846 
L 305.836756 38.835159 
L 305.993856 39.682915 
L 306.150957 38.240121 
L 306.465159 39.366197 
L 306.622259 39.05386 
L 306.77936 40.588396 
L 306.936461 40.556835 
L 307.093562 40.70606 
L 307.250662 42.576279 
L 307.407763 41.6974 
L 307.564864 41.997258 
L 307.721964 42.856439 
L 307.879065 42.426415 
L 308.036166 43.827099 
L 308.193267 43.391798 
L 308.97877 45.525462 
L 309.292972 47.313173 
L 309.450072 47.034931 
L 309.921375 49.575865 
L 310.078475 49.544686 
L 310.863979 52.636241 
L 311.02108 51.118206 
L 311.17818 52.964386 
L 311.335281 52.943196 
L 311.649483 54.578328 
L 311.806583 53.036323 
L 312.277886 55.86741 
L 312.906288 57.887015 
L 313.063389 56.399341 
L 313.377591 58.590765 
L 313.534691 57.999537 
L 313.691792 58.218508 
L 313.848893 60.652958 
L 314.005994 59.902518 
L 314.163094 61.330741 
L 314.477296 60.355986 
L 314.948598 61.756725 
L 315.105699 61.872596 
L 315.734102 64.37679 
L 315.891202 65.233542 
L 316.205404 64.498288 
L 316.362504 64.558586 
L 316.676706 67.096666 
L 316.833807 66.470807 
L 317.305109 68.147696 
L 317.46221 66.984667 
L 317.61931 68.668027 
L 317.933512 67.250794 
L 318.090612 67.766908 
L 318.404814 70.102493 
L 318.561915 69.170369 
L 319.033217 70.300565 
L 319.190318 69.305155 
L 319.347418 71.176355 
L 319.504519 69.812031 
L 319.66162 69.846993 
L 319.81872 70.116706 
L 320.132922 71.73533 
L 320.290023 70.58285 
L 320.447123 70.756447 
L 320.761325 72.799489 
L 320.918426 71.737036 
L 321.075526 72.425221 
L 321.232627 72.317675 
L 321.389728 72.146374 
L 321.546828 71.57394 
L 321.86103 72.958167 
L 322.018131 73.434004 
L 322.332332 72.845379 
L 322.489433 73.018657 
L 322.646534 73.942898 
L 322.803634 72.259418 
L 323.117836 74.331935 
L 323.274936 73.428835 
L 323.589138 74.254434 
L 324.06044 72.443346 
L 324.217541 72.819364 
L 324.374642 73.756565 
L 324.374642 73.756565 
" clip-path="url(#p182c15e4a4)" style="fill: none; stroke: #cc3164; stroke-width: 1.5; stroke-linecap: square"/>
   </g>
   <g id="patch_15">
    <path d="M 242.061715 76.748128 
L 242.061715 23.591878 
" style="fill: none; stroke: #4d4f53; stroke-width: 0.8; stroke-linejoin: miter; stroke-linecap: square"/>
   </g>
   <g id="patch_16">
    <path d="M 328.294305 76.748128 
L 328.294305 23.591878 
" style="fill: none; stroke: #4d4f53; stroke-width: 0.8; stroke-linejoin: miter; stroke-linecap: square"/>
   </g>
   <g id="patch_17">
    <path d="M 242.061715 76.748128 
L 328.294305 76.748128 
" style="fill: none; stroke: #4d4f53; stroke-width: 0.8; stroke-linejoin: miter; stroke-linecap: square"/>
   </g>
   <g id="patch_18">
    <path d="M 242.061715 23.591878 
L 328.294305 23.591878 
" style="fill: none; stroke: #4d4f53; stroke-width: 0.8; stroke-linejoin: miter; stroke-linecap: square"/>
   </g>
   <g id="legend_3">
    <g id="patch_19">
     <path d="M 330.881282 69.75982 
L 363.951382 69.75982 
L 363.951382 30.580186 
L 330.881282 30.580186 
z
" style="fill: #ffffff; stroke: #4d4f53; stroke-width: 0.8; stroke-linejoin: miter"/>
    </g>
    <g id="text_22">
     <!-- title -->
     <g style="fill: #4d4f53" transform="translate(339.273757 41.074684) scale(0.0833 -0.0833)">
      <use xlink:href="#DejaVuSans-74"/>
      <use xlink:href="#DejaVuSans-69" transform="translate(39.208984 0)"/>
      <use xlink:href="#DejaVuSans-74" transform="translate(66.992188 0)"/>
      <use xlink:href="#DejaVuSans-6c" transform="translate(106.201172 0)"/>
      <use xlink:href="#DejaVuSans-65" transform="translate(133.984375 0)"/>
     </g>
    </g>
    <g id="line2d_41">
     <path d="M 335.046282 49.553063 
L 340.877282 49.553063 
L 346.708282 49.553063 
" style="fill: none; stroke: #3362b0; stroke-width: 1.5; stroke-linecap: square"/>
    </g>
    <g id="text_23">
     <!-- $x_1$ -->
     <g style="fill: #4d4f53" transform="translate(350.873282 52.468563) scale(0.0833 -0.0833)">
      <use xlink:href="#DejaVuSans-Oblique-78" transform="translate(0 0.3125)"/>
      <use xlink:href="#DejaVuSans-31" transform="translate(59.179688 -16.09375) scale(0.7)"/>
     </g>
    </g>
    <g id="line2d_42">
     <path d="M 335.046282 60.946941 
L 340.877282 60.946941 
L 346.708282 60.946941 
" style="fill: none; stroke: #cc3164; stroke-width: 1.5; stroke-linecap: square"/>
    </g>
    <g id="text_24">
     <!-- $x_2$ -->
     <g style="fill: #4d4f53" transform="translate(350.873282 63.862441) scale(0.0833 -0.0833)">
      <use xlink:href="#DejaVuSans-Oblique-78" transform="translate(0 0.3125)"/>
      <use xlink:href="#DejaVuSans-32" transform="translate(59.179688 -16.09375) scale(0.7)"/>
     </g>
    </g>
   </g>
  </g>
 </g>
 <defs>
  <clipPath id="p49959c7ae9">
   <rect x="26.480242" y="23.591878" width="86.232589" height="53.15625"/>
  </clipPath>
  <clipPath id="p0bb4048da6">
   <rect x="134.270979" y="23.591878" width="86.232589" height="53.15625"/>
  </clipPath>
  <clipPath id="p182c15e4a4">
   <rect x="242.061715" y="23.591878" width="86.232589" height="53.15625"/>
  </clipPath>
 </defs>
</svg>
