<?xml version="1.0" encoding="utf-8" standalone="no"?>
<!DOCTYPE svg PUBLIC "-//W3C//DTD SVG 1.1//EN"
  "http://www.w3.org/Graphics/SVG/1.1/DTD/svg11.dtd">
<svg xmlns:xlink="http://www.w3.org/1999/xlink" width="371.995544pt" height="99.569242pt" viewBox="0 0 371.995544 99.569242" xmlns="http://www.w3.org/2000/svg" version="1.1">
 <metadata>
  <rdf:RDF xmlns:dc="http://purl.org/dc/elements/1.1/" xmlns:cc="http://creativecommons.org/ns#" xmlns:rdf="http://www.w3.org/1999/02/22-rdf-syntax-ns#">
   <cc:Work>
    <dc:type rdf:resource="http://purl.org/dc/dcmitype/StillImage"/>
    <dc:date>2024-05-18T14:19:44.840915</dc:date>
    <dc:format>image/svg+xml</dc:format>
    <dc:creator>
     <cc:Agent>
      <dc:title>Matplotlib v3.8.2, https://matplotlib.org/</dc:title>
     </cc:Agent>
    </dc:creator>
   </cc:Work>
  </rdf:RDF>
 </metadata>
 <defs>
  <style type="text/css">*{stroke-linejoin: round; stroke-linecap: butt}</style>
 </defs>
 <g id="figure_1">
  <g id="patch_1">
   <path d="M 0 99.569242 
L 371.995544 99.569242 
L 371.995544 -0 
L 0 -0 
L 0 99.569242 
z
" style="fill: none"/>
  </g>
  <g id="axes_1">
   <g id="patch_2">
    <path d="M 25.466968 78.038745 
L 111.866968 78.038745 
L 111.866968 24.640608 
L 25.466968 24.640608 
L 25.466968 78.038745 
z
" style="fill: none"/>
   </g>
   <g id="matplotlib.axis_1">
    <g id="xtick_1">
     <g id="line2d_1">
      <defs>
       <path id="m852663f6ae" d="M 0 0 
L 0 3.5 
" style="stroke: #4d4f53; stroke-width: 0.8"/>
      </defs>
      <g>
       <use xlink:href="#m852663f6ae" x="32.666968" y="78.038745" style="fill: #4d4f53; stroke: #4d4f53; stroke-width: 0.8"/>
      </g>
     </g>
     <g id="text_1">
      <!-- $\mathdefault{0}$ -->
      <g style="fill: #4d4f53" transform="translate(30.462581 90.755634) scale(0.0833 -0.0833)">
       <defs>
        <path id="LMRoman17-Regular-30" d="M 2688 2025 
C 2688 2416 2682 3080 2413 3591 
C 2176 4039 1798 4198 1466 4198 
C 1158 4198 768 4058 525 3597 
C 269 3118 243 2524 243 2025 
C 243 1661 250 1106 448 619 
C 723 -39 1216 -128 1466 -128 
C 1760 -128 2208 -7 2470 600 
C 2662 1042 2688 1559 2688 2025 
z
M 2278 2096 
C 2278 1680 2278 1169 2202 792 
C 2067 95 1690 -26 1466 -26 
C 1056 -26 813 325 723 812 
C 653 1188 653 1738 653 2096 
C 653 2588 653 2997 736 3387 
C 858 3929 1216 4096 1466 4096 
C 1728 4096 2067 3923 2189 3400 
C 2272 3036 2278 2607 2278 2096 
z
" transform="scale(0.015625)"/>
       </defs>
       <use xlink:href="#LMRoman17-Regular-30" transform="scale(0.996264)"/>
      </g>
     </g>
    </g>
    <g id="xtick_2">
     <g id="line2d_2">
      <g>
       <use xlink:href="#m852663f6ae" x="70.864155" y="78.038745" style="fill: #4d4f53; stroke: #4d4f53; stroke-width: 0.8"/>
      </g>
     </g>
     <g id="text_2">
      <!-- $\mathdefault{5}$ -->
      <g style="fill: #4d4f53" transform="translate(68.659767 90.755634) scale(0.0833 -0.0833)">
       <defs>
        <path id="LMRoman17-Regular-35" d="M 2669 1264 
C 2669 2030 2170 2624 1549 2624 
C 1222 2624 947 2503 730 2274 
L 730 3692 
C 794 3666 1056 3584 1325 3584 
C 1920 3584 2246 3911 2432 4100 
C 2432 4157 2432 4192 2394 4192 
C 2394 4192 2374 4192 2323 4163 
C 2099 4058 1837 3973 1517 3973 
C 1325 3973 1037 3999 723 4139 
C 653 4171 634 4171 634 4171 
C 602 4171 595 4164 595 4037 
L 595 2203 
C 595 2089 595 2057 659 2057 
C 691 2057 704 2070 736 2114 
C 941 2401 1222 2522 1542 2522 
C 1766 2522 2246 2382 2246 1289 
C 2246 1085 2246 715 2054 421 
C 1894 159 1645 25 1370 25 
C 947 25 518 320 403 814 
C 429 807 480 795 506 795 
C 589 795 749 840 749 1038 
C 749 1210 627 1280 506 1280 
C 358 1280 262 1190 262 1011 
C 262 454 704 -128 1382 -128 
C 2042 -128 2669 440 2669 1264 
z
" transform="scale(0.015625)"/>
       </defs>
       <use xlink:href="#LMRoman17-Regular-35" transform="scale(0.996264)"/>
      </g>
     </g>
    </g>
    <g id="xtick_3">
     <g id="line2d_3">
      <g>
       <use xlink:href="#m852663f6ae" x="109.061341" y="78.038745" style="fill: #4d4f53; stroke: #4d4f53; stroke-width: 0.8"/>
      </g>
     </g>
     <g id="text_3">
      <!-- $\mathdefault{10}$ -->
      <g style="fill: #4d4f53" transform="translate(104.652566 90.755634) scale(0.0833 -0.0833)">
       <defs>
        <path id="LMRoman17-Regular-31" d="M 2458 0 
L 2458 160 
L 2266 160 
C 1715 160 1702 230 1702 458 
L 1702 4058 
C 1702 4192 1696 4192 1606 4192 
C 1357 3916 979 3827 621 3827 
C 602 3827 570 3827 563 3808 
C 557 3795 557 3782 557 3648 
C 755 3648 1088 3686 1344 3839 
L 1344 461 
C 1344 236 1331 160 781 160 
L 589 160 
L 589 0 
L 1523 0 
L 2458 0 
z
" transform="scale(0.015625)"/>
       </defs>
       <use xlink:href="#LMRoman17-Regular-31" transform="scale(0.996264)"/>
       <use xlink:href="#LMRoman17-Regular-30" transform="translate(45.690948 0) scale(0.996264)"/>
      </g>
     </g>
    </g>
   </g>
   <g id="matplotlib.axis_2">
    <g id="ytick_1">
     <g id="line2d_4">
      <defs>
       <path id="m20ba753050" d="M 0 0 
L -3.5 0 
" style="stroke: #4d4f53; stroke-width: 0.8"/>
      </defs>
      <g>
       <use xlink:href="#m20ba753050" x="25.466968" y="73.608583" style="fill: #4d4f53; stroke: #4d4f53; stroke-width: 0.8"/>
      </g>
     </g>
     <g id="text_4">
      <!-- $\mathdefault{−1}$ -->
      <g style="fill: #4d4f53" transform="translate(7.2 76.467027) scale(0.0833 -0.0833)">
       <defs>
        <path id="LMMathSymbols10-Regular-0" d="M 4442 1600 
C 4442 1728 4320 1728 4230 1728 
L 742 1728 
C 653 1728 531 1728 531 1600 
C 531 1472 653 1472 742 1472 
L 4230 1472 
C 4320 1472 4442 1472 4442 1600 
z
" transform="scale(0.015625)"/>
       </defs>
       <use xlink:href="#LMMathSymbols10-Regular-0" transform="scale(0.996264)"/>
       <use xlink:href="#LMRoman17-Regular-31" transform="translate(77.487468 0) scale(0.996264)"/>
      </g>
     </g>
    </g>
    <g id="ytick_2">
     <g id="line2d_5">
      <g>
       <use xlink:href="#m20ba753050" x="25.466968" y="52.40549" style="fill: #4d4f53; stroke: #4d4f53; stroke-width: 0.8"/>
      </g>
     </g>
     <g id="text_5">
      <!-- $\mathdefault{0}$ -->
      <g style="fill: #4d4f53" transform="translate(14.058193 55.263935) scale(0.0833 -0.0833)">
       <use xlink:href="#LMRoman17-Regular-30" transform="scale(0.996264)"/>
      </g>
     </g>
    </g>
    <g id="ytick_3">
     <g id="line2d_6">
      <g>
       <use xlink:href="#m20ba753050" x="25.466968" y="31.202397" style="fill: #4d4f53; stroke: #4d4f53; stroke-width: 0.8"/>
      </g>
     </g>
     <g id="text_6">
      <!-- $\mathdefault{1}$ -->
      <g style="fill: #4d4f53" transform="translate(14.058193 34.060842) scale(0.0833 -0.0833)">
       <use xlink:href="#LMRoman17-Regular-31" transform="scale(0.996264)"/>
      </g>
     </g>
    </g>
   </g>
   <g id="line2d_7">
    <path d="M 32.666968 36.520632 
L 33.244123 34.714214 
L 33.388411 35.011605 
L 33.5327 33.257047 
L 33.676988 33.538593 
L 33.821277 34.619883 
L 34.109854 33.09436 
L 34.254143 33.952736 
L 34.398431 31.929878 
L 34.54272 32.8795 
L 34.831297 31.763391 
L 34.975585 32.50524 
L 35.119874 32.219842 
L 35.408451 31.172796 
L 35.55274 32.238096 
L 35.697028 31.88407 
L 35.841317 30.93987 
L 35.985606 31.17455 
L 36.129894 31.735552 
L 36.274183 31.125637 
L 36.418471 31.474 
L 36.707048 29.942916 
L 36.851337 31.231791 
L 36.995626 29.518876 
L 37.139914 30.578397 
L 37.284203 30.350855 
L 37.428491 30.283734 
L 37.57278 31.286697 
L 37.861357 29.144823 
L 38.149934 30.943372 
L 38.438511 29.733215 
L 38.5828 31.203837 
L 38.727088 30.441603 
L 38.871377 31.122115 
L 39.015666 29.602495 
L 39.159954 30.571648 
L 39.304243 29.868359 
L 39.448531 30.368537 
L 39.59282 29.406961 
L 39.737109 29.764366 
L 40.025686 30.496479 
L 40.169974 29.668036 
L 40.458551 31.95311 
L 40.60284 31.906132 
L 40.747129 30.222586 
L 40.891417 30.275272 
L 41.179994 31.889418 
L 41.324283 31.226743 
L 41.468571 32.890445 
L 41.61286 31.463291 
L 41.757149 31.819019 
L 41.901437 33.013606 
L 42.190014 31.855423 
L 42.334303 33.638478 
L 42.478591 32.253014 
L 42.62288 33.703988 
L 42.767169 33.121309 
L 42.911457 34.264101 
L 43.055746 33.953636 
L 43.200034 34.910943 
L 43.344323 34.534599 
L 43.6329 35.183467 
L 43.777189 34.601265 
L 43.921477 35.497133 
L 44.065766 35.276852 
L 44.210054 35.40451 
L 44.354343 36.620208 
L 44.498632 35.721749 
L 45.075786 37.850601 
L 45.220074 37.235486 
L 45.65294 39.607047 
L 45.797229 38.432204 
L 46.230094 40.948839 
L 46.374383 40.883126 
L 46.807249 42.585064 
L 46.951537 41.76059 
L 47.095826 43.513904 
L 47.240115 43.442416 
L 47.528692 42.69759 
L 47.817269 44.565618 
L 47.961557 43.998428 
L 48.105846 44.085635 
L 48.394423 46.133483 
L 48.538712 45.866743 
L 48.827289 48.062308 
L 48.971577 47.782693 
L 49.115866 47.889511 
L 49.260155 49.210688 
L 49.404443 47.76954 
L 50.270175 51.839074 
L 50.414463 52.000699 
L 50.558752 51.459654 
L 50.70304 52.285986 
L 50.847329 51.720554 
L 51.280195 54.506314 
L 51.568772 54.778454 
L 51.71306 55.928285 
L 51.857349 55.136219 
L 52.001638 56.753145 
L 52.145926 55.733209 
L 52.290215 56.256922 
L 52.434503 58.024879 
L 52.578792 56.81042 
L 52.72308 58.093471 
L 52.867369 57.546254 
L 53.300235 59.954127 
L 53.444523 58.894629 
L 53.588812 60.481619 
L 53.7331 59.841212 
L 53.877389 60.586298 
L 54.021678 60.229957 
L 54.454543 63.018604 
L 54.598832 61.506364 
L 54.887409 63.893713 
L 55.031698 63.1056 
L 55.320275 64.018201 
L 55.464563 63.581598 
L 55.608852 63.909944 
L 55.753141 65.566089 
L 55.897429 64.900541 
L 56.330295 67.180112 
L 56.474583 67.151172 
L 56.618872 66.505741 
L 56.763161 67.527816 
L 56.907449 67.46159 
L 57.051738 67.926428 
L 57.196026 67.854576 
L 57.340315 67.773562 
L 57.484604 67.391832 
L 57.628892 69.57106 
L 57.773181 68.691732 
L 57.917469 68.736573 
L 58.061758 69.976937 
L 58.206046 68.983814 
L 58.350335 69.92629 
L 58.494624 69.842445 
L 58.638912 69.892666 
L 58.783201 69.511403 
L 59.071778 70.319183 
L 59.360355 71.878055 
L 59.648932 70.609323 
L 59.793221 70.915378 
L 59.937509 72.118598 
L 60.081798 72.081499 
L 60.226086 72.316249 
L 60.514664 71.591355 
L 60.803241 72.564854 
L 61.091818 71.501862 
L 61.236107 72.211271 
L 61.380395 71.892572 
L 61.524684 72.557883 
L 61.813261 71.802764 
L 61.957549 73.541348 
L 62.101838 72.040421 
L 62.246127 72.084629 
L 62.534704 71.937425 
L 62.678992 71.605033 
L 62.967569 73.148 
L 63.256147 71.36884 
L 63.544724 71.527704 
L 63.833301 73.208595 
L 64.121878 71.503451 
L 64.266167 71.462534 
L 64.410455 72.529817 
L 64.554744 72.502611 
L 64.699032 72.29769 
L 64.843321 70.769019 
L 65.131898 71.866332 
L 65.276187 70.762494 
L 65.420475 71.868751 
L 65.564764 71.591287 
L 65.709052 71.388321 
L 65.99763 69.964469 
L 66.141918 69.870562 
L 66.430495 69.115993 
L 66.719072 70.090658 
L 66.863361 68.996197 
L 67.00765 69.168243 
L 67.151938 69.033994 
L 67.584804 66.948644 
L 67.729092 67.654766 
L 68.450535 65.167742 
L 68.594824 66.520749 
L 68.883401 64.847028 
L 69.02769 65.78824 
L 69.316267 63.886534 
L 70.470575 61.016251 
L 70.614864 61.963988 
L 70.759153 60.674984 
L 70.903441 61.340933 
L 71.04773 59.617611 
L 71.192018 60.927471 
L 71.336307 60.5547 
L 71.480595 60.215535 
L 71.769173 58.380027 
L 71.913461 59.070281 
L 72.05775 58.691672 
L 72.346327 56.391659 
L 72.490616 57.101085 
L 72.779193 55.021599 
L 72.923481 54.658294 
L 73.06777 54.848242 
L 73.500636 53.269917 
L 73.644924 53.574931 
L 74.07779 51.511358 
L 74.222078 52.098575 
L 74.366367 51.328358 
L 74.510656 51.6317 
L 75.08781 49.071652 
L 75.232098 49.937244 
L 75.376387 49.411489 
L 75.809253 46.40123 
L 75.953541 47.804752 
L 76.530696 44.436478 
L 76.674984 45.712276 
L 76.963561 43.998436 
L 77.10785 44.40257 
L 77.252139 44.516803 
L 77.685004 41.838278 
L 77.829293 42.343516 
L 77.973581 42.099145 
L 78.262159 40.759775 
L 78.406447 41.075906 
L 78.550736 39.806553 
L 78.695024 40.197272 
L 78.839313 39.094021 
L 78.983601 40.290221 
L 79.12789 38.127099 
L 79.272179 38.362455 
L 79.416467 38.454432 
L 79.560756 39.053251 
L 79.993622 36.218669 
L 80.282199 36.412143 
L 80.426487 36.440021 
L 80.570776 35.267528 
L 80.715064 35.534162 
L 80.859353 34.920201 
L 81.14793 35.738319 
L 81.292219 33.631949 
L 81.436507 35.417126 
L 81.580796 34.778268 
L 81.725084 34.13514 
L 81.869373 34.282333 
L 82.013662 34.007019 
L 82.446527 32.662722 
L 82.590816 32.140875 
L 82.735105 33.111761 
L 82.879393 31.493117 
L 83.023682 31.813899 
L 83.16797 32.951341 
L 83.312259 31.621766 
L 83.456547 31.934221 
L 83.600836 31.858416 
L 83.745125 32.028136 
L 84.033702 30.121056 
L 84.17799 31.486709 
L 84.322279 30.575874 
L 84.466567 30.935811 
L 84.610856 30.848989 
L 84.755145 31.455024 
L 84.899433 31.065227 
L 85.043722 29.684377 
L 85.18801 31.213587 
L 85.332299 30.729666 
L 85.476587 29.834183 
L 85.765165 30.697221 
L 85.909453 29.2346 
L 86.053742 29.292037 
L 86.19803 29.914348 
L 86.486608 29.112629 
L 86.630896 29.352443 
L 86.775185 30.16771 
L 86.919473 29.534606 
L 87.063762 29.600113 
L 87.20805 30.950781 
L 87.352339 30.08658 
L 87.496628 31.221617 
L 87.640916 31.006126 
L 87.785205 31.25719 
L 88.073782 30.76099 
L 88.21807 31.185817 
L 88.506648 30.171443 
L 88.795225 32.132519 
L 88.939513 30.457466 
L 89.083802 31.796912 
L 89.372379 30.833185 
L 89.516668 31.250065 
L 89.660956 32.996792 
L 89.805245 32.445951 
L 89.949533 32.932781 
L 90.093822 32.295335 
L 90.238111 32.63705 
L 90.382399 32.086156 
L 90.526688 33.417194 
L 90.670976 32.686434 
L 91.103842 34.528753 
L 91.248131 33.871081 
L 91.392419 34.396357 
L 91.536708 33.795562 
L 91.825285 35.867058 
L 91.969573 35.161242 
L 92.113862 35.500148 
L 92.258151 35.228158 
L 92.402439 35.505066 
L 92.546728 37.209892 
L 92.691016 36.898996 
L 93.268171 39.074328 
L 93.412459 37.50295 
L 93.556748 37.986136 
L 94.133902 39.780376 
L 94.278191 41.094128 
L 94.422479 39.946633 
L 94.566768 42.178268 
L 94.711056 41.273069 
L 94.855345 42.886126 
L 94.999634 41.266776 
L 95.143922 41.837602 
L 95.721076 44.85339 
L 95.865365 43.797367 
L 96.153942 46.038162 
L 96.298231 45.973188 
L 96.442519 44.994679 
L 96.875385 47.730582 
L 97.019674 46.997237 
L 97.163962 48.739109 
L 97.308251 48.515437 
L 97.452539 48.001552 
L 97.596828 50.210609 
L 97.885405 48.962426 
L 98.029694 50.94391 
L 98.173982 50.26783 
L 98.462559 50.791878 
L 98.895425 53.666952 
L 99.039714 53.053175 
L 99.472579 54.274428 
L 99.761157 55.854816 
L 100.049734 54.893886 
L 100.626888 57.9407 
L 100.771177 56.972027 
L 101.204042 59.859385 
L 101.348331 59.371614 
L 101.49262 60.624902 
L 101.636908 59.725851 
L 101.781197 61.248754 
L 101.925485 60.903783 
L 102.069774 61.732014 
L 102.214062 60.490421 
L 102.646928 63.615313 
L 102.791217 62.687675 
L 103.224082 64.116608 
L 103.368371 63.405909 
L 103.51266 65.218127 
L 103.656948 64.447169 
L 103.801237 64.575208 
L 104.234102 65.627464 
L 104.52268 67.498354 
L 104.666968 66.023617 
L 104.666968 66.023617 
" clip-path="url(#p8bd27631bd)" style="fill: none; stroke: #3362b0; stroke-width: 1.5; stroke-linecap: square"/>
   </g>
   <g id="line2d_8">
    <path d="M 32.666968 30.82357 
L 32.811257 29.594975 
L 32.955545 29.709271 
L 33.099834 30.997394 
L 33.244123 29.72485 
L 33.388411 30.960322 
L 33.5327 30.927981 
L 33.821277 30.858531 
L 33.965565 31.529647 
L 34.109854 31.149849 
L 34.254143 31.721838 
L 34.398431 31.576937 
L 34.54272 30.66067 
L 34.831297 32.533979 
L 34.975585 31.456434 
L 35.119874 32.549734 
L 35.408451 31.395443 
L 35.697028 33.519861 
L 35.841317 33.161837 
L 35.985606 33.415727 
L 36.274183 34.554843 
L 36.418471 33.482789 
L 36.56276 34.006833 
L 36.707048 33.431571 
L 37.139914 35.013131 
L 37.284203 35.188414 
L 37.428491 36.597571 
L 37.57278 36.410079 
L 37.717068 35.934333 
L 37.861357 37.358732 
L 38.005646 36.836448 
L 38.149934 36.517472 
L 38.294223 38.328554 
L 38.438511 36.828571 
L 39.304243 40.064884 
L 39.448531 39.51416 
L 39.59282 41.225295 
L 39.737109 39.643956 
L 40.025686 42.264456 
L 40.169974 42.367656 
L 40.314263 41.175169 
L 40.60284 43.183911 
L 40.747129 43.188685 
L 40.891417 44.358859 
L 41.035706 43.194246 
L 41.179994 44.587889 
L 41.324283 43.936626 
L 41.61286 46.236697 
L 41.757149 45.027388 
L 42.190014 47.427357 
L 42.334303 46.323714 
L 42.478591 47.703138 
L 42.62288 47.173353 
L 43.055746 49.214007 
L 43.200034 48.632436 
L 43.344323 50.982439 
L 43.488612 49.663341 
L 43.6329 51.808725 
L 43.777189 51.46888 
L 43.921477 51.498369 
L 44.787209 54.464972 
L 44.931497 53.611079 
L 45.075786 54.243213 
L 45.364363 56.488782 
L 45.508652 55.975775 
L 45.941517 57.884195 
L 46.230094 57.712825 
L 46.374383 57.318321 
L 46.951537 60.108665 
L 47.095826 59.331952 
L 47.384403 61.828809 
L 47.528692 61.257253 
L 47.817269 62.846241 
L 47.961557 61.32397 
L 48.105846 62.734716 
L 48.250135 62.048532 
L 48.827289 65.18099 
L 48.971577 64.148744 
L 49.115866 65.333337 
L 49.260155 64.635637 
L 49.404443 65.927245 
L 49.548732 65.826625 
L 49.69302 65.82653 
L 49.837309 67.085533 
L 49.981597 66.397574 
L 50.125886 67.764945 
L 50.270175 67.518555 
L 50.414463 67.682415 
L 50.558752 68.286268 
L 50.70304 66.956982 
L 50.847329 69.156764 
L 50.991618 67.641122 
L 51.135906 68.413761 
L 51.280195 67.949921 
L 51.424483 68.972691 
L 51.568772 68.914514 
L 51.71306 68.814378 
L 51.857349 69.129687 
L 52.001638 70.610093 
L 52.145926 70.11303 
L 52.290215 70.685472 
L 52.434503 69.578379 
L 52.72308 70.799063 
L 52.867369 70.647811 
L 53.011658 71.931632 
L 53.155946 70.539519 
L 53.444523 72.419203 
L 53.7331 71.500637 
L 54.021678 72.873625 
L 54.165966 71.068634 
L 54.310255 71.769778 
L 54.454543 72.953287 
L 54.598832 71.971061 
L 54.743121 73.156791 
L 54.887409 73.104771 
L 55.031698 73.248041 
L 55.320275 71.501637 
L 55.608852 73.329857 
L 55.753141 73.25409 
L 56.041718 72.140576 
L 56.186006 72.273269 
L 56.330295 73.503622 
L 56.474583 72.281703 
L 56.618872 73.396037 
L 56.763161 72.093687 
L 56.907449 72.66457 
L 57.051738 71.29148 
L 57.196026 71.403077 
L 57.340315 71.58446 
L 57.484604 71.344117 
L 57.917469 72.580854 
L 58.061758 71.639779 
L 58.206046 72.190934 
L 58.350335 70.785882 
L 58.494624 72.000302 
L 58.638912 71.913126 
L 58.927489 69.878239 
L 59.216066 71.221865 
L 59.360355 70.199378 
L 59.504644 70.856737 
L 59.648932 70.341344 
L 59.793221 68.814799 
L 59.937509 70.44568 
L 60.081798 70.278175 
L 60.226086 69.931916 
L 60.658952 67.55792 
L 60.803241 68.4901 
L 60.947529 68.168311 
L 61.091818 68.090123 
L 61.380395 66.366653 
L 61.524684 67.632172 
L 61.813261 65.775883 
L 61.957549 65.544167 
L 62.101838 66.475075 
L 62.390415 64.966072 
L 62.534704 65.805596 
L 62.823281 63.696522 
L 62.967569 64.87568 
L 63.256147 63.030498 
L 63.400435 63.532005 
L 63.544724 63.486566 
L 63.833301 61.291863 
L 63.977589 61.386158 
L 64.121878 61.742499 
L 64.410455 61.234653 
L 64.554744 60.112444 
L 64.699032 60.565542 
L 65.131898 59.50422 
L 65.276187 57.912894 
L 65.420475 58.068431 
L 65.853341 56.268138 
L 65.99763 56.339509 
L 66.286207 54.579203 
L 66.430495 55.733725 
L 66.574784 55.346867 
L 67.151938 52.499353 
L 67.440515 53.334836 
L 67.729092 50.748706 
L 68.594824 48.200012 
L 68.739113 48.889991 
L 68.883401 47.659488 
L 69.02769 48.507955 
L 69.316267 46.29696 
L 69.460555 47.11612 
L 69.604844 46.818926 
L 69.893421 45.065513 
L 70.03771 45.323891 
L 70.326287 44.121958 
L 70.470575 45.155204 
L 70.903441 42.269086 
L 71.04773 43.222383 
L 71.336307 40.854572 
L 71.624884 41.861419 
L 71.913461 39.461683 
L 72.202038 40.509722 
L 72.490616 38.495319 
L 72.634904 39.888879 
L 72.923481 37.596079 
L 73.06777 37.970684 
L 73.356347 36.514886 
L 73.500636 36.71525 
L 73.789213 36.114906 
L 73.933501 37.096087 
L 74.222078 35.140345 
L 74.366367 36.154381 
L 74.510656 34.417273 
L 74.799233 35.575092 
L 75.08781 34.008646 
L 75.232098 33.881375 
L 75.520676 34.181115 
L 75.664964 33.319657 
L 75.953541 33.834764 
L 76.09783 31.718769 
L 76.242119 32.595431 
L 76.386407 31.375222 
L 76.674984 32.200337 
L 76.963561 30.799096 
L 77.10785 32.139211 
L 77.252139 31.857868 
L 77.396427 31.247993 
L 77.540716 31.65999 
L 77.685004 30.965702 
L 77.829293 31.03914 
L 77.973581 31.102136 
L 78.11787 30.902152 
L 78.262159 29.527149 
L 78.550736 31.395908 
L 78.695024 29.311862 
L 78.839313 29.651091 
L 78.983601 30.640442 
L 79.12789 30.3902 
L 79.272179 29.689703 
L 79.416467 30.499903 
L 79.560756 30.315197 
L 79.705044 30.461989 
L 79.993622 30.082955 
L 80.13791 29.212069 
L 80.282199 30.64175 
L 80.426487 29.681614 
L 80.715064 31.071729 
L 81.003642 29.693904 
L 81.14793 30.851774 
L 81.292219 29.760853 
L 81.436507 31.254231 
L 81.580796 31.060856 
L 81.869373 30.389326 
L 82.013662 30.651239 
L 82.15795 31.654849 
L 82.302239 30.776819 
L 82.735105 32.525719 
L 83.023682 31.202691 
L 83.16797 31.532427 
L 83.456547 33.007224 
L 83.745125 31.869953 
L 84.17799 34.507314 
L 84.322279 33.79296 
L 84.610856 34.944065 
L 84.755145 33.722247 
L 84.899433 33.868545 
L 85.043722 34.524719 
L 85.18801 36.213553 
L 85.332299 35.815912 
L 85.476587 34.827286 
L 85.620876 34.950395 
L 86.053742 36.708469 
L 86.342319 37.639286 
L 86.486608 37.443563 
L 86.630896 38.994322 
L 86.919473 38.086054 
L 87.063762 39.737788 
L 87.20805 39.661862 
L 87.496628 40.912884 
L 87.640916 40.902123 
L 87.785205 41.682768 
L 87.929493 40.354189 
L 88.21807 41.391122 
L 88.362359 41.10351 
L 88.506648 42.516569 
L 88.650936 42.487507 
L 88.795225 42.624919 
L 88.939513 44.347087 
L 89.083802 43.537783 
L 89.22809 43.813903 
L 89.372379 44.605069 
L 89.516668 44.209087 
L 89.660956 45.49889 
L 89.805245 45.098049 
L 90.526688 47.062807 
L 90.815265 48.708999 
L 90.959553 48.452783 
L 91.392419 50.792572 
L 91.536708 50.763861 
L 92.258151 53.610682 
L 92.402439 52.212818 
L 92.546728 53.912851 
L 92.691016 53.893338 
L 92.979593 55.39903 
L 93.123882 53.979093 
L 93.556748 56.586065 
L 94.133902 58.445794 
L 94.278191 57.075887 
L 95.288211 61.616908 
L 95.576788 60.719316 
L 96.009654 62.00917 
L 96.153942 62.115868 
L 96.731096 64.421825 
L 96.875385 65.210755 
L 97.163962 64.533705 
L 97.308251 64.58923 
L 97.596828 66.92639 
L 97.741117 66.350076 
L 98.173982 67.894218 
L 98.318271 66.823257 
L 98.462559 68.373359 
L 98.606848 67.770902 
L 98.751137 67.068317 
L 98.895425 67.543574 
L 99.184002 69.694269 
L 99.328291 68.835935 
L 99.761157 69.876662 
L 99.905445 68.96005 
L 100.049734 70.683123 
L 100.194022 69.426801 
L 100.338311 69.458996 
L 100.482599 69.707358 
L 100.771177 71.197848 
L 100.915465 70.136601 
L 101.059754 70.296456 
L 101.348331 72.177766 
L 101.49262 71.199419 
L 101.636908 71.833126 
L 101.781197 71.734094 
L 101.925485 71.576353 
L 102.069774 71.049234 
L 102.358351 72.323883 
L 102.50264 72.762051 
L 102.791217 72.220023 
L 102.935505 72.379584 
L 103.079794 73.230661 
L 103.224082 71.680448 
L 103.51266 73.5889 
L 103.656948 72.757292 
L 103.945525 73.517534 
L 104.378391 71.849816 
L 104.666968 73.059078 
L 104.666968 73.059078 
" clip-path="url(#p8bd27631bd)" style="fill: none; stroke: #cc3164; stroke-width: 1.5; stroke-linecap: square"/>
   </g>
   <g id="patch_3">
    <path d="M 25.466968 73.5889 
L 25.466968 29.090453 
" style="fill: none; stroke: #4d4f53; stroke-width: 0.8; stroke-linejoin: miter; stroke-linecap: square"/>
   </g>
   <g id="patch_4">
    <path d="M 32.666968 78.038745 
L 104.666968 78.038745 
" style="fill: none; stroke: #4d4f53; stroke-width: 0.8; stroke-linejoin: miter; stroke-linecap: square"/>
   </g>
   <g id="legend_1">
    <g id="patch_5">
     <path d="M 27.132968 22.974608 
L 110.200968 22.974608 
L 110.200968 7.2 
L 27.132968 7.2 
z
" style="fill: #ffffff"/>
    </g>
    <g id="text_7">
     <!-- title -->
     <g style="fill: #4d4f53" transform="translate(31.297968 17.196) scale(0.0833 -0.0833)">
      <defs>
       <path id="LMRoman17-Regular-74" d="M 1965 777 
L 1965 1140 
L 1850 1140 
L 1850 783 
C 1850 344 1677 51 1408 51 
C 1222 51 966 178 966 758 
L 966 2560 
L 1862 2560 
L 1862 2725 
L 966 2725 
L 966 3904 
L 851 3904 
C 838 3245 614 2668 70 2668 
L 70 2560 
L 627 2560 
L 627 771 
C 627 650 627 -64 1370 -64 
C 1747 -64 1965 306 1965 777 
z
" transform="scale(0.015625)"/>
       <path id="LMRoman17-Regular-69" d="M 1370 -13 
L 1370 153 
C 992 153 979 191 979 420 
L 979 2778 
L 243 2708 
L 243 2542 
C 602 2542 653 2503 653 2198 
L 653 427 
C 653 184 627 153 218 153 
L 218 -13 
C 371 0 646 0 806 0 
C 960 0 1222 0 1370 -13 
z
M 1056 3835 
C 1056 3988 934 4096 800 4096 
C 646 4096 538 3975 538 3835 
C 538 3682 659 3574 794 3574 
C 947 3574 1056 3695 1056 3835 
z
" transform="scale(0.015625)"/>
       <path id="LMRoman17-Regular-6c" d="M 1414 -13 
L 1414 153 
C 1005 153 979 178 979 426 
L 979 4396 
L 218 4326 
L 218 4160 
C 595 4160 653 4122 653 3817 
L 653 426 
C 653 184 627 153 218 153 
L 218 -13 
C 371 0 653 0 813 0 
C 979 0 1261 0 1414 -13 
z
" transform="scale(0.015625)"/>
       <path id="LMRoman17-Regular-65" d="M 2464 1576 
C 2464 2238 2118 2816 1389 2816 
C 710 2816 173 2169 173 1383 
C 173 551 781 -64 1459 -64 
C 2176 -64 2458 606 2458 739 
C 2458 784 2406 784 2406 784 
C 2362 784 2355 771 2330 695 
C 2189 265 1837 51 1504 51 
C 1229 51 954 203 781 480 
C 582 803 582 1176 582 1472 
L 2438 1472 
C 2464 1498 2464 1511 2464 1576 
z
M 2118 1568 
L 589 1568 
C 634 2505 1126 2714 1382 2714 
C 1818 2714 2112 2297 2118 1568 
z
" transform="scale(0.015625)"/>
      </defs>
      <use xlink:href="#LMRoman17-Regular-74" transform="scale(0.996264)"/>
      <use xlink:href="#LMRoman17-Regular-69" transform="translate(35.281528 0) scale(0.996264)"/>
      <use xlink:href="#LMRoman17-Regular-74" transform="translate(60.153544 0) scale(0.996264)"/>
      <use xlink:href="#LMRoman17-Regular-6c" transform="translate(95.435072 0) scale(0.996264)"/>
      <use xlink:href="#LMRoman17-Regular-65" transform="translate(120.307088 0) scale(0.996264)"/>
     </g>
    </g>
    <g id="line2d_9">
     <path d="M 52.164492 14.2805 
L 57.995492 14.2805 
L 63.826492 14.2805 
" style="fill: none; stroke: #3362b0; stroke-width: 1.5; stroke-linecap: square"/>
    </g>
    <g id="text_8">
     <!-- $x_1$ -->
     <g style="fill: #4d4f53" transform="translate(67.991492 17.196) scale(0.0833 -0.0833)">
      <defs>
       <path id="LMMathItalic12-Regular-78" d="M 3072 913 
C 3072 945 3046 971 3008 971 
C 2950 971 2944 939 2925 888 
C 2752 326 2381 64 2093 64 
C 1869 64 1747 230 1747 492 
C 1747 632 1773 734 1875 1156 
L 2099 2024 
C 2195 2408 2413 2689 2707 2689 
C 2707 2689 2899 2689 3034 2606 
C 2829 2567 2752 2414 2752 2293 
C 2752 2139 2874 2088 2963 2088 
C 3155 2088 3290 2254 3290 2427 
C 3290 2695 2982 2816 2714 2816 
C 2323 2816 2106 2433 2048 2312 
C 1901 2816 1504 2816 1389 2816 
C 736 2816 390 1980 390 1839 
C 390 1814 416 1782 461 1782 
C 512 1782 525 1820 538 1846 
C 755 2555 1184 2689 1370 2689 
C 1658 2689 1715 2420 1715 2267 
C 1715 2127 1677 1980 1600 1673 
L 1382 798 
C 1286 415 1101 64 762 64 
C 730 64 570 64 435 147 
C 666 192 717 383 717 460 
C 717 588 621 664 499 664 
C 346 664 179 530 179 326 
C 179 57 480 -64 755 -64 
C 1062 -64 1280 179 1414 441 
C 1517 64 1837 -64 2074 -64 
C 2726 -64 3072 773 3072 913 
z
" transform="scale(0.015625)"/>
      </defs>
      <use xlink:href="#LMMathItalic12-Regular-78" transform="scale(0.996264)"/>
      <use xlink:href="#LMRoman17-Regular-31" transform="translate(55.43406 -14.943915) scale(0.697382)"/>
     </g>
    </g>
    <g id="line2d_10">
     <path d="M 81.695392 14.2805 
L 87.526392 14.2805 
L 93.357392 14.2805 
" style="fill: none; stroke: #cc3164; stroke-width: 1.5; stroke-linecap: square"/>
    </g>
    <g id="text_9">
     <!-- $x_2$ -->
     <g style="fill: #4d4f53" transform="translate(97.522392 17.196) scale(0.0833 -0.0833)">
      <defs>
       <path id="LMRoman17-Regular-32" d="M 2669 989 
L 2554 989 
C 2490 536 2438 459 2413 420 
C 2381 369 1920 369 1830 369 
L 602 369 
L 1824 1597 
C 2214 1967 2669 2402 2669 3035 
C 2669 3790 2067 4224 1395 4224 
C 691 4224 262 3604 262 3030 
C 262 2780 448 2748 525 2748 
C 589 2748 781 2787 781 3010 
C 781 3207 614 3264 525 3264 
C 486 3264 448 3258 422 3245 
C 544 3790 915 4058 1306 4058 
C 1862 4058 2227 3617 2227 3035 
C 2227 2479 1901 2000 1536 1584 
L 262 146 
L 262 0 
L 2515 0 
L 2669 989 
z
" transform="scale(0.015625)"/>
      </defs>
      <use xlink:href="#LMMathItalic12-Regular-78" transform="scale(0.996264)"/>
      <use xlink:href="#LMRoman17-Regular-32" transform="translate(55.43406 -14.943915) scale(0.697382)"/>
     </g>
    </g>
   </g>
  </g>
  <g id="axes_2">
   <g id="patch_6">
    <path d="M 133.466968 78.038745 
L 219.866968 78.038745 
L 219.866968 24.640608 
L 133.466968 24.640608 
L 133.466968 78.038745 
z
" style="fill: none"/>
   </g>
   <g id="matplotlib.axis_3">
    <g id="xtick_4">
     <g id="line2d_11">
      <g>
       <use xlink:href="#m852663f6ae" x="140.666968" y="78.038745" style="fill: #4d4f53; stroke: #4d4f53; stroke-width: 0.8"/>
      </g>
     </g>
     <g id="text_10">
      <!-- $\mathdefault{0}$ -->
      <g style="fill: #4d4f53" transform="translate(138.462581 90.755634) scale(0.0833 -0.0833)">
       <use xlink:href="#LMRoman17-Regular-30" transform="scale(0.996264)"/>
      </g>
     </g>
    </g>
    <g id="xtick_5">
     <g id="line2d_12">
      <g>
       <use xlink:href="#m852663f6ae" x="178.864155" y="78.038745" style="fill: #4d4f53; stroke: #4d4f53; stroke-width: 0.8"/>
      </g>
     </g>
     <g id="text_11">
      <!-- $\mathdefault{5}$ -->
      <g style="fill: #4d4f53" transform="translate(176.659767 90.755634) scale(0.0833 -0.0833)">
       <use xlink:href="#LMRoman17-Regular-35" transform="scale(0.996264)"/>
      </g>
     </g>
    </g>
    <g id="xtick_6">
     <g id="line2d_13">
      <g>
       <use xlink:href="#m852663f6ae" x="217.061341" y="78.038745" style="fill: #4d4f53; stroke: #4d4f53; stroke-width: 0.8"/>
      </g>
     </g>
     <g id="text_12">
      <!-- $\mathdefault{10}$ -->
      <g style="fill: #4d4f53" transform="translate(212.652566 90.755634) scale(0.0833 -0.0833)">
       <use xlink:href="#LMRoman17-Regular-31" transform="scale(0.996264)"/>
       <use xlink:href="#LMRoman17-Regular-30" transform="translate(45.690948 0) scale(0.996264)"/>
      </g>
     </g>
    </g>
   </g>
   <g id="matplotlib.axis_4">
    <g id="ytick_4">
     <g id="line2d_14">
      <g>
       <use xlink:href="#m20ba753050" x="133.466968" y="73.608583" style="fill: #4d4f53; stroke: #4d4f53; stroke-width: 0.8"/>
      </g>
     </g>
     <g id="text_13">
      <!-- $\mathdefault{−1}$ -->
      <g style="fill: #4d4f53" transform="translate(115.2 76.467027) scale(0.0833 -0.0833)">
       <use xlink:href="#LMMathSymbols10-Regular-0" transform="scale(0.996264)"/>
       <use xlink:href="#LMRoman17-Regular-31" transform="translate(77.487468 0) scale(0.996264)"/>
      </g>
     </g>
    </g>
    <g id="ytick_5">
     <g id="line2d_15">
      <g>
       <use xlink:href="#m20ba753050" x="133.466968" y="52.40549" style="fill: #4d4f53; stroke: #4d4f53; stroke-width: 0.8"/>
      </g>
     </g>
     <g id="text_14">
      <!-- $\mathdefault{0}$ -->
      <g style="fill: #4d4f53" transform="translate(122.058193 55.263935) scale(0.0833 -0.0833)">
       <use xlink:href="#LMRoman17-Regular-30" transform="scale(0.996264)"/>
      </g>
     </g>
    </g>
    <g id="ytick_6">
     <g id="line2d_16">
      <g>
       <use xlink:href="#m20ba753050" x="133.466968" y="31.202397" style="fill: #4d4f53; stroke: #4d4f53; stroke-width: 0.8"/>
      </g>
     </g>
     <g id="text_15">
      <!-- $\mathdefault{1}$ -->
      <g style="fill: #4d4f53" transform="translate(122.058193 34.060842) scale(0.0833 -0.0833)">
       <use xlink:href="#LMRoman17-Regular-31" transform="scale(0.996264)"/>
      </g>
     </g>
    </g>
   </g>
   <g id="line2d_17">
    <path d="M 140.666968 36.520632 
L 141.244123 34.714214 
L 141.388411 35.011605 
L 141.5327 33.257047 
L 141.676988 33.538593 
L 141.821277 34.619883 
L 142.109854 33.09436 
L 142.254143 33.952736 
L 142.398431 31.929878 
L 142.54272 32.8795 
L 142.831297 31.763391 
L 142.975585 32.50524 
L 143.119874 32.219842 
L 143.408451 31.172796 
L 143.55274 32.238096 
L 143.697028 31.88407 
L 143.841317 30.93987 
L 143.985606 31.17455 
L 144.129894 31.735552 
L 144.274183 31.125637 
L 144.418471 31.474 
L 144.707048 29.942916 
L 144.851337 31.231791 
L 144.995626 29.518876 
L 145.139914 30.578397 
L 145.284203 30.350855 
L 145.428491 30.283734 
L 145.57278 31.286697 
L 145.861357 29.144823 
L 146.149934 30.943372 
L 146.438511 29.733215 
L 146.5828 31.203837 
L 146.727088 30.441603 
L 146.871377 31.122115 
L 147.015666 29.602495 
L 147.159954 30.571648 
L 147.304243 29.868359 
L 147.448531 30.368537 
L 147.59282 29.406961 
L 147.737109 29.764366 
L 148.025686 30.496479 
L 148.169974 29.668036 
L 148.458551 31.95311 
L 148.60284 31.906132 
L 148.747129 30.222586 
L 148.891417 30.275272 
L 149.179994 31.889418 
L 149.324283 31.226743 
L 149.468571 32.890445 
L 149.61286 31.463291 
L 149.757149 31.819019 
L 149.901437 33.013606 
L 150.190014 31.855423 
L 150.334303 33.638478 
L 150.478591 32.253014 
L 150.62288 33.703988 
L 150.767169 33.121309 
L 150.911457 34.264101 
L 151.055746 33.953636 
L 151.200034 34.910943 
L 151.344323 34.534599 
L 151.6329 35.183467 
L 151.777189 34.601265 
L 151.921477 35.497133 
L 152.065766 35.276852 
L 152.210054 35.40451 
L 152.354343 36.620208 
L 152.498632 35.721749 
L 153.075786 37.850601 
L 153.220074 37.235486 
L 153.65294 39.607047 
L 153.797229 38.432204 
L 154.230094 40.948839 
L 154.374383 40.883126 
L 154.807249 42.585064 
L 154.951537 41.76059 
L 155.095826 43.513904 
L 155.240115 43.442416 
L 155.528692 42.69759 
L 155.817269 44.565618 
L 155.961557 43.998428 
L 156.105846 44.085635 
L 156.394423 46.133483 
L 156.538712 45.866743 
L 156.827289 48.062308 
L 156.971577 47.782693 
L 157.115866 47.889511 
L 157.260155 49.210688 
L 157.404443 47.76954 
L 158.270175 51.839074 
L 158.414463 52.000699 
L 158.558752 51.459654 
L 158.70304 52.285986 
L 158.847329 51.720554 
L 159.280195 54.506314 
L 159.568772 54.778454 
L 159.71306 55.928285 
L 159.857349 55.136219 
L 160.001638 56.753145 
L 160.145926 55.733209 
L 160.290215 56.256922 
L 160.434503 58.024879 
L 160.578792 56.81042 
L 160.72308 58.093471 
L 160.867369 57.546254 
L 161.300235 59.954127 
L 161.444523 58.894629 
L 161.588812 60.481619 
L 161.7331 59.841212 
L 161.877389 60.586298 
L 162.021678 60.229957 
L 162.454543 63.018604 
L 162.598832 61.506364 
L 162.887409 63.893713 
L 163.031698 63.1056 
L 163.320275 64.018201 
L 163.464563 63.581598 
L 163.608852 63.909944 
L 163.753141 65.566089 
L 163.897429 64.900541 
L 164.330295 67.180112 
L 164.474583 67.151172 
L 164.618872 66.505741 
L 164.763161 67.527816 
L 164.907449 67.46159 
L 165.051738 67.926428 
L 165.196026 67.854576 
L 165.340315 67.773562 
L 165.484604 67.391832 
L 165.628892 69.57106 
L 165.773181 68.691732 
L 165.917469 68.736573 
L 166.061758 69.976937 
L 166.206046 68.983814 
L 166.350335 69.92629 
L 166.494624 69.842445 
L 166.638912 69.892666 
L 166.783201 69.511403 
L 167.071778 70.319183 
L 167.360355 71.878055 
L 167.648932 70.609323 
L 167.793221 70.915378 
L 167.937509 72.118598 
L 168.081798 72.081499 
L 168.226086 72.316249 
L 168.514664 71.591355 
L 168.803241 72.564854 
L 169.091818 71.501862 
L 169.236107 72.211271 
L 169.380395 71.892572 
L 169.524684 72.557883 
L 169.813261 71.802764 
L 169.957549 73.541348 
L 170.101838 72.040421 
L 170.246127 72.084629 
L 170.534704 71.937425 
L 170.678992 71.605033 
L 170.967569 73.148 
L 171.256147 71.36884 
L 171.544724 71.527704 
L 171.833301 73.208595 
L 172.121878 71.503451 
L 172.266167 71.462534 
L 172.410455 72.529817 
L 172.554744 72.502611 
L 172.699032 72.29769 
L 172.843321 70.769019 
L 173.131898 71.866332 
L 173.276187 70.762494 
L 173.420475 71.868751 
L 173.564764 71.591287 
L 173.709052 71.388321 
L 173.99763 69.964469 
L 174.141918 69.870562 
L 174.430495 69.115993 
L 174.719072 70.090658 
L 174.863361 68.996197 
L 175.00765 69.168243 
L 175.151938 69.033994 
L 175.584804 66.948644 
L 175.729092 67.654766 
L 176.450535 65.167742 
L 176.594824 66.520749 
L 176.883401 64.847028 
L 177.02769 65.78824 
L 177.316267 63.886534 
L 178.470575 61.016251 
L 178.614864 61.963988 
L 178.759153 60.674984 
L 178.903441 61.340933 
L 179.04773 59.617611 
L 179.192018 60.927471 
L 179.336307 60.5547 
L 179.480595 60.215535 
L 179.769173 58.380027 
L 179.913461 59.070281 
L 180.05775 58.691672 
L 180.346327 56.391659 
L 180.490616 57.101085 
L 180.779193 55.021599 
L 180.923481 54.658294 
L 181.06777 54.848242 
L 181.500636 53.269917 
L 181.644924 53.574931 
L 182.07779 51.511358 
L 182.222078 52.098575 
L 182.366367 51.328358 
L 182.510656 51.6317 
L 183.08781 49.071652 
L 183.232098 49.937244 
L 183.376387 49.411489 
L 183.809253 46.40123 
L 183.953541 47.804752 
L 184.530696 44.436478 
L 184.674984 45.712276 
L 184.963561 43.998436 
L 185.10785 44.40257 
L 185.252139 44.516803 
L 185.685004 41.838278 
L 185.829293 42.343516 
L 185.973581 42.099145 
L 186.262159 40.759775 
L 186.406447 41.075906 
L 186.550736 39.806553 
L 186.695024 40.197272 
L 186.839313 39.094021 
L 186.983601 40.290221 
L 187.12789 38.127099 
L 187.272179 38.362455 
L 187.416467 38.454432 
L 187.560756 39.053251 
L 187.993622 36.218669 
L 188.282199 36.412143 
L 188.426487 36.440021 
L 188.570776 35.267528 
L 188.715064 35.534162 
L 188.859353 34.920201 
L 189.14793 35.738319 
L 189.292219 33.631949 
L 189.436507 35.417126 
L 189.580796 34.778268 
L 189.725084 34.13514 
L 189.869373 34.282333 
L 190.013662 34.007019 
L 190.446527 32.662722 
L 190.590816 32.140875 
L 190.735105 33.111761 
L 190.879393 31.493117 
L 191.023682 31.813899 
L 191.16797 32.951341 
L 191.312259 31.621766 
L 191.456547 31.934221 
L 191.600836 31.858416 
L 191.745125 32.028136 
L 192.033702 30.121056 
L 192.17799 31.486709 
L 192.322279 30.575874 
L 192.466567 30.935811 
L 192.610856 30.848989 
L 192.755145 31.455024 
L 192.899433 31.065227 
L 193.043722 29.684377 
L 193.18801 31.213587 
L 193.332299 30.729666 
L 193.476587 29.834183 
L 193.765165 30.697221 
L 193.909453 29.2346 
L 194.053742 29.292037 
L 194.19803 29.914348 
L 194.486608 29.112629 
L 194.630896 29.352443 
L 194.775185 30.16771 
L 194.919473 29.534606 
L 195.063762 29.600113 
L 195.20805 30.950781 
L 195.352339 30.08658 
L 195.496628 31.221617 
L 195.640916 31.006126 
L 195.785205 31.25719 
L 196.073782 30.76099 
L 196.21807 31.185817 
L 196.506648 30.171443 
L 196.795225 32.132519 
L 196.939513 30.457466 
L 197.083802 31.796912 
L 197.372379 30.833185 
L 197.516668 31.250065 
L 197.660956 32.996792 
L 197.805245 32.445951 
L 197.949533 32.932781 
L 198.093822 32.295335 
L 198.238111 32.63705 
L 198.382399 32.086156 
L 198.526688 33.417194 
L 198.670976 32.686434 
L 199.103842 34.528753 
L 199.248131 33.871081 
L 199.392419 34.396357 
L 199.536708 33.795562 
L 199.825285 35.867058 
L 199.969573 35.161242 
L 200.113862 35.500148 
L 200.258151 35.228158 
L 200.402439 35.505066 
L 200.546728 37.209892 
L 200.691016 36.898996 
L 201.268171 39.074328 
L 201.412459 37.50295 
L 201.556748 37.986136 
L 202.133902 39.780376 
L 202.278191 41.094128 
L 202.422479 39.946633 
L 202.566768 42.178268 
L 202.711056 41.273069 
L 202.855345 42.886126 
L 202.999634 41.266776 
L 203.143922 41.837602 
L 203.721076 44.85339 
L 203.865365 43.797367 
L 204.153942 46.038162 
L 204.298231 45.973188 
L 204.442519 44.994679 
L 204.875385 47.730582 
L 205.019674 46.997237 
L 205.163962 48.739109 
L 205.308251 48.515437 
L 205.452539 48.001552 
L 205.596828 50.210609 
L 205.885405 48.962426 
L 206.029694 50.94391 
L 206.173982 50.26783 
L 206.462559 50.791878 
L 206.895425 53.666952 
L 207.039714 53.053175 
L 207.472579 54.274428 
L 207.761157 55.854816 
L 208.049734 54.893886 
L 208.626888 57.9407 
L 208.771177 56.972027 
L 209.204042 59.859385 
L 209.348331 59.371614 
L 209.49262 60.624902 
L 209.636908 59.725851 
L 209.781197 61.248754 
L 209.925485 60.903783 
L 210.069774 61.732014 
L 210.214062 60.490421 
L 210.646928 63.615313 
L 210.791217 62.687675 
L 211.224082 64.116608 
L 211.368371 63.405909 
L 211.51266 65.218127 
L 211.656948 64.447169 
L 211.801237 64.575208 
L 212.234102 65.627464 
L 212.52268 67.498354 
L 212.666968 66.023617 
L 212.666968 66.023617 
" clip-path="url(#p35bad8c21e)" style="fill: none; stroke: #3362b0; stroke-width: 1.5; stroke-linecap: square"/>
   </g>
   <g id="line2d_18">
    <path d="M 140.666968 30.82357 
L 140.811257 29.594975 
L 140.955545 29.709271 
L 141.099834 30.997394 
L 141.244123 29.72485 
L 141.388411 30.960322 
L 141.5327 30.927981 
L 141.821277 30.858531 
L 141.965565 31.529647 
L 142.109854 31.149849 
L 142.254143 31.721838 
L 142.398431 31.576937 
L 142.54272 30.66067 
L 142.831297 32.533979 
L 142.975585 31.456434 
L 143.119874 32.549734 
L 143.408451 31.395443 
L 143.697028 33.519861 
L 143.841317 33.161837 
L 143.985606 33.415727 
L 144.274183 34.554843 
L 144.418471 33.482789 
L 144.56276 34.006833 
L 144.707048 33.431571 
L 145.139914 35.013131 
L 145.284203 35.188414 
L 145.428491 36.597571 
L 145.57278 36.410079 
L 145.717068 35.934333 
L 145.861357 37.358732 
L 146.005646 36.836448 
L 146.149934 36.517472 
L 146.294223 38.328554 
L 146.438511 36.828571 
L 147.304243 40.064884 
L 147.448531 39.51416 
L 147.59282 41.225295 
L 147.737109 39.643956 
L 148.025686 42.264456 
L 148.169974 42.367656 
L 148.314263 41.175169 
L 148.60284 43.183911 
L 148.747129 43.188685 
L 148.891417 44.358859 
L 149.035706 43.194246 
L 149.179994 44.587889 
L 149.324283 43.936626 
L 149.61286 46.236697 
L 149.757149 45.027388 
L 150.190014 47.427357 
L 150.334303 46.323714 
L 150.478591 47.703138 
L 150.62288 47.173353 
L 151.055746 49.214007 
L 151.200034 48.632436 
L 151.344323 50.982439 
L 151.488612 49.663341 
L 151.6329 51.808725 
L 151.777189 51.46888 
L 151.921477 51.498369 
L 152.787209 54.464972 
L 152.931497 53.611079 
L 153.075786 54.243213 
L 153.364363 56.488782 
L 153.508652 55.975775 
L 153.941517 57.884195 
L 154.230094 57.712825 
L 154.374383 57.318321 
L 154.951537 60.108665 
L 155.095826 59.331952 
L 155.384403 61.828809 
L 155.528692 61.257253 
L 155.817269 62.846241 
L 155.961557 61.32397 
L 156.105846 62.734716 
L 156.250135 62.048532 
L 156.827289 65.18099 
L 156.971577 64.148744 
L 157.115866 65.333337 
L 157.260155 64.635637 
L 157.404443 65.927245 
L 157.548732 65.826625 
L 157.69302 65.82653 
L 157.837309 67.085533 
L 157.981597 66.397574 
L 158.125886 67.764945 
L 158.270175 67.518555 
L 158.414463 67.682415 
L 158.558752 68.286268 
L 158.70304 66.956982 
L 158.847329 69.156764 
L 158.991618 67.641122 
L 159.135906 68.413761 
L 159.280195 67.949921 
L 159.424483 68.972691 
L 159.568772 68.914514 
L 159.71306 68.814378 
L 159.857349 69.129687 
L 160.001638 70.610093 
L 160.145926 70.11303 
L 160.290215 70.685472 
L 160.434503 69.578379 
L 160.72308 70.799063 
L 160.867369 70.647811 
L 161.011658 71.931632 
L 161.155946 70.539519 
L 161.444523 72.419203 
L 161.7331 71.500637 
L 162.021678 72.873625 
L 162.165966 71.068634 
L 162.310255 71.769778 
L 162.454543 72.953287 
L 162.598832 71.971061 
L 162.743121 73.156791 
L 162.887409 73.104771 
L 163.031698 73.248041 
L 163.320275 71.501637 
L 163.608852 73.329857 
L 163.753141 73.25409 
L 164.041718 72.140576 
L 164.186006 72.273269 
L 164.330295 73.503622 
L 164.474583 72.281703 
L 164.618872 73.396037 
L 164.763161 72.093687 
L 164.907449 72.66457 
L 165.051738 71.29148 
L 165.196026 71.403077 
L 165.340315 71.58446 
L 165.484604 71.344117 
L 165.917469 72.580854 
L 166.061758 71.639779 
L 166.206046 72.190934 
L 166.350335 70.785882 
L 166.494624 72.000302 
L 166.638912 71.913126 
L 166.927489 69.878239 
L 167.216066 71.221865 
L 167.360355 70.199378 
L 167.504644 70.856737 
L 167.648932 70.341344 
L 167.793221 68.814799 
L 167.937509 70.44568 
L 168.081798 70.278175 
L 168.226086 69.931916 
L 168.658952 67.55792 
L 168.803241 68.4901 
L 168.947529 68.168311 
L 169.091818 68.090123 
L 169.380395 66.366653 
L 169.524684 67.632172 
L 169.813261 65.775883 
L 169.957549 65.544167 
L 170.101838 66.475075 
L 170.390415 64.966072 
L 170.534704 65.805596 
L 170.823281 63.696522 
L 170.967569 64.87568 
L 171.256147 63.030498 
L 171.400435 63.532005 
L 171.544724 63.486566 
L 171.833301 61.291863 
L 171.977589 61.386158 
L 172.121878 61.742499 
L 172.410455 61.234653 
L 172.554744 60.112444 
L 172.699032 60.565542 
L 173.131898 59.50422 
L 173.276187 57.912894 
L 173.420475 58.068431 
L 173.853341 56.268138 
L 173.99763 56.339509 
L 174.286207 54.579203 
L 174.430495 55.733725 
L 174.574784 55.346867 
L 175.151938 52.499353 
L 175.440515 53.334836 
L 175.729092 50.748706 
L 176.594824 48.200012 
L 176.739113 48.889991 
L 176.883401 47.659488 
L 177.02769 48.507955 
L 177.316267 46.29696 
L 177.460555 47.11612 
L 177.604844 46.818926 
L 177.893421 45.065513 
L 178.03771 45.323891 
L 178.326287 44.121958 
L 178.470575 45.155204 
L 178.903441 42.269086 
L 179.04773 43.222383 
L 179.336307 40.854572 
L 179.624884 41.861419 
L 179.913461 39.461683 
L 180.202038 40.509722 
L 180.490616 38.495319 
L 180.634904 39.888879 
L 180.923481 37.596079 
L 181.06777 37.970684 
L 181.356347 36.514886 
L 181.500636 36.71525 
L 181.789213 36.114906 
L 181.933501 37.096087 
L 182.222078 35.140345 
L 182.366367 36.154381 
L 182.510656 34.417273 
L 182.799233 35.575092 
L 183.08781 34.008646 
L 183.232098 33.881375 
L 183.520676 34.181115 
L 183.664964 33.319657 
L 183.953541 33.834764 
L 184.09783 31.718769 
L 184.242119 32.595431 
L 184.386407 31.375222 
L 184.674984 32.200337 
L 184.963561 30.799096 
L 185.10785 32.139211 
L 185.252139 31.857868 
L 185.396427 31.247993 
L 185.540716 31.65999 
L 185.685004 30.965702 
L 185.829293 31.03914 
L 185.973581 31.102136 
L 186.11787 30.902152 
L 186.262159 29.527149 
L 186.550736 31.395908 
L 186.695024 29.311862 
L 186.839313 29.651091 
L 186.983601 30.640442 
L 187.12789 30.3902 
L 187.272179 29.689703 
L 187.416467 30.499903 
L 187.560756 30.315197 
L 187.705044 30.461989 
L 187.993622 30.082955 
L 188.13791 29.212069 
L 188.282199 30.64175 
L 188.426487 29.681614 
L 188.715064 31.071729 
L 189.003642 29.693904 
L 189.14793 30.851774 
L 189.292219 29.760853 
L 189.436507 31.254231 
L 189.580796 31.060856 
L 189.869373 30.389326 
L 190.013662 30.651239 
L 190.15795 31.654849 
L 190.302239 30.776819 
L 190.735105 32.525719 
L 191.023682 31.202691 
L 191.16797 31.532427 
L 191.456547 33.007224 
L 191.745125 31.869953 
L 192.17799 34.507314 
L 192.322279 33.79296 
L 192.610856 34.944065 
L 192.755145 33.722247 
L 192.899433 33.868545 
L 193.043722 34.524719 
L 193.18801 36.213553 
L 193.332299 35.815912 
L 193.476587 34.827286 
L 193.620876 34.950395 
L 194.053742 36.708469 
L 194.342319 37.639286 
L 194.486608 37.443563 
L 194.630896 38.994322 
L 194.919473 38.086054 
L 195.063762 39.737788 
L 195.20805 39.661862 
L 195.496628 40.912884 
L 195.640916 40.902123 
L 195.785205 41.682768 
L 195.929493 40.354189 
L 196.21807 41.391122 
L 196.362359 41.10351 
L 196.506648 42.516569 
L 196.650936 42.487507 
L 196.795225 42.624919 
L 196.939513 44.347087 
L 197.083802 43.537783 
L 197.22809 43.813903 
L 197.372379 44.605069 
L 197.516668 44.209087 
L 197.660956 45.49889 
L 197.805245 45.098049 
L 198.526688 47.062807 
L 198.815265 48.708999 
L 198.959553 48.452783 
L 199.392419 50.792572 
L 199.536708 50.763861 
L 200.258151 53.610682 
L 200.402439 52.212818 
L 200.546728 53.912851 
L 200.691016 53.893338 
L 200.979593 55.39903 
L 201.123882 53.979093 
L 201.556748 56.586065 
L 202.133902 58.445794 
L 202.278191 57.075887 
L 203.288211 61.616908 
L 203.576788 60.719316 
L 204.009654 62.00917 
L 204.153942 62.115868 
L 204.731096 64.421825 
L 204.875385 65.210755 
L 205.163962 64.533705 
L 205.308251 64.58923 
L 205.596828 66.92639 
L 205.741117 66.350076 
L 206.173982 67.894218 
L 206.318271 66.823257 
L 206.462559 68.373359 
L 206.606848 67.770902 
L 206.751137 67.068317 
L 206.895425 67.543574 
L 207.184002 69.694269 
L 207.328291 68.835935 
L 207.761157 69.876662 
L 207.905445 68.96005 
L 208.049734 70.683123 
L 208.194022 69.426801 
L 208.338311 69.458996 
L 208.482599 69.707358 
L 208.771177 71.197848 
L 208.915465 70.136601 
L 209.059754 70.296456 
L 209.348331 72.177766 
L 209.49262 71.199419 
L 209.636908 71.833126 
L 209.781197 71.734094 
L 209.925485 71.576353 
L 210.069774 71.049234 
L 210.358351 72.323883 
L 210.50264 72.762051 
L 210.791217 72.220023 
L 210.935505 72.379584 
L 211.079794 73.230661 
L 211.224082 71.680448 
L 211.51266 73.5889 
L 211.656948 72.757292 
L 211.945525 73.517534 
L 212.378391 71.849816 
L 212.666968 73.059078 
L 212.666968 73.059078 
" clip-path="url(#p35bad8c21e)" style="fill: none; stroke: #cc3164; stroke-width: 1.5; stroke-linecap: square"/>
   </g>
   <g id="patch_7">
    <path d="M 133.466968 73.5889 
L 133.466968 29.090453 
" style="fill: none; stroke: #4d4f53; stroke-width: 0.8; stroke-linejoin: miter; stroke-linecap: square"/>
   </g>
   <g id="patch_8">
    <path d="M 140.666968 78.038745 
L 212.666968 78.038745 
" style="fill: none; stroke: #4d4f53; stroke-width: 0.8; stroke-linejoin: miter; stroke-linecap: square"/>
   </g>
   <g id="legend_2">
    <g id="patch_9">
     <path d="M 185.530392 76.372745 
L 218.200968 76.372745 
L 218.200968 39.159031 
L 185.530392 39.159031 
z
" style="fill: #ffffff"/>
    </g>
    <g id="text_16">
     <!-- title -->
     <g style="fill: #4d4f53" transform="translate(194.027581 49.04092) scale(0.0833 -0.0833)">
      <use xlink:href="#LMRoman17-Regular-74" transform="scale(0.996264)"/>
      <use xlink:href="#LMRoman17-Regular-69" transform="translate(35.281528 0) scale(0.996264)"/>
      <use xlink:href="#LMRoman17-Regular-74" transform="translate(60.153544 0) scale(0.996264)"/>
      <use xlink:href="#LMRoman17-Regular-6c" transform="translate(95.435072 0) scale(0.996264)"/>
      <use xlink:href="#LMRoman17-Regular-65" transform="translate(120.307088 0) scale(0.996264)"/>
     </g>
    </g>
    <g id="line2d_19">
     <path d="M 189.695392 56.902028 
L 195.526392 56.902028 
L 201.357392 56.902028 
" style="fill: none; stroke: #3362b0; stroke-width: 1.5; stroke-linecap: square"/>
    </g>
    <g id="text_17">
     <!-- $x_1$ -->
     <g style="fill: #4d4f53" transform="translate(205.522392 59.817528) scale(0.0833 -0.0833)">
      <use xlink:href="#LMMathItalic12-Regular-78" transform="scale(0.996264)"/>
      <use xlink:href="#LMRoman17-Regular-31" transform="translate(55.43406 -14.943915) scale(0.697382)"/>
     </g>
    </g>
    <g id="line2d_20">
     <path d="M 189.695392 67.678637 
L 195.526392 67.678637 
L 201.357392 67.678637 
" style="fill: none; stroke: #cc3164; stroke-width: 1.5; stroke-linecap: square"/>
    </g>
    <g id="text_18">
     <!-- $x_2$ -->
     <g style="fill: #4d4f53" transform="translate(205.522392 70.594137) scale(0.0833 -0.0833)">
      <use xlink:href="#LMMathItalic12-Regular-78" transform="scale(0.996264)"/>
      <use xlink:href="#LMRoman17-Regular-32" transform="translate(55.43406 -14.943915) scale(0.697382)"/>
     </g>
    </g>
   </g>
  </g>
  <g id="axes_3">
   <g id="patch_10">
    <path d="M 241.466968 78.038745 
L 327.866968 78.038745 
L 327.866968 24.640608 
L 241.466968 24.640608 
L 241.466968 78.038745 
z
" style="fill: none"/>
   </g>
   <g id="matplotlib.axis_5">
    <g id="xtick_7">
     <g id="line2d_21">
      <g>
       <use xlink:href="#m852663f6ae" x="248.666968" y="78.038745" style="fill: #4d4f53; stroke: #4d4f53; stroke-width: 0.8"/>
      </g>
     </g>
     <g id="text_19">
      <!-- $\mathdefault{0}$ -->
      <g style="fill: #4d4f53" transform="translate(246.462581 90.755634) scale(0.0833 -0.0833)">
       <use xlink:href="#LMRoman17-Regular-30" transform="scale(0.996264)"/>
      </g>
     </g>
    </g>
    <g id="xtick_8">
     <g id="line2d_22">
      <g>
       <use xlink:href="#m852663f6ae" x="286.864155" y="78.038745" style="fill: #4d4f53; stroke: #4d4f53; stroke-width: 0.8"/>
      </g>
     </g>
     <g id="text_20">
      <!-- $\mathdefault{5}$ -->
      <g style="fill: #4d4f53" transform="translate(284.659767 90.755634) scale(0.0833 -0.0833)">
       <use xlink:href="#LMRoman17-Regular-35" transform="scale(0.996264)"/>
      </g>
     </g>
    </g>
    <g id="xtick_9">
     <g id="line2d_23">
      <g>
       <use xlink:href="#m852663f6ae" x="325.061341" y="78.038745" style="fill: #4d4f53; stroke: #4d4f53; stroke-width: 0.8"/>
      </g>
     </g>
     <g id="text_21">
      <!-- $\mathdefault{10}$ -->
      <g style="fill: #4d4f53" transform="translate(320.652566 90.755634) scale(0.0833 -0.0833)">
       <use xlink:href="#LMRoman17-Regular-31" transform="scale(0.996264)"/>
       <use xlink:href="#LMRoman17-Regular-30" transform="translate(45.690948 0) scale(0.996264)"/>
      </g>
     </g>
    </g>
   </g>
   <g id="matplotlib.axis_6">
    <g id="ytick_7">
     <g id="line2d_24">
      <g>
       <use xlink:href="#m20ba753050" x="241.466968" y="73.608583" style="fill: #4d4f53; stroke: #4d4f53; stroke-width: 0.8"/>
      </g>
     </g>
     <g id="text_22">
      <!-- $\mathdefault{−1}$ -->
      <g style="fill: #4d4f53" transform="translate(223.2 76.467027) scale(0.0833 -0.0833)">
       <use xlink:href="#LMMathSymbols10-Regular-0" transform="scale(0.996264)"/>
       <use xlink:href="#LMRoman17-Regular-31" transform="translate(77.487468 0) scale(0.996264)"/>
      </g>
     </g>
    </g>
    <g id="ytick_8">
     <g id="line2d_25">
      <g>
       <use xlink:href="#m20ba753050" x="241.466968" y="52.40549" style="fill: #4d4f53; stroke: #4d4f53; stroke-width: 0.8"/>
      </g>
     </g>
     <g id="text_23">
      <!-- $\mathdefault{0}$ -->
      <g style="fill: #4d4f53" transform="translate(230.058193 55.263935) scale(0.0833 -0.0833)">
       <use xlink:href="#LMRoman17-Regular-30" transform="scale(0.996264)"/>
      </g>
     </g>
    </g>
    <g id="ytick_9">
     <g id="line2d_26">
      <g>
       <use xlink:href="#m20ba753050" x="241.466968" y="31.202397" style="fill: #4d4f53; stroke: #4d4f53; stroke-width: 0.8"/>
      </g>
     </g>
     <g id="text_24">
      <!-- $\mathdefault{1}$ -->
      <g style="fill: #4d4f53" transform="translate(230.058193 34.060842) scale(0.0833 -0.0833)">
       <use xlink:href="#LMRoman17-Regular-31" transform="scale(0.996264)"/>
      </g>
     </g>
    </g>
   </g>
   <g id="line2d_27">
    <path d="M 248.666968 36.520632 
L 249.244123 34.714214 
L 249.388411 35.011605 
L 249.5327 33.257047 
L 249.676988 33.538593 
L 249.821277 34.619883 
L 250.109854 33.09436 
L 250.254143 33.952736 
L 250.398431 31.929878 
L 250.54272 32.8795 
L 250.831297 31.763391 
L 250.975585 32.50524 
L 251.119874 32.219842 
L 251.408451 31.172796 
L 251.55274 32.238096 
L 251.697028 31.88407 
L 251.841317 30.93987 
L 251.985606 31.17455 
L 252.129894 31.735552 
L 252.274183 31.125637 
L 252.418471 31.474 
L 252.707048 29.942916 
L 252.851337 31.231791 
L 252.995626 29.518876 
L 253.139914 30.578397 
L 253.284203 30.350855 
L 253.428491 30.283734 
L 253.57278 31.286697 
L 253.861357 29.144823 
L 254.149934 30.943372 
L 254.438511 29.733215 
L 254.5828 31.203837 
L 254.727088 30.441603 
L 254.871377 31.122115 
L 255.015666 29.602495 
L 255.159954 30.571648 
L 255.304243 29.868359 
L 255.448531 30.368537 
L 255.59282 29.406961 
L 255.737109 29.764366 
L 256.025686 30.496479 
L 256.169974 29.668036 
L 256.458551 31.95311 
L 256.60284 31.906132 
L 256.747129 30.222586 
L 256.891417 30.275272 
L 257.179994 31.889418 
L 257.324283 31.226743 
L 257.468571 32.890445 
L 257.61286 31.463291 
L 257.757149 31.819019 
L 257.901437 33.013606 
L 258.190014 31.855423 
L 258.334303 33.638478 
L 258.478591 32.253014 
L 258.62288 33.703988 
L 258.767169 33.121309 
L 258.911457 34.264101 
L 259.055746 33.953636 
L 259.200034 34.910943 
L 259.344323 34.534599 
L 259.6329 35.183467 
L 259.777189 34.601265 
L 259.921477 35.497133 
L 260.065766 35.276852 
L 260.210054 35.40451 
L 260.354343 36.620208 
L 260.498632 35.721749 
L 261.075786 37.850601 
L 261.220074 37.235486 
L 261.65294 39.607047 
L 261.797229 38.432204 
L 262.230094 40.948839 
L 262.374383 40.883126 
L 262.807249 42.585064 
L 262.951537 41.76059 
L 263.095826 43.513904 
L 263.240115 43.442416 
L 263.528692 42.69759 
L 263.817269 44.565618 
L 263.961557 43.998428 
L 264.105846 44.085635 
L 264.394423 46.133483 
L 264.538712 45.866743 
L 264.827289 48.062308 
L 264.971577 47.782693 
L 265.115866 47.889511 
L 265.260155 49.210688 
L 265.404443 47.76954 
L 266.270175 51.839074 
L 266.414463 52.000699 
L 266.558752 51.459654 
L 266.70304 52.285986 
L 266.847329 51.720554 
L 267.280195 54.506314 
L 267.568772 54.778454 
L 267.71306 55.928285 
L 267.857349 55.136219 
L 268.001638 56.753145 
L 268.145926 55.733209 
L 268.290215 56.256922 
L 268.434503 58.024879 
L 268.578792 56.81042 
L 268.72308 58.093471 
L 268.867369 57.546254 
L 269.300235 59.954127 
L 269.444523 58.894629 
L 269.588812 60.481619 
L 269.7331 59.841212 
L 269.877389 60.586298 
L 270.021678 60.229957 
L 270.454543 63.018604 
L 270.598832 61.506364 
L 270.887409 63.893713 
L 271.031698 63.1056 
L 271.320275 64.018201 
L 271.464563 63.581598 
L 271.608852 63.909944 
L 271.753141 65.566089 
L 271.897429 64.900541 
L 272.330295 67.180112 
L 272.474583 67.151172 
L 272.618872 66.505741 
L 272.763161 67.527816 
L 272.907449 67.46159 
L 273.051738 67.926428 
L 273.196026 67.854576 
L 273.340315 67.773562 
L 273.484604 67.391832 
L 273.628892 69.57106 
L 273.773181 68.691732 
L 273.917469 68.736573 
L 274.061758 69.976937 
L 274.206046 68.983814 
L 274.350335 69.92629 
L 274.494624 69.842445 
L 274.638912 69.892666 
L 274.783201 69.511403 
L 275.071778 70.319183 
L 275.360355 71.878055 
L 275.648932 70.609323 
L 275.793221 70.915378 
L 275.937509 72.118598 
L 276.081798 72.081499 
L 276.226086 72.316249 
L 276.514664 71.591355 
L 276.803241 72.564854 
L 277.091818 71.501862 
L 277.236107 72.211271 
L 277.380395 71.892572 
L 277.524684 72.557883 
L 277.813261 71.802764 
L 277.957549 73.541348 
L 278.101838 72.040421 
L 278.246127 72.084629 
L 278.534704 71.937425 
L 278.678992 71.605033 
L 278.967569 73.148 
L 279.256147 71.36884 
L 279.544724 71.527704 
L 279.833301 73.208595 
L 280.121878 71.503451 
L 280.266167 71.462534 
L 280.410455 72.529817 
L 280.554744 72.502611 
L 280.699032 72.29769 
L 280.843321 70.769019 
L 281.131898 71.866332 
L 281.276187 70.762494 
L 281.420475 71.868751 
L 281.564764 71.591287 
L 281.709052 71.388321 
L 281.99763 69.964469 
L 282.141918 69.870562 
L 282.430495 69.115993 
L 282.719072 70.090658 
L 282.863361 68.996197 
L 283.00765 69.168243 
L 283.151938 69.033994 
L 283.584804 66.948644 
L 283.729092 67.654766 
L 284.450535 65.167742 
L 284.594824 66.520749 
L 284.883401 64.847028 
L 285.02769 65.78824 
L 285.316267 63.886534 
L 286.470575 61.016251 
L 286.614864 61.963988 
L 286.759153 60.674984 
L 286.903441 61.340933 
L 287.04773 59.617611 
L 287.192018 60.927471 
L 287.336307 60.5547 
L 287.480595 60.215535 
L 287.769173 58.380027 
L 287.913461 59.070281 
L 288.05775 58.691672 
L 288.346327 56.391659 
L 288.490616 57.101085 
L 288.779193 55.021599 
L 288.923481 54.658294 
L 289.06777 54.848242 
L 289.500636 53.269917 
L 289.644924 53.574931 
L 290.07779 51.511358 
L 290.222078 52.098575 
L 290.366367 51.328358 
L 290.510656 51.6317 
L 291.08781 49.071652 
L 291.232098 49.937244 
L 291.376387 49.411489 
L 291.809253 46.40123 
L 291.953541 47.804752 
L 292.530696 44.436478 
L 292.674984 45.712276 
L 292.963561 43.998436 
L 293.10785 44.40257 
L 293.252139 44.516803 
L 293.685004 41.838278 
L 293.829293 42.343516 
L 293.973581 42.099145 
L 294.262159 40.759775 
L 294.406447 41.075906 
L 294.550736 39.806553 
L 294.695024 40.197272 
L 294.839313 39.094021 
L 294.983601 40.290221 
L 295.12789 38.127099 
L 295.272179 38.362455 
L 295.416467 38.454432 
L 295.560756 39.053251 
L 295.993622 36.218669 
L 296.282199 36.412143 
L 296.426487 36.440021 
L 296.570776 35.267528 
L 296.715064 35.534162 
L 296.859353 34.920201 
L 297.14793 35.738319 
L 297.292219 33.631949 
L 297.436507 35.417126 
L 297.580796 34.778268 
L 297.725084 34.13514 
L 297.869373 34.282333 
L 298.013662 34.007019 
L 298.446527 32.662722 
L 298.590816 32.140875 
L 298.735105 33.111761 
L 298.879393 31.493117 
L 299.023682 31.813899 
L 299.16797 32.951341 
L 299.312259 31.621766 
L 299.456547 31.934221 
L 299.600836 31.858416 
L 299.745125 32.028136 
L 300.033702 30.121056 
L 300.17799 31.486709 
L 300.322279 30.575874 
L 300.466567 30.935811 
L 300.610856 30.848989 
L 300.755145 31.455024 
L 300.899433 31.065227 
L 301.043722 29.684377 
L 301.18801 31.213587 
L 301.332299 30.729666 
L 301.476587 29.834183 
L 301.765165 30.697221 
L 301.909453 29.2346 
L 302.053742 29.292037 
L 302.19803 29.914348 
L 302.486608 29.112629 
L 302.630896 29.352443 
L 302.775185 30.16771 
L 302.919473 29.534606 
L 303.063762 29.600113 
L 303.20805 30.950781 
L 303.352339 30.08658 
L 303.496628 31.221617 
L 303.640916 31.006126 
L 303.785205 31.25719 
L 304.073782 30.76099 
L 304.21807 31.185817 
L 304.506648 30.171443 
L 304.795225 32.132519 
L 304.939513 30.457466 
L 305.083802 31.796912 
L 305.372379 30.833185 
L 305.516668 31.250065 
L 305.660956 32.996792 
L 305.805245 32.445951 
L 305.949533 32.932781 
L 306.093822 32.295335 
L 306.238111 32.63705 
L 306.382399 32.086156 
L 306.526688 33.417194 
L 306.670976 32.686434 
L 307.103842 34.528753 
L 307.248131 33.871081 
L 307.392419 34.396357 
L 307.536708 33.795562 
L 307.825285 35.867058 
L 307.969573 35.161242 
L 308.113862 35.500148 
L 308.258151 35.228158 
L 308.402439 35.505066 
L 308.546728 37.209892 
L 308.691016 36.898996 
L 309.268171 39.074328 
L 309.412459 37.50295 
L 309.556748 37.986136 
L 310.133902 39.780376 
L 310.278191 41.094128 
L 310.422479 39.946633 
L 310.566768 42.178268 
L 310.711056 41.273069 
L 310.855345 42.886126 
L 310.999634 41.266776 
L 311.143922 41.837602 
L 311.721076 44.85339 
L 311.865365 43.797367 
L 312.153942 46.038162 
L 312.298231 45.973188 
L 312.442519 44.994679 
L 312.875385 47.730582 
L 313.019674 46.997237 
L 313.163962 48.739109 
L 313.308251 48.515437 
L 313.452539 48.001552 
L 313.596828 50.210609 
L 313.885405 48.962426 
L 314.029694 50.94391 
L 314.173982 50.26783 
L 314.462559 50.791878 
L 314.895425 53.666952 
L 315.039714 53.053175 
L 315.472579 54.274428 
L 315.761157 55.854816 
L 316.049734 54.893886 
L 316.626888 57.9407 
L 316.771177 56.972027 
L 317.204042 59.859385 
L 317.348331 59.371614 
L 317.49262 60.624902 
L 317.636908 59.725851 
L 317.781197 61.248754 
L 317.925485 60.903783 
L 318.069774 61.732014 
L 318.214062 60.490421 
L 318.646928 63.615313 
L 318.791217 62.687675 
L 319.224082 64.116608 
L 319.368371 63.405909 
L 319.51266 65.218127 
L 319.656948 64.447169 
L 319.801237 64.575208 
L 320.234102 65.627464 
L 320.52268 67.498354 
L 320.666968 66.023617 
L 320.666968 66.023617 
" clip-path="url(#pe75abd5893)" style="fill: none; stroke: #3362b0; stroke-width: 1.5; stroke-linecap: square"/>
   </g>
   <g id="line2d_28">
    <path d="M 248.666968 30.82357 
L 248.811257 29.594975 
L 248.955545 29.709271 
L 249.099834 30.997394 
L 249.244123 29.72485 
L 249.388411 30.960322 
L 249.5327 30.927981 
L 249.821277 30.858531 
L 249.965565 31.529647 
L 250.109854 31.149849 
L 250.254143 31.721838 
L 250.398431 31.576937 
L 250.54272 30.66067 
L 250.831297 32.533979 
L 250.975585 31.456434 
L 251.119874 32.549734 
L 251.408451 31.395443 
L 251.697028 33.519861 
L 251.841317 33.161837 
L 251.985606 33.415727 
L 252.274183 34.554843 
L 252.418471 33.482789 
L 252.56276 34.006833 
L 252.707048 33.431571 
L 253.139914 35.013131 
L 253.284203 35.188414 
L 253.428491 36.597571 
L 253.57278 36.410079 
L 253.717068 35.934333 
L 253.861357 37.358732 
L 254.005646 36.836448 
L 254.149934 36.517472 
L 254.294223 38.328554 
L 254.438511 36.828571 
L 255.304243 40.064884 
L 255.448531 39.51416 
L 255.59282 41.225295 
L 255.737109 39.643956 
L 256.025686 42.264456 
L 256.169974 42.367656 
L 256.314263 41.175169 
L 256.60284 43.183911 
L 256.747129 43.188685 
L 256.891417 44.358859 
L 257.035706 43.194246 
L 257.179994 44.587889 
L 257.324283 43.936626 
L 257.61286 46.236697 
L 257.757149 45.027388 
L 258.190014 47.427357 
L 258.334303 46.323714 
L 258.478591 47.703138 
L 258.62288 47.173353 
L 259.055746 49.214007 
L 259.200034 48.632436 
L 259.344323 50.982439 
L 259.488612 49.663341 
L 259.6329 51.808725 
L 259.777189 51.46888 
L 259.921477 51.498369 
L 260.787209 54.464972 
L 260.931497 53.611079 
L 261.075786 54.243213 
L 261.364363 56.488782 
L 261.508652 55.975775 
L 261.941517 57.884195 
L 262.230094 57.712825 
L 262.374383 57.318321 
L 262.951537 60.108665 
L 263.095826 59.331952 
L 263.384403 61.828809 
L 263.528692 61.257253 
L 263.817269 62.846241 
L 263.961557 61.32397 
L 264.105846 62.734716 
L 264.250135 62.048532 
L 264.827289 65.18099 
L 264.971577 64.148744 
L 265.115866 65.333337 
L 265.260155 64.635637 
L 265.404443 65.927245 
L 265.548732 65.826625 
L 265.69302 65.82653 
L 265.837309 67.085533 
L 265.981597 66.397574 
L 266.125886 67.764945 
L 266.270175 67.518555 
L 266.414463 67.682415 
L 266.558752 68.286268 
L 266.70304 66.956982 
L 266.847329 69.156764 
L 266.991618 67.641122 
L 267.135906 68.413761 
L 267.280195 67.949921 
L 267.424483 68.972691 
L 267.568772 68.914514 
L 267.71306 68.814378 
L 267.857349 69.129687 
L 268.001638 70.610093 
L 268.145926 70.11303 
L 268.290215 70.685472 
L 268.434503 69.578379 
L 268.72308 70.799063 
L 268.867369 70.647811 
L 269.011658 71.931632 
L 269.155946 70.539519 
L 269.444523 72.419203 
L 269.7331 71.500637 
L 270.021678 72.873625 
L 270.165966 71.068634 
L 270.310255 71.769778 
L 270.454543 72.953287 
L 270.598832 71.971061 
L 270.743121 73.156791 
L 270.887409 73.104771 
L 271.031698 73.248041 
L 271.320275 71.501637 
L 271.608852 73.329857 
L 271.753141 73.25409 
L 272.041718 72.140576 
L 272.186006 72.273269 
L 272.330295 73.503622 
L 272.474583 72.281703 
L 272.618872 73.396037 
L 272.763161 72.093687 
L 272.907449 72.66457 
L 273.051738 71.29148 
L 273.196026 71.403077 
L 273.340315 71.58446 
L 273.484604 71.344117 
L 273.917469 72.580854 
L 274.061758 71.639779 
L 274.206046 72.190934 
L 274.350335 70.785882 
L 274.494624 72.000302 
L 274.638912 71.913126 
L 274.927489 69.878239 
L 275.216066 71.221865 
L 275.360355 70.199378 
L 275.504644 70.856737 
L 275.648932 70.341344 
L 275.793221 68.814799 
L 275.937509 70.44568 
L 276.081798 70.278175 
L 276.226086 69.931916 
L 276.658952 67.55792 
L 276.803241 68.4901 
L 276.947529 68.168311 
L 277.091818 68.090123 
L 277.380395 66.366653 
L 277.524684 67.632172 
L 277.813261 65.775883 
L 277.957549 65.544167 
L 278.101838 66.475075 
L 278.390415 64.966072 
L 278.534704 65.805596 
L 278.823281 63.696522 
L 278.967569 64.87568 
L 279.256147 63.030498 
L 279.400435 63.532005 
L 279.544724 63.486566 
L 279.833301 61.291863 
L 279.977589 61.386158 
L 280.121878 61.742499 
L 280.410455 61.234653 
L 280.554744 60.112444 
L 280.699032 60.565542 
L 281.131898 59.50422 
L 281.276187 57.912894 
L 281.420475 58.068431 
L 281.853341 56.268138 
L 281.99763 56.339509 
L 282.286207 54.579203 
L 282.430495 55.733725 
L 282.574784 55.346867 
L 283.151938 52.499353 
L 283.440515 53.334836 
L 283.729092 50.748706 
L 284.594824 48.200012 
L 284.739113 48.889991 
L 284.883401 47.659488 
L 285.02769 48.507955 
L 285.316267 46.29696 
L 285.460555 47.11612 
L 285.604844 46.818926 
L 285.893421 45.065513 
L 286.03771 45.323891 
L 286.326287 44.121958 
L 286.470575 45.155204 
L 286.903441 42.269086 
L 287.04773 43.222383 
L 287.336307 40.854572 
L 287.624884 41.861419 
L 287.913461 39.461683 
L 288.202038 40.509722 
L 288.490616 38.495319 
L 288.634904 39.888879 
L 288.923481 37.596079 
L 289.06777 37.970684 
L 289.356347 36.514886 
L 289.500636 36.71525 
L 289.789213 36.114906 
L 289.933501 37.096087 
L 290.222078 35.140345 
L 290.366367 36.154381 
L 290.510656 34.417273 
L 290.799233 35.575092 
L 291.08781 34.008646 
L 291.232098 33.881375 
L 291.520676 34.181115 
L 291.664964 33.319657 
L 291.953541 33.834764 
L 292.09783 31.718769 
L 292.242119 32.595431 
L 292.386407 31.375222 
L 292.674984 32.200337 
L 292.963561 30.799096 
L 293.10785 32.139211 
L 293.252139 31.857868 
L 293.396427 31.247993 
L 293.540716 31.65999 
L 293.685004 30.965702 
L 293.829293 31.03914 
L 293.973581 31.102136 
L 294.11787 30.902152 
L 294.262159 29.527149 
L 294.550736 31.395908 
L 294.695024 29.311862 
L 294.839313 29.651091 
L 294.983601 30.640442 
L 295.12789 30.3902 
L 295.272179 29.689703 
L 295.416467 30.499903 
L 295.560756 30.315197 
L 295.705044 30.461989 
L 295.993622 30.082955 
L 296.13791 29.212069 
L 296.282199 30.64175 
L 296.426487 29.681614 
L 296.715064 31.071729 
L 297.003642 29.693904 
L 297.14793 30.851774 
L 297.292219 29.760853 
L 297.436507 31.254231 
L 297.580796 31.060856 
L 297.869373 30.389326 
L 298.013662 30.651239 
L 298.15795 31.654849 
L 298.302239 30.776819 
L 298.735105 32.525719 
L 299.023682 31.202691 
L 299.16797 31.532427 
L 299.456547 33.007224 
L 299.745125 31.869953 
L 300.17799 34.507314 
L 300.322279 33.79296 
L 300.610856 34.944065 
L 300.755145 33.722247 
L 300.899433 33.868545 
L 301.043722 34.524719 
L 301.18801 36.213553 
L 301.332299 35.815912 
L 301.476587 34.827286 
L 301.620876 34.950395 
L 302.053742 36.708469 
L 302.342319 37.639286 
L 302.486608 37.443563 
L 302.630896 38.994322 
L 302.919473 38.086054 
L 303.063762 39.737788 
L 303.20805 39.661862 
L 303.496628 40.912884 
L 303.640916 40.902123 
L 303.785205 41.682768 
L 303.929493 40.354189 
L 304.21807 41.391122 
L 304.362359 41.10351 
L 304.506648 42.516569 
L 304.650936 42.487507 
L 304.795225 42.624919 
L 304.939513 44.347087 
L 305.083802 43.537783 
L 305.22809 43.813903 
L 305.372379 44.605069 
L 305.516668 44.209087 
L 305.660956 45.49889 
L 305.805245 45.098049 
L 306.526688 47.062807 
L 306.815265 48.708999 
L 306.959553 48.452783 
L 307.392419 50.792572 
L 307.536708 50.763861 
L 308.258151 53.610682 
L 308.402439 52.212818 
L 308.546728 53.912851 
L 308.691016 53.893338 
L 308.979593 55.39903 
L 309.123882 53.979093 
L 309.556748 56.586065 
L 310.133902 58.445794 
L 310.278191 57.075887 
L 311.288211 61.616908 
L 311.576788 60.719316 
L 312.009654 62.00917 
L 312.153942 62.115868 
L 312.731096 64.421825 
L 312.875385 65.210755 
L 313.163962 64.533705 
L 313.308251 64.58923 
L 313.596828 66.92639 
L 313.741117 66.350076 
L 314.173982 67.894218 
L 314.318271 66.823257 
L 314.462559 68.373359 
L 314.606848 67.770902 
L 314.751137 67.068317 
L 314.895425 67.543574 
L 315.184002 69.694269 
L 315.328291 68.835935 
L 315.761157 69.876662 
L 315.905445 68.96005 
L 316.049734 70.683123 
L 316.194022 69.426801 
L 316.338311 69.458996 
L 316.482599 69.707358 
L 316.771177 71.197848 
L 316.915465 70.136601 
L 317.059754 70.296456 
L 317.348331 72.177766 
L 317.49262 71.199419 
L 317.636908 71.833126 
L 317.781197 71.734094 
L 317.925485 71.576353 
L 318.069774 71.049234 
L 318.358351 72.323883 
L 318.50264 72.762051 
L 318.791217 72.220023 
L 318.935505 72.379584 
L 319.079794 73.230661 
L 319.224082 71.680448 
L 319.51266 73.5889 
L 319.656948 72.757292 
L 319.945525 73.517534 
L 320.378391 71.849816 
L 320.666968 73.059078 
L 320.666968 73.059078 
" clip-path="url(#pe75abd5893)" style="fill: none; stroke: #cc3164; stroke-width: 1.5; stroke-linecap: square"/>
   </g>
   <g id="patch_11">
    <path d="M 241.466968 73.5889 
L 241.466968 29.090453 
" style="fill: none; stroke: #4d4f53; stroke-width: 0.8; stroke-linejoin: miter; stroke-linecap: square"/>
   </g>
   <g id="patch_12">
    <path d="M 248.666968 78.038745 
L 320.666968 78.038745 
" style="fill: none; stroke: #4d4f53; stroke-width: 0.8; stroke-linejoin: miter; stroke-linecap: square"/>
   </g>
   <g id="legend_3">
    <g id="patch_13">
     <path d="M 332.124968 69.946534 
L 364.795544 69.946534 
L 364.795544 32.73282 
L 332.124968 32.73282 
z
" style="fill: #ffffff"/>
    </g>
    <g id="text_25">
     <!-- title -->
     <g style="fill: #4d4f53" transform="translate(340.622156 42.614708) scale(0.0833 -0.0833)">
      <use xlink:href="#LMRoman17-Regular-74" transform="scale(0.996264)"/>
      <use xlink:href="#LMRoman17-Regular-69" transform="translate(35.281528 0) scale(0.996264)"/>
      <use xlink:href="#LMRoman17-Regular-74" transform="translate(60.153544 0) scale(0.996264)"/>
      <use xlink:href="#LMRoman17-Regular-6c" transform="translate(95.435072 0) scale(0.996264)"/>
      <use xlink:href="#LMRoman17-Regular-65" transform="translate(120.307088 0) scale(0.996264)"/>
     </g>
    </g>
    <g id="line2d_29">
     <path d="M 336.289968 50.475817 
L 342.120968 50.475817 
L 347.951968 50.475817 
" style="fill: none; stroke: #3362b0; stroke-width: 1.5; stroke-linecap: square"/>
    </g>
    <g id="text_26">
     <!-- $x_1$ -->
     <g style="fill: #4d4f53" transform="translate(352.116968 53.391317) scale(0.0833 -0.0833)">
      <use xlink:href="#LMMathItalic12-Regular-78" transform="scale(0.996264)"/>
      <use xlink:href="#LMRoman17-Regular-31" transform="translate(55.43406 -14.943915) scale(0.697382)"/>
     </g>
    </g>
    <g id="line2d_30">
     <path d="M 336.289968 61.252425 
L 342.120968 61.252425 
L 347.951968 61.252425 
" style="fill: none; stroke: #cc3164; stroke-width: 1.5; stroke-linecap: square"/>
    </g>
    <g id="text_27">
     <!-- $x_2$ -->
     <g style="fill: #4d4f53" transform="translate(352.116968 64.167925) scale(0.0833 -0.0833)">
      <use xlink:href="#LMMathItalic12-Regular-78" transform="scale(0.996264)"/>
      <use xlink:href="#LMRoman17-Regular-32" transform="translate(55.43406 -14.943915) scale(0.697382)"/>
     </g>
    </g>
   </g>
  </g>
 </g>
 <defs>
  <clipPath id="p8bd27631bd">
   <rect x="25.466968" y="24.640608" width="86.4" height="53.398137"/>
  </clipPath>
  <clipPath id="p35bad8c21e">
   <rect x="133.466968" y="24.640608" width="86.4" height="53.398137"/>
  </clipPath>
  <clipPath id="pe75abd5893">
   <rect x="241.466968" y="24.640608" width="86.4" height="53.398137"/>
  </clipPath>
 </defs>
</svg>
