<?xml version="1.0" encoding="utf-8" standalone="no"?>
<!DOCTYPE svg PUBLIC "-//W3C//DTD SVG 1.1//EN"
  "http://www.w3.org/Graphics/SVG/1.1/DTD/svg11.dtd">
<svg xmlns:xlink="http://www.w3.org/1999/xlink" width="263.329092pt" height="82.618128pt" viewBox="0 0 263.329092 82.618128" xmlns="http://www.w3.org/2000/svg" version="1.1">
 <metadata>
  <rdf:RDF xmlns:dc="http://purl.org/dc/elements/1.1/" xmlns:cc="http://creativecommons.org/ns#" xmlns:rdf="http://www.w3.org/1999/02/22-rdf-syntax-ns#">
   <cc:Work>
    <dc:type rdf:resource="http://purl.org/dc/dcmitype/StillImage"/>
    <dc:date>2026-04-30T17:21:25.402736</dc:date>
    <dc:format>image/svg+xml</dc:format>
    <dc:creator>
     <cc:Agent>
      <dc:title>Matplotlib v3.10.9, https://matplotlib.org/</dc:title>
     </cc:Agent>
    </dc:creator>
   </cc:Work>
  </rdf:RDF>
 </metadata>
 <defs>
  <style type="text/css">*{stroke-linejoin: round; stroke-linecap: butt}</style>
 </defs>
 <g id="figure_1">
  <g id="patch_1">
   <path d="M 0 82.618128 
L 263.329092 82.618128 
L 263.329092 0 
L 0 0 
L 0 82.618128 
z
" style="fill: none"/>
  </g>
  <g id="axes_1">
   <g id="patch_2">
    <path d="M 26.480242 60.35625 
L 112.698992 60.35625 
L 112.698992 7.2 
L 26.480242 7.2 
L 26.480242 60.35625 
z
" style="fill: none"/>
   </g>
   <g id="matplotlib.axis_1">
    <g id="xtick_1">
     <g id="line2d_1">
      <path d="M 30.399276 60.35625 
L 30.399276 7.2 
" clip-path="url(#p499032094b)" style="fill: none; stroke-dasharray: 2.96,1.28; stroke-dashoffset: 0; stroke: #dddfe5; stroke-width: 0.8"/>
     </g>
     <g id="line2d_2">
      <defs>
       <path id="m2347f17aed" d="M 0 0 
L 0 3.5 
" style="stroke: #4d4f53; stroke-width: 0.8"/>
      </defs>
      <g>
       <use xlink:href="#m2347f17aed" x="30.399276" y="60.35625" style="fill: #4d4f53; stroke: #4d4f53; stroke-width: 0.8"/>
      </g>
     </g>
     <g id="text_1">
      <!-- 0 -->
      <g style="fill: #4d4f53" transform="translate(27.749295 73.685748) scale(0.0833 -0.0833)">
       <defs>
        <path id="DejaVuSans-30" d="M 2034 4250 
Q 1547 4250 1301 3770 
Q 1056 3291 1056 2328 
Q 1056 1369 1301 889 
Q 1547 409 2034 409 
Q 2525 409 2770 889 
Q 3016 1369 3016 2328 
Q 3016 3291 2770 3770 
Q 2525 4250 2034 4250 
z
M 2034 4750 
Q 2819 4750 3233 4129 
Q 3647 3509 3647 2328 
Q 3647 1150 3233 529 
Q 2819 -91 2034 -91 
Q 1250 -91 836 529 
Q 422 1150 422 2328 
Q 422 3509 836 4129 
Q 1250 4750 2034 4750 
z
" transform="scale(0.015625)"/>
       </defs>
       <use xlink:href="#DejaVuSans-30"/>
      </g>
     </g>
    </g>
    <g id="xtick_2">
     <g id="line2d_3">
      <path d="M 71.981519 60.35625 
L 71.981519 7.2 
" clip-path="url(#p499032094b)" style="fill: none; stroke-dasharray: 2.96,1.28; stroke-dashoffset: 0; stroke: #dddfe5; stroke-width: 0.8"/>
     </g>
     <g id="line2d_4">
      <g>
       <use xlink:href="#m2347f17aed" x="71.981519" y="60.35625" style="fill: #4d4f53; stroke: #4d4f53; stroke-width: 0.8"/>
      </g>
     </g>
     <g id="text_2">
      <!-- 5 -->
      <g style="fill: #4d4f53" transform="translate(69.331538 73.685748) scale(0.0833 -0.0833)">
       <defs>
        <path id="DejaVuSans-35" d="M 691 4666 
L 3169 4666 
L 3169 4134 
L 1269 4134 
L 1269 2991 
Q 1406 3038 1543 3061 
Q 1681 3084 1819 3084 
Q 2600 3084 3056 2656 
Q 3513 2228 3513 1497 
Q 3513 744 3044 326 
Q 2575 -91 1722 -91 
Q 1428 -91 1123 -41 
Q 819 9 494 109 
L 494 744 
Q 775 591 1075 516 
Q 1375 441 1709 441 
Q 2250 441 2565 725 
Q 2881 1009 2881 1497 
Q 2881 1984 2565 2268 
Q 2250 2553 1709 2553 
Q 1456 2553 1204 2497 
Q 953 2441 691 2322 
L 691 4666 
z
" transform="scale(0.015625)"/>
       </defs>
       <use xlink:href="#DejaVuSans-35"/>
      </g>
     </g>
    </g>
   </g>
   <g id="matplotlib.axis_2">
    <g id="ytick_1">
     <g id="line2d_5">
      <path d="M 26.480242 57.961432 
L 112.698992 57.961432 
" clip-path="url(#p499032094b)" style="fill: none; stroke-dasharray: 2.96,1.28; stroke-dashoffset: 0; stroke: #dddfe5; stroke-width: 0.8"/>
     </g>
     <g id="line2d_6">
      <defs>
       <path id="mc0efd629d1" d="M 0 0 
L -3.5 0 
" style="stroke: #4d4f53; stroke-width: 0.8"/>
      </defs>
      <g>
       <use xlink:href="#mc0efd629d1" x="26.480242" y="57.961432" style="fill: #4d4f53; stroke: #4d4f53; stroke-width: 0.8"/>
      </g>
     </g>
     <g id="text_3">
      <!-- −1 -->
      <g style="fill: #4d4f53" transform="translate(7.2 61.126181) scale(0.0833 -0.0833)">
       <defs>
        <path id="DejaVuSans-2212" d="M 678 2272 
L 4684 2272 
L 4684 1741 
L 678 1741 
L 678 2272 
z
" transform="scale(0.015625)"/>
        <path id="DejaVuSans-31" d="M 794 531 
L 1825 531 
L 1825 4091 
L 703 3866 
L 703 4441 
L 1819 4666 
L 2450 4666 
L 2450 531 
L 3481 531 
L 3481 0 
L 794 0 
L 794 531 
z
" transform="scale(0.015625)"/>
       </defs>
       <use xlink:href="#DejaVuSans-2212"/>
       <use xlink:href="#DejaVuSans-31" transform="translate(83.789062 0)"/>
      </g>
     </g>
    </g>
    <g id="ytick_2">
     <g id="line2d_7">
      <path d="M 26.480242 34.935564 
L 112.698992 34.935564 
" clip-path="url(#p499032094b)" style="fill: none; stroke-dasharray: 2.96,1.28; stroke-dashoffset: 0; stroke: #dddfe5; stroke-width: 0.8"/>
     </g>
     <g id="line2d_8">
      <g>
       <use xlink:href="#mc0efd629d1" x="26.480242" y="34.935564" style="fill: #4d4f53; stroke: #4d4f53; stroke-width: 0.8"/>
      </g>
     </g>
     <g id="text_4">
      <!-- 0 -->
      <g style="fill: #4d4f53" transform="translate(14.18028 38.100313) scale(0.0833 -0.0833)">
       <use xlink:href="#DejaVuSans-30"/>
      </g>
     </g>
    </g>
    <g id="ytick_3">
     <g id="line2d_9">
      <path d="M 26.480242 11.909696 
L 112.698992 11.909696 
" clip-path="url(#p499032094b)" style="fill: none; stroke-dasharray: 2.96,1.28; stroke-dashoffset: 0; stroke: #dddfe5; stroke-width: 0.8"/>
     </g>
     <g id="line2d_10">
      <g>
       <use xlink:href="#mc0efd629d1" x="26.480242" y="11.909696" style="fill: #4d4f53; stroke: #4d4f53; stroke-width: 0.8"/>
      </g>
     </g>
     <g id="text_5">
      <!-- 1 -->
      <g style="fill: #4d4f53" transform="translate(14.18028 15.074445) scale(0.0833 -0.0833)">
       <use xlink:href="#DejaVuSans-31"/>
      </g>
     </g>
    </g>
   </g>
   <g id="line2d_11">
    <path d="M 30.399276 17.685126 
L 31.027578 15.723414 
L 31.184654 16.046371 
L 31.341729 14.140978 
L 31.498805 14.446729 
L 31.65588 15.620974 
L 31.970031 13.964306 
L 32.127107 14.896474 
L 32.284182 12.699716 
L 32.441258 13.730974 
L 32.755409 12.518916 
L 32.912485 13.324541 
L 33.226636 12.451241 
L 33.383711 11.877549 
L 33.540787 13.034431 
L 33.697862 12.64997 
L 33.854938 11.6246 
L 34.012013 11.879455 
L 34.169089 12.488684 
L 34.326164 11.826337 
L 34.48324 12.204647 
L 34.797391 10.54194 
L 34.954466 11.941616 
L 35.111542 10.081447 
L 35.268617 11.232052 
L 35.425693 10.984948 
L 35.582768 10.912057 
L 35.739844 12.001242 
L 36.053995 9.675237 
L 36.368146 11.628402 
L 36.682297 10.314211 
L 36.839372 11.911259 
L 36.996448 11.083498 
L 37.153523 11.822512 
L 37.310599 10.172254 
L 37.467674 11.224723 
L 37.62475 10.460974 
L 37.781825 11.00415 
L 37.938901 9.959911 
L 38.410128 11.143091 
L 38.567203 10.243429 
L 38.881354 12.724946 
L 39.03843 12.673929 
L 39.195505 10.845652 
L 39.352581 10.902868 
L 39.666732 12.655778 
L 39.823807 11.936134 
L 39.980883 13.74286 
L 40.137958 12.193018 
L 40.295034 12.579327 
L 40.452109 13.87661 
L 40.76626 12.61886 
L 40.923336 14.5552 
L 41.080411 13.050632 
L 41.237487 14.626342 
L 41.394562 13.993571 
L 41.551638 15.234607 
L 41.708713 14.897452 
L 41.865789 15.937055 
L 42.022864 15.528358 
L 42.337015 16.233008 
L 42.494091 15.600755 
L 42.651166 16.573638 
L 42.808242 16.334421 
L 42.965317 16.473053 
L 43.122393 17.793261 
L 43.279468 16.817565 
L 43.907771 19.129428 
L 44.064846 18.461434 
L 44.536073 21.036871 
L 44.693148 19.761031 
L 45.164375 22.494014 
L 45.32145 22.422652 
L 45.792677 24.270901 
L 45.949752 23.375549 
L 46.106828 25.279591 
L 46.263903 25.201957 
L 46.578054 24.393101 
L 46.892205 26.421718 
L 47.049281 25.805769 
L 47.206356 25.900472 
L 47.520507 28.124368 
L 47.677583 27.834698 
L 47.991734 30.219009 
L 48.148809 29.915357 
L 48.305885 30.031357 
L 48.46296 31.466113 
L 48.620036 29.901073 
L 49.562489 34.320455 
L 49.719565 34.495973 
L 49.87664 33.908416 
L 50.033716 34.805786 
L 50.190791 34.191746 
L 50.662018 37.216989 
L 50.976169 37.512525 
L 51.133244 38.761204 
L 51.29032 37.901046 
L 51.447395 39.656976 
L 51.604471 38.549358 
L 51.761546 39.118093 
L 51.918622 41.038037 
L 52.075697 39.719174 
L 52.232773 41.112526 
L 52.389848 40.518266 
L 52.861075 43.133137 
L 53.01815 41.982556 
L 53.175226 43.705977 
L 53.332301 43.010515 
L 53.489377 43.819654 
L 53.646452 43.432679 
L 54.117679 46.46106 
L 54.274755 44.818816 
L 54.588906 47.4114 
L 54.745981 46.555534 
L 55.060132 47.546589 
L 55.217208 47.072453 
L 55.374283 47.429025 
L 55.531359 49.227545 
L 55.688434 48.504782 
L 56.159661 50.980322 
L 56.316736 50.948894 
L 56.473812 50.247977 
L 56.630887 51.357917 
L 56.787963 51.285997 
L 56.945038 51.790796 
L 57.102114 51.712768 
L 57.259189 51.624789 
L 57.416265 51.210242 
L 57.57334 53.576814 
L 57.730416 52.621892 
L 57.887491 52.670587 
L 58.044567 54.017583 
L 58.201642 52.939083 
L 58.358718 53.962582 
L 58.515793 53.871529 
L 58.672869 53.926067 
L 58.829944 53.512028 
L 59.144095 54.389251 
L 59.458246 56.082135 
L 59.772398 54.704333 
L 59.929473 55.036699 
L 60.086549 56.343357 
L 60.243624 56.303068 
L 60.4007 56.557999 
L 60.714851 55.770787 
L 61.029002 56.827976 
L 61.343153 55.673601 
L 61.500228 56.443996 
L 61.657304 56.0979 
L 61.814379 56.820406 
L 62.12853 56.00037 
L 62.285606 57.888417 
L 62.442681 56.258459 
L 62.599757 56.306467 
L 62.913908 56.146609 
L 63.070983 55.785642 
L 63.385134 57.461253 
L 63.699285 55.529144 
L 64.013436 55.701665 
L 64.327587 57.527058 
L 64.641738 55.675326 
L 64.798814 55.630893 
L 64.95589 56.789927 
L 65.112965 56.760382 
L 65.270041 56.537844 
L 65.427116 54.877758 
L 65.741267 56.069404 
L 65.898343 54.870671 
L 66.055418 56.072031 
L 66.212494 55.770714 
L 66.369569 55.550299 
L 66.68372 54.004043 
L 66.840796 53.902063 
L 67.154947 53.082625 
L 67.469098 54.141079 
L 67.626173 52.952531 
L 67.783249 53.139367 
L 67.940324 52.993577 
L 68.411551 50.728955 
L 68.568626 51.49578 
L 68.882777 50.105277 
L 69.039853 50.775738 
L 69.354004 48.794954 
L 69.511079 50.264275 
L 69.82523 48.446668 
L 69.982306 49.468794 
L 70.296457 47.403604 
L 71.553061 44.28657 
L 71.710137 45.315781 
L 71.867212 43.915965 
L 72.024288 44.639163 
L 72.181363 42.767692 
L 72.338439 44.190157 
L 72.65259 43.417018 
L 72.966741 41.423716 
L 73.123816 42.173309 
L 73.280892 41.762152 
L 73.595043 39.264413 
L 73.752118 40.034827 
L 74.066269 37.776572 
L 74.223345 37.382035 
L 74.38042 37.588313 
L 74.851647 35.874303 
L 75.008722 36.205539 
L 75.479949 33.964565 
L 75.637025 34.602264 
L 75.7941 33.765834 
L 75.951176 34.095253 
L 76.579478 31.315124 
L 76.736553 32.255128 
L 76.893629 31.684176 
L 77.050704 29.76078 
L 77.20778 30.056284 
L 77.364855 28.415133 
L 77.521931 29.939312 
L 78.150233 26.281476 
L 78.307308 27.666951 
L 78.621459 25.805777 
L 78.778535 26.244653 
L 78.93561 26.368706 
L 79.092686 24.734607 
L 79.249761 25.241833 
L 79.406837 23.459916 
L 79.563912 24.008588 
L 79.720988 23.743209 
L 80.035139 22.288697 
L 80.192214 22.632004 
L 80.34929 21.253528 
L 80.506365 21.677837 
L 80.663441 20.479742 
L 80.820516 21.778776 
L 80.977592 19.429696 
L 81.134668 19.685285 
L 81.291743 19.785169 
L 81.448819 20.435467 
L 81.920045 17.357204 
L 82.234196 17.56731 
L 82.391272 17.597585 
L 82.548347 16.324295 
L 82.705423 16.613851 
L 82.862498 15.947109 
L 83.176649 16.835559 
L 83.333725 14.54811 
L 83.4908 16.486754 
L 83.804951 15.094559 
L 83.962027 15.254406 
L 84.119102 14.955423 
L 84.433253 13.705842 
L 84.590329 13.495561 
L 84.747404 12.928852 
L 84.90448 13.983203 
L 85.061555 12.225408 
L 85.218631 12.573766 
L 85.375706 13.808992 
L 85.532782 12.365117 
L 85.689857 12.704433 
L 85.846933 12.622111 
L 86.004008 12.806422 
L 86.318159 10.735394 
L 86.475235 12.218449 
L 86.632311 11.229312 
L 87.103537 12.184041 
L 87.260613 11.760734 
L 87.417688 10.261175 
L 87.574764 11.921848 
L 87.888915 10.42386 
L 88.203066 11.361091 
L 88.360141 9.772732 
L 88.517217 9.835107 
L 88.674292 10.510916 
L 88.988443 9.640276 
L 89.145519 9.900705 
L 89.302594 10.786059 
L 89.45967 10.098529 
L 89.616745 10.169667 
L 89.773821 11.636449 
L 89.930896 10.697955 
L 90.087972 11.930567 
L 90.245047 11.696552 
L 90.402123 11.969199 
L 90.716274 11.430342 
L 90.873349 11.891691 
L 91.1875 10.790113 
L 91.501651 12.919778 
L 91.658727 11.100725 
L 91.815803 12.55532 
L 92.129954 11.508743 
L 92.287029 11.961462 
L 92.444105 13.85835 
L 92.60118 13.260154 
L 92.758256 13.788836 
L 92.915331 13.09659 
L 93.072407 13.467682 
L 93.229482 12.869429 
L 93.386558 14.314893 
L 93.543633 13.521311 
L 94.01486 15.52201 
L 94.171935 14.807799 
L 94.329011 15.378232 
L 94.486086 14.725788 
L 94.800237 16.975365 
L 94.957313 16.208872 
L 95.114388 16.576913 
L 95.271464 16.281541 
L 95.428539 16.582253 
L 95.585615 18.433639 
L 95.74269 18.096016 
L 96.370992 20.458356 
L 96.528068 18.75189 
L 97.313446 21.225101 
L 97.470521 22.651793 
L 97.627597 21.405651 
L 97.784672 23.829134 
L 97.941748 22.846117 
L 98.098823 24.597844 
L 98.255899 22.839283 
L 99.041276 26.734229 
L 99.198352 25.587423 
L 99.512503 28.020852 
L 99.669578 27.950293 
L 99.826654 26.887665 
L 100.29788 29.858766 
L 100.454956 29.062377 
L 100.612031 30.953993 
L 100.769107 30.711093 
L 100.926182 30.15303 
L 101.083258 32.551994 
L 101.397409 31.196508 
L 101.554484 33.348335 
L 101.71156 32.614134 
L 102.025711 33.183234 
L 102.496938 36.30547 
L 102.654013 35.638928 
L 103.12524 36.965169 
L 103.439391 38.681419 
L 103.753542 37.637881 
L 104.381844 40.946621 
L 104.538919 39.894674 
L 105.010146 43.030251 
L 105.167221 42.500547 
L 105.324297 43.861577 
L 105.481372 42.885237 
L 105.638448 44.53906 
L 105.795523 44.164433 
L 105.952599 45.063865 
L 106.109674 43.715535 
L 106.26675 45.768762 
L 106.423825 45.423925 
L 106.580901 47.109066 
L 106.737976 46.101681 
L 107.209203 47.653456 
L 107.366278 46.88166 
L 107.523354 48.84967 
L 107.680429 48.012434 
L 107.837505 48.151481 
L 108.308732 49.294197 
L 108.622883 51.325922 
L 108.779958 49.724405 
L 108.779958 49.724405 
" clip-path="url(#p499032094b)" style="fill: none; stroke: #3362b0; stroke-width: 1.5; stroke-linecap: square"/>
   </g>
   <g id="line2d_12">
    <path d="M 30.399276 11.498302 
L 30.556352 10.164087 
L 30.713427 10.288209 
L 30.870503 11.687069 
L 31.027578 10.305127 
L 31.184654 11.64681 
L 31.341729 11.611688 
L 31.65588 11.536269 
L 31.812956 12.265078 
L 31.970031 11.85263 
L 32.127107 12.473792 
L 32.284182 12.316434 
L 32.441258 11.321397 
L 32.755409 13.35575 
L 32.912485 12.185572 
L 33.06956 13.372859 
L 33.383711 12.119337 
L 33.697862 14.426385 
L 33.854938 14.037583 
L 34.012013 14.3133 
L 34.326164 15.550342 
L 34.48324 14.386127 
L 34.640315 14.955222 
L 34.797391 14.330506 
L 35.111542 15.421687 
L 35.582768 17.768679 
L 35.739844 17.565068 
L 35.896919 17.048424 
L 36.053995 18.595275 
L 36.368146 17.681694 
L 36.525221 19.648469 
L 36.682297 18.019537 
L 37.62475 21.534068 
L 37.781825 20.936 
L 37.938901 22.794236 
L 38.095976 21.076953 
L 38.410128 23.922731 
L 38.567203 24.034803 
L 38.724279 22.739801 
L 39.03843 24.92123 
L 39.195505 24.926414 
L 39.352581 26.197185 
L 39.509656 24.932453 
L 39.666732 26.445904 
L 39.823807 25.738653 
L 40.137958 28.236455 
L 40.295034 26.923185 
L 40.76626 29.529474 
L 40.923336 28.330953 
L 41.080411 29.828962 
L 41.237487 29.253633 
L 41.708713 31.469717 
L 41.865789 30.83815 
L 42.022864 33.390176 
L 42.17994 31.95768 
L 42.337015 34.287496 
L 42.494091 33.918436 
L 42.651166 33.95046 
L 43.59362 37.172094 
L 43.750695 36.244794 
L 43.907771 36.931271 
L 44.221922 39.369886 
L 44.378997 38.812776 
L 44.693148 40.14201 
L 45.007299 40.889833 
L 45.32145 40.270738 
L 45.792677 42.932461 
L 45.949752 43.300961 
L 46.106828 42.457475 
L 46.420979 45.168981 
L 46.578054 44.54829 
L 46.892205 46.273878 
L 47.049281 44.620742 
L 47.206356 46.152767 
L 47.363432 45.407592 
L 47.991734 48.80934 
L 48.148809 47.688355 
L 48.305885 48.974784 
L 48.46296 48.217105 
L 48.620036 49.619749 
L 48.777111 49.510479 
L 48.934187 49.510376 
L 49.091263 50.877612 
L 49.248338 50.13051 
L 49.405414 51.615432 
L 49.562489 51.347859 
L 49.719565 51.525806 
L 49.87664 52.181571 
L 50.033716 50.73801 
L 50.190791 53.126901 
L 50.347867 51.480963 
L 50.504942 52.320024 
L 50.662018 51.816309 
L 50.819093 52.927004 
L 50.976169 52.863825 
L 51.133244 52.755081 
L 51.29032 53.097497 
L 51.447395 54.705169 
L 51.604471 54.165375 
L 51.761546 54.787029 
L 51.918622 53.584761 
L 52.232773 54.910385 
L 52.389848 54.746129 
L 52.546924 56.140318 
L 52.703999 54.628528 
L 53.01815 56.669804 
L 53.332301 55.672271 
L 53.646452 57.163291 
L 53.803528 55.20313 
L 54.117679 57.249801 
L 54.274755 56.183136 
L 54.43183 57.4708 
L 54.588906 57.414308 
L 54.745981 57.569894 
L 55.060132 55.673357 
L 55.374283 57.658745 
L 55.531359 57.576463 
L 55.84551 56.367224 
L 56.002585 56.511324 
L 56.159661 57.847447 
L 56.316736 56.520484 
L 56.473812 57.730613 
L 56.630887 56.316304 
L 56.787963 56.936264 
L 56.945038 55.445133 
L 57.102114 55.566323 
L 57.259189 55.763299 
L 57.416265 55.502295 
L 57.887491 56.845351 
L 58.044567 55.823374 
L 58.201642 56.421911 
L 58.358718 54.896071 
L 58.515793 56.21489 
L 58.672869 56.120221 
L 58.98702 53.9104 
L 59.301171 55.369533 
L 59.458246 54.259146 
L 59.615322 54.973016 
L 59.772398 54.413317 
L 59.929473 52.755538 
L 60.086549 54.526622 
L 60.243624 54.344717 
L 60.4007 53.968691 
L 60.557775 52.916929 
L 60.714851 53.255714 
L 60.871926 51.390609 
L 61.029002 52.402926 
L 61.500228 51.054643 
L 61.657304 50.096932 
L 61.814379 51.471244 
L 62.12853 49.455375 
L 62.285606 49.203738 
L 62.442681 50.214674 
L 62.756832 48.575946 
L 62.913908 49.487641 
L 63.228059 47.197257 
L 63.385134 48.477784 
L 63.699285 46.473976 
L 63.856361 47.018597 
L 64.013436 46.969251 
L 64.327587 44.585875 
L 64.484663 44.688277 
L 64.641738 45.075252 
L 64.95589 44.523747 
L 65.112965 43.305064 
L 65.270041 43.797114 
L 65.741267 42.644552 
L 65.898343 40.916425 
L 66.055418 41.085333 
L 66.526645 39.130273 
L 66.68372 39.20778 
L 66.997871 37.296145 
L 67.154947 38.549919 
L 67.312022 38.129803 
L 67.783249 35.591137 
L 67.940324 35.037495 
L 68.254475 35.944803 
L 68.568626 33.13635 
L 69.511079 30.368552 
L 69.668155 31.117847 
L 69.82523 29.78156 
L 69.982306 30.702967 
L 70.296457 28.301899 
L 70.453533 29.19148 
L 70.610608 28.868737 
L 70.924759 26.964587 
L 71.081835 27.245178 
L 71.395986 25.939918 
L 71.553061 27.061989 
L 72.024288 23.927759 
L 72.181363 24.963009 
L 72.495514 22.391643 
L 72.809665 23.485046 
L 73.123816 20.879011 
L 73.437967 22.017147 
L 73.752118 19.829571 
L 73.909194 21.342931 
L 74.223345 18.853025 
L 74.38042 19.259834 
L 74.694571 17.678886 
L 74.851647 17.896474 
L 75.165798 17.244521 
L 75.322873 18.31005 
L 75.637025 16.186179 
L 75.7941 17.287389 
L 75.951176 15.400945 
L 76.265327 16.6583 
L 76.579478 14.95719 
L 76.736553 14.818978 
L 77.050704 15.144486 
L 77.20778 14.20897 
L 77.521931 14.76836 
L 77.679006 12.470459 
L 77.836082 13.422485 
L 77.993157 12.097377 
L 78.307308 12.993426 
L 78.621459 11.471723 
L 78.778535 12.927045 
L 78.93561 12.621516 
L 79.092686 11.959211 
L 79.249761 12.406626 
L 79.406837 11.652652 
L 79.563912 11.732403 
L 79.720988 11.800816 
L 79.878063 11.583639 
L 80.035139 10.09043 
L 80.34929 12.119842 
L 80.506365 9.856636 
L 80.663441 10.225027 
L 80.820516 11.299431 
L 80.977592 11.027676 
L 81.134668 10.266959 
L 81.291743 11.14681 
L 81.448819 10.946226 
L 81.605894 11.105636 
L 81.920045 10.694018 
L 82.077121 9.748264 
L 82.234196 11.300851 
L 82.391272 10.258175 
L 82.705423 11.767794 
L 83.019574 10.271521 
L 83.176649 11.52893 
L 83.333725 10.344225 
L 83.4908 11.965985 
L 83.647876 11.755987 
L 83.962027 11.026727 
L 84.119102 11.311156 
L 84.276178 12.401043 
L 84.433253 11.447532 
L 84.747404 12.894442 
L 84.90448 13.34678 
L 85.061555 12.9267 
L 85.218631 11.910015 
L 85.375706 12.268098 
L 85.689857 13.869679 
L 86.004008 12.63464 
L 86.475235 15.498727 
L 86.632311 14.722962 
L 86.946462 15.973025 
L 87.103537 14.646171 
L 87.260613 14.805045 
L 87.417688 15.517628 
L 87.574764 17.351647 
L 87.731839 16.919822 
L 87.888915 15.846207 
L 88.04599 15.979899 
L 88.517217 17.88911 
L 88.831368 18.899947 
L 88.988443 18.687399 
L 89.145519 20.371472 
L 89.45967 19.385123 
L 89.616745 21.178852 
L 89.773821 21.096399 
L 90.087972 22.454968 
L 90.245047 22.443281 
L 90.402123 23.291037 
L 90.559198 21.848243 
L 90.873349 22.974319 
L 91.030425 22.661981 
L 91.1875 24.196518 
L 91.344576 24.164957 
L 91.501651 24.314182 
L 91.658727 26.184401 
L 91.815803 25.305522 
L 91.972878 25.60538 
L 92.129954 26.464561 
L 92.287029 26.034537 
L 92.444105 27.435221 
L 92.60118 26.99992 
L 93.386558 29.133584 
L 93.700709 30.921295 
L 93.857784 30.643052 
L 94.329011 33.183987 
L 94.486086 33.152808 
L 95.271464 36.244363 
L 95.428539 34.726328 
L 95.585615 36.572508 
L 95.74269 36.551318 
L 96.056841 38.18645 
L 96.213917 36.644445 
L 96.685143 39.475532 
L 97.313446 41.495137 
L 97.470521 40.007463 
L 97.784672 42.198887 
L 97.941748 41.607658 
L 98.098823 41.82663 
L 98.255899 44.261079 
L 98.412974 43.51064 
L 98.57005 44.938863 
L 98.884201 43.964108 
L 99.355427 45.364847 
L 99.512503 45.480717 
L 100.140805 47.984912 
L 100.29788 48.841664 
L 100.612031 48.10641 
L 100.769107 48.166708 
L 101.083258 50.704788 
L 101.240333 50.078929 
L 101.71156 51.755818 
L 101.868635 50.592789 
L 102.025711 52.276149 
L 102.339862 50.858916 
L 102.496938 51.37503 
L 102.811089 53.710614 
L 102.968164 52.778491 
L 103.439391 53.908687 
L 103.596466 52.913277 
L 103.753542 54.784477 
L 103.910617 53.420153 
L 104.067693 53.455115 
L 104.224768 53.724828 
L 104.538919 55.343452 
L 104.695995 54.190972 
L 104.85307 54.364569 
L 105.167221 56.407611 
L 105.324297 55.345158 
L 105.481372 56.033343 
L 105.638448 55.925797 
L 105.795523 55.754496 
L 105.952599 55.182062 
L 106.26675 56.566289 
L 106.423825 57.042126 
L 106.737976 56.453501 
L 106.895052 56.626779 
L 107.052127 57.55102 
L 107.209203 55.86754 
L 107.523354 57.940057 
L 107.680429 57.036957 
L 107.994581 57.862556 
L 108.465807 56.051468 
L 108.622883 56.427486 
L 108.779958 57.364687 
L 108.779958 57.364687 
" clip-path="url(#p499032094b)" style="fill: none; stroke: #cc3164; stroke-width: 1.5; stroke-linecap: square"/>
   </g>
   <g id="patch_3">
    <path d="M 26.480242 60.35625 
L 26.480242 7.2 
" style="fill: none; stroke: #4d4f53; stroke-width: 0.8; stroke-linejoin: miter; stroke-linecap: square"/>
   </g>
   <g id="patch_4">
    <path d="M 112.698992 60.35625 
L 112.698992 7.2 
" style="fill: none; stroke: #4d4f53; stroke-width: 0.8; stroke-linejoin: miter; stroke-linecap: square"/>
   </g>
   <g id="patch_5">
    <path d="M 26.480242 60.35625 
L 112.698992 60.35625 
" style="fill: none; stroke: #4d4f53; stroke-width: 0.8; stroke-linejoin: miter; stroke-linecap: square"/>
   </g>
   <g id="patch_6">
    <path d="M 26.480242 7.2 
L 112.698992 7.2 
" style="fill: none; stroke: #4d4f53; stroke-width: 0.8; stroke-linejoin: miter; stroke-linecap: square"/>
   </g>
  </g>
  <g id="axes_2">
   <g id="patch_7">
    <path d="M 134.25368 60.35625 
L 220.47243 60.35625 
L 220.47243 7.2 
L 134.25368 7.2 
L 134.25368 60.35625 
z
" style="fill: none"/>
   </g>
   <g id="matplotlib.axis_3">
    <g id="xtick_3">
     <g id="line2d_13">
      <path d="M 138.172714 60.35625 
L 138.172714 7.2 
" clip-path="url(#p3e234b21bd)" style="fill: none; stroke-dasharray: 2.96,1.28; stroke-dashoffset: 0; stroke: #dddfe5; stroke-width: 0.8"/>
     </g>
     <g id="line2d_14">
      <g>
       <use xlink:href="#m2347f17aed" x="138.172714" y="60.35625" style="fill: #4d4f53; stroke: #4d4f53; stroke-width: 0.8"/>
      </g>
     </g>
     <g id="text_6">
      <!-- 0 -->
      <g style="fill: #4d4f53" transform="translate(135.522733 73.685748) scale(0.0833 -0.0833)">
       <use xlink:href="#DejaVuSans-30"/>
      </g>
     </g>
    </g>
    <g id="xtick_4">
     <g id="line2d_15">
      <path d="M 179.754957 60.35625 
L 179.754957 7.2 
" clip-path="url(#p3e234b21bd)" style="fill: none; stroke-dasharray: 2.96,1.28; stroke-dashoffset: 0; stroke: #dddfe5; stroke-width: 0.8"/>
     </g>
     <g id="line2d_16">
      <g>
       <use xlink:href="#m2347f17aed" x="179.754957" y="60.35625" style="fill: #4d4f53; stroke: #4d4f53; stroke-width: 0.8"/>
      </g>
     </g>
     <g id="text_7">
      <!-- 5 -->
      <g style="fill: #4d4f53" transform="translate(177.104976 73.685748) scale(0.0833 -0.0833)">
       <use xlink:href="#DejaVuSans-35"/>
      </g>
     </g>
    </g>
   </g>
   <g id="matplotlib.axis_4">
    <g id="ytick_4">
     <g id="line2d_17">
      <path d="M 134.25368 57.961432 
L 220.47243 57.961432 
" clip-path="url(#p3e234b21bd)" style="fill: none; stroke-dasharray: 2.96,1.28; stroke-dashoffset: 0; stroke: #dddfe5; stroke-width: 0.8"/>
     </g>
     <g id="line2d_18">
      <g>
       <use xlink:href="#mc0efd629d1" x="134.25368" y="57.961432" style="fill: #4d4f53; stroke: #4d4f53; stroke-width: 0.8"/>
      </g>
     </g>
     <g id="text_8">
      <!-- −1 -->
      <g style="fill: #4d4f53" transform="translate(114.973438 61.126181) scale(0.0833 -0.0833)">
       <use xlink:href="#DejaVuSans-2212"/>
       <use xlink:href="#DejaVuSans-31" transform="translate(83.789062 0)"/>
      </g>
     </g>
    </g>
    <g id="ytick_5">
     <g id="line2d_19">
      <path d="M 134.25368 34.935564 
L 220.47243 34.935564 
" clip-path="url(#p3e234b21bd)" style="fill: none; stroke-dasharray: 2.96,1.28; stroke-dashoffset: 0; stroke: #dddfe5; stroke-width: 0.8"/>
     </g>
     <g id="line2d_20">
      <g>
       <use xlink:href="#mc0efd629d1" x="134.25368" y="34.935564" style="fill: #4d4f53; stroke: #4d4f53; stroke-width: 0.8"/>
      </g>
     </g>
     <g id="text_9">
      <!-- 0 -->
      <g style="fill: #4d4f53" transform="translate(121.953717 38.100313) scale(0.0833 -0.0833)">
       <use xlink:href="#DejaVuSans-30"/>
      </g>
     </g>
    </g>
    <g id="ytick_6">
     <g id="line2d_21">
      <path d="M 134.25368 11.909696 
L 220.47243 11.909696 
" clip-path="url(#p3e234b21bd)" style="fill: none; stroke-dasharray: 2.96,1.28; stroke-dashoffset: 0; stroke: #dddfe5; stroke-width: 0.8"/>
     </g>
     <g id="line2d_22">
      <g>
       <use xlink:href="#mc0efd629d1" x="134.25368" y="11.909696" style="fill: #4d4f53; stroke: #4d4f53; stroke-width: 0.8"/>
      </g>
     </g>
     <g id="text_10">
      <!-- 1 -->
      <g style="fill: #4d4f53" transform="translate(121.953717 15.074445) scale(0.0833 -0.0833)">
       <use xlink:href="#DejaVuSans-31"/>
      </g>
     </g>
    </g>
   </g>
   <g id="line2d_23">
    <path d="M 138.172714 17.685126 
L 138.801016 15.723414 
L 138.958091 16.046371 
L 139.115167 14.140978 
L 139.272242 14.446729 
L 139.429318 15.620974 
L 139.743469 13.964306 
L 139.900544 14.896474 
L 140.05762 12.699716 
L 140.214695 13.730974 
L 140.528846 12.518916 
L 140.685922 13.324541 
L 141.000073 12.451241 
L 141.157149 11.877549 
L 141.314224 13.034431 
L 141.4713 12.64997 
L 141.628375 11.6246 
L 141.785451 11.879455 
L 141.942526 12.488684 
L 142.099602 11.826337 
L 142.256677 12.204647 
L 142.570828 10.54194 
L 142.727904 11.941616 
L 142.884979 10.081447 
L 143.042055 11.232052 
L 143.19913 10.984948 
L 143.356206 10.912057 
L 143.513281 12.001242 
L 143.827432 9.675237 
L 144.141583 11.628402 
L 144.455734 10.314211 
L 144.61281 11.911259 
L 144.769885 11.083498 
L 144.926961 11.822512 
L 145.084036 10.172254 
L 145.241112 11.224723 
L 145.398187 10.460974 
L 145.555263 11.00415 
L 145.712338 9.959911 
L 146.183565 11.143091 
L 146.340641 10.243429 
L 146.654792 12.724946 
L 146.811867 12.673929 
L 146.968943 10.845652 
L 147.126018 10.902868 
L 147.440169 12.655778 
L 147.597245 11.936134 
L 147.75432 13.74286 
L 147.911396 12.193018 
L 148.068471 12.579327 
L 148.225547 13.87661 
L 148.539698 12.61886 
L 148.696773 14.5552 
L 148.853849 13.050632 
L 149.010924 14.626342 
L 149.168 13.993571 
L 149.325075 15.234607 
L 149.482151 14.897452 
L 149.639226 15.937055 
L 149.796302 15.528358 
L 150.110453 16.233008 
L 150.267528 15.600755 
L 150.424604 16.573638 
L 150.581679 16.334421 
L 150.738755 16.473053 
L 150.89583 17.793261 
L 151.052906 16.817565 
L 151.681208 19.129428 
L 151.838284 18.461434 
L 152.30951 21.036871 
L 152.466586 19.761031 
L 152.937812 22.494014 
L 153.094888 22.422652 
L 153.566114 24.270901 
L 153.72319 23.375549 
L 153.880265 25.279591 
L 154.037341 25.201957 
L 154.351492 24.393101 
L 154.665643 26.421718 
L 154.822718 25.805769 
L 154.979794 25.900472 
L 155.293945 28.124368 
L 155.45102 27.834698 
L 155.765171 30.219009 
L 155.922247 29.915357 
L 156.079322 30.031357 
L 156.236398 31.466113 
L 156.393473 29.901073 
L 157.335927 34.320455 
L 157.493002 34.495973 
L 157.650078 33.908416 
L 157.807153 34.805786 
L 157.964229 34.191746 
L 158.435455 37.216989 
L 158.749606 37.512525 
L 158.906682 38.761204 
L 159.063757 37.901046 
L 159.220833 39.656976 
L 159.377908 38.549358 
L 159.534984 39.118093 
L 159.692059 41.038037 
L 159.849135 39.719174 
L 160.00621 41.112526 
L 160.163286 40.518266 
L 160.634512 43.133137 
L 160.791588 41.982556 
L 160.948663 43.705977 
L 161.105739 43.010515 
L 161.262814 43.819654 
L 161.41989 43.432679 
L 161.891116 46.46106 
L 162.048192 44.818816 
L 162.362343 47.4114 
L 162.519419 46.555534 
L 162.83357 47.546589 
L 162.990645 47.072453 
L 163.147721 47.429025 
L 163.304796 49.227545 
L 163.461872 48.504782 
L 163.933098 50.980322 
L 164.090174 50.948894 
L 164.247249 50.247977 
L 164.404325 51.357917 
L 164.5614 51.285997 
L 164.718476 51.790796 
L 164.875551 51.712768 
L 165.032627 51.624789 
L 165.189702 51.210242 
L 165.346778 53.576814 
L 165.503853 52.621892 
L 165.660929 52.670587 
L 165.818004 54.017583 
L 165.97508 52.939083 
L 166.132155 53.962582 
L 166.289231 53.871529 
L 166.446306 53.926067 
L 166.603382 53.512028 
L 166.917533 54.389251 
L 167.231684 56.082135 
L 167.545835 54.704333 
L 167.702911 55.036699 
L 167.859986 56.343357 
L 168.017062 56.303068 
L 168.174137 56.557999 
L 168.488288 55.770787 
L 168.802439 56.827976 
L 169.11659 55.673601 
L 169.273666 56.443996 
L 169.430741 56.0979 
L 169.587817 56.820406 
L 169.901968 56.00037 
L 170.059043 57.888417 
L 170.216119 56.258459 
L 170.373194 56.306467 
L 170.687345 56.146609 
L 170.844421 55.785642 
L 171.158572 57.461253 
L 171.472723 55.529144 
L 171.786874 55.701665 
L 172.101025 57.527058 
L 172.415176 55.675326 
L 172.572251 55.630893 
L 172.729327 56.789927 
L 172.886403 56.760382 
L 173.043478 56.537844 
L 173.200554 54.877758 
L 173.514705 56.069404 
L 173.67178 54.870671 
L 173.828856 56.072031 
L 173.985931 55.770714 
L 174.143007 55.550299 
L 174.457158 54.004043 
L 174.614233 53.902063 
L 174.928384 53.082625 
L 175.242535 54.141079 
L 175.399611 52.952531 
L 175.556686 53.139367 
L 175.713762 52.993577 
L 176.184988 50.728955 
L 176.342064 51.49578 
L 176.656215 50.105277 
L 176.81329 50.775738 
L 177.127441 48.794954 
L 177.284517 50.264275 
L 177.598668 48.446668 
L 177.755743 49.468794 
L 178.069895 47.403604 
L 179.326499 44.28657 
L 179.483574 45.315781 
L 179.64065 43.915965 
L 179.797725 44.639163 
L 179.954801 42.767692 
L 180.111876 44.190157 
L 180.426027 43.417018 
L 180.740178 41.423716 
L 180.897254 42.173309 
L 181.054329 41.762152 
L 181.36848 39.264413 
L 181.525556 40.034827 
L 181.839707 37.776572 
L 181.996782 37.382035 
L 182.153858 37.588313 
L 182.625084 35.874303 
L 182.78216 36.205539 
L 183.253386 33.964565 
L 183.410462 34.602264 
L 183.567538 33.765834 
L 183.724613 34.095253 
L 184.352915 31.315124 
L 184.509991 32.255128 
L 184.667066 31.684176 
L 184.824142 29.76078 
L 184.981217 30.056284 
L 185.138293 28.415133 
L 185.295368 29.939312 
L 185.92367 26.281476 
L 186.080746 27.666951 
L 186.394897 25.805777 
L 186.551972 26.244653 
L 186.709048 26.368706 
L 186.866123 24.734607 
L 187.023199 25.241833 
L 187.180274 23.459916 
L 187.33735 24.008588 
L 187.494425 23.743209 
L 187.808576 22.288697 
L 187.965652 22.632004 
L 188.122727 21.253528 
L 188.279803 21.677837 
L 188.436878 20.479742 
L 188.593954 21.778776 
L 188.75103 19.429696 
L 188.908105 19.685285 
L 189.065181 19.785169 
L 189.222256 20.435467 
L 189.693483 17.357204 
L 190.007634 17.56731 
L 190.164709 17.597585 
L 190.321785 16.324295 
L 190.47886 16.613851 
L 190.635936 15.947109 
L 190.950087 16.835559 
L 191.107162 14.54811 
L 191.264238 16.486754 
L 191.578389 15.094559 
L 191.735464 15.254406 
L 191.89254 14.955423 
L 192.206691 13.705842 
L 192.363766 13.495561 
L 192.520842 12.928852 
L 192.677917 13.983203 
L 192.834993 12.225408 
L 192.992068 12.573766 
L 193.149144 13.808992 
L 193.306219 12.365117 
L 193.463295 12.704433 
L 193.62037 12.622111 
L 193.777446 12.806422 
L 194.091597 10.735394 
L 194.248673 12.218449 
L 194.405748 11.229312 
L 194.876975 12.184041 
L 195.03405 11.760734 
L 195.191126 10.261175 
L 195.348201 11.921848 
L 195.662352 10.42386 
L 195.976503 11.361091 
L 196.133579 9.772732 
L 196.290654 9.835107 
L 196.44773 10.510916 
L 196.761881 9.640276 
L 196.918956 9.900705 
L 197.076032 10.786059 
L 197.233107 10.098529 
L 197.390183 10.169667 
L 197.547258 11.636449 
L 197.704334 10.697955 
L 197.861409 11.930567 
L 198.018485 11.696552 
L 198.17556 11.969199 
L 198.489711 11.430342 
L 198.646787 11.891691 
L 198.960938 10.790113 
L 199.275089 12.919778 
L 199.432164 11.100725 
L 199.58924 12.55532 
L 199.903391 11.508743 
L 200.060467 11.961462 
L 200.217542 13.85835 
L 200.374618 13.260154 
L 200.531693 13.788836 
L 200.688769 13.09659 
L 200.845844 13.467682 
L 201.00292 12.869429 
L 201.159995 14.314893 
L 201.317071 13.521311 
L 201.788297 15.52201 
L 201.945373 14.807799 
L 202.102448 15.378232 
L 202.259524 14.725788 
L 202.573675 16.975365 
L 202.73075 16.208872 
L 202.887826 16.576913 
L 203.044901 16.281541 
L 203.201977 16.582253 
L 203.359052 18.433639 
L 203.516128 18.096016 
L 204.14443 20.458356 
L 204.301505 18.75189 
L 205.086883 21.225101 
L 205.243959 22.651793 
L 205.401034 21.405651 
L 205.55811 23.829134 
L 205.715185 22.846117 
L 205.872261 24.597844 
L 206.029336 22.839283 
L 206.814714 26.734229 
L 206.971789 25.587423 
L 207.28594 28.020852 
L 207.443016 27.950293 
L 207.600091 26.887665 
L 208.071318 29.858766 
L 208.228393 29.062377 
L 208.385469 30.953993 
L 208.542544 30.711093 
L 208.69962 30.15303 
L 208.856695 32.551994 
L 209.170846 31.196508 
L 209.327922 33.348335 
L 209.484997 32.614134 
L 209.799148 33.183234 
L 210.270375 36.30547 
L 210.427451 35.638928 
L 210.898677 36.965169 
L 211.212828 38.681419 
L 211.526979 37.637881 
L 212.155281 40.946621 
L 212.312357 39.894674 
L 212.783583 43.030251 
L 212.940659 42.500547 
L 213.097734 43.861577 
L 213.25481 42.885237 
L 213.411885 44.53906 
L 213.568961 44.164433 
L 213.726036 45.063865 
L 213.883112 43.715535 
L 214.040187 45.768762 
L 214.197263 45.423925 
L 214.354338 47.109066 
L 214.511414 46.101681 
L 214.98264 47.653456 
L 215.139716 46.88166 
L 215.296791 48.84967 
L 215.453867 48.012434 
L 215.610943 48.151481 
L 216.082169 49.294197 
L 216.39632 51.325922 
L 216.553396 49.724405 
L 216.553396 49.724405 
" clip-path="url(#p3e234b21bd)" style="fill: none; stroke: #3362b0; stroke-width: 1.5; stroke-linecap: square"/>
   </g>
   <g id="line2d_24">
    <path d="M 138.172714 11.498302 
L 138.329789 10.164087 
L 138.486865 10.288209 
L 138.64394 11.687069 
L 138.801016 10.305127 
L 138.958091 11.64681 
L 139.115167 11.611688 
L 139.429318 11.536269 
L 139.586393 12.265078 
L 139.743469 11.85263 
L 139.900544 12.473792 
L 140.05762 12.316434 
L 140.214695 11.321397 
L 140.528846 13.35575 
L 140.685922 12.185572 
L 140.842998 13.372859 
L 141.157149 12.119337 
L 141.4713 14.426385 
L 141.628375 14.037583 
L 141.785451 14.3133 
L 142.099602 15.550342 
L 142.256677 14.386127 
L 142.413753 14.955222 
L 142.570828 14.330506 
L 142.884979 15.421687 
L 143.356206 17.768679 
L 143.513281 17.565068 
L 143.670357 17.048424 
L 143.827432 18.595275 
L 144.141583 17.681694 
L 144.298659 19.648469 
L 144.455734 18.019537 
L 145.398187 21.534068 
L 145.555263 20.936 
L 145.712338 22.794236 
L 145.869414 21.076953 
L 146.183565 23.922731 
L 146.340641 24.034803 
L 146.497716 22.739801 
L 146.811867 24.92123 
L 146.968943 24.926414 
L 147.126018 26.197185 
L 147.283094 24.932453 
L 147.440169 26.445904 
L 147.597245 25.738653 
L 147.911396 28.236455 
L 148.068471 26.923185 
L 148.539698 29.529474 
L 148.696773 28.330953 
L 148.853849 29.828962 
L 149.010924 29.253633 
L 149.482151 31.469717 
L 149.639226 30.83815 
L 149.796302 33.390176 
L 149.953377 31.95768 
L 150.110453 34.287496 
L 150.267528 33.918436 
L 150.424604 33.95046 
L 151.367057 37.172094 
L 151.524133 36.244794 
L 151.681208 36.931271 
L 151.995359 39.369886 
L 152.152435 38.812776 
L 152.466586 40.14201 
L 152.780737 40.889833 
L 153.094888 40.270738 
L 153.566114 42.932461 
L 153.72319 43.300961 
L 153.880265 42.457475 
L 154.194416 45.168981 
L 154.351492 44.54829 
L 154.665643 46.273878 
L 154.822718 44.620742 
L 154.979794 46.152767 
L 155.136869 45.407592 
L 155.765171 48.80934 
L 155.922247 47.688355 
L 156.079322 48.974784 
L 156.236398 48.217105 
L 156.393473 49.619749 
L 156.550549 49.510479 
L 156.707625 49.510376 
L 156.8647 50.877612 
L 157.021776 50.13051 
L 157.178851 51.615432 
L 157.335927 51.347859 
L 157.493002 51.525806 
L 157.650078 52.181571 
L 157.807153 50.73801 
L 157.964229 53.126901 
L 158.121304 51.480963 
L 158.27838 52.320024 
L 158.435455 51.816309 
L 158.592531 52.927004 
L 158.749606 52.863825 
L 158.906682 52.755081 
L 159.063757 53.097497 
L 159.220833 54.705169 
L 159.377908 54.165375 
L 159.534984 54.787029 
L 159.692059 53.584761 
L 160.00621 54.910385 
L 160.163286 54.746129 
L 160.320361 56.140318 
L 160.477437 54.628528 
L 160.791588 56.669804 
L 161.105739 55.672271 
L 161.41989 57.163291 
L 161.576965 55.20313 
L 161.891116 57.249801 
L 162.048192 56.183136 
L 162.205268 57.4708 
L 162.362343 57.414308 
L 162.519419 57.569894 
L 162.83357 55.673357 
L 163.147721 57.658745 
L 163.304796 57.576463 
L 163.618947 56.367224 
L 163.776023 56.511324 
L 163.933098 57.847447 
L 164.090174 56.520484 
L 164.247249 57.730613 
L 164.404325 56.316304 
L 164.5614 56.936264 
L 164.718476 55.445133 
L 164.875551 55.566323 
L 165.032627 55.763299 
L 165.189702 55.502295 
L 165.660929 56.845351 
L 165.818004 55.823374 
L 165.97508 56.421911 
L 166.132155 54.896071 
L 166.289231 56.21489 
L 166.446306 56.120221 
L 166.760457 53.9104 
L 167.074608 55.369533 
L 167.231684 54.259146 
L 167.38876 54.973016 
L 167.545835 54.413317 
L 167.702911 52.755538 
L 167.859986 54.526622 
L 168.017062 54.344717 
L 168.174137 53.968691 
L 168.331213 52.916929 
L 168.488288 53.255714 
L 168.645364 51.390609 
L 168.802439 52.402926 
L 169.273666 51.054643 
L 169.430741 50.096932 
L 169.587817 51.471244 
L 169.901968 49.455375 
L 170.059043 49.203738 
L 170.216119 50.214674 
L 170.53027 48.575946 
L 170.687345 49.487641 
L 171.001496 47.197257 
L 171.158572 48.477784 
L 171.472723 46.473976 
L 171.629798 47.018597 
L 171.786874 46.969251 
L 172.101025 44.585875 
L 172.2581 44.688277 
L 172.415176 45.075252 
L 172.729327 44.523747 
L 172.886403 43.305064 
L 173.043478 43.797114 
L 173.514705 42.644552 
L 173.67178 40.916425 
L 173.828856 41.085333 
L 174.300082 39.130273 
L 174.457158 39.20778 
L 174.771309 37.296145 
L 174.928384 38.549919 
L 175.08546 38.129803 
L 175.556686 35.591137 
L 175.713762 35.037495 
L 176.027913 35.944803 
L 176.342064 33.13635 
L 177.284517 30.368552 
L 177.441592 31.117847 
L 177.598668 29.78156 
L 177.755743 30.702967 
L 178.069895 28.301899 
L 178.22697 29.19148 
L 178.384046 28.868737 
L 178.698197 26.964587 
L 178.855272 27.245178 
L 179.169423 25.939918 
L 179.326499 27.061989 
L 179.797725 23.927759 
L 179.954801 24.963009 
L 180.268952 22.391643 
L 180.583103 23.485046 
L 180.897254 20.879011 
L 181.211405 22.017147 
L 181.525556 19.829571 
L 181.682631 21.342931 
L 181.996782 18.853025 
L 182.153858 19.259834 
L 182.468009 17.678886 
L 182.625084 17.896474 
L 182.939235 17.244521 
L 183.096311 18.31005 
L 183.410462 16.186179 
L 183.567538 17.287389 
L 183.724613 15.400945 
L 184.038764 16.6583 
L 184.352915 14.95719 
L 184.509991 14.818978 
L 184.824142 15.144486 
L 184.981217 14.20897 
L 185.295368 14.76836 
L 185.452444 12.470459 
L 185.609519 13.422485 
L 185.766595 12.097377 
L 186.080746 12.993426 
L 186.394897 11.471723 
L 186.551972 12.927045 
L 186.709048 12.621516 
L 186.866123 11.959211 
L 187.023199 12.406626 
L 187.180274 11.652652 
L 187.33735 11.732403 
L 187.494425 11.800816 
L 187.651501 11.583639 
L 187.808576 10.09043 
L 188.122727 12.119842 
L 188.279803 9.856636 
L 188.436878 10.225027 
L 188.593954 11.299431 
L 188.75103 11.027676 
L 188.908105 10.266959 
L 189.065181 11.14681 
L 189.222256 10.946226 
L 189.379332 11.105636 
L 189.693483 10.694018 
L 189.850558 9.748264 
L 190.007634 11.300851 
L 190.164709 10.258175 
L 190.47886 11.767794 
L 190.793011 10.271521 
L 190.950087 11.52893 
L 191.107162 10.344225 
L 191.264238 11.965985 
L 191.421313 11.755987 
L 191.735464 11.026727 
L 191.89254 11.311156 
L 192.049615 12.401043 
L 192.206691 11.447532 
L 192.520842 12.894442 
L 192.677917 13.34678 
L 192.834993 12.9267 
L 192.992068 11.910015 
L 193.149144 12.268098 
L 193.463295 13.869679 
L 193.777446 12.63464 
L 194.248673 15.498727 
L 194.405748 14.722962 
L 194.719899 15.973025 
L 194.876975 14.646171 
L 195.03405 14.805045 
L 195.191126 15.517628 
L 195.348201 17.351647 
L 195.505277 16.919822 
L 195.662352 15.846207 
L 195.819428 15.979899 
L 196.290654 17.88911 
L 196.604805 18.899947 
L 196.761881 18.687399 
L 196.918956 20.371472 
L 197.233107 19.385123 
L 197.390183 21.178852 
L 197.547258 21.096399 
L 197.861409 22.454968 
L 198.018485 22.443281 
L 198.17556 23.291037 
L 198.332636 21.848243 
L 198.646787 22.974319 
L 198.803862 22.661981 
L 198.960938 24.196518 
L 199.118013 24.164957 
L 199.275089 24.314182 
L 199.432164 26.184401 
L 199.58924 25.305522 
L 199.746316 25.60538 
L 199.903391 26.464561 
L 200.060467 26.034537 
L 200.217542 27.435221 
L 200.374618 26.99992 
L 201.159995 29.133584 
L 201.474146 30.921295 
L 201.631222 30.643052 
L 202.102448 33.183987 
L 202.259524 33.152808 
L 203.044901 36.244363 
L 203.201977 34.726328 
L 203.359052 36.572508 
L 203.516128 36.551318 
L 203.830279 38.18645 
L 203.987354 36.644445 
L 204.458581 39.475532 
L 205.086883 41.495137 
L 205.243959 40.007463 
L 205.55811 42.198887 
L 205.715185 41.607658 
L 205.872261 41.82663 
L 206.029336 44.261079 
L 206.186412 43.51064 
L 206.343487 44.938863 
L 206.657638 43.964108 
L 207.128865 45.364847 
L 207.28594 45.480717 
L 207.914242 47.984912 
L 208.071318 48.841664 
L 208.385469 48.10641 
L 208.542544 48.166708 
L 208.856695 50.704788 
L 209.013771 50.078929 
L 209.484997 51.755818 
L 209.642073 50.592789 
L 209.799148 52.276149 
L 210.113299 50.858916 
L 210.270375 51.37503 
L 210.584526 53.710614 
L 210.741602 52.778491 
L 211.212828 53.908687 
L 211.369904 52.913277 
L 211.526979 54.784477 
L 211.684055 53.420153 
L 211.84113 53.455115 
L 211.998206 53.724828 
L 212.312357 55.343452 
L 212.469432 54.190972 
L 212.626508 54.364569 
L 212.940659 56.407611 
L 213.097734 55.345158 
L 213.25481 56.033343 
L 213.411885 55.925797 
L 213.568961 55.754496 
L 213.726036 55.182062 
L 214.040187 56.566289 
L 214.197263 57.042126 
L 214.511414 56.453501 
L 214.668489 56.626779 
L 214.825565 57.55102 
L 214.98264 55.86754 
L 215.296791 57.940057 
L 215.453867 57.036957 
L 215.768018 57.862556 
L 216.239245 56.051468 
L 216.39632 56.427486 
L 216.553396 57.364687 
L 216.553396 57.364687 
" clip-path="url(#p3e234b21bd)" style="fill: none; stroke: #cc3164; stroke-width: 1.5; stroke-linecap: square"/>
   </g>
   <g id="patch_8">
    <path d="M 134.25368 60.35625 
L 134.25368 7.2 
" style="fill: none; stroke: #4d4f53; stroke-width: 0.8; stroke-linejoin: miter; stroke-linecap: square"/>
   </g>
   <g id="patch_9">
    <path d="M 220.47243 60.35625 
L 220.47243 7.2 
" style="fill: none; stroke: #4d4f53; stroke-width: 0.8; stroke-linejoin: miter; stroke-linecap: square"/>
   </g>
   <g id="patch_10">
    <path d="M 134.25368 60.35625 
L 220.47243 60.35625 
" style="fill: none; stroke: #4d4f53; stroke-width: 0.8; stroke-linejoin: miter; stroke-linecap: square"/>
   </g>
   <g id="patch_11">
    <path d="M 134.25368 7.2 
L 220.47243 7.2 
" style="fill: none; stroke: #4d4f53; stroke-width: 0.8; stroke-linejoin: miter; stroke-linecap: square"/>
   </g>
   <g id="legend_1">
    <g id="patch_12">
     <path d="M 223.058992 47.671003 
L 256.129092 47.671003 
L 256.129092 19.885247 
L 223.058992 19.885247 
z
" style="fill: #ffffff; stroke: #4d4f53; stroke-width: 0.8; stroke-linejoin: miter"/>
    </g>
    <g id="line2d_25">
     <path d="M 227.223992 27.464245 
L 233.054992 27.464245 
L 238.885992 27.464245 
" style="fill: none; stroke: #3362b0; stroke-width: 1.5; stroke-linecap: square"/>
    </g>
    <g id="text_11">
     <!-- $x_1$ -->
     <g style="fill: #4d4f53" transform="translate(243.050992 30.379745) scale(0.0833 -0.0833)">
      <defs>
       <path id="DejaVuSans-Oblique-78" d="M 3841 3500 
L 2234 1784 
L 3219 0 
L 2559 0 
L 1819 1388 
L 531 0 
L -166 0 
L 1556 1844 
L 641 3500 
L 1300 3500 
L 1972 2234 
L 3144 3500 
L 3841 3500 
z
" transform="scale(0.015625)"/>
      </defs>
      <use xlink:href="#DejaVuSans-Oblique-78" transform="translate(0 0.3125)"/>
      <use xlink:href="#DejaVuSans-31" transform="translate(59.179688 -16.09375) scale(0.7)"/>
     </g>
    </g>
    <g id="line2d_26">
     <path d="M 227.223992 38.858123 
L 233.054992 38.858123 
L 238.885992 38.858123 
" style="fill: none; stroke: #cc3164; stroke-width: 1.5; stroke-linecap: square"/>
    </g>
    <g id="text_12">
     <!-- $x_2$ -->
     <g style="fill: #4d4f53" transform="translate(243.050992 41.773623) scale(0.0833 -0.0833)">
      <defs>
       <path id="DejaVuSans-32" d="M 1228 531 
L 3431 531 
L 3431 0 
L 469 0 
L 469 531 
Q 828 903 1448 1529 
Q 2069 2156 2228 2338 
Q 2531 2678 2651 2914 
Q 2772 3150 2772 3378 
Q 2772 3750 2511 3984 
Q 2250 4219 1831 4219 
Q 1534 4219 1204 4116 
Q 875 4013 500 3803 
L 500 4441 
Q 881 4594 1212 4672 
Q 1544 4750 1819 4750 
Q 2544 4750 2975 4387 
Q 3406 4025 3406 3419 
Q 3406 3131 3298 2873 
Q 3191 2616 2906 2266 
Q 2828 2175 2409 1742 
Q 1991 1309 1228 531 
z
" transform="scale(0.015625)"/>
      </defs>
      <use xlink:href="#DejaVuSans-Oblique-78" transform="translate(0 0.3125)"/>
      <use xlink:href="#DejaVuSans-32" transform="translate(59.179688 -16.09375) scale(0.7)"/>
     </g>
    </g>
   </g>
  </g>
 </g>
 <defs>
  <clipPath id="p499032094b">
   <rect x="26.480242" y="7.2" width="86.21875" height="53.15625"/>
  </clipPath>
  <clipPath id="p3e234b21bd">
   <rect x="134.25368" y="7.2" width="86.21875" height="53.15625"/>
  </clipPath>
 </defs>
</svg>
