<?xml version="1.0" encoding="utf-8" standalone="no"?>
<!DOCTYPE svg PUBLIC "-//W3C//DTD SVG 1.1//EN"
  "http://www.w3.org/Graphics/SVG/1.1/DTD/svg11.dtd">
<svg xmlns:xlink="http://www.w3.org/1999/xlink" width="134.339937pt" height="108.092326pt" viewBox="0 0 134.339937 108.092326" xmlns="http://www.w3.org/2000/svg" version="1.1">
 <metadata>
  <rdf:RDF xmlns:dc="http://purl.org/dc/elements/1.1/" xmlns:cc="http://creativecommons.org/ns#" xmlns:rdf="http://www.w3.org/1999/02/22-rdf-syntax-ns#">
   <cc:Work>
    <dc:type rdf:resource="http://purl.org/dc/dcmitype/StillImage"/>
    <dc:date>2026-04-30T17:21:25.485315</dc:date>
    <dc:format>image/svg+xml</dc:format>
    <dc:creator>
     <cc:Agent>
      <dc:title>Matplotlib v3.10.9, https://matplotlib.org/</dc:title>
     </cc:Agent>
    </dc:creator>
   </cc:Work>
  </rdf:RDF>
 </metadata>
 <defs>
  <style type="text/css">*{stroke-linejoin: round; stroke-linecap: butt}</style>
 </defs>
 <g id="figure_1">
  <g id="patch_1">
   <path d="M 0 108.092326 
L 134.339937 108.092326 
L 134.339937 0 
L 0 0 
L 0 108.092326 
z
" style="fill: none"/>
  </g>
  <g id="axes_1">
   <g id="patch_2">
    <path d="M 26.480242 85.830447 
L 127.139937 85.830447 
L 127.139937 23.591878 
L 26.480242 23.591878 
L 26.480242 85.830447 
z
" style="fill: none"/>
   </g>
   <g id="matplotlib.axis_1">
    <g id="xtick_1">
     <g id="line2d_1">
      <path d="M 31.055683 85.830447 
L 31.055683 23.591878 
" clip-path="url(#p4af1f1c15b)" style="fill: none; stroke-dasharray: 2.96,1.28; stroke-dashoffset: 0; stroke: #dddfe5; stroke-width: 0.8"/>
     </g>
     <g id="line2d_2">
      <defs>
       <path id="mfba4ae17b4" d="M 0 0 
L 0 3.5 
" style="stroke: #4d4f53; stroke-width: 0.8"/>
      </defs>
      <g>
       <use xlink:href="#mfba4ae17b4" x="31.055683" y="85.830447" style="fill: #4d4f53; stroke: #4d4f53; stroke-width: 0.8"/>
      </g>
     </g>
     <g id="text_1">
      <!-- 0 -->
      <g style="fill: #4d4f53" transform="translate(28.405702 99.159946) scale(0.0833 -0.0833)">
       <defs>
        <path id="DejaVuSans-30" d="M 2034 4250 
Q 1547 4250 1301 3770 
Q 1056 3291 1056 2328 
Q 1056 1369 1301 889 
Q 1547 409 2034 409 
Q 2525 409 2770 889 
Q 3016 1369 3016 2328 
Q 3016 3291 2770 3770 
Q 2525 4250 2034 4250 
z
M 2034 4750 
Q 2819 4750 3233 4129 
Q 3647 3509 3647 2328 
Q 3647 1150 3233 529 
Q 2819 -91 2034 -91 
Q 1250 -91 836 529 
Q 422 1150 422 2328 
Q 422 3509 836 4129 
Q 1250 4750 2034 4750 
z
" transform="scale(0.015625)"/>
       </defs>
       <use xlink:href="#DejaVuSans-30"/>
      </g>
     </g>
    </g>
    <g id="xtick_2">
     <g id="line2d_3">
      <path d="M 79.602616 85.830447 
L 79.602616 23.591878 
" clip-path="url(#p4af1f1c15b)" style="fill: none; stroke-dasharray: 2.96,1.28; stroke-dashoffset: 0; stroke: #dddfe5; stroke-width: 0.8"/>
     </g>
     <g id="line2d_4">
      <g>
       <use xlink:href="#mfba4ae17b4" x="79.602616" y="85.830447" style="fill: #4d4f53; stroke: #4d4f53; stroke-width: 0.8"/>
      </g>
     </g>
     <g id="text_2">
      <!-- 5 -->
      <g style="fill: #4d4f53" transform="translate(76.952635 99.159946) scale(0.0833 -0.0833)">
       <defs>
        <path id="DejaVuSans-35" d="M 691 4666 
L 3169 4666 
L 3169 4134 
L 1269 4134 
L 1269 2991 
Q 1406 3038 1543 3061 
Q 1681 3084 1819 3084 
Q 2600 3084 3056 2656 
Q 3513 2228 3513 1497 
Q 3513 744 3044 326 
Q 2575 -91 1722 -91 
Q 1428 -91 1123 -41 
Q 819 9 494 109 
L 494 744 
Q 775 591 1075 516 
Q 1375 441 1709 441 
Q 2250 441 2565 725 
Q 2881 1009 2881 1497 
Q 2881 1984 2565 2268 
Q 2250 2553 1709 2553 
Q 1456 2553 1204 2497 
Q 953 2441 691 2322 
L 691 4666 
z
" transform="scale(0.015625)"/>
       </defs>
       <use xlink:href="#DejaVuSans-35"/>
      </g>
     </g>
    </g>
   </g>
   <g id="matplotlib.axis_2">
    <g id="ytick_1">
     <g id="line2d_5">
      <path d="M 26.480242 83.026448 
L 127.139937 83.026448 
" clip-path="url(#p4af1f1c15b)" style="fill: none; stroke-dasharray: 2.96,1.28; stroke-dashoffset: 0; stroke: #dddfe5; stroke-width: 0.8"/>
     </g>
     <g id="line2d_6">
      <defs>
       <path id="me737f66228" d="M 0 0 
L -3.5 0 
" style="stroke: #4d4f53; stroke-width: 0.8"/>
      </defs>
      <g>
       <use xlink:href="#me737f66228" x="26.480242" y="83.026448" style="fill: #4d4f53; stroke: #4d4f53; stroke-width: 0.8"/>
      </g>
     </g>
     <g id="text_3">
      <!-- −1 -->
      <g style="fill: #4d4f53" transform="translate(7.2 86.191198) scale(0.0833 -0.0833)">
       <defs>
        <path id="DejaVuSans-2212" d="M 678 2272 
L 4684 2272 
L 4684 1741 
L 678 1741 
L 678 2272 
z
" transform="scale(0.015625)"/>
        <path id="DejaVuSans-31" d="M 794 531 
L 1825 531 
L 1825 4091 
L 703 3866 
L 703 4441 
L 1819 4666 
L 2450 4666 
L 2450 531 
L 3481 531 
L 3481 0 
L 794 0 
L 794 531 
z
" transform="scale(0.015625)"/>
       </defs>
       <use xlink:href="#DejaVuSans-2212"/>
       <use xlink:href="#DejaVuSans-31" transform="translate(83.789062 0)"/>
      </g>
     </g>
    </g>
    <g id="ytick_2">
     <g id="line2d_7">
      <path d="M 26.480242 56.066362 
L 127.139937 56.066362 
" clip-path="url(#p4af1f1c15b)" style="fill: none; stroke-dasharray: 2.96,1.28; stroke-dashoffset: 0; stroke: #dddfe5; stroke-width: 0.8"/>
     </g>
     <g id="line2d_8">
      <g>
       <use xlink:href="#me737f66228" x="26.480242" y="56.066362" style="fill: #4d4f53; stroke: #4d4f53; stroke-width: 0.8"/>
      </g>
     </g>
     <g id="text_4">
      <!-- 0 -->
      <g style="fill: #4d4f53" transform="translate(14.18028 59.231112) scale(0.0833 -0.0833)">
       <use xlink:href="#DejaVuSans-30"/>
      </g>
     </g>
    </g>
    <g id="ytick_3">
     <g id="line2d_9">
      <path d="M 26.480242 29.106276 
L 127.139937 29.106276 
" clip-path="url(#p4af1f1c15b)" style="fill: none; stroke-dasharray: 2.96,1.28; stroke-dashoffset: 0; stroke: #dddfe5; stroke-width: 0.8"/>
     </g>
     <g id="line2d_10">
      <g>
       <use xlink:href="#me737f66228" x="26.480242" y="29.106276" style="fill: #4d4f53; stroke: #4d4f53; stroke-width: 0.8"/>
      </g>
     </g>
     <g id="text_5">
      <!-- 1 -->
      <g style="fill: #4d4f53" transform="translate(14.18028 32.271026) scale(0.0833 -0.0833)">
       <use xlink:href="#DejaVuSans-31"/>
      </g>
     </g>
    </g>
   </g>
   <g id="line2d_11">
    <path d="M 31.055683 35.868501 
L 31.78922 33.571609 
L 31.972605 33.949747 
L 32.155989 31.718798 
L 32.339374 32.076788 
L 32.522758 33.451666 
L 32.889527 31.511939 
L 33.072911 32.603377 
L 33.256296 30.03128 
L 33.43968 31.23874 
L 33.806449 29.819589 
L 33.989833 30.762863 
L 34.356602 29.740351 
L 34.539986 29.068637 
L 34.723371 30.423185 
L 34.906755 29.973034 
L 35.09014 28.772468 
L 35.273524 29.070868 
L 35.456908 29.784191 
L 35.640293 29.008675 
L 35.823677 29.451623 
L 36.190446 27.504825 
L 36.37383 29.14365 
L 36.557215 26.965651 
L 36.740599 28.312849 
L 37.107368 27.93818 
L 37.290752 29.213464 
L 37.657521 26.490036 
L 38.02429 28.776921 
L 38.391059 27.238186 
L 38.574443 29.108107 
L 38.757828 28.138914 
L 38.941212 29.004196 
L 39.124596 27.071974 
L 39.307981 28.304268 
L 39.491365 27.410024 
L 39.674749 28.046009 
L 39.858134 26.823349 
L 40.408287 28.208689 
L 40.591671 27.15531 
L 40.95844 30.06082 
L 41.141825 30.001087 
L 41.325209 27.86043 
L 41.508593 27.927421 
L 41.875362 29.979835 
L 42.058747 29.137232 
L 42.242131 31.252656 
L 42.425515 29.438007 
L 42.6089 29.890321 
L 42.792284 31.409259 
L 43.159053 29.936609 
L 43.342437 32.203794 
L 43.525822 30.442153 
L 43.709206 32.287091 
L 43.892591 31.546204 
L 44.075975 32.999284 
L 44.259359 32.604523 
L 44.442744 33.821754 
L 44.626128 33.343226 
L 44.992897 34.168273 
L 45.176281 33.427993 
L 45.359666 34.567104 
L 45.54305 34.287013 
L 45.726435 34.449333 
L 45.909819 35.995112 
L 46.093203 34.852707 
L 46.276588 35.7522 
L 46.459972 35.630733 
L 46.826741 37.559578 
L 47.010125 36.777449 
L 47.560279 39.792928 
L 47.743663 38.299096 
L 48.293816 41.49904 
L 48.477201 41.415484 
L 49.027354 43.579527 
L 49.210738 42.531195 
L 49.394122 44.760563 
L 49.577507 44.669664 
L 49.944276 43.722606 
L 50.311044 46.097835 
L 50.494429 45.376643 
L 50.677813 45.487527 
L 51.044582 48.091401 
L 51.227966 47.752237 
L 51.594735 50.543933 
L 51.77812 50.188399 
L 51.961504 50.324219 
L 52.144888 52.004119 
L 52.328273 50.171675 
L 53.428579 55.346155 
L 53.611964 55.551663 
L 53.795348 54.863715 
L 53.978732 55.91441 
L 54.162117 55.195455 
L 54.71227 58.737594 
L 55.079039 59.083625 
L 55.262423 60.545654 
L 55.445808 59.53853 
L 55.629192 61.594478 
L 55.812576 60.297612 
L 55.995961 60.963522 
L 56.179345 63.211509 
L 56.36273 61.667304 
L 56.546114 63.298725 
L 56.729498 62.60293 
L 56.912883 64.271144 
L 57.096267 64.088906 
L 57.279652 65.66458 
L 57.463036 64.31741 
L 57.64642 66.335295 
L 57.829805 65.521006 
L 58.013189 66.468395 
L 58.196574 66.015302 
L 58.746727 69.561114 
L 58.930111 67.638275 
L 59.29688 70.67383 
L 59.480264 69.67173 
L 59.847033 70.832118 
L 60.030417 70.27697 
L 60.213802 70.694467 
L 60.397186 72.800283 
L 60.580571 71.954028 
L 61.130724 74.85254 
L 61.314108 74.815743 
L 61.497493 73.995067 
L 61.680877 75.294652 
L 61.864261 75.210444 
L 62.047646 75.801493 
L 62.414415 75.607122 
L 62.597799 75.121746 
L 62.781183 77.892671 
L 62.964568 76.77459 
L 63.147952 76.831606 
L 63.331337 78.40875 
L 63.514721 77.145977 
L 63.698105 78.344352 
L 63.88149 78.237742 
L 64.064874 78.301598 
L 64.248259 77.816816 
L 64.615027 78.843922 
L 64.981796 80.826053 
L 65.348565 79.212839 
L 65.531949 79.601994 
L 65.715334 81.131908 
L 65.898718 81.084735 
L 66.082103 81.383224 
L 66.448871 80.461509 
L 66.81564 81.699329 
L 67.182409 80.347718 
L 67.365793 81.249743 
L 67.549178 80.844512 
L 67.732562 81.690466 
L 68.099331 80.730319 
L 68.282715 82.940958 
L 68.4661 81.032504 
L 68.649484 81.088715 
L 69.016253 80.901544 
L 69.199637 80.478901 
L 69.566406 82.440809 
L 69.933175 80.178578 
L 70.299944 80.380576 
L 70.666712 82.517857 
L 71.033481 80.349737 
L 71.216866 80.297712 
L 71.40025 81.654779 
L 71.583634 81.620187 
L 71.767019 81.359626 
L 71.950403 79.415896 
L 72.317172 80.811148 
L 72.500556 79.407598 
L 72.683941 80.814223 
L 73.05071 80.203348 
L 73.417478 78.392897 
L 73.600863 78.273492 
L 73.967632 77.314046 
L 74.3344 78.553348 
L 74.517785 77.161723 
L 74.701169 77.380482 
L 74.884554 77.209782 
L 75.434707 74.558225 
L 75.618091 75.45607 
L 75.98486 73.827985 
L 76.168244 74.613001 
L 76.535013 72.293779 
L 76.718398 74.01415 
L 77.085166 71.885985 
L 77.268551 73.082752 
L 77.63532 70.664702 
L 79.102395 67.015089 
L 79.285779 68.220152 
L 79.469163 66.581162 
L 79.652548 67.427927 
L 79.835932 65.236694 
L 80.019317 66.902203 
L 80.386085 65.996965 
L 80.752854 63.663086 
L 80.936239 64.540755 
L 81.119623 64.059347 
L 81.486392 61.134843 
L 81.669776 62.036889 
L 82.036545 59.392788 
L 82.219929 58.93084 
L 82.403314 59.172362 
L 82.953467 57.165495 
L 83.136851 57.553326 
L 83.687005 54.929459 
L 83.870389 55.676115 
L 84.053773 54.696771 
L 84.237158 55.082476 
L 84.970695 51.827331 
L 85.15408 52.927946 
L 85.337464 52.25944 
L 85.520849 50.007411 
L 85.704233 50.353405 
L 85.887617 48.431845 
L 86.071002 50.216447 
L 86.804539 45.933631 
L 86.987924 47.555829 
L 87.354693 45.376653 
L 87.721461 46.035765 
L 87.904846 44.122462 
L 88.08823 44.716353 
L 88.271614 42.629976 
L 88.454999 43.272395 
L 88.638383 42.961673 
L 89.005152 41.258642 
L 89.188536 41.660607 
L 89.371921 40.046603 
L 89.555305 40.543409 
L 89.73869 39.140607 
L 89.922074 40.661595 
L 90.105458 37.91115 
L 90.655612 39.088767 
L 91.205765 35.48455 
L 91.389149 35.983052 
L 91.755918 35.766002 
L 91.939302 34.275157 
L 92.122687 34.614187 
L 92.306071 33.833525 
L 92.67284 34.873776 
L 92.856224 32.195492 
L 93.039609 34.465375 
L 93.406378 32.835307 
L 93.589762 33.022466 
L 93.773146 32.672399 
L 94.139915 31.209313 
L 94.3233 30.963104 
L 94.506684 30.299566 
L 94.690068 31.534064 
L 94.873453 29.475931 
L 95.056837 29.88381 
L 95.240222 31.330088 
L 95.423606 29.639511 
L 95.60699 30.036803 
L 95.790375 29.940415 
L 95.973759 30.156217 
L 96.340528 27.731333 
L 96.523912 29.467784 
L 96.707297 28.309641 
L 96.890681 28.767307 
L 97.074065 28.656911 
L 97.25745 29.427496 
L 97.440834 28.931862 
L 97.624219 27.176088 
L 97.807603 29.120504 
L 98.174372 27.36657 
L 98.541141 28.463937 
L 98.724525 26.60419 
L 98.907909 26.677221 
L 99.091294 27.4685 
L 99.458063 26.449101 
L 99.641447 26.754028 
L 99.824831 27.790654 
L 100.008216 26.985652 
L 100.1916 27.068945 
L 100.374985 28.786343 
L 100.558369 27.687496 
L 100.741753 29.130714 
L 100.925138 28.856714 
L 101.108522 29.175946 
L 101.475291 28.54502 
L 101.658675 29.085195 
L 102.025444 27.7954 
L 102.392213 30.288941 
L 102.575597 28.159084 
L 102.758982 29.862212 
L 103.125751 28.636817 
L 103.309135 29.166887 
L 103.492519 31.387879 
L 103.675904 30.687475 
L 103.859288 31.306488 
L 104.042673 30.495965 
L 104.226057 30.930461 
L 104.409441 30.22999 
L 104.592826 31.922427 
L 104.77621 30.993254 
L 105.326363 33.335794 
L 105.509748 32.499552 
L 105.693132 33.167449 
L 105.876517 32.403528 
L 106.243285 35.03747 
L 106.42667 34.140013 
L 106.610054 34.570938 
L 106.793438 34.225098 
L 106.976823 34.577191 
L 107.160207 36.744906 
L 107.343592 36.349596 
L 108.077129 39.115567 
L 108.260514 37.117533 
L 109.177436 40.013319 
L 109.36082 41.683776 
L 109.544204 40.224718 
L 109.727589 43.062279 
L 109.910973 41.911303 
L 110.094358 43.962332 
L 110.277742 41.903301 
L 110.827895 44.336949 
L 111.194664 46.463741 
L 111.378048 45.120991 
L 111.744817 47.970198 
L 111.928202 47.887583 
L 112.111586 46.643393 
L 112.478355 49.468878 
L 112.661739 50.122139 
L 112.845124 49.189678 
L 113.028508 51.404497 
L 113.395277 50.466682 
L 113.578661 53.275534 
L 113.94543 51.688449 
L 114.128814 54.207939 
L 114.312199 53.348291 
L 114.678968 54.014628 
L 115.229121 57.670332 
L 115.412505 56.889904 
L 115.962658 58.442748 
L 116.329427 60.452238 
L 116.696196 59.2304 
L 116.87958 60.254298 
L 117.062965 62.459654 
L 117.246349 61.312256 
L 117.429733 63.104474 
L 117.613118 61.87279 
L 118.163271 65.544114 
L 118.346655 64.923905 
L 118.53004 66.517482 
L 118.713424 65.374324 
L 118.896809 67.310719 
L 119.080193 66.872084 
L 119.263577 67.925193 
L 119.446962 66.346487 
L 119.630346 68.750529 
L 119.813731 68.346774 
L 119.997115 70.319839 
L 120.180499 69.140331 
L 120.730653 70.957244 
L 120.914037 70.053579 
L 121.097421 72.357844 
L 121.280806 71.377557 
L 121.46419 71.540362 
L 122.014343 72.878323 
L 122.381112 75.25719 
L 122.564497 73.382037 
L 122.564497 73.382037 
" clip-path="url(#p4af1f1c15b)" style="fill: none; stroke: #3362b0; stroke-width: 1.5; stroke-linecap: square"/>
   </g>
   <g id="line2d_12">
    <path d="M 31.055683 28.624591 
L 31.239067 27.062412 
L 31.422452 27.207741 
L 31.605836 28.845611 
L 31.78922 27.22755 
L 31.972605 28.798474 
L 32.155989 28.757351 
L 32.522758 28.669045 
L 32.706142 29.52238 
L 32.889527 29.039461 
L 33.072911 29.766754 
L 33.256296 29.58251 
L 33.43968 28.41746 
L 33.806449 30.799405 
L 33.989833 29.429289 
L 34.173218 30.819437 
L 34.539986 29.351737 
L 34.906755 32.052969 
L 35.09014 31.597736 
L 35.273524 31.920562 
L 35.640293 33.368967 
L 35.823677 32.005833 
L 36.007062 32.672163 
L 36.190446 31.940708 
L 36.557215 33.218329 
L 37.107368 35.96633 
L 37.290752 35.72793 
L 37.474137 35.123012 
L 37.657521 36.934158 
L 38.02429 35.864482 
L 38.207674 38.167303 
L 38.391059 36.260049 
L 39.491365 40.375076 
L 39.674749 39.674822 
L 39.858134 41.850558 
L 40.041518 39.839858 
L 40.408287 43.171868 
L 40.591671 43.303089 
L 40.775056 41.786822 
L 41.141825 44.340971 
L 41.325209 44.347042 
L 41.508593 45.834937 
L 41.691978 44.354112 
L 41.875362 46.126153 
L 42.058747 45.29806 
L 42.425515 48.222639 
L 42.6089 46.684983 
L 43.159053 49.736583 
L 43.342437 48.333282 
L 43.525822 50.087243 
L 43.709206 49.413612 
L 44.259359 52.008338 
L 44.442744 51.268861 
L 44.626128 54.256929 
L 44.809513 52.579675 
L 44.992897 55.307565 
L 45.359666 54.912943 
L 46.459972 58.685028 
L 46.643357 57.599289 
L 46.826741 58.403057 
L 47.19351 61.258336 
L 47.376894 60.606038 
L 47.743663 62.162386 
L 48.110432 63.037982 
L 48.477201 62.313109 
L 49.027354 65.429616 
L 49.210738 65.861078 
L 49.394122 64.873473 
L 49.760891 68.04827 
L 49.944276 67.321527 
L 50.311044 69.341951 
L 50.494429 67.406358 
L 50.677813 69.200146 
L 50.861198 68.32765 
L 51.594735 72.310623 
L 51.77812 70.998105 
L 51.961504 72.504335 
L 52.144888 71.617198 
L 52.328273 73.259499 
L 52.511657 73.131559 
L 52.695042 73.131439 
L 52.878426 74.732282 
L 53.06181 73.85753 
L 53.245195 75.596166 
L 53.428579 75.282876 
L 53.611964 75.491226 
L 53.795348 76.259036 
L 53.978732 74.568827 
L 54.162117 77.365886 
L 54.345501 75.438722 
L 54.528886 76.421146 
L 54.71227 75.831365 
L 54.895654 77.131835 
L 55.079039 77.057861 
L 55.262423 76.930537 
L 55.445808 77.331458 
L 55.629192 79.213819 
L 55.812576 78.581795 
L 55.995961 79.309664 
L 56.179345 77.901976 
L 56.546114 79.454097 
L 56.729498 79.261777 
L 56.912883 80.894178 
L 57.096267 79.124082 
L 57.463036 81.514132 
L 57.829805 80.34616 
L 58.196574 82.091937 
L 58.379958 79.796861 
L 58.746727 82.193229 
L 58.930111 80.944311 
L 59.113495 82.451987 
L 59.29688 82.385843 
L 59.480264 82.568013 
L 59.847033 80.347431 
L 60.213802 82.672044 
L 60.397186 82.575704 
L 60.763955 81.159853 
L 60.947339 81.328574 
L 61.130724 82.892988 
L 61.314108 81.339299 
L 61.497493 82.756192 
L 61.680877 81.100233 
L 61.864261 81.82612 
L 62.047646 80.080213 
L 62.23103 80.22211 
L 62.414415 80.452742 
L 62.597799 80.147142 
L 63.147952 81.719674 
L 63.331337 80.523081 
L 63.514721 81.223884 
L 63.698105 79.437337 
L 63.88149 80.981492 
L 64.064874 80.870647 
L 64.431643 78.283254 
L 64.798412 79.991696 
L 64.981796 78.691587 
L 65.165181 79.52743 
L 65.348565 78.8721 
L 65.531949 76.931072 
L 65.715334 79.004765 
L 66.082103 78.351505 
L 66.265487 77.120038 
L 66.448871 77.516709 
L 66.632256 75.33293 
L 66.81564 76.518212 
L 67.365793 74.93956 
L 67.549178 73.818214 
L 67.732562 75.427342 
L 68.099331 73.06704 
L 68.282715 72.772408 
L 68.4661 73.956074 
L 68.832868 72.037351 
L 69.016253 73.10482 
L 69.383022 70.423098 
L 69.566406 71.922417 
L 69.933175 69.576237 
L 70.116559 70.213912 
L 70.299944 70.156135 
L 70.666712 67.365534 
L 70.850097 67.485432 
L 71.033481 67.938525 
L 71.40025 67.29279 
L 71.583634 65.865882 
L 71.767019 66.442004 
L 72.317172 65.092515 
L 72.500556 63.069118 
L 72.683941 63.266886 
L 72.867325 62.138062 
L 73.05071 62.420089 
L 73.234094 60.977783 
L 73.417478 61.068533 
L 73.784247 58.830275 
L 73.967632 60.298269 
L 74.151016 59.806372 
L 74.701169 56.833947 
L 74.884554 56.18571 
L 75.251322 57.248041 
L 75.618091 53.959734 
L 76.351629 51.760822 
L 76.535013 51.449144 
L 76.718398 50.719027 
L 76.901782 51.596347 
L 77.085166 50.031742 
L 77.268551 51.110581 
L 77.63532 48.299264 
L 77.818704 49.34084 
L 78.002088 48.962953 
L 78.368857 46.733459 
L 78.552241 47.061991 
L 78.91901 45.533713 
L 79.102395 46.847502 
L 79.652548 43.177756 
L 79.835932 44.389889 
L 80.202701 41.379177 
L 80.56947 42.6594 
L 80.936239 39.608095 
L 81.303007 40.940695 
L 81.669776 38.379348 
L 81.853161 40.151282 
L 82.219929 37.235949 
L 82.403314 37.712265 
L 82.770083 35.861195 
L 82.953467 36.11596 
L 83.320236 35.352613 
L 83.50362 36.6002 
L 83.870389 34.113442 
L 84.053773 35.402807 
L 84.237158 33.194044 
L 84.603927 34.666231 
L 84.970695 32.674468 
L 85.15408 32.512641 
L 85.520849 32.893766 
L 85.704233 31.798407 
L 86.071002 32.453375 
L 86.254386 29.762852 
L 86.437771 30.877542 
L 86.621155 29.326025 
L 86.987924 30.375174 
L 87.354693 28.593471 
L 87.538077 30.297451 
L 87.904846 29.164252 
L 88.08823 29.688113 
L 88.271614 28.805314 
L 88.454999 28.898691 
L 88.638383 28.978793 
L 88.821768 28.724509 
L 89.005152 26.97617 
L 89.371921 29.352328 
L 89.555305 26.702429 
L 89.73869 27.133764 
L 89.922074 28.391741 
L 90.105458 28.073554 
L 90.288843 27.18286 
L 90.472227 28.213043 
L 90.655612 27.978187 
L 90.838996 28.164835 
L 91.205765 27.682887 
L 91.389149 26.57554 
L 91.572534 28.393404 
L 91.755918 27.172575 
L 92.122687 28.940129 
L 92.489456 27.188201 
L 92.67284 28.660452 
L 92.856224 27.273328 
L 93.039609 29.172183 
L 93.406378 28.369893 
L 93.589762 28.072443 
L 93.773146 28.40547 
L 93.956531 29.681576 
L 94.139915 28.565147 
L 94.506684 30.259277 
L 94.690068 30.788902 
L 94.873453 30.297047 
L 95.056837 29.10665 
L 95.240222 29.525915 
L 95.60699 31.401144 
L 95.973759 29.955085 
L 96.523912 33.308533 
L 96.707297 32.40022 
L 97.074065 33.863869 
L 97.25745 32.310308 
L 97.440834 32.496327 
L 97.624219 33.330663 
L 97.807603 35.478044 
L 97.990987 34.972437 
L 98.174372 33.715383 
L 98.357756 33.871918 
L 98.724525 35.101172 
L 99.274678 37.290888 
L 99.458063 37.042023 
L 99.641447 39.013839 
L 100.008216 37.85896 
L 100.1916 39.959168 
L 100.374985 39.862626 
L 100.741753 41.453322 
L 100.925138 41.439639 
L 101.108522 42.432243 
L 101.291907 40.742932 
L 101.658675 42.06141 
L 101.84206 41.695706 
L 102.025444 43.492435 
L 102.208829 43.455481 
L 102.392213 43.630203 
L 102.575597 45.819969 
L 102.758982 44.790924 
L 102.942366 45.142016 
L 103.125751 46.147997 
L 103.309135 45.644499 
L 103.492519 47.284505 
L 103.675904 46.774829 
L 104.592826 49.273052 
L 104.959595 51.366212 
L 105.142979 51.040429 
L 105.509748 53.011733 
L 105.693132 54.01551 
L 105.876517 53.979003 
L 106.059901 54.822054 
L 106.243285 54.6183 
L 106.793438 57.598784 
L 106.976823 55.821376 
L 107.160207 57.982996 
L 107.343592 57.958186 
L 107.71036 59.872698 
L 107.893745 58.067224 
L 108.077129 59.864443 
L 108.260514 59.557865 
L 108.627282 61.876741 
L 109.177436 63.746709 
L 109.36082 62.00485 
L 109.544204 62.805384 
L 109.727589 64.570703 
L 109.910973 63.878457 
L 110.094358 64.134842 
L 110.277742 66.985243 
L 110.461126 66.106583 
L 110.644511 67.778833 
L 111.01128 66.637531 
L 111.561433 68.277601 
L 111.744817 68.413269 
L 112.478355 71.345333 
L 112.661739 72.34847 
L 113.028508 71.487589 
L 113.211892 71.55819 
L 113.578661 74.529929 
L 113.762046 73.797135 
L 114.312199 75.760538 
L 114.495583 74.398794 
L 114.678968 76.369774 
L 115.045736 74.710391 
L 115.229121 75.314689 
L 115.59589 78.049333 
L 115.779274 76.957946 
L 116.329427 78.281248 
L 116.512811 77.115762 
L 116.696196 79.306677 
L 116.87958 77.709243 
L 117.062965 77.750179 
L 117.246349 78.065975 
L 117.613118 79.961159 
L 117.796502 78.611765 
L 117.979887 78.815023 
L 118.346655 81.207141 
L 118.53004 79.963156 
L 118.713424 80.768925 
L 119.080193 80.442434 
L 119.263577 79.772193 
L 119.630346 81.392931 
L 119.813731 81.950069 
L 120.180499 81.260872 
L 120.363884 81.463756 
L 120.547268 82.545914 
L 120.730653 80.574792 
L 121.097421 83.001422 
L 121.280806 81.944017 
L 121.647575 82.910678 
L 122.197728 80.790147 
L 122.381112 81.230411 
L 122.564497 82.327744 
L 122.564497 82.327744 
" clip-path="url(#p4af1f1c15b)" style="fill: none; stroke: #cc3164; stroke-width: 1.5; stroke-linecap: square"/>
   </g>
   <g id="patch_3">
    <path d="M 26.480242 85.830447 
L 26.480242 23.591878 
" style="fill: none; stroke: #4d4f53; stroke-width: 0.8; stroke-linejoin: miter; stroke-linecap: square"/>
   </g>
   <g id="patch_4">
    <path d="M 127.139937 85.830447 
L 127.139937 23.591878 
" style="fill: none; stroke: #4d4f53; stroke-width: 0.8; stroke-linejoin: miter; stroke-linecap: square"/>
   </g>
   <g id="patch_5">
    <path d="M 26.480242 85.830447 
L 127.139937 85.830447 
" style="fill: none; stroke: #4d4f53; stroke-width: 0.8; stroke-linejoin: miter; stroke-linecap: square"/>
   </g>
   <g id="patch_6">
    <path d="M 26.480242 23.591878 
L 127.139937 23.591878 
" style="fill: none; stroke: #4d4f53; stroke-width: 0.8; stroke-linejoin: miter; stroke-linecap: square"/>
   </g>
   <g id="legend_1">
    <g id="patch_7">
     <path d="M 26.480242 23.591878 
L 127.139937 23.591878 
L 127.139937 7.2 
L 26.480242 7.2 
z
" style="fill: #ffffff; stroke: #4d4f53; stroke-width: 0.8; stroke-linejoin: miter"/>
    </g>
    <g id="text_6">
     <!-- title -->
     <g style="fill: #4d4f53" transform="translate(30.645242 17.694498) scale(0.0833 -0.0833)">
      <defs>
       <path id="DejaVuSans-74" d="M 1172 4494 
L 1172 3500 
L 2356 3500 
L 2356 3053 
L 1172 3053 
L 1172 1153 
Q 1172 725 1289 603 
Q 1406 481 1766 481 
L 2356 481 
L 2356 0 
L 1766 0 
Q 1100 0 847 248 
Q 594 497 594 1153 
L 594 3053 
L 172 3053 
L 172 3500 
L 594 3500 
L 594 4494 
L 1172 4494 
z
" transform="scale(0.015625)"/>
       <path id="DejaVuSans-69" d="M 603 3500 
L 1178 3500 
L 1178 0 
L 603 0 
L 603 3500 
z
M 603 4863 
L 1178 4863 
L 1178 4134 
L 603 4134 
L 603 4863 
z
" transform="scale(0.015625)"/>
       <path id="DejaVuSans-6c" d="M 603 4863 
L 1178 4863 
L 1178 0 
L 603 0 
L 603 4863 
z
" transform="scale(0.015625)"/>
       <path id="DejaVuSans-65" d="M 3597 1894 
L 3597 1613 
L 953 1613 
Q 991 1019 1311 708 
Q 1631 397 2203 397 
Q 2534 397 2845 478 
Q 3156 559 3463 722 
L 3463 178 
Q 3153 47 2828 -22 
Q 2503 -91 2169 -91 
Q 1331 -91 842 396 
Q 353 884 353 1716 
Q 353 2575 817 3079 
Q 1281 3584 2069 3584 
Q 2775 3584 3186 3129 
Q 3597 2675 3597 1894 
z
M 3022 2063 
Q 3016 2534 2758 2815 
Q 2500 3097 2075 3097 
Q 1594 3097 1305 2825 
Q 1016 2553 972 2059 
L 3022 2063 
z
" transform="scale(0.015625)"/>
      </defs>
      <use xlink:href="#DejaVuSans-74"/>
      <use xlink:href="#DejaVuSans-69" transform="translate(39.208984 0)"/>
      <use xlink:href="#DejaVuSans-74" transform="translate(66.992188 0)"/>
      <use xlink:href="#DejaVuSans-6c" transform="translate(106.201172 0)"/>
      <use xlink:href="#DejaVuSans-65" transform="translate(133.984375 0)"/>
     </g>
    </g>
    <g id="line2d_13">
     <path d="M 60.212565 14.778998 
L 66.043565 14.778998 
L 71.874565 14.778998 
" style="fill: none; stroke: #3362b0; stroke-width: 1.5; stroke-linecap: square"/>
    </g>
    <g id="text_7">
     <!-- $x_1$ -->
     <g style="fill: #4d4f53" transform="translate(76.039565 17.694498) scale(0.0833 -0.0833)">
      <defs>
       <path id="DejaVuSans-Oblique-78" d="M 3841 3500 
L 2234 1784 
L 3219 0 
L 2559 0 
L 1819 1388 
L 531 0 
L -166 0 
L 1556 1844 
L 641 3500 
L 1300 3500 
L 1972 2234 
L 3144 3500 
L 3841 3500 
z
" transform="scale(0.015625)"/>
      </defs>
      <use xlink:href="#DejaVuSans-Oblique-78" transform="translate(0 0.3125)"/>
      <use xlink:href="#DejaVuSans-31" transform="translate(59.179688 -16.09375) scale(0.7)"/>
     </g>
    </g>
    <g id="line2d_14">
     <path d="M 98.234837 14.778998 
L 104.065837 14.778998 
L 109.896837 14.778998 
" style="fill: none; stroke: #cc3164; stroke-width: 1.5; stroke-linecap: square"/>
    </g>
    <g id="text_8">
     <!-- $x_2$ -->
     <g style="fill: #4d4f53" transform="translate(114.061837 17.694498) scale(0.0833 -0.0833)">
      <defs>
       <path id="DejaVuSans-32" d="M 1228 531 
L 3431 531 
L 3431 0 
L 469 0 
L 469 531 
Q 828 903 1448 1529 
Q 2069 2156 2228 2338 
Q 2531 2678 2651 2914 
Q 2772 3150 2772 3378 
Q 2772 3750 2511 3984 
Q 2250 4219 1831 4219 
Q 1534 4219 1204 4116 
Q 875 4013 500 3803 
L 500 4441 
Q 881 4594 1212 4672 
Q 1544 4750 1819 4750 
Q 2544 4750 2975 4387 
Q 3406 4025 3406 3419 
Q 3406 3131 3298 2873 
Q 3191 2616 2906 2266 
Q 2828 2175 2409 1742 
Q 1991 1309 1228 531 
z
" transform="scale(0.015625)"/>
      </defs>
      <use xlink:href="#DejaVuSans-Oblique-78" transform="translate(0 0.3125)"/>
      <use xlink:href="#DejaVuSans-32" transform="translate(59.179688 -16.09375) scale(0.7)"/>
     </g>
    </g>
   </g>
  </g>
 </g>
 <defs>
  <clipPath id="p4af1f1c15b">
   <rect x="26.480242" y="23.591878" width="100.659695" height="62.238569"/>
  </clipPath>
 </defs>
</svg>
