<?xml version="1.0" encoding="utf-8" standalone="no"?>
<!DOCTYPE svg PUBLIC "-//W3C//DTD SVG 1.1//EN"
  "http://www.w3.org/Graphics/SVG/1.1/DTD/svg11.dtd">
<svg xmlns:xlink="http://www.w3.org/1999/xlink" width="264.995092pt" height="82.618128pt" viewBox="0 0 264.995092 82.618128" xmlns="http://www.w3.org/2000/svg" version="1.1">
 <metadata>
  <rdf:RDF xmlns:dc="http://purl.org/dc/elements/1.1/" xmlns:cc="http://creativecommons.org/ns#" xmlns:rdf="http://www.w3.org/1999/02/22-rdf-syntax-ns#">
   <cc:Work>
    <dc:type rdf:resource="http://purl.org/dc/dcmitype/StillImage"/>
    <dc:date>2026-04-30T17:21:25.444941</dc:date>
    <dc:format>image/svg+xml</dc:format>
    <dc:creator>
     <cc:Agent>
      <dc:title>Matplotlib v3.10.9, https://matplotlib.org/</dc:title>
     </cc:Agent>
    </dc:creator>
   </cc:Work>
  </rdf:RDF>
 </metadata>
 <defs>
  <style type="text/css">*{stroke-linejoin: round; stroke-linecap: butt}</style>
 </defs>
 <g id="figure_1">
  <g id="patch_1">
   <path d="M 0 82.618128 
L 264.995092 82.618128 
L 264.995092 0 
L 0 0 
L 0 82.618128 
z
" style="fill: none"/>
  </g>
  <g id="axes_1">
   <g id="patch_2">
    <path d="M 26.480242 60.35625 
L 112.698992 60.35625 
L 112.698992 7.2 
L 26.480242 7.2 
L 26.480242 60.35625 
z
" style="fill: none"/>
   </g>
   <g id="matplotlib.axis_1">
    <g id="xtick_1">
     <g id="line2d_1">
      <defs>
       <path id="mf1cb0b0742" d="M 0 0 
L 0 3.5 
" style="stroke: #4d4f53; stroke-width: 0.8"/>
      </defs>
      <g>
       <use xlink:href="#mf1cb0b0742" x="33.665138" y="60.35625" style="fill: #4d4f53; stroke: #4d4f53; stroke-width: 0.8"/>
      </g>
     </g>
     <g id="text_1">
      <!-- 0 -->
      <g style="fill: #4d4f53" transform="translate(31.015157 73.685748) scale(0.0833 -0.0833)">
       <defs>
        <path id="DejaVuSans-30" d="M 2034 4250 
Q 1547 4250 1301 3770 
Q 1056 3291 1056 2328 
Q 1056 1369 1301 889 
Q 1547 409 2034 409 
Q 2525 409 2770 889 
Q 3016 1369 3016 2328 
Q 3016 3291 2770 3770 
Q 2525 4250 2034 4250 
z
M 2034 4750 
Q 2819 4750 3233 4129 
Q 3647 3509 3647 2328 
Q 3647 1150 3233 529 
Q 2819 -91 2034 -91 
Q 1250 -91 836 529 
Q 422 1150 422 2328 
Q 422 3509 836 4129 
Q 1250 4750 2034 4750 
z
" transform="scale(0.015625)"/>
       </defs>
       <use xlink:href="#DejaVuSans-30"/>
      </g>
     </g>
    </g>
    <g id="xtick_2">
     <g id="line2d_2">
      <g>
       <use xlink:href="#mf1cb0b0742" x="71.782194" y="60.35625" style="fill: #4d4f53; stroke: #4d4f53; stroke-width: 0.8"/>
      </g>
     </g>
     <g id="text_2">
      <!-- 5 -->
      <g style="fill: #4d4f53" transform="translate(69.132213 73.685748) scale(0.0833 -0.0833)">
       <defs>
        <path id="DejaVuSans-35" d="M 691 4666 
L 3169 4666 
L 3169 4134 
L 1269 4134 
L 1269 2991 
Q 1406 3038 1543 3061 
Q 1681 3084 1819 3084 
Q 2600 3084 3056 2656 
Q 3513 2228 3513 1497 
Q 3513 744 3044 326 
Q 2575 -91 1722 -91 
Q 1428 -91 1123 -41 
Q 819 9 494 109 
L 494 744 
Q 775 591 1075 516 
Q 1375 441 1709 441 
Q 2250 441 2565 725 
Q 2881 1009 2881 1497 
Q 2881 1984 2565 2268 
Q 2250 2553 1709 2553 
Q 1456 2553 1204 2497 
Q 953 2441 691 2322 
L 691 4666 
z
" transform="scale(0.015625)"/>
       </defs>
       <use xlink:href="#DejaVuSans-35"/>
      </g>
     </g>
    </g>
    <g id="xtick_3">
     <g id="line2d_3">
      <g>
       <use xlink:href="#mf1cb0b0742" x="109.899251" y="60.35625" style="fill: #4d4f53; stroke: #4d4f53; stroke-width: 0.8"/>
      </g>
     </g>
     <g id="text_3">
      <!-- 10 -->
      <g style="fill: #4d4f53" transform="translate(104.599288 73.685748) scale(0.0833 -0.0833)">
       <defs>
        <path id="DejaVuSans-31" d="M 794 531 
L 1825 531 
L 1825 4091 
L 703 3866 
L 703 4441 
L 1819 4666 
L 2450 4666 
L 2450 531 
L 3481 531 
L 3481 0 
L 794 0 
L 794 531 
z
" transform="scale(0.015625)"/>
       </defs>
       <use xlink:href="#DejaVuSans-31"/>
       <use xlink:href="#DejaVuSans-30" transform="translate(63.623047 0)"/>
      </g>
     </g>
    </g>
   </g>
   <g id="matplotlib.axis_2">
    <g id="ytick_1">
     <g id="line2d_4">
      <defs>
       <path id="mc21c69eca0" d="M 0 0 
L -3.5 0 
" style="stroke: #4d4f53; stroke-width: 0.8"/>
      </defs>
      <g>
       <use xlink:href="#mc21c69eca0" x="26.480242" y="55.946156" style="fill: #4d4f53; stroke: #4d4f53; stroke-width: 0.8"/>
      </g>
     </g>
     <g id="text_4">
      <!-- −1 -->
      <g style="fill: #4d4f53" transform="translate(7.2 59.110905) scale(0.0833 -0.0833)">
       <defs>
        <path id="DejaVuSans-2212" d="M 678 2272 
L 4684 2272 
L 4684 1741 
L 678 1741 
L 678 2272 
z
" transform="scale(0.015625)"/>
       </defs>
       <use xlink:href="#DejaVuSans-2212"/>
       <use xlink:href="#DejaVuSans-31" transform="translate(83.789062 0)"/>
      </g>
     </g>
    </g>
    <g id="ytick_2">
     <g id="line2d_5">
      <g>
       <use xlink:href="#mc21c69eca0" x="26.480242" y="34.839111" style="fill: #4d4f53; stroke: #4d4f53; stroke-width: 0.8"/>
      </g>
     </g>
     <g id="text_5">
      <!-- 0 -->
      <g style="fill: #4d4f53" transform="translate(14.18028 38.00386) scale(0.0833 -0.0833)">
       <use xlink:href="#DejaVuSans-30"/>
      </g>
     </g>
    </g>
    <g id="ytick_3">
     <g id="line2d_6">
      <g>
       <use xlink:href="#mc21c69eca0" x="26.480242" y="13.732065" style="fill: #4d4f53; stroke: #4d4f53; stroke-width: 0.8"/>
      </g>
     </g>
     <g id="text_6">
      <!-- 1 -->
      <g style="fill: #4d4f53" transform="translate(14.18028 16.896814) scale(0.0833 -0.0833)">
       <use xlink:href="#DejaVuSans-31"/>
      </g>
     </g>
    </g>
   </g>
   <g id="line2d_7">
    <path d="M 33.665138 19.026209 
L 34.241082 17.227973 
L 34.385067 17.524017 
L 34.529053 15.777407 
L 34.673039 16.057678 
L 34.817025 17.13407 
L 35.104997 15.615457 
L 35.248983 16.469945 
L 35.392969 14.45625 
L 35.536955 15.40157 
L 35.824926 14.290517 
L 35.968912 15.029006 
L 36.112898 14.7449 
L 36.40087 13.702597 
L 36.544856 14.763072 
L 36.688842 14.41065 
L 36.832828 13.470727 
L 36.976813 13.704344 
L 37.120799 14.262804 
L 37.264785 13.655653 
L 37.408771 14.002437 
L 37.696743 12.478289 
L 37.840729 13.761325 
L 37.984715 12.05617 
L 38.128701 13.110891 
L 38.272686 12.88438 
L 38.416672 12.817563 
L 38.560658 13.815982 
L 38.84863 11.683811 
L 39.136602 13.474213 
L 39.424574 12.269537 
L 39.568559 13.733498 
L 39.712545 12.974717 
L 39.856531 13.652146 
L 40.000517 12.13941 
L 40.144503 13.104173 
L 40.288489 12.40407 
L 40.432475 12.901981 
L 40.576461 11.944762 
L 40.720447 12.300548 
L 41.008418 13.029344 
L 41.152404 12.204654 
L 41.440376 14.479377 
L 41.584362 14.432612 
L 41.728348 12.756692 
L 41.872334 12.809139 
L 42.160305 14.415974 
L 42.304291 13.7563 
L 42.448277 15.412465 
L 42.592263 13.991777 
L 42.736249 14.345893 
L 42.880235 15.535069 
L 43.168207 14.382132 
L 43.312193 16.15711 
L 43.456178 14.777923 
L 43.600164 16.222324 
L 43.74415 15.642284 
L 43.888136 16.7799 
L 44.032122 16.470841 
L 44.176108 17.423811 
L 44.320094 17.049172 
L 44.608066 17.695101 
L 44.752051 17.115536 
L 44.896037 18.007346 
L 45.040023 17.788063 
L 45.184009 17.915143 
L 45.327995 19.125333 
L 45.471981 18.230945 
L 46.047924 20.350153 
L 46.19191 19.737825 
L 46.623868 22.098642 
L 46.767854 20.929122 
L 47.199812 23.434357 
L 47.343797 23.368941 
L 47.775755 25.06317 
L 47.919741 24.242431 
L 48.063727 25.987802 
L 48.207713 25.916637 
L 48.495685 25.175186 
L 48.783656 27.034752 
L 48.927642 26.470132 
L 49.071628 26.556943 
L 49.3596 28.595515 
L 49.503586 28.329983 
L 49.791558 30.515602 
L 49.935543 30.237254 
L 50.079529 30.343588 
L 50.223515 31.658781 
L 50.367501 30.224161 
L 51.231416 34.275261 
L 51.375402 34.436152 
L 51.519388 33.897558 
L 51.663374 34.720147 
L 51.80736 34.157277 
L 52.239318 36.930417 
L 52.527289 37.201325 
L 52.671275 38.345947 
L 52.815261 37.557469 
L 52.959247 39.167071 
L 53.103233 38.151755 
L 53.247219 38.673096 
L 53.391205 40.433044 
L 53.535191 39.224087 
L 53.679177 40.501326 
L 53.823162 39.956588 
L 54.25512 42.353553 
L 54.399106 41.298854 
L 54.543092 42.878656 
L 54.687078 42.241149 
L 54.831064 42.98286 
L 54.97505 42.628133 
L 55.407007 45.404148 
L 55.550993 43.898759 
L 55.838965 46.275294 
L 55.982951 45.49075 
L 56.270923 46.399217 
L 56.414908 45.964592 
L 56.558894 46.29145 
L 56.70288 47.940093 
L 56.846866 47.27756 
L 57.278824 49.546805 
L 57.42281 49.517997 
L 57.566796 48.875489 
L 57.710781 49.892934 
L 57.854767 49.827008 
L 57.998753 50.28974 
L 58.142739 50.218214 
L 58.286725 50.137567 
L 58.430711 49.757566 
L 58.574697 51.926923 
L 58.718683 51.051578 
L 58.862668 51.096215 
L 59.006654 52.330961 
L 59.15064 51.342336 
L 59.294626 52.280544 
L 59.438612 52.197078 
L 59.582598 52.247072 
L 59.726584 51.867536 
L 60.014556 52.671657 
L 60.302527 54.223467 
L 60.590499 52.960482 
L 60.734485 53.265151 
L 60.878471 54.462921 
L 61.022457 54.425989 
L 61.166443 54.659676 
L 61.454414 53.938066 
L 61.742386 54.907155 
L 62.030358 53.848978 
L 62.174344 54.555174 
L 62.31833 54.237918 
L 62.462316 54.900215 
L 62.750287 54.148517 
L 62.894273 55.879226 
L 63.038259 54.385097 
L 63.182245 54.429105 
L 63.470217 54.282569 
L 63.614203 53.951682 
L 63.902175 55.487659 
L 64.190146 53.716559 
L 64.478118 53.874703 
L 64.76609 55.54798 
L 65.054062 53.85056 
L 65.198048 53.809829 
L 65.342033 54.872277 
L 65.486019 54.845194 
L 65.630005 54.641201 
L 65.773991 53.119455 
L 66.061963 54.211798 
L 66.205949 53.112959 
L 66.349935 54.214205 
L 66.493921 53.937999 
L 66.637906 53.735951 
L 66.925878 52.31855 
L 67.069864 52.225068 
L 67.357836 51.473917 
L 67.645808 52.444166 
L 67.789794 51.354664 
L 67.933779 51.52593 
L 68.077765 51.392289 
L 68.509723 49.316386 
L 68.653709 50.019309 
L 69.373638 47.543551 
L 69.517624 48.890429 
L 69.805596 47.224289 
L 69.949582 48.161238 
L 70.237554 46.268147 
L 71.389441 43.410866 
L 71.533427 44.35431 
L 71.677413 43.071145 
L 71.821398 43.734077 
L 71.965384 42.018561 
L 72.10937 43.322488 
L 72.253356 42.951406 
L 72.397342 42.613777 
L 72.685314 40.786584 
L 72.8293 41.47371 
L 72.973286 41.096817 
L 73.261257 38.807223 
L 73.405243 39.513435 
L 73.693215 37.443368 
L 73.837201 37.081709 
L 73.981187 37.270797 
L 74.413144 35.699621 
L 74.55713 36.003254 
L 74.989088 33.949029 
L 75.133074 34.533586 
L 75.27706 33.766858 
L 75.421046 34.068826 
L 75.996989 31.520374 
L 76.140975 32.382045 
L 76.284961 31.858672 
L 76.716919 28.862049 
L 76.860905 30.259213 
L 77.436848 26.906197 
L 77.580834 28.176216 
L 77.868806 26.470139 
L 78.012792 26.872442 
L 78.156778 26.986158 
L 78.588735 24.319767 
L 78.732721 24.822716 
L 78.876707 24.579452 
L 79.164679 23.246149 
L 79.308665 23.560848 
L 79.452651 22.297245 
L 79.596636 22.686194 
L 79.740622 21.58794 
L 79.884608 22.778722 
L 80.028594 20.625399 
L 80.17258 20.859688 
L 80.316566 20.951249 
L 80.460552 21.547355 
L 80.892509 18.725614 
L 81.180481 18.918211 
L 81.324467 18.945963 
L 81.468453 17.778781 
L 81.612439 18.044207 
L 81.756425 17.433027 
L 82.044397 18.247439 
L 82.188382 16.150611 
L 82.332368 17.927702 
L 82.476354 17.291738 
L 82.62034 16.651523 
L 82.764326 16.798049 
L 82.908312 16.523982 
L 83.34027 15.185775 
L 83.484255 14.666291 
L 83.628241 15.63278 
L 83.772227 14.021468 
L 83.916213 14.340796 
L 84.060199 15.473086 
L 84.204185 14.149534 
L 84.348171 14.460574 
L 84.492157 14.385112 
L 84.636143 14.554063 
L 84.924114 12.655622 
L 85.0681 14.015089 
L 85.212086 13.10838 
L 85.356072 13.466686 
L 85.500058 13.380257 
L 85.644044 13.983548 
L 85.78803 13.595516 
L 85.932016 12.220921 
L 86.076001 13.743204 
L 86.219987 13.261475 
L 86.363973 12.370049 
L 86.651945 13.229177 
L 86.795931 11.773182 
L 86.939917 11.830358 
L 87.083903 12.44985 
L 87.371874 11.651763 
L 87.51586 11.89049 
L 87.659846 12.702064 
L 87.803832 12.071829 
L 87.947818 12.137039 
L 88.091804 13.481589 
L 88.23579 12.621302 
L 88.379776 13.751197 
L 88.523762 13.536683 
L 88.667747 13.78661 
L 88.955719 13.292658 
L 89.099705 13.71556 
L 89.387677 12.705781 
L 89.675649 14.657973 
L 89.819635 12.990508 
L 89.96362 14.323887 
L 90.251592 13.364525 
L 90.395578 13.779517 
L 90.539564 15.518331 
L 90.68355 14.969985 
L 90.827536 15.45461 
L 90.971522 14.820052 
L 91.115508 15.160219 
L 91.259493 14.61182 
L 91.403479 15.936829 
L 91.547465 15.209379 
L 91.979423 17.043353 
L 92.123409 16.388659 
L 92.267395 16.911556 
L 92.411381 16.313483 
L 92.699352 18.375595 
L 92.843338 17.672977 
L 92.987324 18.010347 
L 93.13131 17.739589 
L 93.275296 18.015243 
L 93.419282 19.712346 
L 93.563268 19.402858 
L 94.139211 21.568337 
L 94.283197 20.004076 
L 94.427183 20.485074 
L 95.003126 22.271186 
L 95.147112 23.578987 
L 95.291098 22.436691 
L 95.435084 24.658216 
L 95.57907 23.757118 
L 95.723056 25.362867 
L 95.867042 23.750853 
L 96.011028 24.319093 
L 96.586971 27.32122 
L 96.730957 26.269981 
L 97.018929 28.500625 
L 97.162915 28.435946 
L 97.306901 27.46187 
L 97.738858 30.185379 
L 97.882844 29.455356 
L 98.02683 31.189337 
L 98.170816 30.966679 
L 98.314802 30.455122 
L 98.458788 32.654172 
L 98.74676 31.411643 
L 98.890745 33.384151 
L 99.034731 32.711133 
L 99.322703 33.232808 
L 99.754661 36.094858 
L 99.898647 35.483861 
L 100.330604 36.699582 
L 100.618576 38.272811 
L 100.906548 37.316235 
L 101.482491 40.349247 
L 101.626477 39.384961 
L 102.058435 42.259241 
L 102.202421 41.773679 
L 102.346407 43.02129 
L 102.490393 42.126311 
L 102.634379 43.642315 
L 102.778364 43.298908 
L 102.92235 44.123387 
L 103.066336 42.887418 
L 103.498294 45.998155 
L 103.64228 45.074718 
L 104.074237 46.497178 
L 104.218223 45.789699 
L 104.362209 47.593708 
L 104.506195 46.826242 
L 104.650181 46.953701 
L 105.082139 48.001191 
L 105.37011 49.863605 
L 105.514096 48.395549 
L 105.514096 48.395549 
" clip-path="url(#p30286bb5f3)" style="fill: none; stroke: #3362b0; stroke-width: 1.5; stroke-linecap: square"/>
   </g>
   <g id="line2d_8">
    <path d="M 33.665138 13.354954 
L 33.809124 12.131924 
L 33.95311 12.245702 
L 34.097096 13.52799 
L 34.241082 12.26121 
L 34.385067 13.491087 
L 34.529053 13.458891 
L 34.817025 13.389757 
L 34.961011 14.057832 
L 35.104997 13.679755 
L 35.248983 14.249153 
L 35.392969 14.104908 
L 35.536955 13.192791 
L 35.824926 15.057615 
L 35.968912 13.984951 
L 36.112898 15.073298 
L 36.40087 13.924236 
L 36.688842 16.03903 
L 36.832828 15.682628 
L 36.976813 15.935369 
L 37.264785 17.069324 
L 37.408771 16.002127 
L 37.552757 16.523797 
L 37.696743 15.951141 
L 38.128701 17.525536 
L 38.272686 17.700025 
L 38.416672 19.102799 
L 38.560658 18.916156 
L 38.704644 18.442566 
L 38.84863 19.860512 
L 38.992616 19.340594 
L 39.136602 19.023063 
L 39.280588 20.825941 
L 39.424574 19.332752 
L 40.288489 22.554406 
L 40.432475 22.006177 
L 40.576461 23.70956 
L 40.720447 22.135384 
L 41.008418 24.744013 
L 41.152404 24.846747 
L 41.29639 23.659661 
L 41.584362 25.659304 
L 41.728348 25.664057 
L 41.872334 26.82893 
L 42.01632 25.669592 
L 42.160305 27.056923 
L 42.304291 26.408609 
L 42.592263 28.698261 
L 42.736249 27.49443 
L 43.168207 29.883528 
L 43.312193 28.784884 
L 43.456178 30.158059 
L 43.600164 29.630674 
L 44.032122 31.662084 
L 44.176108 31.083148 
L 44.320094 33.422505 
L 44.46408 32.109383 
L 44.608066 34.245048 
L 44.752051 33.906743 
L 44.896037 33.936099 
L 45.759953 36.889263 
L 45.903939 36.039238 
L 46.047924 36.668509 
L 46.335896 38.903906 
L 46.479882 38.393222 
L 46.91184 40.292998 
L 47.199812 40.122404 
L 47.343797 39.729687 
L 47.919741 42.507391 
L 48.063727 41.734196 
L 48.351699 44.219743 
L 48.495685 43.650776 
L 48.783656 45.232566 
L 48.927642 43.71719 
L 49.071628 45.121546 
L 49.215614 44.43847 
L 49.791558 47.556739 
L 49.935543 46.529169 
L 50.079529 47.708396 
L 50.223515 47.013857 
L 50.367501 48.299613 
L 50.511487 48.199449 
L 50.655473 48.199355 
L 50.799459 49.452655 
L 50.943445 48.767812 
L 51.087431 50.128989 
L 51.231416 49.883715 
L 51.375402 50.046832 
L 51.519388 50.64795 
L 51.663374 49.324686 
L 51.80736 51.514503 
L 51.951346 50.005727 
L 52.095332 50.774866 
L 52.239318 50.313127 
L 52.383304 51.331264 
L 52.527289 51.27335 
L 52.671275 51.173668 
L 52.815261 51.487549 
L 52.959247 52.961249 
L 53.103233 52.466438 
L 53.247219 53.036287 
L 53.391205 51.934208 
L 53.679177 53.149363 
L 53.823162 52.998795 
L 53.967148 54.276802 
L 54.111134 52.890995 
L 54.399106 54.762164 
L 54.687078 53.847759 
L 54.97505 55.214527 
L 55.119035 53.417713 
L 55.263021 54.11568 
L 55.407007 55.293828 
L 55.550993 54.316051 
L 55.694979 55.49641 
L 55.838965 55.444626 
L 55.982951 55.587247 
L 56.270923 53.848754 
L 56.558894 55.668693 
L 56.70288 55.593268 
L 56.990852 54.484799 
L 57.134838 54.616891 
L 57.278824 55.84167 
L 57.42281 54.625287 
L 57.566796 55.734573 
L 57.710781 54.438122 
L 57.854767 55.006419 
L 57.998753 53.639549 
L 58.142739 53.75064 
L 58.286725 53.931202 
L 58.430711 53.691947 
L 58.862668 54.923082 
L 59.006654 53.98627 
L 59.15064 54.534929 
L 59.294626 53.136242 
L 59.438612 54.34516 
L 59.582598 54.25838 
L 59.87057 52.23271 
L 60.158541 53.570249 
L 60.302527 52.552394 
L 60.446513 53.206775 
L 60.590499 52.693717 
L 60.734485 51.174087 
L 60.878471 52.797581 
L 61.022457 52.630834 
L 61.166443 52.286144 
L 61.5984 49.922902 
L 61.742386 50.850859 
L 61.886372 50.530528 
L 62.030358 50.452694 
L 62.31833 48.737031 
L 62.462316 49.996817 
L 62.750287 48.148937 
L 62.894273 47.91827 
L 63.038259 48.844962 
L 63.326231 47.342794 
L 63.470217 48.178515 
L 63.758189 46.078996 
L 63.902175 47.252812 
L 64.190146 45.415988 
L 64.334132 45.915224 
L 64.478118 45.86999 
L 64.76609 43.685229 
L 64.910076 43.779097 
L 65.054062 44.133824 
L 65.342033 43.628278 
L 65.486019 42.511152 
L 65.630005 42.962198 
L 66.061963 41.905684 
L 66.205949 40.321567 
L 66.349935 40.476399 
L 66.781892 38.684261 
L 66.925878 38.755308 
L 67.21385 37.002977 
L 67.357836 38.152269 
L 67.501822 37.767163 
L 68.077765 34.932548 
L 68.365737 35.764246 
L 68.653709 33.189831 
L 69.517624 30.652683 
L 69.66161 31.339536 
L 69.805596 30.114607 
L 69.949582 30.95923 
L 70.237554 28.758251 
L 70.38154 29.573701 
L 70.525525 29.277853 
L 70.813497 27.532382 
L 70.957483 27.78959 
L 71.245455 26.593102 
L 71.389441 27.621667 
L 71.821398 24.748623 
L 71.965384 25.697602 
L 72.253356 23.340516 
L 72.541328 24.342803 
L 72.8293 21.953937 
L 73.117271 22.997229 
L 73.405243 20.991951 
L 73.549229 22.379198 
L 73.837201 20.096784 
L 73.981187 20.469692 
L 74.269159 19.020489 
L 74.413144 19.219945 
L 74.701116 18.622321 
L 74.845102 19.599057 
L 75.133074 17.652174 
L 75.27706 18.661617 
L 75.421046 16.932377 
L 75.709017 18.084952 
L 75.996989 16.525602 
L 76.140975 16.398907 
L 76.428947 16.69729 
L 76.572933 15.839733 
L 76.860905 16.352507 
L 77.00489 14.246098 
L 77.148876 15.118789 
L 77.292862 13.904106 
L 77.580834 14.725484 
L 77.868806 13.33059 
L 78.012792 14.664635 
L 78.156778 14.384567 
L 78.300763 13.777454 
L 78.444749 14.187584 
L 78.588735 13.496441 
L 78.732721 13.569547 
L 78.876707 13.632258 
L 79.020693 13.433179 
L 79.164679 12.064405 
L 79.452651 13.924699 
L 79.596636 11.850093 
L 79.740622 12.187785 
L 79.884608 13.172655 
L 80.028594 12.923547 
L 80.17258 12.226223 
L 80.316566 13.032753 
L 80.460552 12.848884 
L 80.604538 12.99501 
L 80.892509 12.617694 
L 81.036495 11.750752 
L 81.180481 13.173957 
L 81.324467 12.21817 
L 81.612439 13.601988 
L 81.900411 12.230404 
L 82.044397 13.383029 
L 82.188382 12.29705 
L 82.332368 13.783664 
L 82.476354 13.591165 
L 82.764326 12.922677 
L 82.908312 13.183404 
L 83.052298 14.182467 
L 83.196284 13.308415 
L 83.628241 15.049392 
L 83.916213 13.732358 
L 84.060199 14.0606 
L 84.348171 15.528716 
L 84.636143 14.396597 
L 85.0681 17.022011 
L 85.212086 16.310892 
L 85.500058 17.456784 
L 85.644044 16.2405 
L 85.78803 16.386135 
L 85.932016 17.039336 
L 86.076001 18.72052 
L 86.219987 18.324681 
L 86.363973 17.340533 
L 86.507959 17.463085 
L 86.939917 19.213195 
L 87.227889 20.139796 
L 87.371874 19.944959 
L 87.51586 21.488694 
L 87.803832 20.584539 
L 87.947818 22.228791 
L 88.091804 22.153209 
L 88.379776 23.398564 
L 88.523762 23.387852 
L 88.667747 24.164961 
L 88.811733 22.8424 
L 89.099705 23.874636 
L 89.243691 23.588327 
L 89.387677 24.994985 
L 89.531663 24.966055 
L 89.675649 25.102844 
L 89.819635 26.817211 
L 89.96362 26.011573 
L 90.107606 26.286442 
L 90.251592 27.074025 
L 90.395578 26.679836 
L 90.539564 27.963796 
L 90.68355 27.564771 
L 91.403479 29.520629 
L 91.691451 31.159364 
L 91.835437 30.904309 
L 92.267395 33.233498 
L 92.411381 33.204917 
L 93.13131 36.038843 
L 93.275296 34.647311 
L 93.419282 36.339643 
L 93.563268 36.320218 
L 93.851239 37.81909 
L 93.995225 36.405585 
L 94.427183 39.000748 
L 95.003126 40.852052 
L 95.147112 39.488351 
L 96.155014 44.008801 
L 96.442985 43.115276 
L 96.874943 44.399287 
L 97.018929 44.505501 
L 97.594872 46.801013 
L 97.738858 47.586369 
L 98.02683 46.912386 
L 98.170816 46.967659 
L 98.458788 49.294233 
L 98.602774 48.720529 
L 99.034731 50.257677 
L 99.178717 49.191567 
L 99.322703 50.734647 
L 99.466689 50.134919 
L 99.610675 49.435517 
L 99.754661 49.908621 
L 100.042633 52.049574 
L 100.186618 51.195127 
L 100.618576 52.23114 
L 100.762562 51.318681 
L 100.906548 53.033948 
L 101.050534 51.783317 
L 101.19452 51.815366 
L 101.338506 52.062603 
L 101.626477 53.546341 
L 101.770463 52.489901 
L 101.914449 52.649032 
L 102.202421 54.521821 
L 102.346407 53.547905 
L 102.490393 54.178742 
L 102.634379 54.080158 
L 102.778364 53.923132 
L 102.92235 53.3984 
L 103.210322 54.667276 
L 103.354308 55.103459 
L 103.64228 54.563886 
L 103.786266 54.722725 
L 103.930252 55.569946 
L 104.074237 54.026755 
L 104.362209 55.926563 
L 104.506195 55.098721 
L 104.794167 55.85552 
L 105.226125 54.195356 
L 105.514096 55.39914 
L 105.514096 55.39914 
" clip-path="url(#p30286bb5f3)" style="fill: none; stroke: #cc3164; stroke-width: 1.5; stroke-linecap: square"/>
   </g>
   <g id="patch_3">
    <path d="M 26.480242 55.926563 
L 26.480242 11.629687 
" style="fill: none; stroke: #4d4f53; stroke-width: 0.8; stroke-linejoin: miter; stroke-linecap: square"/>
   </g>
   <g id="patch_4">
    <path d="M 33.665138 60.35625 
L 105.514096 60.35625 
" style="fill: none; stroke: #4d4f53; stroke-width: 0.8; stroke-linejoin: miter; stroke-linecap: square"/>
   </g>
  </g>
  <g id="axes_2">
   <g id="patch_5">
    <path d="M 134.25368 60.35625 
L 220.47243 60.35625 
L 220.47243 7.2 
L 134.25368 7.2 
L 134.25368 60.35625 
z
" style="fill: none"/>
   </g>
   <g id="matplotlib.axis_3">
    <g id="xtick_4">
     <g id="line2d_9">
      <g>
       <use xlink:href="#mf1cb0b0742" x="141.438576" y="60.35625" style="fill: #4d4f53; stroke: #4d4f53; stroke-width: 0.8"/>
      </g>
     </g>
     <g id="text_7">
      <!-- 0 -->
      <g style="fill: #4d4f53" transform="translate(138.788594 73.685748) scale(0.0833 -0.0833)">
       <use xlink:href="#DejaVuSans-30"/>
      </g>
     </g>
    </g>
    <g id="xtick_5">
     <g id="line2d_10">
      <g>
       <use xlink:href="#mf1cb0b0742" x="179.555632" y="60.35625" style="fill: #4d4f53; stroke: #4d4f53; stroke-width: 0.8"/>
      </g>
     </g>
     <g id="text_8">
      <!-- 5 -->
      <g style="fill: #4d4f53" transform="translate(176.905651 73.685748) scale(0.0833 -0.0833)">
       <use xlink:href="#DejaVuSans-35"/>
      </g>
     </g>
    </g>
    <g id="xtick_6">
     <g id="line2d_11">
      <g>
       <use xlink:href="#mf1cb0b0742" x="217.672688" y="60.35625" style="fill: #4d4f53; stroke: #4d4f53; stroke-width: 0.8"/>
      </g>
     </g>
     <g id="text_9">
      <!-- 10 -->
      <g style="fill: #4d4f53" transform="translate(212.372726 73.685748) scale(0.0833 -0.0833)">
       <use xlink:href="#DejaVuSans-31"/>
       <use xlink:href="#DejaVuSans-30" transform="translate(63.623047 0)"/>
      </g>
     </g>
    </g>
   </g>
   <g id="matplotlib.axis_4">
    <g id="ytick_4">
     <g id="line2d_12">
      <g>
       <use xlink:href="#mc21c69eca0" x="134.25368" y="55.946156" style="fill: #4d4f53; stroke: #4d4f53; stroke-width: 0.8"/>
      </g>
     </g>
     <g id="text_10">
      <!-- −1 -->
      <g style="fill: #4d4f53" transform="translate(114.973438 59.110905) scale(0.0833 -0.0833)">
       <use xlink:href="#DejaVuSans-2212"/>
       <use xlink:href="#DejaVuSans-31" transform="translate(83.789062 0)"/>
      </g>
     </g>
    </g>
    <g id="ytick_5">
     <g id="line2d_13">
      <g>
       <use xlink:href="#mc21c69eca0" x="134.25368" y="34.839111" style="fill: #4d4f53; stroke: #4d4f53; stroke-width: 0.8"/>
      </g>
     </g>
     <g id="text_11">
      <!-- 0 -->
      <g style="fill: #4d4f53" transform="translate(121.953717 38.00386) scale(0.0833 -0.0833)">
       <use xlink:href="#DejaVuSans-30"/>
      </g>
     </g>
    </g>
    <g id="ytick_6">
     <g id="line2d_14">
      <g>
       <use xlink:href="#mc21c69eca0" x="134.25368" y="13.732065" style="fill: #4d4f53; stroke: #4d4f53; stroke-width: 0.8"/>
      </g>
     </g>
     <g id="text_12">
      <!-- 1 -->
      <g style="fill: #4d4f53" transform="translate(121.953717 16.896814) scale(0.0833 -0.0833)">
       <use xlink:href="#DejaVuSans-31"/>
      </g>
     </g>
    </g>
   </g>
   <g id="line2d_15">
    <path d="M 141.438576 19.026209 
L 142.014519 17.227973 
L 142.158505 17.524017 
L 142.302491 15.777407 
L 142.446477 16.057678 
L 142.590463 17.13407 
L 142.878434 15.615457 
L 143.02242 16.469945 
L 143.166406 14.45625 
L 143.310392 15.40157 
L 143.598364 14.290517 
L 143.74235 15.029006 
L 143.886336 14.7449 
L 144.174307 13.702597 
L 144.318293 14.763072 
L 144.462279 14.41065 
L 144.606265 13.470727 
L 144.750251 13.704344 
L 144.894237 14.262804 
L 145.038223 13.655653 
L 145.182209 14.002437 
L 145.47018 12.478289 
L 145.614166 13.761325 
L 145.758152 12.05617 
L 145.902138 13.110891 
L 146.046124 12.88438 
L 146.19011 12.817563 
L 146.334096 13.815982 
L 146.622068 11.683811 
L 146.910039 13.474213 
L 147.198011 12.269537 
L 147.341997 13.733498 
L 147.485983 12.974717 
L 147.629969 13.652146 
L 147.773955 12.13941 
L 147.917941 13.104173 
L 148.061926 12.40407 
L 148.205912 12.901981 
L 148.349898 11.944762 
L 148.493884 12.300548 
L 148.781856 13.029344 
L 148.925842 12.204654 
L 149.213813 14.479377 
L 149.357799 14.432612 
L 149.501785 12.756692 
L 149.645771 12.809139 
L 149.933743 14.415974 
L 150.077729 13.7563 
L 150.221715 15.412465 
L 150.365701 13.991777 
L 150.509686 14.345893 
L 150.653672 15.535069 
L 150.941644 14.382132 
L 151.08563 16.15711 
L 151.229616 14.777923 
L 151.373602 16.222324 
L 151.517588 15.642284 
L 151.661574 16.7799 
L 151.805559 16.470841 
L 151.949545 17.423811 
L 152.093531 17.049172 
L 152.381503 17.695101 
L 152.525489 17.115536 
L 152.669475 18.007346 
L 152.813461 17.788063 
L 152.957447 17.915143 
L 153.101432 19.125333 
L 153.245418 18.230945 
L 153.821362 20.350153 
L 153.965348 19.737825 
L 154.397305 22.098642 
L 154.541291 20.929122 
L 154.973249 23.434357 
L 155.117235 23.368941 
L 155.549193 25.06317 
L 155.693178 24.242431 
L 155.837164 25.987802 
L 155.98115 25.916637 
L 156.269122 25.175186 
L 156.557094 27.034752 
L 156.70108 26.470132 
L 156.845066 26.556943 
L 157.133037 28.595515 
L 157.277023 28.329983 
L 157.564995 30.515602 
L 157.708981 30.237254 
L 157.852967 30.343588 
L 157.996953 31.658781 
L 158.140939 30.224161 
L 159.004854 34.275261 
L 159.14884 34.436152 
L 159.292826 33.897558 
L 159.436812 34.720147 
L 159.580797 34.157277 
L 160.012755 36.930417 
L 160.300727 37.201325 
L 160.444713 38.345947 
L 160.588699 37.557469 
L 160.732685 39.167071 
L 160.87667 38.151755 
L 161.020656 38.673096 
L 161.164642 40.433044 
L 161.308628 39.224087 
L 161.452614 40.501326 
L 161.5966 39.956588 
L 162.028558 42.353553 
L 162.172543 41.298854 
L 162.316529 42.878656 
L 162.460515 42.241149 
L 162.604501 42.98286 
L 162.748487 42.628133 
L 163.180445 45.404148 
L 163.324431 43.898759 
L 163.612402 46.275294 
L 163.756388 45.49075 
L 164.04436 46.399217 
L 164.188346 45.964592 
L 164.332332 46.29145 
L 164.476318 47.940093 
L 164.620304 47.27756 
L 165.052261 49.546805 
L 165.196247 49.517997 
L 165.340233 48.875489 
L 165.484219 49.892934 
L 165.628205 49.827008 
L 165.772191 50.28974 
L 165.916177 50.218214 
L 166.060162 50.137567 
L 166.204148 49.757566 
L 166.348134 51.926923 
L 166.49212 51.051578 
L 166.636106 51.096215 
L 166.780092 52.330961 
L 166.924078 51.342336 
L 167.068064 52.280544 
L 167.21205 52.197078 
L 167.356035 52.247072 
L 167.500021 51.867536 
L 167.787993 52.671657 
L 168.075965 54.223467 
L 168.363937 52.960482 
L 168.507923 53.265151 
L 168.651908 54.462921 
L 168.795894 54.425989 
L 168.93988 54.659676 
L 169.227852 53.938066 
L 169.515824 54.907155 
L 169.803796 53.848978 
L 169.947781 54.555174 
L 170.091767 54.237918 
L 170.235753 54.900215 
L 170.523725 54.148517 
L 170.667711 55.879226 
L 170.811697 54.385097 
L 170.955683 54.429105 
L 171.243654 54.282569 
L 171.38764 53.951682 
L 171.675612 55.487659 
L 171.963584 53.716559 
L 172.251556 53.874703 
L 172.539527 55.54798 
L 172.827499 53.85056 
L 172.971485 53.809829 
L 173.115471 54.872277 
L 173.259457 54.845194 
L 173.403443 54.641201 
L 173.547429 53.119455 
L 173.8354 54.211798 
L 173.979386 53.112959 
L 174.123372 54.214205 
L 174.267358 53.937999 
L 174.411344 53.735951 
L 174.699316 52.31855 
L 174.843302 52.225068 
L 175.131273 51.473917 
L 175.419245 52.444166 
L 175.563231 51.354664 
L 175.707217 51.52593 
L 175.851203 51.392289 
L 176.283161 49.316386 
L 176.427146 50.019309 
L 177.147076 47.543551 
L 177.291062 48.890429 
L 177.579034 47.224289 
L 177.723019 48.161238 
L 178.010991 46.268147 
L 179.162878 43.410866 
L 179.306864 44.35431 
L 179.45085 43.071145 
L 179.594836 43.734077 
L 179.738822 42.018561 
L 179.882808 43.322488 
L 180.026794 42.951406 
L 180.17078 42.613777 
L 180.458751 40.786584 
L 180.602737 41.47371 
L 180.746723 41.096817 
L 181.034695 38.807223 
L 181.178681 39.513435 
L 181.466653 37.443368 
L 181.610638 37.081709 
L 181.754624 37.270797 
L 182.186582 35.699621 
L 182.330568 36.003254 
L 182.762526 33.949029 
L 182.906511 34.533586 
L 183.050497 33.766858 
L 183.194483 34.068826 
L 183.770427 31.520374 
L 183.914413 32.382045 
L 184.058399 31.858672 
L 184.490356 28.862049 
L 184.634342 30.259213 
L 185.210286 26.906197 
L 185.354271 28.176216 
L 185.642243 26.470139 
L 185.786229 26.872442 
L 185.930215 26.986158 
L 186.362173 24.319767 
L 186.506159 24.822716 
L 186.650144 24.579452 
L 186.938116 23.246149 
L 187.082102 23.560848 
L 187.226088 22.297245 
L 187.370074 22.686194 
L 187.51406 21.58794 
L 187.658046 22.778722 
L 187.802032 20.625399 
L 187.946017 20.859688 
L 188.090003 20.951249 
L 188.233989 21.547355 
L 188.665947 18.725614 
L 188.953919 18.918211 
L 189.097905 18.945963 
L 189.24189 17.778781 
L 189.385876 18.044207 
L 189.529862 17.433027 
L 189.817834 18.247439 
L 189.96182 16.150611 
L 190.105806 17.927702 
L 190.249792 17.291738 
L 190.393778 16.651523 
L 190.537763 16.798049 
L 190.681749 16.523982 
L 191.113707 15.185775 
L 191.257693 14.666291 
L 191.401679 15.63278 
L 191.545665 14.021468 
L 191.689651 14.340796 
L 191.833636 15.473086 
L 191.977622 14.149534 
L 192.121608 14.460574 
L 192.265594 14.385112 
L 192.40958 14.554063 
L 192.697552 12.655622 
L 192.841538 14.015089 
L 192.985524 13.10838 
L 193.129509 13.466686 
L 193.273495 13.380257 
L 193.417481 13.983548 
L 193.561467 13.595516 
L 193.705453 12.220921 
L 193.849439 13.743204 
L 193.993425 13.261475 
L 194.137411 12.370049 
L 194.425382 13.229177 
L 194.569368 11.773182 
L 194.713354 11.830358 
L 194.85734 12.44985 
L 195.145312 11.651763 
L 195.289298 11.89049 
L 195.433284 12.702064 
L 195.57727 12.071829 
L 195.721255 12.137039 
L 195.865241 13.481589 
L 196.009227 12.621302 
L 196.153213 13.751197 
L 196.297199 13.536683 
L 196.441185 13.78661 
L 196.729157 13.292658 
L 196.873143 13.71556 
L 197.161114 12.705781 
L 197.449086 14.657973 
L 197.593072 12.990508 
L 197.737058 14.323887 
L 198.02503 13.364525 
L 198.169016 13.779517 
L 198.313001 15.518331 
L 198.456987 14.969985 
L 198.600973 15.45461 
L 198.744959 14.820052 
L 198.888945 15.160219 
L 199.032931 14.61182 
L 199.176917 15.936829 
L 199.320903 15.209379 
L 199.75286 17.043353 
L 199.896846 16.388659 
L 200.040832 16.911556 
L 200.184818 16.313483 
L 200.47279 18.375595 
L 200.616776 17.672977 
L 200.760762 18.010347 
L 200.904747 17.739589 
L 201.048733 18.015243 
L 201.192719 19.712346 
L 201.336705 19.402858 
L 201.912649 21.568337 
L 202.056635 20.004076 
L 202.20062 20.485074 
L 202.776564 22.271186 
L 202.92055 23.578987 
L 203.064536 22.436691 
L 203.208522 24.658216 
L 203.352508 23.757118 
L 203.496493 25.362867 
L 203.640479 23.750853 
L 203.784465 24.319093 
L 204.360409 27.32122 
L 204.504395 26.269981 
L 204.792366 28.500625 
L 204.936352 28.435946 
L 205.080338 27.46187 
L 205.512296 30.185379 
L 205.656282 29.455356 
L 205.800268 31.189337 
L 205.944254 30.966679 
L 206.088239 30.455122 
L 206.232225 32.654172 
L 206.520197 31.411643 
L 206.664183 33.384151 
L 206.808169 32.711133 
L 207.096141 33.232808 
L 207.528098 36.094858 
L 207.672084 35.483861 
L 208.104042 36.699582 
L 208.392014 38.272811 
L 208.679985 37.316235 
L 209.255929 40.349247 
L 209.399915 39.384961 
L 209.831873 42.259241 
L 209.975858 41.773679 
L 210.119844 43.02129 
L 210.26383 42.126311 
L 210.407816 43.642315 
L 210.551802 43.298908 
L 210.695788 44.123387 
L 210.839774 42.887418 
L 211.271731 45.998155 
L 211.415717 45.074718 
L 211.847675 46.497178 
L 211.991661 45.789699 
L 212.135647 47.593708 
L 212.279633 46.826242 
L 212.423619 46.953701 
L 212.855576 48.001191 
L 213.143548 49.863605 
L 213.287534 48.395549 
L 213.287534 48.395549 
" clip-path="url(#pdbf25c1886)" style="fill: none; stroke: #3362b0; stroke-width: 1.5; stroke-linecap: square"/>
   </g>
   <g id="line2d_16">
    <path d="M 141.438576 13.354954 
L 141.582561 12.131924 
L 141.726547 12.245702 
L 141.870533 13.52799 
L 142.014519 12.26121 
L 142.158505 13.491087 
L 142.302491 13.458891 
L 142.590463 13.389757 
L 142.734449 14.057832 
L 142.878434 13.679755 
L 143.02242 14.249153 
L 143.166406 14.104908 
L 143.310392 13.192791 
L 143.598364 15.057615 
L 143.74235 13.984951 
L 143.886336 15.073298 
L 144.174307 13.924236 
L 144.462279 16.03903 
L 144.606265 15.682628 
L 144.750251 15.935369 
L 145.038223 17.069324 
L 145.182209 16.002127 
L 145.326195 16.523797 
L 145.47018 15.951141 
L 145.902138 17.525536 
L 146.046124 17.700025 
L 146.19011 19.102799 
L 146.334096 18.916156 
L 146.478082 18.442566 
L 146.622068 19.860512 
L 146.766053 19.340594 
L 146.910039 19.023063 
L 147.054025 20.825941 
L 147.198011 19.332752 
L 148.061926 22.554406 
L 148.205912 22.006177 
L 148.349898 23.70956 
L 148.493884 22.135384 
L 148.781856 24.744013 
L 148.925842 24.846747 
L 149.069828 23.659661 
L 149.357799 25.659304 
L 149.501785 25.664057 
L 149.645771 26.82893 
L 149.789757 25.669592 
L 149.933743 27.056923 
L 150.077729 26.408609 
L 150.365701 28.698261 
L 150.509686 27.49443 
L 150.941644 29.883528 
L 151.08563 28.784884 
L 151.229616 30.158059 
L 151.373602 29.630674 
L 151.805559 31.662084 
L 151.949545 31.083148 
L 152.093531 33.422505 
L 152.237517 32.109383 
L 152.381503 34.245048 
L 152.525489 33.906743 
L 152.669475 33.936099 
L 153.53339 36.889263 
L 153.677376 36.039238 
L 153.821362 36.668509 
L 154.109334 38.903906 
L 154.25332 38.393222 
L 154.685277 40.292998 
L 154.973249 40.122404 
L 155.117235 39.729687 
L 155.693178 42.507391 
L 155.837164 41.734196 
L 156.125136 44.219743 
L 156.269122 43.650776 
L 156.557094 45.232566 
L 156.70108 43.71719 
L 156.845066 45.121546 
L 156.989051 44.43847 
L 157.564995 47.556739 
L 157.708981 46.529169 
L 157.852967 47.708396 
L 157.996953 47.013857 
L 158.140939 48.299613 
L 158.284924 48.199449 
L 158.42891 48.199355 
L 158.572896 49.452655 
L 158.716882 48.767812 
L 158.860868 50.128989 
L 159.004854 49.883715 
L 159.14884 50.046832 
L 159.292826 50.64795 
L 159.436812 49.324686 
L 159.580797 51.514503 
L 159.724783 50.005727 
L 159.868769 50.774866 
L 160.012755 50.313127 
L 160.156741 51.331264 
L 160.300727 51.27335 
L 160.444713 51.173668 
L 160.588699 51.487549 
L 160.732685 52.961249 
L 160.87667 52.466438 
L 161.020656 53.036287 
L 161.164642 51.934208 
L 161.452614 53.149363 
L 161.5966 52.998795 
L 161.740586 54.276802 
L 161.884572 52.890995 
L 162.172543 54.762164 
L 162.460515 53.847759 
L 162.748487 55.214527 
L 162.892473 53.417713 
L 163.036459 54.11568 
L 163.180445 55.293828 
L 163.324431 54.316051 
L 163.468416 55.49641 
L 163.612402 55.444626 
L 163.756388 55.587247 
L 164.04436 53.848754 
L 164.332332 55.668693 
L 164.476318 55.593268 
L 164.764289 54.484799 
L 164.908275 54.616891 
L 165.052261 55.84167 
L 165.196247 54.625287 
L 165.340233 55.734573 
L 165.484219 54.438122 
L 165.628205 55.006419 
L 165.772191 53.639549 
L 165.916177 53.75064 
L 166.060162 53.931202 
L 166.204148 53.691947 
L 166.636106 54.923082 
L 166.780092 53.98627 
L 166.924078 54.534929 
L 167.068064 53.136242 
L 167.21205 54.34516 
L 167.356035 54.25838 
L 167.644007 52.23271 
L 167.931979 53.570249 
L 168.075965 52.552394 
L 168.219951 53.206775 
L 168.363937 52.693717 
L 168.507923 51.174087 
L 168.651908 52.797581 
L 168.795894 52.630834 
L 168.93988 52.286144 
L 169.371838 49.922902 
L 169.515824 50.850859 
L 169.65981 50.530528 
L 169.803796 50.452694 
L 170.091767 48.737031 
L 170.235753 49.996817 
L 170.523725 48.148937 
L 170.667711 47.91827 
L 170.811697 48.844962 
L 171.099669 47.342794 
L 171.243654 48.178515 
L 171.531626 46.078996 
L 171.675612 47.252812 
L 171.963584 45.415988 
L 172.10757 45.915224 
L 172.251556 45.86999 
L 172.539527 43.685229 
L 172.683513 43.779097 
L 172.827499 44.133824 
L 173.115471 43.628278 
L 173.259457 42.511152 
L 173.403443 42.962198 
L 173.8354 41.905684 
L 173.979386 40.321567 
L 174.123372 40.476399 
L 174.55533 38.684261 
L 174.699316 38.755308 
L 174.987288 37.002977 
L 175.131273 38.152269 
L 175.275259 37.767163 
L 175.851203 34.932548 
L 176.139175 35.764246 
L 176.427146 33.189831 
L 177.291062 30.652683 
L 177.435048 31.339536 
L 177.579034 30.114607 
L 177.723019 30.95923 
L 178.010991 28.758251 
L 178.154977 29.573701 
L 178.298963 29.277853 
L 178.586935 27.532382 
L 178.730921 27.78959 
L 179.018892 26.593102 
L 179.162878 27.621667 
L 179.594836 24.748623 
L 179.738822 25.697602 
L 180.026794 23.340516 
L 180.314765 24.342803 
L 180.602737 21.953937 
L 180.890709 22.997229 
L 181.178681 20.991951 
L 181.322667 22.379198 
L 181.610638 20.096784 
L 181.754624 20.469692 
L 182.042596 19.020489 
L 182.186582 19.219945 
L 182.474554 18.622321 
L 182.61854 19.599057 
L 182.906511 17.652174 
L 183.050497 18.661617 
L 183.194483 16.932377 
L 183.482455 18.084952 
L 183.770427 16.525602 
L 183.914413 16.398907 
L 184.202384 16.69729 
L 184.34637 15.839733 
L 184.634342 16.352507 
L 184.778328 14.246098 
L 184.922314 15.118789 
L 185.0663 13.904106 
L 185.354271 14.725484 
L 185.642243 13.33059 
L 185.786229 14.664635 
L 185.930215 14.384567 
L 186.074201 13.777454 
L 186.218187 14.187584 
L 186.362173 13.496441 
L 186.506159 13.569547 
L 186.650144 13.632258 
L 186.79413 13.433179 
L 186.938116 12.064405 
L 187.226088 13.924699 
L 187.370074 11.850093 
L 187.51406 12.187785 
L 187.658046 13.172655 
L 187.802032 12.923547 
L 187.946017 12.226223 
L 188.090003 13.032753 
L 188.233989 12.848884 
L 188.377975 12.99501 
L 188.665947 12.617694 
L 188.809933 11.750752 
L 188.953919 13.173957 
L 189.097905 12.21817 
L 189.385876 13.601988 
L 189.673848 12.230404 
L 189.817834 13.383029 
L 189.96182 12.29705 
L 190.105806 13.783664 
L 190.249792 13.591165 
L 190.537763 12.922677 
L 190.681749 13.183404 
L 190.825735 14.182467 
L 190.969721 13.308415 
L 191.401679 15.049392 
L 191.689651 13.732358 
L 191.833636 14.0606 
L 192.121608 15.528716 
L 192.40958 14.396597 
L 192.841538 17.022011 
L 192.985524 16.310892 
L 193.273495 17.456784 
L 193.417481 16.2405 
L 193.561467 16.386135 
L 193.705453 17.039336 
L 193.849439 18.72052 
L 193.993425 18.324681 
L 194.137411 17.340533 
L 194.281397 17.463085 
L 194.713354 19.213195 
L 195.001326 20.139796 
L 195.145312 19.944959 
L 195.289298 21.488694 
L 195.57727 20.584539 
L 195.721255 22.228791 
L 195.865241 22.153209 
L 196.153213 23.398564 
L 196.297199 23.387852 
L 196.441185 24.164961 
L 196.585171 22.8424 
L 196.873143 23.874636 
L 197.017128 23.588327 
L 197.161114 24.994985 
L 197.3051 24.966055 
L 197.449086 25.102844 
L 197.593072 26.817211 
L 197.737058 26.011573 
L 197.881044 26.286442 
L 198.02503 27.074025 
L 198.169016 26.679836 
L 198.313001 27.963796 
L 198.456987 27.564771 
L 199.176917 29.520629 
L 199.464889 31.159364 
L 199.608874 30.904309 
L 200.040832 33.233498 
L 200.184818 33.204917 
L 200.904747 36.038843 
L 201.048733 34.647311 
L 201.192719 36.339643 
L 201.336705 36.320218 
L 201.624677 37.81909 
L 201.768663 36.405585 
L 202.20062 39.000748 
L 202.776564 40.852052 
L 202.92055 39.488351 
L 203.928451 44.008801 
L 204.216423 43.115276 
L 204.648381 44.399287 
L 204.792366 44.505501 
L 205.36831 46.801013 
L 205.512296 47.586369 
L 205.800268 46.912386 
L 205.944254 46.967659 
L 206.232225 49.294233 
L 206.376211 48.720529 
L 206.808169 50.257677 
L 206.952155 49.191567 
L 207.096141 50.734647 
L 207.240127 50.134919 
L 207.384112 49.435517 
L 207.528098 49.908621 
L 207.81607 52.049574 
L 207.960056 51.195127 
L 208.392014 52.23114 
L 208.536 51.318681 
L 208.679985 53.033948 
L 208.823971 51.783317 
L 208.967957 51.815366 
L 209.111943 52.062603 
L 209.399915 53.546341 
L 209.543901 52.489901 
L 209.687887 52.649032 
L 209.975858 54.521821 
L 210.119844 53.547905 
L 210.26383 54.178742 
L 210.407816 54.080158 
L 210.551802 53.923132 
L 210.695788 53.3984 
L 210.98376 54.667276 
L 211.127746 55.103459 
L 211.415717 54.563886 
L 211.559703 54.722725 
L 211.703689 55.569946 
L 211.847675 54.026755 
L 212.135647 55.926563 
L 212.279633 55.098721 
L 212.567604 55.85552 
L 212.999562 54.195356 
L 213.287534 55.39914 
L 213.287534 55.39914 
" clip-path="url(#pdbf25c1886)" style="fill: none; stroke: #cc3164; stroke-width: 1.5; stroke-linecap: square"/>
   </g>
   <g id="patch_6">
    <path d="M 134.25368 55.926563 
L 134.25368 11.629687 
" style="fill: none; stroke: #4d4f53; stroke-width: 0.8; stroke-linejoin: miter; stroke-linecap: square"/>
   </g>
   <g id="patch_7">
    <path d="M 141.438576 60.35625 
L 213.287534 60.35625 
" style="fill: none; stroke: #4d4f53; stroke-width: 0.8; stroke-linejoin: miter; stroke-linecap: square"/>
   </g>
   <g id="legend_1">
    <g id="patch_8">
     <path d="M 224.724992 47.671003 
L 257.795092 47.671003 
L 257.795092 19.885247 
L 224.724992 19.885247 
z
" style="fill: #ffffff"/>
    </g>
    <g id="line2d_17">
     <path d="M 228.889992 27.464245 
L 234.720992 27.464245 
L 240.551992 27.464245 
" style="fill: none; stroke: #3362b0; stroke-width: 1.5; stroke-linecap: square"/>
    </g>
    <g id="text_13">
     <!-- $x_1$ -->
     <g style="fill: #4d4f53" transform="translate(244.716992 30.379745) scale(0.0833 -0.0833)">
      <defs>
       <path id="DejaVuSans-Oblique-78" d="M 3841 3500 
L 2234 1784 
L 3219 0 
L 2559 0 
L 1819 1388 
L 531 0 
L -166 0 
L 1556 1844 
L 641 3500 
L 1300 3500 
L 1972 2234 
L 3144 3500 
L 3841 3500 
z
" transform="scale(0.015625)"/>
      </defs>
      <use xlink:href="#DejaVuSans-Oblique-78" transform="translate(0 0.3125)"/>
      <use xlink:href="#DejaVuSans-31" transform="translate(59.179688 -16.09375) scale(0.7)"/>
     </g>
    </g>
    <g id="line2d_18">
     <path d="M 228.889992 38.858123 
L 234.720992 38.858123 
L 240.551992 38.858123 
" style="fill: none; stroke: #cc3164; stroke-width: 1.5; stroke-linecap: square"/>
    </g>
    <g id="text_14">
     <!-- $x_2$ -->
     <g style="fill: #4d4f53" transform="translate(244.716992 41.773623) scale(0.0833 -0.0833)">
      <defs>
       <path id="DejaVuSans-32" d="M 1228 531 
L 3431 531 
L 3431 0 
L 469 0 
L 469 531 
Q 828 903 1448 1529 
Q 2069 2156 2228 2338 
Q 2531 2678 2651 2914 
Q 2772 3150 2772 3378 
Q 2772 3750 2511 3984 
Q 2250 4219 1831 4219 
Q 1534 4219 1204 4116 
Q 875 4013 500 3803 
L 500 4441 
Q 881 4594 1212 4672 
Q 1544 4750 1819 4750 
Q 2544 4750 2975 4387 
Q 3406 4025 3406 3419 
Q 3406 3131 3298 2873 
Q 3191 2616 2906 2266 
Q 2828 2175 2409 1742 
Q 1991 1309 1228 531 
z
" transform="scale(0.015625)"/>
      </defs>
      <use xlink:href="#DejaVuSans-Oblique-78" transform="translate(0 0.3125)"/>
      <use xlink:href="#DejaVuSans-32" transform="translate(59.179688 -16.09375) scale(0.7)"/>
     </g>
    </g>
   </g>
  </g>
 </g>
 <defs>
  <clipPath id="p30286bb5f3">
   <rect x="26.480242" y="7.2" width="86.21875" height="53.15625"/>
  </clipPath>
  <clipPath id="pdbf25c1886">
   <rect x="134.25368" y="7.2" width="86.21875" height="53.15625"/>
  </clipPath>
 </defs>
</svg>
