<?xml version="1.0" encoding="utf-8" standalone="no"?>
<!DOCTYPE svg PUBLIC "-//W3C//DTD SVG 1.1//EN"
  "http://www.w3.org/Graphics/SVG/1.1/DTD/svg11.dtd">
<svg xmlns:xlink="http://www.w3.org/1999/xlink" width="100.07pt" height="42.12pt" viewBox="0 0 100.07 42.12" xmlns="http://www.w3.org/2000/svg" version="1.1">
 <metadata>
  <rdf:RDF xmlns:dc="http://purl.org/dc/elements/1.1/" xmlns:cc="http://creativecommons.org/ns#" xmlns:rdf="http://www.w3.org/1999/02/22-rdf-syntax-ns#">
   <cc:Work>
    <dc:type rdf:resource="http://purl.org/dc/dcmitype/StillImage"/>
    <dc:date>2025-08-11T22:19:24.845337</dc:date>
    <dc:format>image/svg+xml</dc:format>
    <dc:creator>
     <cc:Agent>
      <dc:title>Matplotlib v3.10.5, https://matplotlib.org/</dc:title>
     </cc:Agent>
    </dc:creator>
   </cc:Work>
  </rdf:RDF>
 </metadata>
 <defs>
  <style type="text/css">*{stroke-linejoin: round; stroke-linecap: butt}</style>
 </defs>
 <g id="figure_1">
  <g id="patch_1">
   <path d="M -0 42.12 
L 100.07 42.12 
L 100.07 0 
L -0 0 
L -0 42.12 
z
" style="fill: none"/>
  </g>
  <g id="axes_1">
   <g id="patch_2">
    <path d="M 32.4 21.06 
C 32.4 19.405383 32.074077 17.766855 31.440882 16.238189 
C 30.807688 14.709522 29.879536 13.320445 28.709545 12.150455 
C 27.539555 10.980464 26.150478 10.052312 24.621811 9.419118 
C 23.093145 8.785923 21.454617 8.46 19.8 8.46 
C 18.145383 8.46 16.506855 8.785923 14.978189 9.419118 
C 13.449522 10.052312 12.060445 10.980464 10.890455 12.150455 
C 9.720464 13.320445 8.792312 14.709522 8.159118 16.238189 
C 7.525923 17.766855 7.2 19.405383 7.2 21.06 
C 7.2 22.714617 7.525923 24.353145 8.159118 25.881811 
C 8.792312 27.410478 9.720464 28.799555 10.890455 29.969545 
C 12.060445 31.139536 13.449522 32.067688 14.978189 32.700882 
C 16.506855 33.334077 18.145383 33.66 19.8 33.66 
C 21.454617 33.66 23.093145 33.334077 24.621811 32.700882 
C 26.150478 32.067688 27.539555 31.139536 28.709545 29.969545 
C 29.879536 28.799555 30.807688 27.410478 31.440882 25.881811 
C 32.074077 24.353145 32.4 22.714617 32.4 21.06 
M 19.8 21.06 
C 19.8 21.06 19.8 21.06 19.8 21.06 
C 19.8 21.06 19.8 21.06 19.8 21.06 
C 19.8 21.06 19.8 21.06 19.8 21.06 
C 19.8 21.06 19.8 21.06 19.8 21.06 
C 19.8 21.06 19.8 21.06 19.8 21.06 
C 19.8 21.06 19.8 21.06 19.8 21.06 
C 19.8 21.06 19.8 21.06 19.8 21.06 
C 19.8 21.06 19.8 21.06 19.8 21.06 
C 19.8 21.06 19.8 21.06 19.8 21.06 
C 19.8 21.06 19.8 21.06 19.8 21.06 
C 19.8 21.06 19.8 21.06 19.8 21.06 
C 19.8 21.06 19.8 21.06 19.8 21.06 
C 19.8 21.06 19.8 21.06 19.8 21.06 
C 19.8 21.06 19.8 21.06 19.8 21.06 
C 19.8 21.06 19.8 21.06 19.8 21.06 
C 19.8 21.06 19.8 21.06 19.8 21.06 
L 19.8 21.06 
z
" style="fill: none"/>
   </g>
   <g id="patch_3">
    <path d="M 19.8 21.06 
C 19.8 21.06 19.8 21.06 19.8 21.06 
C 19.8 21.06 19.8 21.06 19.8 21.06 
C 19.8 21.06 19.8 21.06 19.8 21.06 
C 19.8 21.06 19.8 21.06 19.8 21.06 
C 19.8 21.06 19.8 21.06 19.8 21.06 
C 19.8 21.06 19.8 21.06 19.8 21.06 
C 19.8 21.06 19.8 21.06 19.8 21.06 
C 19.8 21.06 19.8 21.06 19.8 21.06 
C 19.8 21.06 19.8 21.06 19.8 21.06 
C 19.8 21.06 19.8 21.06 19.8 21.06 
C 19.8 21.06 19.8 21.06 19.8 21.06 
C 19.8 21.06 19.8 21.06 19.8 21.06 
C 19.8 21.06 19.8 21.06 19.8 21.06 
C 19.8 21.06 19.8 21.06 19.8 21.06 
C 19.8 21.06 19.8 21.06 19.8 21.06 
C 19.8 21.06 19.8 21.06 19.8 21.06 
L 33.726316 21.06 
C 33.726316 22.888787 33.366085 24.699791 32.666238 26.38937 
C 31.966392 28.078949 30.94054 29.614245 29.647392 30.907392 
C 28.354245 32.20054 26.818949 33.226392 25.12937 33.926238 
C 23.439791 34.626085 21.628787 34.986316 19.8 34.986316 
C 17.971213 34.986316 16.160209 34.626085 14.47063 33.926238 
C 12.781051 33.226392 11.245755 32.20054 9.952608 30.907392 
C 8.65946 29.614245 7.633608 28.078949 6.933762 26.38937 
C 6.233915 24.699791 5.873684 22.888787 5.873684 21.06 
C 5.873684 19.231213 6.233915 17.420209 6.933762 15.73063 
C 7.633608 14.041051 8.65946 12.505755 9.952608 11.212608 
C 11.245755 9.91946 12.781051 8.893608 14.47063 8.193762 
C 16.160209 7.493915 17.971213 7.133684 19.8 7.133684 
C 21.628787 7.133684 23.439791 7.493915 25.12937 8.193762 
C 26.818949 8.893608 28.354245 9.91946 29.647392 11.212608 
C 30.94054 12.505755 31.966392 14.041051 32.666238 15.73063 
C 33.366085 17.420209 33.726316 19.231213 33.726316 21.06 
z
" style="fill: #ffffff"/>
   </g>
   <g id="matplotlib.axis_1">
    <g id="xtick_1">
     <g id="line2d_1">
      <path d="M 19.8 21.06 
L 32.4 21.06 
" clip-path="url(#p2b468d076e)" style="fill: none; stroke-dasharray: 2.96,1.28; stroke-dashoffset: 0; stroke: #dddfe5; stroke-width: 0.8"/>
     </g>
    </g>
    <g id="xtick_2">
     <g id="line2d_2">
      <path d="M 19.8 21.06 
L 28.709545 12.150455 
" clip-path="url(#p2b468d076e)" style="fill: none; stroke-dasharray: 2.96,1.28; stroke-dashoffset: 0; stroke: #dddfe5; stroke-width: 0.8"/>
     </g>
    </g>
    <g id="xtick_3">
     <g id="line2d_3">
      <path d="M 19.8 21.06 
L 19.8 8.46 
" clip-path="url(#p2b468d076e)" style="fill: none; stroke-dasharray: 2.96,1.28; stroke-dashoffset: 0; stroke: #dddfe5; stroke-width: 0.8"/>
     </g>
    </g>
    <g id="xtick_4">
     <g id="line2d_4">
      <path d="M 19.8 21.06 
L 10.890455 12.150455 
" clip-path="url(#p2b468d076e)" style="fill: none; stroke-dasharray: 2.96,1.28; stroke-dashoffset: 0; stroke: #dddfe5; stroke-width: 0.8"/>
     </g>
    </g>
    <g id="xtick_5">
     <g id="line2d_5">
      <path d="M 19.8 21.06 
L 7.2 21.06 
" clip-path="url(#p2b468d076e)" style="fill: none; stroke-dasharray: 2.96,1.28; stroke-dashoffset: 0; stroke: #dddfe5; stroke-width: 0.8"/>
     </g>
    </g>
    <g id="xtick_6">
     <g id="line2d_6">
      <path d="M 19.8 21.06 
L 10.890455 29.969545 
" clip-path="url(#p2b468d076e)" style="fill: none; stroke-dasharray: 2.96,1.28; stroke-dashoffset: 0; stroke: #dddfe5; stroke-width: 0.8"/>
     </g>
    </g>
    <g id="xtick_7">
     <g id="line2d_7">
      <path d="M 19.8 21.06 
L 19.8 33.66 
" clip-path="url(#p2b468d076e)" style="fill: none; stroke-dasharray: 2.96,1.28; stroke-dashoffset: 0; stroke: #dddfe5; stroke-width: 0.8"/>
     </g>
    </g>
    <g id="xtick_8">
     <g id="line2d_8">
      <path d="M 19.8 21.06 
L 28.709545 29.969545 
" clip-path="url(#p2b468d076e)" style="fill: none; stroke-dasharray: 2.96,1.28; stroke-dashoffset: 0; stroke: #dddfe5; stroke-width: 0.8"/>
     </g>
    </g>
   </g>
   <g id="matplotlib.axis_2">
    <g id="ytick_1">
     <g id="line2d_9">
      <path d="M 26.431579 21.06 
C 26.431579 20.189149 26.26004 19.326766 25.92678 18.522205 
C 25.59352 17.717643 25.105019 16.98655 24.489234 16.370766 
C 23.87345 15.754981 23.142357 15.26648 22.337795 14.93322 
C 21.533234 14.59996 20.670851 14.428421 19.8 14.428421 
C 18.929149 14.428421 18.066766 14.59996 17.262205 14.93322 
C 16.457643 15.26648 15.72655 15.754981 15.110766 16.370766 
C 14.494981 16.98655 14.00648 17.717643 13.67322 18.522205 
C 13.33996 19.326766 13.168421 20.189149 13.168421 21.06 
C 13.168421 21.930851 13.33996 22.793234 13.67322 23.597795 
C 14.00648 24.402357 14.494981 25.13345 15.110766 25.749234 
C 15.72655 26.365019 16.457643 26.85352 17.262205 27.18678 
C 18.066766 27.52004 18.929149 27.691579 19.8 27.691579 
C 20.670851 27.691579 21.533234 27.52004 22.337795 27.18678 
C 23.142357 26.85352 23.87345 26.365019 24.489234 25.749234 
C 25.105019 25.13345 25.59352 24.402357 25.92678 23.597795 
C 26.26004 22.793234 26.431579 21.930851 26.431579 21.06 
" clip-path="url(#p2b468d076e)" style="fill: none; stroke-dasharray: 2.96,1.28; stroke-dashoffset: 0; stroke: #dddfe5; stroke-width: 0.8"/>
     </g>
    </g>
   </g>
   <g id="patch_4">
    <path d="M 19.8 21.06 
C 19.8 21.06 19.8 21.06 19.8 21.06 
C 19.8 21.06 19.8 21.06 19.8 21.06 
L 22.280833 17.949134 
C 22.748162 18.321816 23.12556 18.795058 23.384908 19.333599 
C 23.644255 19.872141 23.778947 20.462264 23.778947 21.06 
z
" clip-path="url(#p2b468d076e)" style="fill: #310d80; stroke: #4d4f53; stroke-linejoin: miter"/>
   </g>
   <g id="patch_5">
    <path d="M 19.8 21.06 
C 19.8 21.06 19.8 21.06 19.8 21.06 
C 19.8 21.06 19.8 21.06 19.8 21.06 
L 18.029202 13.301626 
C 19.1947 13.035609 20.4053 13.035609 21.570798 13.301626 
C 22.736297 13.567644 23.827009 14.092903 24.761666 14.838267 
z
" clip-path="url(#p2b468d076e)" style="fill: #7ba370; stroke: #4d4f53; stroke-linejoin: miter"/>
   </g>
   <g id="patch_6">
    <path d="M 19.8 21.06 
C 19.8 21.06 19.8 21.06 19.8 21.06 
C 19.8 21.06 19.8 21.06 19.8 21.06 
L 10.240246 16.456265 
C 10.93184 15.020155 11.938236 13.758175 13.184445 12.764356 
C 14.430655 11.770538 15.884938 11.070192 17.438936 10.715502 
z
" clip-path="url(#p2b468d076e)" style="fill: #fef412; stroke: #4d4f53; stroke-linejoin: miter"/>
   </g>
   <g id="patch_7">
    <path d="M 19.8 21.06 
C 19.8 21.06 19.8 21.06 19.8 21.06 
C 19.8 21.06 19.8 21.06 19.8 21.06 
L 11.435215 25.088268 
C 10.830071 23.831672 10.515789 22.454717 10.515789 21.06 
C 10.515789 19.665283 10.830071 18.288328 11.435215 17.031732 
z
" clip-path="url(#p2b468d076e)" style="fill: #e5b662; stroke: #4d4f53; stroke-linejoin: miter"/>
   </g>
   <g id="patch_8">
    <path d="M 19.8 21.06 
C 19.8 21.06 19.8 21.06 19.8 21.06 
C 19.8 21.06 19.8 21.06 19.8 21.06 
L 18.619468 26.232249 
C 17.842469 26.054904 17.115327 25.704731 16.492223 25.207822 
C 15.869118 24.710912 15.36592 24.079922 15.020123 23.361867 
z
" clip-path="url(#p2b468d076e)" style="fill: #1d518e; stroke: #4d4f53; stroke-linejoin: miter"/>
   </g>
   <g id="patch_9">
    <path d="M 19.8 21.06 
C 19.8 21.06 19.8 21.06 19.8 21.06 
C 19.8 21.06 19.8 21.06 19.8 21.06 
L 23.934722 26.244777 
C 23.155841 26.865914 22.246914 27.30363 21.275665 27.525311 
C 20.304417 27.746993 19.295583 27.746993 18.324335 27.525311 
z
" clip-path="url(#p2b468d076e)" style="fill: #2f7f81; stroke: #4d4f53; stroke-linejoin: miter"/>
   </g>
   <g id="patch_10">
    <path d="M 19.8 21.06 
C 19.8 21.06 19.8 21.06 19.8 21.06 
C 19.8 21.06 19.8 21.06 19.8 21.06 
L 30.410526 21.06 
C 30.410526 22.653962 30.051348 24.227625 29.359754 25.663735 
C 28.66816 27.099845 27.661764 28.361825 26.415555 29.355644 
z
" clip-path="url(#p2b468d076e)" style="fill: #fef412; stroke: #4d4f53; stroke-linejoin: miter"/>
   </g>
   <g id="patch_11">
    <path d="M 32.4 21.06 
C 32.4 19.405383 32.074077 17.766855 31.440882 16.238189 
C 30.807688 14.709522 29.879536 13.320445 28.709545 12.150455 
C 27.539555 10.980464 26.150478 10.052312 24.621811 9.419118 
C 23.093145 8.785923 21.454617 8.46 19.8 8.46 
C 18.145383 8.46 16.506855 8.785923 14.978189 9.419118 
C 13.449522 10.052312 12.060445 10.980464 10.890455 12.150455 
C 9.720464 13.320445 8.792312 14.709522 8.159118 16.238189 
C 7.525923 17.766855 7.2 19.405383 7.2 21.06 
C 7.2 22.714617 7.525923 24.353145 8.159118 25.881811 
C 8.792312 27.410478 9.720464 28.799555 10.890455 29.969545 
C 12.060445 31.139536 13.449522 32.067688 14.978189 32.700882 
C 16.506855 33.334077 18.145383 33.66 19.8 33.66 
C 21.454617 33.66 23.093145 33.334077 24.621811 32.700882 
C 26.150478 32.067688 27.539555 31.139536 28.709545 29.969545 
C 29.879536 28.799555 30.807688 27.410478 31.440882 25.881811 
C 32.074077 24.353145 32.4 22.714617 32.4 21.06 
" style="fill: none; stroke: #4d4f53; stroke-width: 0.8; stroke-linejoin: miter; stroke-linecap: square"/>
   </g>
  </g>
  <g id="text_1">
   <!-- prettypyplot -->
   <g style="fill: #4d4f53" transform="translate(36.18 13.27875) scale(0.08 -0.08)">
    <defs>
     <path id="DejaVuSans-Bold-70" d="M 1656 506 
L 1656 -1331 
L 538 -1331 
L 538 3500 
L 1656 3500 
L 1656 2988 
Q 1888 3294 2169 3439 
Q 2450 3584 2816 3584 
Q 3463 3584 3878 3070 
Q 4294 2556 4294 1747 
Q 4294 938 3878 423 
Q 3463 -91 2816 -91 
Q 2450 -91 2169 54 
Q 1888 200 1656 506 
z
M 2400 2772 
Q 2041 2772 1848 2508 
Q 1656 2244 1656 1747 
Q 1656 1250 1848 986 
Q 2041 722 2400 722 
Q 2759 722 2948 984 
Q 3138 1247 3138 1747 
Q 3138 2247 2948 2509 
Q 2759 2772 2400 2772 
z
" transform="scale(0.015625)"/>
     <path id="DejaVuSans-Bold-72" d="M 3138 2547 
Q 2991 2616 2845 2648 
Q 2700 2681 2553 2681 
Q 2122 2681 1889 2404 
Q 1656 2128 1656 1613 
L 1656 0 
L 538 0 
L 538 3500 
L 1656 3500 
L 1656 2925 
Q 1872 3269 2151 3426 
Q 2431 3584 2822 3584 
Q 2878 3584 2943 3579 
Q 3009 3575 3134 3559 
L 3138 2547 
z
" transform="scale(0.015625)"/>
     <path id="DejaVuSans-Bold-65" d="M 4031 1759 
L 4031 1441 
L 1416 1441 
Q 1456 1047 1700 850 
Q 1944 653 2381 653 
Q 2734 653 3104 758 
Q 3475 863 3866 1075 
L 3866 213 
Q 3469 63 3072 -14 
Q 2675 -91 2278 -91 
Q 1328 -91 801 392 
Q 275 875 275 1747 
Q 275 2603 792 3093 
Q 1309 3584 2216 3584 
Q 3041 3584 3536 3087 
Q 4031 2591 4031 1759 
z
M 2881 2131 
Q 2881 2450 2695 2645 
Q 2509 2841 2209 2841 
Q 1884 2841 1681 2658 
Q 1478 2475 1428 2131 
L 2881 2131 
z
" transform="scale(0.015625)"/>
     <path id="DejaVuSans-Bold-74" d="M 1759 4494 
L 1759 3500 
L 2913 3500 
L 2913 2700 
L 1759 2700 
L 1759 1216 
Q 1759 972 1856 886 
Q 1953 800 2241 800 
L 2816 800 
L 2816 0 
L 1856 0 
Q 1194 0 917 276 
Q 641 553 641 1216 
L 641 2700 
L 84 2700 
L 84 3500 
L 641 3500 
L 641 4494 
L 1759 4494 
z
" transform="scale(0.015625)"/>
     <path id="DejaVuSans-Bold-79" d="M 78 3500 
L 1197 3500 
L 2138 1125 
L 2938 3500 
L 4056 3500 
L 2584 -331 
Q 2363 -916 2067 -1148 
Q 1772 -1381 1288 -1381 
L 641 -1381 
L 641 -647 
L 991 -647 
Q 1275 -647 1404 -556 
Q 1534 -466 1606 -231 
L 1638 -134 
L 78 3500 
z
" transform="scale(0.015625)"/>
     <path id="DejaVuSans-Bold-6c" d="M 538 4863 
L 1656 4863 
L 1656 0 
L 538 0 
L 538 4863 
z
" transform="scale(0.015625)"/>
     <path id="DejaVuSans-Bold-6f" d="M 2203 2784 
Q 1831 2784 1636 2517 
Q 1441 2250 1441 1747 
Q 1441 1244 1636 976 
Q 1831 709 2203 709 
Q 2569 709 2762 976 
Q 2956 1244 2956 1747 
Q 2956 2250 2762 2517 
Q 2569 2784 2203 2784 
z
M 2203 3584 
Q 3106 3584 3614 3096 
Q 4122 2609 4122 1747 
Q 4122 884 3614 396 
Q 3106 -91 2203 -91 
Q 1297 -91 786 396 
Q 275 884 275 1747 
Q 275 2609 786 3096 
Q 1297 3584 2203 3584 
z
" transform="scale(0.015625)"/>
    </defs>
    <use xlink:href="#DejaVuSans-Bold-70"/>
    <use xlink:href="#DejaVuSans-Bold-72" transform="translate(71.582031 0)"/>
    <use xlink:href="#DejaVuSans-Bold-65" transform="translate(120.898438 0)"/>
    <use xlink:href="#DejaVuSans-Bold-74" transform="translate(188.720703 0)"/>
    <use xlink:href="#DejaVuSans-Bold-74" transform="translate(236.523438 0)"/>
    <use xlink:href="#DejaVuSans-Bold-79" transform="translate(284.326172 0)"/>
    <use xlink:href="#DejaVuSans-Bold-70" transform="translate(349.511719 0)"/>
    <use xlink:href="#DejaVuSans-Bold-79" transform="translate(421.09375 0)"/>
    <use xlink:href="#DejaVuSans-Bold-70" transform="translate(486.279297 0)"/>
    <use xlink:href="#DejaVuSans-Bold-6c" transform="translate(557.861328 0)"/>
    <use xlink:href="#DejaVuSans-Bold-6f" transform="translate(592.138672 0)"/>
    <use xlink:href="#DejaVuSans-Bold-74" transform="translate(660.839844 0)"/>
   </g>
  </g>
  <g id="text_2">
   <!-- Publication ready -->
   <g style="fill: #7a808c" transform="translate(36.18 22.682344) scale(0.05 -0.05)">
    <defs>
     <path id="DejaVuSans-50" d="M 1259 4147 
L 1259 2394 
L 2053 2394 
Q 2494 2394 2734 2622 
Q 2975 2850 2975 3272 
Q 2975 3691 2734 3919 
Q 2494 4147 2053 4147 
L 1259 4147 
z
M 628 4666 
L 2053 4666 
Q 2838 4666 3239 4311 
Q 3641 3956 3641 3272 
Q 3641 2581 3239 2228 
Q 2838 1875 2053 1875 
L 1259 1875 
L 1259 0 
L 628 0 
L 628 4666 
z
" transform="scale(0.015625)"/>
     <path id="DejaVuSans-75" d="M 544 1381 
L 544 3500 
L 1119 3500 
L 1119 1403 
Q 1119 906 1312 657 
Q 1506 409 1894 409 
Q 2359 409 2629 706 
Q 2900 1003 2900 1516 
L 2900 3500 
L 3475 3500 
L 3475 0 
L 2900 0 
L 2900 538 
Q 2691 219 2414 64 
Q 2138 -91 1772 -91 
Q 1169 -91 856 284 
Q 544 659 544 1381 
z
M 1991 3584 
L 1991 3584 
z
" transform="scale(0.015625)"/>
     <path id="DejaVuSans-62" d="M 3116 1747 
Q 3116 2381 2855 2742 
Q 2594 3103 2138 3103 
Q 1681 3103 1420 2742 
Q 1159 2381 1159 1747 
Q 1159 1113 1420 752 
Q 1681 391 2138 391 
Q 2594 391 2855 752 
Q 3116 1113 3116 1747 
z
M 1159 2969 
Q 1341 3281 1617 3432 
Q 1894 3584 2278 3584 
Q 2916 3584 3314 3078 
Q 3713 2572 3713 1747 
Q 3713 922 3314 415 
Q 2916 -91 2278 -91 
Q 1894 -91 1617 61 
Q 1341 213 1159 525 
L 1159 0 
L 581 0 
L 581 4863 
L 1159 4863 
L 1159 2969 
z
" transform="scale(0.015625)"/>
     <path id="DejaVuSans-6c" d="M 603 4863 
L 1178 4863 
L 1178 0 
L 603 0 
L 603 4863 
z
" transform="scale(0.015625)"/>
     <path id="DejaVuSans-69" d="M 603 3500 
L 1178 3500 
L 1178 0 
L 603 0 
L 603 3500 
z
M 603 4863 
L 1178 4863 
L 1178 4134 
L 603 4134 
L 603 4863 
z
" transform="scale(0.015625)"/>
     <path id="DejaVuSans-63" d="M 3122 3366 
L 3122 2828 
Q 2878 2963 2633 3030 
Q 2388 3097 2138 3097 
Q 1578 3097 1268 2742 
Q 959 2388 959 1747 
Q 959 1106 1268 751 
Q 1578 397 2138 397 
Q 2388 397 2633 464 
Q 2878 531 3122 666 
L 3122 134 
Q 2881 22 2623 -34 
Q 2366 -91 2075 -91 
Q 1284 -91 818 406 
Q 353 903 353 1747 
Q 353 2603 823 3093 
Q 1294 3584 2113 3584 
Q 2378 3584 2631 3529 
Q 2884 3475 3122 3366 
z
" transform="scale(0.015625)"/>
     <path id="DejaVuSans-61" d="M 2194 1759 
Q 1497 1759 1228 1600 
Q 959 1441 959 1056 
Q 959 750 1161 570 
Q 1363 391 1709 391 
Q 2188 391 2477 730 
Q 2766 1069 2766 1631 
L 2766 1759 
L 2194 1759 
z
M 3341 1997 
L 3341 0 
L 2766 0 
L 2766 531 
Q 2569 213 2275 61 
Q 1981 -91 1556 -91 
Q 1019 -91 701 211 
Q 384 513 384 1019 
Q 384 1609 779 1909 
Q 1175 2209 1959 2209 
L 2766 2209 
L 2766 2266 
Q 2766 2663 2505 2880 
Q 2244 3097 1772 3097 
Q 1472 3097 1187 3025 
Q 903 2953 641 2809 
L 641 3341 
Q 956 3463 1253 3523 
Q 1550 3584 1831 3584 
Q 2591 3584 2966 3190 
Q 3341 2797 3341 1997 
z
" transform="scale(0.015625)"/>
     <path id="DejaVuSans-74" d="M 1172 4494 
L 1172 3500 
L 2356 3500 
L 2356 3053 
L 1172 3053 
L 1172 1153 
Q 1172 725 1289 603 
Q 1406 481 1766 481 
L 2356 481 
L 2356 0 
L 1766 0 
Q 1100 0 847 248 
Q 594 497 594 1153 
L 594 3053 
L 172 3053 
L 172 3500 
L 594 3500 
L 594 4494 
L 1172 4494 
z
" transform="scale(0.015625)"/>
     <path id="DejaVuSans-6f" d="M 1959 3097 
Q 1497 3097 1228 2736 
Q 959 2375 959 1747 
Q 959 1119 1226 758 
Q 1494 397 1959 397 
Q 2419 397 2687 759 
Q 2956 1122 2956 1747 
Q 2956 2369 2687 2733 
Q 2419 3097 1959 3097 
z
M 1959 3584 
Q 2709 3584 3137 3096 
Q 3566 2609 3566 1747 
Q 3566 888 3137 398 
Q 2709 -91 1959 -91 
Q 1206 -91 779 398 
Q 353 888 353 1747 
Q 353 2609 779 3096 
Q 1206 3584 1959 3584 
z
" transform="scale(0.015625)"/>
     <path id="DejaVuSans-6e" d="M 3513 2113 
L 3513 0 
L 2938 0 
L 2938 2094 
Q 2938 2591 2744 2837 
Q 2550 3084 2163 3084 
Q 1697 3084 1428 2787 
Q 1159 2491 1159 1978 
L 1159 0 
L 581 0 
L 581 3500 
L 1159 3500 
L 1159 2956 
Q 1366 3272 1645 3428 
Q 1925 3584 2291 3584 
Q 2894 3584 3203 3211 
Q 3513 2838 3513 2113 
z
" transform="scale(0.015625)"/>
     <path id="DejaVuSans-20" transform="scale(0.015625)"/>
     <path id="DejaVuSans-72" d="M 2631 2963 
Q 2534 3019 2420 3045 
Q 2306 3072 2169 3072 
Q 1681 3072 1420 2755 
Q 1159 2438 1159 1844 
L 1159 0 
L 581 0 
L 581 3500 
L 1159 3500 
L 1159 2956 
Q 1341 3275 1631 3429 
Q 1922 3584 2338 3584 
Q 2397 3584 2469 3576 
Q 2541 3569 2628 3553 
L 2631 2963 
z
" transform="scale(0.015625)"/>
     <path id="DejaVuSans-65" d="M 3597 1894 
L 3597 1613 
L 953 1613 
Q 991 1019 1311 708 
Q 1631 397 2203 397 
Q 2534 397 2845 478 
Q 3156 559 3463 722 
L 3463 178 
Q 3153 47 2828 -22 
Q 2503 -91 2169 -91 
Q 1331 -91 842 396 
Q 353 884 353 1716 
Q 353 2575 817 3079 
Q 1281 3584 2069 3584 
Q 2775 3584 3186 3129 
Q 3597 2675 3597 1894 
z
M 3022 2063 
Q 3016 2534 2758 2815 
Q 2500 3097 2075 3097 
Q 1594 3097 1305 2825 
Q 1016 2553 972 2059 
L 3022 2063 
z
" transform="scale(0.015625)"/>
     <path id="DejaVuSans-64" d="M 2906 2969 
L 2906 4863 
L 3481 4863 
L 3481 0 
L 2906 0 
L 2906 525 
Q 2725 213 2448 61 
Q 2172 -91 1784 -91 
Q 1150 -91 751 415 
Q 353 922 353 1747 
Q 353 2572 751 3078 
Q 1150 3584 1784 3584 
Q 2172 3584 2448 3432 
Q 2725 3281 2906 2969 
z
M 947 1747 
Q 947 1113 1208 752 
Q 1469 391 1925 391 
Q 2381 391 2643 752 
Q 2906 1113 2906 1747 
Q 2906 2381 2643 2742 
Q 2381 3103 1925 3103 
Q 1469 3103 1208 2742 
Q 947 2381 947 1747 
z
" transform="scale(0.015625)"/>
     <path id="DejaVuSans-79" d="M 2059 -325 
Q 1816 -950 1584 -1140 
Q 1353 -1331 966 -1331 
L 506 -1331 
L 506 -850 
L 844 -850 
Q 1081 -850 1212 -737 
Q 1344 -625 1503 -206 
L 1606 56 
L 191 3500 
L 800 3500 
L 1894 763 
L 2988 3500 
L 3597 3500 
L 2059 -325 
z
" transform="scale(0.015625)"/>
    </defs>
    <use xlink:href="#DejaVuSans-50"/>
    <use xlink:href="#DejaVuSans-75" transform="translate(58.552734 0)"/>
    <use xlink:href="#DejaVuSans-62" transform="translate(121.931641 0)"/>
    <use xlink:href="#DejaVuSans-6c" transform="translate(185.408203 0)"/>
    <use xlink:href="#DejaVuSans-69" transform="translate(213.191406 0)"/>
    <use xlink:href="#DejaVuSans-63" transform="translate(240.974609 0)"/>
    <use xlink:href="#DejaVuSans-61" transform="translate(295.955078 0)"/>
    <use xlink:href="#DejaVuSans-74" transform="translate(357.234375 0)"/>
    <use xlink:href="#DejaVuSans-69" transform="translate(396.443359 0)"/>
    <use xlink:href="#DejaVuSans-6f" transform="translate(424.226562 0)"/>
    <use xlink:href="#DejaVuSans-6e" transform="translate(485.408203 0)"/>
    <use xlink:href="#DejaVuSans-20" transform="translate(548.787109 0)"/>
    <use xlink:href="#DejaVuSans-72" transform="translate(580.574219 0)"/>
    <use xlink:href="#DejaVuSans-65" transform="translate(619.4375 0)"/>
    <use xlink:href="#DejaVuSans-61" transform="translate(680.960938 0)"/>
    <use xlink:href="#DejaVuSans-64" transform="translate(742.240234 0)"/>
    <use xlink:href="#DejaVuSans-79" transform="translate(805.716797 0)"/>
   </g>
   <!-- matplotlib figures -->
   <g style="fill: #7a808c" transform="translate(36.18 28.28125) scale(0.05 -0.05)">
    <defs>
     <path id="DejaVuSans-6d" d="M 3328 2828 
Q 3544 3216 3844 3400 
Q 4144 3584 4550 3584 
Q 5097 3584 5394 3201 
Q 5691 2819 5691 2113 
L 5691 0 
L 5113 0 
L 5113 2094 
Q 5113 2597 4934 2840 
Q 4756 3084 4391 3084 
Q 3944 3084 3684 2787 
Q 3425 2491 3425 1978 
L 3425 0 
L 2847 0 
L 2847 2094 
Q 2847 2600 2669 2842 
Q 2491 3084 2119 3084 
Q 1678 3084 1418 2786 
Q 1159 2488 1159 1978 
L 1159 0 
L 581 0 
L 581 3500 
L 1159 3500 
L 1159 2956 
Q 1356 3278 1631 3431 
Q 1906 3584 2284 3584 
Q 2666 3584 2933 3390 
Q 3200 3197 3328 2828 
z
" transform="scale(0.015625)"/>
     <path id="DejaVuSans-70" d="M 1159 525 
L 1159 -1331 
L 581 -1331 
L 581 3500 
L 1159 3500 
L 1159 2969 
Q 1341 3281 1617 3432 
Q 1894 3584 2278 3584 
Q 2916 3584 3314 3078 
Q 3713 2572 3713 1747 
Q 3713 922 3314 415 
Q 2916 -91 2278 -91 
Q 1894 -91 1617 61 
Q 1341 213 1159 525 
z
M 3116 1747 
Q 3116 2381 2855 2742 
Q 2594 3103 2138 3103 
Q 1681 3103 1420 2742 
Q 1159 2381 1159 1747 
Q 1159 1113 1420 752 
Q 1681 391 2138 391 
Q 2594 391 2855 752 
Q 3116 1113 3116 1747 
z
" transform="scale(0.015625)"/>
     <path id="DejaVuSans-66" d="M 2375 4863 
L 2375 4384 
L 1825 4384 
Q 1516 4384 1395 4259 
Q 1275 4134 1275 3809 
L 1275 3500 
L 2222 3500 
L 2222 3053 
L 1275 3053 
L 1275 0 
L 697 0 
L 697 3053 
L 147 3053 
L 147 3500 
L 697 3500 
L 697 3744 
Q 697 4328 969 4595 
Q 1241 4863 1831 4863 
L 2375 4863 
z
" transform="scale(0.015625)"/>
     <path id="DejaVuSans-67" d="M 2906 1791 
Q 2906 2416 2648 2759 
Q 2391 3103 1925 3103 
Q 1463 3103 1205 2759 
Q 947 2416 947 1791 
Q 947 1169 1205 825 
Q 1463 481 1925 481 
Q 2391 481 2648 825 
Q 2906 1169 2906 1791 
z
M 3481 434 
Q 3481 -459 3084 -895 
Q 2688 -1331 1869 -1331 
Q 1566 -1331 1297 -1286 
Q 1028 -1241 775 -1147 
L 775 -588 
Q 1028 -725 1275 -790 
Q 1522 -856 1778 -856 
Q 2344 -856 2625 -561 
Q 2906 -266 2906 331 
L 2906 616 
Q 2728 306 2450 153 
Q 2172 0 1784 0 
Q 1141 0 747 490 
Q 353 981 353 1791 
Q 353 2603 747 3093 
Q 1141 3584 1784 3584 
Q 2172 3584 2450 3431 
Q 2728 3278 2906 2969 
L 2906 3500 
L 3481 3500 
L 3481 434 
z
" transform="scale(0.015625)"/>
     <path id="DejaVuSans-73" d="M 2834 3397 
L 2834 2853 
Q 2591 2978 2328 3040 
Q 2066 3103 1784 3103 
Q 1356 3103 1142 2972 
Q 928 2841 928 2578 
Q 928 2378 1081 2264 
Q 1234 2150 1697 2047 
L 1894 2003 
Q 2506 1872 2764 1633 
Q 3022 1394 3022 966 
Q 3022 478 2636 193 
Q 2250 -91 1575 -91 
Q 1294 -91 989 -36 
Q 684 19 347 128 
L 347 722 
Q 666 556 975 473 
Q 1284 391 1588 391 
Q 1994 391 2212 530 
Q 2431 669 2431 922 
Q 2431 1156 2273 1281 
Q 2116 1406 1581 1522 
L 1381 1569 
Q 847 1681 609 1914 
Q 372 2147 372 2553 
Q 372 3047 722 3315 
Q 1072 3584 1716 3584 
Q 2034 3584 2315 3537 
Q 2597 3491 2834 3397 
z
" transform="scale(0.015625)"/>
    </defs>
    <use xlink:href="#DejaVuSans-6d"/>
    <use xlink:href="#DejaVuSans-61" transform="translate(97.412109 0)"/>
    <use xlink:href="#DejaVuSans-74" transform="translate(158.691406 0)"/>
    <use xlink:href="#DejaVuSans-70" transform="translate(197.900391 0)"/>
    <use xlink:href="#DejaVuSans-6c" transform="translate(261.376953 0)"/>
    <use xlink:href="#DejaVuSans-6f" transform="translate(289.160156 0)"/>
    <use xlink:href="#DejaVuSans-74" transform="translate(350.341797 0)"/>
    <use xlink:href="#DejaVuSans-6c" transform="translate(389.550781 0)"/>
    <use xlink:href="#DejaVuSans-69" transform="translate(417.333984 0)"/>
    <use xlink:href="#DejaVuSans-62" transform="translate(445.117188 0)"/>
    <use xlink:href="#DejaVuSans-20" transform="translate(508.59375 0)"/>
    <use xlink:href="#DejaVuSans-66" transform="translate(540.380859 0)"/>
    <use xlink:href="#DejaVuSans-69" transform="translate(575.585938 0)"/>
    <use xlink:href="#DejaVuSans-67" transform="translate(603.369141 0)"/>
    <use xlink:href="#DejaVuSans-75" transform="translate(666.845703 0)"/>
    <use xlink:href="#DejaVuSans-72" transform="translate(730.224609 0)"/>
    <use xlink:href="#DejaVuSans-65" transform="translate(769.087891 0)"/>
    <use xlink:href="#DejaVuSans-73" transform="translate(830.611328 0)"/>
   </g>
   <!-- made simple -->
   <g style="fill: #7a808c" transform="translate(36.18 33.880156) scale(0.05 -0.05)">
    <use xlink:href="#DejaVuSans-6d"/>
    <use xlink:href="#DejaVuSans-61" transform="translate(97.412109 0)"/>
    <use xlink:href="#DejaVuSans-64" transform="translate(158.691406 0)"/>
    <use xlink:href="#DejaVuSans-65" transform="translate(222.167969 0)"/>
    <use xlink:href="#DejaVuSans-20" transform="translate(283.691406 0)"/>
    <use xlink:href="#DejaVuSans-73" transform="translate(315.478516 0)"/>
    <use xlink:href="#DejaVuSans-69" transform="translate(367.578125 0)"/>
    <use xlink:href="#DejaVuSans-6d" transform="translate(395.361328 0)"/>
    <use xlink:href="#DejaVuSans-70" transform="translate(492.773438 0)"/>
    <use xlink:href="#DejaVuSans-6c" transform="translate(556.25 0)"/>
    <use xlink:href="#DejaVuSans-65" transform="translate(584.033203 0)"/>
   </g>
  </g>
 </g>
 <defs>
  <clipPath id="p2b468d076e">
   <path d="M 32.4 21.06 
C 32.4 19.405383 32.074077 17.766855 31.440882 16.238189 
C 30.807688 14.709522 29.879536 13.320445 28.709545 12.150455 
C 27.539555 10.980464 26.150478 10.052312 24.621811 9.419118 
C 23.093145 8.785923 21.454617 8.46 19.8 8.46 
C 18.145383 8.46 16.506855 8.785923 14.978189 9.419118 
C 13.449522 10.052312 12.060445 10.980464 10.890455 12.150455 
C 9.720464 13.320445 8.792312 14.709522 8.159118 16.238189 
C 7.525923 17.766855 7.2 19.405383 7.2 21.06 
C 7.2 22.714617 7.525923 24.353145 8.159118 25.881811 
C 8.792312 27.410478 9.720464 28.799555 10.890455 29.969545 
C 12.060445 31.139536 13.449522 32.067688 14.978189 32.700882 
C 16.506855 33.334077 18.145383 33.66 19.8 33.66 
C 21.454617 33.66 23.093145 33.334077 24.621811 32.700882 
C 26.150478 32.067688 27.539555 31.139536 28.709545 29.969545 
C 29.879536 28.799555 30.807688 27.410478 31.440882 25.881811 
C 32.074077 24.353145 32.4 22.714617 32.4 21.06 
M 19.8 21.06 
C 19.8 21.06 19.8 21.06 19.8 21.06 
C 19.8 21.06 19.8 21.06 19.8 21.06 
C 19.8 21.06 19.8 21.06 19.8 21.06 
C 19.8 21.06 19.8 21.06 19.8 21.06 
C 19.8 21.06 19.8 21.06 19.8 21.06 
C 19.8 21.06 19.8 21.06 19.8 21.06 
C 19.8 21.06 19.8 21.06 19.8 21.06 
C 19.8 21.06 19.8 21.06 19.8 21.06 
C 19.8 21.06 19.8 21.06 19.8 21.06 
C 19.8 21.06 19.8 21.06 19.8 21.06 
C 19.8 21.06 19.8 21.06 19.8 21.06 
C 19.8 21.06 19.8 21.06 19.8 21.06 
C 19.8 21.06 19.8 21.06 19.8 21.06 
C 19.8 21.06 19.8 21.06 19.8 21.06 
C 19.8 21.06 19.8 21.06 19.8 21.06 
C 19.8 21.06 19.8 21.06 19.8 21.06 
z
"/>
  </clipPath>
 </defs>
</svg>
