<?xml version="1.0" encoding="utf-8" standalone="no"?>
<!DOCTYPE svg PUBLIC "-//W3C//DTD SVG 1.1//EN"
  "http://www.w3.org/Graphics/SVG/1.1/DTD/svg11.dtd">
<svg xmlns:xlink="http://www.w3.org/1999/xlink" width="86.92125pt" height="42.12pt" viewBox="0 0 86.92125 42.12" xmlns="http://www.w3.org/2000/svg" version="1.1">
 <metadata>
  <rdf:RDF xmlns:dc="http://purl.org/dc/elements/1.1/" xmlns:cc="http://creativecommons.org/ns#" xmlns:rdf="http://www.w3.org/1999/02/22-rdf-syntax-ns#">
   <cc:Work>
    <dc:type rdf:resource="http://purl.org/dc/dcmitype/StillImage"/>
    <dc:date>2024-05-18T14:19:53.418898</dc:date>
    <dc:format>image/svg+xml</dc:format>
    <dc:creator>
     <cc:Agent>
      <dc:title>Matplotlib v3.8.2, https://matplotlib.org/</dc:title>
     </cc:Agent>
    </dc:creator>
   </cc:Work>
  </rdf:RDF>
 </metadata>
 <defs>
  <style type="text/css">*{stroke-linejoin: round; stroke-linecap: butt}</style>
 </defs>
 <g id="figure_1">
  <g id="patch_1">
   <path d="M -0 42.12 
L 86.92125 42.12 
L 86.92125 0 
L -0 0 
L -0 42.12 
z
" style="fill: none"/>
  </g>
  <g id="axes_1">
   <g id="patch_2">
    <path d="M 32.4 21.06 
C 32.4 19.405383 32.074077 17.766855 31.440882 16.238189 
C 30.807688 14.709522 29.879536 13.320445 28.709545 12.150455 
C 27.539555 10.980464 26.150478 10.052312 24.621811 9.419118 
C 23.093145 8.785923 21.454617 8.46 19.8 8.46 
C 18.145383 8.46 16.506855 8.785923 14.978189 9.419118 
C 13.449522 10.052312 12.060445 10.980464 10.890455 12.150455 
C 9.720464 13.320445 8.792312 14.709522 8.159118 16.238189 
C 7.525923 17.766855 7.2 19.405383 7.2 21.06 
C 7.2 22.714617 7.525923 24.353145 8.159118 25.881811 
C 8.792312 27.410478 9.720464 28.799555 10.890455 29.969545 
C 12.060445 31.139536 13.449522 32.067688 14.978189 32.700882 
C 16.506855 33.334077 18.145383 33.66 19.8 33.66 
C 21.454617 33.66 23.093145 33.334077 24.621811 32.700882 
C 26.150478 32.067688 27.539555 31.139536 28.709545 29.969545 
C 29.879536 28.799555 30.807688 27.410478 31.440882 25.881811 
C 32.074077 24.353145 32.4 22.714617 32.4 21.06 
M 19.8 21.06 
C 19.8 21.06 19.8 21.06 19.8 21.06 
C 19.8 21.06 19.8 21.06 19.8 21.06 
C 19.8 21.06 19.8 21.06 19.8 21.06 
C 19.8 21.06 19.8 21.06 19.8 21.06 
C 19.8 21.06 19.8 21.06 19.8 21.06 
C 19.8 21.06 19.8 21.06 19.8 21.06 
C 19.8 21.06 19.8 21.06 19.8 21.06 
C 19.8 21.06 19.8 21.06 19.8 21.06 
C 19.8 21.06 19.8 21.06 19.8 21.06 
C 19.8 21.06 19.8 21.06 19.8 21.06 
C 19.8 21.06 19.8 21.06 19.8 21.06 
C 19.8 21.06 19.8 21.06 19.8 21.06 
C 19.8 21.06 19.8 21.06 19.8 21.06 
C 19.8 21.06 19.8 21.06 19.8 21.06 
C 19.8 21.06 19.8 21.06 19.8 21.06 
C 19.8 21.06 19.8 21.06 19.8 21.06 
L 19.8 21.06 
z
" style="fill: none"/>
   </g>
   <g id="patch_3">
    <path d="M 19.8 21.06 
C 19.8 21.06 19.8 21.06 19.8 21.06 
C 19.8 21.06 19.8 21.06 19.8 21.06 
C 19.8 21.06 19.8 21.06 19.8 21.06 
C 19.8 21.06 19.8 21.06 19.8 21.06 
C 19.8 21.06 19.8 21.06 19.8 21.06 
C 19.8 21.06 19.8 21.06 19.8 21.06 
C 19.8 21.06 19.8 21.06 19.8 21.06 
C 19.8 21.06 19.8 21.06 19.8 21.06 
C 19.8 21.06 19.8 21.06 19.8 21.06 
C 19.8 21.06 19.8 21.06 19.8 21.06 
C 19.8 21.06 19.8 21.06 19.8 21.06 
C 19.8 21.06 19.8 21.06 19.8 21.06 
C 19.8 21.06 19.8 21.06 19.8 21.06 
C 19.8 21.06 19.8 21.06 19.8 21.06 
C 19.8 21.06 19.8 21.06 19.8 21.06 
C 19.8 21.06 19.8 21.06 19.8 21.06 
L 33.726316 21.06 
C 33.726316 22.888787 33.366085 24.699791 32.666238 26.38937 
C 31.966392 28.078949 30.94054 29.614245 29.647392 30.907392 
C 28.354245 32.20054 26.818949 33.226392 25.12937 33.926238 
C 23.439791 34.626085 21.628787 34.986316 19.8 34.986316 
C 17.971213 34.986316 16.160209 34.626085 14.47063 33.926238 
C 12.781051 33.226392 11.245755 32.20054 9.952608 30.907392 
C 8.65946 29.614245 7.633608 28.078949 6.933762 26.38937 
C 6.233915 24.699791 5.873684 22.888787 5.873684 21.06 
C 5.873684 19.231213 6.233915 17.420209 6.933762 15.73063 
C 7.633608 14.041051 8.65946 12.505755 9.952608 11.212608 
C 11.245755 9.91946 12.781051 8.893608 14.47063 8.193762 
C 16.160209 7.493915 17.971213 7.133684 19.8 7.133684 
C 21.628787 7.133684 23.439791 7.493915 25.12937 8.193762 
C 26.818949 8.893608 28.354245 9.91946 29.647392 11.212608 
C 30.94054 12.505755 31.966392 14.041051 32.666238 15.73063 
C 33.366085 17.420209 33.726316 19.231213 33.726316 21.06 
z
" style="fill: #ffffff"/>
   </g>
   <g id="matplotlib.axis_1">
    <g id="xtick_1">
     <g id="line2d_1">
      <path d="M 19.8 21.06 
L 32.4 21.06 
" clip-path="url(#p1ca37c757c)" style="fill: none; stroke-dasharray: 2.96,1.28; stroke-dashoffset: 0; stroke: #dddfe5; stroke-width: 0.8"/>
     </g>
    </g>
    <g id="xtick_2">
     <g id="line2d_2">
      <path d="M 19.8 21.06 
L 28.709545 12.150455 
" clip-path="url(#p1ca37c757c)" style="fill: none; stroke-dasharray: 2.96,1.28; stroke-dashoffset: 0; stroke: #dddfe5; stroke-width: 0.8"/>
     </g>
    </g>
    <g id="xtick_3">
     <g id="line2d_3">
      <path d="M 19.8 21.06 
L 19.8 8.46 
" clip-path="url(#p1ca37c757c)" style="fill: none; stroke-dasharray: 2.96,1.28; stroke-dashoffset: 0; stroke: #dddfe5; stroke-width: 0.8"/>
     </g>
    </g>
    <g id="xtick_4">
     <g id="line2d_4">
      <path d="M 19.8 21.06 
L 10.890455 12.150455 
" clip-path="url(#p1ca37c757c)" style="fill: none; stroke-dasharray: 2.96,1.28; stroke-dashoffset: 0; stroke: #dddfe5; stroke-width: 0.8"/>
     </g>
    </g>
    <g id="xtick_5">
     <g id="line2d_5">
      <path d="M 19.8 21.06 
L 7.2 21.06 
" clip-path="url(#p1ca37c757c)" style="fill: none; stroke-dasharray: 2.96,1.28; stroke-dashoffset: 0; stroke: #dddfe5; stroke-width: 0.8"/>
     </g>
    </g>
    <g id="xtick_6">
     <g id="line2d_6">
      <path d="M 19.8 21.06 
L 10.890455 29.969545 
" clip-path="url(#p1ca37c757c)" style="fill: none; stroke-dasharray: 2.96,1.28; stroke-dashoffset: 0; stroke: #dddfe5; stroke-width: 0.8"/>
     </g>
    </g>
    <g id="xtick_7">
     <g id="line2d_7">
      <path d="M 19.8 21.06 
L 19.8 33.66 
" clip-path="url(#p1ca37c757c)" style="fill: none; stroke-dasharray: 2.96,1.28; stroke-dashoffset: 0; stroke: #dddfe5; stroke-width: 0.8"/>
     </g>
    </g>
    <g id="xtick_8">
     <g id="line2d_8">
      <path d="M 19.8 21.06 
L 28.709545 29.969545 
" clip-path="url(#p1ca37c757c)" style="fill: none; stroke-dasharray: 2.96,1.28; stroke-dashoffset: 0; stroke: #dddfe5; stroke-width: 0.8"/>
     </g>
    </g>
   </g>
   <g id="matplotlib.axis_2">
    <g id="ytick_1">
     <g id="line2d_9">
      <path d="M 26.431579 21.06 
C 26.431579 20.189149 26.26004 19.326766 25.92678 18.522205 
C 25.59352 17.717643 25.105019 16.98655 24.489234 16.370766 
C 23.87345 15.754981 23.142357 15.26648 22.337795 14.93322 
C 21.533234 14.59996 20.670851 14.428421 19.8 14.428421 
C 18.929149 14.428421 18.066766 14.59996 17.262205 14.93322 
C 16.457643 15.26648 15.72655 15.754981 15.110766 16.370766 
C 14.494981 16.98655 14.00648 17.717643 13.67322 18.522205 
C 13.33996 19.326766 13.168421 20.189149 13.168421 21.06 
C 13.168421 21.930851 13.33996 22.793234 13.67322 23.597795 
C 14.00648 24.402357 14.494981 25.13345 15.110766 25.749234 
C 15.72655 26.365019 16.457643 26.85352 17.262205 27.18678 
C 18.066766 27.52004 18.929149 27.691579 19.8 27.691579 
C 20.670851 27.691579 21.533234 27.52004 22.337795 27.18678 
C 23.142357 26.85352 23.87345 26.365019 24.489234 25.749234 
C 25.105019 25.13345 25.59352 24.402357 25.92678 23.597795 
C 26.26004 22.793234 26.431579 21.930851 26.431579 21.06 
" clip-path="url(#p1ca37c757c)" style="fill: none; stroke-dasharray: 2.96,1.28; stroke-dashoffset: 0; stroke: #dddfe5; stroke-width: 0.8"/>
     </g>
    </g>
   </g>
   <g id="patch_4">
    <path d="M 19.8 21.06 
C 19.8 21.06 19.8 21.06 19.8 21.06 
C 19.8 21.06 19.8 21.06 19.8 21.06 
L 22.280833 17.949134 
C 22.748162 18.321816 23.12556 18.795058 23.384908 19.333599 
C 23.644255 19.872141 23.778947 20.462264 23.778947 21.06 
z
" clip-path="url(#p1ca37c757c)" style="fill: #310d80; stroke: #4d4f53; stroke-linejoin: miter"/>
   </g>
   <g id="patch_5">
    <path d="M 19.8 21.06 
C 19.8 21.06 19.8 21.06 19.8 21.06 
C 19.8 21.06 19.8 21.06 19.8 21.06 
L 18.029202 13.301626 
C 19.1947 13.035609 20.4053 13.035609 21.570798 13.301626 
C 22.736297 13.567644 23.827009 14.092903 24.761666 14.838267 
z
" clip-path="url(#p1ca37c757c)" style="fill: #7ba370; stroke: #4d4f53; stroke-linejoin: miter"/>
   </g>
   <g id="patch_6">
    <path d="M 19.8 21.06 
C 19.8 21.06 19.8 21.06 19.8 21.06 
C 19.8 21.06 19.8 21.06 19.8 21.06 
L 10.240246 16.456265 
C 10.93184 15.020155 11.938236 13.758175 13.184445 12.764356 
C 14.430655 11.770538 15.884938 11.070192 17.438936 10.715502 
z
" clip-path="url(#p1ca37c757c)" style="fill: #fef412; stroke: #4d4f53; stroke-linejoin: miter"/>
   </g>
   <g id="patch_7">
    <path d="M 19.8 21.06 
C 19.8 21.06 19.8 21.06 19.8 21.06 
C 19.8 21.06 19.8 21.06 19.8 21.06 
L 11.435215 25.088268 
C 10.830071 23.831672 10.515789 22.454717 10.515789 21.06 
C 10.515789 19.665283 10.830071 18.288328 11.435215 17.031732 
z
" clip-path="url(#p1ca37c757c)" style="fill: #e5b662; stroke: #4d4f53; stroke-linejoin: miter"/>
   </g>
   <g id="patch_8">
    <path d="M 19.8 21.06 
C 19.8 21.06 19.8 21.06 19.8 21.06 
C 19.8 21.06 19.8 21.06 19.8 21.06 
L 18.619468 26.232249 
C 17.842469 26.054904 17.115327 25.704731 16.492223 25.207822 
C 15.869118 24.710912 15.36592 24.079922 15.020123 23.361867 
z
" clip-path="url(#p1ca37c757c)" style="fill: #1d518e; stroke: #4d4f53; stroke-linejoin: miter"/>
   </g>
   <g id="patch_9">
    <path d="M 19.8 21.06 
C 19.8 21.06 19.8 21.06 19.8 21.06 
C 19.8 21.06 19.8 21.06 19.8 21.06 
L 23.934722 26.244777 
C 23.155841 26.865914 22.246914 27.30363 21.275665 27.525311 
C 20.304417 27.746993 19.295583 27.746993 18.324335 27.525311 
z
" clip-path="url(#p1ca37c757c)" style="fill: #2f7f81; stroke: #4d4f53; stroke-linejoin: miter"/>
   </g>
   <g id="patch_10">
    <path d="M 19.8 21.06 
C 19.8 21.06 19.8 21.06 19.8 21.06 
C 19.8 21.06 19.8 21.06 19.8 21.06 
L 30.410526 21.06 
C 30.410526 22.653962 30.051348 24.227625 29.359754 25.663735 
C 28.66816 27.099845 27.661764 28.361825 26.415555 29.355644 
z
" clip-path="url(#p1ca37c757c)" style="fill: #fef412; stroke: #4d4f53; stroke-linejoin: miter"/>
   </g>
   <g id="patch_11">
    <path d="M 32.4 21.06 
C 32.4 19.405383 32.074077 17.766855 31.440882 16.238189 
C 30.807688 14.709522 29.879536 13.320445 28.709545 12.150455 
C 27.539555 10.980464 26.150478 10.052312 24.621811 9.419118 
C 23.093145 8.785923 21.454617 8.46 19.8 8.46 
C 18.145383 8.46 16.506855 8.785923 14.978189 9.419118 
C 13.449522 10.052312 12.060445 10.980464 10.890455 12.150455 
C 9.720464 13.320445 8.792312 14.709522 8.159118 16.238189 
C 7.525923 17.766855 7.2 19.405383 7.2 21.06 
C 7.2 22.714617 7.525923 24.353145 8.159118 25.881811 
C 8.792312 27.410478 9.720464 28.799555 10.890455 29.969545 
C 12.060445 31.139536 13.449522 32.067688 14.978189 32.700882 
C 16.506855 33.334077 18.145383 33.66 19.8 33.66 
C 21.454617 33.66 23.093145 33.334077 24.621811 32.700882 
C 26.150478 32.067688 27.539555 31.139536 28.709545 29.969545 
C 29.879536 28.799555 30.807688 27.410478 31.440882 25.881811 
C 32.074077 24.353145 32.4 22.714617 32.4 21.06 
" style="fill: none; stroke: #4d4f53; stroke-width: 0.8; stroke-linejoin: miter; stroke-linecap: square"/>
   </g>
  </g>
  <g id="text_1">
   <!-- prettypyplot -->
   <g style="fill: #4d4f53" transform="translate(36.18 13.2) scale(0.08 -0.08)">
    <defs>
     <path id="Roboto-Bold-70" d="M 3391 1659 
Q 3391 878 3036 407 
Q 2681 -63 2078 -63 
Q 1566 -63 1250 294 
L 1250 -1300 
L 347 -1300 
L 347 3381 
L 1184 3381 
L 1216 3050 
Q 1544 3444 2072 3444 
Q 2697 3444 3044 2981 
Q 3391 2519 3391 1706 
L 3391 1659 
z
M 2488 1725 
Q 2488 2197 2320 2453 
Q 2153 2709 1834 2709 
Q 1409 2709 1250 2384 
L 1250 1000 
Q 1416 666 1841 666 
Q 2488 666 2488 1725 
z
" transform="scale(0.015625)"/>
     <path id="Roboto-Bold-72" d="M 2247 2534 
Q 2063 2559 1922 2559 
Q 1409 2559 1250 2213 
L 1250 0 
L 347 0 
L 347 3381 
L 1200 3381 
L 1225 2978 
Q 1497 3444 1978 3444 
Q 2128 3444 2259 3403 
L 2247 2534 
z
" transform="scale(0.015625)"/>
     <path id="Roboto-Bold-65" d="M 1903 -63 
Q 1159 -63 692 393 
Q 225 850 225 1609 
L 225 1697 
Q 225 2206 422 2607 
Q 619 3009 980 3226 
Q 1341 3444 1803 3444 
Q 2497 3444 2895 3006 
Q 3294 2569 3294 1766 
L 3294 1397 
L 1141 1397 
Q 1184 1066 1404 866 
Q 1625 666 1963 666 
Q 2484 666 2778 1044 
L 3222 547 
Q 3019 259 2672 98 
Q 2325 -63 1903 -63 
z
M 1800 2713 
Q 1531 2713 1364 2531 
Q 1197 2350 1150 2013 
L 2406 2013 
L 2406 2084 
Q 2400 2384 2244 2548 
Q 2088 2713 1800 2713 
z
" transform="scale(0.015625)"/>
     <path id="Roboto-Bold-74" d="M 1428 4213 
L 1428 3381 
L 2006 3381 
L 2006 2719 
L 1428 2719 
L 1428 1031 
Q 1428 844 1500 762 
Q 1572 681 1775 681 
Q 1925 681 2041 703 
L 2041 19 
Q 1775 -63 1494 -63 
Q 544 -63 525 897 
L 525 2719 
L 31 2719 
L 31 3381 
L 525 3381 
L 525 4213 
L 1428 4213 
z
" transform="scale(0.015625)"/>
     <path id="Roboto-Bold-79" d="M 1609 1278 
L 2234 3381 
L 3203 3381 
L 1844 -525 
L 1769 -703 
Q 1466 -1366 769 -1366 
Q 572 -1366 369 -1306 
L 369 -622 
L 506 -625 
Q 763 -625 889 -547 
Q 1016 -469 1088 -288 
L 1194 -9 
L 9 3381 
L 981 3381 
L 1609 1278 
z
" transform="scale(0.015625)"/>
     <path id="Roboto-Bold-6c" d="M 1300 0 
L 394 0 
L 394 4800 
L 1300 4800 
L 1300 0 
z
" transform="scale(0.015625)"/>
     <path id="Roboto-Bold-6f" d="M 206 1722 
Q 206 2225 400 2619 
Q 594 3013 958 3228 
Q 1322 3444 1803 3444 
Q 2488 3444 2920 3025 
Q 3353 2606 3403 1888 
L 3409 1656 
Q 3409 878 2975 407 
Q 2541 -63 1809 -63 
Q 1078 -63 642 406 
Q 206 875 206 1681 
L 206 1722 
z
M 1109 1656 
Q 1109 1175 1290 920 
Q 1472 666 1809 666 
Q 2138 666 2322 917 
Q 2506 1169 2506 1722 
Q 2506 2194 2322 2453 
Q 2138 2713 1803 2713 
Q 1472 2713 1290 2455 
Q 1109 2197 1109 1656 
z
" transform="scale(0.015625)"/>
    </defs>
    <use xlink:href="#Roboto-Bold-70"/>
    <use xlink:href="#Roboto-Bold-72" x="56.298828"/>
    <use xlink:href="#Roboto-Bold-65" x="92.773438"/>
    <use xlink:href="#Roboto-Bold-74" x="146.826172"/>
    <use xlink:href="#Roboto-Bold-74" x="180.615234"/>
    <use xlink:href="#Roboto-Bold-79" x="214.404297"/>
    <use xlink:href="#Roboto-Bold-70" x="264.599609"/>
    <use xlink:href="#Roboto-Bold-79" x="320.898438"/>
    <use xlink:href="#Roboto-Bold-70" x="371.09375"/>
    <use xlink:href="#Roboto-Bold-6c" x="427.392578"/>
    <use xlink:href="#Roboto-Bold-6f" x="453.90625"/>
    <use xlink:href="#Roboto-Bold-74" x="510.449219"/>
   </g>
  </g>
  <g id="text_2">
   <!-- Publication ready -->
   <g style="fill: #7a808c" transform="translate(36.18 22.735469) scale(0.05 -0.05)">
    <defs>
     <path id="Roboto-Regular-50" d="M 1128 1781 
L 1128 0 
L 528 0 
L 528 4550 
L 2206 4550 
Q 2953 4550 3376 4169 
Q 3800 3788 3800 3159 
Q 3800 2497 3386 2139 
Q 2972 1781 2200 1781 
L 1128 1781 
z
M 1128 2272 
L 2206 2272 
Q 2688 2272 2944 2498 
Q 3200 2725 3200 3153 
Q 3200 3559 2944 3803 
Q 2688 4047 2241 4056 
L 1128 4056 
L 1128 2272 
z
" transform="scale(0.015625)"/>
     <path id="Roboto-Regular-75" d="M 2525 334 
Q 2188 -63 1534 -63 
Q 994 -63 711 251 
Q 428 566 425 1181 
L 425 3381 
L 1003 3381 
L 1003 1197 
Q 1003 428 1628 428 
Q 2291 428 2509 922 
L 2509 3381 
L 3088 3381 
L 3088 0 
L 2538 0 
L 2525 334 
z
" transform="scale(0.015625)"/>
     <path id="Roboto-Regular-62" d="M 3300 1653 
Q 3300 878 2944 407 
Q 2588 -63 1988 -63 
Q 1347 -63 997 391 
L 969 0 
L 438 0 
L 438 4800 
L 1016 4800 
L 1016 3009 
Q 1366 3444 1981 3444 
Q 2597 3444 2948 2978 
Q 3300 2513 3300 1703 
L 3300 1653 
z
M 2722 1719 
Q 2722 2309 2494 2631 
Q 2266 2953 1838 2953 
Q 1266 2953 1016 2422 
L 1016 959 
Q 1281 428 1844 428 
Q 2259 428 2490 750 
Q 2722 1072 2722 1719 
z
" transform="scale(0.015625)"/>
     <path id="Roboto-Regular-6c" d="M 1066 0 
L 488 0 
L 488 4800 
L 1066 4800 
L 1066 0 
z
" transform="scale(0.015625)"/>
     <path id="Roboto-Regular-69" d="M 1066 0 
L 488 0 
L 488 3381 
L 1066 3381 
L 1066 0 
z
M 441 4278 
Q 441 4419 527 4516 
Q 613 4613 781 4613 
Q 950 4613 1037 4516 
Q 1125 4419 1125 4278 
Q 1125 4138 1037 4044 
Q 950 3950 781 3950 
Q 613 3950 527 4044 
Q 441 4138 441 4278 
z
" transform="scale(0.015625)"/>
     <path id="Roboto-Regular-63" d="M 1794 409 
Q 2103 409 2334 596 
Q 2566 784 2591 1066 
L 3138 1066 
Q 3122 775 2937 512 
Q 2753 250 2445 93 
Q 2138 -63 1794 -63 
Q 1103 -63 695 398 
Q 288 859 288 1659 
L 288 1756 
Q 288 2250 469 2634 
Q 650 3019 989 3231 
Q 1328 3444 1791 3444 
Q 2359 3444 2736 3103 
Q 3113 2763 3138 2219 
L 2591 2219 
Q 2566 2547 2342 2758 
Q 2119 2969 1791 2969 
Q 1350 2969 1108 2651 
Q 866 2334 866 1734 
L 866 1625 
Q 866 1041 1106 725 
Q 1347 409 1794 409 
z
" transform="scale(0.015625)"/>
     <path id="Roboto-Regular-61" d="M 2525 0 
Q 2475 100 2444 356 
Q 2041 -63 1481 -63 
Q 981 -63 661 220 
Q 341 503 341 938 
Q 341 1466 742 1758 
Q 1144 2050 1872 2050 
L 2434 2050 
L 2434 2316 
Q 2434 2619 2253 2798 
Q 2072 2978 1719 2978 
Q 1409 2978 1200 2822 
Q 991 2666 991 2444 
L 409 2444 
Q 409 2697 589 2933 
Q 769 3169 1076 3306 
Q 1384 3444 1753 3444 
Q 2338 3444 2669 3151 
Q 3000 2859 3013 2347 
L 3013 791 
Q 3013 325 3131 50 
L 3131 0 
L 2525 0 
z
M 1566 441 
Q 1838 441 2081 581 
Q 2325 722 2434 947 
L 2434 1641 
L 1981 1641 
Q 919 1641 919 1019 
Q 919 747 1100 594 
Q 1281 441 1566 441 
z
" transform="scale(0.015625)"/>
     <path id="Roboto-Regular-74" d="M 1222 4200 
L 1222 3381 
L 1853 3381 
L 1853 2934 
L 1222 2934 
L 1222 838 
Q 1222 634 1306 532 
Q 1391 431 1594 431 
Q 1694 431 1869 469 
L 1869 0 
Q 1641 -63 1425 -63 
Q 1038 -63 841 171 
Q 644 406 644 838 
L 644 2934 
L 28 2934 
L 28 3381 
L 644 3381 
L 644 4200 
L 1222 4200 
z
" transform="scale(0.015625)"/>
     <path id="Roboto-Regular-6f" d="M 284 1722 
Q 284 2219 479 2616 
Q 675 3013 1023 3228 
Q 1372 3444 1819 3444 
Q 2509 3444 2936 2966 
Q 3363 2488 3363 1694 
L 3363 1653 
Q 3363 1159 3173 767 
Q 2984 375 2632 156 
Q 2281 -63 1825 -63 
Q 1138 -63 711 415 
Q 284 894 284 1681 
L 284 1722 
z
M 866 1653 
Q 866 1091 1127 750 
Q 1388 409 1825 409 
Q 2266 409 2525 754 
Q 2784 1100 2784 1722 
Q 2784 2278 2520 2623 
Q 2256 2969 1819 2969 
Q 1391 2969 1128 2628 
Q 866 2288 866 1653 
z
" transform="scale(0.015625)"/>
     <path id="Roboto-Regular-6e" d="M 984 3381 
L 1003 2956 
Q 1391 3444 2016 3444 
Q 3088 3444 3097 2234 
L 3097 0 
L 2519 0 
L 2519 2238 
Q 2516 2603 2352 2778 
Q 2188 2953 1841 2953 
Q 1559 2953 1346 2803 
Q 1134 2653 1016 2409 
L 1016 0 
L 438 0 
L 438 3381 
L 984 3381 
z
" transform="scale(0.015625)"/>
     <path id="Roboto-Regular-20" transform="scale(0.015625)"/>
     <path id="Roboto-Regular-72" d="M 2072 2863 
Q 1941 2884 1788 2884 
Q 1219 2884 1016 2400 
L 1016 0 
L 438 0 
L 438 3381 
L 1000 3381 
L 1009 2991 
Q 1294 3444 1816 3444 
Q 1984 3444 2072 3400 
L 2072 2863 
z
" transform="scale(0.015625)"/>
     <path id="Roboto-Regular-65" d="M 1841 -63 
Q 1153 -63 722 389 
Q 291 841 291 1597 
L 291 1703 
Q 291 2206 483 2601 
Q 675 2997 1020 3220 
Q 1366 3444 1769 3444 
Q 2428 3444 2793 3009 
Q 3159 2575 3159 1766 
L 3159 1525 
L 869 1525 
Q 881 1025 1161 717 
Q 1441 409 1872 409 
Q 2178 409 2390 534 
Q 2603 659 2763 866 
L 3116 591 
Q 2691 -63 1841 -63 
z
M 1769 2969 
Q 1419 2969 1181 2714 
Q 944 2459 888 2000 
L 2581 2000 
L 2581 2044 
Q 2556 2484 2343 2726 
Q 2131 2969 1769 2969 
z
" transform="scale(0.015625)"/>
     <path id="Roboto-Regular-64" d="M 297 1719 
Q 297 2497 665 2970 
Q 1034 3444 1631 3444 
Q 2225 3444 2572 3038 
L 2572 4800 
L 3150 4800 
L 3150 0 
L 2619 0 
L 2591 363 
Q 2244 -63 1625 -63 
Q 1038 -63 667 418 
Q 297 900 297 1675 
L 297 1719 
z
M 875 1653 
Q 875 1078 1112 753 
Q 1350 428 1769 428 
Q 2319 428 2572 922 
L 2572 2475 
Q 2313 2953 1775 2953 
Q 1350 2953 1112 2625 
Q 875 2297 875 1653 
z
" transform="scale(0.015625)"/>
     <path id="Roboto-Regular-79" d="M 1544 847 
L 2331 3381 
L 2950 3381 
L 1591 -522 
Q 1275 -1366 588 -1366 
L 478 -1356 
L 263 -1316 
L 263 -847 
L 419 -859 
Q 713 -859 877 -740 
Q 1041 -622 1147 -306 
L 1275 38 
L 69 3381 
L 700 3381 
L 1544 847 
z
" transform="scale(0.015625)"/>
    </defs>
    <use xlink:href="#Roboto-Regular-50"/>
    <use xlink:href="#Roboto-Regular-75" x="63.085938"/>
    <use xlink:href="#Roboto-Regular-62" x="118.212891"/>
    <use xlink:href="#Roboto-Regular-6c" x="174.316406"/>
    <use xlink:href="#Roboto-Regular-69" x="198.583984"/>
    <use xlink:href="#Roboto-Regular-63" x="222.851562"/>
    <use xlink:href="#Roboto-Regular-61" x="275.195312"/>
    <use xlink:href="#Roboto-Regular-74" x="329.589844"/>
    <use xlink:href="#Roboto-Regular-69" x="362.255859"/>
    <use xlink:href="#Roboto-Regular-6f" x="386.523438"/>
    <use xlink:href="#Roboto-Regular-6e" x="443.554688"/>
    <use xlink:href="#Roboto-Regular-20" x="498.730469"/>
    <use xlink:href="#Roboto-Regular-72" x="523.486328"/>
    <use xlink:href="#Roboto-Regular-65" x="557.324219"/>
    <use xlink:href="#Roboto-Regular-61" x="610.302734"/>
    <use xlink:href="#Roboto-Regular-64" x="664.697266"/>
    <use xlink:href="#Roboto-Regular-79" x="721.09375"/>
   </g>
   <!-- matplotlib figures -->
   <g style="fill: #7a808c" transform="translate(36.18 28.364531) scale(0.05 -0.05)">
    <defs>
     <path id="Roboto-Regular-6d" d="M 981 3381 
L 997 3006 
Q 1369 3444 2000 3444 
Q 2709 3444 2966 2900 
Q 3134 3144 3404 3294 
Q 3675 3444 4044 3444 
Q 5156 3444 5175 2266 
L 5175 0 
L 4597 0 
L 4597 2231 
Q 4597 2594 4431 2773 
Q 4266 2953 3875 2953 
Q 3553 2953 3340 2761 
Q 3128 2569 3094 2244 
L 3094 0 
L 2513 0 
L 2513 2216 
Q 2513 2953 1791 2953 
Q 1222 2953 1013 2469 
L 1013 0 
L 434 0 
L 434 3381 
L 981 3381 
z
" transform="scale(0.015625)"/>
     <path id="Roboto-Regular-70" d="M 3294 1653 
Q 3294 881 2941 409 
Q 2588 -63 1984 -63 
Q 1369 -63 1016 328 
L 1016 -1300 
L 438 -1300 
L 438 3381 
L 966 3381 
L 994 3006 
Q 1347 3444 1975 3444 
Q 2584 3444 2939 2984 
Q 3294 2525 3294 1706 
L 3294 1653 
z
M 2716 1719 
Q 2716 2291 2472 2622 
Q 2228 2953 1803 2953 
Q 1278 2953 1016 2488 
L 1016 872 
Q 1275 409 1809 409 
Q 2225 409 2470 739 
Q 2716 1069 2716 1719 
z
" transform="scale(0.015625)"/>
     <path id="Roboto-Regular-66" d="M 722 0 
L 722 2934 
L 188 2934 
L 188 3381 
L 722 3381 
L 722 3728 
Q 722 4272 1012 4569 
Q 1303 4866 1834 4866 
Q 2034 4866 2231 4813 
L 2200 4344 
Q 2053 4372 1888 4372 
Q 1606 4372 1453 4208 
Q 1300 4044 1300 3738 
L 1300 3381 
L 2022 3381 
L 2022 2934 
L 1300 2934 
L 1300 0 
L 722 0 
z
" transform="scale(0.015625)"/>
     <path id="Roboto-Regular-67" d="M 300 1719 
Q 300 2509 665 2976 
Q 1031 3444 1634 3444 
Q 2253 3444 2600 3006 
L 2628 3381 
L 3156 3381 
L 3156 81 
Q 3156 -575 2767 -953 
Q 2378 -1331 1722 -1331 
Q 1356 -1331 1006 -1175 
Q 656 -1019 472 -747 
L 772 -400 
Q 1144 -859 1681 -859 
Q 2103 -859 2339 -621 
Q 2575 -384 2575 47 
L 2575 338 
Q 2228 -63 1628 -63 
Q 1034 -63 667 415 
Q 300 894 300 1719 
z
M 881 1653 
Q 881 1081 1115 754 
Q 1350 428 1772 428 
Q 2319 428 2575 925 
L 2575 2469 
Q 2309 2953 1778 2953 
Q 1356 2953 1118 2625 
Q 881 2297 881 1653 
z
" transform="scale(0.015625)"/>
     <path id="Roboto-Regular-73" d="M 2406 897 
Q 2406 1131 2229 1261 
Q 2053 1391 1614 1484 
Q 1175 1578 917 1709 
Q 659 1841 536 2022 
Q 413 2203 413 2453 
Q 413 2869 764 3156 
Q 1116 3444 1663 3444 
Q 2238 3444 2595 3147 
Q 2953 2850 2953 2388 
L 2372 2388 
Q 2372 2625 2170 2797 
Q 1969 2969 1663 2969 
Q 1347 2969 1169 2831 
Q 991 2694 991 2472 
Q 991 2263 1156 2156 
Q 1322 2050 1755 1953 
Q 2188 1856 2456 1722 
Q 2725 1588 2854 1398 
Q 2984 1209 2984 938 
Q 2984 484 2621 210 
Q 2259 -63 1681 -63 
Q 1275 -63 962 81 
Q 650 225 473 483 
Q 297 741 297 1041 
L 875 1041 
Q 891 750 1108 579 
Q 1325 409 1681 409 
Q 2009 409 2207 542 
Q 2406 675 2406 897 
z
" transform="scale(0.015625)"/>
    </defs>
    <use xlink:href="#Roboto-Regular-6d"/>
    <use xlink:href="#Roboto-Regular-61" x="87.646484"/>
    <use xlink:href="#Roboto-Regular-74" x="142.041016"/>
    <use xlink:href="#Roboto-Regular-70" x="174.707031"/>
    <use xlink:href="#Roboto-Regular-6c" x="230.810547"/>
    <use xlink:href="#Roboto-Regular-6f" x="255.078125"/>
    <use xlink:href="#Roboto-Regular-74" x="312.109375"/>
    <use xlink:href="#Roboto-Regular-6c" x="344.775391"/>
    <use xlink:href="#Roboto-Regular-69" x="369.042969"/>
    <use xlink:href="#Roboto-Regular-62" x="393.310547"/>
    <use xlink:href="#Roboto-Regular-20" x="449.414062"/>
    <use xlink:href="#Roboto-Regular-66" x="474.169922"/>
    <use xlink:href="#Roboto-Regular-69" x="508.886719"/>
    <use xlink:href="#Roboto-Regular-67" x="533.154297"/>
    <use xlink:href="#Roboto-Regular-75" x="589.257812"/>
    <use xlink:href="#Roboto-Regular-72" x="644.384766"/>
    <use xlink:href="#Roboto-Regular-65" x="678.222656"/>
    <use xlink:href="#Roboto-Regular-73" x="731.201172"/>
   </g>
   <!-- made simple -->
   <g style="fill: #7a808c" transform="translate(36.18 33.904375) scale(0.05 -0.05)">
    <use xlink:href="#Roboto-Regular-6d"/>
    <use xlink:href="#Roboto-Regular-61" x="87.646484"/>
    <use xlink:href="#Roboto-Regular-64" x="142.041016"/>
    <use xlink:href="#Roboto-Regular-65" x="198.4375"/>
    <use xlink:href="#Roboto-Regular-20" x="251.416016"/>
    <use xlink:href="#Roboto-Regular-73" x="276.171875"/>
    <use xlink:href="#Roboto-Regular-69" x="327.734375"/>
    <use xlink:href="#Roboto-Regular-6d" x="352.001953"/>
    <use xlink:href="#Roboto-Regular-70" x="439.648438"/>
    <use xlink:href="#Roboto-Regular-6c" x="495.751953"/>
    <use xlink:href="#Roboto-Regular-65" x="520.019531"/>
   </g>
  </g>
 </g>
 <defs>
  <clipPath id="p1ca37c757c">
   <path d="M 32.4 21.06 
C 32.4 19.405383 32.074077 17.766855 31.440882 16.238189 
C 30.807688 14.709522 29.879536 13.320445 28.709545 12.150455 
C 27.539555 10.980464 26.150478 10.052312 24.621811 9.419118 
C 23.093145 8.785923 21.454617 8.46 19.8 8.46 
C 18.145383 8.46 16.506855 8.785923 14.978189 9.419118 
C 13.449522 10.052312 12.060445 10.980464 10.890455 12.150455 
C 9.720464 13.320445 8.792312 14.709522 8.159118 16.238189 
C 7.525923 17.766855 7.2 19.405383 7.2 21.06 
C 7.2 22.714617 7.525923 24.353145 8.159118 25.881811 
C 8.792312 27.410478 9.720464 28.799555 10.890455 29.969545 
C 12.060445 31.139536 13.449522 32.067688 14.978189 32.700882 
C 16.506855 33.334077 18.145383 33.66 19.8 33.66 
C 21.454617 33.66 23.093145 33.334077 24.621811 32.700882 
C 26.150478 32.067688 27.539555 31.139536 28.709545 29.969545 
C 29.879536 28.799555 30.807688 27.410478 31.440882 25.881811 
C 32.074077 24.353145 32.4 22.714617 32.4 21.06 
M 19.8 21.06 
C 19.8 21.06 19.8 21.06 19.8 21.06 
C 19.8 21.06 19.8 21.06 19.8 21.06 
C 19.8 21.06 19.8 21.06 19.8 21.06 
C 19.8 21.06 19.8 21.06 19.8 21.06 
C 19.8 21.06 19.8 21.06 19.8 21.06 
C 19.8 21.06 19.8 21.06 19.8 21.06 
C 19.8 21.06 19.8 21.06 19.8 21.06 
C 19.8 21.06 19.8 21.06 19.8 21.06 
C 19.8 21.06 19.8 21.06 19.8 21.06 
C 19.8 21.06 19.8 21.06 19.8 21.06 
C 19.8 21.06 19.8 21.06 19.8 21.06 
C 19.8 21.06 19.8 21.06 19.8 21.06 
C 19.8 21.06 19.8 21.06 19.8 21.06 
C 19.8 21.06 19.8 21.06 19.8 21.06 
C 19.8 21.06 19.8 21.06 19.8 21.06 
C 19.8 21.06 19.8 21.06 19.8 21.06 
z
"/>
  </clipPath>
 </defs>
</svg>
