<?xml version="1.0" encoding="utf-8" standalone="no"?>
<!DOCTYPE svg PUBLIC "-//W3C//DTD SVG 1.1//EN"
  "http://www.w3.org/Graphics/SVG/1.1/DTD/svg11.dtd">
<svg xmlns:xlink="http://www.w3.org/1999/xlink" width="36.9pt" height="36.9pt" viewBox="0 0 36.9 36.9" xmlns="http://www.w3.org/2000/svg" version="1.1">
 <metadata>
  <rdf:RDF xmlns:dc="http://purl.org/dc/elements/1.1/" xmlns:cc="http://creativecommons.org/ns#" xmlns:rdf="http://www.w3.org/1999/02/22-rdf-syntax-ns#">
   <cc:Work>
    <dc:type rdf:resource="http://purl.org/dc/dcmitype/StillImage"/>
    <dc:date>2023-03-07T22:04:13.902560</dc:date>
    <dc:format>image/svg+xml</dc:format>
    <dc:creator>
     <cc:Agent>
      <dc:title>Matplotlib v3.7.0, https://matplotlib.org/</dc:title>
     </cc:Agent>
    </dc:creator>
   </cc:Work>
  </rdf:RDF>
 </metadata>
 <defs>
  <style type="text/css">*{stroke-linejoin: round; stroke-linecap: butt}</style>
 </defs>
 <g id="figure_1">
  <g id="patch_1">
   <path d="M 0 36.9 
L 36.9 36.9 
L 36.9 0 
L 0 0 
L 0 36.9 
z
" style="fill: none"/>
  </g>
  <g id="axes_1">
   <g id="patch_2">
    <path d="M 29.7 18.45 
C 29.7 16.972664 29.408997 15.509692 28.843645 14.144811 
C 28.278293 12.77993 27.449586 11.539683 26.404951 10.495049 
C 25.360317 9.450414 24.12007 8.621707 22.755189 8.056355 
C 21.390308 7.491003 19.927336 7.2 18.45 7.2 
C 16.972664 7.2 15.509692 7.491003 14.144811 8.056355 
C 12.77993 8.621707 11.539683 9.450414 10.495049 10.495049 
C 9.450414 11.539683 8.621707 12.77993 8.056355 14.144811 
C 7.491003 15.509692 7.2 16.972664 7.2 18.45 
C 7.2 19.927336 7.491003 21.390308 8.056355 22.755189 
C 8.621707 24.12007 9.450414 25.360317 10.495049 26.404951 
C 11.539683 27.449586 12.77993 28.278293 14.144811 28.843645 
C 15.509692 29.408997 16.972664 29.7 18.45 29.7 
C 19.927336 29.7 21.390308 29.408997 22.755189 28.843645 
C 24.12007 28.278293 25.360317 27.449586 26.404951 26.404951 
C 27.449586 25.360317 28.278293 24.12007 28.843645 22.755189 
C 29.408997 21.390308 29.7 19.927336 29.7 18.45 
M 18.45 18.45 
C 18.45 18.45 18.45 18.45 18.45 18.45 
C 18.45 18.45 18.45 18.45 18.45 18.45 
C 18.45 18.45 18.45 18.45 18.45 18.45 
C 18.45 18.45 18.45 18.45 18.45 18.45 
C 18.45 18.45 18.45 18.45 18.45 18.45 
C 18.45 18.45 18.45 18.45 18.45 18.45 
C 18.45 18.45 18.45 18.45 18.45 18.45 
C 18.45 18.45 18.45 18.45 18.45 18.45 
C 18.45 18.45 18.45 18.45 18.45 18.45 
C 18.45 18.45 18.45 18.45 18.45 18.45 
C 18.45 18.45 18.45 18.45 18.45 18.45 
C 18.45 18.45 18.45 18.45 18.45 18.45 
C 18.45 18.45 18.45 18.45 18.45 18.45 
C 18.45 18.45 18.45 18.45 18.45 18.45 
C 18.45 18.45 18.45 18.45 18.45 18.45 
C 18.45 18.45 18.45 18.45 18.45 18.45 
L 18.45 18.45 
z
" style="fill: none"/>
   </g>
   <g id="patch_3">
    <path d="M 18.45 18.45 
C 18.45 18.45 18.45 18.45 18.45 18.45 
C 18.45 18.45 18.45 18.45 18.45 18.45 
C 18.45 18.45 18.45 18.45 18.45 18.45 
C 18.45 18.45 18.45 18.45 18.45 18.45 
C 18.45 18.45 18.45 18.45 18.45 18.45 
C 18.45 18.45 18.45 18.45 18.45 18.45 
C 18.45 18.45 18.45 18.45 18.45 18.45 
C 18.45 18.45 18.45 18.45 18.45 18.45 
C 18.45 18.45 18.45 18.45 18.45 18.45 
C 18.45 18.45 18.45 18.45 18.45 18.45 
C 18.45 18.45 18.45 18.45 18.45 18.45 
C 18.45 18.45 18.45 18.45 18.45 18.45 
C 18.45 18.45 18.45 18.45 18.45 18.45 
C 18.45 18.45 18.45 18.45 18.45 18.45 
C 18.45 18.45 18.45 18.45 18.45 18.45 
C 18.45 18.45 18.45 18.45 18.45 18.45 
L 30.884211 18.45 
C 30.884211 20.082846 30.562576 21.699814 29.937713 23.208366 
C 29.31285 24.716919 28.396911 26.087718 27.242315 27.242315 
C 26.087718 28.396911 24.716919 29.31285 23.208366 29.937713 
C 21.699814 30.562576 20.082846 30.884211 18.45 30.884211 
C 16.817154 30.884211 15.200186 30.562576 13.691634 29.937713 
C 12.183081 29.31285 10.812282 28.396911 9.657685 27.242315 
C 8.503089 26.087718 7.58715 24.716919 6.962287 23.208366 
C 6.337424 21.699814 6.015789 20.082846 6.015789 18.45 
C 6.015789 16.817154 6.337424 15.200186 6.962287 13.691634 
C 7.58715 12.183081 8.503089 10.812282 9.657685 9.657685 
C 10.812282 8.503089 12.183081 7.58715 13.691634 6.962287 
C 15.200186 6.337424 16.817154 6.015789 18.45 6.015789 
C 20.082846 6.015789 21.699814 6.337424 23.208366 6.962287 
C 24.716919 7.58715 26.087718 8.503089 27.242315 9.657685 
C 28.396911 10.812282 29.31285 12.183081 29.937713 13.691634 
C 30.562576 15.200186 30.884211 16.817154 30.884211 18.45 
z
" style="fill: #ffffff"/>
   </g>
   <g id="matplotlib.axis_1">
    <g id="xtick_1">
     <g id="line2d_1">
      <path d="M 18.45 18.45 
L 29.7 18.45 
" clip-path="url(#p02c6314fbc)" style="fill: none; stroke-dasharray: 2.96,1.28; stroke-dashoffset: 0; stroke: #dddfe5; stroke-width: 0.8"/>
     </g>
    </g>
    <g id="xtick_2">
     <g id="line2d_2">
      <path d="M 18.45 18.45 
L 26.404951 10.495049 
" clip-path="url(#p02c6314fbc)" style="fill: none; stroke-dasharray: 2.96,1.28; stroke-dashoffset: 0; stroke: #dddfe5; stroke-width: 0.8"/>
     </g>
    </g>
    <g id="xtick_3">
     <g id="line2d_3">
      <path d="M 18.45 18.45 
L 18.45 7.2 
" clip-path="url(#p02c6314fbc)" style="fill: none; stroke-dasharray: 2.96,1.28; stroke-dashoffset: 0; stroke: #dddfe5; stroke-width: 0.8"/>
     </g>
    </g>
    <g id="xtick_4">
     <g id="line2d_4">
      <path d="M 18.45 18.45 
L 10.495049 10.495049 
" clip-path="url(#p02c6314fbc)" style="fill: none; stroke-dasharray: 2.96,1.28; stroke-dashoffset: 0; stroke: #dddfe5; stroke-width: 0.8"/>
     </g>
    </g>
    <g id="xtick_5">
     <g id="line2d_5">
      <path d="M 18.45 18.45 
L 7.2 18.45 
" clip-path="url(#p02c6314fbc)" style="fill: none; stroke-dasharray: 2.96,1.28; stroke-dashoffset: 0; stroke: #dddfe5; stroke-width: 0.8"/>
     </g>
    </g>
    <g id="xtick_6">
     <g id="line2d_6">
      <path d="M 18.45 18.45 
L 10.495049 26.404951 
" clip-path="url(#p02c6314fbc)" style="fill: none; stroke-dasharray: 2.96,1.28; stroke-dashoffset: 0; stroke: #dddfe5; stroke-width: 0.8"/>
     </g>
    </g>
    <g id="xtick_7">
     <g id="line2d_7">
      <path d="M 18.45 18.45 
L 18.45 29.7 
" clip-path="url(#p02c6314fbc)" style="fill: none; stroke-dasharray: 2.96,1.28; stroke-dashoffset: 0; stroke: #dddfe5; stroke-width: 0.8"/>
     </g>
    </g>
    <g id="xtick_8">
     <g id="line2d_8">
      <path d="M 18.45 18.45 
L 26.404951 26.404951 
" clip-path="url(#p02c6314fbc)" style="fill: none; stroke-dasharray: 2.96,1.28; stroke-dashoffset: 0; stroke: #dddfe5; stroke-width: 0.8"/>
     </g>
    </g>
   </g>
   <g id="matplotlib.axis_2">
    <g id="ytick_1">
     <g id="line2d_9">
      <path d="M 24.371053 18.45 
C 24.371053 17.672454 24.217893 16.90247 23.920339 16.184111 
C 23.622786 15.465753 23.186624 14.812991 22.636816 14.263184 
C 22.087009 13.713376 21.434247 13.277214 20.715889 12.979661 
C 19.99753 12.682107 19.227546 12.528947 18.45 12.528947 
C 17.672454 12.528947 16.90247 12.682107 16.184111 12.979661 
C 15.465753 13.277214 14.812991 13.713376 14.263184 14.263184 
C 13.713376 14.812991 13.277214 15.465753 12.979661 16.184111 
C 12.682107 16.90247 12.528947 17.672454 12.528947 18.45 
C 12.528947 19.227546 12.682107 19.99753 12.979661 20.715889 
C 13.277214 21.434247 13.713376 22.087009 14.263184 22.636816 
C 14.812991 23.186624 15.465753 23.622786 16.184111 23.920339 
C 16.90247 24.217893 17.672454 24.371053 18.45 24.371053 
C 19.227546 24.371053 19.99753 24.217893 20.715889 23.920339 
C 21.434247 23.622786 22.087009 23.186624 22.636816 22.636816 
C 23.186624 22.087009 23.622786 21.434247 23.920339 20.715889 
C 24.217893 19.99753 24.371053 19.227546 24.371053 18.45 
" clip-path="url(#p02c6314fbc)" style="fill: none; stroke-dasharray: 2.96,1.28; stroke-dashoffset: 0; stroke: #dddfe5; stroke-width: 0.8"/>
     </g>
    </g>
   </g>
   <g id="patch_4">
    <path d="M 18.45 18.45 
C 18.45 18.45 18.45 18.45 18.45 18.45 
C 18.45 18.45 18.45 18.45 18.45 18.45 
L 20.66503 15.672441 
C 21.082287 16.005193 21.41925 16.427731 21.65081 16.908571 
C 21.882371 17.389411 22.002632 17.916307 22.002632 18.45 
z
" clip-path="url(#p02c6314fbc)" style="fill: #310d80; stroke: #4d4f53; stroke-linejoin: miter"/>
   </g>
   <g id="patch_5">
    <path d="M 18.45 18.45 
C 18.45 18.45 18.45 18.45 18.45 18.45 
C 18.45 18.45 18.45 18.45 18.45 18.45 
L 16.86893 11.522881 
C 17.909554 11.285365 18.990446 11.285365 20.03107 11.522881 
C 21.071693 11.760396 22.045544 12.229378 22.880059 12.894882 
z
" clip-path="url(#p02c6314fbc)" style="fill: #7ba370; stroke: #4d4f53; stroke-linejoin: miter"/>
   </g>
   <g id="patch_6">
    <path d="M 18.45 18.45 
C 18.45 18.45 18.45 18.45 18.45 18.45 
C 18.45 18.45 18.45 18.45 18.45 18.45 
L 9.914505 14.339522 
C 10.532 13.057281 11.430567 11.930514 12.543255 11.043175 
C 13.655942 10.155837 14.954409 9.530528 16.341907 9.213841 
z
" clip-path="url(#p02c6314fbc)" style="fill: #fef412; stroke: #4d4f53; stroke-linejoin: miter"/>
   </g>
   <g id="patch_7">
    <path d="M 18.45 18.45 
C 18.45 18.45 18.45 18.45 18.45 18.45 
C 18.45 18.45 18.45 18.45 18.45 18.45 
L 10.981442 22.046668 
C 10.441134 20.924707 10.160526 19.695283 10.160526 18.45 
C 10.160526 17.204717 10.441134 15.975293 10.981442 14.853332 
z
" clip-path="url(#p02c6314fbc)" style="fill: #e5b662; stroke: #4d4f53; stroke-linejoin: miter"/>
   </g>
   <g id="patch_8">
    <path d="M 18.45 18.45 
C 18.45 18.45 18.45 18.45 18.45 18.45 
C 18.45 18.45 18.45 18.45 18.45 18.45 
L 17.395953 23.06808 
C 16.702204 22.909736 16.052971 22.597081 15.496627 22.153412 
C 14.940284 21.709743 14.491 21.146359 14.182253 20.505239 
z
" clip-path="url(#p02c6314fbc)" style="fill: #1d518e; stroke: #4d4f53; stroke-linejoin: miter"/>
   </g>
   <g id="patch_9">
    <path d="M 18.45 18.45 
C 18.45 18.45 18.45 18.45 18.45 18.45 
C 18.45 18.45 18.45 18.45 18.45 18.45 
L 22.141716 23.079265 
C 21.446287 23.633852 20.634744 24.02467 19.767558 24.222599 
C 18.900372 24.420529 17.999628 24.420529 17.132442 24.222599 
z
" clip-path="url(#p02c6314fbc)" style="fill: #2f7f81; stroke: #4d4f53; stroke-linejoin: miter"/>
   </g>
   <g id="patch_10">
    <path d="M 18.45 18.45 
C 18.45 18.45 18.45 18.45 18.45 18.45 
C 18.45 18.45 18.45 18.45 18.45 18.45 
L 27.923684 18.45 
C 27.923684 19.87318 27.602989 21.278237 26.985495 22.560478 
C 26.368 23.842719 25.469433 24.969486 24.356745 25.856825 
z
" clip-path="url(#p02c6314fbc)" style="fill: #fef412; stroke: #4d4f53; stroke-linejoin: miter"/>
   </g>
   <g id="patch_11">
    <path d="M 29.7 18.45 
C 29.7 16.972664 29.408997 15.509692 28.843645 14.144811 
C 28.278293 12.77993 27.449586 11.539683 26.404951 10.495049 
C 25.360317 9.450414 24.12007 8.621707 22.755189 8.056355 
C 21.390308 7.491003 19.927336 7.2 18.45 7.2 
C 16.972664 7.2 15.509692 7.491003 14.144811 8.056355 
C 12.77993 8.621707 11.539683 9.450414 10.495049 10.495049 
C 9.450414 11.539683 8.621707 12.77993 8.056355 14.144811 
C 7.491003 15.509692 7.2 16.972664 7.2 18.45 
C 7.2 19.927336 7.491003 21.390308 8.056355 22.755189 
C 8.621707 24.12007 9.450414 25.360317 10.495049 26.404951 
C 11.539683 27.449586 12.77993 28.278293 14.144811 28.843645 
C 15.509692 29.408997 16.972664 29.7 18.45 29.7 
C 19.927336 29.7 21.390308 29.408997 22.755189 28.843645 
C 24.12007 28.278293 25.360317 27.449586 26.404951 26.404951 
C 27.449586 25.360317 28.278293 24.12007 28.843645 22.755189 
C 29.408997 21.390308 29.7 19.927336 29.7 18.45 
" style="fill: none; stroke: #4d4f53; stroke-width: 0.8; stroke-linejoin: miter; stroke-linecap: square"/>
   </g>
  </g>
 </g>
 <defs>
  <clipPath id="p02c6314fbc">
   <path d="M 29.7 18.45 
C 29.7 16.972664 29.408997 15.509692 28.843645 14.144811 
C 28.278293 12.77993 27.449586 11.539683 26.404951 10.495049 
C 25.360317 9.450414 24.12007 8.621707 22.755189 8.056355 
C 21.390308 7.491003 19.927336 7.2 18.45 7.2 
C 16.972664 7.2 15.509692 7.491003 14.144811 8.056355 
C 12.77993 8.621707 11.539683 9.450414 10.495049 10.495049 
C 9.450414 11.539683 8.621707 12.77993 8.056355 14.144811 
C 7.491003 15.509692 7.2 16.972664 7.2 18.45 
C 7.2 19.927336 7.491003 21.390308 8.056355 22.755189 
C 8.621707 24.12007 9.450414 25.360317 10.495049 26.404951 
C 11.539683 27.449586 12.77993 28.278293 14.144811 28.843645 
C 15.509692 29.408997 16.972664 29.7 18.45 29.7 
C 19.927336 29.7 21.390308 29.408997 22.755189 28.843645 
C 24.12007 28.278293 25.360317 27.449586 26.404951 26.404951 
C 27.449586 25.360317 28.278293 24.12007 28.843645 22.755189 
C 29.408997 21.390308 29.7 19.927336 29.7 18.45 
M 18.45 18.45 
C 18.45 18.45 18.45 18.45 18.45 18.45 
C 18.45 18.45 18.45 18.45 18.45 18.45 
C 18.45 18.45 18.45 18.45 18.45 18.45 
C 18.45 18.45 18.45 18.45 18.45 18.45 
C 18.45 18.45 18.45 18.45 18.45 18.45 
C 18.45 18.45 18.45 18.45 18.45 18.45 
C 18.45 18.45 18.45 18.45 18.45 18.45 
C 18.45 18.45 18.45 18.45 18.45 18.45 
C 18.45 18.45 18.45 18.45 18.45 18.45 
C 18.45 18.45 18.45 18.45 18.45 18.45 
C 18.45 18.45 18.45 18.45 18.45 18.45 
C 18.45 18.45 18.45 18.45 18.45 18.45 
C 18.45 18.45 18.45 18.45 18.45 18.45 
C 18.45 18.45 18.45 18.45 18.45 18.45 
C 18.45 18.45 18.45 18.45 18.45 18.45 
C 18.45 18.45 18.45 18.45 18.45 18.45 
z
"/>
  </clipPath>
 </defs>
</svg>
