<?xml version="1.0" encoding="utf-8" standalone="no"?>
<!DOCTYPE svg PUBLIC "-//W3C//DTD SVG 1.1//EN"
  "http://www.w3.org/Graphics/SVG/1.1/DTD/svg11.dtd">
<svg xmlns:xlink="http://www.w3.org/1999/xlink" width="371.742342pt" height="99.251893pt" viewBox="0 0 371.742342 99.251893" xmlns="http://www.w3.org/2000/svg" version="1.1">
 <metadata>
  <rdf:RDF xmlns:dc="http://purl.org/dc/elements/1.1/" xmlns:cc="http://creativecommons.org/ns#" xmlns:rdf="http://www.w3.org/1999/02/22-rdf-syntax-ns#">
   <cc:Work>
    <dc:type rdf:resource="http://purl.org/dc/dcmitype/StillImage"/>
    <dc:date>2025-08-12T06:26:55.808593</dc:date>
    <dc:format>image/svg+xml</dc:format>
    <dc:creator>
     <cc:Agent>
      <dc:title>Matplotlib v3.10.5, https://matplotlib.org/</dc:title>
     </cc:Agent>
    </dc:creator>
   </cc:Work>
  </rdf:RDF>
 </metadata>
 <defs>
  <style type="text/css">*{stroke-linejoin: round; stroke-linecap: butt}</style>
 </defs>
 <g id="figure_1">
  <g id="patch_1">
   <path d="M 0 99.251893 
L 371.742342 99.251893 
L 371.742342 -0 
L 0 -0 
L 0 99.251893 
z
" style="fill: none"/>
  </g>
  <g id="axes_1">
   <g id="patch_2">
    <path d="M 26.480242 76.990015 
L 112.880242 76.990015 
L 112.880242 23.591878 
L 26.480242 23.591878 
L 26.480242 76.990015 
z
" style="fill: none"/>
   </g>
   <g id="matplotlib.axis_1">
    <g id="xtick_1">
     <g id="line2d_1">
      <path d="M 30.407515 76.990015 
L 30.407515 23.591878 
" clip-path="url(#pdb3005d909)" style="fill: none; stroke-dasharray: 2.96,1.28; stroke-dashoffset: 0; stroke: #dddfe5; stroke-width: 0.8"/>
     </g>
     <g id="line2d_2">
      <defs>
       <path id="m4af9826d57" d="M 0 0 
L 0 3.5 
" style="stroke: #4d4f53; stroke-width: 0.8"/>
      </defs>
      <g>
       <use xlink:href="#m4af9826d57" x="30.407515" y="76.990015" style="fill: #4d4f53; stroke: #4d4f53; stroke-width: 0.8"/>
      </g>
     </g>
     <g id="text_1">
      <!-- 0 -->
      <g style="fill: #4d4f53" transform="translate(27.757534 90.319513) scale(0.0833 -0.0833)">
       <defs>
        <path id="DejaVuSans-30" d="M 2034 4250 
Q 1547 4250 1301 3770 
Q 1056 3291 1056 2328 
Q 1056 1369 1301 889 
Q 1547 409 2034 409 
Q 2525 409 2770 889 
Q 3016 1369 3016 2328 
Q 3016 3291 2770 3770 
Q 2525 4250 2034 4250 
z
M 2034 4750 
Q 2819 4750 3233 4129 
Q 3647 3509 3647 2328 
Q 3647 1150 3233 529 
Q 2819 -91 2034 -91 
Q 1250 -91 836 529 
Q 422 1150 422 2328 
Q 422 3509 836 4129 
Q 1250 4750 2034 4750 
z
" transform="scale(0.015625)"/>
       </defs>
       <use xlink:href="#DejaVuSans-30"/>
      </g>
     </g>
    </g>
    <g id="xtick_2">
     <g id="line2d_3">
      <path d="M 72.077173 76.990015 
L 72.077173 23.591878 
" clip-path="url(#pdb3005d909)" style="fill: none; stroke-dasharray: 2.96,1.28; stroke-dashoffset: 0; stroke: #dddfe5; stroke-width: 0.8"/>
     </g>
     <g id="line2d_4">
      <g>
       <use xlink:href="#m4af9826d57" x="72.077173" y="76.990015" style="fill: #4d4f53; stroke: #4d4f53; stroke-width: 0.8"/>
      </g>
     </g>
     <g id="text_2">
      <!-- 5 -->
      <g style="fill: #4d4f53" transform="translate(69.427191 90.319513) scale(0.0833 -0.0833)">
       <defs>
        <path id="DejaVuSans-35" d="M 691 4666 
L 3169 4666 
L 3169 4134 
L 1269 4134 
L 1269 2991 
Q 1406 3038 1543 3061 
Q 1681 3084 1819 3084 
Q 2600 3084 3056 2656 
Q 3513 2228 3513 1497 
Q 3513 744 3044 326 
Q 2575 -91 1722 -91 
Q 1428 -91 1123 -41 
Q 819 9 494 109 
L 494 744 
Q 775 591 1075 516 
Q 1375 441 1709 441 
Q 2250 441 2565 725 
Q 2881 1009 2881 1497 
Q 2881 1984 2565 2268 
Q 2250 2553 1709 2553 
Q 1456 2553 1204 2497 
Q 953 2441 691 2322 
L 691 4666 
z
" transform="scale(0.015625)"/>
       </defs>
       <use xlink:href="#DejaVuSans-35"/>
      </g>
     </g>
    </g>
   </g>
   <g id="matplotlib.axis_2">
    <g id="ytick_1">
     <g id="line2d_5">
      <path d="M 26.480242 74.584299 
L 112.880242 74.584299 
" clip-path="url(#pdb3005d909)" style="fill: none; stroke-dasharray: 2.96,1.28; stroke-dashoffset: 0; stroke: #dddfe5; stroke-width: 0.8"/>
     </g>
     <g id="line2d_6">
      <defs>
       <path id="maccf5a832a" d="M 0 0 
L -3.5 0 
" style="stroke: #4d4f53; stroke-width: 0.8"/>
      </defs>
      <g>
       <use xlink:href="#maccf5a832a" x="26.480242" y="74.584299" style="fill: #4d4f53; stroke: #4d4f53; stroke-width: 0.8"/>
      </g>
     </g>
     <g id="text_3">
      <!-- −1 -->
      <g style="fill: #4d4f53" transform="translate(7.2 77.749048) scale(0.0833 -0.0833)">
       <defs>
        <path id="DejaVuSans-2212" d="M 678 2272 
L 4684 2272 
L 4684 1741 
L 678 1741 
L 678 2272 
z
" transform="scale(0.015625)"/>
        <path id="DejaVuSans-31" d="M 794 531 
L 1825 531 
L 1825 4091 
L 703 3866 
L 703 4441 
L 1819 4666 
L 2450 4666 
L 2450 531 
L 3481 531 
L 3481 0 
L 794 0 
L 794 531 
z
" transform="scale(0.015625)"/>
       </defs>
       <use xlink:href="#DejaVuSans-2212"/>
       <use xlink:href="#DejaVuSans-31" transform="translate(83.789062 0)"/>
      </g>
     </g>
    </g>
    <g id="ytick_2">
     <g id="line2d_7">
      <path d="M 26.480242 51.453652 
L 112.880242 51.453652 
" clip-path="url(#pdb3005d909)" style="fill: none; stroke-dasharray: 2.96,1.28; stroke-dashoffset: 0; stroke: #dddfe5; stroke-width: 0.8"/>
     </g>
     <g id="line2d_8">
      <g>
       <use xlink:href="#maccf5a832a" x="26.480242" y="51.453652" style="fill: #4d4f53; stroke: #4d4f53; stroke-width: 0.8"/>
      </g>
     </g>
     <g id="text_4">
      <!-- 0 -->
      <g style="fill: #4d4f53" transform="translate(14.18028 54.618401) scale(0.0833 -0.0833)">
       <use xlink:href="#DejaVuSans-30"/>
      </g>
     </g>
    </g>
    <g id="ytick_3">
     <g id="line2d_9">
      <path d="M 26.480242 28.323005 
L 112.880242 28.323005 
" clip-path="url(#pdb3005d909)" style="fill: none; stroke-dasharray: 2.96,1.28; stroke-dashoffset: 0; stroke: #dddfe5; stroke-width: 0.8"/>
     </g>
     <g id="line2d_10">
      <g>
       <use xlink:href="#maccf5a832a" x="26.480242" y="28.323005" style="fill: #4d4f53; stroke: #4d4f53; stroke-width: 0.8"/>
      </g>
     </g>
     <g id="text_5">
      <!-- 1 -->
      <g style="fill: #4d4f53" transform="translate(14.18028 31.487755) scale(0.0833 -0.0833)">
       <use xlink:href="#DejaVuSans-31"/>
      </g>
     </g>
    </g>
   </g>
   <g id="line2d_11">
    <path d="M 30.407515 34.124716 
L 31.037138 32.154078 
L 31.194544 32.478504 
L 31.351949 30.564441 
L 31.509355 30.871583 
L 31.666761 32.051171 
L 31.981572 30.386965 
L 32.138978 31.323374 
L 32.296384 29.116621 
L 32.453789 30.152571 
L 32.768601 28.934998 
L 32.926006 29.744288 
L 33.240818 28.867015 
L 33.398224 28.290713 
L 33.555629 29.452859 
L 33.713035 29.066648 
L 33.870441 28.036612 
L 34.027846 28.292627 
L 34.185252 28.904629 
L 34.342658 28.239267 
L 34.500064 28.619299 
L 34.814875 26.949026 
L 34.972281 28.355071 
L 35.129687 26.486437 
L 35.287092 27.642277 
L 35.444498 27.39405 
L 35.601904 27.320827 
L 35.759309 28.414968 
L 36.074121 26.078379 
L 36.388932 28.040432 
L 36.703744 26.720261 
L 36.861149 28.324576 
L 37.018555 27.493048 
L 37.175961 28.235425 
L 37.333367 26.577657 
L 37.490772 27.634915 
L 37.648178 26.867691 
L 37.805584 27.413339 
L 37.96299 26.364348 
L 38.435207 27.552912 
L 38.592612 26.649156 
L 38.907424 29.141965 
L 39.06483 29.090716 
L 39.222235 27.25412 
L 39.379641 27.311595 
L 39.694452 29.072483 
L 39.851858 28.349564 
L 40.009264 30.164511 
L 40.16667 28.607617 
L 40.324075 28.995683 
L 40.481481 30.29887 
L 40.796292 29.035397 
L 40.953698 30.980548 
L 41.111104 29.469133 
L 41.26851 31.052013 
L 41.425915 30.416363 
L 41.583321 31.663046 
L 41.740727 31.324357 
L 41.898133 32.368691 
L 42.055538 31.958134 
L 42.37035 32.66599 
L 42.527755 32.030861 
L 42.685161 33.008171 
L 42.842567 32.767865 
L 42.999973 32.907128 
L 43.157378 34.233344 
L 43.314784 33.253207 
L 43.944407 35.575591 
L 44.101813 34.904557 
L 44.57403 37.491714 
L 44.731435 36.210068 
L 45.203653 38.955487 
L 45.361058 38.8838 
L 45.833276 40.74046 
L 45.990681 39.841034 
L 46.148087 41.75374 
L 46.305493 41.675752 
L 46.620304 40.863216 
L 46.935116 42.901065 
L 47.092521 42.282312 
L 47.249927 42.377446 
L 47.564738 44.611462 
L 47.722144 44.320474 
L 48.036956 46.715635 
L 48.194361 46.410601 
L 48.351767 46.527129 
L 48.509173 47.968414 
L 48.666578 46.396252 
L 49.611013 50.835744 
L 49.768419 51.012061 
L 49.925824 50.42183 
L 50.08323 51.323283 
L 50.240636 50.706449 
L 50.712853 53.745459 
L 51.027664 54.042339 
L 51.18507 55.296701 
L 51.342476 54.432629 
L 51.499881 56.196549 
L 51.657287 55.083891 
L 51.814693 55.655214 
L 51.972099 57.583894 
L 52.129504 56.25903 
L 52.28691 57.658722 
L 52.444316 57.061758 
L 52.916533 59.688528 
L 53.073939 58.532712 
L 53.231344 60.263975 
L 53.38875 59.565348 
L 53.546156 60.378169 
L 53.703562 59.989434 
L 54.175779 63.031595 
L 54.333184 61.381878 
L 54.647996 63.986259 
L 54.805402 63.126499 
L 55.120213 64.122064 
L 55.277619 63.64577 
L 55.435024 64.003965 
L 55.59243 65.810669 
L 55.749836 65.084616 
L 56.222053 67.571421 
L 56.379459 67.539851 
L 56.536865 66.835744 
L 56.69427 67.950735 
L 56.851676 67.878488 
L 57.009082 68.385584 
L 57.166487 68.3072 
L 57.323893 68.218822 
L 57.481299 67.802388 
L 57.638705 70.179729 
L 57.79611 69.220461 
L 57.953516 69.269378 
L 58.110922 70.622503 
L 58.268327 69.539096 
L 58.425733 70.567252 
L 58.583139 70.475785 
L 58.740545 70.530571 
L 58.89795 70.114648 
L 59.212762 70.995863 
L 59.527573 72.69645 
L 59.842385 71.312378 
L 59.99979 71.646257 
L 60.157196 72.958861 
L 60.314602 72.918389 
L 60.472008 73.17448 
L 60.786819 72.383686 
L 61.10163 73.445685 
L 61.416442 72.286058 
L 61.573848 73.059958 
L 61.731253 72.712287 
L 61.888659 73.43808 
L 62.20347 72.614314 
L 62.360876 74.510951 
L 62.518282 72.873576 
L 62.675688 72.921803 
L 62.990499 72.761218 
L 63.147905 72.398608 
L 63.462716 74.081844 
L 63.777528 72.140943 
L 64.092339 72.314249 
L 64.407151 74.147948 
L 64.721962 72.287791 
L 64.879368 72.243155 
L 65.036773 73.407463 
L 65.194179 73.377784 
L 65.351585 73.154233 
L 65.508991 71.486593 
L 65.823802 72.683662 
L 65.981208 71.479474 
L 66.138613 72.6863 
L 66.296019 72.383613 
L 66.453425 72.162195 
L 66.768236 70.608902 
L 66.925642 70.506458 
L 67.240454 69.683292 
L 67.555265 70.746562 
L 67.712671 69.552605 
L 67.870076 69.740291 
L 68.027482 69.593838 
L 68.499699 67.318911 
L 68.657105 68.089225 
L 68.971916 66.692395 
L 69.129322 67.365907 
L 69.444134 65.376109 
L 69.601539 66.852117 
L 69.916351 65.026238 
L 70.073756 66.053015 
L 70.388568 63.978428 
L 71.647814 60.84721 
L 71.805219 61.881104 
L 71.962625 60.474918 
L 72.120031 61.201408 
L 72.277437 59.32142 
L 72.434842 60.750358 
L 72.749654 59.973701 
L 73.064465 57.971329 
L 73.221871 58.724333 
L 73.379277 58.311305 
L 73.694088 55.8022 
L 73.851494 56.576119 
L 74.166305 54.307588 
L 74.323711 53.911256 
L 74.481117 54.118472 
L 74.953334 52.396663 
L 75.11074 52.729406 
L 75.582957 50.478235 
L 75.740362 51.118836 
L 75.897768 50.278599 
L 76.055174 50.609518 
L 76.684797 47.816737 
L 76.842202 48.761019 
L 76.999608 48.187469 
L 77.157014 46.255321 
L 77.31442 46.552169 
L 77.471825 44.90355 
L 77.629231 46.434665 
L 78.258854 42.760184 
L 78.41626 44.151964 
L 78.731071 42.28232 
L 78.888477 42.723193 
L 79.045883 42.847811 
L 79.203288 41.206276 
L 79.360694 41.71581 
L 79.5181 39.925784 
L 79.675505 40.476953 
L 79.832911 40.210366 
L 80.147723 38.749236 
L 80.305128 39.094105 
L 80.462534 37.709357 
L 80.61994 38.135596 
L 80.777345 36.932049 
L 80.934751 38.236995 
L 81.092157 35.877226 
L 81.249563 36.133977 
L 81.406968 36.234316 
L 81.564374 36.887573 
L 82.036591 33.795302 
L 82.351403 34.006364 
L 82.508808 34.036777 
L 82.666214 32.757693 
L 82.82362 33.048567 
L 82.981026 32.378791 
L 83.295837 33.271284 
L 83.453243 30.973425 
L 83.610648 32.920892 
L 83.92546 31.522361 
L 84.082866 31.682935 
L 84.240271 31.382592 
L 84.555083 30.127324 
L 84.712488 29.916087 
L 84.869894 29.346799 
L 85.0273 30.405948 
L 85.184706 28.640154 
L 85.342111 28.990098 
L 85.499517 30.230944 
L 85.656923 28.780499 
L 85.814329 29.121359 
L 85.971734 29.038662 
L 86.12914 29.223812 
L 86.443951 27.14336 
L 86.601357 28.633164 
L 86.758763 27.639525 
L 87.23098 28.598598 
L 87.388386 28.173365 
L 87.545791 26.666983 
L 87.703197 28.335212 
L 88.018009 26.830408 
L 88.33282 27.771904 
L 88.490226 26.176318 
L 88.647632 26.238976 
L 88.805037 26.91786 
L 89.119849 26.043258 
L 89.277254 26.304873 
L 89.43466 27.194255 
L 89.592066 26.503597 
L 89.749472 26.575059 
L 89.906877 28.048515 
L 90.064283 27.10575 
L 90.221689 28.343972 
L 90.379094 28.108892 
L 90.5365 28.382779 
L 90.851312 27.841471 
L 91.008717 28.304918 
L 91.323529 27.198328 
L 91.63834 29.337683 
L 91.795746 27.510353 
L 91.953152 28.971567 
L 92.267963 27.920228 
L 92.425369 28.375007 
L 92.582775 30.280527 
L 92.74018 29.679609 
L 92.897586 30.210697 
L 93.054992 29.515301 
L 93.212397 29.888081 
L 93.369803 29.287106 
L 93.527209 30.739147 
L 93.684615 29.941954 
L 94.156832 31.951757 
L 94.314237 31.234296 
L 94.471643 31.807325 
L 94.629049 31.151912 
L 94.94386 33.411726 
L 95.101266 32.641745 
L 95.258672 33.011461 
L 95.416077 32.714744 
L 95.573483 33.016825 
L 95.730889 34.876636 
L 95.888295 34.537476 
L 96.517918 36.910566 
L 96.675323 35.196335 
L 97.462352 37.6808 
L 97.619758 39.113984 
L 97.777163 37.862172 
L 97.934569 40.296683 
L 98.091975 39.309192 
L 98.24938 41.068891 
L 98.406786 39.302327 
L 99.193815 43.214997 
L 99.351221 42.062972 
L 99.666032 44.507475 
L 99.823438 44.436595 
L 99.980843 43.369131 
L 100.453061 46.353752 
L 100.610466 45.553739 
L 100.767872 47.453963 
L 100.925278 47.209958 
L 101.082683 46.649356 
L 101.240089 49.059236 
L 101.554901 47.697582 
L 101.712306 49.859201 
L 101.869712 49.121659 
L 102.184523 49.693348 
L 102.656741 52.829792 
L 102.814146 52.160217 
L 103.286364 53.492493 
L 103.601175 55.216553 
L 103.915986 54.168266 
L 104.545609 57.492063 
L 104.703015 56.435328 
L 105.175232 59.585174 
L 105.332638 59.05306 
L 105.490044 60.420283 
L 105.647449 59.439501 
L 105.804855 61.100849 
L 105.962261 60.724517 
L 106.119666 61.628042 
L 106.277072 60.273577 
L 106.434478 62.336146 
L 106.591884 61.989741 
L 106.749289 63.68255 
L 106.906695 62.670581 
L 107.378912 64.229417 
L 107.536318 63.454109 
L 107.693724 65.431075 
L 107.851129 64.590028 
L 108.008535 64.729708 
L 108.480752 65.877624 
L 108.795564 67.918594 
L 108.952969 66.30979 
L 108.952969 66.30979 
" clip-path="url(#pdb3005d909)" style="fill: none; stroke: #3362b0; stroke-width: 1.5; stroke-linecap: square"/>
   </g>
   <g id="line2d_12">
    <path d="M 30.407515 27.909739 
L 30.564921 26.569454 
L 30.722326 26.69414 
L 30.879732 28.099365 
L 31.037138 26.711135 
L 31.194544 28.058924 
L 31.351949 28.023642 
L 31.666761 27.947879 
L 31.824166 28.680005 
L 31.981572 28.26568 
L 32.138978 28.889668 
L 32.296384 28.731594 
L 32.453789 27.73203 
L 32.768601 29.77564 
L 32.926006 28.600137 
L 33.083412 29.792827 
L 33.398224 28.533601 
L 33.713035 30.851147 
L 33.870441 30.460576 
L 34.027846 30.737547 
L 34.342658 31.980218 
L 34.500064 30.810706 
L 34.657469 31.38239 
L 34.814875 30.754831 
L 35.129687 31.850977 
L 35.601904 34.20865 
L 35.759309 34.004112 
L 35.916715 33.485117 
L 36.074121 35.039007 
L 36.388932 34.121268 
L 36.546338 36.096994 
L 36.703744 34.460649 
L 37.648178 37.991173 
L 37.805584 37.390383 
L 37.96299 39.257076 
L 38.120395 37.531978 
L 38.435207 40.390705 
L 38.592612 40.503288 
L 38.750018 39.202392 
L 39.06483 41.393748 
L 39.222235 41.398956 
L 39.379641 42.675509 
L 39.537047 41.405022 
L 39.694452 42.92536 
L 39.851858 42.214891 
L 40.16667 44.724059 
L 40.324075 43.404814 
L 40.796292 46.022962 
L 40.953698 44.818987 
L 41.111104 46.323813 
L 41.26851 45.745866 
L 41.740727 47.972034 
L 41.898133 47.337593 
L 42.055538 49.901232 
L 42.212944 48.462217 
L 42.37035 50.802635 
L 42.527755 50.431895 
L 42.685161 50.464066 
L 43.629595 53.700359 
L 43.787001 52.76884 
L 43.944407 53.45844 
L 44.259218 55.908152 
L 44.416624 55.348508 
L 44.731435 56.68379 
L 45.046247 57.435016 
L 45.361058 56.813104 
L 45.833276 59.486939 
L 45.990681 59.857116 
L 46.148087 59.009792 
L 46.462898 61.733637 
L 46.620304 61.110121 
L 46.935116 62.843562 
L 47.092521 61.182902 
L 47.249927 62.721899 
L 47.407333 61.973334 
L 48.036956 65.390561 
L 48.194361 64.264474 
L 48.351767 65.556758 
L 48.509173 64.795631 
L 48.666578 66.204657 
L 48.823984 66.09489 
L 48.98139 66.094787 
L 49.138796 67.468245 
L 49.296201 66.717743 
L 49.453607 68.209421 
L 49.611013 67.940631 
L 49.768419 68.119388 
L 49.925824 68.778137 
L 50.08323 67.328007 
L 50.240636 69.727769 
L 50.398041 68.074341 
L 50.555447 68.91722 
L 50.712853 68.411212 
L 50.870259 69.526962 
L 51.027664 69.463496 
L 51.18507 69.354257 
L 51.342476 69.698231 
L 51.499881 71.313219 
L 51.657287 70.770968 
L 51.814693 71.395451 
L 51.972099 70.187712 
L 52.28691 71.519368 
L 52.444316 71.354365 
L 52.601722 72.754898 
L 52.759127 71.236229 
L 53.073939 73.286793 
L 53.38875 72.284722 
L 53.703562 73.782526 
L 53.860967 71.813445 
L 54.175779 73.86943 
L 54.333184 72.797911 
L 54.49059 74.091434 
L 54.647996 74.034685 
L 54.805402 74.19098 
L 55.120213 72.285812 
L 55.435024 74.280234 
L 55.59243 74.197579 
L 55.907242 72.982837 
L 56.064647 73.127592 
L 56.222053 74.469795 
L 56.379459 73.136794 
L 56.536865 74.35243 
L 56.69427 72.931685 
L 56.851676 73.554466 
L 57.009082 72.05655 
L 57.166487 72.178292 
L 57.323893 72.376164 
L 57.481299 72.113972 
L 57.953516 73.46314 
L 58.110922 72.436512 
L 58.268327 73.037773 
L 58.425733 71.504989 
L 58.583139 72.82981 
L 58.740545 72.73471 
L 59.055356 70.514833 
L 59.370167 71.980606 
L 59.527573 70.865166 
L 59.684979 71.582285 
L 59.842385 71.020038 
L 59.99979 69.354716 
L 60.157196 71.13386 
L 60.314602 70.951126 
L 60.472008 70.57339 
L 60.629413 69.516841 
L 60.786819 69.857168 
L 60.944225 67.983576 
L 61.10163 69.000499 
L 61.573848 67.646081 
L 61.731253 66.684012 
L 61.888659 68.064577 
L 62.20347 66.039535 
L 62.360876 65.786754 
L 62.518282 66.80229 
L 62.833093 65.156105 
L 62.990499 66.071949 
L 63.305311 63.771142 
L 63.462716 65.057496 
L 63.777528 63.044569 
L 63.934933 63.591669 
L 64.092339 63.542098 
L 64.407151 61.147877 
L 64.564556 61.250745 
L 64.721962 61.63948 
L 65.036773 61.085466 
L 65.194179 59.861238 
L 65.351585 60.355527 
L 65.823802 59.19772 
L 65.981208 57.461729 
L 66.138613 57.631406 
L 66.610831 55.66745 
L 66.768236 55.745309 
L 67.083048 53.824975 
L 67.240454 55.084454 
L 67.397859 54.662427 
L 67.870076 52.112208 
L 68.027482 51.556048 
L 68.342294 52.467484 
L 68.657105 49.646251 
L 69.601539 46.865858 
L 69.758945 47.618562 
L 69.916351 46.276196 
L 70.073756 47.201795 
L 70.388568 44.789801 
L 70.545974 45.68343 
L 70.703379 45.359219 
L 71.018191 43.446404 
L 71.175597 43.728271 
L 71.490408 42.417071 
L 71.647814 43.544249 
L 72.120031 40.395757 
L 72.277437 41.435717 
L 72.592248 38.85265 
L 72.907059 39.951029 
L 73.221871 37.333135 
L 73.536682 38.476451 
L 73.851494 36.27892 
L 74.0089 37.799167 
L 74.323711 35.29793 
L 74.481117 35.70659 
L 74.795928 34.118448 
L 74.953334 34.337026 
L 75.268145 33.682106 
L 75.425551 34.752484 
L 75.740362 32.618948 
L 75.897768 33.72517 
L 76.055174 31.830142 
L 76.369985 33.093218 
L 76.684797 31.384367 
L 76.842202 31.245526 
L 77.157014 31.572516 
L 77.31442 30.632743 
L 77.629231 31.194678 
L 77.786637 28.88632 
L 77.944043 29.842679 
L 78.101448 28.511541 
L 78.41626 29.411667 
L 78.731071 27.88304 
L 78.888477 29.344984 
L 79.045883 29.038065 
L 79.203288 28.372746 
L 79.360694 28.822197 
L 79.5181 28.064792 
L 79.675505 28.144906 
L 79.832911 28.21363 
L 79.990317 27.995465 
L 80.147723 26.495461 
L 80.462534 28.534107 
L 80.61994 26.260603 
L 80.777345 26.630671 
L 80.934751 27.709963 
L 81.092157 27.436972 
L 81.249563 26.672793 
L 81.406968 27.556648 
L 81.564374 27.355151 
L 81.72178 27.515287 
L 82.036591 27.101796 
L 82.193997 26.151738 
L 82.351403 27.71139 
L 82.508808 26.663969 
L 82.82362 28.180458 
L 83.138431 26.677376 
L 83.295837 27.940507 
L 83.453243 26.750411 
L 83.610648 28.379551 
L 83.768054 28.168597 
L 84.082866 27.436018 
L 84.240271 27.721742 
L 84.397677 28.816589 
L 84.555083 27.858739 
L 84.869894 29.312233 
L 85.0273 29.766629 
L 85.184706 29.344637 
L 85.342111 28.323326 
L 85.499517 28.683038 
L 85.814329 30.291908 
L 86.12914 29.051248 
L 86.601357 31.928369 
L 86.758763 31.149073 
L 87.073574 32.404825 
L 87.23098 31.071933 
L 87.388386 31.23153 
L 87.545791 31.947356 
L 87.703197 33.78972 
L 87.860603 33.35593 
L 88.018009 32.277429 
L 88.175414 32.41173 
L 88.647632 34.329629 
L 88.962443 35.345066 
L 89.119849 35.13155 
L 89.277254 36.823287 
L 89.592066 35.832449 
L 89.749472 37.634341 
L 89.906877 37.551512 
L 90.221689 38.916263 
L 90.379094 38.904524 
L 90.5365 39.756137 
L 90.693906 38.306778 
L 91.008717 39.437978 
L 91.166123 39.124219 
L 91.323529 40.665738 
L 91.480934 40.634034 
L 91.63834 40.783938 
L 91.795746 42.662667 
L 91.953152 41.779789 
L 92.110557 42.081011 
L 92.267963 42.944102 
L 92.425369 42.512121 
L 92.582775 43.919179 
L 92.74018 43.481898 
L 93.527209 45.625271 
L 93.84202 47.421116 
L 93.999426 47.141608 
L 94.471643 49.694105 
L 94.629049 49.662784 
L 95.416077 52.768407 
L 95.573483 51.243464 
L 95.730889 53.098045 
L 95.888295 53.076759 
L 96.203106 54.719332 
L 96.360512 53.17031 
L 96.832729 56.014279 
L 97.462352 58.043074 
L 97.619758 56.548631 
L 97.934569 58.750027 
L 98.091975 58.156108 
L 98.24938 58.376076 
L 98.406786 60.821603 
L 98.564192 60.067749 
L 98.721598 61.502471 
L 99.036409 60.52328 
L 99.508626 61.930394 
L 99.666032 62.046791 
L 100.295655 64.562381 
L 100.453061 65.423032 
L 100.767872 64.684432 
L 100.925278 64.745004 
L 101.240089 67.294634 
L 101.397495 66.665927 
L 101.869712 68.350446 
L 102.027118 67.182125 
L 102.184523 68.873145 
L 102.499335 67.449463 
L 102.656741 67.967926 
L 102.971552 70.314138 
L 103.128958 69.377773 
L 103.601175 70.513112 
L 103.758581 69.513172 
L 103.915986 71.392887 
L 104.073392 70.022355 
L 104.230798 70.057476 
L 104.388204 70.328417 
L 104.703015 71.954406 
L 104.860421 70.796682 
L 105.017826 70.971069 
L 105.332638 73.023408 
L 105.490044 71.95612 
L 105.647449 72.647437 
L 105.804855 72.539401 
L 105.962261 72.367321 
L 106.119666 71.792281 
L 106.434478 73.182808 
L 106.591884 73.66081 
L 106.906695 73.069506 
L 107.064101 73.243573 
L 107.221507 74.17202 
L 107.378912 72.480879 
L 107.693724 74.562827 
L 107.851129 73.655617 
L 108.165941 74.484973 
L 108.638158 72.665644 
L 108.795564 73.043373 
L 108.952969 73.984839 
L 108.952969 73.984839 
" clip-path="url(#pdb3005d909)" style="fill: none; stroke: #cc3164; stroke-width: 1.5; stroke-linecap: square"/>
   </g>
   <g id="patch_3">
    <path d="M 26.480242 76.990015 
L 26.480242 23.591878 
" style="fill: none; stroke: #4d4f53; stroke-width: 0.8; stroke-linejoin: miter; stroke-linecap: square"/>
   </g>
   <g id="patch_4">
    <path d="M 112.880242 76.990015 
L 112.880242 23.591878 
" style="fill: none; stroke: #4d4f53; stroke-width: 0.8; stroke-linejoin: miter; stroke-linecap: square"/>
   </g>
   <g id="patch_5">
    <path d="M 26.480242 76.990015 
L 112.880242 76.990015 
" style="fill: none; stroke: #4d4f53; stroke-width: 0.8; stroke-linejoin: miter; stroke-linecap: square"/>
   </g>
   <g id="patch_6">
    <path d="M 26.480242 23.591878 
L 112.880242 23.591878 
" style="fill: none; stroke: #4d4f53; stroke-width: 0.8; stroke-linejoin: miter; stroke-linecap: square"/>
   </g>
   <g id="legend_1">
    <g id="patch_7">
     <path d="M 26.480242 23.591878 
L 112.880242 23.591878 
L 112.880242 7.2 
L 26.480242 7.2 
z
" style="fill: #ffffff; stroke: #4d4f53; stroke-width: 0.8; stroke-linejoin: miter"/>
    </g>
    <g id="text_6">
     <!-- title -->
     <g style="fill: #4d4f53" transform="translate(30.645242 17.694498) scale(0.0833 -0.0833)">
      <defs>
       <path id="DejaVuSans-74" d="M 1172 4494 
L 1172 3500 
L 2356 3500 
L 2356 3053 
L 1172 3053 
L 1172 1153 
Q 1172 725 1289 603 
Q 1406 481 1766 481 
L 2356 481 
L 2356 0 
L 1766 0 
Q 1100 0 847 248 
Q 594 497 594 1153 
L 594 3053 
L 172 3053 
L 172 3500 
L 594 3500 
L 594 4494 
L 1172 4494 
z
" transform="scale(0.015625)"/>
       <path id="DejaVuSans-69" d="M 603 3500 
L 1178 3500 
L 1178 0 
L 603 0 
L 603 3500 
z
M 603 4863 
L 1178 4863 
L 1178 4134 
L 603 4134 
L 603 4863 
z
" transform="scale(0.015625)"/>
       <path id="DejaVuSans-6c" d="M 603 4863 
L 1178 4863 
L 1178 0 
L 603 0 
L 603 4863 
z
" transform="scale(0.015625)"/>
       <path id="DejaVuSans-65" d="M 3597 1894 
L 3597 1613 
L 953 1613 
Q 991 1019 1311 708 
Q 1631 397 2203 397 
Q 2534 397 2845 478 
Q 3156 559 3463 722 
L 3463 178 
Q 3153 47 2828 -22 
Q 2503 -91 2169 -91 
Q 1331 -91 842 396 
Q 353 884 353 1716 
Q 353 2575 817 3079 
Q 1281 3584 2069 3584 
Q 2775 3584 3186 3129 
Q 3597 2675 3597 1894 
z
M 3022 2063 
Q 3016 2534 2758 2815 
Q 2500 3097 2075 3097 
Q 1594 3097 1305 2825 
Q 1016 2553 972 2059 
L 3022 2063 
z
" transform="scale(0.015625)"/>
      </defs>
      <use xlink:href="#DejaVuSans-74"/>
      <use xlink:href="#DejaVuSans-69" transform="translate(39.208984 0)"/>
      <use xlink:href="#DejaVuSans-74" transform="translate(66.992188 0)"/>
      <use xlink:href="#DejaVuSans-6c" transform="translate(106.201172 0)"/>
      <use xlink:href="#DejaVuSans-65" transform="translate(133.984375 0)"/>
     </g>
    </g>
    <g id="line2d_13">
     <path d="M 53.082717 14.778998 
L 58.913717 14.778998 
L 64.744717 14.778998 
" style="fill: none; stroke: #3362b0; stroke-width: 1.5; stroke-linecap: square"/>
    </g>
    <g id="text_7">
     <!-- $x_1$ -->
     <g style="fill: #4d4f53" transform="translate(68.909717 17.694498) scale(0.0833 -0.0833)">
      <defs>
       <path id="DejaVuSans-Oblique-78" d="M 3841 3500 
L 2234 1784 
L 3219 0 
L 2559 0 
L 1819 1388 
L 531 0 
L -166 0 
L 1556 1844 
L 641 3500 
L 1300 3500 
L 1972 2234 
L 3144 3500 
L 3841 3500 
z
" transform="scale(0.015625)"/>
      </defs>
      <use xlink:href="#DejaVuSans-Oblique-78" transform="translate(0 0.3125)"/>
      <use xlink:href="#DejaVuSans-31" transform="translate(59.179688 -16.09375) scale(0.7)"/>
     </g>
    </g>
    <g id="line2d_14">
     <path d="M 83.975142 14.778998 
L 89.806142 14.778998 
L 95.637142 14.778998 
" style="fill: none; stroke: #cc3164; stroke-width: 1.5; stroke-linecap: square"/>
    </g>
    <g id="text_8">
     <!-- $x_2$ -->
     <g style="fill: #4d4f53" transform="translate(99.802142 17.694498) scale(0.0833 -0.0833)">
      <defs>
       <path id="DejaVuSans-32" d="M 1228 531 
L 3431 531 
L 3431 0 
L 469 0 
L 469 531 
Q 828 903 1448 1529 
Q 2069 2156 2228 2338 
Q 2531 2678 2651 2914 
Q 2772 3150 2772 3378 
Q 2772 3750 2511 3984 
Q 2250 4219 1831 4219 
Q 1534 4219 1204 4116 
Q 875 4013 500 3803 
L 500 4441 
Q 881 4594 1212 4672 
Q 1544 4750 1819 4750 
Q 2544 4750 2975 4387 
Q 3406 4025 3406 3419 
Q 3406 3131 3298 2873 
Q 3191 2616 2906 2266 
Q 2828 2175 2409 1742 
Q 1991 1309 1228 531 
z
" transform="scale(0.015625)"/>
      </defs>
      <use xlink:href="#DejaVuSans-Oblique-78" transform="translate(0 0.3125)"/>
      <use xlink:href="#DejaVuSans-32" transform="translate(59.179688 -16.09375) scale(0.7)"/>
     </g>
    </g>
   </g>
  </g>
  <g id="axes_2">
   <g id="patch_8">
    <path d="M 134.480242 76.990015 
L 220.880242 76.990015 
L 220.880242 23.591878 
L 134.480242 23.591878 
L 134.480242 76.990015 
z
" style="fill: none"/>
   </g>
   <g id="matplotlib.axis_3">
    <g id="xtick_3">
     <g id="line2d_15">
      <path d="M 138.407515 76.990015 
L 138.407515 23.591878 
" clip-path="url(#p7b36c0ddee)" style="fill: none; stroke-dasharray: 2.96,1.28; stroke-dashoffset: 0; stroke: #dddfe5; stroke-width: 0.8"/>
     </g>
     <g id="line2d_16">
      <g>
       <use xlink:href="#m4af9826d57" x="138.407515" y="76.990015" style="fill: #4d4f53; stroke: #4d4f53; stroke-width: 0.8"/>
      </g>
     </g>
     <g id="text_9">
      <!-- 0 -->
      <g style="fill: #4d4f53" transform="translate(135.757534 90.319513) scale(0.0833 -0.0833)">
       <use xlink:href="#DejaVuSans-30"/>
      </g>
     </g>
    </g>
    <g id="xtick_4">
     <g id="line2d_17">
      <path d="M 180.077173 76.990015 
L 180.077173 23.591878 
" clip-path="url(#p7b36c0ddee)" style="fill: none; stroke-dasharray: 2.96,1.28; stroke-dashoffset: 0; stroke: #dddfe5; stroke-width: 0.8"/>
     </g>
     <g id="line2d_18">
      <g>
       <use xlink:href="#m4af9826d57" x="180.077173" y="76.990015" style="fill: #4d4f53; stroke: #4d4f53; stroke-width: 0.8"/>
      </g>
     </g>
     <g id="text_10">
      <!-- 5 -->
      <g style="fill: #4d4f53" transform="translate(177.427191 90.319513) scale(0.0833 -0.0833)">
       <use xlink:href="#DejaVuSans-35"/>
      </g>
     </g>
    </g>
   </g>
   <g id="matplotlib.axis_4">
    <g id="ytick_4">
     <g id="line2d_19">
      <path d="M 134.480242 74.584299 
L 220.880242 74.584299 
" clip-path="url(#p7b36c0ddee)" style="fill: none; stroke-dasharray: 2.96,1.28; stroke-dashoffset: 0; stroke: #dddfe5; stroke-width: 0.8"/>
     </g>
     <g id="line2d_20">
      <g>
       <use xlink:href="#maccf5a832a" x="134.480242" y="74.584299" style="fill: #4d4f53; stroke: #4d4f53; stroke-width: 0.8"/>
      </g>
     </g>
     <g id="text_11">
      <!-- −1 -->
      <g style="fill: #4d4f53" transform="translate(115.2 77.749048) scale(0.0833 -0.0833)">
       <use xlink:href="#DejaVuSans-2212"/>
       <use xlink:href="#DejaVuSans-31" transform="translate(83.789062 0)"/>
      </g>
     </g>
    </g>
    <g id="ytick_5">
     <g id="line2d_21">
      <path d="M 134.480242 51.453652 
L 220.880242 51.453652 
" clip-path="url(#p7b36c0ddee)" style="fill: none; stroke-dasharray: 2.96,1.28; stroke-dashoffset: 0; stroke: #dddfe5; stroke-width: 0.8"/>
     </g>
     <g id="line2d_22">
      <g>
       <use xlink:href="#maccf5a832a" x="134.480242" y="51.453652" style="fill: #4d4f53; stroke: #4d4f53; stroke-width: 0.8"/>
      </g>
     </g>
     <g id="text_12">
      <!-- 0 -->
      <g style="fill: #4d4f53" transform="translate(122.18028 54.618401) scale(0.0833 -0.0833)">
       <use xlink:href="#DejaVuSans-30"/>
      </g>
     </g>
    </g>
    <g id="ytick_6">
     <g id="line2d_23">
      <path d="M 134.480242 28.323005 
L 220.880242 28.323005 
" clip-path="url(#p7b36c0ddee)" style="fill: none; stroke-dasharray: 2.96,1.28; stroke-dashoffset: 0; stroke: #dddfe5; stroke-width: 0.8"/>
     </g>
     <g id="line2d_24">
      <g>
       <use xlink:href="#maccf5a832a" x="134.480242" y="28.323005" style="fill: #4d4f53; stroke: #4d4f53; stroke-width: 0.8"/>
      </g>
     </g>
     <g id="text_13">
      <!-- 1 -->
      <g style="fill: #4d4f53" transform="translate(122.18028 31.487755) scale(0.0833 -0.0833)">
       <use xlink:href="#DejaVuSans-31"/>
      </g>
     </g>
    </g>
   </g>
   <g id="line2d_25">
    <path d="M 138.407515 34.124716 
L 139.037138 32.154078 
L 139.194544 32.478504 
L 139.351949 30.564441 
L 139.509355 30.871583 
L 139.666761 32.051171 
L 139.981572 30.386965 
L 140.138978 31.323374 
L 140.296384 29.116621 
L 140.453789 30.152571 
L 140.768601 28.934998 
L 140.926006 29.744288 
L 141.240818 28.867015 
L 141.398224 28.290713 
L 141.555629 29.452859 
L 141.713035 29.066648 
L 141.870441 28.036612 
L 142.027846 28.292627 
L 142.185252 28.904629 
L 142.342658 28.239267 
L 142.500064 28.619299 
L 142.814875 26.949026 
L 142.972281 28.355071 
L 143.129687 26.486437 
L 143.287092 27.642277 
L 143.444498 27.39405 
L 143.601904 27.320827 
L 143.759309 28.414968 
L 144.074121 26.078379 
L 144.388932 28.040432 
L 144.703744 26.720261 
L 144.861149 28.324576 
L 145.018555 27.493048 
L 145.175961 28.235425 
L 145.333367 26.577657 
L 145.490772 27.634915 
L 145.648178 26.867691 
L 145.805584 27.413339 
L 145.96299 26.364348 
L 146.435207 27.552912 
L 146.592612 26.649156 
L 146.907424 29.141965 
L 147.06483 29.090716 
L 147.222235 27.25412 
L 147.379641 27.311595 
L 147.694452 29.072483 
L 147.851858 28.349564 
L 148.009264 30.164511 
L 148.16667 28.607617 
L 148.324075 28.995683 
L 148.481481 30.29887 
L 148.796292 29.035397 
L 148.953698 30.980548 
L 149.111104 29.469133 
L 149.26851 31.052013 
L 149.425915 30.416363 
L 149.583321 31.663046 
L 149.740727 31.324357 
L 149.898133 32.368691 
L 150.055538 31.958134 
L 150.37035 32.66599 
L 150.527755 32.030861 
L 150.685161 33.008171 
L 150.842567 32.767865 
L 150.999973 32.907128 
L 151.157378 34.233344 
L 151.314784 33.253207 
L 151.944407 35.575591 
L 152.101813 34.904557 
L 152.57403 37.491714 
L 152.731435 36.210068 
L 153.203653 38.955487 
L 153.361058 38.8838 
L 153.833276 40.74046 
L 153.990681 39.841034 
L 154.148087 41.75374 
L 154.305493 41.675752 
L 154.620304 40.863216 
L 154.935116 42.901065 
L 155.092521 42.282312 
L 155.249927 42.377446 
L 155.564738 44.611462 
L 155.722144 44.320474 
L 156.036956 46.715635 
L 156.194361 46.410601 
L 156.351767 46.527129 
L 156.509173 47.968414 
L 156.666578 46.396252 
L 157.611013 50.835744 
L 157.768419 51.012061 
L 157.925824 50.42183 
L 158.08323 51.323283 
L 158.240636 50.706449 
L 158.712853 53.745459 
L 159.027664 54.042339 
L 159.18507 55.296701 
L 159.342476 54.432629 
L 159.499881 56.196549 
L 159.657287 55.083891 
L 159.814693 55.655214 
L 159.972099 57.583894 
L 160.129504 56.25903 
L 160.28691 57.658722 
L 160.444316 57.061758 
L 160.916533 59.688528 
L 161.073939 58.532712 
L 161.231344 60.263975 
L 161.38875 59.565348 
L 161.546156 60.378169 
L 161.703562 59.989434 
L 162.175779 63.031595 
L 162.333184 61.381878 
L 162.647996 63.986259 
L 162.805402 63.126499 
L 163.120213 64.122064 
L 163.277619 63.64577 
L 163.435024 64.003965 
L 163.59243 65.810669 
L 163.749836 65.084616 
L 164.222053 67.571421 
L 164.379459 67.539851 
L 164.536865 66.835744 
L 164.69427 67.950735 
L 164.851676 67.878488 
L 165.009082 68.385584 
L 165.166487 68.3072 
L 165.323893 68.218822 
L 165.481299 67.802388 
L 165.638705 70.179729 
L 165.79611 69.220461 
L 165.953516 69.269378 
L 166.110922 70.622503 
L 166.268327 69.539096 
L 166.425733 70.567252 
L 166.583139 70.475785 
L 166.740545 70.530571 
L 166.89795 70.114648 
L 167.212762 70.995863 
L 167.527573 72.69645 
L 167.842385 71.312378 
L 167.99979 71.646257 
L 168.157196 72.958861 
L 168.314602 72.918389 
L 168.472008 73.17448 
L 168.786819 72.383686 
L 169.10163 73.445685 
L 169.416442 72.286058 
L 169.573848 73.059958 
L 169.731253 72.712287 
L 169.888659 73.43808 
L 170.20347 72.614314 
L 170.360876 74.510951 
L 170.518282 72.873576 
L 170.675688 72.921803 
L 170.990499 72.761218 
L 171.147905 72.398608 
L 171.462716 74.081844 
L 171.777528 72.140943 
L 172.092339 72.314249 
L 172.407151 74.147948 
L 172.721962 72.287791 
L 172.879368 72.243155 
L 173.036773 73.407463 
L 173.194179 73.377784 
L 173.351585 73.154233 
L 173.508991 71.486593 
L 173.823802 72.683662 
L 173.981208 71.479474 
L 174.138613 72.6863 
L 174.296019 72.383613 
L 174.453425 72.162195 
L 174.768236 70.608902 
L 174.925642 70.506458 
L 175.240454 69.683292 
L 175.555265 70.746562 
L 175.712671 69.552605 
L 175.870076 69.740291 
L 176.027482 69.593838 
L 176.499699 67.318911 
L 176.657105 68.089225 
L 176.971916 66.692395 
L 177.129322 67.365907 
L 177.444134 65.376109 
L 177.601539 66.852117 
L 177.916351 65.026238 
L 178.073756 66.053015 
L 178.388568 63.978428 
L 179.647814 60.84721 
L 179.805219 61.881104 
L 179.962625 60.474918 
L 180.120031 61.201408 
L 180.277437 59.32142 
L 180.434842 60.750358 
L 180.749654 59.973701 
L 181.064465 57.971329 
L 181.221871 58.724333 
L 181.379277 58.311305 
L 181.694088 55.8022 
L 181.851494 56.576119 
L 182.166305 54.307588 
L 182.323711 53.911256 
L 182.481117 54.118472 
L 182.953334 52.396663 
L 183.11074 52.729406 
L 183.582957 50.478235 
L 183.740362 51.118836 
L 183.897768 50.278599 
L 184.055174 50.609518 
L 184.684797 47.816737 
L 184.842202 48.761019 
L 184.999608 48.187469 
L 185.157014 46.255321 
L 185.31442 46.552169 
L 185.471825 44.90355 
L 185.629231 46.434665 
L 186.258854 42.760184 
L 186.41626 44.151964 
L 186.731071 42.28232 
L 186.888477 42.723193 
L 187.045883 42.847811 
L 187.203288 41.206276 
L 187.360694 41.71581 
L 187.5181 39.925784 
L 187.675505 40.476953 
L 187.832911 40.210366 
L 188.147723 38.749236 
L 188.305128 39.094105 
L 188.462534 37.709357 
L 188.61994 38.135596 
L 188.777345 36.932049 
L 188.934751 38.236995 
L 189.092157 35.877226 
L 189.249563 36.133977 
L 189.406968 36.234316 
L 189.564374 36.887573 
L 190.036591 33.795302 
L 190.351403 34.006364 
L 190.508808 34.036777 
L 190.666214 32.757693 
L 190.82362 33.048567 
L 190.981026 32.378791 
L 191.295837 33.271284 
L 191.453243 30.973425 
L 191.610648 32.920892 
L 191.92546 31.522361 
L 192.082866 31.682935 
L 192.240271 31.382592 
L 192.555083 30.127324 
L 192.712488 29.916087 
L 192.869894 29.346799 
L 193.0273 30.405948 
L 193.184706 28.640154 
L 193.342111 28.990098 
L 193.499517 30.230944 
L 193.656923 28.780499 
L 193.814329 29.121359 
L 193.971734 29.038662 
L 194.12914 29.223812 
L 194.443951 27.14336 
L 194.601357 28.633164 
L 194.758763 27.639525 
L 195.23098 28.598598 
L 195.388386 28.173365 
L 195.545791 26.666983 
L 195.703197 28.335212 
L 196.018009 26.830408 
L 196.33282 27.771904 
L 196.490226 26.176318 
L 196.647632 26.238976 
L 196.805037 26.91786 
L 197.119849 26.043258 
L 197.277254 26.304873 
L 197.43466 27.194255 
L 197.592066 26.503597 
L 197.749472 26.575059 
L 197.906877 28.048515 
L 198.064283 27.10575 
L 198.221689 28.343972 
L 198.379094 28.108892 
L 198.5365 28.382779 
L 198.851312 27.841471 
L 199.008717 28.304918 
L 199.323529 27.198328 
L 199.63834 29.337683 
L 199.795746 27.510353 
L 199.953152 28.971567 
L 200.267963 27.920228 
L 200.425369 28.375007 
L 200.582775 30.280527 
L 200.74018 29.679609 
L 200.897586 30.210697 
L 201.054992 29.515301 
L 201.212397 29.888081 
L 201.369803 29.287106 
L 201.527209 30.739147 
L 201.684615 29.941954 
L 202.156832 31.951757 
L 202.314237 31.234296 
L 202.471643 31.807325 
L 202.629049 31.151912 
L 202.94386 33.411726 
L 203.101266 32.641745 
L 203.258672 33.011461 
L 203.416077 32.714744 
L 203.573483 33.016825 
L 203.730889 34.876636 
L 203.888295 34.537476 
L 204.517918 36.910566 
L 204.675323 35.196335 
L 205.462352 37.6808 
L 205.619758 39.113984 
L 205.777163 37.862172 
L 205.934569 40.296683 
L 206.091975 39.309192 
L 206.24938 41.068891 
L 206.406786 39.302327 
L 207.193815 43.214997 
L 207.351221 42.062972 
L 207.666032 44.507475 
L 207.823438 44.436595 
L 207.980843 43.369131 
L 208.453061 46.353752 
L 208.610466 45.553739 
L 208.767872 47.453963 
L 208.925278 47.209958 
L 209.082683 46.649356 
L 209.240089 49.059236 
L 209.554901 47.697582 
L 209.712306 49.859201 
L 209.869712 49.121659 
L 210.184523 49.693348 
L 210.656741 52.829792 
L 210.814146 52.160217 
L 211.286364 53.492493 
L 211.601175 55.216553 
L 211.915986 54.168266 
L 212.545609 57.492063 
L 212.703015 56.435328 
L 213.175232 59.585174 
L 213.332638 59.05306 
L 213.490044 60.420283 
L 213.647449 59.439501 
L 213.804855 61.100849 
L 213.962261 60.724517 
L 214.119666 61.628042 
L 214.277072 60.273577 
L 214.434478 62.336146 
L 214.591884 61.989741 
L 214.749289 63.68255 
L 214.906695 62.670581 
L 215.378912 64.229417 
L 215.536318 63.454109 
L 215.693724 65.431075 
L 215.851129 64.590028 
L 216.008535 64.729708 
L 216.480752 65.877624 
L 216.795564 67.918594 
L 216.952969 66.30979 
L 216.952969 66.30979 
" clip-path="url(#p7b36c0ddee)" style="fill: none; stroke: #3362b0; stroke-width: 1.5; stroke-linecap: square"/>
   </g>
   <g id="line2d_26">
    <path d="M 138.407515 27.909739 
L 138.564921 26.569454 
L 138.722326 26.69414 
L 138.879732 28.099365 
L 139.037138 26.711135 
L 139.194544 28.058924 
L 139.351949 28.023642 
L 139.666761 27.947879 
L 139.824166 28.680005 
L 139.981572 28.26568 
L 140.138978 28.889668 
L 140.296384 28.731594 
L 140.453789 27.73203 
L 140.768601 29.77564 
L 140.926006 28.600137 
L 141.083412 29.792827 
L 141.398224 28.533601 
L 141.713035 30.851147 
L 141.870441 30.460576 
L 142.027846 30.737547 
L 142.342658 31.980218 
L 142.500064 30.810706 
L 142.657469 31.38239 
L 142.814875 30.754831 
L 143.129687 31.850977 
L 143.601904 34.20865 
L 143.759309 34.004112 
L 143.916715 33.485117 
L 144.074121 35.039007 
L 144.388932 34.121268 
L 144.546338 36.096994 
L 144.703744 34.460649 
L 145.648178 37.991173 
L 145.805584 37.390383 
L 145.96299 39.257076 
L 146.120395 37.531978 
L 146.435207 40.390705 
L 146.592612 40.503288 
L 146.750018 39.202392 
L 147.06483 41.393748 
L 147.222235 41.398956 
L 147.379641 42.675509 
L 147.537047 41.405022 
L 147.694452 42.92536 
L 147.851858 42.214891 
L 148.16667 44.724059 
L 148.324075 43.404814 
L 148.796292 46.022962 
L 148.953698 44.818987 
L 149.111104 46.323813 
L 149.26851 45.745866 
L 149.740727 47.972034 
L 149.898133 47.337593 
L 150.055538 49.901232 
L 150.212944 48.462217 
L 150.37035 50.802635 
L 150.527755 50.431895 
L 150.685161 50.464066 
L 151.629595 53.700359 
L 151.787001 52.76884 
L 151.944407 53.45844 
L 152.259218 55.908152 
L 152.416624 55.348508 
L 152.731435 56.68379 
L 153.046247 57.435016 
L 153.361058 56.813104 
L 153.833276 59.486939 
L 153.990681 59.857116 
L 154.148087 59.009792 
L 154.462898 61.733637 
L 154.620304 61.110121 
L 154.935116 62.843562 
L 155.092521 61.182902 
L 155.249927 62.721899 
L 155.407333 61.973334 
L 156.036956 65.390561 
L 156.194361 64.264474 
L 156.351767 65.556758 
L 156.509173 64.795631 
L 156.666578 66.204657 
L 156.823984 66.09489 
L 156.98139 66.094787 
L 157.138796 67.468245 
L 157.296201 66.717743 
L 157.453607 68.209421 
L 157.611013 67.940631 
L 157.768419 68.119388 
L 157.925824 68.778137 
L 158.08323 67.328007 
L 158.240636 69.727769 
L 158.398041 68.074341 
L 158.555447 68.91722 
L 158.712853 68.411212 
L 158.870259 69.526962 
L 159.027664 69.463496 
L 159.18507 69.354257 
L 159.342476 69.698231 
L 159.499881 71.313219 
L 159.657287 70.770968 
L 159.814693 71.395451 
L 159.972099 70.187712 
L 160.28691 71.519368 
L 160.444316 71.354365 
L 160.601722 72.754898 
L 160.759127 71.236229 
L 161.073939 73.286793 
L 161.38875 72.284722 
L 161.703562 73.782526 
L 161.860967 71.813445 
L 162.175779 73.86943 
L 162.333184 72.797911 
L 162.49059 74.091434 
L 162.647996 74.034685 
L 162.805402 74.19098 
L 163.120213 72.285812 
L 163.435024 74.280234 
L 163.59243 74.197579 
L 163.907242 72.982837 
L 164.064647 73.127592 
L 164.222053 74.469795 
L 164.379459 73.136794 
L 164.536865 74.35243 
L 164.69427 72.931685 
L 164.851676 73.554466 
L 165.009082 72.05655 
L 165.166487 72.178292 
L 165.323893 72.376164 
L 165.481299 72.113972 
L 165.953516 73.46314 
L 166.110922 72.436512 
L 166.268327 73.037773 
L 166.425733 71.504989 
L 166.583139 72.82981 
L 166.740545 72.73471 
L 167.055356 70.514833 
L 167.370167 71.980606 
L 167.527573 70.865166 
L 167.684979 71.582285 
L 167.842385 71.020038 
L 167.99979 69.354716 
L 168.157196 71.13386 
L 168.314602 70.951126 
L 168.472008 70.57339 
L 168.629413 69.516841 
L 168.786819 69.857168 
L 168.944225 67.983576 
L 169.10163 69.000499 
L 169.573848 67.646081 
L 169.731253 66.684012 
L 169.888659 68.064577 
L 170.20347 66.039535 
L 170.360876 65.786754 
L 170.518282 66.80229 
L 170.833093 65.156105 
L 170.990499 66.071949 
L 171.305311 63.771142 
L 171.462716 65.057496 
L 171.777528 63.044569 
L 171.934933 63.591669 
L 172.092339 63.542098 
L 172.407151 61.147877 
L 172.564556 61.250745 
L 172.721962 61.63948 
L 173.036773 61.085466 
L 173.194179 59.861238 
L 173.351585 60.355527 
L 173.823802 59.19772 
L 173.981208 57.461729 
L 174.138613 57.631406 
L 174.610831 55.66745 
L 174.768236 55.745309 
L 175.083048 53.824975 
L 175.240454 55.084454 
L 175.397859 54.662427 
L 175.870076 52.112208 
L 176.027482 51.556048 
L 176.342294 52.467484 
L 176.657105 49.646251 
L 177.601539 46.865858 
L 177.758945 47.618562 
L 177.916351 46.276196 
L 178.073756 47.201795 
L 178.388568 44.789801 
L 178.545974 45.68343 
L 178.703379 45.359219 
L 179.018191 43.446404 
L 179.175597 43.728271 
L 179.490408 42.417071 
L 179.647814 43.544249 
L 180.120031 40.395757 
L 180.277437 41.435717 
L 180.592248 38.85265 
L 180.907059 39.951029 
L 181.221871 37.333135 
L 181.536682 38.476451 
L 181.851494 36.27892 
L 182.0089 37.799167 
L 182.323711 35.29793 
L 182.481117 35.70659 
L 182.795928 34.118448 
L 182.953334 34.337026 
L 183.268145 33.682106 
L 183.425551 34.752484 
L 183.740362 32.618948 
L 183.897768 33.72517 
L 184.055174 31.830142 
L 184.369985 33.093218 
L 184.684797 31.384367 
L 184.842202 31.245526 
L 185.157014 31.572516 
L 185.31442 30.632743 
L 185.629231 31.194678 
L 185.786637 28.88632 
L 185.944043 29.842679 
L 186.101448 28.511541 
L 186.41626 29.411667 
L 186.731071 27.88304 
L 186.888477 29.344984 
L 187.045883 29.038065 
L 187.203288 28.372746 
L 187.360694 28.822197 
L 187.5181 28.064792 
L 187.675505 28.144906 
L 187.832911 28.21363 
L 187.990317 27.995465 
L 188.147723 26.495461 
L 188.462534 28.534107 
L 188.61994 26.260603 
L 188.777345 26.630671 
L 188.934751 27.709963 
L 189.092157 27.436972 
L 189.249563 26.672793 
L 189.406968 27.556648 
L 189.564374 27.355151 
L 189.72178 27.515287 
L 190.036591 27.101796 
L 190.193997 26.151738 
L 190.351403 27.71139 
L 190.508808 26.663969 
L 190.82362 28.180458 
L 191.138431 26.677376 
L 191.295837 27.940507 
L 191.453243 26.750411 
L 191.610648 28.379551 
L 191.768054 28.168597 
L 192.082866 27.436018 
L 192.240271 27.721742 
L 192.397677 28.816589 
L 192.555083 27.858739 
L 192.869894 29.312233 
L 193.0273 29.766629 
L 193.184706 29.344637 
L 193.342111 28.323326 
L 193.499517 28.683038 
L 193.814329 30.291908 
L 194.12914 29.051248 
L 194.601357 31.928369 
L 194.758763 31.149073 
L 195.073574 32.404825 
L 195.23098 31.071933 
L 195.388386 31.23153 
L 195.545791 31.947356 
L 195.703197 33.78972 
L 195.860603 33.35593 
L 196.018009 32.277429 
L 196.175414 32.41173 
L 196.647632 34.329629 
L 196.962443 35.345066 
L 197.119849 35.13155 
L 197.277254 36.823287 
L 197.592066 35.832449 
L 197.749472 37.634341 
L 197.906877 37.551512 
L 198.221689 38.916263 
L 198.379094 38.904524 
L 198.5365 39.756137 
L 198.693906 38.306778 
L 199.008717 39.437978 
L 199.166123 39.124219 
L 199.323529 40.665738 
L 199.480934 40.634034 
L 199.63834 40.783938 
L 199.795746 42.662667 
L 199.953152 41.779789 
L 200.110557 42.081011 
L 200.267963 42.944102 
L 200.425369 42.512121 
L 200.582775 43.919179 
L 200.74018 43.481898 
L 201.527209 45.625271 
L 201.84202 47.421116 
L 201.999426 47.141608 
L 202.471643 49.694105 
L 202.629049 49.662784 
L 203.416077 52.768407 
L 203.573483 51.243464 
L 203.730889 53.098045 
L 203.888295 53.076759 
L 204.203106 54.719332 
L 204.360512 53.17031 
L 204.832729 56.014279 
L 205.462352 58.043074 
L 205.619758 56.548631 
L 205.934569 58.750027 
L 206.091975 58.156108 
L 206.24938 58.376076 
L 206.406786 60.821603 
L 206.564192 60.067749 
L 206.721598 61.502471 
L 207.036409 60.52328 
L 207.508626 61.930394 
L 207.666032 62.046791 
L 208.295655 64.562381 
L 208.453061 65.423032 
L 208.767872 64.684432 
L 208.925278 64.745004 
L 209.240089 67.294634 
L 209.397495 66.665927 
L 209.869712 68.350446 
L 210.027118 67.182125 
L 210.184523 68.873145 
L 210.499335 67.449463 
L 210.656741 67.967926 
L 210.971552 70.314138 
L 211.128958 69.377773 
L 211.601175 70.513112 
L 211.758581 69.513172 
L 211.915986 71.392887 
L 212.073392 70.022355 
L 212.230798 70.057476 
L 212.388204 70.328417 
L 212.703015 71.954406 
L 212.860421 70.796682 
L 213.017826 70.971069 
L 213.332638 73.023408 
L 213.490044 71.95612 
L 213.647449 72.647437 
L 213.804855 72.539401 
L 213.962261 72.367321 
L 214.119666 71.792281 
L 214.434478 73.182808 
L 214.591884 73.66081 
L 214.906695 73.069506 
L 215.064101 73.243573 
L 215.221507 74.17202 
L 215.378912 72.480879 
L 215.693724 74.562827 
L 215.851129 73.655617 
L 216.165941 74.484973 
L 216.638158 72.665644 
L 216.795564 73.043373 
L 216.952969 73.984839 
L 216.952969 73.984839 
" clip-path="url(#p7b36c0ddee)" style="fill: none; stroke: #cc3164; stroke-width: 1.5; stroke-linecap: square"/>
   </g>
   <g id="patch_9">
    <path d="M 134.480242 76.990015 
L 134.480242 23.591878 
" style="fill: none; stroke: #4d4f53; stroke-width: 0.8; stroke-linejoin: miter; stroke-linecap: square"/>
   </g>
   <g id="patch_10">
    <path d="M 220.880242 76.990015 
L 220.880242 23.591878 
" style="fill: none; stroke: #4d4f53; stroke-width: 0.8; stroke-linejoin: miter; stroke-linecap: square"/>
   </g>
   <g id="patch_11">
    <path d="M 134.480242 76.990015 
L 220.880242 76.990015 
" style="fill: none; stroke: #4d4f53; stroke-width: 0.8; stroke-linejoin: miter; stroke-linecap: square"/>
   </g>
   <g id="patch_12">
    <path d="M 134.480242 23.591878 
L 220.880242 23.591878 
" style="fill: none; stroke: #4d4f53; stroke-width: 0.8; stroke-linejoin: miter; stroke-linecap: square"/>
   </g>
   <g id="legend_2">
    <g id="patch_13">
     <path d="M 187.810142 76.990015 
L 220.880242 76.990015 
L 220.880242 37.81038 
L 187.810142 37.81038 
z
" style="fill: #ffffff; stroke: #4d4f53; stroke-width: 0.8; stroke-linejoin: miter"/>
    </g>
    <g id="text_14">
     <!-- title -->
     <g style="fill: #4d4f53" transform="translate(196.202617 48.304879) scale(0.0833 -0.0833)">
      <use xlink:href="#DejaVuSans-74"/>
      <use xlink:href="#DejaVuSans-69" transform="translate(39.208984 0)"/>
      <use xlink:href="#DejaVuSans-74" transform="translate(66.992188 0)"/>
      <use xlink:href="#DejaVuSans-6c" transform="translate(106.201172 0)"/>
      <use xlink:href="#DejaVuSans-65" transform="translate(133.984375 0)"/>
     </g>
    </g>
    <g id="line2d_27">
     <path d="M 191.975142 56.783257 
L 197.806142 56.783257 
L 203.637142 56.783257 
" style="fill: none; stroke: #3362b0; stroke-width: 1.5; stroke-linecap: square"/>
    </g>
    <g id="text_15">
     <!-- $x_1$ -->
     <g style="fill: #4d4f53" transform="translate(207.802142 59.698757) scale(0.0833 -0.0833)">
      <use xlink:href="#DejaVuSans-Oblique-78" transform="translate(0 0.3125)"/>
      <use xlink:href="#DejaVuSans-31" transform="translate(59.179688 -16.09375) scale(0.7)"/>
     </g>
    </g>
    <g id="line2d_28">
     <path d="M 191.975142 68.177135 
L 197.806142 68.177135 
L 203.637142 68.177135 
" style="fill: none; stroke: #cc3164; stroke-width: 1.5; stroke-linecap: square"/>
    </g>
    <g id="text_16">
     <!-- $x_2$ -->
     <g style="fill: #4d4f53" transform="translate(207.802142 71.092635) scale(0.0833 -0.0833)">
      <use xlink:href="#DejaVuSans-Oblique-78" transform="translate(0 0.3125)"/>
      <use xlink:href="#DejaVuSans-32" transform="translate(59.179688 -16.09375) scale(0.7)"/>
     </g>
    </g>
   </g>
  </g>
  <g id="axes_3">
   <g id="patch_14">
    <path d="M 242.480242 76.990015 
L 328.880242 76.990015 
L 328.880242 23.591878 
L 242.480242 23.591878 
L 242.480242 76.990015 
z
" style="fill: none"/>
   </g>
   <g id="matplotlib.axis_5">
    <g id="xtick_5">
     <g id="line2d_29">
      <path d="M 246.407515 76.990015 
L 246.407515 23.591878 
" clip-path="url(#p0c7e4954d8)" style="fill: none; stroke-dasharray: 2.96,1.28; stroke-dashoffset: 0; stroke: #dddfe5; stroke-width: 0.8"/>
     </g>
     <g id="line2d_30">
      <g>
       <use xlink:href="#m4af9826d57" x="246.407515" y="76.990015" style="fill: #4d4f53; stroke: #4d4f53; stroke-width: 0.8"/>
      </g>
     </g>
     <g id="text_17">
      <!-- 0 -->
      <g style="fill: #4d4f53" transform="translate(243.757534 90.319513) scale(0.0833 -0.0833)">
       <use xlink:href="#DejaVuSans-30"/>
      </g>
     </g>
    </g>
    <g id="xtick_6">
     <g id="line2d_31">
      <path d="M 288.077173 76.990015 
L 288.077173 23.591878 
" clip-path="url(#p0c7e4954d8)" style="fill: none; stroke-dasharray: 2.96,1.28; stroke-dashoffset: 0; stroke: #dddfe5; stroke-width: 0.8"/>
     </g>
     <g id="line2d_32">
      <g>
       <use xlink:href="#m4af9826d57" x="288.077173" y="76.990015" style="fill: #4d4f53; stroke: #4d4f53; stroke-width: 0.8"/>
      </g>
     </g>
     <g id="text_18">
      <!-- 5 -->
      <g style="fill: #4d4f53" transform="translate(285.427191 90.319513) scale(0.0833 -0.0833)">
       <use xlink:href="#DejaVuSans-35"/>
      </g>
     </g>
    </g>
   </g>
   <g id="matplotlib.axis_6">
    <g id="ytick_7">
     <g id="line2d_33">
      <path d="M 242.480242 74.584299 
L 328.880242 74.584299 
" clip-path="url(#p0c7e4954d8)" style="fill: none; stroke-dasharray: 2.96,1.28; stroke-dashoffset: 0; stroke: #dddfe5; stroke-width: 0.8"/>
     </g>
     <g id="line2d_34">
      <g>
       <use xlink:href="#maccf5a832a" x="242.480242" y="74.584299" style="fill: #4d4f53; stroke: #4d4f53; stroke-width: 0.8"/>
      </g>
     </g>
     <g id="text_19">
      <!-- −1 -->
      <g style="fill: #4d4f53" transform="translate(223.2 77.749048) scale(0.0833 -0.0833)">
       <use xlink:href="#DejaVuSans-2212"/>
       <use xlink:href="#DejaVuSans-31" transform="translate(83.789062 0)"/>
      </g>
     </g>
    </g>
    <g id="ytick_8">
     <g id="line2d_35">
      <path d="M 242.480242 51.453652 
L 328.880242 51.453652 
" clip-path="url(#p0c7e4954d8)" style="fill: none; stroke-dasharray: 2.96,1.28; stroke-dashoffset: 0; stroke: #dddfe5; stroke-width: 0.8"/>
     </g>
     <g id="line2d_36">
      <g>
       <use xlink:href="#maccf5a832a" x="242.480242" y="51.453652" style="fill: #4d4f53; stroke: #4d4f53; stroke-width: 0.8"/>
      </g>
     </g>
     <g id="text_20">
      <!-- 0 -->
      <g style="fill: #4d4f53" transform="translate(230.18028 54.618401) scale(0.0833 -0.0833)">
       <use xlink:href="#DejaVuSans-30"/>
      </g>
     </g>
    </g>
    <g id="ytick_9">
     <g id="line2d_37">
      <path d="M 242.480242 28.323005 
L 328.880242 28.323005 
" clip-path="url(#p0c7e4954d8)" style="fill: none; stroke-dasharray: 2.96,1.28; stroke-dashoffset: 0; stroke: #dddfe5; stroke-width: 0.8"/>
     </g>
     <g id="line2d_38">
      <g>
       <use xlink:href="#maccf5a832a" x="242.480242" y="28.323005" style="fill: #4d4f53; stroke: #4d4f53; stroke-width: 0.8"/>
      </g>
     </g>
     <g id="text_21">
      <!-- 1 -->
      <g style="fill: #4d4f53" transform="translate(230.18028 31.487755) scale(0.0833 -0.0833)">
       <use xlink:href="#DejaVuSans-31"/>
      </g>
     </g>
    </g>
   </g>
   <g id="line2d_39">
    <path d="M 246.407515 34.124716 
L 247.037138 32.154078 
L 247.194544 32.478504 
L 247.351949 30.564441 
L 247.509355 30.871583 
L 247.666761 32.051171 
L 247.981572 30.386965 
L 248.138978 31.323374 
L 248.296384 29.116621 
L 248.453789 30.152571 
L 248.768601 28.934998 
L 248.926006 29.744288 
L 249.240818 28.867015 
L 249.398224 28.290713 
L 249.555629 29.452859 
L 249.713035 29.066648 
L 249.870441 28.036612 
L 250.027846 28.292627 
L 250.185252 28.904629 
L 250.342658 28.239267 
L 250.500064 28.619299 
L 250.814875 26.949026 
L 250.972281 28.355071 
L 251.129687 26.486437 
L 251.287092 27.642277 
L 251.444498 27.39405 
L 251.601904 27.320827 
L 251.759309 28.414968 
L 252.074121 26.078379 
L 252.388932 28.040432 
L 252.703744 26.720261 
L 252.861149 28.324576 
L 253.018555 27.493048 
L 253.175961 28.235425 
L 253.333367 26.577657 
L 253.490772 27.634915 
L 253.648178 26.867691 
L 253.805584 27.413339 
L 253.96299 26.364348 
L 254.435207 27.552912 
L 254.592612 26.649156 
L 254.907424 29.141965 
L 255.06483 29.090716 
L 255.222235 27.25412 
L 255.379641 27.311595 
L 255.694452 29.072483 
L 255.851858 28.349564 
L 256.009264 30.164511 
L 256.16667 28.607617 
L 256.324075 28.995683 
L 256.481481 30.29887 
L 256.796292 29.035397 
L 256.953698 30.980548 
L 257.111104 29.469133 
L 257.26851 31.052013 
L 257.425915 30.416363 
L 257.583321 31.663046 
L 257.740727 31.324357 
L 257.898133 32.368691 
L 258.055538 31.958134 
L 258.37035 32.66599 
L 258.527755 32.030861 
L 258.685161 33.008171 
L 258.842567 32.767865 
L 258.999973 32.907128 
L 259.157378 34.233344 
L 259.314784 33.253207 
L 259.944407 35.575591 
L 260.101813 34.904557 
L 260.57403 37.491714 
L 260.731435 36.210068 
L 261.203653 38.955487 
L 261.361058 38.8838 
L 261.833276 40.74046 
L 261.990681 39.841034 
L 262.148087 41.75374 
L 262.305493 41.675752 
L 262.620304 40.863216 
L 262.935116 42.901065 
L 263.092521 42.282312 
L 263.249927 42.377446 
L 263.564738 44.611462 
L 263.722144 44.320474 
L 264.036956 46.715635 
L 264.194361 46.410601 
L 264.351767 46.527129 
L 264.509173 47.968414 
L 264.666578 46.396252 
L 265.611013 50.835744 
L 265.768419 51.012061 
L 265.925824 50.42183 
L 266.08323 51.323283 
L 266.240636 50.706449 
L 266.712853 53.745459 
L 267.027664 54.042339 
L 267.18507 55.296701 
L 267.342476 54.432629 
L 267.499881 56.196549 
L 267.657287 55.083891 
L 267.814693 55.655214 
L 267.972099 57.583894 
L 268.129504 56.25903 
L 268.28691 57.658722 
L 268.444316 57.061758 
L 268.916533 59.688528 
L 269.073939 58.532712 
L 269.231344 60.263975 
L 269.38875 59.565348 
L 269.546156 60.378169 
L 269.703562 59.989434 
L 270.175779 63.031595 
L 270.333184 61.381878 
L 270.647996 63.986259 
L 270.805402 63.126499 
L 271.120213 64.122064 
L 271.277619 63.64577 
L 271.435024 64.003965 
L 271.59243 65.810669 
L 271.749836 65.084616 
L 272.222053 67.571421 
L 272.379459 67.539851 
L 272.536865 66.835744 
L 272.69427 67.950735 
L 272.851676 67.878488 
L 273.009082 68.385584 
L 273.166487 68.3072 
L 273.323893 68.218822 
L 273.481299 67.802388 
L 273.638705 70.179729 
L 273.79611 69.220461 
L 273.953516 69.269378 
L 274.110922 70.622503 
L 274.268327 69.539096 
L 274.425733 70.567252 
L 274.583139 70.475785 
L 274.740545 70.530571 
L 274.89795 70.114648 
L 275.212762 70.995863 
L 275.527573 72.69645 
L 275.842385 71.312378 
L 275.99979 71.646257 
L 276.157196 72.958861 
L 276.314602 72.918389 
L 276.472008 73.17448 
L 276.786819 72.383686 
L 277.10163 73.445685 
L 277.416442 72.286058 
L 277.573848 73.059958 
L 277.731253 72.712287 
L 277.888659 73.43808 
L 278.20347 72.614314 
L 278.360876 74.510951 
L 278.518282 72.873576 
L 278.675688 72.921803 
L 278.990499 72.761218 
L 279.147905 72.398608 
L 279.462716 74.081844 
L 279.777528 72.140943 
L 280.092339 72.314249 
L 280.407151 74.147948 
L 280.721962 72.287791 
L 280.879368 72.243155 
L 281.036773 73.407463 
L 281.194179 73.377784 
L 281.351585 73.154233 
L 281.508991 71.486593 
L 281.823802 72.683662 
L 281.981208 71.479474 
L 282.138613 72.6863 
L 282.296019 72.383613 
L 282.453425 72.162195 
L 282.768236 70.608902 
L 282.925642 70.506458 
L 283.240454 69.683292 
L 283.555265 70.746562 
L 283.712671 69.552605 
L 283.870076 69.740291 
L 284.027482 69.593838 
L 284.499699 67.318911 
L 284.657105 68.089225 
L 284.971916 66.692395 
L 285.129322 67.365907 
L 285.444134 65.376109 
L 285.601539 66.852117 
L 285.916351 65.026238 
L 286.073756 66.053015 
L 286.388568 63.978428 
L 287.647814 60.84721 
L 287.805219 61.881104 
L 287.962625 60.474918 
L 288.120031 61.201408 
L 288.277437 59.32142 
L 288.434842 60.750358 
L 288.749654 59.973701 
L 289.064465 57.971329 
L 289.221871 58.724333 
L 289.379277 58.311305 
L 289.694088 55.8022 
L 289.851494 56.576119 
L 290.166305 54.307588 
L 290.323711 53.911256 
L 290.481117 54.118472 
L 290.953334 52.396663 
L 291.11074 52.729406 
L 291.582957 50.478235 
L 291.740362 51.118836 
L 291.897768 50.278599 
L 292.055174 50.609518 
L 292.684797 47.816737 
L 292.842202 48.761019 
L 292.999608 48.187469 
L 293.157014 46.255321 
L 293.31442 46.552169 
L 293.471825 44.90355 
L 293.629231 46.434665 
L 294.258854 42.760184 
L 294.41626 44.151964 
L 294.731071 42.28232 
L 294.888477 42.723193 
L 295.045883 42.847811 
L 295.203288 41.206276 
L 295.360694 41.71581 
L 295.5181 39.925784 
L 295.675505 40.476953 
L 295.832911 40.210366 
L 296.147723 38.749236 
L 296.305128 39.094105 
L 296.462534 37.709357 
L 296.61994 38.135596 
L 296.777345 36.932049 
L 296.934751 38.236995 
L 297.092157 35.877226 
L 297.249563 36.133977 
L 297.406968 36.234316 
L 297.564374 36.887573 
L 298.036591 33.795302 
L 298.351403 34.006364 
L 298.508808 34.036777 
L 298.666214 32.757693 
L 298.82362 33.048567 
L 298.981026 32.378791 
L 299.295837 33.271284 
L 299.453243 30.973425 
L 299.610648 32.920892 
L 299.92546 31.522361 
L 300.082866 31.682935 
L 300.240271 31.382592 
L 300.555083 30.127324 
L 300.712488 29.916087 
L 300.869894 29.346799 
L 301.0273 30.405948 
L 301.184706 28.640154 
L 301.342111 28.990098 
L 301.499517 30.230944 
L 301.656923 28.780499 
L 301.814329 29.121359 
L 301.971734 29.038662 
L 302.12914 29.223812 
L 302.443951 27.14336 
L 302.601357 28.633164 
L 302.758763 27.639525 
L 303.23098 28.598598 
L 303.388386 28.173365 
L 303.545791 26.666983 
L 303.703197 28.335212 
L 304.018009 26.830408 
L 304.33282 27.771904 
L 304.490226 26.176318 
L 304.647632 26.238976 
L 304.805037 26.91786 
L 305.119849 26.043258 
L 305.277254 26.304873 
L 305.43466 27.194255 
L 305.592066 26.503597 
L 305.749472 26.575059 
L 305.906877 28.048515 
L 306.064283 27.10575 
L 306.221689 28.343972 
L 306.379094 28.108892 
L 306.5365 28.382779 
L 306.851312 27.841471 
L 307.008717 28.304918 
L 307.323529 27.198328 
L 307.63834 29.337683 
L 307.795746 27.510353 
L 307.953152 28.971567 
L 308.267963 27.920228 
L 308.425369 28.375007 
L 308.582775 30.280527 
L 308.74018 29.679609 
L 308.897586 30.210697 
L 309.054992 29.515301 
L 309.212397 29.888081 
L 309.369803 29.287106 
L 309.527209 30.739147 
L 309.684615 29.941954 
L 310.156832 31.951757 
L 310.314237 31.234296 
L 310.471643 31.807325 
L 310.629049 31.151912 
L 310.94386 33.411726 
L 311.101266 32.641745 
L 311.258672 33.011461 
L 311.416077 32.714744 
L 311.573483 33.016825 
L 311.730889 34.876636 
L 311.888295 34.537476 
L 312.517918 36.910566 
L 312.675323 35.196335 
L 313.462352 37.6808 
L 313.619758 39.113984 
L 313.777163 37.862172 
L 313.934569 40.296683 
L 314.091975 39.309192 
L 314.24938 41.068891 
L 314.406786 39.302327 
L 315.193815 43.214997 
L 315.351221 42.062972 
L 315.666032 44.507475 
L 315.823438 44.436595 
L 315.980843 43.369131 
L 316.453061 46.353752 
L 316.610466 45.553739 
L 316.767872 47.453963 
L 316.925278 47.209958 
L 317.082683 46.649356 
L 317.240089 49.059236 
L 317.554901 47.697582 
L 317.712306 49.859201 
L 317.869712 49.121659 
L 318.184523 49.693348 
L 318.656741 52.829792 
L 318.814146 52.160217 
L 319.286364 53.492493 
L 319.601175 55.216553 
L 319.915986 54.168266 
L 320.545609 57.492063 
L 320.703015 56.435328 
L 321.175232 59.585174 
L 321.332638 59.05306 
L 321.490044 60.420283 
L 321.647449 59.439501 
L 321.804855 61.100849 
L 321.962261 60.724517 
L 322.119666 61.628042 
L 322.277072 60.273577 
L 322.434478 62.336146 
L 322.591884 61.989741 
L 322.749289 63.68255 
L 322.906695 62.670581 
L 323.378912 64.229417 
L 323.536318 63.454109 
L 323.693724 65.431075 
L 323.851129 64.590028 
L 324.008535 64.729708 
L 324.480752 65.877624 
L 324.795564 67.918594 
L 324.952969 66.30979 
L 324.952969 66.30979 
" clip-path="url(#p0c7e4954d8)" style="fill: none; stroke: #3362b0; stroke-width: 1.5; stroke-linecap: square"/>
   </g>
   <g id="line2d_40">
    <path d="M 246.407515 27.909739 
L 246.564921 26.569454 
L 246.722326 26.69414 
L 246.879732 28.099365 
L 247.037138 26.711135 
L 247.194544 28.058924 
L 247.351949 28.023642 
L 247.666761 27.947879 
L 247.824166 28.680005 
L 247.981572 28.26568 
L 248.138978 28.889668 
L 248.296384 28.731594 
L 248.453789 27.73203 
L 248.768601 29.77564 
L 248.926006 28.600137 
L 249.083412 29.792827 
L 249.398224 28.533601 
L 249.713035 30.851147 
L 249.870441 30.460576 
L 250.027846 30.737547 
L 250.342658 31.980218 
L 250.500064 30.810706 
L 250.657469 31.38239 
L 250.814875 30.754831 
L 251.129687 31.850977 
L 251.601904 34.20865 
L 251.759309 34.004112 
L 251.916715 33.485117 
L 252.074121 35.039007 
L 252.388932 34.121268 
L 252.546338 36.096994 
L 252.703744 34.460649 
L 253.648178 37.991173 
L 253.805584 37.390383 
L 253.96299 39.257076 
L 254.120395 37.531978 
L 254.435207 40.390705 
L 254.592612 40.503288 
L 254.750018 39.202392 
L 255.06483 41.393748 
L 255.222235 41.398956 
L 255.379641 42.675509 
L 255.537047 41.405022 
L 255.694452 42.92536 
L 255.851858 42.214891 
L 256.16667 44.724059 
L 256.324075 43.404814 
L 256.796292 46.022962 
L 256.953698 44.818987 
L 257.111104 46.323813 
L 257.26851 45.745866 
L 257.740727 47.972034 
L 257.898133 47.337593 
L 258.055538 49.901232 
L 258.212944 48.462217 
L 258.37035 50.802635 
L 258.527755 50.431895 
L 258.685161 50.464066 
L 259.629595 53.700359 
L 259.787001 52.76884 
L 259.944407 53.45844 
L 260.259218 55.908152 
L 260.416624 55.348508 
L 260.731435 56.68379 
L 261.046247 57.435016 
L 261.361058 56.813104 
L 261.833276 59.486939 
L 261.990681 59.857116 
L 262.148087 59.009792 
L 262.462898 61.733637 
L 262.620304 61.110121 
L 262.935116 62.843562 
L 263.092521 61.182902 
L 263.249927 62.721899 
L 263.407333 61.973334 
L 264.036956 65.390561 
L 264.194361 64.264474 
L 264.351767 65.556758 
L 264.509173 64.795631 
L 264.666578 66.204657 
L 264.823984 66.09489 
L 264.98139 66.094787 
L 265.138796 67.468245 
L 265.296201 66.717743 
L 265.453607 68.209421 
L 265.611013 67.940631 
L 265.768419 68.119388 
L 265.925824 68.778137 
L 266.08323 67.328007 
L 266.240636 69.727769 
L 266.398041 68.074341 
L 266.555447 68.91722 
L 266.712853 68.411212 
L 266.870259 69.526962 
L 267.027664 69.463496 
L 267.18507 69.354257 
L 267.342476 69.698231 
L 267.499881 71.313219 
L 267.657287 70.770968 
L 267.814693 71.395451 
L 267.972099 70.187712 
L 268.28691 71.519368 
L 268.444316 71.354365 
L 268.601722 72.754898 
L 268.759127 71.236229 
L 269.073939 73.286793 
L 269.38875 72.284722 
L 269.703562 73.782526 
L 269.860967 71.813445 
L 270.175779 73.86943 
L 270.333184 72.797911 
L 270.49059 74.091434 
L 270.647996 74.034685 
L 270.805402 74.19098 
L 271.120213 72.285812 
L 271.435024 74.280234 
L 271.59243 74.197579 
L 271.907242 72.982837 
L 272.064647 73.127592 
L 272.222053 74.469795 
L 272.379459 73.136794 
L 272.536865 74.35243 
L 272.69427 72.931685 
L 272.851676 73.554466 
L 273.009082 72.05655 
L 273.166487 72.178292 
L 273.323893 72.376164 
L 273.481299 72.113972 
L 273.953516 73.46314 
L 274.110922 72.436512 
L 274.268327 73.037773 
L 274.425733 71.504989 
L 274.583139 72.82981 
L 274.740545 72.73471 
L 275.055356 70.514833 
L 275.370167 71.980606 
L 275.527573 70.865166 
L 275.684979 71.582285 
L 275.842385 71.020038 
L 275.99979 69.354716 
L 276.157196 71.13386 
L 276.314602 70.951126 
L 276.472008 70.57339 
L 276.629413 69.516841 
L 276.786819 69.857168 
L 276.944225 67.983576 
L 277.10163 69.000499 
L 277.573848 67.646081 
L 277.731253 66.684012 
L 277.888659 68.064577 
L 278.20347 66.039535 
L 278.360876 65.786754 
L 278.518282 66.80229 
L 278.833093 65.156105 
L 278.990499 66.071949 
L 279.305311 63.771142 
L 279.462716 65.057496 
L 279.777528 63.044569 
L 279.934933 63.591669 
L 280.092339 63.542098 
L 280.407151 61.147877 
L 280.564556 61.250745 
L 280.721962 61.63948 
L 281.036773 61.085466 
L 281.194179 59.861238 
L 281.351585 60.355527 
L 281.823802 59.19772 
L 281.981208 57.461729 
L 282.138613 57.631406 
L 282.610831 55.66745 
L 282.768236 55.745309 
L 283.083048 53.824975 
L 283.240454 55.084454 
L 283.397859 54.662427 
L 283.870076 52.112208 
L 284.027482 51.556048 
L 284.342294 52.467484 
L 284.657105 49.646251 
L 285.601539 46.865858 
L 285.758945 47.618562 
L 285.916351 46.276196 
L 286.073756 47.201795 
L 286.388568 44.789801 
L 286.545974 45.68343 
L 286.703379 45.359219 
L 287.018191 43.446404 
L 287.175597 43.728271 
L 287.490408 42.417071 
L 287.647814 43.544249 
L 288.120031 40.395757 
L 288.277437 41.435717 
L 288.592248 38.85265 
L 288.907059 39.951029 
L 289.221871 37.333135 
L 289.536682 38.476451 
L 289.851494 36.27892 
L 290.0089 37.799167 
L 290.323711 35.29793 
L 290.481117 35.70659 
L 290.795928 34.118448 
L 290.953334 34.337026 
L 291.268145 33.682106 
L 291.425551 34.752484 
L 291.740362 32.618948 
L 291.897768 33.72517 
L 292.055174 31.830142 
L 292.369985 33.093218 
L 292.684797 31.384367 
L 292.842202 31.245526 
L 293.157014 31.572516 
L 293.31442 30.632743 
L 293.629231 31.194678 
L 293.786637 28.88632 
L 293.944043 29.842679 
L 294.101448 28.511541 
L 294.41626 29.411667 
L 294.731071 27.88304 
L 294.888477 29.344984 
L 295.045883 29.038065 
L 295.203288 28.372746 
L 295.360694 28.822197 
L 295.5181 28.064792 
L 295.675505 28.144906 
L 295.832911 28.21363 
L 295.990317 27.995465 
L 296.147723 26.495461 
L 296.462534 28.534107 
L 296.61994 26.260603 
L 296.777345 26.630671 
L 296.934751 27.709963 
L 297.092157 27.436972 
L 297.249563 26.672793 
L 297.406968 27.556648 
L 297.564374 27.355151 
L 297.72178 27.515287 
L 298.036591 27.101796 
L 298.193997 26.151738 
L 298.351403 27.71139 
L 298.508808 26.663969 
L 298.82362 28.180458 
L 299.138431 26.677376 
L 299.295837 27.940507 
L 299.453243 26.750411 
L 299.610648 28.379551 
L 299.768054 28.168597 
L 300.082866 27.436018 
L 300.240271 27.721742 
L 300.397677 28.816589 
L 300.555083 27.858739 
L 300.869894 29.312233 
L 301.0273 29.766629 
L 301.184706 29.344637 
L 301.342111 28.323326 
L 301.499517 28.683038 
L 301.814329 30.291908 
L 302.12914 29.051248 
L 302.601357 31.928369 
L 302.758763 31.149073 
L 303.073574 32.404825 
L 303.23098 31.071933 
L 303.388386 31.23153 
L 303.545791 31.947356 
L 303.703197 33.78972 
L 303.860603 33.35593 
L 304.018009 32.277429 
L 304.175414 32.41173 
L 304.647632 34.329629 
L 304.962443 35.345066 
L 305.119849 35.13155 
L 305.277254 36.823287 
L 305.592066 35.832449 
L 305.749472 37.634341 
L 305.906877 37.551512 
L 306.221689 38.916263 
L 306.379094 38.904524 
L 306.5365 39.756137 
L 306.693906 38.306778 
L 307.008717 39.437978 
L 307.166123 39.124219 
L 307.323529 40.665738 
L 307.480934 40.634034 
L 307.63834 40.783938 
L 307.795746 42.662667 
L 307.953152 41.779789 
L 308.110557 42.081011 
L 308.267963 42.944102 
L 308.425369 42.512121 
L 308.582775 43.919179 
L 308.74018 43.481898 
L 309.527209 45.625271 
L 309.84202 47.421116 
L 309.999426 47.141608 
L 310.471643 49.694105 
L 310.629049 49.662784 
L 311.416077 52.768407 
L 311.573483 51.243464 
L 311.730889 53.098045 
L 311.888295 53.076759 
L 312.203106 54.719332 
L 312.360512 53.17031 
L 312.832729 56.014279 
L 313.462352 58.043074 
L 313.619758 56.548631 
L 313.934569 58.750027 
L 314.091975 58.156108 
L 314.24938 58.376076 
L 314.406786 60.821603 
L 314.564192 60.067749 
L 314.721598 61.502471 
L 315.036409 60.52328 
L 315.508626 61.930394 
L 315.666032 62.046791 
L 316.295655 64.562381 
L 316.453061 65.423032 
L 316.767872 64.684432 
L 316.925278 64.745004 
L 317.240089 67.294634 
L 317.397495 66.665927 
L 317.869712 68.350446 
L 318.027118 67.182125 
L 318.184523 68.873145 
L 318.499335 67.449463 
L 318.656741 67.967926 
L 318.971552 70.314138 
L 319.128958 69.377773 
L 319.601175 70.513112 
L 319.758581 69.513172 
L 319.915986 71.392887 
L 320.073392 70.022355 
L 320.230798 70.057476 
L 320.388204 70.328417 
L 320.703015 71.954406 
L 320.860421 70.796682 
L 321.017826 70.971069 
L 321.332638 73.023408 
L 321.490044 71.95612 
L 321.647449 72.647437 
L 321.804855 72.539401 
L 321.962261 72.367321 
L 322.119666 71.792281 
L 322.434478 73.182808 
L 322.591884 73.66081 
L 322.906695 73.069506 
L 323.064101 73.243573 
L 323.221507 74.17202 
L 323.378912 72.480879 
L 323.693724 74.562827 
L 323.851129 73.655617 
L 324.165941 74.484973 
L 324.638158 72.665644 
L 324.795564 73.043373 
L 324.952969 73.984839 
L 324.952969 73.984839 
" clip-path="url(#p0c7e4954d8)" style="fill: none; stroke: #cc3164; stroke-width: 1.5; stroke-linecap: square"/>
   </g>
   <g id="patch_15">
    <path d="M 242.480242 76.990015 
L 242.480242 23.591878 
" style="fill: none; stroke: #4d4f53; stroke-width: 0.8; stroke-linejoin: miter; stroke-linecap: square"/>
   </g>
   <g id="patch_16">
    <path d="M 328.880242 76.990015 
L 328.880242 23.591878 
" style="fill: none; stroke: #4d4f53; stroke-width: 0.8; stroke-linejoin: miter; stroke-linecap: square"/>
   </g>
   <g id="patch_17">
    <path d="M 242.480242 76.990015 
L 328.880242 76.990015 
" style="fill: none; stroke: #4d4f53; stroke-width: 0.8; stroke-linejoin: miter; stroke-linecap: square"/>
   </g>
   <g id="patch_18">
    <path d="M 242.480242 23.591878 
L 328.880242 23.591878 
" style="fill: none; stroke: #4d4f53; stroke-width: 0.8; stroke-linejoin: miter; stroke-linecap: square"/>
   </g>
   <g id="legend_3">
    <g id="patch_19">
     <path d="M 331.472242 69.880764 
L 364.542342 69.880764 
L 364.542342 30.701129 
L 331.472242 30.701129 
z
" style="fill: #ffffff; stroke: #4d4f53; stroke-width: 0.8; stroke-linejoin: miter"/>
    </g>
    <g id="text_22">
     <!-- title -->
     <g style="fill: #4d4f53" transform="translate(339.864717 41.195628) scale(0.0833 -0.0833)">
      <use xlink:href="#DejaVuSans-74"/>
      <use xlink:href="#DejaVuSans-69" transform="translate(39.208984 0)"/>
      <use xlink:href="#DejaVuSans-74" transform="translate(66.992188 0)"/>
      <use xlink:href="#DejaVuSans-6c" transform="translate(106.201172 0)"/>
      <use xlink:href="#DejaVuSans-65" transform="translate(133.984375 0)"/>
     </g>
    </g>
    <g id="line2d_41">
     <path d="M 335.637242 49.674006 
L 341.468242 49.674006 
L 347.299242 49.674006 
" style="fill: none; stroke: #3362b0; stroke-width: 1.5; stroke-linecap: square"/>
    </g>
    <g id="text_23">
     <!-- $x_1$ -->
     <g style="fill: #4d4f53" transform="translate(351.464242 52.589506) scale(0.0833 -0.0833)">
      <use xlink:href="#DejaVuSans-Oblique-78" transform="translate(0 0.3125)"/>
      <use xlink:href="#DejaVuSans-31" transform="translate(59.179688 -16.09375) scale(0.7)"/>
     </g>
    </g>
    <g id="line2d_42">
     <path d="M 335.637242 61.067884 
L 341.468242 61.067884 
L 347.299242 61.067884 
" style="fill: none; stroke: #cc3164; stroke-width: 1.5; stroke-linecap: square"/>
    </g>
    <g id="text_24">
     <!-- $x_2$ -->
     <g style="fill: #4d4f53" transform="translate(351.464242 63.983384) scale(0.0833 -0.0833)">
      <use xlink:href="#DejaVuSans-Oblique-78" transform="translate(0 0.3125)"/>
      <use xlink:href="#DejaVuSans-32" transform="translate(59.179688 -16.09375) scale(0.7)"/>
     </g>
    </g>
   </g>
  </g>
 </g>
 <defs>
  <clipPath id="pdb3005d909">
   <rect x="26.480242" y="23.591878" width="86.4" height="53.398137"/>
  </clipPath>
  <clipPath id="p7b36c0ddee">
   <rect x="134.480242" y="23.591878" width="86.4" height="53.398137"/>
  </clipPath>
  <clipPath id="p0c7e4954d8">
   <rect x="242.480242" y="23.591878" width="86.4" height="53.398137"/>
  </clipPath>
 </defs>
</svg>
