<?xml version="1.0" encoding="utf-8" standalone="no"?>
<!DOCTYPE svg PUBLIC "-//W3C//DTD SVG 1.1//EN"
  "http://www.w3.org/Graphics/SVG/1.1/DTD/svg11.dtd">
<svg xmlns:xlink="http://www.w3.org/1999/xlink" width="134.480242pt" height="108.688477pt" viewBox="0 0 134.480242 108.688477" xmlns="http://www.w3.org/2000/svg" version="1.1">
 <metadata>
  <rdf:RDF xmlns:dc="http://purl.org/dc/elements/1.1/" xmlns:cc="http://creativecommons.org/ns#" xmlns:rdf="http://www.w3.org/1999/02/22-rdf-syntax-ns#">
   <cc:Work>
    <dc:type rdf:resource="http://purl.org/dc/dcmitype/StillImage"/>
    <dc:date>2026-06-19T12:25:03.520267</dc:date>
    <dc:format>image/svg+xml</dc:format>
    <dc:creator>
     <cc:Agent>
      <dc:title>Matplotlib v3.11.0, https://matplotlib.org/</dc:title>
     </cc:Agent>
    </dc:creator>
   </cc:Work>
  </rdf:RDF>
 </metadata>
 <defs>
  <style type="text/css">*{stroke-linejoin: round; stroke-linecap: butt}</style>
 </defs>
 <g id="figure_1">
  <g id="patch_1">
   <path d="M -0 108.688477 
L 134.480242 108.688477 
L 134.480242 -0 
L -0 -0 
L -0 108.688477 
z
" style="fill: none"/>
  </g>
  <g id="axes_1">
   <g id="patch_2">
    <path d="M 26.480242 86.158477 
L 127.280242 86.158477 
L 127.280242 23.860651 
L 26.480242 23.860651 
L 26.480242 86.158477 
z
" style="fill: none"/>
   </g>
   <g id="matplotlib.axis_1">
    <g id="xtick_1">
     <g id="line2d_1">
      <path d="M 31.06206 86.158477 
L 31.06206 23.860651 
" clip-path="url(#pb2e4f3f5bb)" style="fill: none; stroke-dasharray: 2.96,1.28; stroke-dashoffset: 0; stroke: #dddfe5; stroke-width: 0.8"/>
     </g>
     <g id="line2d_2">
      <defs>
       <path id="ma723871e53" d="M 0 0 
L 0 3.5 
" style="stroke: #4d4f53; stroke-width: 0.8"/>
      </defs>
      <g>
       <use xlink:href="#ma723871e53" x="31.06206" y="86.158477" style="fill: #4d4f53; stroke: #4d4f53; stroke-width: 0.8"/>
      </g>
     </g>
     <g id="text_1">
      <!-- 0 -->
      <g style="fill: #4d4f53" transform="translate(28.412079 99.487325) scale(0.0833 -0.0833)">
       <defs>
        <path id="DejaVuSans-13" d="M 2034 4250 
Q 1547 4250 1301 3770 
Q 1056 3291 1056 2328 
Q 1056 1369 1301 889 
Q 1547 409 2034 409 
Q 2525 409 2770 889 
Q 3016 1369 3016 2328 
Q 3016 3291 2770 3770 
Q 2525 4250 2034 4250 
z
M 2034 4750 
Q 2819 4750 3233 4129 
Q 3647 3509 3647 2328 
Q 3647 1150 3233 529 
Q 2819 -91 2034 -91 
Q 1250 -91 836 529 
Q 422 1150 422 2328 
Q 422 3509 836 4129 
Q 1250 4750 2034 4750 
z
" transform="scale(0.015625)"/>
       </defs>
       <use xlink:href="#DejaVuSans-13"/>
      </g>
     </g>
    </g>
    <g id="xtick_2">
     <g id="line2d_3">
      <path d="M 79.676661 86.158477 
L 79.676661 23.860651 
" clip-path="url(#pb2e4f3f5bb)" style="fill: none; stroke-dasharray: 2.96,1.28; stroke-dashoffset: 0; stroke: #dddfe5; stroke-width: 0.8"/>
     </g>
     <g id="line2d_4">
      <g>
       <use xlink:href="#ma723871e53" x="79.676661" y="86.158477" style="fill: #4d4f53; stroke: #4d4f53; stroke-width: 0.8"/>
      </g>
     </g>
     <g id="text_2">
      <!-- 5 -->
      <g style="fill: #4d4f53" transform="translate(77.02668 99.487325) scale(0.0833 -0.0833)">
       <defs>
        <path id="DejaVuSans-18" d="M 691 4666 
L 3169 4666 
L 3169 4134 
L 1269 4134 
L 1269 2991 
Q 1406 3038 1543 3061 
Q 1681 3084 1819 3084 
Q 2600 3084 3056 2656 
Q 3513 2228 3513 1497 
Q 3513 744 3044 326 
Q 2575 -91 1722 -91 
Q 1428 -91 1123 -41 
Q 819 9 494 109 
L 494 744 
Q 775 591 1075 516 
Q 1375 441 1709 441 
Q 2250 441 2565 725 
Q 2881 1009 2881 1497 
Q 2881 1984 2565 2268 
Q 2250 2553 1709 2553 
Q 1456 2553 1204 2497 
Q 953 2441 691 2322 
L 691 4666 
z
" transform="scale(0.015625)"/>
       </defs>
       <use xlink:href="#DejaVuSans-18"/>
      </g>
     </g>
    </g>
   </g>
   <g id="matplotlib.axis_2">
    <g id="ytick_1">
     <g id="line2d_5">
      <path d="M 26.480242 83.351808 
L 127.280242 83.351808 
" clip-path="url(#pb2e4f3f5bb)" style="fill: none; stroke-dasharray: 2.96,1.28; stroke-dashoffset: 0; stroke: #dddfe5; stroke-width: 0.8"/>
     </g>
     <g id="line2d_6">
      <defs>
       <path id="m84246bf9a7" d="M 0 0 
L -3.5 0 
" style="stroke: #4d4f53; stroke-width: 0.8"/>
      </defs>
      <g>
       <use xlink:href="#m84246bf9a7" x="26.480242" y="83.351808" style="fill: #4d4f53; stroke: #4d4f53; stroke-width: 0.8"/>
      </g>
     </g>
     <g id="text_3">
      <!-- −1 -->
      <g style="fill: #4d4f53" transform="translate(7.2 86.516232) scale(0.0833 -0.0833)">
       <defs>
        <path id="DejaVuSans-c9c" d="M 678 2272 
L 4684 2272 
L 4684 1741 
L 678 1741 
L 678 2272 
z
" transform="scale(0.015625)"/>
        <path id="DejaVuSans-14" d="M 794 531 
L 1825 531 
L 1825 4091 
L 703 3866 
L 703 4441 
L 1819 4666 
L 2450 4666 
L 2450 531 
L 3481 531 
L 3481 0 
L 794 0 
L 794 531 
z
" transform="scale(0.015625)"/>
       </defs>
       <use xlink:href="#DejaVuSans-c9c"/>
       <use xlink:href="#DejaVuSans-14" transform="translate(83.796875 0)"/>
      </g>
     </g>
    </g>
    <g id="ytick_2">
     <g id="line2d_7">
      <path d="M 26.480242 56.366054 
L 127.280242 56.366054 
" clip-path="url(#pb2e4f3f5bb)" style="fill: none; stroke-dasharray: 2.96,1.28; stroke-dashoffset: 0; stroke: #dddfe5; stroke-width: 0.8"/>
     </g>
     <g id="line2d_8">
      <g>
       <use xlink:href="#m84246bf9a7" x="26.480242" y="56.366054" style="fill: #4d4f53; stroke: #4d4f53; stroke-width: 0.8"/>
      </g>
     </g>
     <g id="text_4">
      <!-- 0 -->
      <g style="fill: #4d4f53" transform="translate(14.18028 59.530478) scale(0.0833 -0.0833)">
       <use xlink:href="#DejaVuSans-13"/>
      </g>
     </g>
    </g>
    <g id="ytick_3">
     <g id="line2d_9">
      <path d="M 26.480242 29.380299 
L 127.280242 29.380299 
" clip-path="url(#pb2e4f3f5bb)" style="fill: none; stroke-dasharray: 2.96,1.28; stroke-dashoffset: 0; stroke: #dddfe5; stroke-width: 0.8"/>
     </g>
     <g id="line2d_10">
      <g>
       <use xlink:href="#m84246bf9a7" x="26.480242" y="29.380299" style="fill: #4d4f53; stroke: #4d4f53; stroke-width: 0.8"/>
      </g>
     </g>
     <g id="text_5">
      <!-- 1 -->
      <g style="fill: #4d4f53" transform="translate(14.18028 32.544723) scale(0.0833 -0.0833)">
       <use xlink:href="#DejaVuSans-14"/>
      </g>
     </g>
    </g>
   </g>
   <g id="line2d_11">
    <path d="M 31.06206 36.148962 
L 31.79662 33.849884 
L 31.98026 34.228382 
L 32.1639 31.995308 
L 32.34754 32.35364 
L 32.53118 33.729826 
L 32.89846 31.788252 
L 33.0821 32.88073 
L 33.26574 30.306184 
L 33.44938 31.514793 
L 33.81666 30.094291 
L 34.0003 31.038463 
L 34.367581 30.014977 
L 34.551221 29.342624 
L 34.734861 30.698461 
L 34.918501 30.247882 
L 35.102141 29.046173 
L 35.285781 29.344858 
L 35.469421 30.05886 
L 35.653061 29.282605 
L 35.836701 29.725975 
L 36.203981 27.777323 
L 36.387621 29.417709 
L 36.571261 27.237636 
L 36.754901 28.586117 
L 37.122181 28.211091 
L 37.305821 29.487589 
L 37.673101 26.761568 
L 38.040381 29.05063 
L 38.407661 27.51043 
L 38.591301 29.382132 
L 38.774941 28.412016 
L 38.958581 29.278122 
L 39.142221 27.34406 
L 39.325861 28.577527 
L 39.509501 27.682432 
L 39.693141 28.319022 
L 39.876781 27.095199 
L 40.427701 28.481857 
L 40.611341 27.427475 
L 40.978621 30.335752 
L 41.162261 30.275961 
L 41.345901 28.133266 
L 41.529541 28.200321 
L 41.896821 30.254689 
L 42.080461 29.411284 
L 42.264101 31.528723 
L 42.447741 29.712346 
L 42.631381 30.16509 
L 42.815021 31.685474 
L 43.182301 30.211423 
L 43.365941 32.480766 
L 43.549581 30.717448 
L 43.733221 32.564142 
L 43.916861 31.82255 
L 44.100501 33.277014 
L 44.284141 32.881876 
L 44.467781 34.100266 
L 44.651421 33.621283 
L 45.018701 34.447115 
L 45.202341 33.706131 
L 45.385981 34.846326 
L 45.569621 34.565969 
L 45.753261 34.728443 
L 45.936901 36.275694 
L 46.120541 35.132201 
L 46.304181 36.03255 
L 46.487821 35.910968 
L 46.855101 37.841649 
L 47.038741 37.058776 
L 47.589661 40.077126 
L 47.773301 38.581872 
L 48.324221 41.784861 
L 48.507861 41.701227 
L 49.058781 43.86733 
L 49.242421 42.817999 
L 49.426061 45.04949 
L 49.609701 44.958504 
L 49.976981 44.010545 
L 50.344261 46.388035 
L 50.527901 45.666157 
L 50.711541 45.777147 
L 51.078821 48.383499 
L 51.262461 48.044012 
L 51.629741 50.838367 
L 51.813381 50.482494 
L 51.997021 50.618444 
L 52.180661 52.299942 
L 52.364301 50.465754 
L 53.466141 55.645161 
L 53.649781 55.850864 
L 53.833421 55.162262 
L 54.017061 56.213957 
L 54.200701 55.494317 
L 54.751621 59.039829 
L 55.118901 59.386189 
L 55.302541 60.84961 
L 55.486181 59.841527 
L 55.669821 61.899433 
L 55.853461 60.601332 
L 56.037101 61.267876 
L 56.220741 63.518003 
L 56.404381 61.972328 
L 56.588021 63.605302 
L 56.771661 62.908845 
L 56.955301 64.578647 
L 57.138941 64.396236 
L 57.322581 65.973409 
L 57.506221 64.624957 
L 57.689861 66.644763 
L 57.873501 65.829699 
L 58.057141 66.77799 
L 58.240781 66.324465 
L 58.791701 69.873653 
L 58.975341 67.948984 
L 59.342621 70.987429 
L 59.526261 69.984375 
L 59.893542 71.145867 
L 60.077182 70.590191 
L 60.260822 71.008086 
L 60.444462 73.115907 
L 60.628102 72.268845 
L 61.179022 75.170118 
L 61.362662 75.133286 
L 61.546302 74.311828 
L 61.729942 75.61265 
L 61.913582 75.528362 
L 62.097222 76.119974 
L 62.464502 75.925418 
L 62.648142 75.439579 
L 62.831782 78.213143 
L 63.015422 77.093998 
L 63.199062 77.151068 
L 63.382702 78.729714 
L 63.566342 77.465738 
L 63.749982 78.665254 
L 63.933622 78.558542 
L 64.117262 78.622459 
L 64.300902 78.137216 
L 64.668182 79.1653 
L 65.035462 81.149318 
L 65.402742 79.534568 
L 65.586382 79.924093 
L 65.770022 81.455464 
L 65.953662 81.408247 
L 66.137302 81.707019 
L 66.504582 80.784427 
L 66.871862 82.023425 
L 67.239142 80.670527 
L 67.422782 81.573411 
L 67.606422 81.167794 
L 67.790062 82.014554 
L 68.157342 81.053493 
L 68.340982 83.266236 
L 68.524622 81.355965 
L 68.708262 81.41223 
L 69.075542 81.22488 
L 69.259182 80.801835 
L 69.626462 82.765611 
L 69.993742 80.501226 
L 70.361022 80.703417 
L 70.728302 82.842733 
L 71.095582 80.672549 
L 71.279222 80.620474 
L 71.462862 81.978833 
L 71.646502 81.944208 
L 71.830142 81.683399 
L 72.013782 79.737818 
L 72.381062 81.134398 
L 72.564702 79.729513 
L 72.748342 81.137477 
L 73.115622 80.52602 
L 73.482902 78.713845 
L 73.666542 78.594327 
L 74.033822 77.633967 
L 74.401102 78.874449 
L 74.584742 77.481499 
L 74.768382 77.700466 
L 74.952022 77.529603 
L 75.502942 74.875523 
L 75.686582 75.774222 
L 76.053862 74.144587 
L 76.237502 74.930351 
L 76.604782 72.60892 
L 76.788422 74.330929 
L 77.155702 72.200738 
L 77.339342 73.398644 
L 77.706622 70.978292 
L 79.175742 67.325204 
L 79.359382 68.531415 
L 79.543022 66.890864 
L 79.726662 67.738435 
L 79.910302 65.545117 
L 80.093942 67.212211 
L 80.461222 66.306111 
L 80.828502 63.97001 
L 81.012142 64.848515 
L 81.195782 64.366649 
L 81.563062 61.43936 
L 81.746702 62.342265 
L 82.113982 59.695646 
L 82.297622 59.233259 
L 82.481262 59.475011 
L 83.032182 57.466233 
L 83.215822 57.854433 
L 83.766742 55.228067 
L 83.950382 55.975435 
L 84.134022 54.995159 
L 84.317662 55.38123 
L 85.052223 52.122986 
L 85.235863 53.224649 
L 85.419503 52.555507 
L 85.603143 50.301334 
L 85.786783 50.647657 
L 85.970423 48.724268 
L 86.154063 50.510569 
L 86.888623 46.223675 
L 87.072263 47.847418 
L 87.439543 45.666167 
L 87.806823 46.325906 
L 87.990463 44.410782 
L 88.174103 45.005238 
L 88.357743 42.916875 
L 88.541383 43.559905 
L 88.725023 43.248887 
L 89.092303 41.544235 
L 89.275943 41.946583 
L 89.459583 40.331042 
L 89.643223 40.828321 
L 89.826863 39.424183 
L 90.010503 40.94662 
L 90.194143 38.193556 
L 90.745063 39.372294 
L 91.295983 35.764645 
L 91.479623 36.263622 
L 91.846903 36.046366 
L 92.030543 34.554101 
L 92.214183 34.893454 
L 92.397823 34.112049 
L 92.765103 35.15329 
L 92.948743 32.472456 
L 93.132383 34.7445 
L 93.499663 33.112881 
L 93.683303 33.300217 
L 93.866943 32.949817 
L 94.234223 31.485338 
L 94.417863 31.238895 
L 94.601503 30.574725 
L 94.785143 31.810399 
L 94.968783 29.750306 
L 95.152423 30.158573 
L 95.336063 31.606228 
L 95.519703 29.914041 
L 95.703343 30.311712 
L 95.886983 30.215233 
L 96.070623 30.43124 
L 96.437903 28.004047 
L 96.621543 29.742151 
L 96.805183 28.582906 
L 96.988823 29.041008 
L 97.172463 28.930506 
L 97.356103 29.701824 
L 97.539743 29.205719 
L 97.723383 27.448274 
L 97.907023 29.394541 
L 98.274303 27.638936 
L 98.641583 28.737348 
L 98.825223 26.87583 
L 99.008863 26.948932 
L 99.192503 27.740963 
L 99.559783 26.720594 
L 99.743423 27.025811 
L 99.927063 28.063424 
L 100.110703 27.257656 
L 100.294343 27.341028 
L 100.477983 29.060061 
L 100.661623 27.960168 
L 100.845263 29.40476 
L 101.028903 29.1305 
L 101.212543 29.450036 
L 101.579823 28.818509 
L 101.763463 29.359198 
L 102.130743 28.068175 
L 102.498023 30.56409 
L 102.681663 28.432205 
L 102.865303 30.136955 
L 103.232583 28.910393 
L 103.416223 29.440968 
L 103.599863 31.664075 
L 103.783503 30.963003 
L 103.967143 31.582606 
L 104.150783 30.771311 
L 104.334423 31.20622 
L 104.518063 30.505083 
L 104.701703 32.199131 
L 104.885343 31.269073 
L 105.436263 33.613843 
L 105.619903 32.776805 
L 105.803543 33.445339 
L 105.987183 32.68069 
L 106.354463 35.31714 
L 106.538103 34.418829 
L 106.721743 34.850164 
L 106.905383 34.503995 
L 107.089023 34.856422 
L 107.272663 37.026201 
L 107.456303 36.630515 
L 108.190863 39.39912 
L 108.374503 37.399184 
L 109.292703 40.297726 
L 109.476343 41.969774 
L 109.659983 40.509327 
L 109.843623 43.349589 
L 110.027264 42.197518 
L 110.210904 44.250499 
L 110.394544 42.189508 
L 110.945464 44.625473 
L 111.312744 46.754289 
L 111.496384 45.410261 
L 111.863664 48.262181 
L 112.047304 48.179487 
L 112.230944 46.934113 
L 112.598224 49.762288 
L 112.781864 50.416171 
L 112.965504 49.482822 
L 113.149144 51.69975 
L 113.332784 51.415077 
L 113.516424 50.761042 
L 113.700064 53.572568 
L 114.067344 51.983972 
L 114.250984 54.505861 
L 114.434624 53.645395 
L 114.801904 54.312366 
L 115.352824 57.971551 
L 115.536464 57.19038 
L 116.087384 58.744702 
L 116.454664 60.756105 
L 116.821944 59.533103 
L 117.005584 60.557977 
L 117.189224 62.765432 
L 117.372864 61.616942 
L 117.556504 63.410866 
L 117.740144 62.178009 
L 118.291064 65.852829 
L 118.474704 65.23203 
L 118.658344 66.827123 
L 118.841984 65.682877 
L 119.025624 67.621116 
L 119.209264 67.182063 
L 119.392904 68.236175 
L 119.576544 66.655966 
L 119.760184 69.062297 
L 119.943824 68.658157 
L 120.127464 70.633101 
L 120.311104 69.45247 
L 120.862024 71.271113 
L 121.045664 70.366587 
L 121.229304 72.673047 
L 121.412944 71.691826 
L 121.596584 71.854786 
L 122.147504 73.194021 
L 122.514784 75.575153 
L 122.698424 73.698215 
L 122.698424 73.698215 
" clip-path="url(#pb2e4f3f5bb)" style="fill: none; stroke: #3362b0; stroke-width: 1.5; stroke-linecap: square"/>
   </g>
   <g id="line2d_12">
    <path d="M 31.06206 28.898156 
L 31.2457 27.334489 
L 31.42934 27.479956 
L 31.61298 29.119386 
L 31.79662 27.499784 
L 31.98026 29.072204 
L 32.1639 29.031041 
L 32.53118 28.942652 
L 32.71482 29.796799 
L 32.89846 29.31342 
L 33.0821 30.041406 
L 33.26574 29.856986 
L 33.44938 28.690827 
L 33.81666 31.07504 
L 34.0003 29.703619 
L 34.18394 31.095091 
L 34.551221 29.625994 
L 34.918501 32.329798 
L 35.102141 31.874131 
L 35.285781 32.197265 
L 35.653061 33.647048 
L 35.836701 32.282616 
L 36.020341 32.949581 
L 36.203981 32.217429 
L 36.571261 33.496266 
L 37.122181 36.246884 
L 37.305821 36.008257 
L 37.489461 35.402763 
L 37.673101 37.215634 
L 38.040381 36.14494 
L 38.224021 38.449952 
L 38.407661 36.540883 
L 39.509501 40.659828 
L 39.693141 39.958907 
L 39.876781 42.136715 
L 40.060421 40.124101 
L 40.427701 43.459282 
L 40.611341 43.590629 
L 40.794981 42.072917 
L 41.162261 44.629499 
L 41.345901 44.635575 
L 41.529541 46.124887 
L 41.713181 44.642652 
L 41.896821 46.41638 
L 42.080461 45.587499 
L 42.447741 48.514862 
L 42.631381 46.975742 
L 43.182301 50.030248 
L 43.365941 48.625611 
L 43.549581 50.381242 
L 43.733221 49.706969 
L 44.284141 52.304166 
L 44.467781 51.563985 
L 44.651421 54.554897 
L 44.835061 52.876046 
L 45.018701 55.606534 
L 45.385981 55.211536 
L 46.487821 58.987212 
L 46.671461 57.90044 
L 46.855101 58.704974 
L 47.222381 61.562971 
L 47.406021 60.910052 
L 47.773301 62.467881 
L 48.140581 63.344311 
L 48.507861 62.618748 
L 49.058781 65.738222 
L 49.242421 66.170095 
L 49.426061 65.18155 
L 49.793341 68.359369 
L 49.976981 67.631934 
L 50.344261 69.654281 
L 50.527901 67.716846 
L 50.711541 69.512341 
L 50.895181 68.639016 
L 51.629741 72.62578 
L 51.813381 71.312013 
L 51.997021 72.819677 
L 52.180661 71.931696 
L 52.364301 73.57556 
L 52.547941 73.447498 
L 52.731581 73.447378 
L 52.915221 75.049745 
L 53.098861 74.17416 
L 53.282501 75.914451 
L 53.466141 75.600863 
L 53.649781 75.809412 
L 53.833421 76.577952 
L 54.017061 74.886134 
L 54.200701 77.685856 
L 54.384341 75.756858 
L 54.567981 76.740216 
L 54.751621 76.149874 
L 54.935261 77.451582 
L 55.118901 77.377538 
L 55.302541 77.250093 
L 55.486181 77.651395 
L 55.669821 79.535548 
L 55.853461 78.902923 
L 56.037101 79.631486 
L 56.220741 78.222457 
L 56.588021 79.776056 
L 56.771661 79.583552 
L 56.955301 81.217507 
L 57.138941 79.445727 
L 57.506221 81.838052 
L 57.873501 80.668968 
L 58.240781 82.416407 
L 58.424421 80.119146 
L 58.791701 82.517795 
L 58.975341 81.267689 
L 59.158981 82.7768 
L 59.342621 82.710593 
L 59.526261 82.892936 
L 59.893542 80.67024 
L 60.260822 82.997067 
L 60.444462 82.900635 
L 60.811742 81.483436 
L 60.995382 81.652317 
L 61.179022 83.218221 
L 61.362662 81.663052 
L 61.546302 83.081295 
L 61.729942 81.423759 
L 61.913582 82.150337 
L 62.097222 80.402768 
L 62.280862 80.5448 
L 62.464502 80.775651 
L 62.648142 80.46976 
L 63.199062 82.043789 
L 63.382702 80.846057 
L 63.566342 81.547528 
L 63.749982 79.75928 
L 63.933622 81.304905 
L 64.117262 81.193954 
L 64.484542 78.604098 
L 64.851822 80.314167 
L 65.035462 79.01282 
L 65.219102 79.849458 
L 65.402742 79.193504 
L 65.586382 77.250628 
L 65.770022 79.326296 
L 66.137302 78.672414 
L 66.320942 77.439774 
L 66.504582 77.836823 
L 66.688222 75.650965 
L 66.871862 76.837375 
L 67.422782 75.25722 
L 67.606422 74.134806 
L 67.790062 75.745466 
L 68.157342 73.382917 
L 68.340982 73.088005 
L 68.524622 74.272798 
L 68.891902 72.352248 
L 69.075542 73.420733 
L 69.442822 70.736458 
L 69.626462 72.237205 
L 69.993742 69.888791 
L 70.177382 70.527073 
L 70.361022 70.469241 
L 70.728302 67.675983 
L 70.911942 67.795995 
L 71.095582 68.24952 
L 71.462862 67.60317 
L 71.646502 66.174903 
L 71.830142 66.751574 
L 72.381062 65.4008 
L 72.564702 63.375477 
L 72.748342 63.573433 
L 72.931982 62.443534 
L 73.115622 62.72583 
L 73.299262 61.282151 
L 73.482902 61.372986 
L 73.850182 59.132597 
L 74.033822 60.60199 
L 74.217462 60.109624 
L 74.768382 57.134369 
L 74.952022 56.485515 
L 75.319302 57.548857 
L 75.686582 54.257419 
L 76.421142 52.056414 
L 76.604782 51.74444 
L 76.788422 51.013627 
L 76.972062 51.891783 
L 77.155702 50.325688 
L 77.339342 51.405554 
L 77.706622 48.59156 
L 77.890262 49.634128 
L 78.073902 49.255881 
L 78.441182 47.024264 
L 78.624822 47.35311 
L 78.992102 45.823376 
L 79.175742 47.138417 
L 79.726662 43.465176 
L 79.910302 44.678463 
L 80.277582 41.664885 
L 80.644862 42.946327 
L 81.012142 39.892117 
L 81.379422 41.225985 
L 81.746702 38.6622 
L 81.930342 40.435821 
L 82.297622 37.517712 
L 82.481262 37.994482 
L 82.848542 36.141649 
L 83.032182 36.396657 
L 83.399462 35.632583 
L 83.583102 36.881358 
L 83.950382 34.392232 
L 84.134022 35.682824 
L 84.317662 33.471958 
L 84.684942 34.945547 
L 85.052223 32.951888 
L 85.235863 32.789907 
L 85.603143 33.171395 
L 85.786783 32.074993 
L 86.154063 32.730584 
L 86.337703 30.0375 
L 86.521343 31.153252 
L 86.704983 29.600257 
L 87.072263 30.650405 
L 87.439543 28.867006 
L 87.623183 30.572608 
L 87.990463 29.43833 
L 88.174103 29.962689 
L 88.357743 29.07905 
L 88.541383 29.172517 
L 88.725023 29.252694 
L 88.908663 28.998169 
L 89.092303 27.248165 
L 89.459583 29.626585 
L 89.643223 26.974163 
L 89.826863 27.405909 
L 90.010503 28.665083 
L 90.194143 28.346594 
L 90.377783 27.455052 
L 90.561423 28.486215 
L 90.745063 28.251136 
L 90.928703 28.437961 
L 91.295983 27.955555 
L 91.479623 26.847154 
L 91.663263 28.666748 
L 91.846903 27.444757 
L 92.214183 29.213994 
L 92.581463 27.460398 
L 92.765103 28.934051 
L 92.948743 27.545606 
L 93.132383 29.446269 
L 93.499663 28.643215 
L 93.683303 28.345481 
L 93.866943 28.678825 
L 94.050583 29.956146 
L 94.234223 28.838655 
L 94.601503 30.534398 
L 94.785143 31.064527 
L 94.968783 30.572203 
L 95.152423 29.380674 
L 95.336063 29.800337 
L 95.703343 31.677352 
L 96.070623 30.229916 
L 96.621543 33.586557 
L 96.805183 32.677379 
L 97.172463 34.142422 
L 97.356103 32.587381 
L 97.539743 32.773577 
L 97.723383 33.608708 
L 97.907023 35.758133 
L 98.090663 35.252045 
L 98.274303 33.993794 
L 98.457943 34.150478 
L 98.825223 35.380902 
L 99.376143 37.572703 
L 99.559783 37.323601 
L 99.743423 39.297295 
L 100.110703 38.141317 
L 100.294343 40.243524 
L 100.477983 40.14689 
L 100.845263 41.7391 
L 101.028903 41.725404 
L 101.212543 42.718953 
L 101.396183 41.028034 
L 101.763463 42.347767 
L 101.947103 41.981715 
L 102.130743 43.780154 
L 102.314383 43.743166 
L 102.498023 43.918054 
L 102.681663 46.109904 
L 102.865303 45.079881 
L 103.048943 45.431306 
L 103.232583 46.438245 
L 103.416223 45.934268 
L 103.599863 47.575835 
L 103.783503 47.065674 
L 104.701703 49.566276 
L 105.068983 51.661428 
L 105.252623 51.335335 
L 105.619903 53.308516 
L 105.803543 54.313249 
L 105.987183 54.276707 
L 106.170823 55.12056 
L 106.354463 54.916612 
L 106.905383 57.899934 
L 107.089023 56.120834 
L 107.272663 58.284512 
L 107.456303 58.259678 
L 107.823583 60.176013 
L 108.007223 58.368821 
L 108.190863 60.16775 
L 108.374503 59.86088 
L 108.741783 62.181965 
L 109.292703 64.053713 
L 109.476343 62.310196 
L 109.659983 63.111492 
L 109.843623 64.878491 
L 110.027264 64.185586 
L 110.210904 64.442215 
L 110.394544 67.29533 
L 110.578184 66.415833 
L 110.761824 68.089676 
L 111.129104 66.947287 
L 111.680024 68.588919 
L 111.863664 68.724716 
L 112.598224 71.659571 
L 112.781864 72.663664 
L 113.149144 71.801963 
L 113.332784 71.872631 
L 113.700064 74.847199 
L 113.883704 74.113708 
L 114.434624 76.07898 
L 114.618264 74.715939 
L 114.801904 76.688796 
L 115.169184 75.027833 
L 115.352824 75.632706 
L 115.720104 78.369954 
L 115.903744 77.277528 
L 116.454664 78.60209 
L 116.638304 77.435494 
L 116.821944 79.628495 
L 117.005584 78.02954 
L 117.189224 78.070515 
L 117.372864 78.386612 
L 117.740144 80.2836 
L 117.923784 78.932922 
L 118.107424 79.136374 
L 118.474704 81.530769 
L 118.658344 80.285599 
L 118.841984 81.092136 
L 119.209264 80.765334 
L 119.392904 80.094455 
L 119.760184 81.716736 
L 119.943824 82.274404 
L 120.311104 81.584551 
L 120.494744 81.787628 
L 120.678384 82.870816 
L 120.862024 80.897818 
L 121.229304 83.326757 
L 121.412944 82.268347 
L 121.780224 83.235928 
L 122.331144 81.113378 
L 122.514784 81.554061 
L 122.698424 82.652438 
L 122.698424 82.652438 
" clip-path="url(#pb2e4f3f5bb)" style="fill: none; stroke: #cc3164; stroke-width: 1.5; stroke-linecap: square"/>
   </g>
   <g id="patch_3">
    <path d="M 26.480242 86.158477 
L 26.480242 23.860651 
" style="fill: none; stroke: #4d4f53; stroke-width: 0.8; stroke-linejoin: miter; stroke-linecap: square"/>
   </g>
   <g id="patch_4">
    <path d="M 127.280242 86.158477 
L 127.280242 23.860651 
" style="fill: none; stroke: #4d4f53; stroke-width: 0.8; stroke-linejoin: miter; stroke-linecap: square"/>
   </g>
   <g id="patch_5">
    <path d="M 26.480242 86.158477 
L 127.280242 86.158477 
" style="fill: none; stroke: #4d4f53; stroke-width: 0.8; stroke-linejoin: miter; stroke-linecap: square"/>
   </g>
   <g id="patch_6">
    <path d="M 26.480242 23.860651 
L 127.280242 23.860651 
" style="fill: none; stroke: #4d4f53; stroke-width: 0.8; stroke-linejoin: miter; stroke-linecap: square"/>
   </g>
   <g id="legend_1">
    <g id="patch_7">
     <path d="M 26.480242 23.860651 
L 127.280242 23.860651 
L 127.280242 7.2 
L 26.480242 7.2 
L 26.480242 23.860651 
z
" style="fill: none; opacity: 0"/>
    </g>
    <g id="text_6">
     <!-- title -->
     <g style="fill: #4d4f53" transform="translate(30.645242 17.694498) scale(0.0833 -0.0833)">
      <defs>
       <path id="DejaVuSans-57" d="M 1172 4494 
L 1172 3500 
L 2356 3500 
L 2356 3053 
L 1172 3053 
L 1172 1153 
Q 1172 725 1289 603 
Q 1406 481 1766 481 
L 2356 481 
L 2356 0 
L 1766 0 
Q 1100 0 847 248 
Q 594 497 594 1153 
L 594 3053 
L 172 3053 
L 172 3500 
L 594 3500 
L 594 4494 
L 1172 4494 
z
" transform="scale(0.015625)"/>
       <path id="DejaVuSans-4c" d="M 603 3500 
L 1178 3500 
L 1178 0 
L 603 0 
L 603 3500 
z
M 603 4863 
L 1178 4863 
L 1178 4134 
L 603 4134 
L 603 4863 
z
" transform="scale(0.015625)"/>
       <path id="DejaVuSans-4f" d="M 603 4863 
L 1178 4863 
L 1178 0 
L 603 0 
L 603 4863 
z
" transform="scale(0.015625)"/>
       <path id="DejaVuSans-48" d="M 3597 1894 
L 3597 1613 
L 953 1613 
Q 991 1019 1311 708 
Q 1631 397 2203 397 
Q 2534 397 2845 478 
Q 3156 559 3463 722 
L 3463 178 
Q 3153 47 2828 -22 
Q 2503 -91 2169 -91 
Q 1331 -91 842 396 
Q 353 884 353 1716 
Q 353 2575 817 3079 
Q 1281 3584 2069 3584 
Q 2775 3584 3186 3129 
Q 3597 2675 3597 1894 
z
M 3022 2063 
Q 3016 2534 2758 2815 
Q 2500 3097 2075 3097 
Q 1594 3097 1305 2825 
Q 1016 2553 972 2059 
L 3022 2063 
z
" transform="scale(0.015625)"/>
      </defs>
      <use xlink:href="#DejaVuSans-57"/>
      <use xlink:href="#DejaVuSans-4c" transform="translate(39.203125 0)"/>
      <use xlink:href="#DejaVuSans-57" transform="translate(66.984375 0)"/>
      <use xlink:href="#DejaVuSans-4f" transform="translate(106.1875 0)"/>
      <use xlink:href="#DejaVuSans-48" transform="translate(133.96875 0)"/>
     </g>
    </g>
    <g id="line2d_13">
     <path d="M 60.282717 14.778998 
L 66.113717 14.778998 
L 71.944717 14.778998 
" style="fill: none; stroke: #3362b0; stroke-width: 1.5; stroke-linecap: square"/>
    </g>
    <g id="text_7">
     <!-- $x_1$ -->
     <g style="fill: #4d4f53" transform="translate(76.109717 17.694498) scale(0.0833 -0.0833)">
      <defs>
       <path id="DejaVuSans-Oblique-5b" d="M 3841 3500 
L 2234 1784 
L 3219 0 
L 2559 0 
L 1819 1388 
L 531 0 
L -166 0 
L 1556 1844 
L 641 3500 
L 1300 3500 
L 1972 2234 
L 3144 3500 
L 3841 3500 
z
" transform="scale(0.015625)"/>
      </defs>
      <use xlink:href="#DejaVuSans-Oblique-5b" transform="translate(0 0.3125)"/>
      <use xlink:href="#DejaVuSans-14" transform="translate(59.179688 -14.687451) scale(0.7)"/>
     </g>
    </g>
    <g id="line2d_14">
     <path d="M 98.375142 14.778998 
L 104.206142 14.778998 
L 110.037142 14.778998 
" style="fill: none; stroke: #cc3164; stroke-width: 1.5; stroke-linecap: square"/>
    </g>
    <g id="text_8">
     <!-- $x_2$ -->
     <g style="fill: #4d4f53" transform="translate(114.202142 17.694498) scale(0.0833 -0.0833)">
      <defs>
       <path id="DejaVuSans-15" d="M 1228 531 
L 3431 531 
L 3431 0 
L 469 0 
L 469 531 
Q 828 903 1448 1529 
Q 2069 2156 2228 2338 
Q 2531 2678 2651 2914 
Q 2772 3150 2772 3378 
Q 2772 3750 2511 3984 
Q 2250 4219 1831 4219 
Q 1534 4219 1204 4116 
Q 875 4013 500 3803 
L 500 4441 
Q 881 4594 1212 4672 
Q 1544 4750 1819 4750 
Q 2544 4750 2975 4387 
Q 3406 4025 3406 3419 
Q 3406 3131 3298 2873 
Q 3191 2616 2906 2266 
Q 2828 2175 2409 1742 
Q 1991 1309 1228 531 
z
" transform="scale(0.015625)"/>
      </defs>
      <use xlink:href="#DejaVuSans-Oblique-5b" transform="translate(0 0.3125)"/>
      <use xlink:href="#DejaVuSans-15" transform="translate(59.179688 -14.687451) scale(0.7)"/>
     </g>
    </g>
   </g>
  </g>
 </g>
 <defs>
  <clipPath id="pb2e4f3f5bb">
   <rect x="26.480242" y="23.860651" width="100.8" height="62.297826"/>
  </clipPath>
 </defs>
</svg>
