<?xml version="1.0" encoding="utf-8" standalone="no"?>
<!DOCTYPE svg PUBLIC "-//W3C//DTD SVG 1.1//EN"
  "http://www.w3.org/Graphics/SVG/1.1/DTD/svg11.dtd">
<svg xmlns:xlink="http://www.w3.org/1999/xlink" width="266.982342pt" height="83.128137pt" viewBox="0 0 266.982342 83.128137" xmlns="http://www.w3.org/2000/svg" version="1.1">
 <metadata>
  <rdf:RDF xmlns:dc="http://purl.org/dc/elements/1.1/" xmlns:cc="http://creativecommons.org/ns#" xmlns:rdf="http://www.w3.org/1999/02/22-rdf-syntax-ns#">
   <cc:Work>
    <dc:type rdf:resource="http://purl.org/dc/dcmitype/StillImage"/>
    <dc:date>2026-06-19T12:25:03.208630</dc:date>
    <dc:format>image/svg+xml</dc:format>
    <dc:creator>
     <cc:Agent>
      <dc:title>Matplotlib v3.11.0, https://matplotlib.org/</dc:title>
     </cc:Agent>
    </dc:creator>
   </cc:Work>
  </rdf:RDF>
 </metadata>
 <defs>
  <style type="text/css">*{stroke-linejoin: round; stroke-linecap: butt}</style>
 </defs>
 <g id="figure_1">
  <g id="patch_1">
   <path d="M 0 83.128137 
L 266.982342 83.128137 
L 266.982342 0 
L 0 0 
L 0 83.128137 
z
" style="fill: none"/>
  </g>
  <g id="axes_1">
   <g id="patch_2">
    <path d="M 26.480242 60.598137 
L 112.880242 60.598137 
L 112.880242 7.2 
L 26.480242 7.2 
L 26.480242 60.598137 
z
" style="fill: none"/>
   </g>
   <g id="matplotlib.axis_1">
    <g id="xtick_1">
     <g id="line2d_1">
      <path d="M 30.407515 60.598137 
L 30.407515 7.2 
" clip-path="url(#pfadbf29017)" style="fill: none; stroke-dasharray: 2.96,1.28; stroke-dashoffset: 0; stroke: #dddfe5; stroke-width: 0.8"/>
     </g>
     <g id="line2d_2">
      <defs>
       <path id="mc5245bb638" d="M 0 0 
L 0 3.5 
" style="stroke: #4d4f53; stroke-width: 0.8"/>
      </defs>
      <g>
       <use xlink:href="#mc5245bb638" x="30.407515" y="60.598137" style="fill: #4d4f53; stroke: #4d4f53; stroke-width: 0.8"/>
      </g>
     </g>
     <g id="text_1">
      <!-- 0 -->
      <g style="fill: #4d4f53" transform="translate(27.757534 73.926984) scale(0.0833 -0.0833)">
       <defs>
        <path id="DejaVuSans-13" d="M 2034 4250 
Q 1547 4250 1301 3770 
Q 1056 3291 1056 2328 
Q 1056 1369 1301 889 
Q 1547 409 2034 409 
Q 2525 409 2770 889 
Q 3016 1369 3016 2328 
Q 3016 3291 2770 3770 
Q 2525 4250 2034 4250 
z
M 2034 4750 
Q 2819 4750 3233 4129 
Q 3647 3509 3647 2328 
Q 3647 1150 3233 529 
Q 2819 -91 2034 -91 
Q 1250 -91 836 529 
Q 422 1150 422 2328 
Q 422 3509 836 4129 
Q 1250 4750 2034 4750 
z
" transform="scale(0.015625)"/>
       </defs>
       <use xlink:href="#DejaVuSans-13"/>
      </g>
     </g>
    </g>
    <g id="xtick_2">
     <g id="line2d_3">
      <path d="M 72.077173 60.598137 
L 72.077173 7.2 
" clip-path="url(#pfadbf29017)" style="fill: none; stroke-dasharray: 2.96,1.28; stroke-dashoffset: 0; stroke: #dddfe5; stroke-width: 0.8"/>
     </g>
     <g id="line2d_4">
      <g>
       <use xlink:href="#mc5245bb638" x="72.077173" y="60.598137" style="fill: #4d4f53; stroke: #4d4f53; stroke-width: 0.8"/>
      </g>
     </g>
     <g id="text_2">
      <!-- 5 -->
      <g style="fill: #4d4f53" transform="translate(69.427191 73.926984) scale(0.0833 -0.0833)">
       <defs>
        <path id="DejaVuSans-18" d="M 691 4666 
L 3169 4666 
L 3169 4134 
L 1269 4134 
L 1269 2991 
Q 1406 3038 1543 3061 
Q 1681 3084 1819 3084 
Q 2600 3084 3056 2656 
Q 3513 2228 3513 1497 
Q 3513 744 3044 326 
Q 2575 -91 1722 -91 
Q 1428 -91 1123 -41 
Q 819 9 494 109 
L 494 744 
Q 775 591 1075 516 
Q 1375 441 1709 441 
Q 2250 441 2565 725 
Q 2881 1009 2881 1497 
Q 2881 1984 2565 2268 
Q 2250 2553 1709 2553 
Q 1456 2553 1204 2497 
Q 953 2441 691 2322 
L 691 4666 
z
" transform="scale(0.015625)"/>
       </defs>
       <use xlink:href="#DejaVuSans-18"/>
      </g>
     </g>
    </g>
   </g>
   <g id="matplotlib.axis_2">
    <g id="ytick_1">
     <g id="line2d_5">
      <path d="M 26.480242 58.192421 
L 112.880242 58.192421 
" clip-path="url(#pfadbf29017)" style="fill: none; stroke-dasharray: 2.96,1.28; stroke-dashoffset: 0; stroke: #dddfe5; stroke-width: 0.8"/>
     </g>
     <g id="line2d_6">
      <defs>
       <path id="m2775e30b42" d="M 0 0 
L -3.5 0 
" style="stroke: #4d4f53; stroke-width: 0.8"/>
      </defs>
      <g>
       <use xlink:href="#m2775e30b42" x="26.480242" y="58.192421" style="fill: #4d4f53; stroke: #4d4f53; stroke-width: 0.8"/>
      </g>
     </g>
     <g id="text_3">
      <!-- −1 -->
      <g style="fill: #4d4f53" transform="translate(7.2 61.356844) scale(0.0833 -0.0833)">
       <defs>
        <path id="DejaVuSans-c9c" d="M 678 2272 
L 4684 2272 
L 4684 1741 
L 678 1741 
L 678 2272 
z
" transform="scale(0.015625)"/>
        <path id="DejaVuSans-14" d="M 794 531 
L 1825 531 
L 1825 4091 
L 703 3866 
L 703 4441 
L 1819 4666 
L 2450 4666 
L 2450 531 
L 3481 531 
L 3481 0 
L 794 0 
L 794 531 
z
" transform="scale(0.015625)"/>
       </defs>
       <use xlink:href="#DejaVuSans-c9c"/>
       <use xlink:href="#DejaVuSans-14" transform="translate(83.796875 0)"/>
      </g>
     </g>
    </g>
    <g id="ytick_2">
     <g id="line2d_7">
      <path d="M 26.480242 35.061774 
L 112.880242 35.061774 
" clip-path="url(#pfadbf29017)" style="fill: none; stroke-dasharray: 2.96,1.28; stroke-dashoffset: 0; stroke: #dddfe5; stroke-width: 0.8"/>
     </g>
     <g id="line2d_8">
      <g>
       <use xlink:href="#m2775e30b42" x="26.480242" y="35.061774" style="fill: #4d4f53; stroke: #4d4f53; stroke-width: 0.8"/>
      </g>
     </g>
     <g id="text_4">
      <!-- 0 -->
      <g style="fill: #4d4f53" transform="translate(14.18028 38.226198) scale(0.0833 -0.0833)">
       <use xlink:href="#DejaVuSans-13"/>
      </g>
     </g>
    </g>
    <g id="ytick_3">
     <g id="line2d_9">
      <path d="M 26.480242 11.931127 
L 112.880242 11.931127 
" clip-path="url(#pfadbf29017)" style="fill: none; stroke-dasharray: 2.96,1.28; stroke-dashoffset: 0; stroke: #dddfe5; stroke-width: 0.8"/>
     </g>
     <g id="line2d_10">
      <g>
       <use xlink:href="#m2775e30b42" x="26.480242" y="11.931127" style="fill: #4d4f53; stroke: #4d4f53; stroke-width: 0.8"/>
      </g>
     </g>
     <g id="text_5">
      <!-- 1 -->
      <g style="fill: #4d4f53" transform="translate(14.18028 15.095551) scale(0.0833 -0.0833)">
       <use xlink:href="#DejaVuSans-14"/>
      </g>
     </g>
    </g>
   </g>
   <g id="line2d_11">
    <path d="M 30.407515 17.732838 
L 31.037138 15.7622 
L 31.194544 16.086626 
L 31.351949 14.172563 
L 31.509355 14.479705 
L 31.666761 15.659293 
L 31.981572 13.995087 
L 32.138978 14.931496 
L 32.296384 12.724742 
L 32.453789 13.760693 
L 32.768601 12.54312 
L 32.926006 13.35241 
L 33.240818 12.475137 
L 33.398224 11.898834 
L 33.555629 13.060981 
L 33.713035 12.67477 
L 33.870441 11.644734 
L 34.027846 11.900749 
L 34.185252 12.51275 
L 34.342658 11.847389 
L 34.500064 12.227421 
L 34.814875 10.557147 
L 34.972281 11.963193 
L 35.129687 10.094558 
L 35.287092 11.250399 
L 35.444498 11.002172 
L 35.601904 10.928949 
L 35.759309 12.02309 
L 36.074121 9.6865 
L 36.388932 11.648554 
L 36.703744 10.328383 
L 36.861149 11.932698 
L 37.018555 11.10117 
L 37.175961 11.843546 
L 37.333367 10.185779 
L 37.490772 11.243037 
L 37.648178 10.475813 
L 37.805584 11.021461 
L 37.96299 9.97247 
L 38.435207 11.161034 
L 38.592612 10.257278 
L 38.907424 12.750087 
L 39.06483 12.698838 
L 39.222235 10.862242 
L 39.379641 10.919717 
L 39.694452 12.680604 
L 39.851858 11.957686 
L 40.009264 13.772633 
L 40.16667 12.215739 
L 40.324075 12.603805 
L 40.481481 13.906992 
L 40.796292 12.643519 
L 40.953698 14.58867 
L 41.111104 13.077255 
L 41.26851 14.660135 
L 41.425915 14.024485 
L 41.583321 15.271168 
L 41.740727 14.932479 
L 41.898133 15.976813 
L 42.055538 15.566256 
L 42.37035 16.274112 
L 42.527755 15.638983 
L 42.685161 16.616293 
L 42.842567 16.375987 
L 42.999973 16.51525 
L 43.157378 17.841466 
L 43.314784 16.861329 
L 43.944407 19.183713 
L 44.101813 18.512679 
L 44.57403 21.099836 
L 44.731435 19.818189 
L 45.203653 22.563609 
L 45.361058 22.491922 
L 45.833276 24.348582 
L 45.990681 23.449156 
L 46.148087 25.361862 
L 46.305493 25.283874 
L 46.620304 24.471338 
L 46.935116 26.509186 
L 47.092521 25.890434 
L 47.249927 25.985568 
L 47.564738 28.219584 
L 47.722144 27.928596 
L 48.036956 30.323757 
L 48.194361 30.018723 
L 48.351767 30.135251 
L 48.509173 31.576536 
L 48.666578 30.004374 
L 49.611013 34.443866 
L 49.768419 34.620183 
L 49.925824 34.029952 
L 50.08323 34.931405 
L 50.240636 34.314571 
L 50.712853 37.353581 
L 51.027664 37.650461 
L 51.18507 38.904822 
L 51.342476 38.040751 
L 51.499881 39.80467 
L 51.657287 38.692013 
L 51.814693 39.263336 
L 51.972099 41.192016 
L 52.129504 39.867152 
L 52.28691 41.266844 
L 52.444316 40.66988 
L 52.916533 43.29665 
L 53.073939 42.140834 
L 53.231344 43.872097 
L 53.38875 43.17347 
L 53.546156 43.986291 
L 53.703562 43.597555 
L 54.175779 46.639716 
L 54.333184 44.99 
L 54.647996 47.594381 
L 54.805402 46.734621 
L 55.120213 47.730186 
L 55.277619 47.253891 
L 55.435024 47.612087 
L 55.59243 49.418791 
L 55.749836 48.692738 
L 56.222053 51.179543 
L 56.379459 51.147973 
L 56.536865 50.443866 
L 56.69427 51.558857 
L 56.851676 51.48661 
L 57.009082 51.993706 
L 57.166487 51.915322 
L 57.323893 51.826944 
L 57.481299 51.41051 
L 57.638705 53.787851 
L 57.79611 52.828583 
L 57.953516 52.8775 
L 58.110922 54.230625 
L 58.268327 53.147218 
L 58.425733 54.175374 
L 58.583139 54.083907 
L 58.740545 54.138693 
L 58.89795 53.72277 
L 59.212762 54.603985 
L 59.527573 56.304572 
L 59.842385 54.9205 
L 59.99979 55.254379 
L 60.157196 56.566983 
L 60.314602 56.526511 
L 60.472008 56.782602 
L 60.786819 55.991808 
L 61.10163 57.053807 
L 61.416442 55.89418 
L 61.573848 56.66808 
L 61.731253 56.320409 
L 61.888659 57.046202 
L 62.20347 56.222436 
L 62.360876 58.119073 
L 62.518282 56.481698 
L 62.675688 56.529925 
L 62.990499 56.36934 
L 63.147905 56.00673 
L 63.462716 57.689966 
L 63.777528 55.749065 
L 64.092339 55.922371 
L 64.407151 57.75607 
L 64.721962 55.895912 
L 64.879368 55.851277 
L 65.036773 57.015585 
L 65.194179 56.985906 
L 65.351585 56.762355 
L 65.508991 55.094715 
L 65.823802 56.291784 
L 65.981208 55.087596 
L 66.138613 56.294422 
L 66.296019 55.991735 
L 66.453425 55.770316 
L 66.768236 54.217024 
L 66.925642 54.11458 
L 67.240454 53.291414 
L 67.555265 54.354684 
L 67.712671 53.160727 
L 67.870076 53.348413 
L 68.027482 53.201959 
L 68.499699 50.927033 
L 68.657105 51.697347 
L 68.971916 50.300517 
L 69.129322 50.974028 
L 69.444134 48.984231 
L 69.601539 50.460239 
L 69.916351 48.63436 
L 70.073756 49.661137 
L 70.388568 47.586549 
L 71.647814 44.455332 
L 71.805219 45.489226 
L 71.962625 44.08304 
L 72.120031 44.80953 
L 72.277437 42.929542 
L 72.434842 44.35848 
L 72.749654 43.581823 
L 73.064465 41.579451 
L 73.221871 42.332455 
L 73.379277 41.919427 
L 73.694088 39.410322 
L 73.851494 40.184241 
L 74.166305 37.91571 
L 74.323711 37.519378 
L 74.481117 37.726594 
L 74.953334 36.004785 
L 75.11074 36.337528 
L 75.582957 34.086357 
L 75.740362 34.726958 
L 75.897768 33.886721 
L 76.055174 34.21764 
L 76.684797 31.424859 
L 76.842202 32.369141 
L 76.999608 31.795591 
L 77.157014 29.863443 
L 77.31442 30.160291 
L 77.471825 28.511672 
L 77.629231 30.042787 
L 78.258854 26.368306 
L 78.41626 27.760086 
L 78.731071 25.890442 
L 78.888477 26.331315 
L 79.045883 26.455933 
L 79.203288 24.814398 
L 79.360694 25.323932 
L 79.5181 23.533906 
L 79.675505 24.085075 
L 79.832911 23.818488 
L 80.147723 22.357358 
L 80.305128 22.702227 
L 80.462534 21.317478 
L 80.61994 21.743718 
L 80.777345 20.540171 
L 80.934751 21.845117 
L 81.092157 19.485347 
L 81.249563 19.742099 
L 81.406968 19.842438 
L 81.564374 20.495694 
L 82.036591 17.403424 
L 82.351403 17.614486 
L 82.508808 17.644899 
L 82.666214 16.365815 
L 82.82362 16.656688 
L 82.981026 15.986913 
L 83.295837 16.879405 
L 83.453243 14.581547 
L 83.610648 16.529013 
L 83.92546 15.130483 
L 84.082866 15.291057 
L 84.240271 14.990714 
L 84.555083 13.735446 
L 84.712488 13.524209 
L 84.869894 12.954921 
L 85.0273 14.01407 
L 85.184706 12.248276 
L 85.342111 12.598219 
L 85.499517 13.839066 
L 85.656923 12.388621 
L 85.814329 12.729481 
L 85.971734 12.646784 
L 86.12914 12.831933 
L 86.443951 10.751482 
L 86.601357 12.241286 
L 86.758763 11.247647 
L 87.23098 12.20672 
L 87.388386 11.781487 
L 87.545791 10.275105 
L 87.703197 11.943334 
L 88.018009 10.43853 
L 88.33282 11.380026 
L 88.490226 9.784439 
L 88.647632 9.847098 
L 88.805037 10.525982 
L 89.119849 9.65138 
L 89.277254 9.912995 
L 89.43466 10.802377 
L 89.592066 10.111719 
L 89.749472 10.183181 
L 89.906877 11.656637 
L 90.064283 10.713872 
L 90.221689 11.952094 
L 90.379094 11.717013 
L 90.5365 11.990901 
L 90.851312 11.449592 
L 91.008717 11.91304 
L 91.323529 10.80645 
L 91.63834 12.945805 
L 91.795746 11.118475 
L 91.953152 12.579689 
L 92.267963 11.52835 
L 92.425369 11.983129 
L 92.582775 13.888649 
L 92.74018 13.287731 
L 92.897586 13.818819 
L 93.054992 13.123423 
L 93.212397 13.496203 
L 93.369803 12.895228 
L 93.527209 14.347269 
L 93.684615 13.550076 
L 94.156832 15.559879 
L 94.314237 14.842418 
L 94.471643 15.415447 
L 94.629049 14.760034 
L 94.94386 17.019848 
L 95.101266 16.249867 
L 95.258672 16.619583 
L 95.416077 16.322866 
L 95.573483 16.624947 
L 95.730889 18.484758 
L 95.888295 18.145598 
L 96.517918 20.518688 
L 96.675323 18.804457 
L 97.462352 21.288922 
L 97.619758 22.722106 
L 97.777163 21.470294 
L 97.934569 23.904805 
L 98.091975 22.917314 
L 98.24938 24.677013 
L 98.406786 22.910449 
L 99.193815 26.823119 
L 99.351221 25.671094 
L 99.666032 28.115597 
L 99.823438 28.044717 
L 99.980843 26.977253 
L 100.453061 29.961874 
L 100.610466 29.161861 
L 100.767872 31.062085 
L 100.925278 30.81808 
L 101.082683 30.257478 
L 101.240089 32.667358 
L 101.554901 31.305704 
L 101.712306 33.467323 
L 101.869712 32.72978 
L 102.184523 33.30147 
L 102.656741 36.437914 
L 102.814146 35.768339 
L 103.286364 37.100615 
L 103.601175 38.824675 
L 103.915986 37.776388 
L 104.545609 41.100185 
L 104.703015 40.04345 
L 105.175232 43.193296 
L 105.332638 42.661182 
L 105.490044 44.028405 
L 105.647449 43.047623 
L 105.804855 44.70897 
L 105.962261 44.332639 
L 106.119666 45.236164 
L 106.277072 43.881698 
L 106.434478 45.944268 
L 106.591884 45.597863 
L 106.749289 47.290672 
L 106.906695 46.278702 
L 107.378912 47.837539 
L 107.536318 47.062231 
L 107.693724 49.039196 
L 107.851129 48.19815 
L 108.008535 48.33783 
L 108.480752 49.485746 
L 108.795564 51.526716 
L 108.952969 49.917912 
L 108.952969 49.917912 
" clip-path="url(#pfadbf29017)" style="fill: none; stroke: #3362b0; stroke-width: 1.5; stroke-linecap: square"/>
   </g>
   <g id="line2d_12">
    <path d="M 30.407515 11.517861 
L 30.564921 10.177575 
L 30.722326 10.302262 
L 30.879732 11.707487 
L 31.037138 10.319257 
L 31.194544 11.667045 
L 31.351949 11.631763 
L 31.666761 11.556001 
L 31.824166 12.288127 
L 31.981572 11.873802 
L 32.138978 12.49779 
L 32.296384 12.339716 
L 32.453789 11.340151 
L 32.768601 13.383762 
L 32.926006 12.208259 
L 33.083412 13.400949 
L 33.398224 12.141723 
L 33.713035 14.459269 
L 33.870441 14.068697 
L 34.027846 14.345669 
L 34.342658 15.58834 
L 34.500064 14.418827 
L 34.657469 14.990512 
L 34.814875 14.362953 
L 35.129687 15.459099 
L 35.601904 17.816772 
L 35.759309 17.612234 
L 35.916715 17.093239 
L 36.074121 18.647129 
L 36.388932 17.72939 
L 36.546338 19.705116 
L 36.703744 18.068771 
L 37.648178 21.599295 
L 37.805584 20.998505 
L 37.96299 22.865198 
L 38.120395 21.1401 
L 38.435207 23.998827 
L 38.592612 24.11141 
L 38.750018 22.810514 
L 39.06483 25.00187 
L 39.222235 25.007078 
L 39.379641 26.283631 
L 39.537047 25.013144 
L 39.694452 26.533482 
L 39.851858 25.823013 
L 40.16667 28.332181 
L 40.324075 27.012936 
L 40.796292 29.631083 
L 40.953698 28.427109 
L 41.111104 29.931935 
L 41.26851 29.353987 
L 41.740727 31.580156 
L 41.898133 30.945715 
L 42.055538 33.509354 
L 42.212944 32.070339 
L 42.37035 34.410757 
L 42.527755 34.040017 
L 42.685161 34.072187 
L 43.629595 37.308481 
L 43.787001 36.376962 
L 43.944407 37.066562 
L 44.259218 39.516274 
L 44.416624 38.95663 
L 44.731435 40.291912 
L 45.046247 41.043138 
L 45.361058 40.421226 
L 45.833276 43.095061 
L 45.990681 43.465238 
L 46.148087 42.617914 
L 46.462898 45.341759 
L 46.620304 44.718243 
L 46.935116 46.451683 
L 47.092521 44.791024 
L 47.249927 46.330021 
L 47.407333 45.581455 
L 48.036956 48.998682 
L 48.194361 47.872596 
L 48.351767 49.16488 
L 48.509173 48.403753 
L 48.666578 49.812779 
L 48.823984 49.703012 
L 48.98139 49.702909 
L 49.138796 51.076367 
L 49.296201 50.325865 
L 49.453607 51.817543 
L 49.611013 51.548753 
L 49.768419 51.72751 
L 49.925824 52.386259 
L 50.08323 50.936129 
L 50.240636 53.33589 
L 50.398041 51.682463 
L 50.555447 52.525342 
L 50.712853 52.019334 
L 50.870259 53.135084 
L 51.027664 53.071618 
L 51.18507 52.962379 
L 51.342476 53.306353 
L 51.499881 54.921341 
L 51.657287 54.37909 
L 51.814693 55.003573 
L 51.972099 53.795834 
L 52.28691 55.12749 
L 52.444316 54.962487 
L 52.601722 56.36302 
L 52.759127 54.844351 
L 53.073939 56.894915 
L 53.38875 55.892843 
L 53.703562 57.390648 
L 53.860967 55.421567 
L 54.175779 57.477552 
L 54.333184 56.406033 
L 54.49059 57.699556 
L 54.647996 57.642807 
L 54.805402 57.799102 
L 55.120213 55.893934 
L 55.435024 57.888356 
L 55.59243 57.8057 
L 55.907242 56.590959 
L 56.064647 56.735714 
L 56.222053 58.077917 
L 56.379459 56.744916 
L 56.536865 57.960552 
L 56.69427 56.539807 
L 56.851676 57.162588 
L 57.009082 55.664672 
L 57.166487 55.786414 
L 57.323893 55.984286 
L 57.481299 55.722094 
L 57.953516 57.071262 
L 58.110922 56.044634 
L 58.268327 56.645894 
L 58.425733 55.113111 
L 58.583139 56.437932 
L 58.740545 56.342832 
L 59.055356 54.122955 
L 59.370167 55.588728 
L 59.527573 54.473288 
L 59.684979 55.190406 
L 59.842385 54.62816 
L 59.99979 52.962838 
L 60.157196 54.741981 
L 60.314602 54.559248 
L 60.472008 54.181511 
L 60.629413 53.124963 
L 60.786819 53.46529 
L 60.944225 51.591698 
L 61.10163 52.608621 
L 61.573848 51.254202 
L 61.731253 50.292133 
L 61.888659 51.672699 
L 62.20347 49.647657 
L 62.360876 49.394875 
L 62.518282 50.410412 
L 62.833093 48.764227 
L 62.990499 49.680071 
L 63.305311 47.379263 
L 63.462716 48.665617 
L 63.777528 46.652691 
L 63.934933 47.19979 
L 64.092339 47.15022 
L 64.407151 44.755999 
L 64.564556 44.858866 
L 64.721962 45.247602 
L 65.036773 44.693588 
L 65.194179 43.469359 
L 65.351585 43.963649 
L 65.823802 42.805842 
L 65.981208 41.069851 
L 66.138613 41.239528 
L 66.610831 39.275571 
L 66.768236 39.353431 
L 67.083048 37.433097 
L 67.240454 38.692576 
L 67.397859 38.270549 
L 67.870076 35.72033 
L 68.027482 35.164169 
L 68.342294 36.075606 
L 68.657105 33.254373 
L 69.601539 30.47398 
L 69.758945 31.226684 
L 69.916351 29.884317 
L 70.073756 30.809917 
L 70.388568 28.397923 
L 70.545974 29.291552 
L 70.703379 28.967341 
L 71.018191 27.054526 
L 71.175597 27.336393 
L 71.490408 26.025193 
L 71.647814 27.152371 
L 72.120031 24.003879 
L 72.277437 25.043839 
L 72.592248 22.460772 
L 72.907059 23.559151 
L 73.221871 20.941257 
L 73.536682 22.084573 
L 73.851494 19.887042 
L 74.0089 21.407289 
L 74.323711 18.906052 
L 74.481117 19.314712 
L 74.795928 17.72657 
L 74.953334 17.945148 
L 75.268145 17.290228 
L 75.425551 18.360606 
L 75.740362 16.22707 
L 75.897768 17.333292 
L 76.055174 15.438264 
L 76.369985 16.70134 
L 76.684797 14.992489 
L 76.842202 14.853648 
L 77.157014 15.180638 
L 77.31442 14.240864 
L 77.629231 14.8028 
L 77.786637 12.494442 
L 77.944043 13.450801 
L 78.101448 12.119663 
L 78.41626 13.019789 
L 78.731071 11.491162 
L 78.888477 12.953106 
L 79.045883 12.646187 
L 79.203288 11.980868 
L 79.360694 12.430319 
L 79.5181 11.672914 
L 79.675505 11.753028 
L 79.832911 11.821751 
L 79.990317 11.603587 
L 80.147723 10.103583 
L 80.462534 12.142229 
L 80.61994 9.868725 
L 80.777345 10.238793 
L 80.934751 11.318085 
L 81.092157 11.045094 
L 81.249563 10.280915 
L 81.406968 11.16477 
L 81.564374 10.963273 
L 81.72178 11.123409 
L 82.036591 10.709918 
L 82.193997 9.75986 
L 82.351403 11.319512 
L 82.508808 10.272091 
L 82.82362 11.78858 
L 83.138431 10.285498 
L 83.295837 11.548629 
L 83.453243 10.358533 
L 83.610648 11.987673 
L 83.768054 11.776719 
L 84.082866 11.04414 
L 84.240271 11.329864 
L 84.397677 12.424711 
L 84.555083 11.46686 
L 84.869894 12.920355 
L 85.0273 13.374751 
L 85.184706 12.952759 
L 85.342111 11.931448 
L 85.499517 12.29116 
L 85.814329 13.900029 
L 86.12914 12.65937 
L 86.601357 15.536491 
L 86.758763 14.757195 
L 87.073574 16.012947 
L 87.23098 14.680055 
L 87.388386 14.839651 
L 87.545791 15.555478 
L 87.703197 17.397842 
L 87.860603 16.964052 
L 88.018009 15.885551 
L 88.175414 16.019852 
L 88.647632 17.937751 
L 88.962443 18.953188 
L 89.119849 18.739672 
L 89.277254 20.431409 
L 89.592066 19.440571 
L 89.749472 21.242463 
L 89.906877 21.159634 
L 90.221689 22.524385 
L 90.379094 22.512646 
L 90.5365 23.364259 
L 90.693906 21.9149 
L 91.008717 23.0461 
L 91.166123 22.732341 
L 91.323529 24.27386 
L 91.480934 24.242156 
L 91.63834 24.39206 
L 91.795746 26.270789 
L 91.953152 25.387911 
L 92.110557 25.689133 
L 92.267963 26.552224 
L 92.425369 26.120243 
L 92.582775 27.527301 
L 92.74018 27.09002 
L 93.527209 29.233393 
L 93.84202 31.029238 
L 93.999426 30.74973 
L 94.471643 33.302227 
L 94.629049 33.270905 
L 95.416077 36.376528 
L 95.573483 34.851586 
L 95.730889 36.706167 
L 95.888295 36.684881 
L 96.203106 38.327454 
L 96.360512 36.778431 
L 96.832729 39.622401 
L 97.462352 41.651196 
L 97.619758 40.156753 
L 97.934569 42.358149 
L 98.091975 41.76423 
L 98.24938 41.984198 
L 98.406786 44.429725 
L 98.564192 43.675871 
L 98.721598 45.110593 
L 99.036409 44.131402 
L 99.508626 45.538516 
L 99.666032 45.654913 
L 100.295655 48.170503 
L 100.453061 49.031154 
L 100.767872 48.292553 
L 100.925278 48.353126 
L 101.240089 50.902756 
L 101.397495 50.274049 
L 101.869712 51.958568 
L 102.027118 50.790247 
L 102.184523 52.481267 
L 102.499335 51.057585 
L 102.656741 51.576048 
L 102.971552 53.92226 
L 103.128958 52.985895 
L 103.601175 54.121234 
L 103.758581 53.121294 
L 103.915986 55.001009 
L 104.073392 53.630477 
L 104.230798 53.665598 
L 104.388204 53.936538 
L 104.703015 55.562528 
L 104.860421 54.404804 
L 105.017826 54.579191 
L 105.332638 56.63153 
L 105.490044 55.564242 
L 105.647449 56.255558 
L 105.804855 56.147523 
L 105.962261 55.975442 
L 106.119666 55.400403 
L 106.434478 56.79093 
L 106.591884 57.268932 
L 106.906695 56.677628 
L 107.064101 56.851695 
L 107.221507 57.780142 
L 107.378912 56.089001 
L 107.693724 58.170949 
L 107.851129 57.263739 
L 108.165941 58.093095 
L 108.638158 56.273766 
L 108.795564 56.651495 
L 108.952969 57.592961 
L 108.952969 57.592961 
" clip-path="url(#pfadbf29017)" style="fill: none; stroke: #cc3164; stroke-width: 1.5; stroke-linecap: square"/>
   </g>
   <g id="patch_3">
    <path d="M 26.480242 60.598137 
L 26.480242 7.2 
" style="fill: none; stroke: #4d4f53; stroke-width: 0.8; stroke-linejoin: miter; stroke-linecap: square"/>
   </g>
   <g id="patch_4">
    <path d="M 112.880242 60.598137 
L 112.880242 7.2 
" style="fill: none; stroke: #4d4f53; stroke-width: 0.8; stroke-linejoin: miter; stroke-linecap: square"/>
   </g>
   <g id="patch_5">
    <path d="M 26.480242 60.598137 
L 112.880242 60.598137 
" style="fill: none; stroke: #4d4f53; stroke-width: 0.8; stroke-linejoin: miter; stroke-linecap: square"/>
   </g>
   <g id="patch_6">
    <path d="M 26.480242 7.2 
L 112.880242 7.2 
" style="fill: none; stroke: #4d4f53; stroke-width: 0.8; stroke-linejoin: miter; stroke-linecap: square"/>
   </g>
  </g>
  <g id="axes_2">
   <g id="patch_7">
    <path d="M 134.480242 60.598137 
L 220.880242 60.598137 
L 220.880242 7.2 
L 134.480242 7.2 
L 134.480242 60.598137 
z
" style="fill: none"/>
   </g>
   <g id="matplotlib.axis_3">
    <g id="xtick_3">
     <g id="line2d_13">
      <path d="M 138.407515 60.598137 
L 138.407515 7.2 
" clip-path="url(#pdc3c5da55d)" style="fill: none; stroke-dasharray: 2.96,1.28; stroke-dashoffset: 0; stroke: #dddfe5; stroke-width: 0.8"/>
     </g>
     <g id="line2d_14">
      <g>
       <use xlink:href="#mc5245bb638" x="138.407515" y="60.598137" style="fill: #4d4f53; stroke: #4d4f53; stroke-width: 0.8"/>
      </g>
     </g>
     <g id="text_6">
      <!-- 0 -->
      <g style="fill: #4d4f53" transform="translate(135.757534 73.926984) scale(0.0833 -0.0833)">
       <use xlink:href="#DejaVuSans-13"/>
      </g>
     </g>
    </g>
    <g id="xtick_4">
     <g id="line2d_15">
      <path d="M 180.077173 60.598137 
L 180.077173 7.2 
" clip-path="url(#pdc3c5da55d)" style="fill: none; stroke-dasharray: 2.96,1.28; stroke-dashoffset: 0; stroke: #dddfe5; stroke-width: 0.8"/>
     </g>
     <g id="line2d_16">
      <g>
       <use xlink:href="#mc5245bb638" x="180.077173" y="60.598137" style="fill: #4d4f53; stroke: #4d4f53; stroke-width: 0.8"/>
      </g>
     </g>
     <g id="text_7">
      <!-- 5 -->
      <g style="fill: #4d4f53" transform="translate(177.427191 73.926984) scale(0.0833 -0.0833)">
       <use xlink:href="#DejaVuSans-18"/>
      </g>
     </g>
    </g>
   </g>
   <g id="matplotlib.axis_4">
    <g id="ytick_4">
     <g id="line2d_17">
      <path d="M 134.480242 58.192421 
L 220.880242 58.192421 
" clip-path="url(#pdc3c5da55d)" style="fill: none; stroke-dasharray: 2.96,1.28; stroke-dashoffset: 0; stroke: #dddfe5; stroke-width: 0.8"/>
     </g>
     <g id="line2d_18">
      <g>
       <use xlink:href="#m2775e30b42" x="134.480242" y="58.192421" style="fill: #4d4f53; stroke: #4d4f53; stroke-width: 0.8"/>
      </g>
     </g>
     <g id="text_8">
      <!-- −1 -->
      <g style="fill: #4d4f53" transform="translate(115.2 61.356844) scale(0.0833 -0.0833)">
       <use xlink:href="#DejaVuSans-c9c"/>
       <use xlink:href="#DejaVuSans-14" transform="translate(83.796875 0)"/>
      </g>
     </g>
    </g>
    <g id="ytick_5">
     <g id="line2d_19">
      <path d="M 134.480242 35.061774 
L 220.880242 35.061774 
" clip-path="url(#pdc3c5da55d)" style="fill: none; stroke-dasharray: 2.96,1.28; stroke-dashoffset: 0; stroke: #dddfe5; stroke-width: 0.8"/>
     </g>
     <g id="line2d_20">
      <g>
       <use xlink:href="#m2775e30b42" x="134.480242" y="35.061774" style="fill: #4d4f53; stroke: #4d4f53; stroke-width: 0.8"/>
      </g>
     </g>
     <g id="text_9">
      <!-- 0 -->
      <g style="fill: #4d4f53" transform="translate(122.18028 38.226198) scale(0.0833 -0.0833)">
       <use xlink:href="#DejaVuSans-13"/>
      </g>
     </g>
    </g>
    <g id="ytick_6">
     <g id="line2d_21">
      <path d="M 134.480242 11.931127 
L 220.880242 11.931127 
" clip-path="url(#pdc3c5da55d)" style="fill: none; stroke-dasharray: 2.96,1.28; stroke-dashoffset: 0; stroke: #dddfe5; stroke-width: 0.8"/>
     </g>
     <g id="line2d_22">
      <g>
       <use xlink:href="#m2775e30b42" x="134.480242" y="11.931127" style="fill: #4d4f53; stroke: #4d4f53; stroke-width: 0.8"/>
      </g>
     </g>
     <g id="text_10">
      <!-- 1 -->
      <g style="fill: #4d4f53" transform="translate(122.18028 15.095551) scale(0.0833 -0.0833)">
       <use xlink:href="#DejaVuSans-14"/>
      </g>
     </g>
    </g>
   </g>
   <g id="line2d_23">
    <path d="M 138.407515 17.732838 
L 139.037138 15.7622 
L 139.194544 16.086626 
L 139.351949 14.172563 
L 139.509355 14.479705 
L 139.666761 15.659293 
L 139.981572 13.995087 
L 140.138978 14.931496 
L 140.296384 12.724742 
L 140.453789 13.760693 
L 140.768601 12.54312 
L 140.926006 13.35241 
L 141.240818 12.475137 
L 141.398224 11.898834 
L 141.555629 13.060981 
L 141.713035 12.67477 
L 141.870441 11.644734 
L 142.027846 11.900749 
L 142.185252 12.51275 
L 142.342658 11.847389 
L 142.500064 12.227421 
L 142.814875 10.557147 
L 142.972281 11.963193 
L 143.129687 10.094558 
L 143.287092 11.250399 
L 143.444498 11.002172 
L 143.601904 10.928949 
L 143.759309 12.02309 
L 144.074121 9.6865 
L 144.388932 11.648554 
L 144.703744 10.328383 
L 144.861149 11.932698 
L 145.018555 11.10117 
L 145.175961 11.843546 
L 145.333367 10.185779 
L 145.490772 11.243037 
L 145.648178 10.475813 
L 145.805584 11.021461 
L 145.96299 9.97247 
L 146.435207 11.161034 
L 146.592612 10.257278 
L 146.907424 12.750087 
L 147.06483 12.698838 
L 147.222235 10.862242 
L 147.379641 10.919717 
L 147.694452 12.680604 
L 147.851858 11.957686 
L 148.009264 13.772633 
L 148.16667 12.215739 
L 148.324075 12.603805 
L 148.481481 13.906992 
L 148.796292 12.643519 
L 148.953698 14.58867 
L 149.111104 13.077255 
L 149.26851 14.660135 
L 149.425915 14.024485 
L 149.583321 15.271168 
L 149.740727 14.932479 
L 149.898133 15.976813 
L 150.055538 15.566256 
L 150.37035 16.274112 
L 150.527755 15.638983 
L 150.685161 16.616293 
L 150.842567 16.375987 
L 150.999973 16.51525 
L 151.157378 17.841466 
L 151.314784 16.861329 
L 151.944407 19.183713 
L 152.101813 18.512679 
L 152.57403 21.099836 
L 152.731435 19.818189 
L 153.203653 22.563609 
L 153.361058 22.491922 
L 153.833276 24.348582 
L 153.990681 23.449156 
L 154.148087 25.361862 
L 154.305493 25.283874 
L 154.620304 24.471338 
L 154.935116 26.509186 
L 155.092521 25.890434 
L 155.249927 25.985568 
L 155.564738 28.219584 
L 155.722144 27.928596 
L 156.036956 30.323757 
L 156.194361 30.018723 
L 156.351767 30.135251 
L 156.509173 31.576536 
L 156.666578 30.004374 
L 157.611013 34.443866 
L 157.768419 34.620183 
L 157.925824 34.029952 
L 158.08323 34.931405 
L 158.240636 34.314571 
L 158.712853 37.353581 
L 159.027664 37.650461 
L 159.18507 38.904822 
L 159.342476 38.040751 
L 159.499881 39.80467 
L 159.657287 38.692013 
L 159.814693 39.263336 
L 159.972099 41.192016 
L 160.129504 39.867152 
L 160.28691 41.266844 
L 160.444316 40.66988 
L 160.916533 43.29665 
L 161.073939 42.140834 
L 161.231344 43.872097 
L 161.38875 43.17347 
L 161.546156 43.986291 
L 161.703562 43.597555 
L 162.175779 46.639716 
L 162.333184 44.99 
L 162.647996 47.594381 
L 162.805402 46.734621 
L 163.120213 47.730186 
L 163.277619 47.253891 
L 163.435024 47.612087 
L 163.59243 49.418791 
L 163.749836 48.692738 
L 164.222053 51.179543 
L 164.379459 51.147973 
L 164.536865 50.443866 
L 164.69427 51.558857 
L 164.851676 51.48661 
L 165.009082 51.993706 
L 165.166487 51.915322 
L 165.323893 51.826944 
L 165.481299 51.41051 
L 165.638705 53.787851 
L 165.79611 52.828583 
L 165.953516 52.8775 
L 166.110922 54.230625 
L 166.268327 53.147218 
L 166.425733 54.175374 
L 166.583139 54.083907 
L 166.740545 54.138693 
L 166.89795 53.72277 
L 167.212762 54.603985 
L 167.527573 56.304572 
L 167.842385 54.9205 
L 167.99979 55.254379 
L 168.157196 56.566983 
L 168.314602 56.526511 
L 168.472008 56.782602 
L 168.786819 55.991808 
L 169.10163 57.053807 
L 169.416442 55.89418 
L 169.573848 56.66808 
L 169.731253 56.320409 
L 169.888659 57.046202 
L 170.20347 56.222436 
L 170.360876 58.119073 
L 170.518282 56.481698 
L 170.675688 56.529925 
L 170.990499 56.36934 
L 171.147905 56.00673 
L 171.462716 57.689966 
L 171.777528 55.749065 
L 172.092339 55.922371 
L 172.407151 57.75607 
L 172.721962 55.895912 
L 172.879368 55.851277 
L 173.036773 57.015585 
L 173.194179 56.985906 
L 173.351585 56.762355 
L 173.508991 55.094715 
L 173.823802 56.291784 
L 173.981208 55.087596 
L 174.138613 56.294422 
L 174.296019 55.991735 
L 174.453425 55.770316 
L 174.768236 54.217024 
L 174.925642 54.11458 
L 175.240454 53.291414 
L 175.555265 54.354684 
L 175.712671 53.160727 
L 175.870076 53.348413 
L 176.027482 53.201959 
L 176.499699 50.927033 
L 176.657105 51.697347 
L 176.971916 50.300517 
L 177.129322 50.974028 
L 177.444134 48.984231 
L 177.601539 50.460239 
L 177.916351 48.63436 
L 178.073756 49.661137 
L 178.388568 47.586549 
L 179.647814 44.455332 
L 179.805219 45.489226 
L 179.962625 44.08304 
L 180.120031 44.80953 
L 180.277437 42.929542 
L 180.434842 44.35848 
L 180.749654 43.581823 
L 181.064465 41.579451 
L 181.221871 42.332455 
L 181.379277 41.919427 
L 181.694088 39.410322 
L 181.851494 40.184241 
L 182.166305 37.91571 
L 182.323711 37.519378 
L 182.481117 37.726594 
L 182.953334 36.004785 
L 183.11074 36.337528 
L 183.582957 34.086357 
L 183.740362 34.726958 
L 183.897768 33.886721 
L 184.055174 34.21764 
L 184.684797 31.424859 
L 184.842202 32.369141 
L 184.999608 31.795591 
L 185.157014 29.863443 
L 185.31442 30.160291 
L 185.471825 28.511672 
L 185.629231 30.042787 
L 186.258854 26.368306 
L 186.41626 27.760086 
L 186.731071 25.890442 
L 186.888477 26.331315 
L 187.045883 26.455933 
L 187.203288 24.814398 
L 187.360694 25.323932 
L 187.5181 23.533906 
L 187.675505 24.085075 
L 187.832911 23.818488 
L 188.147723 22.357358 
L 188.305128 22.702227 
L 188.462534 21.317478 
L 188.61994 21.743718 
L 188.777345 20.540171 
L 188.934751 21.845117 
L 189.092157 19.485347 
L 189.249563 19.742099 
L 189.406968 19.842438 
L 189.564374 20.495694 
L 190.036591 17.403424 
L 190.351403 17.614486 
L 190.508808 17.644899 
L 190.666214 16.365815 
L 190.82362 16.656688 
L 190.981026 15.986913 
L 191.295837 16.879405 
L 191.453243 14.581547 
L 191.610648 16.529013 
L 191.92546 15.130483 
L 192.082866 15.291057 
L 192.240271 14.990714 
L 192.555083 13.735446 
L 192.712488 13.524209 
L 192.869894 12.954921 
L 193.0273 14.01407 
L 193.184706 12.248276 
L 193.342111 12.598219 
L 193.499517 13.839066 
L 193.656923 12.388621 
L 193.814329 12.729481 
L 193.971734 12.646784 
L 194.12914 12.831933 
L 194.443951 10.751482 
L 194.601357 12.241286 
L 194.758763 11.247647 
L 195.23098 12.20672 
L 195.388386 11.781487 
L 195.545791 10.275105 
L 195.703197 11.943334 
L 196.018009 10.43853 
L 196.33282 11.380026 
L 196.490226 9.784439 
L 196.647632 9.847098 
L 196.805037 10.525982 
L 197.119849 9.65138 
L 197.277254 9.912995 
L 197.43466 10.802377 
L 197.592066 10.111719 
L 197.749472 10.183181 
L 197.906877 11.656637 
L 198.064283 10.713872 
L 198.221689 11.952094 
L 198.379094 11.717013 
L 198.5365 11.990901 
L 198.851312 11.449592 
L 199.008717 11.91304 
L 199.323529 10.80645 
L 199.63834 12.945805 
L 199.795746 11.118475 
L 199.953152 12.579689 
L 200.267963 11.52835 
L 200.425369 11.983129 
L 200.582775 13.888649 
L 200.74018 13.287731 
L 200.897586 13.818819 
L 201.054992 13.123423 
L 201.212397 13.496203 
L 201.369803 12.895228 
L 201.527209 14.347269 
L 201.684615 13.550076 
L 202.156832 15.559879 
L 202.314237 14.842418 
L 202.471643 15.415447 
L 202.629049 14.760034 
L 202.94386 17.019848 
L 203.101266 16.249867 
L 203.258672 16.619583 
L 203.416077 16.322866 
L 203.573483 16.624947 
L 203.730889 18.484758 
L 203.888295 18.145598 
L 204.517918 20.518688 
L 204.675323 18.804457 
L 205.462352 21.288922 
L 205.619758 22.722106 
L 205.777163 21.470294 
L 205.934569 23.904805 
L 206.091975 22.917314 
L 206.24938 24.677013 
L 206.406786 22.910449 
L 207.193815 26.823119 
L 207.351221 25.671094 
L 207.666032 28.115597 
L 207.823438 28.044717 
L 207.980843 26.977253 
L 208.453061 29.961874 
L 208.610466 29.161861 
L 208.767872 31.062085 
L 208.925278 30.81808 
L 209.082683 30.257478 
L 209.240089 32.667358 
L 209.554901 31.305704 
L 209.712306 33.467323 
L 209.869712 32.72978 
L 210.184523 33.30147 
L 210.656741 36.437914 
L 210.814146 35.768339 
L 211.286364 37.100615 
L 211.601175 38.824675 
L 211.915986 37.776388 
L 212.545609 41.100185 
L 212.703015 40.04345 
L 213.175232 43.193296 
L 213.332638 42.661182 
L 213.490044 44.028405 
L 213.647449 43.047623 
L 213.804855 44.70897 
L 213.962261 44.332639 
L 214.119666 45.236164 
L 214.277072 43.881698 
L 214.434478 45.944268 
L 214.591884 45.597863 
L 214.749289 47.290672 
L 214.906695 46.278702 
L 215.378912 47.837539 
L 215.536318 47.062231 
L 215.693724 49.039196 
L 215.851129 48.19815 
L 216.008535 48.33783 
L 216.480752 49.485746 
L 216.795564 51.526716 
L 216.952969 49.917912 
L 216.952969 49.917912 
" clip-path="url(#pdc3c5da55d)" style="fill: none; stroke: #3362b0; stroke-width: 1.5; stroke-linecap: square"/>
   </g>
   <g id="line2d_24">
    <path d="M 138.407515 11.517861 
L 138.564921 10.177575 
L 138.722326 10.302262 
L 138.879732 11.707487 
L 139.037138 10.319257 
L 139.194544 11.667045 
L 139.351949 11.631763 
L 139.666761 11.556001 
L 139.824166 12.288127 
L 139.981572 11.873802 
L 140.138978 12.49779 
L 140.296384 12.339716 
L 140.453789 11.340151 
L 140.768601 13.383762 
L 140.926006 12.208259 
L 141.083412 13.400949 
L 141.398224 12.141723 
L 141.713035 14.459269 
L 141.870441 14.068697 
L 142.027846 14.345669 
L 142.342658 15.58834 
L 142.500064 14.418827 
L 142.657469 14.990512 
L 142.814875 14.362953 
L 143.129687 15.459099 
L 143.601904 17.816772 
L 143.759309 17.612234 
L 143.916715 17.093239 
L 144.074121 18.647129 
L 144.388932 17.72939 
L 144.546338 19.705116 
L 144.703744 18.068771 
L 145.648178 21.599295 
L 145.805584 20.998505 
L 145.96299 22.865198 
L 146.120395 21.1401 
L 146.435207 23.998827 
L 146.592612 24.11141 
L 146.750018 22.810514 
L 147.06483 25.00187 
L 147.222235 25.007078 
L 147.379641 26.283631 
L 147.537047 25.013144 
L 147.694452 26.533482 
L 147.851858 25.823013 
L 148.16667 28.332181 
L 148.324075 27.012936 
L 148.796292 29.631083 
L 148.953698 28.427109 
L 149.111104 29.931935 
L 149.26851 29.353987 
L 149.740727 31.580156 
L 149.898133 30.945715 
L 150.055538 33.509354 
L 150.212944 32.070339 
L 150.37035 34.410757 
L 150.527755 34.040017 
L 150.685161 34.072187 
L 151.629595 37.308481 
L 151.787001 36.376962 
L 151.944407 37.066562 
L 152.259218 39.516274 
L 152.416624 38.95663 
L 152.731435 40.291912 
L 153.046247 41.043138 
L 153.361058 40.421226 
L 153.833276 43.095061 
L 153.990681 43.465238 
L 154.148087 42.617914 
L 154.462898 45.341759 
L 154.620304 44.718243 
L 154.935116 46.451683 
L 155.092521 44.791024 
L 155.249927 46.330021 
L 155.407333 45.581455 
L 156.036956 48.998682 
L 156.194361 47.872596 
L 156.351767 49.16488 
L 156.509173 48.403753 
L 156.666578 49.812779 
L 156.823984 49.703012 
L 156.98139 49.702909 
L 157.138796 51.076367 
L 157.296201 50.325865 
L 157.453607 51.817543 
L 157.611013 51.548753 
L 157.768419 51.72751 
L 157.925824 52.386259 
L 158.08323 50.936129 
L 158.240636 53.33589 
L 158.398041 51.682463 
L 158.555447 52.525342 
L 158.712853 52.019334 
L 158.870259 53.135084 
L 159.027664 53.071618 
L 159.18507 52.962379 
L 159.342476 53.306353 
L 159.499881 54.921341 
L 159.657287 54.37909 
L 159.814693 55.003573 
L 159.972099 53.795834 
L 160.28691 55.12749 
L 160.444316 54.962487 
L 160.601722 56.36302 
L 160.759127 54.844351 
L 161.073939 56.894915 
L 161.38875 55.892843 
L 161.703562 57.390648 
L 161.860967 55.421567 
L 162.175779 57.477552 
L 162.333184 56.406033 
L 162.49059 57.699556 
L 162.647996 57.642807 
L 162.805402 57.799102 
L 163.120213 55.893934 
L 163.435024 57.888356 
L 163.59243 57.8057 
L 163.907242 56.590959 
L 164.064647 56.735714 
L 164.222053 58.077917 
L 164.379459 56.744916 
L 164.536865 57.960552 
L 164.69427 56.539807 
L 164.851676 57.162588 
L 165.009082 55.664672 
L 165.166487 55.786414 
L 165.323893 55.984286 
L 165.481299 55.722094 
L 165.953516 57.071262 
L 166.110922 56.044634 
L 166.268327 56.645894 
L 166.425733 55.113111 
L 166.583139 56.437932 
L 166.740545 56.342832 
L 167.055356 54.122955 
L 167.370167 55.588728 
L 167.527573 54.473288 
L 167.684979 55.190406 
L 167.842385 54.62816 
L 167.99979 52.962838 
L 168.157196 54.741981 
L 168.314602 54.559248 
L 168.472008 54.181511 
L 168.629413 53.124963 
L 168.786819 53.46529 
L 168.944225 51.591698 
L 169.10163 52.608621 
L 169.573848 51.254202 
L 169.731253 50.292133 
L 169.888659 51.672699 
L 170.20347 49.647657 
L 170.360876 49.394875 
L 170.518282 50.410412 
L 170.833093 48.764227 
L 170.990499 49.680071 
L 171.305311 47.379263 
L 171.462716 48.665617 
L 171.777528 46.652691 
L 171.934933 47.19979 
L 172.092339 47.15022 
L 172.407151 44.755999 
L 172.564556 44.858866 
L 172.721962 45.247602 
L 173.036773 44.693588 
L 173.194179 43.469359 
L 173.351585 43.963649 
L 173.823802 42.805842 
L 173.981208 41.069851 
L 174.138613 41.239528 
L 174.610831 39.275571 
L 174.768236 39.353431 
L 175.083048 37.433097 
L 175.240454 38.692576 
L 175.397859 38.270549 
L 175.870076 35.72033 
L 176.027482 35.164169 
L 176.342294 36.075606 
L 176.657105 33.254373 
L 177.601539 30.47398 
L 177.758945 31.226684 
L 177.916351 29.884317 
L 178.073756 30.809917 
L 178.388568 28.397923 
L 178.545974 29.291552 
L 178.703379 28.967341 
L 179.018191 27.054526 
L 179.175597 27.336393 
L 179.490408 26.025193 
L 179.647814 27.152371 
L 180.120031 24.003879 
L 180.277437 25.043839 
L 180.592248 22.460772 
L 180.907059 23.559151 
L 181.221871 20.941257 
L 181.536682 22.084573 
L 181.851494 19.887042 
L 182.0089 21.407289 
L 182.323711 18.906052 
L 182.481117 19.314712 
L 182.795928 17.72657 
L 182.953334 17.945148 
L 183.268145 17.290228 
L 183.425551 18.360606 
L 183.740362 16.22707 
L 183.897768 17.333292 
L 184.055174 15.438264 
L 184.369985 16.70134 
L 184.684797 14.992489 
L 184.842202 14.853648 
L 185.157014 15.180638 
L 185.31442 14.240864 
L 185.629231 14.8028 
L 185.786637 12.494442 
L 185.944043 13.450801 
L 186.101448 12.119663 
L 186.41626 13.019789 
L 186.731071 11.491162 
L 186.888477 12.953106 
L 187.045883 12.646187 
L 187.203288 11.980868 
L 187.360694 12.430319 
L 187.5181 11.672914 
L 187.675505 11.753028 
L 187.832911 11.821751 
L 187.990317 11.603587 
L 188.147723 10.103583 
L 188.462534 12.142229 
L 188.61994 9.868725 
L 188.777345 10.238793 
L 188.934751 11.318085 
L 189.092157 11.045094 
L 189.249563 10.280915 
L 189.406968 11.16477 
L 189.564374 10.963273 
L 189.72178 11.123409 
L 190.036591 10.709918 
L 190.193997 9.75986 
L 190.351403 11.319512 
L 190.508808 10.272091 
L 190.82362 11.78858 
L 191.138431 10.285498 
L 191.295837 11.548629 
L 191.453243 10.358533 
L 191.610648 11.987673 
L 191.768054 11.776719 
L 192.082866 11.04414 
L 192.240271 11.329864 
L 192.397677 12.424711 
L 192.555083 11.46686 
L 192.869894 12.920355 
L 193.0273 13.374751 
L 193.184706 12.952759 
L 193.342111 11.931448 
L 193.499517 12.29116 
L 193.814329 13.900029 
L 194.12914 12.65937 
L 194.601357 15.536491 
L 194.758763 14.757195 
L 195.073574 16.012947 
L 195.23098 14.680055 
L 195.388386 14.839651 
L 195.545791 15.555478 
L 195.703197 17.397842 
L 195.860603 16.964052 
L 196.018009 15.885551 
L 196.175414 16.019852 
L 196.647632 17.937751 
L 196.962443 18.953188 
L 197.119849 18.739672 
L 197.277254 20.431409 
L 197.592066 19.440571 
L 197.749472 21.242463 
L 197.906877 21.159634 
L 198.221689 22.524385 
L 198.379094 22.512646 
L 198.5365 23.364259 
L 198.693906 21.9149 
L 199.008717 23.0461 
L 199.166123 22.732341 
L 199.323529 24.27386 
L 199.480934 24.242156 
L 199.63834 24.39206 
L 199.795746 26.270789 
L 199.953152 25.387911 
L 200.110557 25.689133 
L 200.267963 26.552224 
L 200.425369 26.120243 
L 200.582775 27.527301 
L 200.74018 27.09002 
L 201.527209 29.233393 
L 201.84202 31.029238 
L 201.999426 30.74973 
L 202.471643 33.302227 
L 202.629049 33.270905 
L 203.416077 36.376528 
L 203.573483 34.851586 
L 203.730889 36.706167 
L 203.888295 36.684881 
L 204.203106 38.327454 
L 204.360512 36.778431 
L 204.832729 39.622401 
L 205.462352 41.651196 
L 205.619758 40.156753 
L 205.934569 42.358149 
L 206.091975 41.76423 
L 206.24938 41.984198 
L 206.406786 44.429725 
L 206.564192 43.675871 
L 206.721598 45.110593 
L 207.036409 44.131402 
L 207.508626 45.538516 
L 207.666032 45.654913 
L 208.295655 48.170503 
L 208.453061 49.031154 
L 208.767872 48.292553 
L 208.925278 48.353126 
L 209.240089 50.902756 
L 209.397495 50.274049 
L 209.869712 51.958568 
L 210.027118 50.790247 
L 210.184523 52.481267 
L 210.499335 51.057585 
L 210.656741 51.576048 
L 210.971552 53.92226 
L 211.128958 52.985895 
L 211.601175 54.121234 
L 211.758581 53.121294 
L 211.915986 55.001009 
L 212.073392 53.630477 
L 212.230798 53.665598 
L 212.388204 53.936538 
L 212.703015 55.562528 
L 212.860421 54.404804 
L 213.017826 54.579191 
L 213.332638 56.63153 
L 213.490044 55.564242 
L 213.647449 56.255558 
L 213.804855 56.147523 
L 213.962261 55.975442 
L 214.119666 55.400403 
L 214.434478 56.79093 
L 214.591884 57.268932 
L 214.906695 56.677628 
L 215.064101 56.851695 
L 215.221507 57.780142 
L 215.378912 56.089001 
L 215.693724 58.170949 
L 215.851129 57.263739 
L 216.165941 58.093095 
L 216.638158 56.273766 
L 216.795564 56.651495 
L 216.952969 57.592961 
L 216.952969 57.592961 
" clip-path="url(#pdc3c5da55d)" style="fill: none; stroke: #cc3164; stroke-width: 1.5; stroke-linecap: square"/>
   </g>
   <g id="patch_8">
    <path d="M 134.480242 60.598137 
L 134.480242 7.2 
" style="fill: none; stroke: #4d4f53; stroke-width: 0.8; stroke-linejoin: miter; stroke-linecap: square"/>
   </g>
   <g id="patch_9">
    <path d="M 220.880242 60.598137 
L 220.880242 7.2 
" style="fill: none; stroke: #4d4f53; stroke-width: 0.8; stroke-linejoin: miter; stroke-linecap: square"/>
   </g>
   <g id="patch_10">
    <path d="M 134.480242 60.598137 
L 220.880242 60.598137 
" style="fill: none; stroke: #4d4f53; stroke-width: 0.8; stroke-linejoin: miter; stroke-linecap: square"/>
   </g>
   <g id="patch_11">
    <path d="M 134.480242 7.2 
L 220.880242 7.2 
" style="fill: none; stroke: #4d4f53; stroke-width: 0.8; stroke-linejoin: miter; stroke-linecap: square"/>
   </g>
  </g>
  <g id="legend_1">
   <g id="patch_12">
    <path d="M 226.712242 48.060719 
L 259.782342 48.060719 
L 259.782342 19.737418 
L 226.712242 19.737418 
L 226.712242 48.060719 
z
" style="fill: none; opacity: 0"/>
   </g>
   <g id="line2d_25">
    <path d="M 230.877242 27.316416 
L 236.708242 27.316416 
L 242.539242 27.316416 
" style="fill: none; stroke: #3362b0; stroke-width: 1.5; stroke-linecap: square"/>
   </g>
   <g id="text_11">
    <!-- $x_1$ -->
    <g style="fill: #4d4f53" transform="translate(246.704242 30.231916) scale(0.0833 -0.0833)">
     <defs>
      <path id="DejaVuSans-Oblique-5b" d="M 3841 3500 
L 2234 1784 
L 3219 0 
L 2559 0 
L 1819 1388 
L 531 0 
L -166 0 
L 1556 1844 
L 641 3500 
L 1300 3500 
L 1972 2234 
L 3144 3500 
L 3841 3500 
z
" transform="scale(0.015625)"/>
     </defs>
     <use xlink:href="#DejaVuSans-Oblique-5b" transform="translate(0 0.3125)"/>
     <use xlink:href="#DejaVuSans-14" transform="translate(59.179688 -14.687451) scale(0.7)"/>
    </g>
   </g>
   <g id="line2d_26">
    <path d="M 230.877242 38.979067 
L 236.708242 38.979067 
L 242.539242 38.979067 
" style="fill: none; stroke: #cc3164; stroke-width: 1.5; stroke-linecap: square"/>
   </g>
   <g id="text_12">
    <!-- $x_2$ -->
    <g style="fill: #4d4f53" transform="translate(246.704242 41.894567) scale(0.0833 -0.0833)">
     <defs>
      <path id="DejaVuSans-15" d="M 1228 531 
L 3431 531 
L 3431 0 
L 469 0 
L 469 531 
Q 828 903 1448 1529 
Q 2069 2156 2228 2338 
Q 2531 2678 2651 2914 
Q 2772 3150 2772 3378 
Q 2772 3750 2511 3984 
Q 2250 4219 1831 4219 
Q 1534 4219 1204 4116 
Q 875 4013 500 3803 
L 500 4441 
Q 881 4594 1212 4672 
Q 1544 4750 1819 4750 
Q 2544 4750 2975 4387 
Q 3406 4025 3406 3419 
Q 3406 3131 3298 2873 
Q 3191 2616 2906 2266 
Q 2828 2175 2409 1742 
Q 1991 1309 1228 531 
z
" transform="scale(0.015625)"/>
     </defs>
     <use xlink:href="#DejaVuSans-Oblique-5b" transform="translate(0 0.3125)"/>
     <use xlink:href="#DejaVuSans-15" transform="translate(59.179688 -14.687451) scale(0.7)"/>
    </g>
   </g>
  </g>
 </g>
 <defs>
  <clipPath id="pfadbf29017">
   <rect x="26.480242" y="7.2" width="86.4" height="53.398137"/>
  </clipPath>
  <clipPath id="pdc3c5da55d">
   <rect x="134.480242" y="7.2" width="86.4" height="53.398137"/>
  </clipPath>
 </defs>
</svg>
