<?xml version="1.0" encoding="utf-8" standalone="no"?>
<!DOCTYPE svg PUBLIC "-//W3C//DTD SVG 1.1//EN"
  "http://www.w3.org/Graphics/SVG/1.1/DTD/svg11.dtd">
<svg xmlns:xlink="http://www.w3.org/1999/xlink" width="373.408342pt" height="100.917893pt" viewBox="0 0 373.408342 100.917893" xmlns="http://www.w3.org/2000/svg" version="1.1">
 <metadata>
  <rdf:RDF xmlns:dc="http://purl.org/dc/elements/1.1/" xmlns:cc="http://creativecommons.org/ns#" xmlns:rdf="http://www.w3.org/1999/02/22-rdf-syntax-ns#">
   <cc:Work>
    <dc:type rdf:resource="http://purl.org/dc/dcmitype/StillImage"/>
    <dc:date>2025-08-12T06:26:56.016848</dc:date>
    <dc:format>image/svg+xml</dc:format>
    <dc:creator>
     <cc:Agent>
      <dc:title>Matplotlib v3.10.5, https://matplotlib.org/</dc:title>
     </cc:Agent>
    </dc:creator>
   </cc:Work>
  </rdf:RDF>
 </metadata>
 <defs>
  <style type="text/css">*{stroke-linejoin: round; stroke-linecap: butt}</style>
 </defs>
 <g id="figure_1">
  <g id="patch_1">
   <path d="M 0 100.917893 
L 373.408342 100.917893 
L 373.408342 0 
L 0 0 
L 0 100.917893 
z
" style="fill: none"/>
  </g>
  <g id="axes_1">
   <g id="patch_2">
    <path d="M 26.480242 78.656015 
L 112.880242 78.656015 
L 112.880242 25.257878 
L 26.480242 25.257878 
L 26.480242 78.656015 
z
" style="fill: none"/>
   </g>
   <g id="matplotlib.axis_1">
    <g id="xtick_1">
     <g id="line2d_1">
      <defs>
       <path id="m0137b9eaa7" d="M 0 0 
L 0 3.5 
" style="stroke: #4d4f53; stroke-width: 0.8"/>
      </defs>
      <g>
       <use xlink:href="#m0137b9eaa7" x="33.680242" y="78.656015" style="fill: #4d4f53; stroke: #4d4f53; stroke-width: 0.8"/>
      </g>
     </g>
     <g id="text_1">
      <!-- 0 -->
      <g style="fill: #4d4f53" transform="translate(31.030261 91.985513) scale(0.0833 -0.0833)">
       <defs>
        <path id="DejaVuSans-30" d="M 2034 4250 
Q 1547 4250 1301 3770 
Q 1056 3291 1056 2328 
Q 1056 1369 1301 889 
Q 1547 409 2034 409 
Q 2525 409 2770 889 
Q 3016 1369 3016 2328 
Q 3016 3291 2770 3770 
Q 2525 4250 2034 4250 
z
M 2034 4750 
Q 2819 4750 3233 4129 
Q 3647 3509 3647 2328 
Q 3647 1150 3233 529 
Q 2819 -91 2034 -91 
Q 1250 -91 836 529 
Q 422 1150 422 2328 
Q 422 3509 836 4129 
Q 1250 4750 2034 4750 
z
" transform="scale(0.015625)"/>
       </defs>
       <use xlink:href="#DejaVuSans-30"/>
      </g>
     </g>
    </g>
    <g id="xtick_2">
     <g id="line2d_2">
      <g>
       <use xlink:href="#m0137b9eaa7" x="71.877429" y="78.656015" style="fill: #4d4f53; stroke: #4d4f53; stroke-width: 0.8"/>
      </g>
     </g>
     <g id="text_2">
      <!-- 5 -->
      <g style="fill: #4d4f53" transform="translate(69.227447 91.985513) scale(0.0833 -0.0833)">
       <defs>
        <path id="DejaVuSans-35" d="M 691 4666 
L 3169 4666 
L 3169 4134 
L 1269 4134 
L 1269 2991 
Q 1406 3038 1543 3061 
Q 1681 3084 1819 3084 
Q 2600 3084 3056 2656 
Q 3513 2228 3513 1497 
Q 3513 744 3044 326 
Q 2575 -91 1722 -91 
Q 1428 -91 1123 -41 
Q 819 9 494 109 
L 494 744 
Q 775 591 1075 516 
Q 1375 441 1709 441 
Q 2250 441 2565 725 
Q 2881 1009 2881 1497 
Q 2881 1984 2565 2268 
Q 2250 2553 1709 2553 
Q 1456 2553 1204 2497 
Q 953 2441 691 2322 
L 691 4666 
z
" transform="scale(0.015625)"/>
       </defs>
       <use xlink:href="#DejaVuSans-35"/>
      </g>
     </g>
    </g>
    <g id="xtick_3">
     <g id="line2d_3">
      <g>
       <use xlink:href="#m0137b9eaa7" x="110.074615" y="78.656015" style="fill: #4d4f53; stroke: #4d4f53; stroke-width: 0.8"/>
      </g>
     </g>
     <g id="text_3">
      <!-- 10 -->
      <g style="fill: #4d4f53" transform="translate(104.774652 91.985513) scale(0.0833 -0.0833)">
       <defs>
        <path id="DejaVuSans-31" d="M 794 531 
L 1825 531 
L 1825 4091 
L 703 3866 
L 703 4441 
L 1819 4666 
L 2450 4666 
L 2450 531 
L 3481 531 
L 3481 0 
L 794 0 
L 794 531 
z
" transform="scale(0.015625)"/>
       </defs>
       <use xlink:href="#DejaVuSans-31"/>
       <use xlink:href="#DejaVuSans-30" transform="translate(63.623047 0)"/>
      </g>
     </g>
    </g>
   </g>
   <g id="matplotlib.axis_2">
    <g id="ytick_1">
     <g id="line2d_4">
      <defs>
       <path id="m96f3d646e7" d="M 0 0 
L -3.5 0 
" style="stroke: #4d4f53; stroke-width: 0.8"/>
      </defs>
      <g>
       <use xlink:href="#m96f3d646e7" x="26.480242" y="74.225853" style="fill: #4d4f53; stroke: #4d4f53; stroke-width: 0.8"/>
      </g>
     </g>
     <g id="text_4">
      <!-- −1 -->
      <g style="fill: #4d4f53" transform="translate(7.2 77.390602) scale(0.0833 -0.0833)">
       <defs>
        <path id="DejaVuSans-2212" d="M 678 2272 
L 4684 2272 
L 4684 1741 
L 678 1741 
L 678 2272 
z
" transform="scale(0.015625)"/>
       </defs>
       <use xlink:href="#DejaVuSans-2212"/>
       <use xlink:href="#DejaVuSans-31" transform="translate(83.789062 0)"/>
      </g>
     </g>
    </g>
    <g id="ytick_2">
     <g id="line2d_5">
      <g>
       <use xlink:href="#m96f3d646e7" x="26.480242" y="53.02276" style="fill: #4d4f53; stroke: #4d4f53; stroke-width: 0.8"/>
      </g>
     </g>
     <g id="text_5">
      <!-- 0 -->
      <g style="fill: #4d4f53" transform="translate(14.18028 56.187509) scale(0.0833 -0.0833)">
       <use xlink:href="#DejaVuSans-30"/>
      </g>
     </g>
    </g>
    <g id="ytick_3">
     <g id="line2d_6">
      <g>
       <use xlink:href="#m96f3d646e7" x="26.480242" y="31.819667" style="fill: #4d4f53; stroke: #4d4f53; stroke-width: 0.8"/>
      </g>
     </g>
     <g id="text_6">
      <!-- 1 -->
      <g style="fill: #4d4f53" transform="translate(14.18028 34.984416) scale(0.0833 -0.0833)">
       <use xlink:href="#DejaVuSans-31"/>
      </g>
     </g>
    </g>
   </g>
   <g id="line2d_7">
    <path d="M 33.680242 37.137902 
L 34.257396 35.331483 
L 34.401685 35.628875 
L 34.545974 33.874317 
L 34.690262 34.155863 
L 34.834551 35.237153 
L 35.123128 33.71163 
L 35.267417 34.570005 
L 35.411705 32.547148 
L 35.555994 33.496769 
L 35.844571 32.38066 
L 35.988859 33.12251 
L 36.133148 32.837111 
L 36.421725 31.790065 
L 36.566014 32.855366 
L 36.710302 32.50134 
L 36.854591 31.55714 
L 36.998879 31.79182 
L 37.143168 32.352822 
L 37.287457 31.742907 
L 37.431745 32.091269 
L 37.720322 30.560186 
L 37.864611 31.84906 
L 38.0089 30.136146 
L 38.153188 31.195667 
L 38.297477 30.968125 
L 38.441765 30.901003 
L 38.586054 31.903966 
L 38.874631 29.762093 
L 39.163208 31.560641 
L 39.451785 30.350484 
L 39.596074 31.821107 
L 39.740362 31.058873 
L 39.884651 31.739385 
L 40.02894 30.219765 
L 40.173228 31.188918 
L 40.317517 30.485629 
L 40.461805 30.985806 
L 40.606094 30.024231 
L 40.750382 30.381636 
L 41.03896 31.113749 
L 41.183248 30.285306 
L 41.471825 32.57038 
L 41.616114 32.523402 
L 41.760403 30.839856 
L 41.904691 30.892541 
L 42.193268 32.506688 
L 42.337557 31.844012 
L 42.481845 33.507714 
L 42.626134 32.080561 
L 42.770423 32.436289 
L 42.914711 33.630876 
L 43.203288 32.472693 
L 43.347577 34.255748 
L 43.491865 32.870284 
L 43.636154 34.321258 
L 43.780443 33.738579 
L 43.924731 34.881371 
L 44.06902 34.570906 
L 44.213308 35.528213 
L 44.357597 35.151868 
L 44.646174 35.800737 
L 44.790463 35.218535 
L 44.934751 36.114402 
L 45.07904 35.894122 
L 45.223328 36.02178 
L 45.367617 37.237477 
L 45.511906 36.339019 
L 46.08906 38.46787 
L 46.233348 37.852756 
L 46.666214 40.224316 
L 46.810503 39.049474 
L 47.243368 41.566109 
L 47.387657 41.500396 
L 47.820523 43.202334 
L 47.964811 42.37786 
L 48.1091 44.131174 
L 48.253388 44.059685 
L 48.541966 43.31486 
L 48.830543 45.182888 
L 48.974831 44.615698 
L 49.11912 44.702904 
L 49.407697 46.750753 
L 49.551986 46.484013 
L 49.840563 48.679577 
L 49.984851 48.399963 
L 50.12914 48.506781 
L 50.273429 49.827958 
L 50.417717 48.38681 
L 51.283449 52.456344 
L 51.427737 52.617968 
L 51.572026 52.076923 
L 51.716314 52.903255 
L 51.860603 52.337824 
L 52.293469 55.123583 
L 52.582046 55.395723 
L 52.726334 56.545554 
L 52.870623 55.753489 
L 53.014912 57.370415 
L 53.1592 56.350479 
L 53.303489 56.874191 
L 53.447777 58.642149 
L 53.592066 57.42769 
L 53.736354 58.710741 
L 53.880643 58.163524 
L 54.313509 60.571397 
L 54.457797 59.511898 
L 54.602086 61.098889 
L 54.746374 60.458482 
L 54.890663 61.203567 
L 55.034952 60.847226 
L 55.467817 63.635874 
L 55.612106 62.123634 
L 55.900683 64.510983 
L 56.044972 63.722869 
L 56.333549 64.635471 
L 56.477837 64.198868 
L 56.622126 64.527213 
L 56.766415 66.183359 
L 56.910703 65.517811 
L 57.343569 67.797382 
L 57.487857 67.768442 
L 57.632146 67.123011 
L 57.776435 68.145086 
L 57.920723 68.078859 
L 58.065012 68.543698 
L 58.2093 68.471846 
L 58.353589 68.390832 
L 58.497877 68.009102 
L 58.642166 70.18833 
L 58.786455 69.309002 
L 58.930743 69.353842 
L 59.075032 70.594207 
L 59.21932 69.601083 
L 59.363609 70.54356 
L 59.507897 70.459715 
L 59.652186 70.509936 
L 59.796475 70.128673 
L 60.085052 70.936453 
L 60.373629 72.495325 
L 60.662206 71.226592 
L 60.806495 71.532648 
L 60.950783 72.735868 
L 61.095072 72.698769 
L 61.23936 72.933519 
L 61.527938 72.208624 
L 61.816515 73.182123 
L 62.105092 72.119132 
L 62.24938 72.828541 
L 62.393669 72.509842 
L 62.537958 73.175153 
L 62.826535 72.420033 
L 62.970823 74.158618 
L 63.115112 72.657691 
L 63.259401 72.701899 
L 63.547978 72.554695 
L 63.692266 72.222303 
L 63.980843 73.765269 
L 64.269421 71.98611 
L 64.557998 72.144974 
L 64.846575 73.825865 
L 65.135152 72.12072 
L 65.279441 72.079804 
L 65.423729 73.147087 
L 65.568018 73.119881 
L 65.712306 72.91496 
L 65.856595 71.386289 
L 66.145172 72.483602 
L 66.289461 71.379763 
L 66.433749 72.486021 
L 66.578038 72.208557 
L 66.722326 72.005591 
L 67.010904 70.581739 
L 67.155192 70.487832 
L 67.443769 69.733263 
L 67.732346 70.707927 
L 67.876635 69.613467 
L 68.020924 69.785513 
L 68.165212 69.651263 
L 68.598078 67.565914 
L 68.742366 68.272035 
L 69.463809 65.785012 
L 69.608098 67.138019 
L 69.896675 65.464297 
L 70.040964 66.40551 
L 70.329541 64.503804 
L 71.483849 61.633521 
L 71.628138 62.581258 
L 71.772427 61.292254 
L 71.916715 61.958203 
L 72.061004 60.234881 
L 72.205292 61.54474 
L 72.349581 61.17197 
L 72.493869 60.832805 
L 72.782447 58.997297 
L 72.926735 59.687551 
L 73.071024 59.308942 
L 73.359601 57.008929 
L 73.503889 57.718355 
L 73.792467 55.638868 
L 73.936755 55.275564 
L 74.081044 55.465512 
L 74.51391 53.887187 
L 74.658198 54.192201 
L 75.091064 52.128628 
L 75.235352 52.715845 
L 75.379641 51.945628 
L 75.52393 52.24897 
L 76.101084 49.688921 
L 76.245372 50.554513 
L 76.389661 50.028759 
L 76.822527 47.0185 
L 76.966815 48.422022 
L 77.54397 45.053748 
L 77.688258 46.329546 
L 77.976835 44.615706 
L 78.121124 45.019839 
L 78.265413 45.134072 
L 78.698278 42.455548 
L 78.842567 42.960786 
L 78.986855 42.716415 
L 79.275433 41.377045 
L 79.419721 41.693175 
L 79.56401 40.423822 
L 79.708298 40.814542 
L 79.852587 39.71129 
L 79.996875 40.907491 
L 80.141164 38.744369 
L 80.285453 38.979724 
L 80.429741 39.071702 
L 80.57403 39.67052 
L 81.006895 36.835939 
L 81.295473 37.029412 
L 81.439761 37.057291 
L 81.58405 35.884797 
L 81.728338 36.151432 
L 81.872627 35.53747 
L 82.161204 36.355589 
L 82.305493 34.249219 
L 82.449781 36.034396 
L 82.59407 35.395538 
L 82.738358 34.75241 
L 82.882647 34.899603 
L 83.026936 34.624289 
L 83.459801 33.279992 
L 83.60409 32.758144 
L 83.748378 33.729031 
L 83.892667 32.110387 
L 84.036956 32.431168 
L 84.181244 33.568611 
L 84.325533 32.239036 
L 84.469821 32.551491 
L 84.61411 32.475686 
L 84.758399 32.645406 
L 85.046976 30.738326 
L 85.191264 32.103979 
L 85.335553 31.193144 
L 85.479841 31.553081 
L 85.62413 31.466258 
L 85.768419 32.072294 
L 85.912707 31.682497 
L 86.056996 30.301647 
L 86.201284 31.830857 
L 86.345573 31.346935 
L 86.489861 30.451453 
L 86.778439 31.314491 
L 86.922727 29.85187 
L 87.067016 29.909307 
L 87.211304 30.531617 
L 87.499881 29.729899 
L 87.64417 29.969712 
L 87.788459 30.78498 
L 87.932747 30.151876 
L 88.077036 30.217383 
L 88.221324 31.568051 
L 88.365613 30.70385 
L 88.509902 31.838886 
L 88.65419 31.623396 
L 88.798479 31.87446 
L 89.087056 31.37826 
L 89.231344 31.803087 
L 89.519922 30.788713 
L 89.808499 32.749789 
L 89.952787 31.074736 
L 90.097076 32.414182 
L 90.385653 31.450455 
L 90.529942 31.867335 
L 90.67423 33.614062 
L 90.818519 33.06322 
L 90.962807 33.550051 
L 91.107096 32.912605 
L 91.251384 33.25432 
L 91.395673 32.703426 
L 91.539962 34.034464 
L 91.68425 33.303704 
L 92.117116 35.146023 
L 92.261405 34.48835 
L 92.405693 35.013627 
L 92.549982 34.412832 
L 92.838559 36.484328 
L 92.982847 35.778512 
L 93.127136 36.117418 
L 93.271425 35.845428 
L 93.415713 36.122335 
L 93.560002 37.827162 
L 93.70429 37.516266 
L 94.281445 39.691598 
L 94.425733 38.120219 
L 94.570022 38.603405 
L 95.147176 40.397646 
L 95.291465 41.711397 
L 95.435753 40.563903 
L 95.580042 42.795538 
L 95.72433 41.890339 
L 95.868619 43.503395 
L 96.012908 41.884045 
L 96.157196 42.454872 
L 96.73435 45.470659 
L 96.878639 44.414637 
L 97.167216 46.655431 
L 97.311505 46.590458 
L 97.455793 45.611949 
L 97.888659 48.347852 
L 98.032948 47.614507 
L 98.177236 49.356378 
L 98.321525 49.132707 
L 98.465813 48.618822 
L 98.610102 50.827879 
L 98.898679 49.579696 
L 99.042968 51.56118 
L 99.187256 50.885099 
L 99.475833 51.409148 
L 99.908699 54.284222 
L 100.052988 53.670445 
L 100.485853 54.891698 
L 100.774431 56.472086 
L 101.063008 55.511156 
L 101.640162 58.55797 
L 101.784451 57.589296 
L 102.217316 60.476655 
L 102.361605 59.988884 
L 102.505893 61.242172 
L 102.650182 60.343121 
L 102.794471 61.866023 
L 102.938759 61.521053 
L 103.083048 62.349284 
L 103.227336 61.107691 
L 103.660202 64.232583 
L 103.804491 63.304944 
L 104.237356 64.733878 
L 104.381645 64.023179 
L 104.525934 65.835397 
L 104.670222 65.064438 
L 104.814511 65.192478 
L 105.247376 66.244734 
L 105.535954 68.115623 
L 105.680242 66.640886 
L 105.680242 66.640886 
" clip-path="url(#pe9ed3dc29d)" style="fill: none; stroke: #3362b0; stroke-width: 1.5; stroke-linecap: square"/>
   </g>
   <g id="line2d_8">
    <path d="M 33.680242 31.44084 
L 33.824531 30.212245 
L 33.968819 30.32654 
L 34.113108 31.614664 
L 34.257396 30.342119 
L 34.401685 31.577592 
L 34.545974 31.54525 
L 34.834551 31.475801 
L 34.978839 32.146917 
L 35.123128 31.767119 
L 35.267417 32.339108 
L 35.411705 32.194207 
L 35.555994 31.277939 
L 35.844571 33.151249 
L 35.988859 32.073704 
L 36.133148 33.167003 
L 36.421725 32.012713 
L 36.710302 34.13713 
L 36.854591 33.779106 
L 36.998879 34.032997 
L 37.287457 35.172112 
L 37.431745 34.100059 
L 37.576034 34.624103 
L 37.720322 34.048841 
L 38.153188 35.6304 
L 38.297477 35.805684 
L 38.441765 37.214841 
L 38.586054 37.027348 
L 38.730342 36.551603 
L 38.874631 37.976002 
L 39.01892 37.453718 
L 39.163208 37.134742 
L 39.307497 38.945823 
L 39.451785 37.44584 
L 40.317517 40.682154 
L 40.461805 40.13143 
L 40.606094 41.842565 
L 40.750382 40.261225 
L 41.03896 42.881725 
L 41.183248 42.984926 
L 41.327537 41.792439 
L 41.616114 43.801181 
L 41.760403 43.805955 
L 41.904691 44.976129 
L 42.04898 43.811516 
L 42.193268 45.205159 
L 42.337557 44.553895 
L 42.626134 46.853966 
L 42.770423 45.644658 
L 43.203288 48.044627 
L 43.347577 46.940984 
L 43.491865 48.320408 
L 43.636154 47.790622 
L 44.06902 49.831277 
L 44.213308 49.249706 
L 44.357597 51.599708 
L 44.501885 50.280611 
L 44.646174 52.425995 
L 44.790463 52.08615 
L 44.934751 52.115639 
L 45.800483 55.082242 
L 45.944771 54.228349 
L 46.08906 54.860483 
L 46.377637 57.106052 
L 46.521926 56.593044 
L 46.954791 58.501465 
L 47.243368 58.330095 
L 47.387657 57.935591 
L 47.964811 60.725935 
L 48.1091 59.949221 
L 48.397677 62.446079 
L 48.541966 61.874523 
L 48.830543 63.46351 
L 48.974831 61.941239 
L 49.11912 63.351986 
L 49.263409 62.665801 
L 49.840563 65.798259 
L 49.984851 64.766014 
L 50.12914 65.950607 
L 50.273429 65.252907 
L 50.417717 66.544515 
L 50.562006 66.443895 
L 50.706294 66.4438 
L 50.850583 67.702803 
L 50.994871 67.014843 
L 51.13916 68.382215 
L 51.283449 68.135824 
L 51.427737 68.299684 
L 51.572026 68.903537 
L 51.716314 67.574252 
L 51.860603 69.774033 
L 52.004891 68.258392 
L 52.14918 69.031031 
L 52.293469 68.56719 
L 52.437757 69.589961 
L 52.582046 69.531783 
L 52.726334 69.431648 
L 52.870623 69.746957 
L 53.014912 71.227363 
L 53.1592 70.7303 
L 53.303489 71.302742 
L 53.447777 70.195648 
L 53.736354 71.416333 
L 53.880643 71.26508 
L 54.024932 72.548902 
L 54.16922 71.156789 
L 54.457797 73.036473 
L 54.746374 72.117907 
L 55.034952 73.490894 
L 55.17924 71.685904 
L 55.323529 72.387047 
L 55.467817 73.570557 
L 55.612106 72.58833 
L 55.756394 73.77406 
L 55.900683 73.722041 
L 56.044972 73.86531 
L 56.333549 72.118907 
L 56.622126 73.947127 
L 56.766415 73.871359 
L 57.054992 72.757846 
L 57.19928 72.890539 
L 57.343569 74.120891 
L 57.487857 72.898973 
L 57.632146 74.013307 
L 57.776435 72.710957 
L 57.920723 73.28184 
L 58.065012 71.90875 
L 58.2093 72.020346 
L 58.353589 72.201729 
L 58.497877 71.961386 
L 58.930743 73.198124 
L 59.075032 72.257048 
L 59.21932 72.808204 
L 59.363609 71.403152 
L 59.507897 72.617571 
L 59.652186 72.530396 
L 59.940763 70.495509 
L 60.22934 71.839135 
L 60.373629 70.816647 
L 60.517918 71.474006 
L 60.662206 70.958614 
L 60.806495 69.432068 
L 60.950783 71.06295 
L 61.095072 70.895444 
L 61.23936 70.549186 
L 61.672226 68.17519 
L 61.816515 69.10737 
L 61.960803 68.78558 
L 62.105092 68.707393 
L 62.393669 66.983923 
L 62.537958 68.249441 
L 62.826535 66.393153 
L 62.970823 66.161436 
L 63.115112 67.092344 
L 63.403689 65.583342 
L 63.547978 66.422865 
L 63.836555 64.313792 
L 63.980843 65.49295 
L 64.269421 63.647767 
L 64.413709 64.149275 
L 64.557998 64.103836 
L 64.846575 61.909133 
L 64.990863 62.003428 
L 65.135152 62.359769 
L 65.423729 61.851923 
L 65.568018 60.729713 
L 65.712306 61.182812 
L 66.145172 60.121489 
L 66.289461 58.530164 
L 66.433749 58.685701 
L 66.866615 56.885408 
L 67.010904 56.956779 
L 67.299481 55.196473 
L 67.443769 56.350995 
L 67.588058 55.964137 
L 68.165212 53.116622 
L 68.453789 53.952106 
L 68.742366 51.365976 
L 69.608098 48.817282 
L 69.752386 49.507261 
L 69.896675 48.276758 
L 70.040964 49.125224 
L 70.329541 46.914229 
L 70.473829 47.73339 
L 70.618118 47.436196 
L 70.906695 45.682782 
L 71.050984 45.941161 
L 71.339561 44.739228 
L 71.483849 45.772474 
L 71.916715 42.886356 
L 72.061004 43.839653 
L 72.349581 41.471842 
L 72.638158 42.478689 
L 72.926735 40.078952 
L 73.215312 41.126992 
L 73.503889 39.112589 
L 73.648178 40.506148 
L 73.936755 38.213348 
L 74.081044 38.587953 
L 74.369621 37.132156 
L 74.51391 37.33252 
L 74.802487 36.732176 
L 74.946775 37.713356 
L 75.235352 35.757615 
L 75.379641 36.771651 
L 75.52393 35.034542 
L 75.812507 36.192362 
L 76.101084 34.625916 
L 76.245372 34.498645 
L 76.53395 34.798385 
L 76.678238 33.936926 
L 76.966815 34.452034 
L 77.111104 32.336039 
L 77.255392 33.212701 
L 77.399681 31.992491 
L 77.688258 32.817607 
L 77.976835 31.416365 
L 78.121124 32.756481 
L 78.265413 32.475138 
L 78.409701 31.865263 
L 78.55399 32.277259 
L 78.698278 31.582971 
L 78.842567 31.656409 
L 78.986855 31.719406 
L 79.131144 31.519422 
L 79.275433 30.144418 
L 79.56401 32.013177 
L 79.708298 29.929131 
L 79.852587 30.26836 
L 79.996875 31.257712 
L 80.141164 31.00747 
L 80.285453 30.306973 
L 80.429741 31.117173 
L 80.57403 30.932467 
L 80.718318 31.079259 
L 81.006895 30.700225 
L 81.151184 29.829339 
L 81.295473 31.25902 
L 81.439761 30.298884 
L 81.728338 31.688999 
L 82.016916 30.311173 
L 82.161204 31.469043 
L 82.305493 30.378122 
L 82.449781 31.871501 
L 82.59407 31.678126 
L 82.882647 31.006596 
L 83.026936 31.268509 
L 83.171224 32.272119 
L 83.315513 31.394089 
L 83.748378 33.142989 
L 84.036956 31.819961 
L 84.181244 32.149697 
L 84.469821 33.624494 
L 84.758399 32.487223 
L 85.191264 35.124584 
L 85.335553 34.41023 
L 85.62413 35.561335 
L 85.768419 34.339517 
L 85.912707 34.485814 
L 86.056996 35.141988 
L 86.201284 36.830822 
L 86.345573 36.433181 
L 86.489861 35.444556 
L 86.63415 35.567665 
L 87.067016 37.325739 
L 87.355593 38.256556 
L 87.499881 38.060833 
L 87.64417 39.611592 
L 87.932747 38.703324 
L 88.077036 40.355058 
L 88.221324 40.279132 
L 88.509902 41.530154 
L 88.65419 41.519392 
L 88.798479 42.300038 
L 88.942767 40.971459 
L 89.231344 42.008392 
L 89.375633 41.72078 
L 89.519922 43.133839 
L 89.66421 43.104777 
L 89.808499 43.242188 
L 89.952787 44.964357 
L 90.097076 44.155052 
L 90.241364 44.431173 
L 90.385653 45.222339 
L 90.529942 44.826357 
L 90.67423 46.116159 
L 90.818519 45.715318 
L 91.539962 47.680077 
L 91.828539 49.326269 
L 91.972827 49.070053 
L 92.405693 51.409842 
L 92.549982 51.38113 
L 93.271425 54.227952 
L 93.415713 52.830088 
L 93.560002 54.53012 
L 93.70429 54.510608 
L 93.992867 56.0163 
L 94.137156 54.596363 
L 94.570022 57.203335 
L 95.147176 59.063064 
L 95.291465 57.693157 
L 96.301485 62.234177 
L 96.590062 61.336586 
L 97.022928 62.62644 
L 97.167216 62.733138 
L 97.74437 65.039095 
L 97.888659 65.828025 
L 98.177236 65.150974 
L 98.321525 65.206499 
L 98.610102 67.54366 
L 98.75439 66.967345 
L 99.187256 68.511488 
L 99.331545 67.440527 
L 99.475833 68.990629 
L 99.620122 68.388172 
L 99.764411 67.685587 
L 99.908699 68.160844 
L 100.197276 70.311539 
L 100.341565 69.453204 
L 100.774431 70.493932 
L 100.918719 69.57732 
L 101.063008 71.300392 
L 101.207296 70.044071 
L 101.351585 70.076265 
L 101.495873 70.324627 
L 101.784451 71.815118 
L 101.928739 70.753871 
L 102.073028 70.913725 
L 102.361605 72.795036 
L 102.505893 71.816689 
L 102.650182 72.450396 
L 102.794471 72.351363 
L 102.938759 72.193623 
L 103.083048 71.666504 
L 103.371625 72.941153 
L 103.515914 73.379321 
L 103.804491 72.837293 
L 103.948779 72.996854 
L 104.093068 73.84793 
L 104.237356 72.297718 
L 104.525934 74.20617 
L 104.670222 73.374562 
L 104.958799 74.134804 
L 105.391665 72.467086 
L 105.680242 73.676348 
L 105.680242 73.676348 
" clip-path="url(#pe9ed3dc29d)" style="fill: none; stroke: #cc3164; stroke-width: 1.5; stroke-linecap: square"/>
   </g>
   <g id="patch_3">
    <path d="M 26.480242 74.20617 
L 26.480242 29.707723 
" style="fill: none; stroke: #4d4f53; stroke-width: 0.8; stroke-linejoin: miter; stroke-linecap: square"/>
   </g>
   <g id="patch_4">
    <path d="M 33.680242 78.656015 
L 105.680242 78.656015 
" style="fill: none; stroke: #4d4f53; stroke-width: 0.8; stroke-linejoin: miter; stroke-linecap: square"/>
   </g>
   <g id="legend_1">
    <g id="patch_5">
     <path d="M 28.146242 23.591878 
L 111.214242 23.591878 
L 111.214242 7.2 
L 28.146242 7.2 
z
" style="fill: #ffffff"/>
    </g>
    <g id="text_7">
     <!-- title -->
     <g style="fill: #4d4f53" transform="translate(32.311242 17.694498) scale(0.0833 -0.0833)">
      <defs>
       <path id="DejaVuSans-74" d="M 1172 4494 
L 1172 3500 
L 2356 3500 
L 2356 3053 
L 1172 3053 
L 1172 1153 
Q 1172 725 1289 603 
Q 1406 481 1766 481 
L 2356 481 
L 2356 0 
L 1766 0 
Q 1100 0 847 248 
Q 594 497 594 1153 
L 594 3053 
L 172 3053 
L 172 3500 
L 594 3500 
L 594 4494 
L 1172 4494 
z
" transform="scale(0.015625)"/>
       <path id="DejaVuSans-69" d="M 603 3500 
L 1178 3500 
L 1178 0 
L 603 0 
L 603 3500 
z
M 603 4863 
L 1178 4863 
L 1178 4134 
L 603 4134 
L 603 4863 
z
" transform="scale(0.015625)"/>
       <path id="DejaVuSans-6c" d="M 603 4863 
L 1178 4863 
L 1178 0 
L 603 0 
L 603 4863 
z
" transform="scale(0.015625)"/>
       <path id="DejaVuSans-65" d="M 3597 1894 
L 3597 1613 
L 953 1613 
Q 991 1019 1311 708 
Q 1631 397 2203 397 
Q 2534 397 2845 478 
Q 3156 559 3463 722 
L 3463 178 
Q 3153 47 2828 -22 
Q 2503 -91 2169 -91 
Q 1331 -91 842 396 
Q 353 884 353 1716 
Q 353 2575 817 3079 
Q 1281 3584 2069 3584 
Q 2775 3584 3186 3129 
Q 3597 2675 3597 1894 
z
M 3022 2063 
Q 3016 2534 2758 2815 
Q 2500 3097 2075 3097 
Q 1594 3097 1305 2825 
Q 1016 2553 972 2059 
L 3022 2063 
z
" transform="scale(0.015625)"/>
      </defs>
      <use xlink:href="#DejaVuSans-74"/>
      <use xlink:href="#DejaVuSans-69" transform="translate(39.208984 0)"/>
      <use xlink:href="#DejaVuSans-74" transform="translate(66.992188 0)"/>
      <use xlink:href="#DejaVuSans-6c" transform="translate(106.201172 0)"/>
      <use xlink:href="#DejaVuSans-65" transform="translate(133.984375 0)"/>
     </g>
    </g>
    <g id="line2d_9">
     <path d="M 53.082717 14.778998 
L 58.913717 14.778998 
L 64.744717 14.778998 
" style="fill: none; stroke: #3362b0; stroke-width: 1.5; stroke-linecap: square"/>
    </g>
    <g id="text_8">
     <!-- $x_1$ -->
     <g style="fill: #4d4f53" transform="translate(68.909717 17.694498) scale(0.0833 -0.0833)">
      <defs>
       <path id="DejaVuSans-Oblique-78" d="M 3841 3500 
L 2234 1784 
L 3219 0 
L 2559 0 
L 1819 1388 
L 531 0 
L -166 0 
L 1556 1844 
L 641 3500 
L 1300 3500 
L 1972 2234 
L 3144 3500 
L 3841 3500 
z
" transform="scale(0.015625)"/>
      </defs>
      <use xlink:href="#DejaVuSans-Oblique-78" transform="translate(0 0.3125)"/>
      <use xlink:href="#DejaVuSans-31" transform="translate(59.179688 -16.09375) scale(0.7)"/>
     </g>
    </g>
    <g id="line2d_10">
     <path d="M 82.309142 14.778998 
L 88.140142 14.778998 
L 93.971142 14.778998 
" style="fill: none; stroke: #cc3164; stroke-width: 1.5; stroke-linecap: square"/>
    </g>
    <g id="text_9">
     <!-- $x_2$ -->
     <g style="fill: #4d4f53" transform="translate(98.136142 17.694498) scale(0.0833 -0.0833)">
      <defs>
       <path id="DejaVuSans-32" d="M 1228 531 
L 3431 531 
L 3431 0 
L 469 0 
L 469 531 
Q 828 903 1448 1529 
Q 2069 2156 2228 2338 
Q 2531 2678 2651 2914 
Q 2772 3150 2772 3378 
Q 2772 3750 2511 3984 
Q 2250 4219 1831 4219 
Q 1534 4219 1204 4116 
Q 875 4013 500 3803 
L 500 4441 
Q 881 4594 1212 4672 
Q 1544 4750 1819 4750 
Q 2544 4750 2975 4387 
Q 3406 4025 3406 3419 
Q 3406 3131 3298 2873 
Q 3191 2616 2906 2266 
Q 2828 2175 2409 1742 
Q 1991 1309 1228 531 
z
" transform="scale(0.015625)"/>
      </defs>
      <use xlink:href="#DejaVuSans-Oblique-78" transform="translate(0 0.3125)"/>
      <use xlink:href="#DejaVuSans-32" transform="translate(59.179688 -16.09375) scale(0.7)"/>
     </g>
    </g>
   </g>
  </g>
  <g id="axes_2">
   <g id="patch_6">
    <path d="M 134.480242 78.656015 
L 220.880242 78.656015 
L 220.880242 25.257878 
L 134.480242 25.257878 
L 134.480242 78.656015 
z
" style="fill: none"/>
   </g>
   <g id="matplotlib.axis_3">
    <g id="xtick_4">
     <g id="line2d_11">
      <g>
       <use xlink:href="#m0137b9eaa7" x="141.680242" y="78.656015" style="fill: #4d4f53; stroke: #4d4f53; stroke-width: 0.8"/>
      </g>
     </g>
     <g id="text_10">
      <!-- 0 -->
      <g style="fill: #4d4f53" transform="translate(139.030261 91.985513) scale(0.0833 -0.0833)">
       <use xlink:href="#DejaVuSans-30"/>
      </g>
     </g>
    </g>
    <g id="xtick_5">
     <g id="line2d_12">
      <g>
       <use xlink:href="#m0137b9eaa7" x="179.877429" y="78.656015" style="fill: #4d4f53; stroke: #4d4f53; stroke-width: 0.8"/>
      </g>
     </g>
     <g id="text_11">
      <!-- 5 -->
      <g style="fill: #4d4f53" transform="translate(177.227447 91.985513) scale(0.0833 -0.0833)">
       <use xlink:href="#DejaVuSans-35"/>
      </g>
     </g>
    </g>
    <g id="xtick_6">
     <g id="line2d_13">
      <g>
       <use xlink:href="#m0137b9eaa7" x="218.074615" y="78.656015" style="fill: #4d4f53; stroke: #4d4f53; stroke-width: 0.8"/>
      </g>
     </g>
     <g id="text_12">
      <!-- 10 -->
      <g style="fill: #4d4f53" transform="translate(212.774652 91.985513) scale(0.0833 -0.0833)">
       <use xlink:href="#DejaVuSans-31"/>
       <use xlink:href="#DejaVuSans-30" transform="translate(63.623047 0)"/>
      </g>
     </g>
    </g>
   </g>
   <g id="matplotlib.axis_4">
    <g id="ytick_4">
     <g id="line2d_14">
      <g>
       <use xlink:href="#m96f3d646e7" x="134.480242" y="74.225853" style="fill: #4d4f53; stroke: #4d4f53; stroke-width: 0.8"/>
      </g>
     </g>
     <g id="text_13">
      <!-- −1 -->
      <g style="fill: #4d4f53" transform="translate(115.2 77.390602) scale(0.0833 -0.0833)">
       <use xlink:href="#DejaVuSans-2212"/>
       <use xlink:href="#DejaVuSans-31" transform="translate(83.789062 0)"/>
      </g>
     </g>
    </g>
    <g id="ytick_5">
     <g id="line2d_15">
      <g>
       <use xlink:href="#m96f3d646e7" x="134.480242" y="53.02276" style="fill: #4d4f53; stroke: #4d4f53; stroke-width: 0.8"/>
      </g>
     </g>
     <g id="text_14">
      <!-- 0 -->
      <g style="fill: #4d4f53" transform="translate(122.18028 56.187509) scale(0.0833 -0.0833)">
       <use xlink:href="#DejaVuSans-30"/>
      </g>
     </g>
    </g>
    <g id="ytick_6">
     <g id="line2d_16">
      <g>
       <use xlink:href="#m96f3d646e7" x="134.480242" y="31.819667" style="fill: #4d4f53; stroke: #4d4f53; stroke-width: 0.8"/>
      </g>
     </g>
     <g id="text_15">
      <!-- 1 -->
      <g style="fill: #4d4f53" transform="translate(122.18028 34.984416) scale(0.0833 -0.0833)">
       <use xlink:href="#DejaVuSans-31"/>
      </g>
     </g>
    </g>
   </g>
   <g id="line2d_17">
    <path d="M 141.680242 37.137902 
L 142.257396 35.331483 
L 142.401685 35.628875 
L 142.545974 33.874317 
L 142.690262 34.155863 
L 142.834551 35.237153 
L 143.123128 33.71163 
L 143.267417 34.570005 
L 143.411705 32.547148 
L 143.555994 33.496769 
L 143.844571 32.38066 
L 143.988859 33.12251 
L 144.133148 32.837111 
L 144.421725 31.790065 
L 144.566014 32.855366 
L 144.710302 32.50134 
L 144.854591 31.55714 
L 144.998879 31.79182 
L 145.143168 32.352822 
L 145.287457 31.742907 
L 145.431745 32.091269 
L 145.720322 30.560186 
L 145.864611 31.84906 
L 146.0089 30.136146 
L 146.153188 31.195667 
L 146.297477 30.968125 
L 146.441765 30.901003 
L 146.586054 31.903966 
L 146.874631 29.762093 
L 147.163208 31.560641 
L 147.451785 30.350484 
L 147.596074 31.821107 
L 147.740362 31.058873 
L 147.884651 31.739385 
L 148.02894 30.219765 
L 148.173228 31.188918 
L 148.317517 30.485629 
L 148.461805 30.985806 
L 148.606094 30.024231 
L 148.750382 30.381636 
L 149.03896 31.113749 
L 149.183248 30.285306 
L 149.471825 32.57038 
L 149.616114 32.523402 
L 149.760403 30.839856 
L 149.904691 30.892541 
L 150.193268 32.506688 
L 150.337557 31.844012 
L 150.481845 33.507714 
L 150.626134 32.080561 
L 150.770423 32.436289 
L 150.914711 33.630876 
L 151.203288 32.472693 
L 151.347577 34.255748 
L 151.491865 32.870284 
L 151.636154 34.321258 
L 151.780443 33.738579 
L 151.924731 34.881371 
L 152.06902 34.570906 
L 152.213308 35.528213 
L 152.357597 35.151868 
L 152.646174 35.800737 
L 152.790463 35.218535 
L 152.934751 36.114402 
L 153.07904 35.894122 
L 153.223328 36.02178 
L 153.367617 37.237477 
L 153.511906 36.339019 
L 154.08906 38.46787 
L 154.233348 37.852756 
L 154.666214 40.224316 
L 154.810503 39.049474 
L 155.243368 41.566109 
L 155.387657 41.500396 
L 155.820523 43.202334 
L 155.964811 42.37786 
L 156.1091 44.131174 
L 156.253388 44.059685 
L 156.541966 43.31486 
L 156.830543 45.182888 
L 156.974831 44.615698 
L 157.11912 44.702904 
L 157.407697 46.750753 
L 157.551986 46.484013 
L 157.840563 48.679577 
L 157.984851 48.399963 
L 158.12914 48.506781 
L 158.273429 49.827958 
L 158.417717 48.38681 
L 159.283449 52.456344 
L 159.427737 52.617968 
L 159.572026 52.076923 
L 159.716314 52.903255 
L 159.860603 52.337824 
L 160.293469 55.123583 
L 160.582046 55.395723 
L 160.726334 56.545554 
L 160.870623 55.753489 
L 161.014912 57.370415 
L 161.1592 56.350479 
L 161.303489 56.874191 
L 161.447777 58.642149 
L 161.592066 57.42769 
L 161.736354 58.710741 
L 161.880643 58.163524 
L 162.313509 60.571397 
L 162.457797 59.511898 
L 162.602086 61.098889 
L 162.746374 60.458482 
L 162.890663 61.203567 
L 163.034952 60.847226 
L 163.467817 63.635874 
L 163.612106 62.123634 
L 163.900683 64.510983 
L 164.044972 63.722869 
L 164.333549 64.635471 
L 164.477837 64.198868 
L 164.622126 64.527213 
L 164.766415 66.183359 
L 164.910703 65.517811 
L 165.343569 67.797382 
L 165.487857 67.768442 
L 165.632146 67.123011 
L 165.776435 68.145086 
L 165.920723 68.078859 
L 166.065012 68.543698 
L 166.2093 68.471846 
L 166.353589 68.390832 
L 166.497877 68.009102 
L 166.642166 70.18833 
L 166.786455 69.309002 
L 166.930743 69.353842 
L 167.075032 70.594207 
L 167.21932 69.601083 
L 167.363609 70.54356 
L 167.507897 70.459715 
L 167.652186 70.509936 
L 167.796475 70.128673 
L 168.085052 70.936453 
L 168.373629 72.495325 
L 168.662206 71.226592 
L 168.806495 71.532648 
L 168.950783 72.735868 
L 169.095072 72.698769 
L 169.23936 72.933519 
L 169.527938 72.208624 
L 169.816515 73.182123 
L 170.105092 72.119132 
L 170.24938 72.828541 
L 170.393669 72.509842 
L 170.537958 73.175153 
L 170.826535 72.420033 
L 170.970823 74.158618 
L 171.115112 72.657691 
L 171.259401 72.701899 
L 171.547978 72.554695 
L 171.692266 72.222303 
L 171.980843 73.765269 
L 172.269421 71.98611 
L 172.557998 72.144974 
L 172.846575 73.825865 
L 173.135152 72.12072 
L 173.279441 72.079804 
L 173.423729 73.147087 
L 173.568018 73.119881 
L 173.712306 72.91496 
L 173.856595 71.386289 
L 174.145172 72.483602 
L 174.289461 71.379763 
L 174.433749 72.486021 
L 174.578038 72.208557 
L 174.722326 72.005591 
L 175.010904 70.581739 
L 175.155192 70.487832 
L 175.443769 69.733263 
L 175.732346 70.707927 
L 175.876635 69.613467 
L 176.020924 69.785513 
L 176.165212 69.651263 
L 176.598078 67.565914 
L 176.742366 68.272035 
L 177.463809 65.785012 
L 177.608098 67.138019 
L 177.896675 65.464297 
L 178.040964 66.40551 
L 178.329541 64.503804 
L 179.483849 61.633521 
L 179.628138 62.581258 
L 179.772427 61.292254 
L 179.916715 61.958203 
L 180.061004 60.234881 
L 180.205292 61.54474 
L 180.349581 61.17197 
L 180.493869 60.832805 
L 180.782447 58.997297 
L 180.926735 59.687551 
L 181.071024 59.308942 
L 181.359601 57.008929 
L 181.503889 57.718355 
L 181.792467 55.638868 
L 181.936755 55.275564 
L 182.081044 55.465512 
L 182.51391 53.887187 
L 182.658198 54.192201 
L 183.091064 52.128628 
L 183.235352 52.715845 
L 183.379641 51.945628 
L 183.52393 52.24897 
L 184.101084 49.688921 
L 184.245372 50.554513 
L 184.389661 50.028759 
L 184.822527 47.0185 
L 184.966815 48.422022 
L 185.54397 45.053748 
L 185.688258 46.329546 
L 185.976835 44.615706 
L 186.121124 45.019839 
L 186.265413 45.134072 
L 186.698278 42.455548 
L 186.842567 42.960786 
L 186.986855 42.716415 
L 187.275433 41.377045 
L 187.419721 41.693175 
L 187.56401 40.423822 
L 187.708298 40.814542 
L 187.852587 39.71129 
L 187.996875 40.907491 
L 188.141164 38.744369 
L 188.285453 38.979724 
L 188.429741 39.071702 
L 188.57403 39.67052 
L 189.006895 36.835939 
L 189.295473 37.029412 
L 189.439761 37.057291 
L 189.58405 35.884797 
L 189.728338 36.151432 
L 189.872627 35.53747 
L 190.161204 36.355589 
L 190.305493 34.249219 
L 190.449781 36.034396 
L 190.59407 35.395538 
L 190.738358 34.75241 
L 190.882647 34.899603 
L 191.026936 34.624289 
L 191.459801 33.279992 
L 191.60409 32.758144 
L 191.748378 33.729031 
L 191.892667 32.110387 
L 192.036956 32.431168 
L 192.181244 33.568611 
L 192.325533 32.239036 
L 192.469821 32.551491 
L 192.61411 32.475686 
L 192.758399 32.645406 
L 193.046976 30.738326 
L 193.191264 32.103979 
L 193.335553 31.193144 
L 193.479841 31.553081 
L 193.62413 31.466258 
L 193.768419 32.072294 
L 193.912707 31.682497 
L 194.056996 30.301647 
L 194.201284 31.830857 
L 194.345573 31.346935 
L 194.489861 30.451453 
L 194.778439 31.314491 
L 194.922727 29.85187 
L 195.067016 29.909307 
L 195.211304 30.531617 
L 195.499881 29.729899 
L 195.64417 29.969712 
L 195.788459 30.78498 
L 195.932747 30.151876 
L 196.077036 30.217383 
L 196.221324 31.568051 
L 196.365613 30.70385 
L 196.509902 31.838886 
L 196.65419 31.623396 
L 196.798479 31.87446 
L 197.087056 31.37826 
L 197.231344 31.803087 
L 197.519922 30.788713 
L 197.808499 32.749789 
L 197.952787 31.074736 
L 198.097076 32.414182 
L 198.385653 31.450455 
L 198.529942 31.867335 
L 198.67423 33.614062 
L 198.818519 33.06322 
L 198.962807 33.550051 
L 199.107096 32.912605 
L 199.251384 33.25432 
L 199.395673 32.703426 
L 199.539962 34.034464 
L 199.68425 33.303704 
L 200.117116 35.146023 
L 200.261405 34.48835 
L 200.405693 35.013627 
L 200.549982 34.412832 
L 200.838559 36.484328 
L 200.982847 35.778512 
L 201.127136 36.117418 
L 201.271425 35.845428 
L 201.415713 36.122335 
L 201.560002 37.827162 
L 201.70429 37.516266 
L 202.281445 39.691598 
L 202.425733 38.120219 
L 202.570022 38.603405 
L 203.147176 40.397646 
L 203.291465 41.711397 
L 203.435753 40.563903 
L 203.580042 42.795538 
L 203.72433 41.890339 
L 203.868619 43.503395 
L 204.012908 41.884045 
L 204.157196 42.454872 
L 204.73435 45.470659 
L 204.878639 44.414637 
L 205.167216 46.655431 
L 205.311505 46.590458 
L 205.455793 45.611949 
L 205.888659 48.347852 
L 206.032948 47.614507 
L 206.177236 49.356378 
L 206.321525 49.132707 
L 206.465813 48.618822 
L 206.610102 50.827879 
L 206.898679 49.579696 
L 207.042968 51.56118 
L 207.187256 50.885099 
L 207.475833 51.409148 
L 207.908699 54.284222 
L 208.052988 53.670445 
L 208.485853 54.891698 
L 208.774431 56.472086 
L 209.063008 55.511156 
L 209.640162 58.55797 
L 209.784451 57.589296 
L 210.217316 60.476655 
L 210.361605 59.988884 
L 210.505893 61.242172 
L 210.650182 60.343121 
L 210.794471 61.866023 
L 210.938759 61.521053 
L 211.083048 62.349284 
L 211.227336 61.107691 
L 211.660202 64.232583 
L 211.804491 63.304944 
L 212.237356 64.733878 
L 212.381645 64.023179 
L 212.525934 65.835397 
L 212.670222 65.064438 
L 212.814511 65.192478 
L 213.247376 66.244734 
L 213.535954 68.115623 
L 213.680242 66.640886 
L 213.680242 66.640886 
" clip-path="url(#p167e58caf1)" style="fill: none; stroke: #3362b0; stroke-width: 1.5; stroke-linecap: square"/>
   </g>
   <g id="line2d_18">
    <path d="M 141.680242 31.44084 
L 141.824531 30.212245 
L 141.968819 30.32654 
L 142.113108 31.614664 
L 142.257396 30.342119 
L 142.401685 31.577592 
L 142.545974 31.54525 
L 142.834551 31.475801 
L 142.978839 32.146917 
L 143.123128 31.767119 
L 143.267417 32.339108 
L 143.411705 32.194207 
L 143.555994 31.277939 
L 143.844571 33.151249 
L 143.988859 32.073704 
L 144.133148 33.167003 
L 144.421725 32.012713 
L 144.710302 34.13713 
L 144.854591 33.779106 
L 144.998879 34.032997 
L 145.287457 35.172112 
L 145.431745 34.100059 
L 145.576034 34.624103 
L 145.720322 34.048841 
L 146.153188 35.6304 
L 146.297477 35.805684 
L 146.441765 37.214841 
L 146.586054 37.027348 
L 146.730342 36.551603 
L 146.874631 37.976002 
L 147.01892 37.453718 
L 147.163208 37.134742 
L 147.307497 38.945823 
L 147.451785 37.44584 
L 148.317517 40.682154 
L 148.461805 40.13143 
L 148.606094 41.842565 
L 148.750382 40.261225 
L 149.03896 42.881725 
L 149.183248 42.984926 
L 149.327537 41.792439 
L 149.616114 43.801181 
L 149.760403 43.805955 
L 149.904691 44.976129 
L 150.04898 43.811516 
L 150.193268 45.205159 
L 150.337557 44.553895 
L 150.626134 46.853966 
L 150.770423 45.644658 
L 151.203288 48.044627 
L 151.347577 46.940984 
L 151.491865 48.320408 
L 151.636154 47.790622 
L 152.06902 49.831277 
L 152.213308 49.249706 
L 152.357597 51.599708 
L 152.501885 50.280611 
L 152.646174 52.425995 
L 152.790463 52.08615 
L 152.934751 52.115639 
L 153.800483 55.082242 
L 153.944771 54.228349 
L 154.08906 54.860483 
L 154.377637 57.106052 
L 154.521926 56.593044 
L 154.954791 58.501465 
L 155.243368 58.330095 
L 155.387657 57.935591 
L 155.964811 60.725935 
L 156.1091 59.949221 
L 156.397677 62.446079 
L 156.541966 61.874523 
L 156.830543 63.46351 
L 156.974831 61.941239 
L 157.11912 63.351986 
L 157.263409 62.665801 
L 157.840563 65.798259 
L 157.984851 64.766014 
L 158.12914 65.950607 
L 158.273429 65.252907 
L 158.417717 66.544515 
L 158.562006 66.443895 
L 158.706294 66.4438 
L 158.850583 67.702803 
L 158.994871 67.014843 
L 159.13916 68.382215 
L 159.283449 68.135824 
L 159.427737 68.299684 
L 159.572026 68.903537 
L 159.716314 67.574252 
L 159.860603 69.774033 
L 160.004891 68.258392 
L 160.14918 69.031031 
L 160.293469 68.56719 
L 160.437757 69.589961 
L 160.582046 69.531783 
L 160.726334 69.431648 
L 160.870623 69.746957 
L 161.014912 71.227363 
L 161.1592 70.7303 
L 161.303489 71.302742 
L 161.447777 70.195648 
L 161.736354 71.416333 
L 161.880643 71.26508 
L 162.024932 72.548902 
L 162.16922 71.156789 
L 162.457797 73.036473 
L 162.746374 72.117907 
L 163.034952 73.490894 
L 163.17924 71.685904 
L 163.323529 72.387047 
L 163.467817 73.570557 
L 163.612106 72.58833 
L 163.756394 73.77406 
L 163.900683 73.722041 
L 164.044972 73.86531 
L 164.333549 72.118907 
L 164.622126 73.947127 
L 164.766415 73.871359 
L 165.054992 72.757846 
L 165.19928 72.890539 
L 165.343569 74.120891 
L 165.487857 72.898973 
L 165.632146 74.013307 
L 165.776435 72.710957 
L 165.920723 73.28184 
L 166.065012 71.90875 
L 166.2093 72.020346 
L 166.353589 72.201729 
L 166.497877 71.961386 
L 166.930743 73.198124 
L 167.075032 72.257048 
L 167.21932 72.808204 
L 167.363609 71.403152 
L 167.507897 72.617571 
L 167.652186 72.530396 
L 167.940763 70.495509 
L 168.22934 71.839135 
L 168.373629 70.816647 
L 168.517918 71.474006 
L 168.662206 70.958614 
L 168.806495 69.432068 
L 168.950783 71.06295 
L 169.095072 70.895444 
L 169.23936 70.549186 
L 169.672226 68.17519 
L 169.816515 69.10737 
L 169.960803 68.78558 
L 170.105092 68.707393 
L 170.393669 66.983923 
L 170.537958 68.249441 
L 170.826535 66.393153 
L 170.970823 66.161436 
L 171.115112 67.092344 
L 171.403689 65.583342 
L 171.547978 66.422865 
L 171.836555 64.313792 
L 171.980843 65.49295 
L 172.269421 63.647767 
L 172.413709 64.149275 
L 172.557998 64.103836 
L 172.846575 61.909133 
L 172.990863 62.003428 
L 173.135152 62.359769 
L 173.423729 61.851923 
L 173.568018 60.729713 
L 173.712306 61.182812 
L 174.145172 60.121489 
L 174.289461 58.530164 
L 174.433749 58.685701 
L 174.866615 56.885408 
L 175.010904 56.956779 
L 175.299481 55.196473 
L 175.443769 56.350995 
L 175.588058 55.964137 
L 176.165212 53.116622 
L 176.453789 53.952106 
L 176.742366 51.365976 
L 177.608098 48.817282 
L 177.752386 49.507261 
L 177.896675 48.276758 
L 178.040964 49.125224 
L 178.329541 46.914229 
L 178.473829 47.73339 
L 178.618118 47.436196 
L 178.906695 45.682782 
L 179.050984 45.941161 
L 179.339561 44.739228 
L 179.483849 45.772474 
L 179.916715 42.886356 
L 180.061004 43.839653 
L 180.349581 41.471842 
L 180.638158 42.478689 
L 180.926735 40.078952 
L 181.215312 41.126992 
L 181.503889 39.112589 
L 181.648178 40.506148 
L 181.936755 38.213348 
L 182.081044 38.587953 
L 182.369621 37.132156 
L 182.51391 37.33252 
L 182.802487 36.732176 
L 182.946775 37.713356 
L 183.235352 35.757615 
L 183.379641 36.771651 
L 183.52393 35.034542 
L 183.812507 36.192362 
L 184.101084 34.625916 
L 184.245372 34.498645 
L 184.53395 34.798385 
L 184.678238 33.936926 
L 184.966815 34.452034 
L 185.111104 32.336039 
L 185.255392 33.212701 
L 185.399681 31.992491 
L 185.688258 32.817607 
L 185.976835 31.416365 
L 186.121124 32.756481 
L 186.265413 32.475138 
L 186.409701 31.865263 
L 186.55399 32.277259 
L 186.698278 31.582971 
L 186.842567 31.656409 
L 186.986855 31.719406 
L 187.131144 31.519422 
L 187.275433 30.144418 
L 187.56401 32.013177 
L 187.708298 29.929131 
L 187.852587 30.26836 
L 187.996875 31.257712 
L 188.141164 31.00747 
L 188.285453 30.306973 
L 188.429741 31.117173 
L 188.57403 30.932467 
L 188.718318 31.079259 
L 189.006895 30.700225 
L 189.151184 29.829339 
L 189.295473 31.25902 
L 189.439761 30.298884 
L 189.728338 31.688999 
L 190.016916 30.311173 
L 190.161204 31.469043 
L 190.305493 30.378122 
L 190.449781 31.871501 
L 190.59407 31.678126 
L 190.882647 31.006596 
L 191.026936 31.268509 
L 191.171224 32.272119 
L 191.315513 31.394089 
L 191.748378 33.142989 
L 192.036956 31.819961 
L 192.181244 32.149697 
L 192.469821 33.624494 
L 192.758399 32.487223 
L 193.191264 35.124584 
L 193.335553 34.41023 
L 193.62413 35.561335 
L 193.768419 34.339517 
L 193.912707 34.485814 
L 194.056996 35.141988 
L 194.201284 36.830822 
L 194.345573 36.433181 
L 194.489861 35.444556 
L 194.63415 35.567665 
L 195.067016 37.325739 
L 195.355593 38.256556 
L 195.499881 38.060833 
L 195.64417 39.611592 
L 195.932747 38.703324 
L 196.077036 40.355058 
L 196.221324 40.279132 
L 196.509902 41.530154 
L 196.65419 41.519392 
L 196.798479 42.300038 
L 196.942767 40.971459 
L 197.231344 42.008392 
L 197.375633 41.72078 
L 197.519922 43.133839 
L 197.66421 43.104777 
L 197.808499 43.242188 
L 197.952787 44.964357 
L 198.097076 44.155052 
L 198.241364 44.431173 
L 198.385653 45.222339 
L 198.529942 44.826357 
L 198.67423 46.116159 
L 198.818519 45.715318 
L 199.539962 47.680077 
L 199.828539 49.326269 
L 199.972827 49.070053 
L 200.405693 51.409842 
L 200.549982 51.38113 
L 201.271425 54.227952 
L 201.415713 52.830088 
L 201.560002 54.53012 
L 201.70429 54.510608 
L 201.992867 56.0163 
L 202.137156 54.596363 
L 202.570022 57.203335 
L 203.147176 59.063064 
L 203.291465 57.693157 
L 204.301485 62.234177 
L 204.590062 61.336586 
L 205.022928 62.62644 
L 205.167216 62.733138 
L 205.74437 65.039095 
L 205.888659 65.828025 
L 206.177236 65.150974 
L 206.321525 65.206499 
L 206.610102 67.54366 
L 206.75439 66.967345 
L 207.187256 68.511488 
L 207.331545 67.440527 
L 207.475833 68.990629 
L 207.620122 68.388172 
L 207.764411 67.685587 
L 207.908699 68.160844 
L 208.197276 70.311539 
L 208.341565 69.453204 
L 208.774431 70.493932 
L 208.918719 69.57732 
L 209.063008 71.300392 
L 209.207296 70.044071 
L 209.351585 70.076265 
L 209.495873 70.324627 
L 209.784451 71.815118 
L 209.928739 70.753871 
L 210.073028 70.913725 
L 210.361605 72.795036 
L 210.505893 71.816689 
L 210.650182 72.450396 
L 210.794471 72.351363 
L 210.938759 72.193623 
L 211.083048 71.666504 
L 211.371625 72.941153 
L 211.515914 73.379321 
L 211.804491 72.837293 
L 211.948779 72.996854 
L 212.093068 73.84793 
L 212.237356 72.297718 
L 212.525934 74.20617 
L 212.670222 73.374562 
L 212.958799 74.134804 
L 213.391665 72.467086 
L 213.680242 73.676348 
L 213.680242 73.676348 
" clip-path="url(#p167e58caf1)" style="fill: none; stroke: #cc3164; stroke-width: 1.5; stroke-linecap: square"/>
   </g>
   <g id="patch_7">
    <path d="M 134.480242 74.20617 
L 134.480242 29.707723 
" style="fill: none; stroke: #4d4f53; stroke-width: 0.8; stroke-linejoin: miter; stroke-linecap: square"/>
   </g>
   <g id="patch_8">
    <path d="M 141.680242 78.656015 
L 213.680242 78.656015 
" style="fill: none; stroke: #4d4f53; stroke-width: 0.8; stroke-linejoin: miter; stroke-linecap: square"/>
   </g>
   <g id="legend_2">
    <g id="patch_9">
     <path d="M 186.144142 76.990015 
L 219.214242 76.990015 
L 219.214242 37.81038 
L 186.144142 37.81038 
z
" style="fill: #ffffff"/>
    </g>
    <g id="text_16">
     <!-- title -->
     <g style="fill: #4d4f53" transform="translate(194.536617 48.304879) scale(0.0833 -0.0833)">
      <use xlink:href="#DejaVuSans-74"/>
      <use xlink:href="#DejaVuSans-69" transform="translate(39.208984 0)"/>
      <use xlink:href="#DejaVuSans-74" transform="translate(66.992188 0)"/>
      <use xlink:href="#DejaVuSans-6c" transform="translate(106.201172 0)"/>
      <use xlink:href="#DejaVuSans-65" transform="translate(133.984375 0)"/>
     </g>
    </g>
    <g id="line2d_19">
     <path d="M 190.309142 56.783257 
L 196.140142 56.783257 
L 201.971142 56.783257 
" style="fill: none; stroke: #3362b0; stroke-width: 1.5; stroke-linecap: square"/>
    </g>
    <g id="text_17">
     <!-- $x_1$ -->
     <g style="fill: #4d4f53" transform="translate(206.136142 59.698757) scale(0.0833 -0.0833)">
      <use xlink:href="#DejaVuSans-Oblique-78" transform="translate(0 0.3125)"/>
      <use xlink:href="#DejaVuSans-31" transform="translate(59.179688 -16.09375) scale(0.7)"/>
     </g>
    </g>
    <g id="line2d_20">
     <path d="M 190.309142 68.177135 
L 196.140142 68.177135 
L 201.971142 68.177135 
" style="fill: none; stroke: #cc3164; stroke-width: 1.5; stroke-linecap: square"/>
    </g>
    <g id="text_18">
     <!-- $x_2$ -->
     <g style="fill: #4d4f53" transform="translate(206.136142 71.092635) scale(0.0833 -0.0833)">
      <use xlink:href="#DejaVuSans-Oblique-78" transform="translate(0 0.3125)"/>
      <use xlink:href="#DejaVuSans-32" transform="translate(59.179688 -16.09375) scale(0.7)"/>
     </g>
    </g>
   </g>
  </g>
  <g id="axes_3">
   <g id="patch_10">
    <path d="M 242.480242 78.656015 
L 328.880242 78.656015 
L 328.880242 25.257878 
L 242.480242 25.257878 
L 242.480242 78.656015 
z
" style="fill: none"/>
   </g>
   <g id="matplotlib.axis_5">
    <g id="xtick_7">
     <g id="line2d_21">
      <g>
       <use xlink:href="#m0137b9eaa7" x="249.680242" y="78.656015" style="fill: #4d4f53; stroke: #4d4f53; stroke-width: 0.8"/>
      </g>
     </g>
     <g id="text_19">
      <!-- 0 -->
      <g style="fill: #4d4f53" transform="translate(247.030261 91.985513) scale(0.0833 -0.0833)">
       <use xlink:href="#DejaVuSans-30"/>
      </g>
     </g>
    </g>
    <g id="xtick_8">
     <g id="line2d_22">
      <g>
       <use xlink:href="#m0137b9eaa7" x="287.877429" y="78.656015" style="fill: #4d4f53; stroke: #4d4f53; stroke-width: 0.8"/>
      </g>
     </g>
     <g id="text_20">
      <!-- 5 -->
      <g style="fill: #4d4f53" transform="translate(285.227447 91.985513) scale(0.0833 -0.0833)">
       <use xlink:href="#DejaVuSans-35"/>
      </g>
     </g>
    </g>
    <g id="xtick_9">
     <g id="line2d_23">
      <g>
       <use xlink:href="#m0137b9eaa7" x="326.074615" y="78.656015" style="fill: #4d4f53; stroke: #4d4f53; stroke-width: 0.8"/>
      </g>
     </g>
     <g id="text_21">
      <!-- 10 -->
      <g style="fill: #4d4f53" transform="translate(320.774652 91.985513) scale(0.0833 -0.0833)">
       <use xlink:href="#DejaVuSans-31"/>
       <use xlink:href="#DejaVuSans-30" transform="translate(63.623047 0)"/>
      </g>
     </g>
    </g>
   </g>
   <g id="matplotlib.axis_6">
    <g id="ytick_7">
     <g id="line2d_24">
      <g>
       <use xlink:href="#m96f3d646e7" x="242.480242" y="74.225853" style="fill: #4d4f53; stroke: #4d4f53; stroke-width: 0.8"/>
      </g>
     </g>
     <g id="text_22">
      <!-- −1 -->
      <g style="fill: #4d4f53" transform="translate(223.2 77.390602) scale(0.0833 -0.0833)">
       <use xlink:href="#DejaVuSans-2212"/>
       <use xlink:href="#DejaVuSans-31" transform="translate(83.789062 0)"/>
      </g>
     </g>
    </g>
    <g id="ytick_8">
     <g id="line2d_25">
      <g>
       <use xlink:href="#m96f3d646e7" x="242.480242" y="53.02276" style="fill: #4d4f53; stroke: #4d4f53; stroke-width: 0.8"/>
      </g>
     </g>
     <g id="text_23">
      <!-- 0 -->
      <g style="fill: #4d4f53" transform="translate(230.18028 56.187509) scale(0.0833 -0.0833)">
       <use xlink:href="#DejaVuSans-30"/>
      </g>
     </g>
    </g>
    <g id="ytick_9">
     <g id="line2d_26">
      <g>
       <use xlink:href="#m96f3d646e7" x="242.480242" y="31.819667" style="fill: #4d4f53; stroke: #4d4f53; stroke-width: 0.8"/>
      </g>
     </g>
     <g id="text_24">
      <!-- 1 -->
      <g style="fill: #4d4f53" transform="translate(230.18028 34.984416) scale(0.0833 -0.0833)">
       <use xlink:href="#DejaVuSans-31"/>
      </g>
     </g>
    </g>
   </g>
   <g id="line2d_27">
    <path d="M 249.680242 37.137902 
L 250.257396 35.331483 
L 250.401685 35.628875 
L 250.545974 33.874317 
L 250.690262 34.155863 
L 250.834551 35.237153 
L 251.123128 33.71163 
L 251.267417 34.570005 
L 251.411705 32.547148 
L 251.555994 33.496769 
L 251.844571 32.38066 
L 251.988859 33.12251 
L 252.133148 32.837111 
L 252.421725 31.790065 
L 252.566014 32.855366 
L 252.710302 32.50134 
L 252.854591 31.55714 
L 252.998879 31.79182 
L 253.143168 32.352822 
L 253.287457 31.742907 
L 253.431745 32.091269 
L 253.720322 30.560186 
L 253.864611 31.84906 
L 254.0089 30.136146 
L 254.153188 31.195667 
L 254.297477 30.968125 
L 254.441765 30.901003 
L 254.586054 31.903966 
L 254.874631 29.762093 
L 255.163208 31.560641 
L 255.451785 30.350484 
L 255.596074 31.821107 
L 255.740362 31.058873 
L 255.884651 31.739385 
L 256.02894 30.219765 
L 256.173228 31.188918 
L 256.317517 30.485629 
L 256.461805 30.985806 
L 256.606094 30.024231 
L 256.750382 30.381636 
L 257.03896 31.113749 
L 257.183248 30.285306 
L 257.471825 32.57038 
L 257.616114 32.523402 
L 257.760403 30.839856 
L 257.904691 30.892541 
L 258.193268 32.506688 
L 258.337557 31.844012 
L 258.481845 33.507714 
L 258.626134 32.080561 
L 258.770423 32.436289 
L 258.914711 33.630876 
L 259.203288 32.472693 
L 259.347577 34.255748 
L 259.491865 32.870284 
L 259.636154 34.321258 
L 259.780443 33.738579 
L 259.924731 34.881371 
L 260.06902 34.570906 
L 260.213308 35.528213 
L 260.357597 35.151868 
L 260.646174 35.800737 
L 260.790463 35.218535 
L 260.934751 36.114402 
L 261.07904 35.894122 
L 261.223328 36.02178 
L 261.367617 37.237477 
L 261.511906 36.339019 
L 262.08906 38.46787 
L 262.233348 37.852756 
L 262.666214 40.224316 
L 262.810503 39.049474 
L 263.243368 41.566109 
L 263.387657 41.500396 
L 263.820523 43.202334 
L 263.964811 42.37786 
L 264.1091 44.131174 
L 264.253388 44.059685 
L 264.541966 43.31486 
L 264.830543 45.182888 
L 264.974831 44.615698 
L 265.11912 44.702904 
L 265.407697 46.750753 
L 265.551986 46.484013 
L 265.840563 48.679577 
L 265.984851 48.399963 
L 266.12914 48.506781 
L 266.273429 49.827958 
L 266.417717 48.38681 
L 267.283449 52.456344 
L 267.427737 52.617968 
L 267.572026 52.076923 
L 267.716314 52.903255 
L 267.860603 52.337824 
L 268.293469 55.123583 
L 268.582046 55.395723 
L 268.726334 56.545554 
L 268.870623 55.753489 
L 269.014912 57.370415 
L 269.1592 56.350479 
L 269.303489 56.874191 
L 269.447777 58.642149 
L 269.592066 57.42769 
L 269.736354 58.710741 
L 269.880643 58.163524 
L 270.313509 60.571397 
L 270.457797 59.511898 
L 270.602086 61.098889 
L 270.746374 60.458482 
L 270.890663 61.203567 
L 271.034952 60.847226 
L 271.467817 63.635874 
L 271.612106 62.123634 
L 271.900683 64.510983 
L 272.044972 63.722869 
L 272.333549 64.635471 
L 272.477837 64.198868 
L 272.622126 64.527213 
L 272.766415 66.183359 
L 272.910703 65.517811 
L 273.343569 67.797382 
L 273.487857 67.768442 
L 273.632146 67.123011 
L 273.776435 68.145086 
L 273.920723 68.078859 
L 274.065012 68.543698 
L 274.2093 68.471846 
L 274.353589 68.390832 
L 274.497877 68.009102 
L 274.642166 70.18833 
L 274.786455 69.309002 
L 274.930743 69.353842 
L 275.075032 70.594207 
L 275.21932 69.601083 
L 275.363609 70.54356 
L 275.507897 70.459715 
L 275.652186 70.509936 
L 275.796475 70.128673 
L 276.085052 70.936453 
L 276.373629 72.495325 
L 276.662206 71.226592 
L 276.806495 71.532648 
L 276.950783 72.735868 
L 277.095072 72.698769 
L 277.23936 72.933519 
L 277.527938 72.208624 
L 277.816515 73.182123 
L 278.105092 72.119132 
L 278.24938 72.828541 
L 278.393669 72.509842 
L 278.537958 73.175153 
L 278.826535 72.420033 
L 278.970823 74.158618 
L 279.115112 72.657691 
L 279.259401 72.701899 
L 279.547978 72.554695 
L 279.692266 72.222303 
L 279.980843 73.765269 
L 280.269421 71.98611 
L 280.557998 72.144974 
L 280.846575 73.825865 
L 281.135152 72.12072 
L 281.279441 72.079804 
L 281.423729 73.147087 
L 281.568018 73.119881 
L 281.712306 72.91496 
L 281.856595 71.386289 
L 282.145172 72.483602 
L 282.289461 71.379763 
L 282.433749 72.486021 
L 282.578038 72.208557 
L 282.722326 72.005591 
L 283.010904 70.581739 
L 283.155192 70.487832 
L 283.443769 69.733263 
L 283.732346 70.707927 
L 283.876635 69.613467 
L 284.020924 69.785513 
L 284.165212 69.651263 
L 284.598078 67.565914 
L 284.742366 68.272035 
L 285.463809 65.785012 
L 285.608098 67.138019 
L 285.896675 65.464297 
L 286.040964 66.40551 
L 286.329541 64.503804 
L 287.483849 61.633521 
L 287.628138 62.581258 
L 287.772427 61.292254 
L 287.916715 61.958203 
L 288.061004 60.234881 
L 288.205292 61.54474 
L 288.349581 61.17197 
L 288.493869 60.832805 
L 288.782447 58.997297 
L 288.926735 59.687551 
L 289.071024 59.308942 
L 289.359601 57.008929 
L 289.503889 57.718355 
L 289.792467 55.638868 
L 289.936755 55.275564 
L 290.081044 55.465512 
L 290.51391 53.887187 
L 290.658198 54.192201 
L 291.091064 52.128628 
L 291.235352 52.715845 
L 291.379641 51.945628 
L 291.52393 52.24897 
L 292.101084 49.688921 
L 292.245372 50.554513 
L 292.389661 50.028759 
L 292.822527 47.0185 
L 292.966815 48.422022 
L 293.54397 45.053748 
L 293.688258 46.329546 
L 293.976835 44.615706 
L 294.121124 45.019839 
L 294.265413 45.134072 
L 294.698278 42.455548 
L 294.842567 42.960786 
L 294.986855 42.716415 
L 295.275433 41.377045 
L 295.419721 41.693175 
L 295.56401 40.423822 
L 295.708298 40.814542 
L 295.852587 39.71129 
L 295.996875 40.907491 
L 296.141164 38.744369 
L 296.285453 38.979724 
L 296.429741 39.071702 
L 296.57403 39.67052 
L 297.006895 36.835939 
L 297.295473 37.029412 
L 297.439761 37.057291 
L 297.58405 35.884797 
L 297.728338 36.151432 
L 297.872627 35.53747 
L 298.161204 36.355589 
L 298.305493 34.249219 
L 298.449781 36.034396 
L 298.59407 35.395538 
L 298.738358 34.75241 
L 298.882647 34.899603 
L 299.026936 34.624289 
L 299.459801 33.279992 
L 299.60409 32.758144 
L 299.748378 33.729031 
L 299.892667 32.110387 
L 300.036956 32.431168 
L 300.181244 33.568611 
L 300.325533 32.239036 
L 300.469821 32.551491 
L 300.61411 32.475686 
L 300.758399 32.645406 
L 301.046976 30.738326 
L 301.191264 32.103979 
L 301.335553 31.193144 
L 301.479841 31.553081 
L 301.62413 31.466258 
L 301.768419 32.072294 
L 301.912707 31.682497 
L 302.056996 30.301647 
L 302.201284 31.830857 
L 302.345573 31.346935 
L 302.489861 30.451453 
L 302.778439 31.314491 
L 302.922727 29.85187 
L 303.067016 29.909307 
L 303.211304 30.531617 
L 303.499881 29.729899 
L 303.64417 29.969712 
L 303.788459 30.78498 
L 303.932747 30.151876 
L 304.077036 30.217383 
L 304.221324 31.568051 
L 304.365613 30.70385 
L 304.509902 31.838886 
L 304.65419 31.623396 
L 304.798479 31.87446 
L 305.087056 31.37826 
L 305.231344 31.803087 
L 305.519922 30.788713 
L 305.808499 32.749789 
L 305.952787 31.074736 
L 306.097076 32.414182 
L 306.385653 31.450455 
L 306.529942 31.867335 
L 306.67423 33.614062 
L 306.818519 33.06322 
L 306.962807 33.550051 
L 307.107096 32.912605 
L 307.251384 33.25432 
L 307.395673 32.703426 
L 307.539962 34.034464 
L 307.68425 33.303704 
L 308.117116 35.146023 
L 308.261405 34.48835 
L 308.405693 35.013627 
L 308.549982 34.412832 
L 308.838559 36.484328 
L 308.982847 35.778512 
L 309.127136 36.117418 
L 309.271425 35.845428 
L 309.415713 36.122335 
L 309.560002 37.827162 
L 309.70429 37.516266 
L 310.281445 39.691598 
L 310.425733 38.120219 
L 310.570022 38.603405 
L 311.147176 40.397646 
L 311.291465 41.711397 
L 311.435753 40.563903 
L 311.580042 42.795538 
L 311.72433 41.890339 
L 311.868619 43.503395 
L 312.012908 41.884045 
L 312.157196 42.454872 
L 312.73435 45.470659 
L 312.878639 44.414637 
L 313.167216 46.655431 
L 313.311505 46.590458 
L 313.455793 45.611949 
L 313.888659 48.347852 
L 314.032948 47.614507 
L 314.177236 49.356378 
L 314.321525 49.132707 
L 314.465813 48.618822 
L 314.610102 50.827879 
L 314.898679 49.579696 
L 315.042968 51.56118 
L 315.187256 50.885099 
L 315.475833 51.409148 
L 315.908699 54.284222 
L 316.052988 53.670445 
L 316.485853 54.891698 
L 316.774431 56.472086 
L 317.063008 55.511156 
L 317.640162 58.55797 
L 317.784451 57.589296 
L 318.217316 60.476655 
L 318.361605 59.988884 
L 318.505893 61.242172 
L 318.650182 60.343121 
L 318.794471 61.866023 
L 318.938759 61.521053 
L 319.083048 62.349284 
L 319.227336 61.107691 
L 319.660202 64.232583 
L 319.804491 63.304944 
L 320.237356 64.733878 
L 320.381645 64.023179 
L 320.525934 65.835397 
L 320.670222 65.064438 
L 320.814511 65.192478 
L 321.247376 66.244734 
L 321.535954 68.115623 
L 321.680242 66.640886 
L 321.680242 66.640886 
" clip-path="url(#pb2f56dc18c)" style="fill: none; stroke: #3362b0; stroke-width: 1.5; stroke-linecap: square"/>
   </g>
   <g id="line2d_28">
    <path d="M 249.680242 31.44084 
L 249.824531 30.212245 
L 249.968819 30.32654 
L 250.113108 31.614664 
L 250.257396 30.342119 
L 250.401685 31.577592 
L 250.545974 31.54525 
L 250.834551 31.475801 
L 250.978839 32.146917 
L 251.123128 31.767119 
L 251.267417 32.339108 
L 251.411705 32.194207 
L 251.555994 31.277939 
L 251.844571 33.151249 
L 251.988859 32.073704 
L 252.133148 33.167003 
L 252.421725 32.012713 
L 252.710302 34.13713 
L 252.854591 33.779106 
L 252.998879 34.032997 
L 253.287457 35.172112 
L 253.431745 34.100059 
L 253.576034 34.624103 
L 253.720322 34.048841 
L 254.153188 35.6304 
L 254.297477 35.805684 
L 254.441765 37.214841 
L 254.586054 37.027348 
L 254.730342 36.551603 
L 254.874631 37.976002 
L 255.01892 37.453718 
L 255.163208 37.134742 
L 255.307497 38.945823 
L 255.451785 37.44584 
L 256.317517 40.682154 
L 256.461805 40.13143 
L 256.606094 41.842565 
L 256.750382 40.261225 
L 257.03896 42.881725 
L 257.183248 42.984926 
L 257.327537 41.792439 
L 257.616114 43.801181 
L 257.760403 43.805955 
L 257.904691 44.976129 
L 258.04898 43.811516 
L 258.193268 45.205159 
L 258.337557 44.553895 
L 258.626134 46.853966 
L 258.770423 45.644658 
L 259.203288 48.044627 
L 259.347577 46.940984 
L 259.491865 48.320408 
L 259.636154 47.790622 
L 260.06902 49.831277 
L 260.213308 49.249706 
L 260.357597 51.599708 
L 260.501885 50.280611 
L 260.646174 52.425995 
L 260.790463 52.08615 
L 260.934751 52.115639 
L 261.800483 55.082242 
L 261.944771 54.228349 
L 262.08906 54.860483 
L 262.377637 57.106052 
L 262.521926 56.593044 
L 262.954791 58.501465 
L 263.243368 58.330095 
L 263.387657 57.935591 
L 263.964811 60.725935 
L 264.1091 59.949221 
L 264.397677 62.446079 
L 264.541966 61.874523 
L 264.830543 63.46351 
L 264.974831 61.941239 
L 265.11912 63.351986 
L 265.263409 62.665801 
L 265.840563 65.798259 
L 265.984851 64.766014 
L 266.12914 65.950607 
L 266.273429 65.252907 
L 266.417717 66.544515 
L 266.562006 66.443895 
L 266.706294 66.4438 
L 266.850583 67.702803 
L 266.994871 67.014843 
L 267.13916 68.382215 
L 267.283449 68.135824 
L 267.427737 68.299684 
L 267.572026 68.903537 
L 267.716314 67.574252 
L 267.860603 69.774033 
L 268.004891 68.258392 
L 268.14918 69.031031 
L 268.293469 68.56719 
L 268.437757 69.589961 
L 268.582046 69.531783 
L 268.726334 69.431648 
L 268.870623 69.746957 
L 269.014912 71.227363 
L 269.1592 70.7303 
L 269.303489 71.302742 
L 269.447777 70.195648 
L 269.736354 71.416333 
L 269.880643 71.26508 
L 270.024932 72.548902 
L 270.16922 71.156789 
L 270.457797 73.036473 
L 270.746374 72.117907 
L 271.034952 73.490894 
L 271.17924 71.685904 
L 271.323529 72.387047 
L 271.467817 73.570557 
L 271.612106 72.58833 
L 271.756394 73.77406 
L 271.900683 73.722041 
L 272.044972 73.86531 
L 272.333549 72.118907 
L 272.622126 73.947127 
L 272.766415 73.871359 
L 273.054992 72.757846 
L 273.19928 72.890539 
L 273.343569 74.120891 
L 273.487857 72.898973 
L 273.632146 74.013307 
L 273.776435 72.710957 
L 273.920723 73.28184 
L 274.065012 71.90875 
L 274.2093 72.020346 
L 274.353589 72.201729 
L 274.497877 71.961386 
L 274.930743 73.198124 
L 275.075032 72.257048 
L 275.21932 72.808204 
L 275.363609 71.403152 
L 275.507897 72.617571 
L 275.652186 72.530396 
L 275.940763 70.495509 
L 276.22934 71.839135 
L 276.373629 70.816647 
L 276.517918 71.474006 
L 276.662206 70.958614 
L 276.806495 69.432068 
L 276.950783 71.06295 
L 277.095072 70.895444 
L 277.23936 70.549186 
L 277.672226 68.17519 
L 277.816515 69.10737 
L 277.960803 68.78558 
L 278.105092 68.707393 
L 278.393669 66.983923 
L 278.537958 68.249441 
L 278.826535 66.393153 
L 278.970823 66.161436 
L 279.115112 67.092344 
L 279.403689 65.583342 
L 279.547978 66.422865 
L 279.836555 64.313792 
L 279.980843 65.49295 
L 280.269421 63.647767 
L 280.413709 64.149275 
L 280.557998 64.103836 
L 280.846575 61.909133 
L 280.990863 62.003428 
L 281.135152 62.359769 
L 281.423729 61.851923 
L 281.568018 60.729713 
L 281.712306 61.182812 
L 282.145172 60.121489 
L 282.289461 58.530164 
L 282.433749 58.685701 
L 282.866615 56.885408 
L 283.010904 56.956779 
L 283.299481 55.196473 
L 283.443769 56.350995 
L 283.588058 55.964137 
L 284.165212 53.116622 
L 284.453789 53.952106 
L 284.742366 51.365976 
L 285.608098 48.817282 
L 285.752386 49.507261 
L 285.896675 48.276758 
L 286.040964 49.125224 
L 286.329541 46.914229 
L 286.473829 47.73339 
L 286.618118 47.436196 
L 286.906695 45.682782 
L 287.050984 45.941161 
L 287.339561 44.739228 
L 287.483849 45.772474 
L 287.916715 42.886356 
L 288.061004 43.839653 
L 288.349581 41.471842 
L 288.638158 42.478689 
L 288.926735 40.078952 
L 289.215312 41.126992 
L 289.503889 39.112589 
L 289.648178 40.506148 
L 289.936755 38.213348 
L 290.081044 38.587953 
L 290.369621 37.132156 
L 290.51391 37.33252 
L 290.802487 36.732176 
L 290.946775 37.713356 
L 291.235352 35.757615 
L 291.379641 36.771651 
L 291.52393 35.034542 
L 291.812507 36.192362 
L 292.101084 34.625916 
L 292.245372 34.498645 
L 292.53395 34.798385 
L 292.678238 33.936926 
L 292.966815 34.452034 
L 293.111104 32.336039 
L 293.255392 33.212701 
L 293.399681 31.992491 
L 293.688258 32.817607 
L 293.976835 31.416365 
L 294.121124 32.756481 
L 294.265413 32.475138 
L 294.409701 31.865263 
L 294.55399 32.277259 
L 294.698278 31.582971 
L 294.842567 31.656409 
L 294.986855 31.719406 
L 295.131144 31.519422 
L 295.275433 30.144418 
L 295.56401 32.013177 
L 295.708298 29.929131 
L 295.852587 30.26836 
L 295.996875 31.257712 
L 296.141164 31.00747 
L 296.285453 30.306973 
L 296.429741 31.117173 
L 296.57403 30.932467 
L 296.718318 31.079259 
L 297.006895 30.700225 
L 297.151184 29.829339 
L 297.295473 31.25902 
L 297.439761 30.298884 
L 297.728338 31.688999 
L 298.016916 30.311173 
L 298.161204 31.469043 
L 298.305493 30.378122 
L 298.449781 31.871501 
L 298.59407 31.678126 
L 298.882647 31.006596 
L 299.026936 31.268509 
L 299.171224 32.272119 
L 299.315513 31.394089 
L 299.748378 33.142989 
L 300.036956 31.819961 
L 300.181244 32.149697 
L 300.469821 33.624494 
L 300.758399 32.487223 
L 301.191264 35.124584 
L 301.335553 34.41023 
L 301.62413 35.561335 
L 301.768419 34.339517 
L 301.912707 34.485814 
L 302.056996 35.141988 
L 302.201284 36.830822 
L 302.345573 36.433181 
L 302.489861 35.444556 
L 302.63415 35.567665 
L 303.067016 37.325739 
L 303.355593 38.256556 
L 303.499881 38.060833 
L 303.64417 39.611592 
L 303.932747 38.703324 
L 304.077036 40.355058 
L 304.221324 40.279132 
L 304.509902 41.530154 
L 304.65419 41.519392 
L 304.798479 42.300038 
L 304.942767 40.971459 
L 305.231344 42.008392 
L 305.375633 41.72078 
L 305.519922 43.133839 
L 305.66421 43.104777 
L 305.808499 43.242188 
L 305.952787 44.964357 
L 306.097076 44.155052 
L 306.241364 44.431173 
L 306.385653 45.222339 
L 306.529942 44.826357 
L 306.67423 46.116159 
L 306.818519 45.715318 
L 307.539962 47.680077 
L 307.828539 49.326269 
L 307.972827 49.070053 
L 308.405693 51.409842 
L 308.549982 51.38113 
L 309.271425 54.227952 
L 309.415713 52.830088 
L 309.560002 54.53012 
L 309.70429 54.510608 
L 309.992867 56.0163 
L 310.137156 54.596363 
L 310.570022 57.203335 
L 311.147176 59.063064 
L 311.291465 57.693157 
L 312.301485 62.234177 
L 312.590062 61.336586 
L 313.022928 62.62644 
L 313.167216 62.733138 
L 313.74437 65.039095 
L 313.888659 65.828025 
L 314.177236 65.150974 
L 314.321525 65.206499 
L 314.610102 67.54366 
L 314.75439 66.967345 
L 315.187256 68.511488 
L 315.331545 67.440527 
L 315.475833 68.990629 
L 315.620122 68.388172 
L 315.764411 67.685587 
L 315.908699 68.160844 
L 316.197276 70.311539 
L 316.341565 69.453204 
L 316.774431 70.493932 
L 316.918719 69.57732 
L 317.063008 71.300392 
L 317.207296 70.044071 
L 317.351585 70.076265 
L 317.495873 70.324627 
L 317.784451 71.815118 
L 317.928739 70.753871 
L 318.073028 70.913725 
L 318.361605 72.795036 
L 318.505893 71.816689 
L 318.650182 72.450396 
L 318.794471 72.351363 
L 318.938759 72.193623 
L 319.083048 71.666504 
L 319.371625 72.941153 
L 319.515914 73.379321 
L 319.804491 72.837293 
L 319.948779 72.996854 
L 320.093068 73.84793 
L 320.237356 72.297718 
L 320.525934 74.20617 
L 320.670222 73.374562 
L 320.958799 74.134804 
L 321.391665 72.467086 
L 321.680242 73.676348 
L 321.680242 73.676348 
" clip-path="url(#pb2f56dc18c)" style="fill: none; stroke: #cc3164; stroke-width: 1.5; stroke-linecap: square"/>
   </g>
   <g id="patch_11">
    <path d="M 242.480242 74.20617 
L 242.480242 29.707723 
" style="fill: none; stroke: #4d4f53; stroke-width: 0.8; stroke-linejoin: miter; stroke-linecap: square"/>
   </g>
   <g id="patch_12">
    <path d="M 249.680242 78.656015 
L 321.680242 78.656015 
" style="fill: none; stroke: #4d4f53; stroke-width: 0.8; stroke-linejoin: miter; stroke-linecap: square"/>
   </g>
   <g id="legend_3">
    <g id="patch_13">
     <path d="M 333.138242 71.546764 
L 366.208342 71.546764 
L 366.208342 32.367129 
L 333.138242 32.367129 
z
" style="fill: #ffffff"/>
    </g>
    <g id="text_25">
     <!-- title -->
     <g style="fill: #4d4f53" transform="translate(341.530717 42.861628) scale(0.0833 -0.0833)">
      <use xlink:href="#DejaVuSans-74"/>
      <use xlink:href="#DejaVuSans-69" transform="translate(39.208984 0)"/>
      <use xlink:href="#DejaVuSans-74" transform="translate(66.992188 0)"/>
      <use xlink:href="#DejaVuSans-6c" transform="translate(106.201172 0)"/>
      <use xlink:href="#DejaVuSans-65" transform="translate(133.984375 0)"/>
     </g>
    </g>
    <g id="line2d_29">
     <path d="M 337.303242 51.340006 
L 343.134242 51.340006 
L 348.965242 51.340006 
" style="fill: none; stroke: #3362b0; stroke-width: 1.5; stroke-linecap: square"/>
    </g>
    <g id="text_26">
     <!-- $x_1$ -->
     <g style="fill: #4d4f53" transform="translate(353.130242 54.255506) scale(0.0833 -0.0833)">
      <use xlink:href="#DejaVuSans-Oblique-78" transform="translate(0 0.3125)"/>
      <use xlink:href="#DejaVuSans-31" transform="translate(59.179688 -16.09375) scale(0.7)"/>
     </g>
    </g>
    <g id="line2d_30">
     <path d="M 337.303242 62.733884 
L 343.134242 62.733884 
L 348.965242 62.733884 
" style="fill: none; stroke: #cc3164; stroke-width: 1.5; stroke-linecap: square"/>
    </g>
    <g id="text_27">
     <!-- $x_2$ -->
     <g style="fill: #4d4f53" transform="translate(353.130242 65.649384) scale(0.0833 -0.0833)">
      <use xlink:href="#DejaVuSans-Oblique-78" transform="translate(0 0.3125)"/>
      <use xlink:href="#DejaVuSans-32" transform="translate(59.179688 -16.09375) scale(0.7)"/>
     </g>
    </g>
   </g>
  </g>
 </g>
 <defs>
  <clipPath id="pe9ed3dc29d">
   <rect x="26.480242" y="25.257878" width="86.4" height="53.398137"/>
  </clipPath>
  <clipPath id="p167e58caf1">
   <rect x="134.480242" y="25.257878" width="86.4" height="53.398137"/>
  </clipPath>
  <clipPath id="pb2f56dc18c">
   <rect x="242.480242" y="25.257878" width="86.4" height="53.398137"/>
  </clipPath>
 </defs>
</svg>
