<?xml version="1.0" encoding="utf-8" standalone="no"?>
<!DOCTYPE svg PUBLIC "-//W3C//DTD SVG 1.1//EN"
  "http://www.w3.org/Graphics/SVG/1.1/DTD/svg11.dtd">
<svg xmlns:xlink="http://www.w3.org/1999/xlink" width="268.648342pt" height="83.128137pt" viewBox="0 0 268.648342 83.128137" xmlns="http://www.w3.org/2000/svg" version="1.1">
 <metadata>
  <rdf:RDF xmlns:dc="http://purl.org/dc/elements/1.1/" xmlns:cc="http://creativecommons.org/ns#" xmlns:rdf="http://www.w3.org/1999/02/22-rdf-syntax-ns#">
   <cc:Work>
    <dc:type rdf:resource="http://purl.org/dc/dcmitype/StillImage"/>
    <dc:date>2026-06-19T12:25:03.352455</dc:date>
    <dc:format>image/svg+xml</dc:format>
    <dc:creator>
     <cc:Agent>
      <dc:title>Matplotlib v3.11.0, https://matplotlib.org/</dc:title>
     </cc:Agent>
    </dc:creator>
   </cc:Work>
  </rdf:RDF>
 </metadata>
 <defs>
  <style type="text/css">*{stroke-linejoin: round; stroke-linecap: butt}</style>
 </defs>
 <g id="figure_1">
  <g id="patch_1">
   <path d="M 0 83.128137 
L 268.648342 83.128137 
L 268.648342 0 
L 0 0 
L 0 83.128137 
z
" style="fill: none"/>
  </g>
  <g id="axes_1">
   <g id="patch_2">
    <path d="M 26.480242 60.598137 
L 112.880242 60.598137 
L 112.880242 7.2 
L 26.480242 7.2 
L 26.480242 60.598137 
z
" style="fill: none"/>
   </g>
   <g id="matplotlib.axis_1">
    <g id="xtick_1">
     <g id="line2d_1">
      <defs>
       <path id="m0e69d3c4d7" d="M 0 0 
L 0 3.5 
" style="stroke: #4d4f53; stroke-width: 0.8"/>
      </defs>
      <g>
       <use xlink:href="#m0e69d3c4d7" x="33.680242" y="60.598137" style="fill: #4d4f53; stroke: #4d4f53; stroke-width: 0.8"/>
      </g>
     </g>
     <g id="text_1">
      <!-- 0 -->
      <g style="fill: #4d4f53" transform="translate(31.030261 73.926984) scale(0.0833 -0.0833)">
       <defs>
        <path id="DejaVuSans-13" d="M 2034 4250 
Q 1547 4250 1301 3770 
Q 1056 3291 1056 2328 
Q 1056 1369 1301 889 
Q 1547 409 2034 409 
Q 2525 409 2770 889 
Q 3016 1369 3016 2328 
Q 3016 3291 2770 3770 
Q 2525 4250 2034 4250 
z
M 2034 4750 
Q 2819 4750 3233 4129 
Q 3647 3509 3647 2328 
Q 3647 1150 3233 529 
Q 2819 -91 2034 -91 
Q 1250 -91 836 529 
Q 422 1150 422 2328 
Q 422 3509 836 4129 
Q 1250 4750 2034 4750 
z
" transform="scale(0.015625)"/>
       </defs>
       <use xlink:href="#DejaVuSans-13"/>
      </g>
     </g>
    </g>
    <g id="xtick_2">
     <g id="line2d_2">
      <g>
       <use xlink:href="#m0e69d3c4d7" x="71.877429" y="60.598137" style="fill: #4d4f53; stroke: #4d4f53; stroke-width: 0.8"/>
      </g>
     </g>
     <g id="text_2">
      <!-- 5 -->
      <g style="fill: #4d4f53" transform="translate(69.227447 73.926984) scale(0.0833 -0.0833)">
       <defs>
        <path id="DejaVuSans-18" d="M 691 4666 
L 3169 4666 
L 3169 4134 
L 1269 4134 
L 1269 2991 
Q 1406 3038 1543 3061 
Q 1681 3084 1819 3084 
Q 2600 3084 3056 2656 
Q 3513 2228 3513 1497 
Q 3513 744 3044 326 
Q 2575 -91 1722 -91 
Q 1428 -91 1123 -41 
Q 819 9 494 109 
L 494 744 
Q 775 591 1075 516 
Q 1375 441 1709 441 
Q 2250 441 2565 725 
Q 2881 1009 2881 1497 
Q 2881 1984 2565 2268 
Q 2250 2553 1709 2553 
Q 1456 2553 1204 2497 
Q 953 2441 691 2322 
L 691 4666 
z
" transform="scale(0.015625)"/>
       </defs>
       <use xlink:href="#DejaVuSans-18"/>
      </g>
     </g>
    </g>
    <g id="xtick_3">
     <g id="line2d_3">
      <g>
       <use xlink:href="#m0e69d3c4d7" x="110.074615" y="60.598137" style="fill: #4d4f53; stroke: #4d4f53; stroke-width: 0.8"/>
      </g>
     </g>
     <g id="text_3">
      <!-- 10 -->
      <g style="fill: #4d4f53" transform="translate(104.774652 73.926984) scale(0.0833 -0.0833)">
       <defs>
        <path id="DejaVuSans-14" d="M 794 531 
L 1825 531 
L 1825 4091 
L 703 3866 
L 703 4441 
L 1819 4666 
L 2450 4666 
L 2450 531 
L 3481 531 
L 3481 0 
L 794 0 
L 794 531 
z
" transform="scale(0.015625)"/>
       </defs>
       <use xlink:href="#DejaVuSans-14"/>
       <use xlink:href="#DejaVuSans-13" transform="translate(63.625 0)"/>
      </g>
     </g>
    </g>
   </g>
   <g id="matplotlib.axis_2">
    <g id="ytick_1">
     <g id="line2d_4">
      <defs>
       <path id="mdc3a06571d" d="M 0 0 
L -3.5 0 
" style="stroke: #4d4f53; stroke-width: 0.8"/>
      </defs>
      <g>
       <use xlink:href="#mdc3a06571d" x="26.480242" y="56.167975" style="fill: #4d4f53; stroke: #4d4f53; stroke-width: 0.8"/>
      </g>
     </g>
     <g id="text_4">
      <!-- −1 -->
      <g style="fill: #4d4f53" transform="translate(7.2 59.332398) scale(0.0833 -0.0833)">
       <defs>
        <path id="DejaVuSans-c9c" d="M 678 2272 
L 4684 2272 
L 4684 1741 
L 678 1741 
L 678 2272 
z
" transform="scale(0.015625)"/>
       </defs>
       <use xlink:href="#DejaVuSans-c9c"/>
       <use xlink:href="#DejaVuSans-14" transform="translate(83.796875 0)"/>
      </g>
     </g>
    </g>
    <g id="ytick_2">
     <g id="line2d_5">
      <g>
       <use xlink:href="#mdc3a06571d" x="26.480242" y="34.964882" style="fill: #4d4f53; stroke: #4d4f53; stroke-width: 0.8"/>
      </g>
     </g>
     <g id="text_5">
      <!-- 0 -->
      <g style="fill: #4d4f53" transform="translate(14.18028 38.129306) scale(0.0833 -0.0833)">
       <use xlink:href="#DejaVuSans-13"/>
      </g>
     </g>
    </g>
    <g id="ytick_3">
     <g id="line2d_6">
      <g>
       <use xlink:href="#mdc3a06571d" x="26.480242" y="13.761789" style="fill: #4d4f53; stroke: #4d4f53; stroke-width: 0.8"/>
      </g>
     </g>
     <g id="text_6">
      <!-- 1 -->
      <g style="fill: #4d4f53" transform="translate(14.18028 16.926213) scale(0.0833 -0.0833)">
       <use xlink:href="#DejaVuSans-14"/>
      </g>
     </g>
    </g>
   </g>
   <g id="line2d_7">
    <path d="M 33.680242 19.080024 
L 34.257396 17.273605 
L 34.401685 17.570997 
L 34.545974 15.816439 
L 34.690262 16.097985 
L 34.834551 17.179274 
L 35.123128 15.653752 
L 35.267417 16.512127 
L 35.411705 14.48927 
L 35.555994 15.438891 
L 35.844571 14.322782 
L 35.988859 15.064632 
L 36.133148 14.779233 
L 36.421725 13.732187 
L 36.566014 14.797488 
L 36.710302 14.443462 
L 36.854591 13.499261 
L 36.998879 13.733942 
L 37.143168 14.294944 
L 37.287457 13.685029 
L 37.431745 14.033391 
L 37.720322 12.502307 
L 37.864611 13.791182 
L 38.0089 12.078268 
L 38.153188 13.137788 
L 38.297477 12.910246 
L 38.441765 12.843125 
L 38.586054 13.846088 
L 38.874631 11.704214 
L 39.163208 13.502763 
L 39.451785 12.292606 
L 39.596074 13.763229 
L 39.740362 13.000995 
L 39.884651 13.681507 
L 40.02894 12.161886 
L 40.173228 13.13104 
L 40.317517 12.427751 
L 40.461805 12.927928 
L 40.606094 11.966353 
L 40.750382 12.323758 
L 41.03896 13.05587 
L 41.183248 12.227427 
L 41.471825 14.512502 
L 41.616114 14.465524 
L 41.760403 12.781977 
L 41.904691 12.834663 
L 42.193268 14.44881 
L 42.337557 13.786134 
L 42.481845 15.449836 
L 42.626134 14.022683 
L 42.770423 14.378411 
L 42.914711 15.572998 
L 43.203288 14.414814 
L 43.347577 16.19787 
L 43.491865 14.812406 
L 43.636154 16.26338 
L 43.780443 15.6807 
L 43.924731 16.823493 
L 44.06902 16.513028 
L 44.213308 17.470334 
L 44.357597 17.09399 
L 44.646174 17.742859 
L 44.790463 17.160657 
L 44.934751 18.056524 
L 45.07904 17.836244 
L 45.223328 17.963902 
L 45.367617 19.179599 
L 45.511906 18.281141 
L 46.08906 20.409992 
L 46.233348 19.794878 
L 46.666214 22.166438 
L 46.810503 20.991596 
L 47.243368 23.508231 
L 47.387657 23.442518 
L 47.820523 25.144456 
L 47.964811 24.319982 
L 48.1091 26.073296 
L 48.253388 26.001807 
L 48.541966 25.256982 
L 48.830543 27.12501 
L 48.974831 26.55782 
L 49.11912 26.645026 
L 49.407697 28.692875 
L 49.551986 28.426135 
L 49.840563 30.621699 
L 49.984851 30.342085 
L 50.12914 30.448902 
L 50.273429 31.77008 
L 50.417717 30.328932 
L 51.283449 34.398466 
L 51.427737 34.56009 
L 51.572026 34.019045 
L 51.716314 34.845377 
L 51.860603 34.279946 
L 52.293469 37.065705 
L 52.582046 37.337845 
L 52.726334 38.487676 
L 52.870623 37.695611 
L 53.014912 39.312537 
L 53.1592 38.292601 
L 53.303489 38.816313 
L 53.447777 40.58427 
L 53.592066 39.369812 
L 53.736354 40.652863 
L 53.880643 40.105646 
L 54.313509 42.513518 
L 54.457797 41.45402 
L 54.602086 43.041011 
L 54.746374 42.400603 
L 54.890663 43.145689 
L 55.034952 42.789348 
L 55.467817 45.577996 
L 55.612106 44.065756 
L 55.900683 46.453105 
L 56.044972 45.664991 
L 56.333549 46.577592 
L 56.477837 46.14099 
L 56.622126 46.469335 
L 56.766415 48.12548 
L 56.910703 47.459932 
L 57.343569 49.739504 
L 57.487857 49.710564 
L 57.632146 49.065133 
L 57.776435 50.087208 
L 57.920723 50.020981 
L 58.065012 50.485819 
L 58.2093 50.413968 
L 58.353589 50.332954 
L 58.497877 49.951223 
L 58.642166 52.130452 
L 58.786455 51.251124 
L 58.930743 51.295964 
L 59.075032 52.536329 
L 59.21932 51.543205 
L 59.363609 52.485682 
L 59.507897 52.401837 
L 59.652186 52.452057 
L 59.796475 52.070795 
L 60.085052 52.878575 
L 60.373629 54.437447 
L 60.662206 53.168714 
L 60.806495 53.47477 
L 60.950783 54.67799 
L 61.095072 54.64089 
L 61.23936 54.875641 
L 61.527938 54.150746 
L 61.816515 55.124245 
L 62.105092 54.061254 
L 62.24938 54.770663 
L 62.393669 54.451964 
L 62.537958 55.117275 
L 62.826535 54.362155 
L 62.970823 56.10074 
L 63.115112 54.599812 
L 63.259401 54.644021 
L 63.547978 54.496817 
L 63.692266 54.164425 
L 63.980843 55.707391 
L 64.269421 53.928232 
L 64.557998 54.087096 
L 64.846575 55.767987 
L 65.135152 54.062842 
L 65.279441 54.021926 
L 65.423729 55.089209 
L 65.568018 55.062003 
L 65.712306 54.857081 
L 65.856595 53.328411 
L 66.145172 54.425724 
L 66.289461 53.321885 
L 66.433749 54.428143 
L 66.578038 54.150679 
L 66.722326 53.947712 
L 67.010904 52.523861 
L 67.155192 52.429954 
L 67.443769 51.675385 
L 67.732346 52.650049 
L 67.876635 51.555589 
L 68.020924 51.727635 
L 68.165212 51.593385 
L 68.598078 49.508036 
L 68.742366 50.214157 
L 69.463809 47.727134 
L 69.608098 49.080141 
L 69.896675 47.406419 
L 70.040964 48.347631 
L 70.329541 46.445926 
L 71.483849 43.575643 
L 71.628138 44.52338 
L 71.772427 43.234376 
L 71.916715 43.900324 
L 72.061004 42.177003 
L 72.205292 43.486862 
L 72.349581 43.114092 
L 72.493869 42.774927 
L 72.782447 40.939419 
L 72.926735 41.629672 
L 73.071024 41.251063 
L 73.359601 38.951051 
L 73.503889 39.660476 
L 73.792467 37.58099 
L 73.936755 37.217686 
L 74.081044 37.407634 
L 74.51391 35.829309 
L 74.658198 36.134323 
L 75.091064 34.07075 
L 75.235352 34.657967 
L 75.379641 33.88775 
L 75.52393 34.191092 
L 76.101084 31.631043 
L 76.245372 32.496635 
L 76.389661 31.970881 
L 76.822527 28.960622 
L 76.966815 30.364144 
L 77.54397 26.99587 
L 77.688258 28.271668 
L 77.976835 26.557828 
L 78.121124 26.961961 
L 78.265413 27.076194 
L 78.698278 24.39767 
L 78.842567 24.902908 
L 78.986855 24.658537 
L 79.275433 23.319167 
L 79.419721 23.635297 
L 79.56401 22.365944 
L 79.708298 22.756664 
L 79.852587 21.653412 
L 79.996875 22.849613 
L 80.141164 20.686491 
L 80.285453 20.921846 
L 80.429741 21.013824 
L 80.57403 21.612642 
L 81.006895 18.778061 
L 81.295473 18.971534 
L 81.439761 18.999413 
L 81.58405 17.826919 
L 81.728338 18.093553 
L 81.872627 17.479592 
L 82.161204 18.297711 
L 82.305493 16.191341 
L 82.449781 17.976518 
L 82.59407 17.33766 
L 82.738358 16.694532 
L 82.882647 16.841725 
L 83.026936 16.56641 
L 83.459801 15.222114 
L 83.60409 14.700266 
L 83.748378 15.671153 
L 83.892667 14.052509 
L 84.036956 14.37329 
L 84.181244 15.510733 
L 84.325533 14.181158 
L 84.469821 14.493613 
L 84.61411 14.417808 
L 84.758399 14.587528 
L 85.046976 12.680448 
L 85.191264 14.046101 
L 85.335553 13.135266 
L 85.479841 13.495203 
L 85.62413 13.40838 
L 85.768419 14.014416 
L 85.912707 13.624619 
L 86.056996 12.243769 
L 86.201284 13.772979 
L 86.345573 13.289057 
L 86.489861 12.393575 
L 86.778439 13.256613 
L 86.922727 11.793992 
L 87.067016 11.851429 
L 87.211304 12.473739 
L 87.499881 11.672021 
L 87.64417 11.911834 
L 87.788459 12.727102 
L 87.932747 12.093998 
L 88.077036 12.159505 
L 88.221324 13.510173 
L 88.365613 12.645972 
L 88.509902 13.781008 
L 88.65419 13.565518 
L 88.798479 13.816582 
L 89.087056 13.320382 
L 89.231344 13.745209 
L 89.519922 12.730834 
L 89.808499 14.691911 
L 89.952787 13.016858 
L 90.097076 14.356304 
L 90.385653 13.392577 
L 90.529942 13.809457 
L 90.67423 15.556184 
L 90.818519 15.005342 
L 90.962807 15.492173 
L 91.107096 14.854727 
L 91.251384 15.196441 
L 91.395673 14.645548 
L 91.539962 15.976586 
L 91.68425 15.245826 
L 92.117116 17.088145 
L 92.261405 16.430472 
L 92.405693 16.955749 
L 92.549982 16.354953 
L 92.838559 18.426449 
L 92.982847 17.720634 
L 93.127136 18.05954 
L 93.271425 17.78755 
L 93.415713 18.064457 
L 93.560002 19.769284 
L 93.70429 19.458387 
L 94.281445 21.63372 
L 94.425733 20.062341 
L 94.570022 20.545527 
L 95.147176 22.339768 
L 95.291465 23.653519 
L 95.435753 22.506025 
L 95.580042 24.73766 
L 95.72433 23.832461 
L 95.868619 25.445517 
L 96.012908 23.826167 
L 96.157196 24.396994 
L 96.73435 27.412781 
L 96.878639 26.356759 
L 97.167216 28.597553 
L 97.311505 28.532579 
L 97.455793 27.554071 
L 97.888659 30.289974 
L 98.032948 29.556628 
L 98.177236 31.2985 
L 98.321525 31.074829 
L 98.465813 30.560944 
L 98.610102 32.770001 
L 98.898679 31.521817 
L 99.042968 33.503302 
L 99.187256 32.827221 
L 99.475833 33.35127 
L 99.908699 36.226344 
L 100.052988 35.612567 
L 100.485853 36.83382 
L 100.774431 38.414208 
L 101.063008 37.453278 
L 101.640162 40.500092 
L 101.784451 39.531418 
L 102.217316 42.418777 
L 102.361605 41.931006 
L 102.505893 43.184294 
L 102.650182 42.285243 
L 102.794471 43.808145 
L 102.938759 43.463175 
L 103.083048 44.291406 
L 103.227336 43.049813 
L 103.660202 46.174705 
L 103.804491 45.247066 
L 104.237356 46.675999 
L 104.381645 45.965301 
L 104.525934 47.777519 
L 104.670222 47.00656 
L 104.814511 47.1346 
L 105.247376 48.186856 
L 105.535954 50.057745 
L 105.680242 48.583008 
L 105.680242 48.583008 
" clip-path="url(#pd7e98b50f4)" style="fill: none; stroke: #3362b0; stroke-width: 1.5; stroke-linecap: square"/>
   </g>
   <g id="line2d_8">
    <path d="M 33.680242 13.382962 
L 33.824531 12.154367 
L 33.968819 12.268662 
L 34.113108 13.556786 
L 34.257396 12.284241 
L 34.401685 13.519714 
L 34.545974 13.487372 
L 34.834551 13.417923 
L 34.978839 14.089039 
L 35.123128 13.709241 
L 35.267417 14.28123 
L 35.411705 14.136329 
L 35.555994 13.220061 
L 35.844571 15.093371 
L 35.988859 14.015826 
L 36.133148 15.109125 
L 36.421725 13.954835 
L 36.710302 16.079252 
L 36.854591 15.721228 
L 36.998879 15.975119 
L 37.287457 17.114234 
L 37.431745 16.042181 
L 37.576034 16.566225 
L 37.720322 15.990963 
L 38.153188 17.572522 
L 38.297477 17.747806 
L 38.441765 19.156963 
L 38.586054 18.96947 
L 38.730342 18.493725 
L 38.874631 19.918124 
L 39.01892 19.39584 
L 39.163208 19.076864 
L 39.307497 20.887945 
L 39.451785 19.387962 
L 40.317517 22.624276 
L 40.461805 22.073552 
L 40.606094 23.784687 
L 40.750382 22.203347 
L 41.03896 24.823847 
L 41.183248 24.927048 
L 41.327537 23.73456 
L 41.616114 25.743303 
L 41.760403 25.748077 
L 41.904691 26.918251 
L 42.04898 25.753638 
L 42.193268 27.147281 
L 42.337557 26.496017 
L 42.626134 28.796088 
L 42.770423 27.58678 
L 43.203288 29.986749 
L 43.347577 28.883105 
L 43.491865 30.262529 
L 43.636154 29.732744 
L 44.06902 31.773398 
L 44.213308 31.191828 
L 44.357597 33.54183 
L 44.501885 32.222733 
L 44.646174 34.368116 
L 44.790463 34.028272 
L 44.934751 34.057761 
L 45.800483 37.024364 
L 45.944771 36.170471 
L 46.08906 36.802605 
L 46.377637 39.048174 
L 46.521926 38.535166 
L 46.954791 40.443587 
L 47.243368 40.272217 
L 47.387657 39.877713 
L 47.964811 42.668057 
L 48.1091 41.891343 
L 48.397677 44.388201 
L 48.541966 43.816645 
L 48.830543 45.405632 
L 48.974831 43.883361 
L 49.11912 45.294108 
L 49.263409 44.607923 
L 49.840563 47.740381 
L 49.984851 46.708136 
L 50.12914 47.892729 
L 50.273429 47.195029 
L 50.417717 48.486637 
L 50.562006 48.386016 
L 50.706294 48.385922 
L 50.850583 49.644925 
L 50.994871 48.956965 
L 51.13916 50.324337 
L 51.283449 50.077946 
L 51.427737 50.241806 
L 51.572026 50.845659 
L 51.716314 49.516374 
L 51.860603 51.716155 
L 52.004891 50.200514 
L 52.14918 50.973153 
L 52.293469 50.509312 
L 52.437757 51.532083 
L 52.582046 51.473905 
L 52.726334 51.37377 
L 52.870623 51.689079 
L 53.014912 53.169485 
L 53.1592 52.672422 
L 53.303489 53.244864 
L 53.447777 52.13777 
L 53.736354 53.358455 
L 53.880643 53.207202 
L 54.024932 54.491024 
L 54.16922 53.098911 
L 54.457797 54.978595 
L 54.746374 54.060029 
L 55.034952 55.433016 
L 55.17924 53.628026 
L 55.323529 54.329169 
L 55.467817 55.512679 
L 55.612106 54.530452 
L 55.756394 55.716182 
L 55.900683 55.664162 
L 56.044972 55.807432 
L 56.333549 54.061028 
L 56.622126 55.889249 
L 56.766415 55.813481 
L 57.054992 54.699968 
L 57.19928 54.83266 
L 57.343569 56.063013 
L 57.487857 54.841095 
L 57.632146 55.955428 
L 57.776435 54.653079 
L 57.920723 55.223961 
L 58.065012 53.850871 
L 58.2093 53.962468 
L 58.353589 54.143851 
L 58.497877 53.903508 
L 58.930743 55.140246 
L 59.075032 54.19917 
L 59.21932 54.750326 
L 59.363609 53.345274 
L 59.507897 54.559693 
L 59.652186 54.472518 
L 59.940763 52.437631 
L 60.22934 53.781256 
L 60.373629 52.758769 
L 60.517918 53.416128 
L 60.662206 52.900736 
L 60.806495 51.37419 
L 60.950783 53.005072 
L 61.095072 52.837566 
L 61.23936 52.491308 
L 61.672226 50.117312 
L 61.816515 51.049492 
L 61.960803 50.727702 
L 62.105092 50.649515 
L 62.393669 48.926045 
L 62.537958 50.191563 
L 62.826535 48.335275 
L 62.970823 48.103558 
L 63.115112 49.034466 
L 63.403689 47.525463 
L 63.547978 48.364987 
L 63.836555 46.255914 
L 63.980843 47.435072 
L 64.269421 45.589889 
L 64.413709 46.091397 
L 64.557998 46.045957 
L 64.846575 43.851255 
L 64.990863 43.94555 
L 65.135152 44.301891 
L 65.423729 43.794045 
L 65.568018 42.671835 
L 65.712306 43.124934 
L 66.145172 42.063611 
L 66.289461 40.472286 
L 66.433749 40.627823 
L 66.866615 38.82753 
L 67.010904 38.8989 
L 67.299481 37.138595 
L 67.443769 38.293117 
L 67.588058 37.906259 
L 68.165212 35.058744 
L 68.453789 35.894227 
L 68.742366 33.308098 
L 69.608098 30.759404 
L 69.752386 31.449383 
L 69.896675 30.21888 
L 70.040964 31.067346 
L 70.329541 28.856351 
L 70.473829 29.675512 
L 70.618118 29.378318 
L 70.906695 27.624904 
L 71.050984 27.883283 
L 71.339561 26.68135 
L 71.483849 27.714596 
L 71.916715 24.828478 
L 72.061004 25.781775 
L 72.349581 23.413963 
L 72.638158 24.420811 
L 72.926735 22.021074 
L 73.215312 23.069114 
L 73.503889 21.054711 
L 73.648178 22.44827 
L 73.936755 20.15547 
L 74.081044 20.530075 
L 74.369621 19.074278 
L 74.51391 19.274641 
L 74.802487 18.674298 
L 74.946775 19.655478 
L 75.235352 17.699737 
L 75.379641 18.713773 
L 75.52393 16.976664 
L 75.812507 18.134484 
L 76.101084 16.568038 
L 76.245372 16.440767 
L 76.53395 16.740507 
L 76.678238 15.879048 
L 76.966815 16.394156 
L 77.111104 14.278161 
L 77.255392 15.154823 
L 77.399681 13.934613 
L 77.688258 14.759729 
L 77.976835 13.358487 
L 78.121124 14.698603 
L 78.265413 14.41726 
L 78.409701 13.807385 
L 78.55399 14.219381 
L 78.698278 13.525093 
L 78.842567 13.598531 
L 78.986855 13.661528 
L 79.131144 13.461543 
L 79.275433 12.08654 
L 79.56401 13.955299 
L 79.708298 11.871253 
L 79.852587 12.210482 
L 79.996875 13.199834 
L 80.141164 12.949592 
L 80.285453 12.249095 
L 80.429741 13.059295 
L 80.57403 12.874589 
L 80.718318 13.021381 
L 81.006895 12.642347 
L 81.151184 11.77146 
L 81.295473 13.201142 
L 81.439761 12.241006 
L 81.728338 13.631121 
L 82.016916 12.253295 
L 82.161204 13.411165 
L 82.305493 12.320244 
L 82.449781 13.813622 
L 82.59407 13.620248 
L 82.882647 12.948718 
L 83.026936 13.210631 
L 83.171224 14.21424 
L 83.315513 13.336211 
L 83.748378 15.085111 
L 84.036956 13.762083 
L 84.181244 14.091819 
L 84.469821 15.566616 
L 84.758399 14.429345 
L 85.191264 17.066705 
L 85.335553 16.352351 
L 85.62413 17.503457 
L 85.768419 16.281639 
L 85.912707 16.427936 
L 86.056996 17.08411 
L 86.201284 18.772944 
L 86.345573 18.375303 
L 86.489861 17.386677 
L 86.63415 17.509787 
L 87.067016 19.26786 
L 87.355593 20.198678 
L 87.499881 20.002955 
L 87.64417 21.553714 
L 87.932747 20.645446 
L 88.077036 22.29718 
L 88.221324 22.221253 
L 88.509902 23.472276 
L 88.65419 23.461514 
L 88.798479 24.24216 
L 88.942767 22.91358 
L 89.231344 23.950514 
L 89.375633 23.662902 
L 89.519922 25.075961 
L 89.66421 25.046899 
L 89.808499 25.18431 
L 89.952787 26.906479 
L 90.097076 26.097174 
L 90.241364 26.373294 
L 90.385653 27.164461 
L 90.529942 26.768478 
L 90.67423 28.058281 
L 90.818519 27.65744 
L 91.539962 29.622199 
L 91.828539 31.26839 
L 91.972827 31.012175 
L 92.405693 33.351963 
L 92.549982 33.323252 
L 93.271425 36.170073 
L 93.415713 34.772209 
L 93.560002 36.472242 
L 93.70429 36.45273 
L 93.992867 37.958421 
L 94.137156 36.538485 
L 94.570022 39.145457 
L 95.147176 41.005186 
L 95.291465 39.635279 
L 96.301485 44.176299 
L 96.590062 43.278708 
L 97.022928 44.568562 
L 97.167216 44.675259 
L 97.74437 46.981217 
L 97.888659 47.770147 
L 98.177236 47.093096 
L 98.321525 47.148621 
L 98.610102 49.485782 
L 98.75439 48.909467 
L 99.187256 50.45361 
L 99.331545 49.382649 
L 99.475833 50.932751 
L 99.620122 50.330294 
L 99.764411 49.627709 
L 99.908699 50.102966 
L 100.197276 52.253661 
L 100.341565 51.395326 
L 100.774431 52.436053 
L 100.918719 51.519442 
L 101.063008 53.242514 
L 101.207296 51.986193 
L 101.351585 52.018387 
L 101.495873 52.266749 
L 101.784451 53.75724 
L 101.928739 52.695992 
L 102.073028 52.855847 
L 102.361605 54.737158 
L 102.505893 53.758811 
L 102.650182 54.392518 
L 102.794471 54.293485 
L 102.938759 54.135745 
L 103.083048 53.608625 
L 103.371625 54.883275 
L 103.515914 55.321443 
L 103.804491 54.779415 
L 103.948779 54.938976 
L 104.093068 55.790052 
L 104.237356 54.23984 
L 104.525934 56.148292 
L 104.670222 55.316683 
L 104.958799 56.076926 
L 105.391665 54.409208 
L 105.680242 55.61847 
L 105.680242 55.61847 
" clip-path="url(#pd7e98b50f4)" style="fill: none; stroke: #cc3164; stroke-width: 1.5; stroke-linecap: square"/>
   </g>
   <g id="patch_3">
    <path d="M 26.480242 56.148292 
L 26.480242 11.649845 
" style="fill: none; stroke: #4d4f53; stroke-width: 0.8; stroke-linejoin: miter; stroke-linecap: square"/>
   </g>
   <g id="patch_4">
    <path d="M 33.680242 60.598137 
L 105.680242 60.598137 
" style="fill: none; stroke: #4d4f53; stroke-width: 0.8; stroke-linejoin: miter; stroke-linecap: square"/>
   </g>
  </g>
  <g id="axes_2">
   <g id="patch_5">
    <path d="M 134.480242 60.598137 
L 220.880242 60.598137 
L 220.880242 7.2 
L 134.480242 7.2 
L 134.480242 60.598137 
z
" style="fill: none"/>
   </g>
   <g id="matplotlib.axis_3">
    <g id="xtick_4">
     <g id="line2d_9">
      <g>
       <use xlink:href="#m0e69d3c4d7" x="141.680242" y="60.598137" style="fill: #4d4f53; stroke: #4d4f53; stroke-width: 0.8"/>
      </g>
     </g>
     <g id="text_7">
      <!-- 0 -->
      <g style="fill: #4d4f53" transform="translate(139.030261 73.926984) scale(0.0833 -0.0833)">
       <use xlink:href="#DejaVuSans-13"/>
      </g>
     </g>
    </g>
    <g id="xtick_5">
     <g id="line2d_10">
      <g>
       <use xlink:href="#m0e69d3c4d7" x="179.877429" y="60.598137" style="fill: #4d4f53; stroke: #4d4f53; stroke-width: 0.8"/>
      </g>
     </g>
     <g id="text_8">
      <!-- 5 -->
      <g style="fill: #4d4f53" transform="translate(177.227447 73.926984) scale(0.0833 -0.0833)">
       <use xlink:href="#DejaVuSans-18"/>
      </g>
     </g>
    </g>
    <g id="xtick_6">
     <g id="line2d_11">
      <g>
       <use xlink:href="#m0e69d3c4d7" x="218.074615" y="60.598137" style="fill: #4d4f53; stroke: #4d4f53; stroke-width: 0.8"/>
      </g>
     </g>
     <g id="text_9">
      <!-- 10 -->
      <g style="fill: #4d4f53" transform="translate(212.774652 73.926984) scale(0.0833 -0.0833)">
       <use xlink:href="#DejaVuSans-14"/>
       <use xlink:href="#DejaVuSans-13" transform="translate(63.625 0)"/>
      </g>
     </g>
    </g>
   </g>
   <g id="matplotlib.axis_4">
    <g id="ytick_4">
     <g id="line2d_12">
      <g>
       <use xlink:href="#mdc3a06571d" x="134.480242" y="56.167975" style="fill: #4d4f53; stroke: #4d4f53; stroke-width: 0.8"/>
      </g>
     </g>
     <g id="text_10">
      <!-- −1 -->
      <g style="fill: #4d4f53" transform="translate(115.2 59.332398) scale(0.0833 -0.0833)">
       <use xlink:href="#DejaVuSans-c9c"/>
       <use xlink:href="#DejaVuSans-14" transform="translate(83.796875 0)"/>
      </g>
     </g>
    </g>
    <g id="ytick_5">
     <g id="line2d_13">
      <g>
       <use xlink:href="#mdc3a06571d" x="134.480242" y="34.964882" style="fill: #4d4f53; stroke: #4d4f53; stroke-width: 0.8"/>
      </g>
     </g>
     <g id="text_11">
      <!-- 0 -->
      <g style="fill: #4d4f53" transform="translate(122.18028 38.129306) scale(0.0833 -0.0833)">
       <use xlink:href="#DejaVuSans-13"/>
      </g>
     </g>
    </g>
    <g id="ytick_6">
     <g id="line2d_14">
      <g>
       <use xlink:href="#mdc3a06571d" x="134.480242" y="13.761789" style="fill: #4d4f53; stroke: #4d4f53; stroke-width: 0.8"/>
      </g>
     </g>
     <g id="text_12">
      <!-- 1 -->
      <g style="fill: #4d4f53" transform="translate(122.18028 16.926213) scale(0.0833 -0.0833)">
       <use xlink:href="#DejaVuSans-14"/>
      </g>
     </g>
    </g>
   </g>
   <g id="line2d_15">
    <path d="M 141.680242 19.080024 
L 142.257396 17.273605 
L 142.401685 17.570997 
L 142.545974 15.816439 
L 142.690262 16.097985 
L 142.834551 17.179274 
L 143.123128 15.653752 
L 143.267417 16.512127 
L 143.411705 14.48927 
L 143.555994 15.438891 
L 143.844571 14.322782 
L 143.988859 15.064632 
L 144.133148 14.779233 
L 144.421725 13.732187 
L 144.566014 14.797488 
L 144.710302 14.443462 
L 144.854591 13.499261 
L 144.998879 13.733942 
L 145.143168 14.294944 
L 145.287457 13.685029 
L 145.431745 14.033391 
L 145.720322 12.502307 
L 145.864611 13.791182 
L 146.0089 12.078268 
L 146.153188 13.137788 
L 146.297477 12.910246 
L 146.441765 12.843125 
L 146.586054 13.846088 
L 146.874631 11.704214 
L 147.163208 13.502763 
L 147.451785 12.292606 
L 147.596074 13.763229 
L 147.740362 13.000995 
L 147.884651 13.681507 
L 148.02894 12.161886 
L 148.173228 13.13104 
L 148.317517 12.427751 
L 148.461805 12.927928 
L 148.606094 11.966353 
L 148.750382 12.323758 
L 149.03896 13.05587 
L 149.183248 12.227427 
L 149.471825 14.512502 
L 149.616114 14.465524 
L 149.760403 12.781977 
L 149.904691 12.834663 
L 150.193268 14.44881 
L 150.337557 13.786134 
L 150.481845 15.449836 
L 150.626134 14.022683 
L 150.770423 14.378411 
L 150.914711 15.572998 
L 151.203288 14.414814 
L 151.347577 16.19787 
L 151.491865 14.812406 
L 151.636154 16.26338 
L 151.780443 15.6807 
L 151.924731 16.823493 
L 152.06902 16.513028 
L 152.213308 17.470334 
L 152.357597 17.09399 
L 152.646174 17.742859 
L 152.790463 17.160657 
L 152.934751 18.056524 
L 153.07904 17.836244 
L 153.223328 17.963902 
L 153.367617 19.179599 
L 153.511906 18.281141 
L 154.08906 20.409992 
L 154.233348 19.794878 
L 154.666214 22.166438 
L 154.810503 20.991596 
L 155.243368 23.508231 
L 155.387657 23.442518 
L 155.820523 25.144456 
L 155.964811 24.319982 
L 156.1091 26.073296 
L 156.253388 26.001807 
L 156.541966 25.256982 
L 156.830543 27.12501 
L 156.974831 26.55782 
L 157.11912 26.645026 
L 157.407697 28.692875 
L 157.551986 28.426135 
L 157.840563 30.621699 
L 157.984851 30.342085 
L 158.12914 30.448902 
L 158.273429 31.77008 
L 158.417717 30.328932 
L 159.283449 34.398466 
L 159.427737 34.56009 
L 159.572026 34.019045 
L 159.716314 34.845377 
L 159.860603 34.279946 
L 160.293469 37.065705 
L 160.582046 37.337845 
L 160.726334 38.487676 
L 160.870623 37.695611 
L 161.014912 39.312537 
L 161.1592 38.292601 
L 161.303489 38.816313 
L 161.447777 40.58427 
L 161.592066 39.369812 
L 161.736354 40.652863 
L 161.880643 40.105646 
L 162.313509 42.513518 
L 162.457797 41.45402 
L 162.602086 43.041011 
L 162.746374 42.400603 
L 162.890663 43.145689 
L 163.034952 42.789348 
L 163.467817 45.577996 
L 163.612106 44.065756 
L 163.900683 46.453105 
L 164.044972 45.664991 
L 164.333549 46.577592 
L 164.477837 46.14099 
L 164.622126 46.469335 
L 164.766415 48.12548 
L 164.910703 47.459932 
L 165.343569 49.739504 
L 165.487857 49.710564 
L 165.632146 49.065133 
L 165.776435 50.087208 
L 165.920723 50.020981 
L 166.065012 50.485819 
L 166.2093 50.413968 
L 166.353589 50.332954 
L 166.497877 49.951223 
L 166.642166 52.130452 
L 166.786455 51.251124 
L 166.930743 51.295964 
L 167.075032 52.536329 
L 167.21932 51.543205 
L 167.363609 52.485682 
L 167.507897 52.401837 
L 167.652186 52.452057 
L 167.796475 52.070795 
L 168.085052 52.878575 
L 168.373629 54.437447 
L 168.662206 53.168714 
L 168.806495 53.47477 
L 168.950783 54.67799 
L 169.095072 54.64089 
L 169.23936 54.875641 
L 169.527938 54.150746 
L 169.816515 55.124245 
L 170.105092 54.061254 
L 170.24938 54.770663 
L 170.393669 54.451964 
L 170.537958 55.117275 
L 170.826535 54.362155 
L 170.970823 56.10074 
L 171.115112 54.599812 
L 171.259401 54.644021 
L 171.547978 54.496817 
L 171.692266 54.164425 
L 171.980843 55.707391 
L 172.269421 53.928232 
L 172.557998 54.087096 
L 172.846575 55.767987 
L 173.135152 54.062842 
L 173.279441 54.021926 
L 173.423729 55.089209 
L 173.568018 55.062003 
L 173.712306 54.857081 
L 173.856595 53.328411 
L 174.145172 54.425724 
L 174.289461 53.321885 
L 174.433749 54.428143 
L 174.578038 54.150679 
L 174.722326 53.947712 
L 175.010904 52.523861 
L 175.155192 52.429954 
L 175.443769 51.675385 
L 175.732346 52.650049 
L 175.876635 51.555589 
L 176.020924 51.727635 
L 176.165212 51.593385 
L 176.598078 49.508036 
L 176.742366 50.214157 
L 177.463809 47.727134 
L 177.608098 49.080141 
L 177.896675 47.406419 
L 178.040964 48.347631 
L 178.329541 46.445926 
L 179.483849 43.575643 
L 179.628138 44.52338 
L 179.772427 43.234376 
L 179.916715 43.900324 
L 180.061004 42.177003 
L 180.205292 43.486862 
L 180.349581 43.114092 
L 180.493869 42.774927 
L 180.782447 40.939419 
L 180.926735 41.629672 
L 181.071024 41.251063 
L 181.359601 38.951051 
L 181.503889 39.660476 
L 181.792467 37.58099 
L 181.936755 37.217686 
L 182.081044 37.407634 
L 182.51391 35.829309 
L 182.658198 36.134323 
L 183.091064 34.07075 
L 183.235352 34.657967 
L 183.379641 33.88775 
L 183.52393 34.191092 
L 184.101084 31.631043 
L 184.245372 32.496635 
L 184.389661 31.970881 
L 184.822527 28.960622 
L 184.966815 30.364144 
L 185.54397 26.99587 
L 185.688258 28.271668 
L 185.976835 26.557828 
L 186.121124 26.961961 
L 186.265413 27.076194 
L 186.698278 24.39767 
L 186.842567 24.902908 
L 186.986855 24.658537 
L 187.275433 23.319167 
L 187.419721 23.635297 
L 187.56401 22.365944 
L 187.708298 22.756664 
L 187.852587 21.653412 
L 187.996875 22.849613 
L 188.141164 20.686491 
L 188.285453 20.921846 
L 188.429741 21.013824 
L 188.57403 21.612642 
L 189.006895 18.778061 
L 189.295473 18.971534 
L 189.439761 18.999413 
L 189.58405 17.826919 
L 189.728338 18.093553 
L 189.872627 17.479592 
L 190.161204 18.297711 
L 190.305493 16.191341 
L 190.449781 17.976518 
L 190.59407 17.33766 
L 190.738358 16.694532 
L 190.882647 16.841725 
L 191.026936 16.56641 
L 191.459801 15.222114 
L 191.60409 14.700266 
L 191.748378 15.671153 
L 191.892667 14.052509 
L 192.036956 14.37329 
L 192.181244 15.510733 
L 192.325533 14.181158 
L 192.469821 14.493613 
L 192.61411 14.417808 
L 192.758399 14.587528 
L 193.046976 12.680448 
L 193.191264 14.046101 
L 193.335553 13.135266 
L 193.479841 13.495203 
L 193.62413 13.40838 
L 193.768419 14.014416 
L 193.912707 13.624619 
L 194.056996 12.243769 
L 194.201284 13.772979 
L 194.345573 13.289057 
L 194.489861 12.393575 
L 194.778439 13.256613 
L 194.922727 11.793992 
L 195.067016 11.851429 
L 195.211304 12.473739 
L 195.499881 11.672021 
L 195.64417 11.911834 
L 195.788459 12.727102 
L 195.932747 12.093998 
L 196.077036 12.159505 
L 196.221324 13.510173 
L 196.365613 12.645972 
L 196.509902 13.781008 
L 196.65419 13.565518 
L 196.798479 13.816582 
L 197.087056 13.320382 
L 197.231344 13.745209 
L 197.519922 12.730834 
L 197.808499 14.691911 
L 197.952787 13.016858 
L 198.097076 14.356304 
L 198.385653 13.392577 
L 198.529942 13.809457 
L 198.67423 15.556184 
L 198.818519 15.005342 
L 198.962807 15.492173 
L 199.107096 14.854727 
L 199.251384 15.196441 
L 199.395673 14.645548 
L 199.539962 15.976586 
L 199.68425 15.245826 
L 200.117116 17.088145 
L 200.261405 16.430472 
L 200.405693 16.955749 
L 200.549982 16.354953 
L 200.838559 18.426449 
L 200.982847 17.720634 
L 201.127136 18.05954 
L 201.271425 17.78755 
L 201.415713 18.064457 
L 201.560002 19.769284 
L 201.70429 19.458387 
L 202.281445 21.63372 
L 202.425733 20.062341 
L 202.570022 20.545527 
L 203.147176 22.339768 
L 203.291465 23.653519 
L 203.435753 22.506025 
L 203.580042 24.73766 
L 203.72433 23.832461 
L 203.868619 25.445517 
L 204.012908 23.826167 
L 204.157196 24.396994 
L 204.73435 27.412781 
L 204.878639 26.356759 
L 205.167216 28.597553 
L 205.311505 28.532579 
L 205.455793 27.554071 
L 205.888659 30.289974 
L 206.032948 29.556628 
L 206.177236 31.2985 
L 206.321525 31.074829 
L 206.465813 30.560944 
L 206.610102 32.770001 
L 206.898679 31.521817 
L 207.042968 33.503302 
L 207.187256 32.827221 
L 207.475833 33.35127 
L 207.908699 36.226344 
L 208.052988 35.612567 
L 208.485853 36.83382 
L 208.774431 38.414208 
L 209.063008 37.453278 
L 209.640162 40.500092 
L 209.784451 39.531418 
L 210.217316 42.418777 
L 210.361605 41.931006 
L 210.505893 43.184294 
L 210.650182 42.285243 
L 210.794471 43.808145 
L 210.938759 43.463175 
L 211.083048 44.291406 
L 211.227336 43.049813 
L 211.660202 46.174705 
L 211.804491 45.247066 
L 212.237356 46.675999 
L 212.381645 45.965301 
L 212.525934 47.777519 
L 212.670222 47.00656 
L 212.814511 47.1346 
L 213.247376 48.186856 
L 213.535954 50.057745 
L 213.680242 48.583008 
L 213.680242 48.583008 
" clip-path="url(#p188998b91e)" style="fill: none; stroke: #3362b0; stroke-width: 1.5; stroke-linecap: square"/>
   </g>
   <g id="line2d_16">
    <path d="M 141.680242 13.382962 
L 141.824531 12.154367 
L 141.968819 12.268662 
L 142.113108 13.556786 
L 142.257396 12.284241 
L 142.401685 13.519714 
L 142.545974 13.487372 
L 142.834551 13.417923 
L 142.978839 14.089039 
L 143.123128 13.709241 
L 143.267417 14.28123 
L 143.411705 14.136329 
L 143.555994 13.220061 
L 143.844571 15.093371 
L 143.988859 14.015826 
L 144.133148 15.109125 
L 144.421725 13.954835 
L 144.710302 16.079252 
L 144.854591 15.721228 
L 144.998879 15.975119 
L 145.287457 17.114234 
L 145.431745 16.042181 
L 145.576034 16.566225 
L 145.720322 15.990963 
L 146.153188 17.572522 
L 146.297477 17.747806 
L 146.441765 19.156963 
L 146.586054 18.96947 
L 146.730342 18.493725 
L 146.874631 19.918124 
L 147.01892 19.39584 
L 147.163208 19.076864 
L 147.307497 20.887945 
L 147.451785 19.387962 
L 148.317517 22.624276 
L 148.461805 22.073552 
L 148.606094 23.784687 
L 148.750382 22.203347 
L 149.03896 24.823847 
L 149.183248 24.927048 
L 149.327537 23.73456 
L 149.616114 25.743303 
L 149.760403 25.748077 
L 149.904691 26.918251 
L 150.04898 25.753638 
L 150.193268 27.147281 
L 150.337557 26.496017 
L 150.626134 28.796088 
L 150.770423 27.58678 
L 151.203288 29.986749 
L 151.347577 28.883105 
L 151.491865 30.262529 
L 151.636154 29.732744 
L 152.06902 31.773398 
L 152.213308 31.191828 
L 152.357597 33.54183 
L 152.501885 32.222733 
L 152.646174 34.368116 
L 152.790463 34.028272 
L 152.934751 34.057761 
L 153.800483 37.024364 
L 153.944771 36.170471 
L 154.08906 36.802605 
L 154.377637 39.048174 
L 154.521926 38.535166 
L 154.954791 40.443587 
L 155.243368 40.272217 
L 155.387657 39.877713 
L 155.964811 42.668057 
L 156.1091 41.891343 
L 156.397677 44.388201 
L 156.541966 43.816645 
L 156.830543 45.405632 
L 156.974831 43.883361 
L 157.11912 45.294108 
L 157.263409 44.607923 
L 157.840563 47.740381 
L 157.984851 46.708136 
L 158.12914 47.892729 
L 158.273429 47.195029 
L 158.417717 48.486637 
L 158.562006 48.386016 
L 158.706294 48.385922 
L 158.850583 49.644925 
L 158.994871 48.956965 
L 159.13916 50.324337 
L 159.283449 50.077946 
L 159.427737 50.241806 
L 159.572026 50.845659 
L 159.716314 49.516374 
L 159.860603 51.716155 
L 160.004891 50.200514 
L 160.14918 50.973153 
L 160.293469 50.509312 
L 160.437757 51.532083 
L 160.582046 51.473905 
L 160.726334 51.37377 
L 160.870623 51.689079 
L 161.014912 53.169485 
L 161.1592 52.672422 
L 161.303489 53.244864 
L 161.447777 52.13777 
L 161.736354 53.358455 
L 161.880643 53.207202 
L 162.024932 54.491024 
L 162.16922 53.098911 
L 162.457797 54.978595 
L 162.746374 54.060029 
L 163.034952 55.433016 
L 163.17924 53.628026 
L 163.323529 54.329169 
L 163.467817 55.512679 
L 163.612106 54.530452 
L 163.756394 55.716182 
L 163.900683 55.664162 
L 164.044972 55.807432 
L 164.333549 54.061028 
L 164.622126 55.889249 
L 164.766415 55.813481 
L 165.054992 54.699968 
L 165.19928 54.83266 
L 165.343569 56.063013 
L 165.487857 54.841095 
L 165.632146 55.955428 
L 165.776435 54.653079 
L 165.920723 55.223961 
L 166.065012 53.850871 
L 166.2093 53.962468 
L 166.353589 54.143851 
L 166.497877 53.903508 
L 166.930743 55.140246 
L 167.075032 54.19917 
L 167.21932 54.750326 
L 167.363609 53.345274 
L 167.507897 54.559693 
L 167.652186 54.472518 
L 167.940763 52.437631 
L 168.22934 53.781256 
L 168.373629 52.758769 
L 168.517918 53.416128 
L 168.662206 52.900736 
L 168.806495 51.37419 
L 168.950783 53.005072 
L 169.095072 52.837566 
L 169.23936 52.491308 
L 169.672226 50.117312 
L 169.816515 51.049492 
L 169.960803 50.727702 
L 170.105092 50.649515 
L 170.393669 48.926045 
L 170.537958 50.191563 
L 170.826535 48.335275 
L 170.970823 48.103558 
L 171.115112 49.034466 
L 171.403689 47.525463 
L 171.547978 48.364987 
L 171.836555 46.255914 
L 171.980843 47.435072 
L 172.269421 45.589889 
L 172.413709 46.091397 
L 172.557998 46.045957 
L 172.846575 43.851255 
L 172.990863 43.94555 
L 173.135152 44.301891 
L 173.423729 43.794045 
L 173.568018 42.671835 
L 173.712306 43.124934 
L 174.145172 42.063611 
L 174.289461 40.472286 
L 174.433749 40.627823 
L 174.866615 38.82753 
L 175.010904 38.8989 
L 175.299481 37.138595 
L 175.443769 38.293117 
L 175.588058 37.906259 
L 176.165212 35.058744 
L 176.453789 35.894227 
L 176.742366 33.308098 
L 177.608098 30.759404 
L 177.752386 31.449383 
L 177.896675 30.21888 
L 178.040964 31.067346 
L 178.329541 28.856351 
L 178.473829 29.675512 
L 178.618118 29.378318 
L 178.906695 27.624904 
L 179.050984 27.883283 
L 179.339561 26.68135 
L 179.483849 27.714596 
L 179.916715 24.828478 
L 180.061004 25.781775 
L 180.349581 23.413963 
L 180.638158 24.420811 
L 180.926735 22.021074 
L 181.215312 23.069114 
L 181.503889 21.054711 
L 181.648178 22.44827 
L 181.936755 20.15547 
L 182.081044 20.530075 
L 182.369621 19.074278 
L 182.51391 19.274641 
L 182.802487 18.674298 
L 182.946775 19.655478 
L 183.235352 17.699737 
L 183.379641 18.713773 
L 183.52393 16.976664 
L 183.812507 18.134484 
L 184.101084 16.568038 
L 184.245372 16.440767 
L 184.53395 16.740507 
L 184.678238 15.879048 
L 184.966815 16.394156 
L 185.111104 14.278161 
L 185.255392 15.154823 
L 185.399681 13.934613 
L 185.688258 14.759729 
L 185.976835 13.358487 
L 186.121124 14.698603 
L 186.265413 14.41726 
L 186.409701 13.807385 
L 186.55399 14.219381 
L 186.698278 13.525093 
L 186.842567 13.598531 
L 186.986855 13.661528 
L 187.131144 13.461543 
L 187.275433 12.08654 
L 187.56401 13.955299 
L 187.708298 11.871253 
L 187.852587 12.210482 
L 187.996875 13.199834 
L 188.141164 12.949592 
L 188.285453 12.249095 
L 188.429741 13.059295 
L 188.57403 12.874589 
L 188.718318 13.021381 
L 189.006895 12.642347 
L 189.151184 11.77146 
L 189.295473 13.201142 
L 189.439761 12.241006 
L 189.728338 13.631121 
L 190.016916 12.253295 
L 190.161204 13.411165 
L 190.305493 12.320244 
L 190.449781 13.813622 
L 190.59407 13.620248 
L 190.882647 12.948718 
L 191.026936 13.210631 
L 191.171224 14.21424 
L 191.315513 13.336211 
L 191.748378 15.085111 
L 192.036956 13.762083 
L 192.181244 14.091819 
L 192.469821 15.566616 
L 192.758399 14.429345 
L 193.191264 17.066705 
L 193.335553 16.352351 
L 193.62413 17.503457 
L 193.768419 16.281639 
L 193.912707 16.427936 
L 194.056996 17.08411 
L 194.201284 18.772944 
L 194.345573 18.375303 
L 194.489861 17.386677 
L 194.63415 17.509787 
L 195.067016 19.26786 
L 195.355593 20.198678 
L 195.499881 20.002955 
L 195.64417 21.553714 
L 195.932747 20.645446 
L 196.077036 22.29718 
L 196.221324 22.221253 
L 196.509902 23.472276 
L 196.65419 23.461514 
L 196.798479 24.24216 
L 196.942767 22.91358 
L 197.231344 23.950514 
L 197.375633 23.662902 
L 197.519922 25.075961 
L 197.66421 25.046899 
L 197.808499 25.18431 
L 197.952787 26.906479 
L 198.097076 26.097174 
L 198.241364 26.373294 
L 198.385653 27.164461 
L 198.529942 26.768478 
L 198.67423 28.058281 
L 198.818519 27.65744 
L 199.539962 29.622199 
L 199.828539 31.26839 
L 199.972827 31.012175 
L 200.405693 33.351963 
L 200.549982 33.323252 
L 201.271425 36.170073 
L 201.415713 34.772209 
L 201.560002 36.472242 
L 201.70429 36.45273 
L 201.992867 37.958421 
L 202.137156 36.538485 
L 202.570022 39.145457 
L 203.147176 41.005186 
L 203.291465 39.635279 
L 204.301485 44.176299 
L 204.590062 43.278708 
L 205.022928 44.568562 
L 205.167216 44.675259 
L 205.74437 46.981217 
L 205.888659 47.770147 
L 206.177236 47.093096 
L 206.321525 47.148621 
L 206.610102 49.485782 
L 206.75439 48.909467 
L 207.187256 50.45361 
L 207.331545 49.382649 
L 207.475833 50.932751 
L 207.620122 50.330294 
L 207.764411 49.627709 
L 207.908699 50.102966 
L 208.197276 52.253661 
L 208.341565 51.395326 
L 208.774431 52.436053 
L 208.918719 51.519442 
L 209.063008 53.242514 
L 209.207296 51.986193 
L 209.351585 52.018387 
L 209.495873 52.266749 
L 209.784451 53.75724 
L 209.928739 52.695992 
L 210.073028 52.855847 
L 210.361605 54.737158 
L 210.505893 53.758811 
L 210.650182 54.392518 
L 210.794471 54.293485 
L 210.938759 54.135745 
L 211.083048 53.608625 
L 211.371625 54.883275 
L 211.515914 55.321443 
L 211.804491 54.779415 
L 211.948779 54.938976 
L 212.093068 55.790052 
L 212.237356 54.23984 
L 212.525934 56.148292 
L 212.670222 55.316683 
L 212.958799 56.076926 
L 213.391665 54.409208 
L 213.680242 55.61847 
L 213.680242 55.61847 
" clip-path="url(#p188998b91e)" style="fill: none; stroke: #cc3164; stroke-width: 1.5; stroke-linecap: square"/>
   </g>
   <g id="patch_6">
    <path d="M 134.480242 56.148292 
L 134.480242 11.649845 
" style="fill: none; stroke: #4d4f53; stroke-width: 0.8; stroke-linejoin: miter; stroke-linecap: square"/>
   </g>
   <g id="patch_7">
    <path d="M 141.680242 60.598137 
L 213.680242 60.598137 
" style="fill: none; stroke: #4d4f53; stroke-width: 0.8; stroke-linejoin: miter; stroke-linecap: square"/>
   </g>
  </g>
  <g id="legend_1">
   <g id="patch_8">
    <path d="M 228.378242 48.060719 
L 261.448342 48.060719 
L 261.448342 19.737418 
L 228.378242 19.737418 
L 228.378242 48.060719 
z
" style="fill: none; opacity: 0"/>
   </g>
   <g id="line2d_17">
    <path d="M 232.543242 27.316416 
L 238.374242 27.316416 
L 244.205242 27.316416 
" style="fill: none; stroke: #3362b0; stroke-width: 1.5; stroke-linecap: square"/>
   </g>
   <g id="text_13">
    <!-- $x_1$ -->
    <g style="fill: #4d4f53" transform="translate(248.370242 30.231916) scale(0.0833 -0.0833)">
     <defs>
      <path id="DejaVuSans-Oblique-5b" d="M 3841 3500 
L 2234 1784 
L 3219 0 
L 2559 0 
L 1819 1388 
L 531 0 
L -166 0 
L 1556 1844 
L 641 3500 
L 1300 3500 
L 1972 2234 
L 3144 3500 
L 3841 3500 
z
" transform="scale(0.015625)"/>
     </defs>
     <use xlink:href="#DejaVuSans-Oblique-5b" transform="translate(0 0.3125)"/>
     <use xlink:href="#DejaVuSans-14" transform="translate(59.179688 -14.687451) scale(0.7)"/>
    </g>
   </g>
   <g id="line2d_18">
    <path d="M 232.543242 38.979067 
L 238.374242 38.979067 
L 244.205242 38.979067 
" style="fill: none; stroke: #cc3164; stroke-width: 1.5; stroke-linecap: square"/>
   </g>
   <g id="text_14">
    <!-- $x_2$ -->
    <g style="fill: #4d4f53" transform="translate(248.370242 41.894567) scale(0.0833 -0.0833)">
     <defs>
      <path id="DejaVuSans-15" d="M 1228 531 
L 3431 531 
L 3431 0 
L 469 0 
L 469 531 
Q 828 903 1448 1529 
Q 2069 2156 2228 2338 
Q 2531 2678 2651 2914 
Q 2772 3150 2772 3378 
Q 2772 3750 2511 3984 
Q 2250 4219 1831 4219 
Q 1534 4219 1204 4116 
Q 875 4013 500 3803 
L 500 4441 
Q 881 4594 1212 4672 
Q 1544 4750 1819 4750 
Q 2544 4750 2975 4387 
Q 3406 4025 3406 3419 
Q 3406 3131 3298 2873 
Q 3191 2616 2906 2266 
Q 2828 2175 2409 1742 
Q 1991 1309 1228 531 
z
" transform="scale(0.015625)"/>
     </defs>
     <use xlink:href="#DejaVuSans-Oblique-5b" transform="translate(0 0.3125)"/>
     <use xlink:href="#DejaVuSans-15" transform="translate(59.179688 -14.687451) scale(0.7)"/>
    </g>
   </g>
  </g>
 </g>
 <defs>
  <clipPath id="pd7e98b50f4">
   <rect x="26.480242" y="7.2" width="86.4" height="53.398137"/>
  </clipPath>
  <clipPath id="p188998b91e">
   <rect x="134.480242" y="7.2" width="86.4" height="53.398137"/>
  </clipPath>
 </defs>
</svg>
