<?xml version="1.0" encoding="utf-8" standalone="no"?>
<!DOCTYPE svg PUBLIC "-//W3C//DTD SVG 1.1//EN"
  "http://www.w3.org/Graphics/SVG/1.1/DTD/svg11.dtd">
<svg xmlns:xlink="http://www.w3.org/1999/xlink" width="371.742342pt" height="99.788787pt" viewBox="0 0 371.742342 99.788787" xmlns="http://www.w3.org/2000/svg" version="1.1">
 <metadata>
  <rdf:RDF xmlns:dc="http://purl.org/dc/elements/1.1/" xmlns:cc="http://creativecommons.org/ns#" xmlns:rdf="http://www.w3.org/1999/02/22-rdf-syntax-ns#">
   <cc:Work>
    <dc:type rdf:resource="http://purl.org/dc/dcmitype/StillImage"/>
    <dc:date>2026-07-23T07:55:59.895085</dc:date>
    <dc:format>image/svg+xml</dc:format>
    <dc:creator>
     <cc:Agent>
      <dc:title>Matplotlib v3.11.1, https://matplotlib.org/</dc:title>
     </cc:Agent>
    </dc:creator>
   </cc:Work>
  </rdf:RDF>
 </metadata>
 <defs>
  <style type="text/css">*{stroke-linejoin: round; stroke-linecap: butt}</style>
 </defs>
 <g id="figure_1">
  <g id="patch_1">
   <path d="M 0 99.788787 
L 371.742342 99.788787 
L 371.742342 -0 
L 0 -0 
L 0 99.788787 
z
" style="fill: none"/>
  </g>
  <g id="axes_1">
   <g id="patch_2">
    <path d="M 26.480242 77.258787 
L 112.880242 77.258787 
L 112.880242 23.860651 
L 26.480242 23.860651 
L 26.480242 77.258787 
z
" style="fill: none"/>
   </g>
   <g id="matplotlib.axis_1">
    <g id="xtick_1">
     <g id="line2d_1">
      <path d="M 30.407515 77.258787 
L 30.407515 23.860651 
" clip-path="url(#p681e7bd6e5)" style="fill: none; stroke-dasharray: 2.96,1.28; stroke-dashoffset: 0; stroke: #dddfe5; stroke-width: 0.8"/>
     </g>
     <g id="line2d_2">
      <defs>
       <path id="me91f1ac20e" d="M 0 0 
L 0 3.5 
" style="stroke: #4d4f53; stroke-width: 0.8"/>
      </defs>
      <g>
       <use xlink:href="#me91f1ac20e" x="30.407515" y="77.258787" style="fill: #4d4f53; stroke: #4d4f53; stroke-width: 0.8"/>
      </g>
     </g>
     <g id="text_1">
      <!-- 0 -->
      <g style="fill: #4d4f53" transform="translate(27.757534 90.587635) scale(0.0833 -0.0833)">
       <defs>
        <path id="DejaVuSans-13" d="M 2034 4250 
Q 1547 4250 1301 3770 
Q 1056 3291 1056 2328 
Q 1056 1369 1301 889 
Q 1547 409 2034 409 
Q 2525 409 2770 889 
Q 3016 1369 3016 2328 
Q 3016 3291 2770 3770 
Q 2525 4250 2034 4250 
z
M 2034 4750 
Q 2819 4750 3233 4129 
Q 3647 3509 3647 2328 
Q 3647 1150 3233 529 
Q 2819 -91 2034 -91 
Q 1250 -91 836 529 
Q 422 1150 422 2328 
Q 422 3509 836 4129 
Q 1250 4750 2034 4750 
z
" transform="scale(0.015625)"/>
       </defs>
       <use xlink:href="#DejaVuSans-13"/>
      </g>
     </g>
    </g>
    <g id="xtick_2">
     <g id="line2d_3">
      <path d="M 72.077173 77.258787 
L 72.077173 23.860651 
" clip-path="url(#p681e7bd6e5)" style="fill: none; stroke-dasharray: 2.96,1.28; stroke-dashoffset: 0; stroke: #dddfe5; stroke-width: 0.8"/>
     </g>
     <g id="line2d_4">
      <g>
       <use xlink:href="#me91f1ac20e" x="72.077173" y="77.258787" style="fill: #4d4f53; stroke: #4d4f53; stroke-width: 0.8"/>
      </g>
     </g>
     <g id="text_2">
      <!-- 5 -->
      <g style="fill: #4d4f53" transform="translate(69.427191 90.587635) scale(0.0833 -0.0833)">
       <defs>
        <path id="DejaVuSans-18" d="M 691 4666 
L 3169 4666 
L 3169 4134 
L 1269 4134 
L 1269 2991 
Q 1406 3038 1543 3061 
Q 1681 3084 1819 3084 
Q 2600 3084 3056 2656 
Q 3513 2228 3513 1497 
Q 3513 744 3044 326 
Q 2575 -91 1722 -91 
Q 1428 -91 1123 -41 
Q 819 9 494 109 
L 494 744 
Q 775 591 1075 516 
Q 1375 441 1709 441 
Q 2250 441 2565 725 
Q 2881 1009 2881 1497 
Q 2881 1984 2565 2268 
Q 2250 2553 1709 2553 
Q 1456 2553 1204 2497 
Q 953 2441 691 2322 
L 691 4666 
z
" transform="scale(0.015625)"/>
       </defs>
       <use xlink:href="#DejaVuSans-18"/>
      </g>
     </g>
    </g>
   </g>
   <g id="matplotlib.axis_2">
    <g id="ytick_1">
     <g id="line2d_5">
      <path d="M 26.480242 74.853071 
L 112.880242 74.853071 
" clip-path="url(#p681e7bd6e5)" style="fill: none; stroke-dasharray: 2.96,1.28; stroke-dashoffset: 0; stroke: #dddfe5; stroke-width: 0.8"/>
     </g>
     <g id="line2d_6">
      <defs>
       <path id="m2b04f8cee3" d="M 0 0 
L -3.5 0 
" style="stroke: #4d4f53; stroke-width: 0.8"/>
      </defs>
      <g>
       <use xlink:href="#m2b04f8cee3" x="26.480242" y="74.853071" style="fill: #4d4f53; stroke: #4d4f53; stroke-width: 0.8"/>
      </g>
     </g>
     <g id="text_3">
      <!-- −1 -->
      <g style="fill: #4d4f53" transform="translate(7.2 78.017495) scale(0.0833 -0.0833)">
       <defs>
        <path id="DejaVuSans-c9c" d="M 678 2272 
L 4684 2272 
L 4684 1741 
L 678 1741 
L 678 2272 
z
" transform="scale(0.015625)"/>
        <path id="DejaVuSans-14" d="M 794 531 
L 1825 531 
L 1825 4091 
L 703 3866 
L 703 4441 
L 1819 4666 
L 2450 4666 
L 2450 531 
L 3481 531 
L 3481 0 
L 794 0 
L 794 531 
z
" transform="scale(0.015625)"/>
       </defs>
       <use xlink:href="#DejaVuSans-c9c"/>
       <use xlink:href="#DejaVuSans-14" transform="translate(83.796875 0)"/>
      </g>
     </g>
    </g>
    <g id="ytick_2">
     <g id="line2d_7">
      <path d="M 26.480242 51.722425 
L 112.880242 51.722425 
" clip-path="url(#p681e7bd6e5)" style="fill: none; stroke-dasharray: 2.96,1.28; stroke-dashoffset: 0; stroke: #dddfe5; stroke-width: 0.8"/>
     </g>
     <g id="line2d_8">
      <g>
       <use xlink:href="#m2b04f8cee3" x="26.480242" y="51.722425" style="fill: #4d4f53; stroke: #4d4f53; stroke-width: 0.8"/>
      </g>
     </g>
     <g id="text_4">
      <!-- 0 -->
      <g style="fill: #4d4f53" transform="translate(14.18028 54.886849) scale(0.0833 -0.0833)">
       <use xlink:href="#DejaVuSans-13"/>
      </g>
     </g>
    </g>
    <g id="ytick_3">
     <g id="line2d_9">
      <path d="M 26.480242 28.591778 
L 112.880242 28.591778 
" clip-path="url(#p681e7bd6e5)" style="fill: none; stroke-dasharray: 2.96,1.28; stroke-dashoffset: 0; stroke: #dddfe5; stroke-width: 0.8"/>
     </g>
     <g id="line2d_10">
      <g>
       <use xlink:href="#m2b04f8cee3" x="26.480242" y="28.591778" style="fill: #4d4f53; stroke: #4d4f53; stroke-width: 0.8"/>
      </g>
     </g>
     <g id="text_5">
      <!-- 1 -->
      <g style="fill: #4d4f53" transform="translate(14.18028 31.756202) scale(0.0833 -0.0833)">
       <use xlink:href="#DejaVuSans-14"/>
      </g>
     </g>
    </g>
   </g>
   <g id="line2d_11">
    <path d="M 30.407515 34.393489 
L 31.037138 32.42285 
L 31.194544 32.747277 
L 31.351949 30.833214 
L 31.509355 31.140355 
L 31.666761 32.319944 
L 31.981572 30.655737 
L 32.138978 31.592147 
L 32.296384 29.385393 
L 32.453789 30.421344 
L 32.768601 29.203771 
L 32.926006 30.013061 
L 33.240818 29.135788 
L 33.398224 28.559485 
L 33.555629 29.721631 
L 33.713035 29.335421 
L 33.870441 28.305384 
L 34.027846 28.561399 
L 34.185252 29.173401 
L 34.342658 28.50804 
L 34.500064 28.888072 
L 34.814875 27.217798 
L 34.972281 28.623843 
L 35.129687 26.755209 
L 35.287092 27.91105 
L 35.444498 27.662822 
L 35.601904 27.589599 
L 35.759309 28.683741 
L 36.074121 26.347151 
L 36.388932 28.309204 
L 36.703744 26.989033 
L 36.861149 28.593349 
L 37.018555 27.761821 
L 37.175961 28.504197 
L 37.333367 26.84643 
L 37.490772 27.903688 
L 37.648178 27.136463 
L 37.805584 27.682112 
L 37.96299 26.63312 
L 38.435207 27.821685 
L 38.592612 26.917929 
L 38.907424 29.410738 
L 39.06483 29.359488 
L 39.222235 27.522893 
L 39.379641 27.580368 
L 39.694452 29.341255 
L 39.851858 28.618336 
L 40.009264 30.433284 
L 40.16667 28.876389 
L 40.324075 29.264456 
L 40.481481 30.567642 
L 40.796292 29.304169 
L 40.953698 31.249321 
L 41.111104 29.737906 
L 41.26851 31.320786 
L 41.425915 30.685136 
L 41.583321 31.931819 
L 41.740727 31.59313 
L 41.898133 32.637464 
L 42.055538 32.226907 
L 42.37035 32.934763 
L 42.527755 32.299634 
L 42.685161 33.276944 
L 42.842567 33.036638 
L 42.999973 33.175901 
L 43.157378 34.502117 
L 43.314784 33.52198 
L 43.944407 35.844363 
L 44.101813 35.173329 
L 44.57403 37.760486 
L 44.731435 36.47884 
L 45.203653 39.22426 
L 45.361058 39.152573 
L 45.833276 41.009233 
L 45.990681 40.109807 
L 46.148087 42.022513 
L 46.305493 41.944525 
L 46.620304 41.131989 
L 46.935116 43.169837 
L 47.092521 42.551085 
L 47.249927 42.646219 
L 47.564738 44.880235 
L 47.722144 44.589246 
L 48.036956 46.984407 
L 48.194361 46.679374 
L 48.351767 46.795902 
L 48.509173 48.237186 
L 48.666578 46.665025 
L 49.611013 51.104517 
L 49.768419 51.280834 
L 49.925824 50.690603 
L 50.08323 51.592056 
L 50.240636 50.975222 
L 50.712853 54.014232 
L 51.027664 54.311112 
L 51.18507 55.565473 
L 51.342476 54.701402 
L 51.499881 56.465321 
L 51.657287 55.352663 
L 51.814693 55.923986 
L 51.972099 57.852667 
L 52.129504 56.527803 
L 52.28691 57.927495 
L 52.444316 57.330531 
L 52.916533 59.957301 
L 53.073939 58.801485 
L 53.231344 60.532747 
L 53.38875 59.834121 
L 53.546156 60.646942 
L 53.703562 60.258206 
L 54.175779 63.300367 
L 54.333184 61.650651 
L 54.647996 64.255032 
L 54.805402 63.395271 
L 55.120213 64.390836 
L 55.277619 63.914542 
L 55.435024 64.272738 
L 55.59243 66.079441 
L 55.749836 65.353389 
L 56.222053 67.840194 
L 56.379459 67.808624 
L 56.536865 67.104517 
L 56.69427 68.219508 
L 56.851676 68.147261 
L 57.009082 68.654357 
L 57.166487 68.575973 
L 57.323893 68.487594 
L 57.481299 68.071161 
L 57.638705 70.448501 
L 57.79611 69.489234 
L 57.953516 69.538151 
L 58.110922 70.891276 
L 58.268327 69.807868 
L 58.425733 70.836025 
L 58.583139 70.744558 
L 58.740545 70.799344 
L 58.89795 70.383421 
L 59.212762 71.264635 
L 59.527573 72.965223 
L 59.842385 71.581151 
L 59.99979 71.91503 
L 60.157196 73.227634 
L 60.314602 73.187161 
L 60.472008 73.443252 
L 60.786819 72.652459 
L 61.10163 73.714458 
L 61.416442 72.55483 
L 61.573848 73.328731 
L 61.731253 72.981059 
L 61.888659 73.706853 
L 62.20347 72.883087 
L 62.360876 74.779724 
L 62.518282 73.142349 
L 62.675688 73.190576 
L 62.990499 73.02999 
L 63.147905 72.66738 
L 63.462716 74.350617 
L 63.777528 72.409715 
L 64.092339 72.583022 
L 64.407151 74.416721 
L 64.721962 72.556563 
L 64.879368 72.511928 
L 65.036773 73.676236 
L 65.194179 73.646557 
L 65.351585 73.423006 
L 65.508991 71.755366 
L 65.823802 72.952434 
L 65.981208 71.748247 
L 66.138613 72.955073 
L 66.296019 72.652385 
L 66.453425 72.430967 
L 66.768236 70.877675 
L 66.925642 70.77523 
L 67.240454 69.952064 
L 67.555265 71.015335 
L 67.712671 69.821378 
L 67.870076 70.009064 
L 68.027482 69.86261 
L 68.499699 67.587684 
L 68.657105 68.357998 
L 68.971916 66.961168 
L 69.129322 67.634679 
L 69.444134 65.644882 
L 69.601539 67.120889 
L 69.916351 65.295011 
L 70.073756 66.321788 
L 70.388568 64.2472 
L 71.647814 61.115983 
L 71.805219 62.149877 
L 71.962625 60.743691 
L 72.120031 61.47018 
L 72.277437 59.590193 
L 72.434842 61.019131 
L 72.749654 60.242474 
L 73.064465 58.240102 
L 73.221871 58.993105 
L 73.379277 58.580077 
L 73.694088 56.070973 
L 73.851494 56.844892 
L 74.166305 54.576361 
L 74.323711 54.180029 
L 74.481117 54.387245 
L 74.953334 52.665436 
L 75.11074 52.998179 
L 75.582957 50.747008 
L 75.740362 51.387609 
L 75.897768 50.547372 
L 76.055174 50.87829 
L 76.684797 48.08551 
L 76.842202 49.029792 
L 76.999608 48.456242 
L 77.157014 46.524093 
L 77.31442 46.820942 
L 77.471825 45.172323 
L 77.629231 46.703438 
L 78.258854 43.028957 
L 78.41626 44.420737 
L 78.731071 42.551093 
L 78.888477 42.991966 
L 79.045883 43.116584 
L 79.203288 41.475049 
L 79.360694 41.984583 
L 79.5181 40.194557 
L 79.675505 40.745726 
L 79.832911 40.479139 
L 80.147723 39.018009 
L 80.305128 39.362878 
L 80.462534 37.978129 
L 80.61994 38.404368 
L 80.777345 37.200822 
L 80.934751 38.505767 
L 81.092157 36.145998 
L 81.249563 36.40275 
L 81.406968 36.503089 
L 81.564374 37.156345 
L 82.036591 34.064075 
L 82.351403 34.275137 
L 82.508808 34.305549 
L 82.666214 33.026465 
L 82.82362 33.317339 
L 82.981026 32.647563 
L 83.295837 33.540056 
L 83.453243 31.242198 
L 83.610648 33.189664 
L 83.92546 31.791134 
L 84.082866 31.951708 
L 84.240271 31.651365 
L 84.555083 30.396097 
L 84.712488 30.18486 
L 84.869894 29.615571 
L 85.0273 30.67472 
L 85.184706 28.908927 
L 85.342111 29.25887 
L 85.499517 30.499717 
L 85.656923 29.049271 
L 85.814329 29.390131 
L 85.971734 29.307435 
L 86.12914 29.492584 
L 86.443951 27.412133 
L 86.601357 28.901936 
L 86.758763 27.908298 
L 87.23098 28.867371 
L 87.388386 28.442138 
L 87.545791 26.935756 
L 87.703197 28.603985 
L 88.018009 27.099181 
L 88.33282 28.040677 
L 88.490226 26.44509 
L 88.647632 26.507749 
L 88.805037 27.186633 
L 89.119849 26.312031 
L 89.277254 26.573646 
L 89.43466 27.463028 
L 89.592066 26.77237 
L 89.749472 26.843832 
L 89.906877 28.317288 
L 90.064283 27.374523 
L 90.221689 28.612745 
L 90.379094 28.377664 
L 90.5365 28.651552 
L 90.851312 28.110243 
L 91.008717 28.573691 
L 91.323529 27.4671 
L 91.63834 29.606456 
L 91.795746 27.779126 
L 91.953152 29.24034 
L 92.267963 28.189001 
L 92.425369 28.643779 
L 92.582775 30.5493 
L 92.74018 29.948381 
L 92.897586 30.479469 
L 93.054992 29.784074 
L 93.212397 30.156853 
L 93.369803 29.555878 
L 93.527209 31.00792 
L 93.684615 30.210727 
L 94.156832 32.22053 
L 94.314237 31.503069 
L 94.471643 32.076098 
L 94.629049 31.420685 
L 94.94386 33.680498 
L 95.101266 32.910518 
L 95.258672 33.280233 
L 95.416077 32.983517 
L 95.573483 33.285598 
L 95.730889 35.145408 
L 95.888295 34.806249 
L 96.517918 37.179339 
L 96.675323 35.465108 
L 97.462352 37.949573 
L 97.619758 39.382757 
L 97.777163 38.130945 
L 97.934569 40.565455 
L 98.091975 39.577965 
L 98.24938 41.337663 
L 98.406786 39.5711 
L 99.193815 43.483769 
L 99.351221 42.331745 
L 99.666032 44.776248 
L 99.823438 44.705368 
L 99.980843 43.637904 
L 100.453061 46.622525 
L 100.610466 45.822512 
L 100.767872 47.722736 
L 100.925278 47.478731 
L 101.082683 46.918129 
L 101.240089 49.328009 
L 101.554901 47.966354 
L 101.712306 50.127974 
L 101.869712 49.390431 
L 102.184523 49.962121 
L 102.656741 53.098565 
L 102.814146 52.42899 
L 103.286364 53.761266 
L 103.601175 55.485326 
L 103.915986 54.437039 
L 104.545609 57.760835 
L 104.703015 56.704101 
L 105.175232 59.853947 
L 105.332638 59.321833 
L 105.490044 60.689056 
L 105.647449 59.708273 
L 105.804855 61.369621 
L 105.962261 60.99329 
L 106.119666 61.896815 
L 106.277072 60.542349 
L 106.434478 62.604919 
L 106.591884 62.258514 
L 106.749289 63.951323 
L 106.906695 62.939353 
L 107.378912 64.498189 
L 107.536318 63.722882 
L 107.693724 65.699847 
L 107.851129 64.858801 
L 108.008535 64.998481 
L 108.480752 66.146396 
L 108.795564 68.187367 
L 108.952969 66.578563 
L 108.952969 66.578563 
" clip-path="url(#p681e7bd6e5)" style="fill: none; stroke: #3362b0; stroke-width: 1.5; stroke-linecap: square"/>
   </g>
   <g id="line2d_12">
    <path d="M 30.407515 28.178512 
L 30.564921 26.838226 
L 30.722326 26.962912 
L 30.879732 28.368138 
L 31.037138 26.979908 
L 31.194544 28.327696 
L 31.351949 28.292414 
L 31.666761 28.216651 
L 31.824166 28.948778 
L 31.981572 28.534453 
L 32.138978 29.158441 
L 32.296384 29.000367 
L 32.453789 28.000802 
L 32.768601 30.044413 
L 32.926006 28.868909 
L 33.083412 30.061599 
L 33.398224 28.802374 
L 33.713035 31.11992 
L 33.870441 30.729348 
L 34.027846 31.00632 
L 34.342658 32.248991 
L 34.500064 31.079478 
L 34.657469 31.651162 
L 34.814875 31.023604 
L 35.129687 32.11975 
L 35.601904 34.477422 
L 35.759309 34.272885 
L 35.916715 33.75389 
L 36.074121 35.307779 
L 36.388932 34.390041 
L 36.546338 36.365767 
L 36.703744 34.729422 
L 37.648178 38.259946 
L 37.805584 37.659156 
L 37.96299 39.525848 
L 38.120395 37.800751 
L 38.435207 40.659478 
L 38.592612 40.77206 
L 38.750018 39.471165 
L 39.06483 41.66252 
L 39.222235 41.667729 
L 39.379641 42.944282 
L 39.537047 41.673795 
L 39.694452 43.194133 
L 39.851858 42.483663 
L 40.16667 44.992832 
L 40.324075 43.673586 
L 40.796292 46.291734 
L 40.953698 45.08776 
L 41.111104 46.592586 
L 41.26851 46.014638 
L 41.740727 48.240807 
L 41.898133 47.606366 
L 42.055538 50.170005 
L 42.212944 48.73099 
L 42.37035 51.071408 
L 42.527755 50.700668 
L 42.685161 50.732838 
L 43.629595 53.969132 
L 43.787001 53.037613 
L 43.944407 53.727213 
L 44.259218 56.176925 
L 44.416624 55.61728 
L 44.731435 56.952562 
L 45.046247 57.703788 
L 45.361058 57.081877 
L 45.833276 59.755711 
L 45.990681 60.125888 
L 46.148087 59.278564 
L 46.462898 62.002409 
L 46.620304 61.378894 
L 46.935116 63.112334 
L 47.092521 61.451675 
L 47.249927 62.990671 
L 47.407333 62.242106 
L 48.036956 65.659333 
L 48.194361 64.533247 
L 48.351767 65.82553 
L 48.509173 65.064403 
L 48.666578 66.47343 
L 48.823984 66.363663 
L 48.98139 66.363559 
L 49.138796 67.737017 
L 49.296201 66.986516 
L 49.453607 68.478194 
L 49.611013 68.209404 
L 49.768419 68.38816 
L 49.925824 69.046909 
L 50.08323 67.59678 
L 50.240636 69.996541 
L 50.398041 68.343114 
L 50.555447 69.185993 
L 50.712853 68.679985 
L 50.870259 69.795735 
L 51.027664 69.732268 
L 51.18507 69.62303 
L 51.342476 69.967003 
L 51.499881 71.581992 
L 51.657287 71.039741 
L 51.814693 71.664223 
L 51.972099 70.456485 
L 52.28691 71.788141 
L 52.444316 71.623138 
L 52.601722 73.023671 
L 52.759127 71.505002 
L 53.073939 73.555566 
L 53.38875 72.553494 
L 53.703562 74.051299 
L 53.860967 72.082218 
L 54.175779 74.138203 
L 54.333184 73.066683 
L 54.49059 74.360207 
L 54.647996 74.303458 
L 54.805402 74.459753 
L 55.120213 72.554585 
L 55.435024 74.549007 
L 55.59243 74.466351 
L 55.907242 73.25161 
L 56.064647 73.396365 
L 56.222053 74.738568 
L 56.379459 73.405566 
L 56.536865 74.621203 
L 56.69427 73.200458 
L 56.851676 73.823239 
L 57.009082 72.325323 
L 57.166487 72.447064 
L 57.323893 72.644937 
L 57.481299 72.382744 
L 57.953516 73.731912 
L 58.110922 72.705285 
L 58.268327 73.306545 
L 58.425733 71.773762 
L 58.583139 73.098583 
L 58.740545 73.003482 
L 59.055356 70.783605 
L 59.370167 72.249379 
L 59.527573 71.133938 
L 59.684979 71.851057 
L 59.842385 71.288811 
L 59.99979 69.623488 
L 60.157196 71.402632 
L 60.314602 71.219899 
L 60.472008 70.842162 
L 60.629413 69.785614 
L 60.786819 70.125941 
L 60.944225 68.252349 
L 61.10163 69.269272 
L 61.573848 67.914853 
L 61.731253 66.952784 
L 61.888659 68.33335 
L 62.20347 66.308308 
L 62.360876 66.055526 
L 62.518282 67.071062 
L 62.833093 65.424877 
L 62.990499 66.340721 
L 63.305311 64.039914 
L 63.462716 65.326268 
L 63.777528 63.313342 
L 63.934933 63.860441 
L 64.092339 63.810871 
L 64.407151 61.41665 
L 64.564556 61.519517 
L 64.721962 61.908253 
L 65.036773 61.354239 
L 65.194179 60.13001 
L 65.351585 60.6243 
L 65.823802 59.466493 
L 65.981208 57.730502 
L 66.138613 57.900178 
L 66.610831 55.936222 
L 66.768236 56.014081 
L 67.083048 54.093748 
L 67.240454 55.353227 
L 67.397859 54.9312 
L 67.870076 52.380981 
L 68.027482 51.82482 
L 68.342294 52.736256 
L 68.657105 49.915024 
L 69.601539 47.13463 
L 69.758945 47.887335 
L 69.916351 46.544968 
L 70.073756 47.470568 
L 70.388568 45.058573 
L 70.545974 45.952203 
L 70.703379 45.627991 
L 71.018191 43.715177 
L 71.175597 43.997044 
L 71.490408 42.685844 
L 71.647814 43.813022 
L 72.120031 40.66453 
L 72.277437 41.70449 
L 72.592248 39.121423 
L 72.907059 40.219802 
L 73.221871 37.601908 
L 73.536682 38.745223 
L 73.851494 36.547693 
L 74.0089 38.067939 
L 74.323711 35.566703 
L 74.481117 35.975363 
L 74.795928 34.387221 
L 74.953334 34.605799 
L 75.268145 33.950879 
L 75.425551 35.021257 
L 75.740362 32.887721 
L 75.897768 33.993943 
L 76.055174 32.098915 
L 76.369985 33.361991 
L 76.684797 31.65314 
L 76.842202 31.514299 
L 77.157014 31.841288 
L 77.31442 30.901515 
L 77.629231 31.463451 
L 77.786637 29.155093 
L 77.944043 30.111451 
L 78.101448 28.780314 
L 78.41626 29.68044 
L 78.731071 28.151812 
L 78.888477 29.613757 
L 79.045883 29.306837 
L 79.203288 28.641519 
L 79.360694 29.09097 
L 79.5181 28.333565 
L 79.675505 28.413679 
L 79.832911 28.482402 
L 79.990317 28.264237 
L 80.147723 26.764234 
L 80.462534 28.80288 
L 80.61994 26.529375 
L 80.777345 26.899443 
L 80.934751 27.978736 
L 81.092157 27.705745 
L 81.249563 26.941566 
L 81.406968 27.82542 
L 81.564374 27.623924 
L 81.72178 27.78406 
L 82.036591 27.370568 
L 82.193997 26.42051 
L 82.351403 27.980163 
L 82.508808 26.932742 
L 82.82362 28.449231 
L 83.138431 26.946148 
L 83.295837 28.209279 
L 83.453243 27.019184 
L 83.610648 28.648324 
L 83.768054 28.43737 
L 84.082866 27.704791 
L 84.240271 27.990515 
L 84.397677 29.085361 
L 84.555083 28.127511 
L 84.869894 29.581005 
L 85.0273 30.035402 
L 85.184706 29.61341 
L 85.342111 28.592099 
L 85.499517 28.951811 
L 85.814329 30.56068 
L 86.12914 29.320021 
L 86.601357 32.197141 
L 86.758763 31.417846 
L 87.073574 32.673598 
L 87.23098 31.340705 
L 87.388386 31.500302 
L 87.545791 32.216128 
L 87.703197 34.058493 
L 87.860603 33.624703 
L 88.018009 32.546202 
L 88.175414 32.680503 
L 88.647632 34.598401 
L 88.962443 35.613839 
L 89.119849 35.400323 
L 89.277254 37.09206 
L 89.592066 36.101221 
L 89.749472 37.903113 
L 89.906877 37.820285 
L 90.221689 39.185036 
L 90.379094 39.173296 
L 90.5365 40.02491 
L 90.693906 38.57555 
L 91.008717 39.706751 
L 91.166123 39.392992 
L 91.323529 40.934511 
L 91.480934 40.902807 
L 91.63834 41.05271 
L 91.795746 42.93144 
L 91.953152 42.048562 
L 92.110557 42.349784 
L 92.267963 43.212875 
L 92.425369 42.780894 
L 92.582775 44.187951 
L 92.74018 43.75067 
L 93.527209 45.894044 
L 93.84202 47.689889 
L 93.999426 47.41038 
L 94.471643 49.962877 
L 94.629049 49.931556 
L 95.416077 53.037179 
L 95.573483 51.512237 
L 95.730889 53.366818 
L 95.888295 53.345531 
L 96.203106 54.988104 
L 96.360512 53.439082 
L 96.832729 56.283052 
L 97.462352 58.311847 
L 97.619758 56.817403 
L 97.934569 59.0188 
L 98.091975 58.424881 
L 98.24938 58.644849 
L 98.406786 61.090376 
L 98.564192 60.336521 
L 98.721598 61.771244 
L 99.036409 60.792053 
L 99.508626 62.199166 
L 99.666032 62.315564 
L 100.295655 64.831154 
L 100.453061 65.691805 
L 100.767872 64.953204 
L 100.925278 65.013777 
L 101.240089 67.563406 
L 101.397495 66.9347 
L 101.869712 68.619219 
L 102.027118 67.450898 
L 102.184523 69.141918 
L 102.499335 67.718236 
L 102.656741 68.236698 
L 102.971552 70.582911 
L 103.128958 69.646546 
L 103.601175 70.781885 
L 103.758581 69.781945 
L 103.915986 71.66166 
L 104.073392 70.291128 
L 104.230798 70.326249 
L 104.388204 70.597189 
L 104.703015 72.223179 
L 104.860421 71.065454 
L 105.017826 71.239842 
L 105.332638 73.292181 
L 105.490044 72.224892 
L 105.647449 72.916209 
L 105.804855 72.808174 
L 105.962261 72.636093 
L 106.119666 72.061054 
L 106.434478 73.451581 
L 106.591884 73.929582 
L 106.906695 73.338279 
L 107.064101 73.512346 
L 107.221507 74.440793 
L 107.378912 72.749651 
L 107.693724 74.831599 
L 107.851129 73.92439 
L 108.165941 74.753745 
L 108.638158 72.934417 
L 108.795564 73.312145 
L 108.952969 74.253612 
L 108.952969 74.253612 
" clip-path="url(#p681e7bd6e5)" style="fill: none; stroke: #cc3164; stroke-width: 1.5; stroke-linecap: square"/>
   </g>
   <g id="patch_3">
    <path d="M 26.480242 77.258787 
L 26.480242 23.860651 
" style="fill: none; stroke: #4d4f53; stroke-width: 0.8; stroke-linejoin: miter; stroke-linecap: square"/>
   </g>
   <g id="patch_4">
    <path d="M 112.880242 77.258787 
L 112.880242 23.860651 
" style="fill: none; stroke: #4d4f53; stroke-width: 0.8; stroke-linejoin: miter; stroke-linecap: square"/>
   </g>
   <g id="patch_5">
    <path d="M 26.480242 77.258787 
L 112.880242 77.258787 
" style="fill: none; stroke: #4d4f53; stroke-width: 0.8; stroke-linejoin: miter; stroke-linecap: square"/>
   </g>
   <g id="patch_6">
    <path d="M 26.480242 23.860651 
L 112.880242 23.860651 
" style="fill: none; stroke: #4d4f53; stroke-width: 0.8; stroke-linejoin: miter; stroke-linecap: square"/>
   </g>
   <g id="legend_1">
    <g id="patch_7">
     <path d="M 26.480242 23.860651 
L 112.880242 23.860651 
L 112.880242 7.2 
L 26.480242 7.2 
L 26.480242 23.860651 
z
" style="fill: none; opacity: 0"/>
    </g>
    <g id="text_6">
     <!-- title -->
     <g style="fill: #4d4f53" transform="translate(30.645242 17.694498) scale(0.0833 -0.0833)">
      <defs>
       <path id="DejaVuSans-57" d="M 1172 4494 
L 1172 3500 
L 2356 3500 
L 2356 3053 
L 1172 3053 
L 1172 1153 
Q 1172 725 1289 603 
Q 1406 481 1766 481 
L 2356 481 
L 2356 0 
L 1766 0 
Q 1100 0 847 248 
Q 594 497 594 1153 
L 594 3053 
L 172 3053 
L 172 3500 
L 594 3500 
L 594 4494 
L 1172 4494 
z
" transform="scale(0.015625)"/>
       <path id="DejaVuSans-4c" d="M 603 3500 
L 1178 3500 
L 1178 0 
L 603 0 
L 603 3500 
z
M 603 4863 
L 1178 4863 
L 1178 4134 
L 603 4134 
L 603 4863 
z
" transform="scale(0.015625)"/>
       <path id="DejaVuSans-4f" d="M 603 4863 
L 1178 4863 
L 1178 0 
L 603 0 
L 603 4863 
z
" transform="scale(0.015625)"/>
       <path id="DejaVuSans-48" d="M 3597 1894 
L 3597 1613 
L 953 1613 
Q 991 1019 1311 708 
Q 1631 397 2203 397 
Q 2534 397 2845 478 
Q 3156 559 3463 722 
L 3463 178 
Q 3153 47 2828 -22 
Q 2503 -91 2169 -91 
Q 1331 -91 842 396 
Q 353 884 353 1716 
Q 353 2575 817 3079 
Q 1281 3584 2069 3584 
Q 2775 3584 3186 3129 
Q 3597 2675 3597 1894 
z
M 3022 2063 
Q 3016 2534 2758 2815 
Q 2500 3097 2075 3097 
Q 1594 3097 1305 2825 
Q 1016 2553 972 2059 
L 3022 2063 
z
" transform="scale(0.015625)"/>
      </defs>
      <use xlink:href="#DejaVuSans-57"/>
      <use xlink:href="#DejaVuSans-4c" transform="translate(39.203125 0)"/>
      <use xlink:href="#DejaVuSans-57" transform="translate(66.984375 0)"/>
      <use xlink:href="#DejaVuSans-4f" transform="translate(106.1875 0)"/>
      <use xlink:href="#DejaVuSans-48" transform="translate(133.96875 0)"/>
     </g>
    </g>
    <g id="line2d_13">
     <path d="M 53.082717 14.778998 
L 58.913717 14.778998 
L 64.744717 14.778998 
" style="fill: none; stroke: #3362b0; stroke-width: 1.5; stroke-linecap: square"/>
    </g>
    <g id="text_7">
     <!-- $x_1$ -->
     <g style="fill: #4d4f53" transform="translate(68.909717 17.694498) scale(0.0833 -0.0833)">
      <defs>
       <path id="DejaVuSans-Oblique-5b" d="M 3841 3500 
L 2234 1784 
L 3219 0 
L 2559 0 
L 1819 1388 
L 531 0 
L -166 0 
L 1556 1844 
L 641 3500 
L 1300 3500 
L 1972 2234 
L 3144 3500 
L 3841 3500 
z
" transform="scale(0.015625)"/>
      </defs>
      <use xlink:href="#DejaVuSans-Oblique-5b" transform="translate(0 0.3125)"/>
      <use xlink:href="#DejaVuSans-14" transform="translate(59.179688 -14.687451) scale(0.7)"/>
     </g>
    </g>
    <g id="line2d_14">
     <path d="M 83.975142 14.778998 
L 89.806142 14.778998 
L 95.637142 14.778998 
" style="fill: none; stroke: #cc3164; stroke-width: 1.5; stroke-linecap: square"/>
    </g>
    <g id="text_8">
     <!-- $x_2$ -->
     <g style="fill: #4d4f53" transform="translate(99.802142 17.694498) scale(0.0833 -0.0833)">
      <defs>
       <path id="DejaVuSans-15" d="M 1228 531 
L 3431 531 
L 3431 0 
L 469 0 
L 469 531 
Q 828 903 1448 1529 
Q 2069 2156 2228 2338 
Q 2531 2678 2651 2914 
Q 2772 3150 2772 3378 
Q 2772 3750 2511 3984 
Q 2250 4219 1831 4219 
Q 1534 4219 1204 4116 
Q 875 4013 500 3803 
L 500 4441 
Q 881 4594 1212 4672 
Q 1544 4750 1819 4750 
Q 2544 4750 2975 4387 
Q 3406 4025 3406 3419 
Q 3406 3131 3298 2873 
Q 3191 2616 2906 2266 
Q 2828 2175 2409 1742 
Q 1991 1309 1228 531 
z
" transform="scale(0.015625)"/>
      </defs>
      <use xlink:href="#DejaVuSans-Oblique-5b" transform="translate(0 0.3125)"/>
      <use xlink:href="#DejaVuSans-15" transform="translate(59.179688 -14.687451) scale(0.7)"/>
     </g>
    </g>
   </g>
  </g>
  <g id="axes_2">
   <g id="patch_8">
    <path d="M 134.480242 77.258787 
L 220.880242 77.258787 
L 220.880242 23.860651 
L 134.480242 23.860651 
L 134.480242 77.258787 
z
" style="fill: none"/>
   </g>
   <g id="matplotlib.axis_3">
    <g id="xtick_3">
     <g id="line2d_15">
      <path d="M 138.407515 77.258787 
L 138.407515 23.860651 
" clip-path="url(#p9be909f6ce)" style="fill: none; stroke-dasharray: 2.96,1.28; stroke-dashoffset: 0; stroke: #dddfe5; stroke-width: 0.8"/>
     </g>
     <g id="line2d_16">
      <g>
       <use xlink:href="#me91f1ac20e" x="138.407515" y="77.258787" style="fill: #4d4f53; stroke: #4d4f53; stroke-width: 0.8"/>
      </g>
     </g>
     <g id="text_9">
      <!-- 0 -->
      <g style="fill: #4d4f53" transform="translate(135.757534 90.587635) scale(0.0833 -0.0833)">
       <use xlink:href="#DejaVuSans-13"/>
      </g>
     </g>
    </g>
    <g id="xtick_4">
     <g id="line2d_17">
      <path d="M 180.077173 77.258787 
L 180.077173 23.860651 
" clip-path="url(#p9be909f6ce)" style="fill: none; stroke-dasharray: 2.96,1.28; stroke-dashoffset: 0; stroke: #dddfe5; stroke-width: 0.8"/>
     </g>
     <g id="line2d_18">
      <g>
       <use xlink:href="#me91f1ac20e" x="180.077173" y="77.258787" style="fill: #4d4f53; stroke: #4d4f53; stroke-width: 0.8"/>
      </g>
     </g>
     <g id="text_10">
      <!-- 5 -->
      <g style="fill: #4d4f53" transform="translate(177.427191 90.587635) scale(0.0833 -0.0833)">
       <use xlink:href="#DejaVuSans-18"/>
      </g>
     </g>
    </g>
   </g>
   <g id="matplotlib.axis_4">
    <g id="ytick_4">
     <g id="line2d_19">
      <path d="M 134.480242 74.853071 
L 220.880242 74.853071 
" clip-path="url(#p9be909f6ce)" style="fill: none; stroke-dasharray: 2.96,1.28; stroke-dashoffset: 0; stroke: #dddfe5; stroke-width: 0.8"/>
     </g>
     <g id="line2d_20">
      <g>
       <use xlink:href="#m2b04f8cee3" x="134.480242" y="74.853071" style="fill: #4d4f53; stroke: #4d4f53; stroke-width: 0.8"/>
      </g>
     </g>
     <g id="text_11">
      <!-- −1 -->
      <g style="fill: #4d4f53" transform="translate(115.2 78.017495) scale(0.0833 -0.0833)">
       <use xlink:href="#DejaVuSans-c9c"/>
       <use xlink:href="#DejaVuSans-14" transform="translate(83.796875 0)"/>
      </g>
     </g>
    </g>
    <g id="ytick_5">
     <g id="line2d_21">
      <path d="M 134.480242 51.722425 
L 220.880242 51.722425 
" clip-path="url(#p9be909f6ce)" style="fill: none; stroke-dasharray: 2.96,1.28; stroke-dashoffset: 0; stroke: #dddfe5; stroke-width: 0.8"/>
     </g>
     <g id="line2d_22">
      <g>
       <use xlink:href="#m2b04f8cee3" x="134.480242" y="51.722425" style="fill: #4d4f53; stroke: #4d4f53; stroke-width: 0.8"/>
      </g>
     </g>
     <g id="text_12">
      <!-- 0 -->
      <g style="fill: #4d4f53" transform="translate(122.18028 54.886849) scale(0.0833 -0.0833)">
       <use xlink:href="#DejaVuSans-13"/>
      </g>
     </g>
    </g>
    <g id="ytick_6">
     <g id="line2d_23">
      <path d="M 134.480242 28.591778 
L 220.880242 28.591778 
" clip-path="url(#p9be909f6ce)" style="fill: none; stroke-dasharray: 2.96,1.28; stroke-dashoffset: 0; stroke: #dddfe5; stroke-width: 0.8"/>
     </g>
     <g id="line2d_24">
      <g>
       <use xlink:href="#m2b04f8cee3" x="134.480242" y="28.591778" style="fill: #4d4f53; stroke: #4d4f53; stroke-width: 0.8"/>
      </g>
     </g>
     <g id="text_13">
      <!-- 1 -->
      <g style="fill: #4d4f53" transform="translate(122.18028 31.756202) scale(0.0833 -0.0833)">
       <use xlink:href="#DejaVuSans-14"/>
      </g>
     </g>
    </g>
   </g>
   <g id="line2d_25">
    <path d="M 138.407515 34.393489 
L 139.037138 32.42285 
L 139.194544 32.747277 
L 139.351949 30.833214 
L 139.509355 31.140355 
L 139.666761 32.319944 
L 139.981572 30.655737 
L 140.138978 31.592147 
L 140.296384 29.385393 
L 140.453789 30.421344 
L 140.768601 29.203771 
L 140.926006 30.013061 
L 141.240818 29.135788 
L 141.398224 28.559485 
L 141.555629 29.721631 
L 141.713035 29.335421 
L 141.870441 28.305384 
L 142.027846 28.561399 
L 142.185252 29.173401 
L 142.342658 28.50804 
L 142.500064 28.888072 
L 142.814875 27.217798 
L 142.972281 28.623843 
L 143.129687 26.755209 
L 143.287092 27.91105 
L 143.444498 27.662822 
L 143.601904 27.589599 
L 143.759309 28.683741 
L 144.074121 26.347151 
L 144.388932 28.309204 
L 144.703744 26.989033 
L 144.861149 28.593349 
L 145.018555 27.761821 
L 145.175961 28.504197 
L 145.333367 26.84643 
L 145.490772 27.903688 
L 145.648178 27.136463 
L 145.805584 27.682112 
L 145.96299 26.63312 
L 146.435207 27.821685 
L 146.592612 26.917929 
L 146.907424 29.410738 
L 147.06483 29.359488 
L 147.222235 27.522893 
L 147.379641 27.580368 
L 147.694452 29.341255 
L 147.851858 28.618336 
L 148.009264 30.433284 
L 148.16667 28.876389 
L 148.324075 29.264456 
L 148.481481 30.567642 
L 148.796292 29.304169 
L 148.953698 31.249321 
L 149.111104 29.737906 
L 149.26851 31.320786 
L 149.425915 30.685136 
L 149.583321 31.931819 
L 149.740727 31.59313 
L 149.898133 32.637464 
L 150.055538 32.226907 
L 150.37035 32.934763 
L 150.527755 32.299634 
L 150.685161 33.276944 
L 150.842567 33.036638 
L 150.999973 33.175901 
L 151.157378 34.502117 
L 151.314784 33.52198 
L 151.944407 35.844363 
L 152.101813 35.173329 
L 152.57403 37.760486 
L 152.731435 36.47884 
L 153.203653 39.22426 
L 153.361058 39.152573 
L 153.833276 41.009233 
L 153.990681 40.109807 
L 154.148087 42.022513 
L 154.305493 41.944525 
L 154.620304 41.131989 
L 154.935116 43.169837 
L 155.092521 42.551085 
L 155.249927 42.646219 
L 155.564738 44.880235 
L 155.722144 44.589246 
L 156.036956 46.984407 
L 156.194361 46.679374 
L 156.351767 46.795902 
L 156.509173 48.237186 
L 156.666578 46.665025 
L 157.611013 51.104517 
L 157.768419 51.280834 
L 157.925824 50.690603 
L 158.08323 51.592056 
L 158.240636 50.975222 
L 158.712853 54.014232 
L 159.027664 54.311112 
L 159.18507 55.565473 
L 159.342476 54.701402 
L 159.499881 56.465321 
L 159.657287 55.352663 
L 159.814693 55.923986 
L 159.972099 57.852667 
L 160.129504 56.527803 
L 160.28691 57.927495 
L 160.444316 57.330531 
L 160.916533 59.957301 
L 161.073939 58.801485 
L 161.231344 60.532747 
L 161.38875 59.834121 
L 161.546156 60.646942 
L 161.703562 60.258206 
L 162.175779 63.300367 
L 162.333184 61.650651 
L 162.647996 64.255032 
L 162.805402 63.395271 
L 163.120213 64.390836 
L 163.277619 63.914542 
L 163.435024 64.272738 
L 163.59243 66.079441 
L 163.749836 65.353389 
L 164.222053 67.840194 
L 164.379459 67.808624 
L 164.536865 67.104517 
L 164.69427 68.219508 
L 164.851676 68.147261 
L 165.009082 68.654357 
L 165.166487 68.575973 
L 165.323893 68.487594 
L 165.481299 68.071161 
L 165.638705 70.448501 
L 165.79611 69.489234 
L 165.953516 69.538151 
L 166.110922 70.891276 
L 166.268327 69.807868 
L 166.425733 70.836025 
L 166.583139 70.744558 
L 166.740545 70.799344 
L 166.89795 70.383421 
L 167.212762 71.264635 
L 167.527573 72.965223 
L 167.842385 71.581151 
L 167.99979 71.91503 
L 168.157196 73.227634 
L 168.314602 73.187161 
L 168.472008 73.443252 
L 168.786819 72.652459 
L 169.10163 73.714458 
L 169.416442 72.55483 
L 169.573848 73.328731 
L 169.731253 72.981059 
L 169.888659 73.706853 
L 170.20347 72.883087 
L 170.360876 74.779724 
L 170.518282 73.142349 
L 170.675688 73.190576 
L 170.990499 73.02999 
L 171.147905 72.66738 
L 171.462716 74.350617 
L 171.777528 72.409715 
L 172.092339 72.583022 
L 172.407151 74.416721 
L 172.721962 72.556563 
L 172.879368 72.511928 
L 173.036773 73.676236 
L 173.194179 73.646557 
L 173.351585 73.423006 
L 173.508991 71.755366 
L 173.823802 72.952434 
L 173.981208 71.748247 
L 174.138613 72.955073 
L 174.296019 72.652385 
L 174.453425 72.430967 
L 174.768236 70.877675 
L 174.925642 70.77523 
L 175.240454 69.952064 
L 175.555265 71.015335 
L 175.712671 69.821378 
L 175.870076 70.009064 
L 176.027482 69.86261 
L 176.499699 67.587684 
L 176.657105 68.357998 
L 176.971916 66.961168 
L 177.129322 67.634679 
L 177.444134 65.644882 
L 177.601539 67.120889 
L 177.916351 65.295011 
L 178.073756 66.321788 
L 178.388568 64.2472 
L 179.647814 61.115983 
L 179.805219 62.149877 
L 179.962625 60.743691 
L 180.120031 61.47018 
L 180.277437 59.590193 
L 180.434842 61.019131 
L 180.749654 60.242474 
L 181.064465 58.240102 
L 181.221871 58.993105 
L 181.379277 58.580077 
L 181.694088 56.070973 
L 181.851494 56.844892 
L 182.166305 54.576361 
L 182.323711 54.180029 
L 182.481117 54.387245 
L 182.953334 52.665436 
L 183.11074 52.998179 
L 183.582957 50.747008 
L 183.740362 51.387609 
L 183.897768 50.547372 
L 184.055174 50.87829 
L 184.684797 48.08551 
L 184.842202 49.029792 
L 184.999608 48.456242 
L 185.157014 46.524093 
L 185.31442 46.820942 
L 185.471825 45.172323 
L 185.629231 46.703438 
L 186.258854 43.028957 
L 186.41626 44.420737 
L 186.731071 42.551093 
L 186.888477 42.991966 
L 187.045883 43.116584 
L 187.203288 41.475049 
L 187.360694 41.984583 
L 187.5181 40.194557 
L 187.675505 40.745726 
L 187.832911 40.479139 
L 188.147723 39.018009 
L 188.305128 39.362878 
L 188.462534 37.978129 
L 188.61994 38.404368 
L 188.777345 37.200822 
L 188.934751 38.505767 
L 189.092157 36.145998 
L 189.249563 36.40275 
L 189.406968 36.503089 
L 189.564374 37.156345 
L 190.036591 34.064075 
L 190.351403 34.275137 
L 190.508808 34.305549 
L 190.666214 33.026465 
L 190.82362 33.317339 
L 190.981026 32.647563 
L 191.295837 33.540056 
L 191.453243 31.242198 
L 191.610648 33.189664 
L 191.92546 31.791134 
L 192.082866 31.951708 
L 192.240271 31.651365 
L 192.555083 30.396097 
L 192.712488 30.18486 
L 192.869894 29.615571 
L 193.0273 30.67472 
L 193.184706 28.908927 
L 193.342111 29.25887 
L 193.499517 30.499717 
L 193.656923 29.049271 
L 193.814329 29.390131 
L 193.971734 29.307435 
L 194.12914 29.492584 
L 194.443951 27.412133 
L 194.601357 28.901936 
L 194.758763 27.908298 
L 195.23098 28.867371 
L 195.388386 28.442138 
L 195.545791 26.935756 
L 195.703197 28.603985 
L 196.018009 27.099181 
L 196.33282 28.040677 
L 196.490226 26.44509 
L 196.647632 26.507749 
L 196.805037 27.186633 
L 197.119849 26.312031 
L 197.277254 26.573646 
L 197.43466 27.463028 
L 197.592066 26.77237 
L 197.749472 26.843832 
L 197.906877 28.317288 
L 198.064283 27.374523 
L 198.221689 28.612745 
L 198.379094 28.377664 
L 198.5365 28.651552 
L 198.851312 28.110243 
L 199.008717 28.573691 
L 199.323529 27.4671 
L 199.63834 29.606456 
L 199.795746 27.779126 
L 199.953152 29.24034 
L 200.267963 28.189001 
L 200.425369 28.643779 
L 200.582775 30.5493 
L 200.74018 29.948381 
L 200.897586 30.479469 
L 201.054992 29.784074 
L 201.212397 30.156853 
L 201.369803 29.555878 
L 201.527209 31.00792 
L 201.684615 30.210727 
L 202.156832 32.22053 
L 202.314237 31.503069 
L 202.471643 32.076098 
L 202.629049 31.420685 
L 202.94386 33.680498 
L 203.101266 32.910518 
L 203.258672 33.280233 
L 203.416077 32.983517 
L 203.573483 33.285598 
L 203.730889 35.145408 
L 203.888295 34.806249 
L 204.517918 37.179339 
L 204.675323 35.465108 
L 205.462352 37.949573 
L 205.619758 39.382757 
L 205.777163 38.130945 
L 205.934569 40.565455 
L 206.091975 39.577965 
L 206.24938 41.337663 
L 206.406786 39.5711 
L 207.193815 43.483769 
L 207.351221 42.331745 
L 207.666032 44.776248 
L 207.823438 44.705368 
L 207.980843 43.637904 
L 208.453061 46.622525 
L 208.610466 45.822512 
L 208.767872 47.722736 
L 208.925278 47.478731 
L 209.082683 46.918129 
L 209.240089 49.328009 
L 209.554901 47.966354 
L 209.712306 50.127974 
L 209.869712 49.390431 
L 210.184523 49.962121 
L 210.656741 53.098565 
L 210.814146 52.42899 
L 211.286364 53.761266 
L 211.601175 55.485326 
L 211.915986 54.437039 
L 212.545609 57.760835 
L 212.703015 56.704101 
L 213.175232 59.853947 
L 213.332638 59.321833 
L 213.490044 60.689056 
L 213.647449 59.708273 
L 213.804855 61.369621 
L 213.962261 60.99329 
L 214.119666 61.896815 
L 214.277072 60.542349 
L 214.434478 62.604919 
L 214.591884 62.258514 
L 214.749289 63.951323 
L 214.906695 62.939353 
L 215.378912 64.498189 
L 215.536318 63.722882 
L 215.693724 65.699847 
L 215.851129 64.858801 
L 216.008535 64.998481 
L 216.480752 66.146396 
L 216.795564 68.187367 
L 216.952969 66.578563 
L 216.952969 66.578563 
" clip-path="url(#p9be909f6ce)" style="fill: none; stroke: #3362b0; stroke-width: 1.5; stroke-linecap: square"/>
   </g>
   <g id="line2d_26">
    <path d="M 138.407515 28.178512 
L 138.564921 26.838226 
L 138.722326 26.962912 
L 138.879732 28.368138 
L 139.037138 26.979908 
L 139.194544 28.327696 
L 139.351949 28.292414 
L 139.666761 28.216651 
L 139.824166 28.948778 
L 139.981572 28.534453 
L 140.138978 29.158441 
L 140.296384 29.000367 
L 140.453789 28.000802 
L 140.768601 30.044413 
L 140.926006 28.868909 
L 141.083412 30.061599 
L 141.398224 28.802374 
L 141.713035 31.11992 
L 141.870441 30.729348 
L 142.027846 31.00632 
L 142.342658 32.248991 
L 142.500064 31.079478 
L 142.657469 31.651162 
L 142.814875 31.023604 
L 143.129687 32.11975 
L 143.601904 34.477422 
L 143.759309 34.272885 
L 143.916715 33.75389 
L 144.074121 35.307779 
L 144.388932 34.390041 
L 144.546338 36.365767 
L 144.703744 34.729422 
L 145.648178 38.259946 
L 145.805584 37.659156 
L 145.96299 39.525848 
L 146.120395 37.800751 
L 146.435207 40.659478 
L 146.592612 40.77206 
L 146.750018 39.471165 
L 147.06483 41.66252 
L 147.222235 41.667729 
L 147.379641 42.944282 
L 147.537047 41.673795 
L 147.694452 43.194133 
L 147.851858 42.483663 
L 148.16667 44.992832 
L 148.324075 43.673586 
L 148.796292 46.291734 
L 148.953698 45.08776 
L 149.111104 46.592586 
L 149.26851 46.014638 
L 149.740727 48.240807 
L 149.898133 47.606366 
L 150.055538 50.170005 
L 150.212944 48.73099 
L 150.37035 51.071408 
L 150.527755 50.700668 
L 150.685161 50.732838 
L 151.629595 53.969132 
L 151.787001 53.037613 
L 151.944407 53.727213 
L 152.259218 56.176925 
L 152.416624 55.61728 
L 152.731435 56.952562 
L 153.046247 57.703788 
L 153.361058 57.081877 
L 153.833276 59.755711 
L 153.990681 60.125888 
L 154.148087 59.278564 
L 154.462898 62.002409 
L 154.620304 61.378894 
L 154.935116 63.112334 
L 155.092521 61.451675 
L 155.249927 62.990671 
L 155.407333 62.242106 
L 156.036956 65.659333 
L 156.194361 64.533247 
L 156.351767 65.82553 
L 156.509173 65.064403 
L 156.666578 66.47343 
L 156.823984 66.363663 
L 156.98139 66.363559 
L 157.138796 67.737017 
L 157.296201 66.986516 
L 157.453607 68.478194 
L 157.611013 68.209404 
L 157.768419 68.38816 
L 157.925824 69.046909 
L 158.08323 67.59678 
L 158.240636 69.996541 
L 158.398041 68.343114 
L 158.555447 69.185993 
L 158.712853 68.679985 
L 158.870259 69.795735 
L 159.027664 69.732268 
L 159.18507 69.62303 
L 159.342476 69.967003 
L 159.499881 71.581992 
L 159.657287 71.039741 
L 159.814693 71.664223 
L 159.972099 70.456485 
L 160.28691 71.788141 
L 160.444316 71.623138 
L 160.601722 73.023671 
L 160.759127 71.505002 
L 161.073939 73.555566 
L 161.38875 72.553494 
L 161.703562 74.051299 
L 161.860967 72.082218 
L 162.175779 74.138203 
L 162.333184 73.066683 
L 162.49059 74.360207 
L 162.647996 74.303458 
L 162.805402 74.459753 
L 163.120213 72.554585 
L 163.435024 74.549007 
L 163.59243 74.466351 
L 163.907242 73.25161 
L 164.064647 73.396365 
L 164.222053 74.738568 
L 164.379459 73.405566 
L 164.536865 74.621203 
L 164.69427 73.200458 
L 164.851676 73.823239 
L 165.009082 72.325323 
L 165.166487 72.447064 
L 165.323893 72.644937 
L 165.481299 72.382744 
L 165.953516 73.731912 
L 166.110922 72.705285 
L 166.268327 73.306545 
L 166.425733 71.773762 
L 166.583139 73.098583 
L 166.740545 73.003482 
L 167.055356 70.783605 
L 167.370167 72.249379 
L 167.527573 71.133938 
L 167.684979 71.851057 
L 167.842385 71.288811 
L 167.99979 69.623488 
L 168.157196 71.402632 
L 168.314602 71.219899 
L 168.472008 70.842162 
L 168.629413 69.785614 
L 168.786819 70.125941 
L 168.944225 68.252349 
L 169.10163 69.269272 
L 169.573848 67.914853 
L 169.731253 66.952784 
L 169.888659 68.33335 
L 170.20347 66.308308 
L 170.360876 66.055526 
L 170.518282 67.071062 
L 170.833093 65.424877 
L 170.990499 66.340721 
L 171.305311 64.039914 
L 171.462716 65.326268 
L 171.777528 63.313342 
L 171.934933 63.860441 
L 172.092339 63.810871 
L 172.407151 61.41665 
L 172.564556 61.519517 
L 172.721962 61.908253 
L 173.036773 61.354239 
L 173.194179 60.13001 
L 173.351585 60.6243 
L 173.823802 59.466493 
L 173.981208 57.730502 
L 174.138613 57.900178 
L 174.610831 55.936222 
L 174.768236 56.014081 
L 175.083048 54.093748 
L 175.240454 55.353227 
L 175.397859 54.9312 
L 175.870076 52.380981 
L 176.027482 51.82482 
L 176.342294 52.736256 
L 176.657105 49.915024 
L 177.601539 47.13463 
L 177.758945 47.887335 
L 177.916351 46.544968 
L 178.073756 47.470568 
L 178.388568 45.058573 
L 178.545974 45.952203 
L 178.703379 45.627991 
L 179.018191 43.715177 
L 179.175597 43.997044 
L 179.490408 42.685844 
L 179.647814 43.813022 
L 180.120031 40.66453 
L 180.277437 41.70449 
L 180.592248 39.121423 
L 180.907059 40.219802 
L 181.221871 37.601908 
L 181.536682 38.745223 
L 181.851494 36.547693 
L 182.0089 38.067939 
L 182.323711 35.566703 
L 182.481117 35.975363 
L 182.795928 34.387221 
L 182.953334 34.605799 
L 183.268145 33.950879 
L 183.425551 35.021257 
L 183.740362 32.887721 
L 183.897768 33.993943 
L 184.055174 32.098915 
L 184.369985 33.361991 
L 184.684797 31.65314 
L 184.842202 31.514299 
L 185.157014 31.841288 
L 185.31442 30.901515 
L 185.629231 31.463451 
L 185.786637 29.155093 
L 185.944043 30.111451 
L 186.101448 28.780314 
L 186.41626 29.68044 
L 186.731071 28.151812 
L 186.888477 29.613757 
L 187.045883 29.306837 
L 187.203288 28.641519 
L 187.360694 29.09097 
L 187.5181 28.333565 
L 187.675505 28.413679 
L 187.832911 28.482402 
L 187.990317 28.264237 
L 188.147723 26.764234 
L 188.462534 28.80288 
L 188.61994 26.529375 
L 188.777345 26.899443 
L 188.934751 27.978736 
L 189.092157 27.705745 
L 189.249563 26.941566 
L 189.406968 27.82542 
L 189.564374 27.623924 
L 189.72178 27.78406 
L 190.036591 27.370568 
L 190.193997 26.42051 
L 190.351403 27.980163 
L 190.508808 26.932742 
L 190.82362 28.449231 
L 191.138431 26.946148 
L 191.295837 28.209279 
L 191.453243 27.019184 
L 191.610648 28.648324 
L 191.768054 28.43737 
L 192.082866 27.704791 
L 192.240271 27.990515 
L 192.397677 29.085361 
L 192.555083 28.127511 
L 192.869894 29.581005 
L 193.0273 30.035402 
L 193.184706 29.61341 
L 193.342111 28.592099 
L 193.499517 28.951811 
L 193.814329 30.56068 
L 194.12914 29.320021 
L 194.601357 32.197141 
L 194.758763 31.417846 
L 195.073574 32.673598 
L 195.23098 31.340705 
L 195.388386 31.500302 
L 195.545791 32.216128 
L 195.703197 34.058493 
L 195.860603 33.624703 
L 196.018009 32.546202 
L 196.175414 32.680503 
L 196.647632 34.598401 
L 196.962443 35.613839 
L 197.119849 35.400323 
L 197.277254 37.09206 
L 197.592066 36.101221 
L 197.749472 37.903113 
L 197.906877 37.820285 
L 198.221689 39.185036 
L 198.379094 39.173296 
L 198.5365 40.02491 
L 198.693906 38.57555 
L 199.008717 39.706751 
L 199.166123 39.392992 
L 199.323529 40.934511 
L 199.480934 40.902807 
L 199.63834 41.05271 
L 199.795746 42.93144 
L 199.953152 42.048562 
L 200.110557 42.349784 
L 200.267963 43.212875 
L 200.425369 42.780894 
L 200.582775 44.187951 
L 200.74018 43.75067 
L 201.527209 45.894044 
L 201.84202 47.689889 
L 201.999426 47.41038 
L 202.471643 49.962877 
L 202.629049 49.931556 
L 203.416077 53.037179 
L 203.573483 51.512237 
L 203.730889 53.366818 
L 203.888295 53.345531 
L 204.203106 54.988104 
L 204.360512 53.439082 
L 204.832729 56.283052 
L 205.462352 58.311847 
L 205.619758 56.817403 
L 205.934569 59.0188 
L 206.091975 58.424881 
L 206.24938 58.644849 
L 206.406786 61.090376 
L 206.564192 60.336521 
L 206.721598 61.771244 
L 207.036409 60.792053 
L 207.508626 62.199166 
L 207.666032 62.315564 
L 208.295655 64.831154 
L 208.453061 65.691805 
L 208.767872 64.953204 
L 208.925278 65.013777 
L 209.240089 67.563406 
L 209.397495 66.9347 
L 209.869712 68.619219 
L 210.027118 67.450898 
L 210.184523 69.141918 
L 210.499335 67.718236 
L 210.656741 68.236698 
L 210.971552 70.582911 
L 211.128958 69.646546 
L 211.601175 70.781885 
L 211.758581 69.781945 
L 211.915986 71.66166 
L 212.073392 70.291128 
L 212.230798 70.326249 
L 212.388204 70.597189 
L 212.703015 72.223179 
L 212.860421 71.065454 
L 213.017826 71.239842 
L 213.332638 73.292181 
L 213.490044 72.224892 
L 213.647449 72.916209 
L 213.804855 72.808174 
L 213.962261 72.636093 
L 214.119666 72.061054 
L 214.434478 73.451581 
L 214.591884 73.929582 
L 214.906695 73.338279 
L 215.064101 73.512346 
L 215.221507 74.440793 
L 215.378912 72.749651 
L 215.693724 74.831599 
L 215.851129 73.92439 
L 216.165941 74.753745 
L 216.638158 72.934417 
L 216.795564 73.312145 
L 216.952969 74.253612 
L 216.952969 74.253612 
" clip-path="url(#p9be909f6ce)" style="fill: none; stroke: #cc3164; stroke-width: 1.5; stroke-linecap: square"/>
   </g>
   <g id="patch_9">
    <path d="M 134.480242 77.258787 
L 134.480242 23.860651 
" style="fill: none; stroke: #4d4f53; stroke-width: 0.8; stroke-linejoin: miter; stroke-linecap: square"/>
   </g>
   <g id="patch_10">
    <path d="M 220.880242 77.258787 
L 220.880242 23.860651 
" style="fill: none; stroke: #4d4f53; stroke-width: 0.8; stroke-linejoin: miter; stroke-linecap: square"/>
   </g>
   <g id="patch_11">
    <path d="M 134.480242 77.258787 
L 220.880242 77.258787 
" style="fill: none; stroke: #4d4f53; stroke-width: 0.8; stroke-linejoin: miter; stroke-linecap: square"/>
   </g>
   <g id="patch_12">
    <path d="M 134.480242 23.860651 
L 220.880242 23.860651 
" style="fill: none; stroke: #4d4f53; stroke-width: 0.8; stroke-linejoin: miter; stroke-linecap: square"/>
   </g>
   <g id="legend_2">
    <g id="patch_13">
     <path d="M 187.810142 77.258787 
L 220.880242 77.258787 
L 220.880242 37.272835 
L 187.810142 37.272835 
z
" style="fill: #ffffff; stroke: #4d4f53; stroke-width: 0.8; stroke-linejoin: miter"/>
    </g>
    <g id="text_14">
     <!-- title -->
     <g style="fill: #4d4f53" transform="translate(196.202617 47.767334) scale(0.0833 -0.0833)">
      <use xlink:href="#DejaVuSans-57"/>
      <use xlink:href="#DejaVuSans-4c" transform="translate(39.203125 0)"/>
      <use xlink:href="#DejaVuSans-57" transform="translate(66.984375 0)"/>
      <use xlink:href="#DejaVuSans-4f" transform="translate(106.1875 0)"/>
      <use xlink:href="#DejaVuSans-48" transform="translate(133.96875 0)"/>
     </g>
    </g>
    <g id="line2d_27">
     <path d="M 191.975142 56.514484 
L 197.806142 56.514484 
L 203.637142 56.514484 
" style="fill: none; stroke: #3362b0; stroke-width: 1.5; stroke-linecap: square"/>
    </g>
    <g id="text_15">
     <!-- $x_1$ -->
     <g style="fill: #4d4f53" transform="translate(207.802142 59.429984) scale(0.0833 -0.0833)">
      <use xlink:href="#DejaVuSans-Oblique-5b" transform="translate(0 0.3125)"/>
      <use xlink:href="#DejaVuSans-14" transform="translate(59.179688 -14.687451) scale(0.7)"/>
     </g>
    </g>
    <g id="line2d_28">
     <path d="M 191.975142 68.177135 
L 197.806142 68.177135 
L 203.637142 68.177135 
" style="fill: none; stroke: #cc3164; stroke-width: 1.5; stroke-linecap: square"/>
    </g>
    <g id="text_16">
     <!-- $x_2$ -->
     <g style="fill: #4d4f53" transform="translate(207.802142 71.092635) scale(0.0833 -0.0833)">
      <use xlink:href="#DejaVuSans-Oblique-5b" transform="translate(0 0.3125)"/>
      <use xlink:href="#DejaVuSans-15" transform="translate(59.179688 -14.687451) scale(0.7)"/>
     </g>
    </g>
   </g>
  </g>
  <g id="axes_3">
   <g id="patch_14">
    <path d="M 242.480242 77.258787 
L 328.880242 77.258787 
L 328.880242 23.860651 
L 242.480242 23.860651 
L 242.480242 77.258787 
z
" style="fill: none"/>
   </g>
   <g id="matplotlib.axis_5">
    <g id="xtick_5">
     <g id="line2d_29">
      <path d="M 246.407515 77.258787 
L 246.407515 23.860651 
" clip-path="url(#pac7c7ddcda)" style="fill: none; stroke-dasharray: 2.96,1.28; stroke-dashoffset: 0; stroke: #dddfe5; stroke-width: 0.8"/>
     </g>
     <g id="line2d_30">
      <g>
       <use xlink:href="#me91f1ac20e" x="246.407515" y="77.258787" style="fill: #4d4f53; stroke: #4d4f53; stroke-width: 0.8"/>
      </g>
     </g>
     <g id="text_17">
      <!-- 0 -->
      <g style="fill: #4d4f53" transform="translate(243.757534 90.587635) scale(0.0833 -0.0833)">
       <use xlink:href="#DejaVuSans-13"/>
      </g>
     </g>
    </g>
    <g id="xtick_6">
     <g id="line2d_31">
      <path d="M 288.077173 77.258787 
L 288.077173 23.860651 
" clip-path="url(#pac7c7ddcda)" style="fill: none; stroke-dasharray: 2.96,1.28; stroke-dashoffset: 0; stroke: #dddfe5; stroke-width: 0.8"/>
     </g>
     <g id="line2d_32">
      <g>
       <use xlink:href="#me91f1ac20e" x="288.077173" y="77.258787" style="fill: #4d4f53; stroke: #4d4f53; stroke-width: 0.8"/>
      </g>
     </g>
     <g id="text_18">
      <!-- 5 -->
      <g style="fill: #4d4f53" transform="translate(285.427191 90.587635) scale(0.0833 -0.0833)">
       <use xlink:href="#DejaVuSans-18"/>
      </g>
     </g>
    </g>
   </g>
   <g id="matplotlib.axis_6">
    <g id="ytick_7">
     <g id="line2d_33">
      <path d="M 242.480242 74.853071 
L 328.880242 74.853071 
" clip-path="url(#pac7c7ddcda)" style="fill: none; stroke-dasharray: 2.96,1.28; stroke-dashoffset: 0; stroke: #dddfe5; stroke-width: 0.8"/>
     </g>
     <g id="line2d_34">
      <g>
       <use xlink:href="#m2b04f8cee3" x="242.480242" y="74.853071" style="fill: #4d4f53; stroke: #4d4f53; stroke-width: 0.8"/>
      </g>
     </g>
     <g id="text_19">
      <!-- −1 -->
      <g style="fill: #4d4f53" transform="translate(223.2 78.017495) scale(0.0833 -0.0833)">
       <use xlink:href="#DejaVuSans-c9c"/>
       <use xlink:href="#DejaVuSans-14" transform="translate(83.796875 0)"/>
      </g>
     </g>
    </g>
    <g id="ytick_8">
     <g id="line2d_35">
      <path d="M 242.480242 51.722425 
L 328.880242 51.722425 
" clip-path="url(#pac7c7ddcda)" style="fill: none; stroke-dasharray: 2.96,1.28; stroke-dashoffset: 0; stroke: #dddfe5; stroke-width: 0.8"/>
     </g>
     <g id="line2d_36">
      <g>
       <use xlink:href="#m2b04f8cee3" x="242.480242" y="51.722425" style="fill: #4d4f53; stroke: #4d4f53; stroke-width: 0.8"/>
      </g>
     </g>
     <g id="text_20">
      <!-- 0 -->
      <g style="fill: #4d4f53" transform="translate(230.18028 54.886849) scale(0.0833 -0.0833)">
       <use xlink:href="#DejaVuSans-13"/>
      </g>
     </g>
    </g>
    <g id="ytick_9">
     <g id="line2d_37">
      <path d="M 242.480242 28.591778 
L 328.880242 28.591778 
" clip-path="url(#pac7c7ddcda)" style="fill: none; stroke-dasharray: 2.96,1.28; stroke-dashoffset: 0; stroke: #dddfe5; stroke-width: 0.8"/>
     </g>
     <g id="line2d_38">
      <g>
       <use xlink:href="#m2b04f8cee3" x="242.480242" y="28.591778" style="fill: #4d4f53; stroke: #4d4f53; stroke-width: 0.8"/>
      </g>
     </g>
     <g id="text_21">
      <!-- 1 -->
      <g style="fill: #4d4f53" transform="translate(230.18028 31.756202) scale(0.0833 -0.0833)">
       <use xlink:href="#DejaVuSans-14"/>
      </g>
     </g>
    </g>
   </g>
   <g id="line2d_39">
    <path d="M 246.407515 34.393489 
L 247.037138 32.42285 
L 247.194544 32.747277 
L 247.351949 30.833214 
L 247.509355 31.140355 
L 247.666761 32.319944 
L 247.981572 30.655737 
L 248.138978 31.592147 
L 248.296384 29.385393 
L 248.453789 30.421344 
L 248.768601 29.203771 
L 248.926006 30.013061 
L 249.240818 29.135788 
L 249.398224 28.559485 
L 249.555629 29.721631 
L 249.713035 29.335421 
L 249.870441 28.305384 
L 250.027846 28.561399 
L 250.185252 29.173401 
L 250.342658 28.50804 
L 250.500064 28.888072 
L 250.814875 27.217798 
L 250.972281 28.623843 
L 251.129687 26.755209 
L 251.287092 27.91105 
L 251.444498 27.662822 
L 251.601904 27.589599 
L 251.759309 28.683741 
L 252.074121 26.347151 
L 252.388932 28.309204 
L 252.703744 26.989033 
L 252.861149 28.593349 
L 253.018555 27.761821 
L 253.175961 28.504197 
L 253.333367 26.84643 
L 253.490772 27.903688 
L 253.648178 27.136463 
L 253.805584 27.682112 
L 253.96299 26.63312 
L 254.435207 27.821685 
L 254.592612 26.917929 
L 254.907424 29.410738 
L 255.06483 29.359488 
L 255.222235 27.522893 
L 255.379641 27.580368 
L 255.694452 29.341255 
L 255.851858 28.618336 
L 256.009264 30.433284 
L 256.16667 28.876389 
L 256.324075 29.264456 
L 256.481481 30.567642 
L 256.796292 29.304169 
L 256.953698 31.249321 
L 257.111104 29.737906 
L 257.26851 31.320786 
L 257.425915 30.685136 
L 257.583321 31.931819 
L 257.740727 31.59313 
L 257.898133 32.637464 
L 258.055538 32.226907 
L 258.37035 32.934763 
L 258.527755 32.299634 
L 258.685161 33.276944 
L 258.842567 33.036638 
L 258.999973 33.175901 
L 259.157378 34.502117 
L 259.314784 33.52198 
L 259.944407 35.844363 
L 260.101813 35.173329 
L 260.57403 37.760486 
L 260.731435 36.47884 
L 261.203653 39.22426 
L 261.361058 39.152573 
L 261.833276 41.009233 
L 261.990681 40.109807 
L 262.148087 42.022513 
L 262.305493 41.944525 
L 262.620304 41.131989 
L 262.935116 43.169837 
L 263.092521 42.551085 
L 263.249927 42.646219 
L 263.564738 44.880235 
L 263.722144 44.589246 
L 264.036956 46.984407 
L 264.194361 46.679374 
L 264.351767 46.795902 
L 264.509173 48.237186 
L 264.666578 46.665025 
L 265.611013 51.104517 
L 265.768419 51.280834 
L 265.925824 50.690603 
L 266.08323 51.592056 
L 266.240636 50.975222 
L 266.712853 54.014232 
L 267.027664 54.311112 
L 267.18507 55.565473 
L 267.342476 54.701402 
L 267.499881 56.465321 
L 267.657287 55.352663 
L 267.814693 55.923986 
L 267.972099 57.852667 
L 268.129504 56.527803 
L 268.28691 57.927495 
L 268.444316 57.330531 
L 268.916533 59.957301 
L 269.073939 58.801485 
L 269.231344 60.532747 
L 269.38875 59.834121 
L 269.546156 60.646942 
L 269.703562 60.258206 
L 270.175779 63.300367 
L 270.333184 61.650651 
L 270.647996 64.255032 
L 270.805402 63.395271 
L 271.120213 64.390836 
L 271.277619 63.914542 
L 271.435024 64.272738 
L 271.59243 66.079441 
L 271.749836 65.353389 
L 272.222053 67.840194 
L 272.379459 67.808624 
L 272.536865 67.104517 
L 272.69427 68.219508 
L 272.851676 68.147261 
L 273.009082 68.654357 
L 273.166487 68.575973 
L 273.323893 68.487594 
L 273.481299 68.071161 
L 273.638705 70.448501 
L 273.79611 69.489234 
L 273.953516 69.538151 
L 274.110922 70.891276 
L 274.268327 69.807868 
L 274.425733 70.836025 
L 274.583139 70.744558 
L 274.740545 70.799344 
L 274.89795 70.383421 
L 275.212762 71.264635 
L 275.527573 72.965223 
L 275.842385 71.581151 
L 275.99979 71.91503 
L 276.157196 73.227634 
L 276.314602 73.187161 
L 276.472008 73.443252 
L 276.786819 72.652459 
L 277.10163 73.714458 
L 277.416442 72.55483 
L 277.573848 73.328731 
L 277.731253 72.981059 
L 277.888659 73.706853 
L 278.20347 72.883087 
L 278.360876 74.779724 
L 278.518282 73.142349 
L 278.675688 73.190576 
L 278.990499 73.02999 
L 279.147905 72.66738 
L 279.462716 74.350617 
L 279.777528 72.409715 
L 280.092339 72.583022 
L 280.407151 74.416721 
L 280.721962 72.556563 
L 280.879368 72.511928 
L 281.036773 73.676236 
L 281.194179 73.646557 
L 281.351585 73.423006 
L 281.508991 71.755366 
L 281.823802 72.952434 
L 281.981208 71.748247 
L 282.138613 72.955073 
L 282.296019 72.652385 
L 282.453425 72.430967 
L 282.768236 70.877675 
L 282.925642 70.77523 
L 283.240454 69.952064 
L 283.555265 71.015335 
L 283.712671 69.821378 
L 283.870076 70.009064 
L 284.027482 69.86261 
L 284.499699 67.587684 
L 284.657105 68.357998 
L 284.971916 66.961168 
L 285.129322 67.634679 
L 285.444134 65.644882 
L 285.601539 67.120889 
L 285.916351 65.295011 
L 286.073756 66.321788 
L 286.388568 64.2472 
L 287.647814 61.115983 
L 287.805219 62.149877 
L 287.962625 60.743691 
L 288.120031 61.47018 
L 288.277437 59.590193 
L 288.434842 61.019131 
L 288.749654 60.242474 
L 289.064465 58.240102 
L 289.221871 58.993105 
L 289.379277 58.580077 
L 289.694088 56.070973 
L 289.851494 56.844892 
L 290.166305 54.576361 
L 290.323711 54.180029 
L 290.481117 54.387245 
L 290.953334 52.665436 
L 291.11074 52.998179 
L 291.582957 50.747008 
L 291.740362 51.387609 
L 291.897768 50.547372 
L 292.055174 50.87829 
L 292.684797 48.08551 
L 292.842202 49.029792 
L 292.999608 48.456242 
L 293.157014 46.524093 
L 293.31442 46.820942 
L 293.471825 45.172323 
L 293.629231 46.703438 
L 294.258854 43.028957 
L 294.41626 44.420737 
L 294.731071 42.551093 
L 294.888477 42.991966 
L 295.045883 43.116584 
L 295.203288 41.475049 
L 295.360694 41.984583 
L 295.5181 40.194557 
L 295.675505 40.745726 
L 295.832911 40.479139 
L 296.147723 39.018009 
L 296.305128 39.362878 
L 296.462534 37.978129 
L 296.61994 38.404368 
L 296.777345 37.200822 
L 296.934751 38.505767 
L 297.092157 36.145998 
L 297.249563 36.40275 
L 297.406968 36.503089 
L 297.564374 37.156345 
L 298.036591 34.064075 
L 298.351403 34.275137 
L 298.508808 34.305549 
L 298.666214 33.026465 
L 298.82362 33.317339 
L 298.981026 32.647563 
L 299.295837 33.540056 
L 299.453243 31.242198 
L 299.610648 33.189664 
L 299.92546 31.791134 
L 300.082866 31.951708 
L 300.240271 31.651365 
L 300.555083 30.396097 
L 300.712488 30.18486 
L 300.869894 29.615571 
L 301.0273 30.67472 
L 301.184706 28.908927 
L 301.342111 29.25887 
L 301.499517 30.499717 
L 301.656923 29.049271 
L 301.814329 29.390131 
L 301.971734 29.307435 
L 302.12914 29.492584 
L 302.443951 27.412133 
L 302.601357 28.901936 
L 302.758763 27.908298 
L 303.23098 28.867371 
L 303.388386 28.442138 
L 303.545791 26.935756 
L 303.703197 28.603985 
L 304.018009 27.099181 
L 304.33282 28.040677 
L 304.490226 26.44509 
L 304.647632 26.507749 
L 304.805037 27.186633 
L 305.119849 26.312031 
L 305.277254 26.573646 
L 305.43466 27.463028 
L 305.592066 26.77237 
L 305.749472 26.843832 
L 305.906877 28.317288 
L 306.064283 27.374523 
L 306.221689 28.612745 
L 306.379094 28.377664 
L 306.5365 28.651552 
L 306.851312 28.110243 
L 307.008717 28.573691 
L 307.323529 27.4671 
L 307.63834 29.606456 
L 307.795746 27.779126 
L 307.953152 29.24034 
L 308.267963 28.189001 
L 308.425369 28.643779 
L 308.582775 30.5493 
L 308.74018 29.948381 
L 308.897586 30.479469 
L 309.054992 29.784074 
L 309.212397 30.156853 
L 309.369803 29.555878 
L 309.527209 31.00792 
L 309.684615 30.210727 
L 310.156832 32.22053 
L 310.314237 31.503069 
L 310.471643 32.076098 
L 310.629049 31.420685 
L 310.94386 33.680498 
L 311.101266 32.910518 
L 311.258672 33.280233 
L 311.416077 32.983517 
L 311.573483 33.285598 
L 311.730889 35.145408 
L 311.888295 34.806249 
L 312.517918 37.179339 
L 312.675323 35.465108 
L 313.462352 37.949573 
L 313.619758 39.382757 
L 313.777163 38.130945 
L 313.934569 40.565455 
L 314.091975 39.577965 
L 314.24938 41.337663 
L 314.406786 39.5711 
L 315.193815 43.483769 
L 315.351221 42.331745 
L 315.666032 44.776248 
L 315.823438 44.705368 
L 315.980843 43.637904 
L 316.453061 46.622525 
L 316.610466 45.822512 
L 316.767872 47.722736 
L 316.925278 47.478731 
L 317.082683 46.918129 
L 317.240089 49.328009 
L 317.554901 47.966354 
L 317.712306 50.127974 
L 317.869712 49.390431 
L 318.184523 49.962121 
L 318.656741 53.098565 
L 318.814146 52.42899 
L 319.286364 53.761266 
L 319.601175 55.485326 
L 319.915986 54.437039 
L 320.545609 57.760835 
L 320.703015 56.704101 
L 321.175232 59.853947 
L 321.332638 59.321833 
L 321.490044 60.689056 
L 321.647449 59.708273 
L 321.804855 61.369621 
L 321.962261 60.99329 
L 322.119666 61.896815 
L 322.277072 60.542349 
L 322.434478 62.604919 
L 322.591884 62.258514 
L 322.749289 63.951323 
L 322.906695 62.939353 
L 323.378912 64.498189 
L 323.536318 63.722882 
L 323.693724 65.699847 
L 323.851129 64.858801 
L 324.008535 64.998481 
L 324.480752 66.146396 
L 324.795564 68.187367 
L 324.952969 66.578563 
L 324.952969 66.578563 
" clip-path="url(#pac7c7ddcda)" style="fill: none; stroke: #3362b0; stroke-width: 1.5; stroke-linecap: square"/>
   </g>
   <g id="line2d_40">
    <path d="M 246.407515 28.178512 
L 246.564921 26.838226 
L 246.722326 26.962912 
L 246.879732 28.368138 
L 247.037138 26.979908 
L 247.194544 28.327696 
L 247.351949 28.292414 
L 247.666761 28.216651 
L 247.824166 28.948778 
L 247.981572 28.534453 
L 248.138978 29.158441 
L 248.296384 29.000367 
L 248.453789 28.000802 
L 248.768601 30.044413 
L 248.926006 28.868909 
L 249.083412 30.061599 
L 249.398224 28.802374 
L 249.713035 31.11992 
L 249.870441 30.729348 
L 250.027846 31.00632 
L 250.342658 32.248991 
L 250.500064 31.079478 
L 250.657469 31.651162 
L 250.814875 31.023604 
L 251.129687 32.11975 
L 251.601904 34.477422 
L 251.759309 34.272885 
L 251.916715 33.75389 
L 252.074121 35.307779 
L 252.388932 34.390041 
L 252.546338 36.365767 
L 252.703744 34.729422 
L 253.648178 38.259946 
L 253.805584 37.659156 
L 253.96299 39.525848 
L 254.120395 37.800751 
L 254.435207 40.659478 
L 254.592612 40.77206 
L 254.750018 39.471165 
L 255.06483 41.66252 
L 255.222235 41.667729 
L 255.379641 42.944282 
L 255.537047 41.673795 
L 255.694452 43.194133 
L 255.851858 42.483663 
L 256.16667 44.992832 
L 256.324075 43.673586 
L 256.796292 46.291734 
L 256.953698 45.08776 
L 257.111104 46.592586 
L 257.26851 46.014638 
L 257.740727 48.240807 
L 257.898133 47.606366 
L 258.055538 50.170005 
L 258.212944 48.73099 
L 258.37035 51.071408 
L 258.527755 50.700668 
L 258.685161 50.732838 
L 259.629595 53.969132 
L 259.787001 53.037613 
L 259.944407 53.727213 
L 260.259218 56.176925 
L 260.416624 55.61728 
L 260.731435 56.952562 
L 261.046247 57.703788 
L 261.361058 57.081877 
L 261.833276 59.755711 
L 261.990681 60.125888 
L 262.148087 59.278564 
L 262.462898 62.002409 
L 262.620304 61.378894 
L 262.935116 63.112334 
L 263.092521 61.451675 
L 263.249927 62.990671 
L 263.407333 62.242106 
L 264.036956 65.659333 
L 264.194361 64.533247 
L 264.351767 65.82553 
L 264.509173 65.064403 
L 264.666578 66.47343 
L 264.823984 66.363663 
L 264.98139 66.363559 
L 265.138796 67.737017 
L 265.296201 66.986516 
L 265.453607 68.478194 
L 265.611013 68.209404 
L 265.768419 68.38816 
L 265.925824 69.046909 
L 266.08323 67.59678 
L 266.240636 69.996541 
L 266.398041 68.343114 
L 266.555447 69.185993 
L 266.712853 68.679985 
L 266.870259 69.795735 
L 267.027664 69.732268 
L 267.18507 69.62303 
L 267.342476 69.967003 
L 267.499881 71.581992 
L 267.657287 71.039741 
L 267.814693 71.664223 
L 267.972099 70.456485 
L 268.28691 71.788141 
L 268.444316 71.623138 
L 268.601722 73.023671 
L 268.759127 71.505002 
L 269.073939 73.555566 
L 269.38875 72.553494 
L 269.703562 74.051299 
L 269.860967 72.082218 
L 270.175779 74.138203 
L 270.333184 73.066683 
L 270.49059 74.360207 
L 270.647996 74.303458 
L 270.805402 74.459753 
L 271.120213 72.554585 
L 271.435024 74.549007 
L 271.59243 74.466351 
L 271.907242 73.25161 
L 272.064647 73.396365 
L 272.222053 74.738568 
L 272.379459 73.405566 
L 272.536865 74.621203 
L 272.69427 73.200458 
L 272.851676 73.823239 
L 273.009082 72.325323 
L 273.166487 72.447064 
L 273.323893 72.644937 
L 273.481299 72.382744 
L 273.953516 73.731912 
L 274.110922 72.705285 
L 274.268327 73.306545 
L 274.425733 71.773762 
L 274.583139 73.098583 
L 274.740545 73.003482 
L 275.055356 70.783605 
L 275.370167 72.249379 
L 275.527573 71.133938 
L 275.684979 71.851057 
L 275.842385 71.288811 
L 275.99979 69.623488 
L 276.157196 71.402632 
L 276.314602 71.219899 
L 276.472008 70.842162 
L 276.629413 69.785614 
L 276.786819 70.125941 
L 276.944225 68.252349 
L 277.10163 69.269272 
L 277.573848 67.914853 
L 277.731253 66.952784 
L 277.888659 68.33335 
L 278.20347 66.308308 
L 278.360876 66.055526 
L 278.518282 67.071062 
L 278.833093 65.424877 
L 278.990499 66.340721 
L 279.305311 64.039914 
L 279.462716 65.326268 
L 279.777528 63.313342 
L 279.934933 63.860441 
L 280.092339 63.810871 
L 280.407151 61.41665 
L 280.564556 61.519517 
L 280.721962 61.908253 
L 281.036773 61.354239 
L 281.194179 60.13001 
L 281.351585 60.6243 
L 281.823802 59.466493 
L 281.981208 57.730502 
L 282.138613 57.900178 
L 282.610831 55.936222 
L 282.768236 56.014081 
L 283.083048 54.093748 
L 283.240454 55.353227 
L 283.397859 54.9312 
L 283.870076 52.380981 
L 284.027482 51.82482 
L 284.342294 52.736256 
L 284.657105 49.915024 
L 285.601539 47.13463 
L 285.758945 47.887335 
L 285.916351 46.544968 
L 286.073756 47.470568 
L 286.388568 45.058573 
L 286.545974 45.952203 
L 286.703379 45.627991 
L 287.018191 43.715177 
L 287.175597 43.997044 
L 287.490408 42.685844 
L 287.647814 43.813022 
L 288.120031 40.66453 
L 288.277437 41.70449 
L 288.592248 39.121423 
L 288.907059 40.219802 
L 289.221871 37.601908 
L 289.536682 38.745223 
L 289.851494 36.547693 
L 290.0089 38.067939 
L 290.323711 35.566703 
L 290.481117 35.975363 
L 290.795928 34.387221 
L 290.953334 34.605799 
L 291.268145 33.950879 
L 291.425551 35.021257 
L 291.740362 32.887721 
L 291.897768 33.993943 
L 292.055174 32.098915 
L 292.369985 33.361991 
L 292.684797 31.65314 
L 292.842202 31.514299 
L 293.157014 31.841288 
L 293.31442 30.901515 
L 293.629231 31.463451 
L 293.786637 29.155093 
L 293.944043 30.111451 
L 294.101448 28.780314 
L 294.41626 29.68044 
L 294.731071 28.151812 
L 294.888477 29.613757 
L 295.045883 29.306837 
L 295.203288 28.641519 
L 295.360694 29.09097 
L 295.5181 28.333565 
L 295.675505 28.413679 
L 295.832911 28.482402 
L 295.990317 28.264237 
L 296.147723 26.764234 
L 296.462534 28.80288 
L 296.61994 26.529375 
L 296.777345 26.899443 
L 296.934751 27.978736 
L 297.092157 27.705745 
L 297.249563 26.941566 
L 297.406968 27.82542 
L 297.564374 27.623924 
L 297.72178 27.78406 
L 298.036591 27.370568 
L 298.193997 26.42051 
L 298.351403 27.980163 
L 298.508808 26.932742 
L 298.82362 28.449231 
L 299.138431 26.946148 
L 299.295837 28.209279 
L 299.453243 27.019184 
L 299.610648 28.648324 
L 299.768054 28.43737 
L 300.082866 27.704791 
L 300.240271 27.990515 
L 300.397677 29.085361 
L 300.555083 28.127511 
L 300.869894 29.581005 
L 301.0273 30.035402 
L 301.184706 29.61341 
L 301.342111 28.592099 
L 301.499517 28.951811 
L 301.814329 30.56068 
L 302.12914 29.320021 
L 302.601357 32.197141 
L 302.758763 31.417846 
L 303.073574 32.673598 
L 303.23098 31.340705 
L 303.388386 31.500302 
L 303.545791 32.216128 
L 303.703197 34.058493 
L 303.860603 33.624703 
L 304.018009 32.546202 
L 304.175414 32.680503 
L 304.647632 34.598401 
L 304.962443 35.613839 
L 305.119849 35.400323 
L 305.277254 37.09206 
L 305.592066 36.101221 
L 305.749472 37.903113 
L 305.906877 37.820285 
L 306.221689 39.185036 
L 306.379094 39.173296 
L 306.5365 40.02491 
L 306.693906 38.57555 
L 307.008717 39.706751 
L 307.166123 39.392992 
L 307.323529 40.934511 
L 307.480934 40.902807 
L 307.63834 41.05271 
L 307.795746 42.93144 
L 307.953152 42.048562 
L 308.110557 42.349784 
L 308.267963 43.212875 
L 308.425369 42.780894 
L 308.582775 44.187951 
L 308.74018 43.75067 
L 309.527209 45.894044 
L 309.84202 47.689889 
L 309.999426 47.41038 
L 310.471643 49.962877 
L 310.629049 49.931556 
L 311.416077 53.037179 
L 311.573483 51.512237 
L 311.730889 53.366818 
L 311.888295 53.345531 
L 312.203106 54.988104 
L 312.360512 53.439082 
L 312.832729 56.283052 
L 313.462352 58.311847 
L 313.619758 56.817403 
L 313.934569 59.0188 
L 314.091975 58.424881 
L 314.24938 58.644849 
L 314.406786 61.090376 
L 314.564192 60.336521 
L 314.721598 61.771244 
L 315.036409 60.792053 
L 315.508626 62.199166 
L 315.666032 62.315564 
L 316.295655 64.831154 
L 316.453061 65.691805 
L 316.767872 64.953204 
L 316.925278 65.013777 
L 317.240089 67.563406 
L 317.397495 66.9347 
L 317.869712 68.619219 
L 318.027118 67.450898 
L 318.184523 69.141918 
L 318.499335 67.718236 
L 318.656741 68.236698 
L 318.971552 70.582911 
L 319.128958 69.646546 
L 319.601175 70.781885 
L 319.758581 69.781945 
L 319.915986 71.66166 
L 320.073392 70.291128 
L 320.230798 70.326249 
L 320.388204 70.597189 
L 320.703015 72.223179 
L 320.860421 71.065454 
L 321.017826 71.239842 
L 321.332638 73.292181 
L 321.490044 72.224892 
L 321.647449 72.916209 
L 321.804855 72.808174 
L 321.962261 72.636093 
L 322.119666 72.061054 
L 322.434478 73.451581 
L 322.591884 73.929582 
L 322.906695 73.338279 
L 323.064101 73.512346 
L 323.221507 74.440793 
L 323.378912 72.749651 
L 323.693724 74.831599 
L 323.851129 73.92439 
L 324.165941 74.753745 
L 324.638158 72.934417 
L 324.795564 73.312145 
L 324.952969 74.253612 
L 324.952969 74.253612 
" clip-path="url(#pac7c7ddcda)" style="fill: none; stroke: #cc3164; stroke-width: 1.5; stroke-linecap: square"/>
   </g>
   <g id="patch_15">
    <path d="M 242.480242 77.258787 
L 242.480242 23.860651 
" style="fill: none; stroke: #4d4f53; stroke-width: 0.8; stroke-linejoin: miter; stroke-linecap: square"/>
   </g>
   <g id="patch_16">
    <path d="M 328.880242 77.258787 
L 328.880242 23.860651 
" style="fill: none; stroke: #4d4f53; stroke-width: 0.8; stroke-linejoin: miter; stroke-linecap: square"/>
   </g>
   <g id="patch_17">
    <path d="M 242.480242 77.258787 
L 328.880242 77.258787 
" style="fill: none; stroke: #4d4f53; stroke-width: 0.8; stroke-linejoin: miter; stroke-linecap: square"/>
   </g>
   <g id="patch_18">
    <path d="M 242.480242 23.860651 
L 328.880242 23.860651 
" style="fill: none; stroke: #4d4f53; stroke-width: 0.8; stroke-linejoin: miter; stroke-linecap: square"/>
   </g>
   <g id="legend_3">
    <g id="patch_19">
     <path d="M 331.472242 70.552695 
L 364.542342 70.552695 
L 364.542342 30.566743 
L 331.472242 30.566743 
L 331.472242 70.552695 
z
" style="fill: none; opacity: 0"/>
    </g>
    <g id="text_22">
     <!-- title -->
     <g style="fill: #4d4f53" transform="translate(339.864717 41.061241) scale(0.0833 -0.0833)">
      <use xlink:href="#DejaVuSans-57"/>
      <use xlink:href="#DejaVuSans-4c" transform="translate(39.203125 0)"/>
      <use xlink:href="#DejaVuSans-57" transform="translate(66.984375 0)"/>
      <use xlink:href="#DejaVuSans-4f" transform="translate(106.1875 0)"/>
      <use xlink:href="#DejaVuSans-48" transform="translate(133.96875 0)"/>
     </g>
    </g>
    <g id="line2d_41">
     <path d="M 335.637242 49.808392 
L 341.468242 49.808392 
L 347.299242 49.808392 
" style="fill: none; stroke: #3362b0; stroke-width: 1.5; stroke-linecap: square"/>
    </g>
    <g id="text_23">
     <!-- $x_1$ -->
     <g style="fill: #4d4f53" transform="translate(351.464242 52.723892) scale(0.0833 -0.0833)">
      <use xlink:href="#DejaVuSans-Oblique-5b" transform="translate(0 0.3125)"/>
      <use xlink:href="#DejaVuSans-14" transform="translate(59.179688 -14.687451) scale(0.7)"/>
     </g>
    </g>
    <g id="line2d_42">
     <path d="M 335.637242 61.471043 
L 341.468242 61.471043 
L 347.299242 61.471043 
" style="fill: none; stroke: #cc3164; stroke-width: 1.5; stroke-linecap: square"/>
    </g>
    <g id="text_24">
     <!-- $x_2$ -->
     <g style="fill: #4d4f53" transform="translate(351.464242 64.386543) scale(0.0833 -0.0833)">
      <use xlink:href="#DejaVuSans-Oblique-5b" transform="translate(0 0.3125)"/>
      <use xlink:href="#DejaVuSans-15" transform="translate(59.179688 -14.687451) scale(0.7)"/>
     </g>
    </g>
   </g>
  </g>
 </g>
 <defs>
  <clipPath id="p681e7bd6e5">
   <rect x="26.480242" y="23.860651" width="86.4" height="53.398137"/>
  </clipPath>
  <clipPath id="p9be909f6ce">
   <rect x="134.480242" y="23.860651" width="86.4" height="53.398137"/>
  </clipPath>
  <clipPath id="pac7c7ddcda">
   <rect x="242.480242" y="23.860651" width="86.4" height="53.398137"/>
  </clipPath>
 </defs>
</svg>
