<?xml version="1.0" encoding="utf-8" standalone="no"?>
<!DOCTYPE svg PUBLIC "-//W3C//DTD SVG 1.1//EN"
  "http://www.w3.org/Graphics/SVG/1.1/DTD/svg11.dtd">
<svg xmlns:xlink="http://www.w3.org/1999/xlink" width="373.408342pt" height="101.454787pt" viewBox="0 0 373.408342 101.454787" xmlns="http://www.w3.org/2000/svg" version="1.1">
 <metadata>
  <rdf:RDF xmlns:dc="http://purl.org/dc/elements/1.1/" xmlns:cc="http://creativecommons.org/ns#" xmlns:rdf="http://www.w3.org/1999/02/22-rdf-syntax-ns#">
   <cc:Work>
    <dc:type rdf:resource="http://purl.org/dc/dcmitype/StillImage"/>
    <dc:date>2026-06-19T12:25:03.024925</dc:date>
    <dc:format>image/svg+xml</dc:format>
    <dc:creator>
     <cc:Agent>
      <dc:title>Matplotlib v3.11.0, https://matplotlib.org/</dc:title>
     </cc:Agent>
    </dc:creator>
   </cc:Work>
  </rdf:RDF>
 </metadata>
 <defs>
  <style type="text/css">*{stroke-linejoin: round; stroke-linecap: butt}</style>
 </defs>
 <g id="figure_1">
  <g id="patch_1">
   <path d="M 0 101.454787 
L 373.408342 101.454787 
L 373.408342 0 
L 0 0 
L 0 101.454787 
z
" style="fill: none"/>
  </g>
  <g id="axes_1">
   <g id="patch_2">
    <path d="M 26.480242 78.924787 
L 112.880242 78.924787 
L 112.880242 25.526651 
L 26.480242 25.526651 
L 26.480242 78.924787 
z
" style="fill: none"/>
   </g>
   <g id="matplotlib.axis_1">
    <g id="xtick_1">
     <g id="line2d_1">
      <defs>
       <path id="m8ad915411c" d="M 0 0 
L 0 3.5 
" style="stroke: #4d4f53; stroke-width: 0.8"/>
      </defs>
      <g>
       <use xlink:href="#m8ad915411c" x="33.680242" y="78.924787" style="fill: #4d4f53; stroke: #4d4f53; stroke-width: 0.8"/>
      </g>
     </g>
     <g id="text_1">
      <!-- 0 -->
      <g style="fill: #4d4f53" transform="translate(31.030261 92.253635) scale(0.0833 -0.0833)">
       <defs>
        <path id="DejaVuSans-13" d="M 2034 4250 
Q 1547 4250 1301 3770 
Q 1056 3291 1056 2328 
Q 1056 1369 1301 889 
Q 1547 409 2034 409 
Q 2525 409 2770 889 
Q 3016 1369 3016 2328 
Q 3016 3291 2770 3770 
Q 2525 4250 2034 4250 
z
M 2034 4750 
Q 2819 4750 3233 4129 
Q 3647 3509 3647 2328 
Q 3647 1150 3233 529 
Q 2819 -91 2034 -91 
Q 1250 -91 836 529 
Q 422 1150 422 2328 
Q 422 3509 836 4129 
Q 1250 4750 2034 4750 
z
" transform="scale(0.015625)"/>
       </defs>
       <use xlink:href="#DejaVuSans-13"/>
      </g>
     </g>
    </g>
    <g id="xtick_2">
     <g id="line2d_2">
      <g>
       <use xlink:href="#m8ad915411c" x="71.877429" y="78.924787" style="fill: #4d4f53; stroke: #4d4f53; stroke-width: 0.8"/>
      </g>
     </g>
     <g id="text_2">
      <!-- 5 -->
      <g style="fill: #4d4f53" transform="translate(69.227447 92.253635) scale(0.0833 -0.0833)">
       <defs>
        <path id="DejaVuSans-18" d="M 691 4666 
L 3169 4666 
L 3169 4134 
L 1269 4134 
L 1269 2991 
Q 1406 3038 1543 3061 
Q 1681 3084 1819 3084 
Q 2600 3084 3056 2656 
Q 3513 2228 3513 1497 
Q 3513 744 3044 326 
Q 2575 -91 1722 -91 
Q 1428 -91 1123 -41 
Q 819 9 494 109 
L 494 744 
Q 775 591 1075 516 
Q 1375 441 1709 441 
Q 2250 441 2565 725 
Q 2881 1009 2881 1497 
Q 2881 1984 2565 2268 
Q 2250 2553 1709 2553 
Q 1456 2553 1204 2497 
Q 953 2441 691 2322 
L 691 4666 
z
" transform="scale(0.015625)"/>
       </defs>
       <use xlink:href="#DejaVuSans-18"/>
      </g>
     </g>
    </g>
    <g id="xtick_3">
     <g id="line2d_3">
      <g>
       <use xlink:href="#m8ad915411c" x="110.074615" y="78.924787" style="fill: #4d4f53; stroke: #4d4f53; stroke-width: 0.8"/>
      </g>
     </g>
     <g id="text_3">
      <!-- 10 -->
      <g style="fill: #4d4f53" transform="translate(104.774652 92.253635) scale(0.0833 -0.0833)">
       <defs>
        <path id="DejaVuSans-14" d="M 794 531 
L 1825 531 
L 1825 4091 
L 703 3866 
L 703 4441 
L 1819 4666 
L 2450 4666 
L 2450 531 
L 3481 531 
L 3481 0 
L 794 0 
L 794 531 
z
" transform="scale(0.015625)"/>
       </defs>
       <use xlink:href="#DejaVuSans-14"/>
       <use xlink:href="#DejaVuSans-13" transform="translate(63.625 0)"/>
      </g>
     </g>
    </g>
   </g>
   <g id="matplotlib.axis_2">
    <g id="ytick_1">
     <g id="line2d_4">
      <defs>
       <path id="m2af67787d0" d="M 0 0 
L -3.5 0 
" style="stroke: #4d4f53; stroke-width: 0.8"/>
      </defs>
      <g>
       <use xlink:href="#m2af67787d0" x="26.480242" y="74.494625" style="fill: #4d4f53; stroke: #4d4f53; stroke-width: 0.8"/>
      </g>
     </g>
     <g id="text_4">
      <!-- −1 -->
      <g style="fill: #4d4f53" transform="translate(7.2 77.659049) scale(0.0833 -0.0833)">
       <defs>
        <path id="DejaVuSans-c9c" d="M 678 2272 
L 4684 2272 
L 4684 1741 
L 678 1741 
L 678 2272 
z
" transform="scale(0.015625)"/>
       </defs>
       <use xlink:href="#DejaVuSans-c9c"/>
       <use xlink:href="#DejaVuSans-14" transform="translate(83.796875 0)"/>
      </g>
     </g>
    </g>
    <g id="ytick_2">
     <g id="line2d_5">
      <g>
       <use xlink:href="#m2af67787d0" x="26.480242" y="53.291533" style="fill: #4d4f53; stroke: #4d4f53; stroke-width: 0.8"/>
      </g>
     </g>
     <g id="text_5">
      <!-- 0 -->
      <g style="fill: #4d4f53" transform="translate(14.18028 56.455956) scale(0.0833 -0.0833)">
       <use xlink:href="#DejaVuSans-13"/>
      </g>
     </g>
    </g>
    <g id="ytick_3">
     <g id="line2d_6">
      <g>
       <use xlink:href="#m2af67787d0" x="26.480242" y="32.08844" style="fill: #4d4f53; stroke: #4d4f53; stroke-width: 0.8"/>
      </g>
     </g>
     <g id="text_6">
      <!-- 1 -->
      <g style="fill: #4d4f53" transform="translate(14.18028 35.252864) scale(0.0833 -0.0833)">
       <use xlink:href="#DejaVuSans-14"/>
      </g>
     </g>
    </g>
   </g>
   <g id="line2d_7">
    <path d="M 33.680242 37.406675 
L 34.257396 35.600256 
L 34.401685 35.897647 
L 34.545974 34.143089 
L 34.690262 34.424636 
L 34.834551 35.505925 
L 35.123128 33.980403 
L 35.267417 34.838778 
L 35.411705 32.81592 
L 35.555994 33.765542 
L 35.844571 32.649433 
L 35.988859 33.391282 
L 36.133148 33.105884 
L 36.421725 32.058838 
L 36.566014 33.124139 
L 36.710302 32.770112 
L 36.854591 31.825912 
L 36.998879 32.060593 
L 37.143168 32.621594 
L 37.287457 32.01168 
L 37.431745 32.360042 
L 37.720322 30.828958 
L 37.864611 32.117833 
L 38.0089 30.404918 
L 38.153188 31.464439 
L 38.297477 31.236897 
L 38.441765 31.169776 
L 38.586054 32.172739 
L 38.874631 30.030865 
L 39.163208 31.829414 
L 39.451785 30.619257 
L 39.596074 32.089879 
L 39.740362 31.327645 
L 39.884651 32.008157 
L 40.02894 30.488537 
L 40.173228 31.457691 
L 40.317517 30.754401 
L 40.461805 31.254579 
L 40.606094 30.293004 
L 40.750382 30.650409 
L 41.03896 31.382521 
L 41.183248 30.554078 
L 41.471825 32.839153 
L 41.616114 32.792174 
L 41.760403 31.108628 
L 41.904691 31.161314 
L 42.193268 32.775461 
L 42.337557 32.112785 
L 42.481845 33.776487 
L 42.626134 32.349334 
L 42.770423 32.705061 
L 42.914711 33.899649 
L 43.203288 32.741465 
L 43.347577 34.52452 
L 43.491865 33.139057 
L 43.636154 34.59003 
L 43.780443 34.007351 
L 43.924731 35.150144 
L 44.06902 34.839679 
L 44.213308 35.796985 
L 44.357597 35.420641 
L 44.646174 36.069509 
L 44.790463 35.487307 
L 44.934751 36.383175 
L 45.07904 36.162894 
L 45.223328 36.290552 
L 45.367617 37.50625 
L 45.511906 36.607792 
L 46.08906 38.736643 
L 46.233348 38.121529 
L 46.666214 40.493089 
L 46.810503 39.318247 
L 47.243368 41.834882 
L 47.387657 41.769169 
L 47.820523 43.471107 
L 47.964811 42.646633 
L 48.1091 44.399947 
L 48.253388 44.328458 
L 48.541966 43.583633 
L 48.830543 45.451661 
L 48.974831 44.884471 
L 49.11912 44.971677 
L 49.407697 47.019525 
L 49.551986 46.752786 
L 49.840563 48.94835 
L 49.984851 48.668736 
L 50.12914 48.775553 
L 50.273429 50.096731 
L 50.417717 48.655583 
L 51.283449 52.725117 
L 51.427737 52.886741 
L 51.572026 52.345696 
L 51.716314 53.172028 
L 51.860603 52.606597 
L 52.293469 55.392356 
L 52.582046 55.664496 
L 52.726334 56.814327 
L 52.870623 56.022261 
L 53.014912 57.639188 
L 53.1592 56.619251 
L 53.303489 57.142964 
L 53.447777 58.910921 
L 53.592066 57.696462 
L 53.736354 58.979514 
L 53.880643 58.432297 
L 54.313509 60.840169 
L 54.457797 59.780671 
L 54.602086 61.367662 
L 54.746374 60.727254 
L 54.890663 61.47234 
L 55.034952 61.115999 
L 55.467817 63.904646 
L 55.612106 62.392406 
L 55.900683 64.779756 
L 56.044972 63.991642 
L 56.333549 64.904243 
L 56.477837 64.46764 
L 56.622126 64.795986 
L 56.766415 66.452131 
L 56.910703 65.786583 
L 57.343569 68.066154 
L 57.487857 68.037215 
L 57.632146 67.391784 
L 57.776435 68.413859 
L 57.920723 68.347632 
L 58.065012 68.81247 
L 58.2093 68.740619 
L 58.353589 68.659605 
L 58.497877 68.277874 
L 58.642166 70.457103 
L 58.786455 69.577774 
L 58.930743 69.622615 
L 59.075032 70.86298 
L 59.21932 69.869856 
L 59.363609 70.812333 
L 59.507897 70.728488 
L 59.652186 70.778708 
L 59.796475 70.397445 
L 60.085052 71.205226 
L 60.373629 72.764098 
L 60.662206 71.495365 
L 60.806495 71.801421 
L 60.950783 73.004641 
L 61.095072 72.967541 
L 61.23936 73.202291 
L 61.527938 72.477397 
L 61.816515 73.450896 
L 62.105092 72.387904 
L 62.24938 73.097313 
L 62.393669 72.778614 
L 62.537958 73.443925 
L 62.826535 72.688806 
L 62.970823 74.42739 
L 63.115112 72.926463 
L 63.259401 72.970671 
L 63.547978 72.823468 
L 63.692266 72.491075 
L 63.980843 74.034042 
L 64.269421 72.254882 
L 64.557998 72.413747 
L 64.846575 74.094637 
L 65.135152 72.389493 
L 65.279441 72.348577 
L 65.423729 73.415859 
L 65.568018 73.388653 
L 65.712306 73.183732 
L 65.856595 71.655062 
L 66.145172 72.752375 
L 66.289461 71.648536 
L 66.433749 72.754793 
L 66.578038 72.47733 
L 66.722326 72.274363 
L 67.010904 70.850512 
L 67.155192 70.756604 
L 67.443769 70.002036 
L 67.732346 70.9767 
L 67.876635 69.882239 
L 68.020924 70.054285 
L 68.165212 69.920036 
L 68.598078 67.834687 
L 68.742366 68.540808 
L 69.463809 66.053785 
L 69.608098 67.406792 
L 69.896675 65.73307 
L 70.040964 66.674282 
L 70.329541 64.772577 
L 71.483849 61.902294 
L 71.628138 62.85003 
L 71.772427 61.561027 
L 71.916715 62.226975 
L 72.061004 60.503654 
L 72.205292 61.813513 
L 72.349581 61.440742 
L 72.493869 61.101578 
L 72.782447 59.26607 
L 72.926735 59.956323 
L 73.071024 59.577714 
L 73.359601 57.277701 
L 73.503889 57.987127 
L 73.792467 55.907641 
L 73.936755 55.544336 
L 74.081044 55.734285 
L 74.51391 54.155959 
L 74.658198 54.460974 
L 75.091064 52.397401 
L 75.235352 52.984618 
L 75.379641 52.214401 
L 75.52393 52.517743 
L 76.101084 49.957694 
L 76.245372 50.823286 
L 76.389661 50.297532 
L 76.822527 47.287272 
L 76.966815 48.690794 
L 77.54397 45.32252 
L 77.688258 46.598318 
L 77.976835 44.884479 
L 78.121124 45.288612 
L 78.265413 45.402845 
L 78.698278 42.724321 
L 78.842567 43.229559 
L 78.986855 42.985187 
L 79.275433 41.645818 
L 79.419721 41.961948 
L 79.56401 40.692595 
L 79.708298 41.083314 
L 79.852587 39.980063 
L 79.996875 41.176263 
L 80.141164 39.013142 
L 80.285453 39.248497 
L 80.429741 39.340475 
L 80.57403 39.939293 
L 81.006895 37.104712 
L 81.295473 37.298185 
L 81.439761 37.326064 
L 81.58405 36.15357 
L 81.728338 36.420204 
L 81.872627 35.806243 
L 82.161204 36.624361 
L 82.305493 34.517991 
L 82.449781 36.303169 
L 82.59407 35.664311 
L 82.738358 35.021182 
L 82.882647 35.168375 
L 83.026936 34.893061 
L 83.459801 33.548765 
L 83.60409 33.026917 
L 83.748378 33.997804 
L 83.892667 32.379159 
L 84.036956 32.699941 
L 84.181244 33.837384 
L 84.325533 32.507809 
L 84.469821 32.820264 
L 84.61411 32.744459 
L 84.758399 32.914179 
L 85.046976 31.007098 
L 85.191264 32.372752 
L 85.335553 31.461916 
L 85.479841 31.821853 
L 85.62413 31.735031 
L 85.768419 32.341067 
L 85.912707 31.95127 
L 86.056996 30.57042 
L 86.201284 32.099629 
L 86.345573 31.615708 
L 86.489861 30.720226 
L 86.778439 31.583264 
L 86.922727 30.120643 
L 87.067016 30.17808 
L 87.211304 30.80039 
L 87.499881 29.998672 
L 87.64417 30.238485 
L 87.788459 31.053752 
L 87.932747 30.420649 
L 88.077036 30.486156 
L 88.221324 31.836824 
L 88.365613 30.972623 
L 88.509902 32.107659 
L 88.65419 31.892169 
L 88.798479 32.143233 
L 89.087056 31.647033 
L 89.231344 32.07186 
L 89.519922 31.057485 
L 89.808499 33.018561 
L 89.952787 31.343508 
L 90.097076 32.682955 
L 90.385653 31.719227 
L 90.529942 32.136108 
L 90.67423 33.882835 
L 90.818519 33.331993 
L 90.962807 33.818824 
L 91.107096 33.181377 
L 91.251384 33.523092 
L 91.395673 32.972198 
L 91.539962 34.303236 
L 91.68425 33.572476 
L 92.117116 35.414796 
L 92.261405 34.757123 
L 92.405693 35.282399 
L 92.549982 34.681604 
L 92.838559 36.7531 
L 92.982847 36.047284 
L 93.127136 36.386191 
L 93.271425 36.114201 
L 93.415713 36.391108 
L 93.560002 38.095934 
L 93.70429 37.785038 
L 94.281445 39.96037 
L 94.425733 38.388992 
L 94.570022 38.872178 
L 95.147176 40.666418 
L 95.291465 41.98017 
L 95.435753 40.832676 
L 95.580042 43.064311 
L 95.72433 42.159111 
L 95.868619 43.772168 
L 96.012908 42.152818 
L 96.157196 42.723644 
L 96.73435 45.739432 
L 96.878639 44.68341 
L 97.167216 46.924204 
L 97.311505 46.85923 
L 97.455793 45.880722 
L 97.888659 48.616624 
L 98.032948 47.883279 
L 98.177236 49.625151 
L 98.321525 49.40148 
L 98.465813 48.887594 
L 98.610102 51.096651 
L 98.898679 49.848468 
L 99.042968 51.829953 
L 99.187256 51.153872 
L 99.475833 51.677921 
L 99.908699 54.552994 
L 100.052988 53.939217 
L 100.485853 55.16047 
L 100.774431 56.740858 
L 101.063008 55.779929 
L 101.640162 58.826742 
L 101.784451 57.858069 
L 102.217316 60.745428 
L 102.361605 60.257657 
L 102.505893 61.510945 
L 102.650182 60.611894 
L 102.794471 62.134796 
L 102.938759 61.789826 
L 103.083048 62.618057 
L 103.227336 61.376463 
L 103.660202 64.501356 
L 103.804491 63.573717 
L 104.237356 65.00265 
L 104.381645 64.291952 
L 104.525934 66.10417 
L 104.670222 65.333211 
L 104.814511 65.461251 
L 105.247376 66.513507 
L 105.535954 68.384396 
L 105.680242 66.909659 
L 105.680242 66.909659 
" clip-path="url(#pa3d5a2b3d8)" style="fill: none; stroke: #3362b0; stroke-width: 1.5; stroke-linecap: square"/>
   </g>
   <g id="line2d_8">
    <path d="M 33.680242 31.709613 
L 33.824531 30.481017 
L 33.968819 30.595313 
L 34.113108 31.883436 
L 34.257396 30.610892 
L 34.401685 31.846365 
L 34.545974 31.814023 
L 34.834551 31.744574 
L 34.978839 32.415689 
L 35.123128 32.035892 
L 35.267417 32.60788 
L 35.411705 32.46298 
L 35.555994 31.546712 
L 35.844571 33.420022 
L 35.988859 32.342477 
L 36.133148 33.435776 
L 36.421725 32.281486 
L 36.710302 34.405903 
L 36.854591 34.047879 
L 36.998879 34.30177 
L 37.287457 35.440885 
L 37.431745 34.368832 
L 37.576034 34.892876 
L 37.720322 34.317614 
L 38.153188 35.899173 
L 38.297477 36.074456 
L 38.441765 37.483614 
L 38.586054 37.296121 
L 38.730342 36.820376 
L 38.874631 38.244774 
L 39.01892 37.722491 
L 39.163208 37.403514 
L 39.307497 39.214596 
L 39.451785 37.714613 
L 40.317517 40.950927 
L 40.461805 40.400203 
L 40.606094 42.111338 
L 40.750382 40.529998 
L 41.03896 43.150498 
L 41.183248 43.253699 
L 41.327537 42.061211 
L 41.616114 44.069954 
L 41.760403 44.074728 
L 41.904691 45.244902 
L 42.04898 44.080288 
L 42.193268 45.473932 
L 42.337557 44.822668 
L 42.626134 47.122739 
L 42.770423 45.913431 
L 43.203288 48.3134 
L 43.347577 47.209756 
L 43.491865 48.58918 
L 43.636154 48.059395 
L 44.06902 50.100049 
L 44.213308 49.518479 
L 44.357597 51.868481 
L 44.501885 50.549384 
L 44.646174 52.694767 
L 44.790463 52.354922 
L 44.934751 52.384412 
L 45.800483 55.351014 
L 45.944771 54.497122 
L 46.08906 55.129255 
L 46.377637 57.374825 
L 46.521926 56.861817 
L 46.954791 58.770237 
L 47.243368 58.598868 
L 47.387657 58.204364 
L 47.964811 60.994708 
L 48.1091 60.217994 
L 48.397677 62.714852 
L 48.541966 62.143296 
L 48.830543 63.732283 
L 48.974831 62.210012 
L 49.11912 63.620759 
L 49.263409 62.934574 
L 49.840563 66.067032 
L 49.984851 65.034786 
L 50.12914 66.219379 
L 50.273429 65.52168 
L 50.417717 66.813287 
L 50.562006 66.712667 
L 50.706294 66.712573 
L 50.850583 67.971576 
L 50.994871 67.283616 
L 51.13916 68.650988 
L 51.283449 68.404597 
L 51.427737 68.568457 
L 51.572026 69.17231 
L 51.716314 67.843025 
L 51.860603 70.042806 
L 52.004891 68.527164 
L 52.14918 69.299803 
L 52.293469 68.835963 
L 52.437757 69.858734 
L 52.582046 69.800556 
L 52.726334 69.700421 
L 52.870623 70.01573 
L 53.014912 71.496135 
L 53.1592 70.999072 
L 53.303489 71.571515 
L 53.447777 70.464421 
L 53.736354 71.685106 
L 53.880643 71.533853 
L 54.024932 72.817675 
L 54.16922 71.425561 
L 54.457797 73.305245 
L 54.746374 72.38668 
L 55.034952 73.759667 
L 55.17924 71.954676 
L 55.323529 72.65582 
L 55.467817 73.839329 
L 55.612106 72.857103 
L 55.756394 74.042833 
L 55.900683 73.990813 
L 56.044972 74.134083 
L 56.333549 72.387679 
L 56.622126 74.2159 
L 56.766415 74.140132 
L 57.054992 73.026619 
L 57.19928 73.159311 
L 57.343569 74.389664 
L 57.487857 73.167746 
L 57.632146 74.282079 
L 57.776435 72.979729 
L 57.920723 73.550612 
L 58.065012 72.177522 
L 58.2093 72.289119 
L 58.353589 72.470502 
L 58.497877 72.230159 
L 58.930743 73.466896 
L 59.075032 72.525821 
L 59.21932 73.076976 
L 59.363609 71.671925 
L 59.507897 72.886344 
L 59.652186 72.799169 
L 59.940763 70.764282 
L 60.22934 72.107907 
L 60.373629 71.08542 
L 60.517918 71.742779 
L 60.662206 71.227387 
L 60.806495 69.700841 
L 60.950783 71.331723 
L 61.095072 71.164217 
L 61.23936 70.817959 
L 61.672226 68.443963 
L 61.816515 69.376142 
L 61.960803 69.054353 
L 62.105092 68.976166 
L 62.393669 67.252695 
L 62.537958 68.518214 
L 62.826535 66.661925 
L 62.970823 66.430209 
L 63.115112 67.361117 
L 63.403689 65.852114 
L 63.547978 66.691638 
L 63.836555 64.582565 
L 63.980843 65.761723 
L 64.269421 63.91654 
L 64.413709 64.418048 
L 64.557998 64.372608 
L 64.846575 62.177906 
L 64.990863 62.272201 
L 65.135152 62.628542 
L 65.423729 62.120695 
L 65.568018 60.998486 
L 65.712306 61.451585 
L 66.145172 60.390262 
L 66.289461 58.798937 
L 66.433749 58.954473 
L 66.866615 57.15418 
L 67.010904 57.225551 
L 67.299481 55.465245 
L 67.443769 56.619768 
L 67.588058 56.23291 
L 68.165212 53.385395 
L 68.453789 54.220878 
L 68.742366 51.634748 
L 69.608098 49.086054 
L 69.752386 49.776034 
L 69.896675 48.545531 
L 70.040964 49.393997 
L 70.329541 47.183002 
L 70.473829 48.002163 
L 70.618118 47.704969 
L 70.906695 45.951555 
L 71.050984 46.209934 
L 71.339561 45.008 
L 71.483849 46.041246 
L 71.916715 43.155129 
L 72.061004 44.108426 
L 72.349581 41.740614 
L 72.638158 42.747462 
L 72.926735 40.347725 
L 73.215312 41.395765 
L 73.503889 39.381362 
L 73.648178 40.774921 
L 73.936755 38.482121 
L 74.081044 38.856726 
L 74.369621 37.400929 
L 74.51391 37.601292 
L 74.802487 37.000949 
L 74.946775 37.982129 
L 75.235352 36.026387 
L 75.379641 37.040424 
L 75.52393 35.303315 
L 75.812507 36.461135 
L 76.101084 34.894688 
L 76.245372 34.767417 
L 76.53395 35.067158 
L 76.678238 34.205699 
L 76.966815 34.720807 
L 77.111104 32.604812 
L 77.255392 33.481474 
L 77.399681 32.261264 
L 77.688258 33.08638 
L 77.976835 31.685138 
L 78.121124 33.025254 
L 78.265413 32.743911 
L 78.409701 32.134036 
L 78.55399 32.546032 
L 78.698278 31.851744 
L 78.842567 31.925182 
L 78.986855 31.988179 
L 79.131144 31.788194 
L 79.275433 30.413191 
L 79.56401 32.28195 
L 79.708298 30.197904 
L 79.852587 30.537133 
L 79.996875 31.526484 
L 80.141164 31.276242 
L 80.285453 30.575745 
L 80.429741 31.385945 
L 80.57403 31.20124 
L 80.718318 31.348031 
L 81.006895 30.968998 
L 81.151184 30.098111 
L 81.295473 31.527792 
L 81.439761 30.567656 
L 81.728338 31.957771 
L 82.016916 30.579946 
L 82.161204 31.737816 
L 82.305493 30.646895 
L 82.449781 32.140273 
L 82.59407 31.946899 
L 82.882647 31.275368 
L 83.026936 31.537282 
L 83.171224 32.540891 
L 83.315513 31.662862 
L 83.748378 33.411762 
L 84.036956 32.088734 
L 84.181244 32.41847 
L 84.469821 33.893267 
L 84.758399 32.755996 
L 85.191264 35.393356 
L 85.335553 34.679002 
L 85.62413 35.830108 
L 85.768419 34.60829 
L 85.912707 34.754587 
L 86.056996 35.410761 
L 86.201284 37.099595 
L 86.345573 36.701954 
L 86.489861 35.713328 
L 86.63415 35.836438 
L 87.067016 37.594511 
L 87.355593 38.525329 
L 87.499881 38.329606 
L 87.64417 39.880365 
L 87.932747 38.972096 
L 88.077036 40.623831 
L 88.221324 40.547904 
L 88.509902 41.798926 
L 88.65419 41.788165 
L 88.798479 42.568811 
L 88.942767 41.240231 
L 89.231344 42.277165 
L 89.375633 41.989552 
L 89.519922 43.402612 
L 89.66421 43.373549 
L 89.808499 43.510961 
L 89.952787 45.23313 
L 90.097076 44.423825 
L 90.241364 44.699945 
L 90.385653 45.491112 
L 90.529942 45.095129 
L 90.67423 46.384932 
L 90.818519 45.984091 
L 91.539962 47.94885 
L 91.828539 49.595041 
L 91.972827 49.338825 
L 92.405693 51.678614 
L 92.549982 51.649903 
L 93.271425 54.496724 
L 93.415713 53.09886 
L 93.560002 54.798893 
L 93.70429 54.77938 
L 93.992867 56.285072 
L 94.137156 54.865135 
L 94.570022 57.472107 
L 95.147176 59.331836 
L 95.291465 57.96193 
L 96.301485 62.50295 
L 96.590062 61.605359 
L 97.022928 62.895212 
L 97.167216 63.00191 
L 97.74437 65.307868 
L 97.888659 66.096797 
L 98.177236 65.419747 
L 98.321525 65.475272 
L 98.610102 67.812433 
L 98.75439 67.236118 
L 99.187256 68.780261 
L 99.331545 67.7093 
L 99.475833 69.259402 
L 99.620122 68.656945 
L 99.764411 67.954359 
L 99.908699 68.429617 
L 100.197276 70.580312 
L 100.341565 69.721977 
L 100.774431 70.762704 
L 100.918719 69.846093 
L 101.063008 71.569165 
L 101.207296 70.312844 
L 101.351585 70.345038 
L 101.495873 70.5934 
L 101.784451 72.08389 
L 101.928739 71.022643 
L 102.073028 71.182498 
L 102.361605 73.063809 
L 102.505893 72.085461 
L 102.650182 72.719168 
L 102.794471 72.620136 
L 102.938759 72.462395 
L 103.083048 71.935276 
L 103.371625 73.209925 
L 103.515914 73.648094 
L 103.804491 73.106066 
L 103.948779 73.265627 
L 104.093068 74.116703 
L 104.237356 72.56649 
L 104.525934 74.474943 
L 104.670222 73.643334 
L 104.958799 74.403577 
L 105.391665 72.735858 
L 105.680242 73.945121 
L 105.680242 73.945121 
" clip-path="url(#pa3d5a2b3d8)" style="fill: none; stroke: #cc3164; stroke-width: 1.5; stroke-linecap: square"/>
   </g>
   <g id="patch_3">
    <path d="M 26.480242 74.474943 
L 26.480242 29.976496 
" style="fill: none; stroke: #4d4f53; stroke-width: 0.8; stroke-linejoin: miter; stroke-linecap: square"/>
   </g>
   <g id="patch_4">
    <path d="M 33.680242 78.924787 
L 105.680242 78.924787 
" style="fill: none; stroke: #4d4f53; stroke-width: 0.8; stroke-linejoin: miter; stroke-linecap: square"/>
   </g>
   <g id="legend_1">
    <g id="patch_5">
     <path d="M 28.146242 23.860651 
L 111.214242 23.860651 
L 111.214242 7.2 
L 28.146242 7.2 
L 28.146242 23.860651 
z
" style="fill: none; opacity: 0"/>
    </g>
    <g id="text_7">
     <!-- title -->
     <g style="fill: #4d4f53" transform="translate(32.311242 17.694498) scale(0.0833 -0.0833)">
      <defs>
       <path id="DejaVuSans-57" d="M 1172 4494 
L 1172 3500 
L 2356 3500 
L 2356 3053 
L 1172 3053 
L 1172 1153 
Q 1172 725 1289 603 
Q 1406 481 1766 481 
L 2356 481 
L 2356 0 
L 1766 0 
Q 1100 0 847 248 
Q 594 497 594 1153 
L 594 3053 
L 172 3053 
L 172 3500 
L 594 3500 
L 594 4494 
L 1172 4494 
z
" transform="scale(0.015625)"/>
       <path id="DejaVuSans-4c" d="M 603 3500 
L 1178 3500 
L 1178 0 
L 603 0 
L 603 3500 
z
M 603 4863 
L 1178 4863 
L 1178 4134 
L 603 4134 
L 603 4863 
z
" transform="scale(0.015625)"/>
       <path id="DejaVuSans-4f" d="M 603 4863 
L 1178 4863 
L 1178 0 
L 603 0 
L 603 4863 
z
" transform="scale(0.015625)"/>
       <path id="DejaVuSans-48" d="M 3597 1894 
L 3597 1613 
L 953 1613 
Q 991 1019 1311 708 
Q 1631 397 2203 397 
Q 2534 397 2845 478 
Q 3156 559 3463 722 
L 3463 178 
Q 3153 47 2828 -22 
Q 2503 -91 2169 -91 
Q 1331 -91 842 396 
Q 353 884 353 1716 
Q 353 2575 817 3079 
Q 1281 3584 2069 3584 
Q 2775 3584 3186 3129 
Q 3597 2675 3597 1894 
z
M 3022 2063 
Q 3016 2534 2758 2815 
Q 2500 3097 2075 3097 
Q 1594 3097 1305 2825 
Q 1016 2553 972 2059 
L 3022 2063 
z
" transform="scale(0.015625)"/>
      </defs>
      <use xlink:href="#DejaVuSans-57"/>
      <use xlink:href="#DejaVuSans-4c" transform="translate(39.203125 0)"/>
      <use xlink:href="#DejaVuSans-57" transform="translate(66.984375 0)"/>
      <use xlink:href="#DejaVuSans-4f" transform="translate(106.1875 0)"/>
      <use xlink:href="#DejaVuSans-48" transform="translate(133.96875 0)"/>
     </g>
    </g>
    <g id="line2d_9">
     <path d="M 53.082717 14.778998 
L 58.913717 14.778998 
L 64.744717 14.778998 
" style="fill: none; stroke: #3362b0; stroke-width: 1.5; stroke-linecap: square"/>
    </g>
    <g id="text_8">
     <!-- $x_1$ -->
     <g style="fill: #4d4f53" transform="translate(68.909717 17.694498) scale(0.0833 -0.0833)">
      <defs>
       <path id="DejaVuSans-Oblique-5b" d="M 3841 3500 
L 2234 1784 
L 3219 0 
L 2559 0 
L 1819 1388 
L 531 0 
L -166 0 
L 1556 1844 
L 641 3500 
L 1300 3500 
L 1972 2234 
L 3144 3500 
L 3841 3500 
z
" transform="scale(0.015625)"/>
      </defs>
      <use xlink:href="#DejaVuSans-Oblique-5b" transform="translate(0 0.3125)"/>
      <use xlink:href="#DejaVuSans-14" transform="translate(59.179688 -14.687451) scale(0.7)"/>
     </g>
    </g>
    <g id="line2d_10">
     <path d="M 82.309142 14.778998 
L 88.140142 14.778998 
L 93.971142 14.778998 
" style="fill: none; stroke: #cc3164; stroke-width: 1.5; stroke-linecap: square"/>
    </g>
    <g id="text_9">
     <!-- $x_2$ -->
     <g style="fill: #4d4f53" transform="translate(98.136142 17.694498) scale(0.0833 -0.0833)">
      <defs>
       <path id="DejaVuSans-15" d="M 1228 531 
L 3431 531 
L 3431 0 
L 469 0 
L 469 531 
Q 828 903 1448 1529 
Q 2069 2156 2228 2338 
Q 2531 2678 2651 2914 
Q 2772 3150 2772 3378 
Q 2772 3750 2511 3984 
Q 2250 4219 1831 4219 
Q 1534 4219 1204 4116 
Q 875 4013 500 3803 
L 500 4441 
Q 881 4594 1212 4672 
Q 1544 4750 1819 4750 
Q 2544 4750 2975 4387 
Q 3406 4025 3406 3419 
Q 3406 3131 3298 2873 
Q 3191 2616 2906 2266 
Q 2828 2175 2409 1742 
Q 1991 1309 1228 531 
z
" transform="scale(0.015625)"/>
      </defs>
      <use xlink:href="#DejaVuSans-Oblique-5b" transform="translate(0 0.3125)"/>
      <use xlink:href="#DejaVuSans-15" transform="translate(59.179688 -14.687451) scale(0.7)"/>
     </g>
    </g>
   </g>
  </g>
  <g id="axes_2">
   <g id="patch_6">
    <path d="M 134.480242 78.924787 
L 220.880242 78.924787 
L 220.880242 25.526651 
L 134.480242 25.526651 
L 134.480242 78.924787 
z
" style="fill: none"/>
   </g>
   <g id="matplotlib.axis_3">
    <g id="xtick_4">
     <g id="line2d_11">
      <g>
       <use xlink:href="#m8ad915411c" x="141.680242" y="78.924787" style="fill: #4d4f53; stroke: #4d4f53; stroke-width: 0.8"/>
      </g>
     </g>
     <g id="text_10">
      <!-- 0 -->
      <g style="fill: #4d4f53" transform="translate(139.030261 92.253635) scale(0.0833 -0.0833)">
       <use xlink:href="#DejaVuSans-13"/>
      </g>
     </g>
    </g>
    <g id="xtick_5">
     <g id="line2d_12">
      <g>
       <use xlink:href="#m8ad915411c" x="179.877429" y="78.924787" style="fill: #4d4f53; stroke: #4d4f53; stroke-width: 0.8"/>
      </g>
     </g>
     <g id="text_11">
      <!-- 5 -->
      <g style="fill: #4d4f53" transform="translate(177.227447 92.253635) scale(0.0833 -0.0833)">
       <use xlink:href="#DejaVuSans-18"/>
      </g>
     </g>
    </g>
    <g id="xtick_6">
     <g id="line2d_13">
      <g>
       <use xlink:href="#m8ad915411c" x="218.074615" y="78.924787" style="fill: #4d4f53; stroke: #4d4f53; stroke-width: 0.8"/>
      </g>
     </g>
     <g id="text_12">
      <!-- 10 -->
      <g style="fill: #4d4f53" transform="translate(212.774652 92.253635) scale(0.0833 -0.0833)">
       <use xlink:href="#DejaVuSans-14"/>
       <use xlink:href="#DejaVuSans-13" transform="translate(63.625 0)"/>
      </g>
     </g>
    </g>
   </g>
   <g id="matplotlib.axis_4">
    <g id="ytick_4">
     <g id="line2d_14">
      <g>
       <use xlink:href="#m2af67787d0" x="134.480242" y="74.494625" style="fill: #4d4f53; stroke: #4d4f53; stroke-width: 0.8"/>
      </g>
     </g>
     <g id="text_13">
      <!-- −1 -->
      <g style="fill: #4d4f53" transform="translate(115.2 77.659049) scale(0.0833 -0.0833)">
       <use xlink:href="#DejaVuSans-c9c"/>
       <use xlink:href="#DejaVuSans-14" transform="translate(83.796875 0)"/>
      </g>
     </g>
    </g>
    <g id="ytick_5">
     <g id="line2d_15">
      <g>
       <use xlink:href="#m2af67787d0" x="134.480242" y="53.291533" style="fill: #4d4f53; stroke: #4d4f53; stroke-width: 0.8"/>
      </g>
     </g>
     <g id="text_14">
      <!-- 0 -->
      <g style="fill: #4d4f53" transform="translate(122.18028 56.455956) scale(0.0833 -0.0833)">
       <use xlink:href="#DejaVuSans-13"/>
      </g>
     </g>
    </g>
    <g id="ytick_6">
     <g id="line2d_16">
      <g>
       <use xlink:href="#m2af67787d0" x="134.480242" y="32.08844" style="fill: #4d4f53; stroke: #4d4f53; stroke-width: 0.8"/>
      </g>
     </g>
     <g id="text_15">
      <!-- 1 -->
      <g style="fill: #4d4f53" transform="translate(122.18028 35.252864) scale(0.0833 -0.0833)">
       <use xlink:href="#DejaVuSans-14"/>
      </g>
     </g>
    </g>
   </g>
   <g id="line2d_17">
    <path d="M 141.680242 37.406675 
L 142.257396 35.600256 
L 142.401685 35.897647 
L 142.545974 34.143089 
L 142.690262 34.424636 
L 142.834551 35.505925 
L 143.123128 33.980403 
L 143.267417 34.838778 
L 143.411705 32.81592 
L 143.555994 33.765542 
L 143.844571 32.649433 
L 143.988859 33.391282 
L 144.133148 33.105884 
L 144.421725 32.058838 
L 144.566014 33.124139 
L 144.710302 32.770112 
L 144.854591 31.825912 
L 144.998879 32.060593 
L 145.143168 32.621594 
L 145.287457 32.01168 
L 145.431745 32.360042 
L 145.720322 30.828958 
L 145.864611 32.117833 
L 146.0089 30.404918 
L 146.153188 31.464439 
L 146.297477 31.236897 
L 146.441765 31.169776 
L 146.586054 32.172739 
L 146.874631 30.030865 
L 147.163208 31.829414 
L 147.451785 30.619257 
L 147.596074 32.089879 
L 147.740362 31.327645 
L 147.884651 32.008157 
L 148.02894 30.488537 
L 148.173228 31.457691 
L 148.317517 30.754401 
L 148.461805 31.254579 
L 148.606094 30.293004 
L 148.750382 30.650409 
L 149.03896 31.382521 
L 149.183248 30.554078 
L 149.471825 32.839153 
L 149.616114 32.792174 
L 149.760403 31.108628 
L 149.904691 31.161314 
L 150.193268 32.775461 
L 150.337557 32.112785 
L 150.481845 33.776487 
L 150.626134 32.349334 
L 150.770423 32.705061 
L 150.914711 33.899649 
L 151.203288 32.741465 
L 151.347577 34.52452 
L 151.491865 33.139057 
L 151.636154 34.59003 
L 151.780443 34.007351 
L 151.924731 35.150144 
L 152.06902 34.839679 
L 152.213308 35.796985 
L 152.357597 35.420641 
L 152.646174 36.069509 
L 152.790463 35.487307 
L 152.934751 36.383175 
L 153.07904 36.162894 
L 153.223328 36.290552 
L 153.367617 37.50625 
L 153.511906 36.607792 
L 154.08906 38.736643 
L 154.233348 38.121529 
L 154.666214 40.493089 
L 154.810503 39.318247 
L 155.243368 41.834882 
L 155.387657 41.769169 
L 155.820523 43.471107 
L 155.964811 42.646633 
L 156.1091 44.399947 
L 156.253388 44.328458 
L 156.541966 43.583633 
L 156.830543 45.451661 
L 156.974831 44.884471 
L 157.11912 44.971677 
L 157.407697 47.019525 
L 157.551986 46.752786 
L 157.840563 48.94835 
L 157.984851 48.668736 
L 158.12914 48.775553 
L 158.273429 50.096731 
L 158.417717 48.655583 
L 159.283449 52.725117 
L 159.427737 52.886741 
L 159.572026 52.345696 
L 159.716314 53.172028 
L 159.860603 52.606597 
L 160.293469 55.392356 
L 160.582046 55.664496 
L 160.726334 56.814327 
L 160.870623 56.022261 
L 161.014912 57.639188 
L 161.1592 56.619251 
L 161.303489 57.142964 
L 161.447777 58.910921 
L 161.592066 57.696462 
L 161.736354 58.979514 
L 161.880643 58.432297 
L 162.313509 60.840169 
L 162.457797 59.780671 
L 162.602086 61.367662 
L 162.746374 60.727254 
L 162.890663 61.47234 
L 163.034952 61.115999 
L 163.467817 63.904646 
L 163.612106 62.392406 
L 163.900683 64.779756 
L 164.044972 63.991642 
L 164.333549 64.904243 
L 164.477837 64.46764 
L 164.622126 64.795986 
L 164.766415 66.452131 
L 164.910703 65.786583 
L 165.343569 68.066154 
L 165.487857 68.037215 
L 165.632146 67.391784 
L 165.776435 68.413859 
L 165.920723 68.347632 
L 166.065012 68.81247 
L 166.2093 68.740619 
L 166.353589 68.659605 
L 166.497877 68.277874 
L 166.642166 70.457103 
L 166.786455 69.577774 
L 166.930743 69.622615 
L 167.075032 70.86298 
L 167.21932 69.869856 
L 167.363609 70.812333 
L 167.507897 70.728488 
L 167.652186 70.778708 
L 167.796475 70.397445 
L 168.085052 71.205226 
L 168.373629 72.764098 
L 168.662206 71.495365 
L 168.806495 71.801421 
L 168.950783 73.004641 
L 169.095072 72.967541 
L 169.23936 73.202291 
L 169.527938 72.477397 
L 169.816515 73.450896 
L 170.105092 72.387904 
L 170.24938 73.097313 
L 170.393669 72.778614 
L 170.537958 73.443925 
L 170.826535 72.688806 
L 170.970823 74.42739 
L 171.115112 72.926463 
L 171.259401 72.970671 
L 171.547978 72.823468 
L 171.692266 72.491075 
L 171.980843 74.034042 
L 172.269421 72.254882 
L 172.557998 72.413747 
L 172.846575 74.094637 
L 173.135152 72.389493 
L 173.279441 72.348577 
L 173.423729 73.415859 
L 173.568018 73.388653 
L 173.712306 73.183732 
L 173.856595 71.655062 
L 174.145172 72.752375 
L 174.289461 71.648536 
L 174.433749 72.754793 
L 174.578038 72.47733 
L 174.722326 72.274363 
L 175.010904 70.850512 
L 175.155192 70.756604 
L 175.443769 70.002036 
L 175.732346 70.9767 
L 175.876635 69.882239 
L 176.020924 70.054285 
L 176.165212 69.920036 
L 176.598078 67.834687 
L 176.742366 68.540808 
L 177.463809 66.053785 
L 177.608098 67.406792 
L 177.896675 65.73307 
L 178.040964 66.674282 
L 178.329541 64.772577 
L 179.483849 61.902294 
L 179.628138 62.85003 
L 179.772427 61.561027 
L 179.916715 62.226975 
L 180.061004 60.503654 
L 180.205292 61.813513 
L 180.349581 61.440742 
L 180.493869 61.101578 
L 180.782447 59.26607 
L 180.926735 59.956323 
L 181.071024 59.577714 
L 181.359601 57.277701 
L 181.503889 57.987127 
L 181.792467 55.907641 
L 181.936755 55.544336 
L 182.081044 55.734285 
L 182.51391 54.155959 
L 182.658198 54.460974 
L 183.091064 52.397401 
L 183.235352 52.984618 
L 183.379641 52.214401 
L 183.52393 52.517743 
L 184.101084 49.957694 
L 184.245372 50.823286 
L 184.389661 50.297532 
L 184.822527 47.287272 
L 184.966815 48.690794 
L 185.54397 45.32252 
L 185.688258 46.598318 
L 185.976835 44.884479 
L 186.121124 45.288612 
L 186.265413 45.402845 
L 186.698278 42.724321 
L 186.842567 43.229559 
L 186.986855 42.985187 
L 187.275433 41.645818 
L 187.419721 41.961948 
L 187.56401 40.692595 
L 187.708298 41.083314 
L 187.852587 39.980063 
L 187.996875 41.176263 
L 188.141164 39.013142 
L 188.285453 39.248497 
L 188.429741 39.340475 
L 188.57403 39.939293 
L 189.006895 37.104712 
L 189.295473 37.298185 
L 189.439761 37.326064 
L 189.58405 36.15357 
L 189.728338 36.420204 
L 189.872627 35.806243 
L 190.161204 36.624361 
L 190.305493 34.517991 
L 190.449781 36.303169 
L 190.59407 35.664311 
L 190.738358 35.021182 
L 190.882647 35.168375 
L 191.026936 34.893061 
L 191.459801 33.548765 
L 191.60409 33.026917 
L 191.748378 33.997804 
L 191.892667 32.379159 
L 192.036956 32.699941 
L 192.181244 33.837384 
L 192.325533 32.507809 
L 192.469821 32.820264 
L 192.61411 32.744459 
L 192.758399 32.914179 
L 193.046976 31.007098 
L 193.191264 32.372752 
L 193.335553 31.461916 
L 193.479841 31.821853 
L 193.62413 31.735031 
L 193.768419 32.341067 
L 193.912707 31.95127 
L 194.056996 30.57042 
L 194.201284 32.099629 
L 194.345573 31.615708 
L 194.489861 30.720226 
L 194.778439 31.583264 
L 194.922727 30.120643 
L 195.067016 30.17808 
L 195.211304 30.80039 
L 195.499881 29.998672 
L 195.64417 30.238485 
L 195.788459 31.053752 
L 195.932747 30.420649 
L 196.077036 30.486156 
L 196.221324 31.836824 
L 196.365613 30.972623 
L 196.509902 32.107659 
L 196.65419 31.892169 
L 196.798479 32.143233 
L 197.087056 31.647033 
L 197.231344 32.07186 
L 197.519922 31.057485 
L 197.808499 33.018561 
L 197.952787 31.343508 
L 198.097076 32.682955 
L 198.385653 31.719227 
L 198.529942 32.136108 
L 198.67423 33.882835 
L 198.818519 33.331993 
L 198.962807 33.818824 
L 199.107096 33.181377 
L 199.251384 33.523092 
L 199.395673 32.972198 
L 199.539962 34.303236 
L 199.68425 33.572476 
L 200.117116 35.414796 
L 200.261405 34.757123 
L 200.405693 35.282399 
L 200.549982 34.681604 
L 200.838559 36.7531 
L 200.982847 36.047284 
L 201.127136 36.386191 
L 201.271425 36.114201 
L 201.415713 36.391108 
L 201.560002 38.095934 
L 201.70429 37.785038 
L 202.281445 39.96037 
L 202.425733 38.388992 
L 202.570022 38.872178 
L 203.147176 40.666418 
L 203.291465 41.98017 
L 203.435753 40.832676 
L 203.580042 43.064311 
L 203.72433 42.159111 
L 203.868619 43.772168 
L 204.012908 42.152818 
L 204.157196 42.723644 
L 204.73435 45.739432 
L 204.878639 44.68341 
L 205.167216 46.924204 
L 205.311505 46.85923 
L 205.455793 45.880722 
L 205.888659 48.616624 
L 206.032948 47.883279 
L 206.177236 49.625151 
L 206.321525 49.40148 
L 206.465813 48.887594 
L 206.610102 51.096651 
L 206.898679 49.848468 
L 207.042968 51.829953 
L 207.187256 51.153872 
L 207.475833 51.677921 
L 207.908699 54.552994 
L 208.052988 53.939217 
L 208.485853 55.16047 
L 208.774431 56.740858 
L 209.063008 55.779929 
L 209.640162 58.826742 
L 209.784451 57.858069 
L 210.217316 60.745428 
L 210.361605 60.257657 
L 210.505893 61.510945 
L 210.650182 60.611894 
L 210.794471 62.134796 
L 210.938759 61.789826 
L 211.083048 62.618057 
L 211.227336 61.376463 
L 211.660202 64.501356 
L 211.804491 63.573717 
L 212.237356 65.00265 
L 212.381645 64.291952 
L 212.525934 66.10417 
L 212.670222 65.333211 
L 212.814511 65.461251 
L 213.247376 66.513507 
L 213.535954 68.384396 
L 213.680242 66.909659 
L 213.680242 66.909659 
" clip-path="url(#p0364d70204)" style="fill: none; stroke: #3362b0; stroke-width: 1.5; stroke-linecap: square"/>
   </g>
   <g id="line2d_18">
    <path d="M 141.680242 31.709613 
L 141.824531 30.481017 
L 141.968819 30.595313 
L 142.113108 31.883436 
L 142.257396 30.610892 
L 142.401685 31.846365 
L 142.545974 31.814023 
L 142.834551 31.744574 
L 142.978839 32.415689 
L 143.123128 32.035892 
L 143.267417 32.60788 
L 143.411705 32.46298 
L 143.555994 31.546712 
L 143.844571 33.420022 
L 143.988859 32.342477 
L 144.133148 33.435776 
L 144.421725 32.281486 
L 144.710302 34.405903 
L 144.854591 34.047879 
L 144.998879 34.30177 
L 145.287457 35.440885 
L 145.431745 34.368832 
L 145.576034 34.892876 
L 145.720322 34.317614 
L 146.153188 35.899173 
L 146.297477 36.074456 
L 146.441765 37.483614 
L 146.586054 37.296121 
L 146.730342 36.820376 
L 146.874631 38.244774 
L 147.01892 37.722491 
L 147.163208 37.403514 
L 147.307497 39.214596 
L 147.451785 37.714613 
L 148.317517 40.950927 
L 148.461805 40.400203 
L 148.606094 42.111338 
L 148.750382 40.529998 
L 149.03896 43.150498 
L 149.183248 43.253699 
L 149.327537 42.061211 
L 149.616114 44.069954 
L 149.760403 44.074728 
L 149.904691 45.244902 
L 150.04898 44.080288 
L 150.193268 45.473932 
L 150.337557 44.822668 
L 150.626134 47.122739 
L 150.770423 45.913431 
L 151.203288 48.3134 
L 151.347577 47.209756 
L 151.491865 48.58918 
L 151.636154 48.059395 
L 152.06902 50.100049 
L 152.213308 49.518479 
L 152.357597 51.868481 
L 152.501885 50.549384 
L 152.646174 52.694767 
L 152.790463 52.354922 
L 152.934751 52.384412 
L 153.800483 55.351014 
L 153.944771 54.497122 
L 154.08906 55.129255 
L 154.377637 57.374825 
L 154.521926 56.861817 
L 154.954791 58.770237 
L 155.243368 58.598868 
L 155.387657 58.204364 
L 155.964811 60.994708 
L 156.1091 60.217994 
L 156.397677 62.714852 
L 156.541966 62.143296 
L 156.830543 63.732283 
L 156.974831 62.210012 
L 157.11912 63.620759 
L 157.263409 62.934574 
L 157.840563 66.067032 
L 157.984851 65.034786 
L 158.12914 66.219379 
L 158.273429 65.52168 
L 158.417717 66.813287 
L 158.562006 66.712667 
L 158.706294 66.712573 
L 158.850583 67.971576 
L 158.994871 67.283616 
L 159.13916 68.650988 
L 159.283449 68.404597 
L 159.427737 68.568457 
L 159.572026 69.17231 
L 159.716314 67.843025 
L 159.860603 70.042806 
L 160.004891 68.527164 
L 160.14918 69.299803 
L 160.293469 68.835963 
L 160.437757 69.858734 
L 160.582046 69.800556 
L 160.726334 69.700421 
L 160.870623 70.01573 
L 161.014912 71.496135 
L 161.1592 70.999072 
L 161.303489 71.571515 
L 161.447777 70.464421 
L 161.736354 71.685106 
L 161.880643 71.533853 
L 162.024932 72.817675 
L 162.16922 71.425561 
L 162.457797 73.305245 
L 162.746374 72.38668 
L 163.034952 73.759667 
L 163.17924 71.954676 
L 163.323529 72.65582 
L 163.467817 73.839329 
L 163.612106 72.857103 
L 163.756394 74.042833 
L 163.900683 73.990813 
L 164.044972 74.134083 
L 164.333549 72.387679 
L 164.622126 74.2159 
L 164.766415 74.140132 
L 165.054992 73.026619 
L 165.19928 73.159311 
L 165.343569 74.389664 
L 165.487857 73.167746 
L 165.632146 74.282079 
L 165.776435 72.979729 
L 165.920723 73.550612 
L 166.065012 72.177522 
L 166.2093 72.289119 
L 166.353589 72.470502 
L 166.497877 72.230159 
L 166.930743 73.466896 
L 167.075032 72.525821 
L 167.21932 73.076976 
L 167.363609 71.671925 
L 167.507897 72.886344 
L 167.652186 72.799169 
L 167.940763 70.764282 
L 168.22934 72.107907 
L 168.373629 71.08542 
L 168.517918 71.742779 
L 168.662206 71.227387 
L 168.806495 69.700841 
L 168.950783 71.331723 
L 169.095072 71.164217 
L 169.23936 70.817959 
L 169.672226 68.443963 
L 169.816515 69.376142 
L 169.960803 69.054353 
L 170.105092 68.976166 
L 170.393669 67.252695 
L 170.537958 68.518214 
L 170.826535 66.661925 
L 170.970823 66.430209 
L 171.115112 67.361117 
L 171.403689 65.852114 
L 171.547978 66.691638 
L 171.836555 64.582565 
L 171.980843 65.761723 
L 172.269421 63.91654 
L 172.413709 64.418048 
L 172.557998 64.372608 
L 172.846575 62.177906 
L 172.990863 62.272201 
L 173.135152 62.628542 
L 173.423729 62.120695 
L 173.568018 60.998486 
L 173.712306 61.451585 
L 174.145172 60.390262 
L 174.289461 58.798937 
L 174.433749 58.954473 
L 174.866615 57.15418 
L 175.010904 57.225551 
L 175.299481 55.465245 
L 175.443769 56.619768 
L 175.588058 56.23291 
L 176.165212 53.385395 
L 176.453789 54.220878 
L 176.742366 51.634748 
L 177.608098 49.086054 
L 177.752386 49.776034 
L 177.896675 48.545531 
L 178.040964 49.393997 
L 178.329541 47.183002 
L 178.473829 48.002163 
L 178.618118 47.704969 
L 178.906695 45.951555 
L 179.050984 46.209934 
L 179.339561 45.008 
L 179.483849 46.041246 
L 179.916715 43.155129 
L 180.061004 44.108426 
L 180.349581 41.740614 
L 180.638158 42.747462 
L 180.926735 40.347725 
L 181.215312 41.395765 
L 181.503889 39.381362 
L 181.648178 40.774921 
L 181.936755 38.482121 
L 182.081044 38.856726 
L 182.369621 37.400929 
L 182.51391 37.601292 
L 182.802487 37.000949 
L 182.946775 37.982129 
L 183.235352 36.026387 
L 183.379641 37.040424 
L 183.52393 35.303315 
L 183.812507 36.461135 
L 184.101084 34.894688 
L 184.245372 34.767417 
L 184.53395 35.067158 
L 184.678238 34.205699 
L 184.966815 34.720807 
L 185.111104 32.604812 
L 185.255392 33.481474 
L 185.399681 32.261264 
L 185.688258 33.08638 
L 185.976835 31.685138 
L 186.121124 33.025254 
L 186.265413 32.743911 
L 186.409701 32.134036 
L 186.55399 32.546032 
L 186.698278 31.851744 
L 186.842567 31.925182 
L 186.986855 31.988179 
L 187.131144 31.788194 
L 187.275433 30.413191 
L 187.56401 32.28195 
L 187.708298 30.197904 
L 187.852587 30.537133 
L 187.996875 31.526484 
L 188.141164 31.276242 
L 188.285453 30.575745 
L 188.429741 31.385945 
L 188.57403 31.20124 
L 188.718318 31.348031 
L 189.006895 30.968998 
L 189.151184 30.098111 
L 189.295473 31.527792 
L 189.439761 30.567656 
L 189.728338 31.957771 
L 190.016916 30.579946 
L 190.161204 31.737816 
L 190.305493 30.646895 
L 190.449781 32.140273 
L 190.59407 31.946899 
L 190.882647 31.275368 
L 191.026936 31.537282 
L 191.171224 32.540891 
L 191.315513 31.662862 
L 191.748378 33.411762 
L 192.036956 32.088734 
L 192.181244 32.41847 
L 192.469821 33.893267 
L 192.758399 32.755996 
L 193.191264 35.393356 
L 193.335553 34.679002 
L 193.62413 35.830108 
L 193.768419 34.60829 
L 193.912707 34.754587 
L 194.056996 35.410761 
L 194.201284 37.099595 
L 194.345573 36.701954 
L 194.489861 35.713328 
L 194.63415 35.836438 
L 195.067016 37.594511 
L 195.355593 38.525329 
L 195.499881 38.329606 
L 195.64417 39.880365 
L 195.932747 38.972096 
L 196.077036 40.623831 
L 196.221324 40.547904 
L 196.509902 41.798926 
L 196.65419 41.788165 
L 196.798479 42.568811 
L 196.942767 41.240231 
L 197.231344 42.277165 
L 197.375633 41.989552 
L 197.519922 43.402612 
L 197.66421 43.373549 
L 197.808499 43.510961 
L 197.952787 45.23313 
L 198.097076 44.423825 
L 198.241364 44.699945 
L 198.385653 45.491112 
L 198.529942 45.095129 
L 198.67423 46.384932 
L 198.818519 45.984091 
L 199.539962 47.94885 
L 199.828539 49.595041 
L 199.972827 49.338825 
L 200.405693 51.678614 
L 200.549982 51.649903 
L 201.271425 54.496724 
L 201.415713 53.09886 
L 201.560002 54.798893 
L 201.70429 54.77938 
L 201.992867 56.285072 
L 202.137156 54.865135 
L 202.570022 57.472107 
L 203.147176 59.331836 
L 203.291465 57.96193 
L 204.301485 62.50295 
L 204.590062 61.605359 
L 205.022928 62.895212 
L 205.167216 63.00191 
L 205.74437 65.307868 
L 205.888659 66.096797 
L 206.177236 65.419747 
L 206.321525 65.475272 
L 206.610102 67.812433 
L 206.75439 67.236118 
L 207.187256 68.780261 
L 207.331545 67.7093 
L 207.475833 69.259402 
L 207.620122 68.656945 
L 207.764411 67.954359 
L 207.908699 68.429617 
L 208.197276 70.580312 
L 208.341565 69.721977 
L 208.774431 70.762704 
L 208.918719 69.846093 
L 209.063008 71.569165 
L 209.207296 70.312844 
L 209.351585 70.345038 
L 209.495873 70.5934 
L 209.784451 72.08389 
L 209.928739 71.022643 
L 210.073028 71.182498 
L 210.361605 73.063809 
L 210.505893 72.085461 
L 210.650182 72.719168 
L 210.794471 72.620136 
L 210.938759 72.462395 
L 211.083048 71.935276 
L 211.371625 73.209925 
L 211.515914 73.648094 
L 211.804491 73.106066 
L 211.948779 73.265627 
L 212.093068 74.116703 
L 212.237356 72.56649 
L 212.525934 74.474943 
L 212.670222 73.643334 
L 212.958799 74.403577 
L 213.391665 72.735858 
L 213.680242 73.945121 
L 213.680242 73.945121 
" clip-path="url(#p0364d70204)" style="fill: none; stroke: #cc3164; stroke-width: 1.5; stroke-linecap: square"/>
   </g>
   <g id="patch_7">
    <path d="M 134.480242 74.474943 
L 134.480242 29.976496 
" style="fill: none; stroke: #4d4f53; stroke-width: 0.8; stroke-linejoin: miter; stroke-linecap: square"/>
   </g>
   <g id="patch_8">
    <path d="M 141.680242 78.924787 
L 213.680242 78.924787 
" style="fill: none; stroke: #4d4f53; stroke-width: 0.8; stroke-linejoin: miter; stroke-linecap: square"/>
   </g>
   <g id="legend_2">
    <g id="patch_9">
     <path d="M 186.144142 77.258787 
L 219.214242 77.258787 
L 219.214242 37.272835 
L 186.144142 37.272835 
z
" style="fill: #ffffff"/>
    </g>
    <g id="text_16">
     <!-- title -->
     <g style="fill: #4d4f53" transform="translate(194.536617 47.767334) scale(0.0833 -0.0833)">
      <use xlink:href="#DejaVuSans-57"/>
      <use xlink:href="#DejaVuSans-4c" transform="translate(39.203125 0)"/>
      <use xlink:href="#DejaVuSans-57" transform="translate(66.984375 0)"/>
      <use xlink:href="#DejaVuSans-4f" transform="translate(106.1875 0)"/>
      <use xlink:href="#DejaVuSans-48" transform="translate(133.96875 0)"/>
     </g>
    </g>
    <g id="line2d_19">
     <path d="M 190.309142 56.514484 
L 196.140142 56.514484 
L 201.971142 56.514484 
" style="fill: none; stroke: #3362b0; stroke-width: 1.5; stroke-linecap: square"/>
    </g>
    <g id="text_17">
     <!-- $x_1$ -->
     <g style="fill: #4d4f53" transform="translate(206.136142 59.429984) scale(0.0833 -0.0833)">
      <use xlink:href="#DejaVuSans-Oblique-5b" transform="translate(0 0.3125)"/>
      <use xlink:href="#DejaVuSans-14" transform="translate(59.179688 -14.687451) scale(0.7)"/>
     </g>
    </g>
    <g id="line2d_20">
     <path d="M 190.309142 68.177135 
L 196.140142 68.177135 
L 201.971142 68.177135 
" style="fill: none; stroke: #cc3164; stroke-width: 1.5; stroke-linecap: square"/>
    </g>
    <g id="text_18">
     <!-- $x_2$ -->
     <g style="fill: #4d4f53" transform="translate(206.136142 71.092635) scale(0.0833 -0.0833)">
      <use xlink:href="#DejaVuSans-Oblique-5b" transform="translate(0 0.3125)"/>
      <use xlink:href="#DejaVuSans-15" transform="translate(59.179688 -14.687451) scale(0.7)"/>
     </g>
    </g>
   </g>
  </g>
  <g id="axes_3">
   <g id="patch_10">
    <path d="M 242.480242 78.924787 
L 328.880242 78.924787 
L 328.880242 25.526651 
L 242.480242 25.526651 
L 242.480242 78.924787 
z
" style="fill: none"/>
   </g>
   <g id="matplotlib.axis_5">
    <g id="xtick_7">
     <g id="line2d_21">
      <g>
       <use xlink:href="#m8ad915411c" x="249.680242" y="78.924787" style="fill: #4d4f53; stroke: #4d4f53; stroke-width: 0.8"/>
      </g>
     </g>
     <g id="text_19">
      <!-- 0 -->
      <g style="fill: #4d4f53" transform="translate(247.030261 92.253635) scale(0.0833 -0.0833)">
       <use xlink:href="#DejaVuSans-13"/>
      </g>
     </g>
    </g>
    <g id="xtick_8">
     <g id="line2d_22">
      <g>
       <use xlink:href="#m8ad915411c" x="287.877429" y="78.924787" style="fill: #4d4f53; stroke: #4d4f53; stroke-width: 0.8"/>
      </g>
     </g>
     <g id="text_20">
      <!-- 5 -->
      <g style="fill: #4d4f53" transform="translate(285.227447 92.253635) scale(0.0833 -0.0833)">
       <use xlink:href="#DejaVuSans-18"/>
      </g>
     </g>
    </g>
    <g id="xtick_9">
     <g id="line2d_23">
      <g>
       <use xlink:href="#m8ad915411c" x="326.074615" y="78.924787" style="fill: #4d4f53; stroke: #4d4f53; stroke-width: 0.8"/>
      </g>
     </g>
     <g id="text_21">
      <!-- 10 -->
      <g style="fill: #4d4f53" transform="translate(320.774652 92.253635) scale(0.0833 -0.0833)">
       <use xlink:href="#DejaVuSans-14"/>
       <use xlink:href="#DejaVuSans-13" transform="translate(63.625 0)"/>
      </g>
     </g>
    </g>
   </g>
   <g id="matplotlib.axis_6">
    <g id="ytick_7">
     <g id="line2d_24">
      <g>
       <use xlink:href="#m2af67787d0" x="242.480242" y="74.494625" style="fill: #4d4f53; stroke: #4d4f53; stroke-width: 0.8"/>
      </g>
     </g>
     <g id="text_22">
      <!-- −1 -->
      <g style="fill: #4d4f53" transform="translate(223.2 77.659049) scale(0.0833 -0.0833)">
       <use xlink:href="#DejaVuSans-c9c"/>
       <use xlink:href="#DejaVuSans-14" transform="translate(83.796875 0)"/>
      </g>
     </g>
    </g>
    <g id="ytick_8">
     <g id="line2d_25">
      <g>
       <use xlink:href="#m2af67787d0" x="242.480242" y="53.291533" style="fill: #4d4f53; stroke: #4d4f53; stroke-width: 0.8"/>
      </g>
     </g>
     <g id="text_23">
      <!-- 0 -->
      <g style="fill: #4d4f53" transform="translate(230.18028 56.455956) scale(0.0833 -0.0833)">
       <use xlink:href="#DejaVuSans-13"/>
      </g>
     </g>
    </g>
    <g id="ytick_9">
     <g id="line2d_26">
      <g>
       <use xlink:href="#m2af67787d0" x="242.480242" y="32.08844" style="fill: #4d4f53; stroke: #4d4f53; stroke-width: 0.8"/>
      </g>
     </g>
     <g id="text_24">
      <!-- 1 -->
      <g style="fill: #4d4f53" transform="translate(230.18028 35.252864) scale(0.0833 -0.0833)">
       <use xlink:href="#DejaVuSans-14"/>
      </g>
     </g>
    </g>
   </g>
   <g id="line2d_27">
    <path d="M 249.680242 37.406675 
L 250.257396 35.600256 
L 250.401685 35.897647 
L 250.545974 34.143089 
L 250.690262 34.424636 
L 250.834551 35.505925 
L 251.123128 33.980403 
L 251.267417 34.838778 
L 251.411705 32.81592 
L 251.555994 33.765542 
L 251.844571 32.649433 
L 251.988859 33.391282 
L 252.133148 33.105884 
L 252.421725 32.058838 
L 252.566014 33.124139 
L 252.710302 32.770112 
L 252.854591 31.825912 
L 252.998879 32.060593 
L 253.143168 32.621594 
L 253.287457 32.01168 
L 253.431745 32.360042 
L 253.720322 30.828958 
L 253.864611 32.117833 
L 254.0089 30.404918 
L 254.153188 31.464439 
L 254.297477 31.236897 
L 254.441765 31.169776 
L 254.586054 32.172739 
L 254.874631 30.030865 
L 255.163208 31.829414 
L 255.451785 30.619257 
L 255.596074 32.089879 
L 255.740362 31.327645 
L 255.884651 32.008157 
L 256.02894 30.488537 
L 256.173228 31.457691 
L 256.317517 30.754401 
L 256.461805 31.254579 
L 256.606094 30.293004 
L 256.750382 30.650409 
L 257.03896 31.382521 
L 257.183248 30.554078 
L 257.471825 32.839153 
L 257.616114 32.792174 
L 257.760403 31.108628 
L 257.904691 31.161314 
L 258.193268 32.775461 
L 258.337557 32.112785 
L 258.481845 33.776487 
L 258.626134 32.349334 
L 258.770423 32.705061 
L 258.914711 33.899649 
L 259.203288 32.741465 
L 259.347577 34.52452 
L 259.491865 33.139057 
L 259.636154 34.59003 
L 259.780443 34.007351 
L 259.924731 35.150144 
L 260.06902 34.839679 
L 260.213308 35.796985 
L 260.357597 35.420641 
L 260.646174 36.069509 
L 260.790463 35.487307 
L 260.934751 36.383175 
L 261.07904 36.162894 
L 261.223328 36.290552 
L 261.367617 37.50625 
L 261.511906 36.607792 
L 262.08906 38.736643 
L 262.233348 38.121529 
L 262.666214 40.493089 
L 262.810503 39.318247 
L 263.243368 41.834882 
L 263.387657 41.769169 
L 263.820523 43.471107 
L 263.964811 42.646633 
L 264.1091 44.399947 
L 264.253388 44.328458 
L 264.541966 43.583633 
L 264.830543 45.451661 
L 264.974831 44.884471 
L 265.11912 44.971677 
L 265.407697 47.019525 
L 265.551986 46.752786 
L 265.840563 48.94835 
L 265.984851 48.668736 
L 266.12914 48.775553 
L 266.273429 50.096731 
L 266.417717 48.655583 
L 267.283449 52.725117 
L 267.427737 52.886741 
L 267.572026 52.345696 
L 267.716314 53.172028 
L 267.860603 52.606597 
L 268.293469 55.392356 
L 268.582046 55.664496 
L 268.726334 56.814327 
L 268.870623 56.022261 
L 269.014912 57.639188 
L 269.1592 56.619251 
L 269.303489 57.142964 
L 269.447777 58.910921 
L 269.592066 57.696462 
L 269.736354 58.979514 
L 269.880643 58.432297 
L 270.313509 60.840169 
L 270.457797 59.780671 
L 270.602086 61.367662 
L 270.746374 60.727254 
L 270.890663 61.47234 
L 271.034952 61.115999 
L 271.467817 63.904646 
L 271.612106 62.392406 
L 271.900683 64.779756 
L 272.044972 63.991642 
L 272.333549 64.904243 
L 272.477837 64.46764 
L 272.622126 64.795986 
L 272.766415 66.452131 
L 272.910703 65.786583 
L 273.343569 68.066154 
L 273.487857 68.037215 
L 273.632146 67.391784 
L 273.776435 68.413859 
L 273.920723 68.347632 
L 274.065012 68.81247 
L 274.2093 68.740619 
L 274.353589 68.659605 
L 274.497877 68.277874 
L 274.642166 70.457103 
L 274.786455 69.577774 
L 274.930743 69.622615 
L 275.075032 70.86298 
L 275.21932 69.869856 
L 275.363609 70.812333 
L 275.507897 70.728488 
L 275.652186 70.778708 
L 275.796475 70.397445 
L 276.085052 71.205226 
L 276.373629 72.764098 
L 276.662206 71.495365 
L 276.806495 71.801421 
L 276.950783 73.004641 
L 277.095072 72.967541 
L 277.23936 73.202291 
L 277.527938 72.477397 
L 277.816515 73.450896 
L 278.105092 72.387904 
L 278.24938 73.097313 
L 278.393669 72.778614 
L 278.537958 73.443925 
L 278.826535 72.688806 
L 278.970823 74.42739 
L 279.115112 72.926463 
L 279.259401 72.970671 
L 279.547978 72.823468 
L 279.692266 72.491075 
L 279.980843 74.034042 
L 280.269421 72.254882 
L 280.557998 72.413747 
L 280.846575 74.094637 
L 281.135152 72.389493 
L 281.279441 72.348577 
L 281.423729 73.415859 
L 281.568018 73.388653 
L 281.712306 73.183732 
L 281.856595 71.655062 
L 282.145172 72.752375 
L 282.289461 71.648536 
L 282.433749 72.754793 
L 282.578038 72.47733 
L 282.722326 72.274363 
L 283.010904 70.850512 
L 283.155192 70.756604 
L 283.443769 70.002036 
L 283.732346 70.9767 
L 283.876635 69.882239 
L 284.020924 70.054285 
L 284.165212 69.920036 
L 284.598078 67.834687 
L 284.742366 68.540808 
L 285.463809 66.053785 
L 285.608098 67.406792 
L 285.896675 65.73307 
L 286.040964 66.674282 
L 286.329541 64.772577 
L 287.483849 61.902294 
L 287.628138 62.85003 
L 287.772427 61.561027 
L 287.916715 62.226975 
L 288.061004 60.503654 
L 288.205292 61.813513 
L 288.349581 61.440742 
L 288.493869 61.101578 
L 288.782447 59.26607 
L 288.926735 59.956323 
L 289.071024 59.577714 
L 289.359601 57.277701 
L 289.503889 57.987127 
L 289.792467 55.907641 
L 289.936755 55.544336 
L 290.081044 55.734285 
L 290.51391 54.155959 
L 290.658198 54.460974 
L 291.091064 52.397401 
L 291.235352 52.984618 
L 291.379641 52.214401 
L 291.52393 52.517743 
L 292.101084 49.957694 
L 292.245372 50.823286 
L 292.389661 50.297532 
L 292.822527 47.287272 
L 292.966815 48.690794 
L 293.54397 45.32252 
L 293.688258 46.598318 
L 293.976835 44.884479 
L 294.121124 45.288612 
L 294.265413 45.402845 
L 294.698278 42.724321 
L 294.842567 43.229559 
L 294.986855 42.985187 
L 295.275433 41.645818 
L 295.419721 41.961948 
L 295.56401 40.692595 
L 295.708298 41.083314 
L 295.852587 39.980063 
L 295.996875 41.176263 
L 296.141164 39.013142 
L 296.285453 39.248497 
L 296.429741 39.340475 
L 296.57403 39.939293 
L 297.006895 37.104712 
L 297.295473 37.298185 
L 297.439761 37.326064 
L 297.58405 36.15357 
L 297.728338 36.420204 
L 297.872627 35.806243 
L 298.161204 36.624361 
L 298.305493 34.517991 
L 298.449781 36.303169 
L 298.59407 35.664311 
L 298.738358 35.021182 
L 298.882647 35.168375 
L 299.026936 34.893061 
L 299.459801 33.548765 
L 299.60409 33.026917 
L 299.748378 33.997804 
L 299.892667 32.379159 
L 300.036956 32.699941 
L 300.181244 33.837384 
L 300.325533 32.507809 
L 300.469821 32.820264 
L 300.61411 32.744459 
L 300.758399 32.914179 
L 301.046976 31.007098 
L 301.191264 32.372752 
L 301.335553 31.461916 
L 301.479841 31.821853 
L 301.62413 31.735031 
L 301.768419 32.341067 
L 301.912707 31.95127 
L 302.056996 30.57042 
L 302.201284 32.099629 
L 302.345573 31.615708 
L 302.489861 30.720226 
L 302.778439 31.583264 
L 302.922727 30.120643 
L 303.067016 30.17808 
L 303.211304 30.80039 
L 303.499881 29.998672 
L 303.64417 30.238485 
L 303.788459 31.053752 
L 303.932747 30.420649 
L 304.077036 30.486156 
L 304.221324 31.836824 
L 304.365613 30.972623 
L 304.509902 32.107659 
L 304.65419 31.892169 
L 304.798479 32.143233 
L 305.087056 31.647033 
L 305.231344 32.07186 
L 305.519922 31.057485 
L 305.808499 33.018561 
L 305.952787 31.343508 
L 306.097076 32.682955 
L 306.385653 31.719227 
L 306.529942 32.136108 
L 306.67423 33.882835 
L 306.818519 33.331993 
L 306.962807 33.818824 
L 307.107096 33.181377 
L 307.251384 33.523092 
L 307.395673 32.972198 
L 307.539962 34.303236 
L 307.68425 33.572476 
L 308.117116 35.414796 
L 308.261405 34.757123 
L 308.405693 35.282399 
L 308.549982 34.681604 
L 308.838559 36.7531 
L 308.982847 36.047284 
L 309.127136 36.386191 
L 309.271425 36.114201 
L 309.415713 36.391108 
L 309.560002 38.095934 
L 309.70429 37.785038 
L 310.281445 39.96037 
L 310.425733 38.388992 
L 310.570022 38.872178 
L 311.147176 40.666418 
L 311.291465 41.98017 
L 311.435753 40.832676 
L 311.580042 43.064311 
L 311.72433 42.159111 
L 311.868619 43.772168 
L 312.012908 42.152818 
L 312.157196 42.723644 
L 312.73435 45.739432 
L 312.878639 44.68341 
L 313.167216 46.924204 
L 313.311505 46.85923 
L 313.455793 45.880722 
L 313.888659 48.616624 
L 314.032948 47.883279 
L 314.177236 49.625151 
L 314.321525 49.40148 
L 314.465813 48.887594 
L 314.610102 51.096651 
L 314.898679 49.848468 
L 315.042968 51.829953 
L 315.187256 51.153872 
L 315.475833 51.677921 
L 315.908699 54.552994 
L 316.052988 53.939217 
L 316.485853 55.16047 
L 316.774431 56.740858 
L 317.063008 55.779929 
L 317.640162 58.826742 
L 317.784451 57.858069 
L 318.217316 60.745428 
L 318.361605 60.257657 
L 318.505893 61.510945 
L 318.650182 60.611894 
L 318.794471 62.134796 
L 318.938759 61.789826 
L 319.083048 62.618057 
L 319.227336 61.376463 
L 319.660202 64.501356 
L 319.804491 63.573717 
L 320.237356 65.00265 
L 320.381645 64.291952 
L 320.525934 66.10417 
L 320.670222 65.333211 
L 320.814511 65.461251 
L 321.247376 66.513507 
L 321.535954 68.384396 
L 321.680242 66.909659 
L 321.680242 66.909659 
" clip-path="url(#p5b9945b72d)" style="fill: none; stroke: #3362b0; stroke-width: 1.5; stroke-linecap: square"/>
   </g>
   <g id="line2d_28">
    <path d="M 249.680242 31.709613 
L 249.824531 30.481017 
L 249.968819 30.595313 
L 250.113108 31.883436 
L 250.257396 30.610892 
L 250.401685 31.846365 
L 250.545974 31.814023 
L 250.834551 31.744574 
L 250.978839 32.415689 
L 251.123128 32.035892 
L 251.267417 32.60788 
L 251.411705 32.46298 
L 251.555994 31.546712 
L 251.844571 33.420022 
L 251.988859 32.342477 
L 252.133148 33.435776 
L 252.421725 32.281486 
L 252.710302 34.405903 
L 252.854591 34.047879 
L 252.998879 34.30177 
L 253.287457 35.440885 
L 253.431745 34.368832 
L 253.576034 34.892876 
L 253.720322 34.317614 
L 254.153188 35.899173 
L 254.297477 36.074456 
L 254.441765 37.483614 
L 254.586054 37.296121 
L 254.730342 36.820376 
L 254.874631 38.244774 
L 255.01892 37.722491 
L 255.163208 37.403514 
L 255.307497 39.214596 
L 255.451785 37.714613 
L 256.317517 40.950927 
L 256.461805 40.400203 
L 256.606094 42.111338 
L 256.750382 40.529998 
L 257.03896 43.150498 
L 257.183248 43.253699 
L 257.327537 42.061211 
L 257.616114 44.069954 
L 257.760403 44.074728 
L 257.904691 45.244902 
L 258.04898 44.080288 
L 258.193268 45.473932 
L 258.337557 44.822668 
L 258.626134 47.122739 
L 258.770423 45.913431 
L 259.203288 48.3134 
L 259.347577 47.209756 
L 259.491865 48.58918 
L 259.636154 48.059395 
L 260.06902 50.100049 
L 260.213308 49.518479 
L 260.357597 51.868481 
L 260.501885 50.549384 
L 260.646174 52.694767 
L 260.790463 52.354922 
L 260.934751 52.384412 
L 261.800483 55.351014 
L 261.944771 54.497122 
L 262.08906 55.129255 
L 262.377637 57.374825 
L 262.521926 56.861817 
L 262.954791 58.770237 
L 263.243368 58.598868 
L 263.387657 58.204364 
L 263.964811 60.994708 
L 264.1091 60.217994 
L 264.397677 62.714852 
L 264.541966 62.143296 
L 264.830543 63.732283 
L 264.974831 62.210012 
L 265.11912 63.620759 
L 265.263409 62.934574 
L 265.840563 66.067032 
L 265.984851 65.034786 
L 266.12914 66.219379 
L 266.273429 65.52168 
L 266.417717 66.813287 
L 266.562006 66.712667 
L 266.706294 66.712573 
L 266.850583 67.971576 
L 266.994871 67.283616 
L 267.13916 68.650988 
L 267.283449 68.404597 
L 267.427737 68.568457 
L 267.572026 69.17231 
L 267.716314 67.843025 
L 267.860603 70.042806 
L 268.004891 68.527164 
L 268.14918 69.299803 
L 268.293469 68.835963 
L 268.437757 69.858734 
L 268.582046 69.800556 
L 268.726334 69.700421 
L 268.870623 70.01573 
L 269.014912 71.496135 
L 269.1592 70.999072 
L 269.303489 71.571515 
L 269.447777 70.464421 
L 269.736354 71.685106 
L 269.880643 71.533853 
L 270.024932 72.817675 
L 270.16922 71.425561 
L 270.457797 73.305245 
L 270.746374 72.38668 
L 271.034952 73.759667 
L 271.17924 71.954676 
L 271.323529 72.65582 
L 271.467817 73.839329 
L 271.612106 72.857103 
L 271.756394 74.042833 
L 271.900683 73.990813 
L 272.044972 74.134083 
L 272.333549 72.387679 
L 272.622126 74.2159 
L 272.766415 74.140132 
L 273.054992 73.026619 
L 273.19928 73.159311 
L 273.343569 74.389664 
L 273.487857 73.167746 
L 273.632146 74.282079 
L 273.776435 72.979729 
L 273.920723 73.550612 
L 274.065012 72.177522 
L 274.2093 72.289119 
L 274.353589 72.470502 
L 274.497877 72.230159 
L 274.930743 73.466896 
L 275.075032 72.525821 
L 275.21932 73.076976 
L 275.363609 71.671925 
L 275.507897 72.886344 
L 275.652186 72.799169 
L 275.940763 70.764282 
L 276.22934 72.107907 
L 276.373629 71.08542 
L 276.517918 71.742779 
L 276.662206 71.227387 
L 276.806495 69.700841 
L 276.950783 71.331723 
L 277.095072 71.164217 
L 277.23936 70.817959 
L 277.672226 68.443963 
L 277.816515 69.376142 
L 277.960803 69.054353 
L 278.105092 68.976166 
L 278.393669 67.252695 
L 278.537958 68.518214 
L 278.826535 66.661925 
L 278.970823 66.430209 
L 279.115112 67.361117 
L 279.403689 65.852114 
L 279.547978 66.691638 
L 279.836555 64.582565 
L 279.980843 65.761723 
L 280.269421 63.91654 
L 280.413709 64.418048 
L 280.557998 64.372608 
L 280.846575 62.177906 
L 280.990863 62.272201 
L 281.135152 62.628542 
L 281.423729 62.120695 
L 281.568018 60.998486 
L 281.712306 61.451585 
L 282.145172 60.390262 
L 282.289461 58.798937 
L 282.433749 58.954473 
L 282.866615 57.15418 
L 283.010904 57.225551 
L 283.299481 55.465245 
L 283.443769 56.619768 
L 283.588058 56.23291 
L 284.165212 53.385395 
L 284.453789 54.220878 
L 284.742366 51.634748 
L 285.608098 49.086054 
L 285.752386 49.776034 
L 285.896675 48.545531 
L 286.040964 49.393997 
L 286.329541 47.183002 
L 286.473829 48.002163 
L 286.618118 47.704969 
L 286.906695 45.951555 
L 287.050984 46.209934 
L 287.339561 45.008 
L 287.483849 46.041246 
L 287.916715 43.155129 
L 288.061004 44.108426 
L 288.349581 41.740614 
L 288.638158 42.747462 
L 288.926735 40.347725 
L 289.215312 41.395765 
L 289.503889 39.381362 
L 289.648178 40.774921 
L 289.936755 38.482121 
L 290.081044 38.856726 
L 290.369621 37.400929 
L 290.51391 37.601292 
L 290.802487 37.000949 
L 290.946775 37.982129 
L 291.235352 36.026387 
L 291.379641 37.040424 
L 291.52393 35.303315 
L 291.812507 36.461135 
L 292.101084 34.894688 
L 292.245372 34.767417 
L 292.53395 35.067158 
L 292.678238 34.205699 
L 292.966815 34.720807 
L 293.111104 32.604812 
L 293.255392 33.481474 
L 293.399681 32.261264 
L 293.688258 33.08638 
L 293.976835 31.685138 
L 294.121124 33.025254 
L 294.265413 32.743911 
L 294.409701 32.134036 
L 294.55399 32.546032 
L 294.698278 31.851744 
L 294.842567 31.925182 
L 294.986855 31.988179 
L 295.131144 31.788194 
L 295.275433 30.413191 
L 295.56401 32.28195 
L 295.708298 30.197904 
L 295.852587 30.537133 
L 295.996875 31.526484 
L 296.141164 31.276242 
L 296.285453 30.575745 
L 296.429741 31.385945 
L 296.57403 31.20124 
L 296.718318 31.348031 
L 297.006895 30.968998 
L 297.151184 30.098111 
L 297.295473 31.527792 
L 297.439761 30.567656 
L 297.728338 31.957771 
L 298.016916 30.579946 
L 298.161204 31.737816 
L 298.305493 30.646895 
L 298.449781 32.140273 
L 298.59407 31.946899 
L 298.882647 31.275368 
L 299.026936 31.537282 
L 299.171224 32.540891 
L 299.315513 31.662862 
L 299.748378 33.411762 
L 300.036956 32.088734 
L 300.181244 32.41847 
L 300.469821 33.893267 
L 300.758399 32.755996 
L 301.191264 35.393356 
L 301.335553 34.679002 
L 301.62413 35.830108 
L 301.768419 34.60829 
L 301.912707 34.754587 
L 302.056996 35.410761 
L 302.201284 37.099595 
L 302.345573 36.701954 
L 302.489861 35.713328 
L 302.63415 35.836438 
L 303.067016 37.594511 
L 303.355593 38.525329 
L 303.499881 38.329606 
L 303.64417 39.880365 
L 303.932747 38.972096 
L 304.077036 40.623831 
L 304.221324 40.547904 
L 304.509902 41.798926 
L 304.65419 41.788165 
L 304.798479 42.568811 
L 304.942767 41.240231 
L 305.231344 42.277165 
L 305.375633 41.989552 
L 305.519922 43.402612 
L 305.66421 43.373549 
L 305.808499 43.510961 
L 305.952787 45.23313 
L 306.097076 44.423825 
L 306.241364 44.699945 
L 306.385653 45.491112 
L 306.529942 45.095129 
L 306.67423 46.384932 
L 306.818519 45.984091 
L 307.539962 47.94885 
L 307.828539 49.595041 
L 307.972827 49.338825 
L 308.405693 51.678614 
L 308.549982 51.649903 
L 309.271425 54.496724 
L 309.415713 53.09886 
L 309.560002 54.798893 
L 309.70429 54.77938 
L 309.992867 56.285072 
L 310.137156 54.865135 
L 310.570022 57.472107 
L 311.147176 59.331836 
L 311.291465 57.96193 
L 312.301485 62.50295 
L 312.590062 61.605359 
L 313.022928 62.895212 
L 313.167216 63.00191 
L 313.74437 65.307868 
L 313.888659 66.096797 
L 314.177236 65.419747 
L 314.321525 65.475272 
L 314.610102 67.812433 
L 314.75439 67.236118 
L 315.187256 68.780261 
L 315.331545 67.7093 
L 315.475833 69.259402 
L 315.620122 68.656945 
L 315.764411 67.954359 
L 315.908699 68.429617 
L 316.197276 70.580312 
L 316.341565 69.721977 
L 316.774431 70.762704 
L 316.918719 69.846093 
L 317.063008 71.569165 
L 317.207296 70.312844 
L 317.351585 70.345038 
L 317.495873 70.5934 
L 317.784451 72.08389 
L 317.928739 71.022643 
L 318.073028 71.182498 
L 318.361605 73.063809 
L 318.505893 72.085461 
L 318.650182 72.719168 
L 318.794471 72.620136 
L 318.938759 72.462395 
L 319.083048 71.935276 
L 319.371625 73.209925 
L 319.515914 73.648094 
L 319.804491 73.106066 
L 319.948779 73.265627 
L 320.093068 74.116703 
L 320.237356 72.56649 
L 320.525934 74.474943 
L 320.670222 73.643334 
L 320.958799 74.403577 
L 321.391665 72.735858 
L 321.680242 73.945121 
L 321.680242 73.945121 
" clip-path="url(#p5b9945b72d)" style="fill: none; stroke: #cc3164; stroke-width: 1.5; stroke-linecap: square"/>
   </g>
   <g id="patch_11">
    <path d="M 242.480242 74.474943 
L 242.480242 29.976496 
" style="fill: none; stroke: #4d4f53; stroke-width: 0.8; stroke-linejoin: miter; stroke-linecap: square"/>
   </g>
   <g id="patch_12">
    <path d="M 249.680242 78.924787 
L 321.680242 78.924787 
" style="fill: none; stroke: #4d4f53; stroke-width: 0.8; stroke-linejoin: miter; stroke-linecap: square"/>
   </g>
   <g id="legend_3">
    <g id="patch_13">
     <path d="M 333.138242 72.218695 
L 366.208342 72.218695 
L 366.208342 32.232743 
L 333.138242 32.232743 
L 333.138242 72.218695 
z
" style="fill: none; opacity: 0"/>
    </g>
    <g id="text_25">
     <!-- title -->
     <g style="fill: #4d4f53" transform="translate(341.530717 42.727241) scale(0.0833 -0.0833)">
      <use xlink:href="#DejaVuSans-57"/>
      <use xlink:href="#DejaVuSans-4c" transform="translate(39.203125 0)"/>
      <use xlink:href="#DejaVuSans-57" transform="translate(66.984375 0)"/>
      <use xlink:href="#DejaVuSans-4f" transform="translate(106.1875 0)"/>
      <use xlink:href="#DejaVuSans-48" transform="translate(133.96875 0)"/>
     </g>
    </g>
    <g id="line2d_29">
     <path d="M 337.303242 51.474392 
L 343.134242 51.474392 
L 348.965242 51.474392 
" style="fill: none; stroke: #3362b0; stroke-width: 1.5; stroke-linecap: square"/>
    </g>
    <g id="text_26">
     <!-- $x_1$ -->
     <g style="fill: #4d4f53" transform="translate(353.130242 54.389892) scale(0.0833 -0.0833)">
      <use xlink:href="#DejaVuSans-Oblique-5b" transform="translate(0 0.3125)"/>
      <use xlink:href="#DejaVuSans-14" transform="translate(59.179688 -14.687451) scale(0.7)"/>
     </g>
    </g>
    <g id="line2d_30">
     <path d="M 337.303242 63.137043 
L 343.134242 63.137043 
L 348.965242 63.137043 
" style="fill: none; stroke: #cc3164; stroke-width: 1.5; stroke-linecap: square"/>
    </g>
    <g id="text_27">
     <!-- $x_2$ -->
     <g style="fill: #4d4f53" transform="translate(353.130242 66.052543) scale(0.0833 -0.0833)">
      <use xlink:href="#DejaVuSans-Oblique-5b" transform="translate(0 0.3125)"/>
      <use xlink:href="#DejaVuSans-15" transform="translate(59.179688 -14.687451) scale(0.7)"/>
     </g>
    </g>
   </g>
  </g>
 </g>
 <defs>
  <clipPath id="pa3d5a2b3d8">
   <rect x="26.480242" y="25.526651" width="86.4" height="53.398137"/>
  </clipPath>
  <clipPath id="p0364d70204">
   <rect x="134.480242" y="25.526651" width="86.4" height="53.398137"/>
  </clipPath>
  <clipPath id="p5b9945b72d">
   <rect x="242.480242" y="25.526651" width="86.4" height="53.398137"/>
  </clipPath>
 </defs>
</svg>
