<?xml version="1.0" encoding="utf-8" standalone="no"?>
<!DOCTYPE svg PUBLIC "-//W3C//DTD SVG 1.1//EN"
  "http://www.w3.org/Graphics/SVG/1.1/DTD/svg11.dtd">
<svg xmlns:xlink="http://www.w3.org/1999/xlink" width="133.466968pt" height="106.802932pt" viewBox="0 0 133.466968 106.802932" xmlns="http://www.w3.org/2000/svg" version="1.1">
 <metadata>
  <rdf:RDF xmlns:dc="http://purl.org/dc/elements/1.1/" xmlns:cc="http://creativecommons.org/ns#" xmlns:rdf="http://www.w3.org/1999/02/22-rdf-syntax-ns#">
   <cc:Work>
    <dc:type rdf:resource="http://purl.org/dc/dcmitype/StillImage"/>
    <dc:date>2023-03-06T21:52:07.097591</dc:date>
    <dc:format>image/svg+xml</dc:format>
    <dc:creator>
     <cc:Agent>
      <dc:title>Matplotlib v3.7.0, https://matplotlib.org/</dc:title>
     </cc:Agent>
    </dc:creator>
   </cc:Work>
  </rdf:RDF>
 </metadata>
 <defs>
  <style type="text/css">*{stroke-linejoin: round; stroke-linecap: butt}</style>
 </defs>
 <g id="figure_1">
  <g id="patch_1">
   <path d="M 0 106.802932 
L 133.466968 106.802932 
L 133.466968 0 
L 0 0 
L 0 106.802932 
z
" style="fill: none"/>
  </g>
  <g id="axes_1">
   <g id="patch_2">
    <path d="M 25.466968 85.272434 
L 126.266968 85.272434 
L 126.266968 22.974608 
L 25.466968 22.974608 
L 25.466968 85.272434 
z
" style="fill: none"/>
   </g>
   <g id="matplotlib.axis_1">
    <g id="xtick_1">
     <g id="line2d_1">
      <path d="M 30.048786 85.272434 
L 30.048786 22.974608 
" clip-path="url(#pb3ef3b838e)" style="fill: none; stroke-dasharray: 2.96,1.28; stroke-dashoffset: 0; stroke: #dddfe5; stroke-width: 0.8"/>
     </g>
     <g id="line2d_2">
      <defs>
       <path id="m35d447d6f0" d="M 0 0 
L 0 3.5 
" style="stroke: #4d4f53; stroke-width: 0.8"/>
      </defs>
      <g>
       <use xlink:href="#m35d447d6f0" x="30.048786" y="85.272434" style="fill: #4d4f53; stroke: #4d4f53; stroke-width: 0.8"/>
      </g>
     </g>
     <g id="text_1">
      <!-- $\mathdefault{0}$ -->
      <g style="fill: #4d4f53" transform="translate(27.844399 97.989323) scale(0.0833 -0.0833)">
       <defs>
        <path id="LMRoman17-Regular-30" d="M 2688 2025 
C 2688 2416 2682 3080 2413 3591 
C 2176 4039 1798 4198 1466 4198 
C 1158 4198 768 4058 525 3597 
C 269 3118 243 2524 243 2025 
C 243 1661 250 1106 448 619 
C 723 -39 1216 -128 1466 -128 
C 1760 -128 2208 -7 2470 600 
C 2662 1042 2688 1559 2688 2025 
z
M 2278 2096 
C 2278 1680 2278 1169 2202 792 
C 2067 95 1690 -26 1466 -26 
C 1056 -26 813 325 723 812 
C 653 1188 653 1738 653 2096 
C 653 2588 653 2997 736 3387 
C 858 3929 1216 4096 1466 4096 
C 1728 4096 2067 3923 2189 3400 
C 2272 3036 2278 2607 2278 2096 
z
" transform="scale(0.015625)"/>
       </defs>
       <use xlink:href="#LMRoman17-Regular-30" transform="scale(0.996264)"/>
      </g>
     </g>
    </g>
    <g id="xtick_2">
     <g id="line2d_3">
      <path d="M 78.663387 85.272434 
L 78.663387 22.974608 
" clip-path="url(#pb3ef3b838e)" style="fill: none; stroke-dasharray: 2.96,1.28; stroke-dashoffset: 0; stroke: #dddfe5; stroke-width: 0.8"/>
     </g>
     <g id="line2d_4">
      <g>
       <use xlink:href="#m35d447d6f0" x="78.663387" y="85.272434" style="fill: #4d4f53; stroke: #4d4f53; stroke-width: 0.8"/>
      </g>
     </g>
     <g id="text_2">
      <!-- $\mathdefault{5}$ -->
      <g style="fill: #4d4f53" transform="translate(76.459 97.989323) scale(0.0833 -0.0833)">
       <defs>
        <path id="LMRoman17-Regular-35" d="M 2669 1264 
C 2669 2030 2170 2624 1549 2624 
C 1222 2624 947 2503 730 2274 
L 730 3692 
C 794 3666 1056 3584 1325 3584 
C 1920 3584 2246 3911 2432 4100 
C 2432 4157 2432 4192 2394 4192 
C 2394 4192 2374 4192 2323 4163 
C 2099 4058 1837 3973 1517 3973 
C 1325 3973 1037 3999 723 4139 
C 653 4171 634 4171 634 4171 
C 602 4171 595 4164 595 4037 
L 595 2203 
C 595 2089 595 2057 659 2057 
C 691 2057 704 2070 736 2114 
C 941 2401 1222 2522 1542 2522 
C 1766 2522 2246 2382 2246 1289 
C 2246 1085 2246 715 2054 421 
C 1894 159 1645 25 1370 25 
C 947 25 518 320 403 814 
C 429 807 480 795 506 795 
C 589 795 749 840 749 1038 
C 749 1210 627 1280 506 1280 
C 358 1280 262 1190 262 1011 
C 262 454 704 -128 1382 -128 
C 2042 -128 2669 440 2669 1264 
z
" transform="scale(0.015625)"/>
       </defs>
       <use xlink:href="#LMRoman17-Regular-35" transform="scale(0.996264)"/>
      </g>
     </g>
    </g>
   </g>
   <g id="matplotlib.axis_2">
    <g id="ytick_1">
     <g id="line2d_5">
      <path d="M 25.466968 82.465766 
L 126.266968 82.465766 
" clip-path="url(#pb3ef3b838e)" style="fill: none; stroke-dasharray: 2.96,1.28; stroke-dashoffset: 0; stroke: #dddfe5; stroke-width: 0.8"/>
     </g>
     <g id="line2d_6">
      <defs>
       <path id="m07ab552ffa" d="M 0 0 
L -3.5 0 
" style="stroke: #4d4f53; stroke-width: 0.8"/>
      </defs>
      <g>
       <use xlink:href="#m07ab552ffa" x="25.466968" y="82.465766" style="fill: #4d4f53; stroke: #4d4f53; stroke-width: 0.8"/>
      </g>
     </g>
     <g id="text_3">
      <!-- $\mathdefault{−1}$ -->
      <g style="fill: #4d4f53" transform="translate(7.2 85.32421) scale(0.0833 -0.0833)">
       <defs>
        <path id="LMMathSymbols10-Regular-0" d="M 4442 1600 
C 4442 1728 4320 1728 4230 1728 
L 742 1728 
C 653 1728 531 1728 531 1600 
C 531 1472 653 1472 742 1472 
L 4230 1472 
C 4320 1472 4442 1472 4442 1600 
z
" transform="scale(0.015625)"/>
        <path id="LMRoman17-Regular-31" d="M 2458 0 
L 2458 160 
L 2266 160 
C 1715 160 1702 230 1702 458 
L 1702 4058 
C 1702 4192 1696 4192 1606 4192 
C 1357 3916 979 3827 621 3827 
C 602 3827 570 3827 563 3808 
C 557 3795 557 3782 557 3648 
C 755 3648 1088 3686 1344 3839 
L 1344 461 
C 1344 236 1331 160 781 160 
L 589 160 
L 589 0 
L 1523 0 
L 2458 0 
z
" transform="scale(0.015625)"/>
       </defs>
       <use xlink:href="#LMMathSymbols10-Regular-0" transform="scale(0.996264)"/>
       <use xlink:href="#LMRoman17-Regular-31" transform="translate(77.487468 0) scale(0.996264)"/>
      </g>
     </g>
    </g>
    <g id="ytick_2">
     <g id="line2d_7">
      <path d="M 25.466968 55.480011 
L 126.266968 55.480011 
" clip-path="url(#pb3ef3b838e)" style="fill: none; stroke-dasharray: 2.96,1.28; stroke-dashoffset: 0; stroke: #dddfe5; stroke-width: 0.8"/>
     </g>
     <g id="line2d_8">
      <g>
       <use xlink:href="#m07ab552ffa" x="25.466968" y="55.480011" style="fill: #4d4f53; stroke: #4d4f53; stroke-width: 0.8"/>
      </g>
     </g>
     <g id="text_4">
      <!-- $\mathdefault{0}$ -->
      <g style="fill: #4d4f53" transform="translate(14.058193 58.338456) scale(0.0833 -0.0833)">
       <use xlink:href="#LMRoman17-Regular-30" transform="scale(0.996264)"/>
      </g>
     </g>
    </g>
    <g id="ytick_3">
     <g id="line2d_9">
      <path d="M 25.466968 28.494257 
L 126.266968 28.494257 
" clip-path="url(#pb3ef3b838e)" style="fill: none; stroke-dasharray: 2.96,1.28; stroke-dashoffset: 0; stroke: #dddfe5; stroke-width: 0.8"/>
     </g>
     <g id="line2d_10">
      <g>
       <use xlink:href="#m07ab552ffa" x="25.466968" y="28.494257" style="fill: #4d4f53; stroke: #4d4f53; stroke-width: 0.8"/>
      </g>
     </g>
     <g id="text_5">
      <!-- $\mathdefault{1}$ -->
      <g style="fill: #4d4f53" transform="translate(14.058193 31.352701) scale(0.0833 -0.0833)">
       <use xlink:href="#LMRoman17-Regular-31" transform="scale(0.996264)"/>
      </g>
     </g>
    </g>
   </g>
   <g id="line2d_11">
    <path d="M 30.048786 35.26292 
L 30.783346 32.963841 
L 30.966986 33.342339 
L 31.150626 31.109265 
L 31.334266 31.467597 
L 31.517906 32.843784 
L 31.885186 30.90221 
L 32.068826 31.994687 
L 32.252466 29.420141 
L 32.436107 30.628751 
L 32.803387 29.208248 
L 32.987027 30.15242 
L 33.354307 29.128935 
L 33.537947 28.456582 
L 33.721587 29.812419 
L 33.905227 29.36184 
L 34.088867 28.160131 
L 34.272507 28.458815 
L 34.456147 29.172817 
L 34.639787 28.396562 
L 34.823427 28.839933 
L 35.190707 26.89128 
L 35.374347 28.531666 
L 35.557987 26.351593 
L 35.741627 27.700074 
L 36.108907 27.325048 
L 36.292547 28.601547 
L 36.659827 25.875526 
L 37.027107 28.164588 
L 37.394387 26.624388 
L 37.578027 28.496089 
L 37.761667 27.525973 
L 37.945307 28.392079 
L 38.128947 26.458017 
L 38.312587 27.691485 
L 38.496227 26.79639 
L 38.679867 27.43298 
L 38.863507 26.209156 
L 39.414427 27.595815 
L 39.598067 26.541433 
L 39.965347 29.44971 
L 40.148987 29.389919 
L 40.332627 27.247224 
L 40.516267 27.314279 
L 40.883547 29.368647 
L 41.067187 28.525242 
L 41.250827 30.64268 
L 41.434467 28.826303 
L 41.618107 29.279048 
L 41.801747 30.799432 
L 42.169027 29.32538 
L 42.352667 31.594723 
L 42.536307 29.831406 
L 42.719947 31.678099 
L 42.903587 30.936508 
L 43.087227 32.390971 
L 43.270867 31.995834 
L 43.454507 33.214224 
L 43.638147 32.73524 
L 44.005427 33.561073 
L 44.189067 32.820088 
L 44.372707 33.960284 
L 44.556347 33.679926 
L 44.739987 33.8424 
L 44.923627 35.389652 
L 45.107267 34.246159 
L 45.290907 35.146508 
L 45.474547 35.024925 
L 45.841827 36.955606 
L 46.025467 36.172733 
L 46.576387 39.191083 
L 46.760027 37.695829 
L 47.310947 40.898819 
L 47.494587 40.815184 
L 48.045507 42.981288 
L 48.229147 41.931957 
L 48.412787 44.163448 
L 48.596427 44.072462 
L 48.963707 43.124503 
L 49.330987 45.501993 
L 49.514627 44.780115 
L 49.698267 44.891104 
L 50.065547 47.497457 
L 50.249187 47.15797 
L 50.616467 49.952324 
L 50.800107 49.596452 
L 50.983747 49.732401 
L 51.167387 51.4139 
L 51.351027 49.579711 
L 52.452867 54.759119 
L 52.636507 54.964822 
L 52.820147 54.276219 
L 53.003787 55.327914 
L 53.187427 54.608275 
L 53.738347 58.153786 
L 54.105627 58.500147 
L 54.289267 59.963568 
L 54.472907 58.955484 
L 54.656547 61.013391 
L 54.840187 59.71529 
L 55.023827 60.381833 
L 55.207467 62.63196 
L 55.391107 61.086286 
L 55.574747 62.71926 
L 55.758387 62.022802 
L 55.942027 63.692605 
L 56.125667 63.510193 
L 56.309307 65.087367 
L 56.492947 63.738915 
L 56.676587 65.758721 
L 56.860227 64.943657 
L 57.043867 65.891948 
L 57.227507 65.438423 
L 57.778428 68.987611 
L 57.962068 67.062942 
L 58.329348 70.101386 
L 58.512988 69.098332 
L 58.880268 70.259825 
L 59.063908 69.704148 
L 59.247548 70.122043 
L 59.431188 72.229864 
L 59.614828 71.382803 
L 60.165748 74.284076 
L 60.349388 74.247243 
L 60.533028 73.425785 
L 60.716668 74.726608 
L 60.900308 74.64232 
L 61.083948 75.233932 
L 61.451228 75.039376 
L 61.634868 74.553537 
L 61.818508 77.327101 
L 62.002148 76.207956 
L 62.185788 76.265025 
L 62.369428 77.843671 
L 62.553068 76.579696 
L 62.736708 77.779211 
L 62.920348 77.6725 
L 63.103988 77.736417 
L 63.287628 77.251173 
L 63.654908 78.279257 
L 64.022188 80.263276 
L 64.389468 78.648525 
L 64.573108 79.038051 
L 64.756748 80.569422 
L 64.940388 80.522204 
L 65.124028 80.820977 
L 65.491308 79.898384 
L 65.858588 81.137383 
L 66.225868 79.784485 
L 66.409508 80.687369 
L 66.593148 80.281752 
L 66.776788 81.128511 
L 67.144068 80.16745 
L 67.327708 82.380194 
L 67.511348 80.469923 
L 67.694988 80.526188 
L 68.062268 80.338838 
L 68.245908 79.915793 
L 68.613188 81.879569 
L 68.980468 79.615184 
L 69.347748 79.817375 
L 69.715028 81.95669 
L 70.082308 79.786506 
L 70.265948 79.734431 
L 70.449588 81.092791 
L 70.633228 81.058165 
L 70.816868 80.797356 
L 71.000508 78.851776 
L 71.367788 80.248356 
L 71.551428 78.84347 
L 71.735068 80.251434 
L 72.102348 79.639978 
L 72.469628 77.827803 
L 72.653268 77.708284 
L 73.020548 76.747924 
L 73.387828 77.988406 
L 73.571468 76.595456 
L 73.755108 76.814424 
L 73.938748 76.643561 
L 74.489668 73.98948 
L 74.673308 74.88818 
L 75.040588 73.258545 
L 75.224228 74.044308 
L 75.591508 71.722878 
L 75.775148 73.444887 
L 76.142428 71.314695 
L 76.326068 72.512602 
L 76.693348 70.092249 
L 78.162468 66.439162 
L 78.346108 67.645372 
L 78.529748 66.004822 
L 78.713388 66.852393 
L 78.897028 64.659074 
L 79.080668 66.326168 
L 79.447948 65.420069 
L 79.815228 63.083968 
L 79.998868 63.962472 
L 80.182508 63.480606 
L 80.549788 60.553317 
L 80.733428 61.456223 
L 81.100708 58.809604 
L 81.284348 58.347216 
L 81.467988 58.588968 
L 82.018908 56.580191 
L 82.202548 56.968391 
L 82.753469 54.342025 
L 82.937109 55.089393 
L 83.120749 54.109116 
L 83.304389 54.495188 
L 84.038949 51.236944 
L 84.222589 52.338606 
L 84.406229 51.669465 
L 84.589869 49.415291 
L 84.773509 49.761615 
L 84.957149 47.838226 
L 85.140789 49.624526 
L 85.875349 45.337632 
L 86.058989 46.961375 
L 86.426269 44.780124 
L 86.793549 45.439864 
L 86.977189 43.52474 
L 87.160829 44.119196 
L 87.344469 42.030832 
L 87.528109 42.673863 
L 87.711749 42.362845 
L 88.079029 40.658193 
L 88.262669 41.06054 
L 88.446309 39.445 
L 88.629949 39.942279 
L 88.813589 38.538141 
L 88.997229 40.060578 
L 89.180869 37.307514 
L 89.731789 38.486252 
L 90.282709 34.878603 
L 90.466349 35.37758 
L 90.833629 35.160323 
L 91.017269 33.668059 
L 91.200909 34.007412 
L 91.384549 33.226006 
L 91.751829 34.267248 
L 91.935469 31.586413 
L 92.119109 33.858457 
L 92.486389 32.226838 
L 92.670029 32.414175 
L 92.853669 32.063775 
L 93.220949 30.599296 
L 93.404589 30.352852 
L 93.588229 29.688683 
L 93.771869 30.924356 
L 93.955509 28.864264 
L 94.139149 29.272531 
L 94.322789 30.720185 
L 94.506429 29.027999 
L 94.690069 29.425669 
L 94.873709 29.32919 
L 95.057349 29.545197 
L 95.424629 27.118004 
L 95.608269 28.856108 
L 95.791909 27.696863 
L 95.975549 28.154965 
L 96.159189 28.044464 
L 96.342829 28.815782 
L 96.526469 28.319677 
L 96.710109 26.562231 
L 96.893749 28.508498 
L 97.261029 26.752894 
L 97.628309 27.851306 
L 97.811949 25.989788 
L 97.995589 26.062889 
L 98.179229 26.854921 
L 98.546509 25.834552 
L 98.730149 26.139769 
L 98.913789 27.177382 
L 99.097429 26.371614 
L 99.281069 26.454986 
L 99.464709 28.174018 
L 99.648349 27.074126 
L 99.831989 28.518718 
L 100.015629 28.244457 
L 100.199269 28.563993 
L 100.566549 27.932466 
L 100.750189 28.473155 
L 101.117469 27.182133 
L 101.484749 29.678048 
L 101.668389 27.546162 
L 101.852029 29.250912 
L 102.219309 28.02435 
L 102.402949 28.554925 
L 102.586589 30.778032 
L 102.770229 30.076961 
L 102.953869 30.696564 
L 103.137509 29.885268 
L 103.321149 30.320178 
L 103.504789 29.619041 
L 103.688429 31.313089 
L 103.872069 30.383031 
L 104.422989 32.727801 
L 104.606629 31.890763 
L 104.790269 32.559296 
L 104.973909 31.794648 
L 105.341189 34.431097 
L 105.524829 33.532786 
L 105.708469 33.964122 
L 105.892109 33.617952 
L 106.075749 33.97038 
L 106.259389 36.140159 
L 106.443029 35.744473 
L 107.177589 38.513078 
L 107.361229 36.513141 
L 108.27943 39.411684 
L 108.46307 41.083732 
L 108.64671 39.623284 
L 108.83035 42.463547 
L 109.01399 41.311475 
L 109.19763 43.364456 
L 109.38127 41.303466 
L 109.93219 43.739431 
L 110.29947 45.868247 
L 110.48311 44.524218 
L 110.85039 47.376139 
L 111.03403 47.293445 
L 111.21767 46.04807 
L 111.58495 48.876245 
L 111.76859 49.530128 
L 111.95223 48.59678 
L 112.13587 50.813708 
L 112.31951 50.529035 
L 112.50315 49.874999 
L 112.68679 52.686526 
L 113.05407 51.097929 
L 113.23771 53.619819 
L 113.42135 52.759352 
L 113.78863 53.426324 
L 114.33955 57.085508 
L 114.52319 56.304337 
L 115.07411 57.85866 
L 115.44139 59.870062 
L 115.80867 58.647061 
L 115.99231 59.671935 
L 116.17595 61.87939 
L 116.35959 60.7309 
L 116.54323 62.524824 
L 116.72687 61.291967 
L 117.27779 64.966787 
L 117.46143 64.345987 
L 117.64507 65.941081 
L 117.82871 64.796835 
L 118.01235 66.735074 
L 118.19599 66.296021 
L 118.37963 67.350133 
L 118.56327 65.769923 
L 118.74691 68.176255 
L 118.93055 67.772115 
L 119.11419 69.747059 
L 119.29783 68.566428 
L 119.84875 70.38507 
L 120.03239 69.480545 
L 120.21603 71.787004 
L 120.39967 70.805784 
L 120.58331 70.968744 
L 121.13423 72.307978 
L 121.50151 74.68911 
L 121.68515 72.812172 
L 121.68515 72.812172 
" clip-path="url(#pb3ef3b838e)" style="fill: none; stroke: #3362b0; stroke-width: 1.5; stroke-linecap: square"/>
   </g>
   <g id="line2d_12">
    <path d="M 30.048786 28.012113 
L 30.232426 26.448446 
L 30.416066 26.593914 
L 30.599706 28.233344 
L 30.783346 26.613741 
L 30.966986 28.186161 
L 31.150626 28.144999 
L 31.517906 28.056609 
L 31.701546 28.910756 
L 31.885186 28.427378 
L 32.068826 29.155363 
L 32.252466 28.970944 
L 32.436107 27.804785 
L 32.803387 30.188997 
L 32.987027 28.817577 
L 33.170667 30.209048 
L 33.537947 28.739952 
L 33.905227 31.443755 
L 34.088867 30.988089 
L 34.272507 31.311222 
L 34.639787 32.761005 
L 34.823427 31.396574 
L 35.007067 32.063539 
L 35.190707 31.331387 
L 35.557987 32.610224 
L 36.108907 35.360842 
L 36.292547 35.122215 
L 36.476187 34.516721 
L 36.659827 36.329592 
L 37.027107 35.258897 
L 37.210747 37.56391 
L 37.394387 35.654841 
L 38.496227 39.773786 
L 38.679867 39.072864 
L 38.863507 41.250672 
L 39.047147 39.238058 
L 39.414427 42.57324 
L 39.598067 42.704586 
L 39.781707 41.186875 
L 40.148987 43.743456 
L 40.332627 43.749533 
L 40.516267 45.238845 
L 40.699907 43.75661 
L 40.883547 45.530338 
L 41.067187 44.701457 
L 41.434467 47.62882 
L 41.618107 46.0897 
L 42.169027 49.144206 
L 42.352667 47.739569 
L 42.536307 49.495199 
L 42.719947 48.820927 
L 43.270867 51.418123 
L 43.454507 50.677943 
L 43.638147 53.668855 
L 43.821787 51.990004 
L 44.005427 54.720492 
L 44.372707 54.325494 
L 45.474547 58.10117 
L 45.658187 57.014398 
L 45.841827 57.818931 
L 46.209107 60.676928 
L 46.392747 60.02401 
L 46.760027 61.581839 
L 47.127307 62.458269 
L 47.494587 61.732706 
L 48.045507 64.852179 
L 48.229147 65.284052 
L 48.412787 64.295508 
L 48.780067 67.473327 
L 48.963707 66.745892 
L 49.330987 68.768239 
L 49.514627 66.830803 
L 49.698267 68.626299 
L 49.881907 67.752973 
L 50.616467 71.739738 
L 50.800107 70.425971 
L 50.983747 71.933634 
L 51.167387 71.045653 
L 51.351027 72.689517 
L 51.534667 72.561455 
L 51.718307 72.561335 
L 51.901947 74.163703 
L 52.085587 73.288118 
L 52.269227 75.028409 
L 52.452867 74.714821 
L 52.636507 74.92337 
L 52.820147 75.69191 
L 53.003787 74.000092 
L 53.187427 76.799814 
L 53.371067 74.870815 
L 53.554707 75.854174 
L 53.738347 75.263832 
L 53.921987 76.56554 
L 54.105627 76.491496 
L 54.289267 76.364051 
L 54.472907 76.765353 
L 54.656547 78.649506 
L 54.840187 78.01688 
L 55.023827 78.745443 
L 55.207467 77.336415 
L 55.574747 78.890013 
L 55.758387 78.69751 
L 55.942027 80.331465 
L 56.125667 78.559684 
L 56.492947 80.95201 
L 56.860227 79.782926 
L 57.227507 81.530364 
L 57.411147 79.233103 
L 57.778428 81.631753 
L 57.962068 80.381646 
L 58.145708 81.890757 
L 58.329348 81.82455 
L 58.512988 82.006894 
L 58.880268 79.784198 
L 59.247548 82.111024 
L 59.431188 82.014592 
L 59.798468 80.597394 
L 59.982108 80.766275 
L 60.165748 82.332179 
L 60.349388 80.77701 
L 60.533028 82.195253 
L 60.716668 80.537716 
L 60.900308 81.264295 
L 61.083948 79.516725 
L 61.267588 79.658758 
L 61.451228 79.889609 
L 61.634868 79.583718 
L 62.185788 81.157747 
L 62.369428 79.960015 
L 62.553068 80.661485 
L 62.736708 78.873238 
L 62.920348 80.418862 
L 63.103988 80.307912 
L 63.471268 77.718056 
L 63.838548 79.428124 
L 64.022188 78.126777 
L 64.205828 78.963416 
L 64.389468 78.307462 
L 64.573108 76.364586 
L 64.756748 78.440253 
L 65.124028 77.786372 
L 65.307668 76.553732 
L 65.491308 76.95078 
L 65.674948 74.764923 
L 65.858588 75.951333 
L 66.409508 74.371178 
L 66.593148 73.248764 
L 66.776788 74.859424 
L 67.144068 72.496875 
L 67.327708 72.201963 
L 67.511348 73.386755 
L 67.878628 71.466206 
L 68.062268 72.534691 
L 68.429548 69.850416 
L 68.613188 71.351162 
L 68.980468 69.002748 
L 69.164108 69.641031 
L 69.347748 69.583198 
L 69.715028 66.789941 
L 69.898668 66.909953 
L 70.082308 67.363478 
L 70.449588 66.717128 
L 70.633228 65.288861 
L 70.816868 65.865532 
L 71.367788 64.514758 
L 71.551428 62.489435 
L 71.735068 62.68739 
L 71.918708 61.557492 
L 72.102348 61.839788 
L 72.285988 60.396108 
L 72.469628 60.486944 
L 72.836908 58.246555 
L 73.020548 59.715947 
L 73.204188 59.223582 
L 73.755108 56.248327 
L 73.938748 55.599473 
L 74.306028 56.662815 
L 74.673308 53.371377 
L 75.407868 51.170372 
L 75.591508 50.858397 
L 75.775148 50.127585 
L 75.958788 51.00574 
L 76.142428 49.439645 
L 76.326068 50.519511 
L 76.693348 47.705518 
L 76.876988 48.748086 
L 77.060628 48.369839 
L 77.427908 46.138222 
L 77.611548 46.467067 
L 77.978828 44.937334 
L 78.162468 46.252374 
L 78.713388 42.579134 
L 78.897028 43.792421 
L 79.264308 40.778843 
L 79.631588 42.060285 
L 79.998868 39.006075 
L 80.366148 40.339943 
L 80.733428 37.776157 
L 80.917068 39.549778 
L 81.284348 36.631669 
L 81.467988 37.108439 
L 81.835268 35.255606 
L 82.018908 35.510614 
L 82.386188 34.746541 
L 82.569828 35.995316 
L 82.937109 33.50619 
L 83.120749 34.796782 
L 83.304389 32.585916 
L 83.671669 34.059505 
L 84.038949 32.065846 
L 84.222589 31.903865 
L 84.589869 32.285352 
L 84.773509 31.18895 
L 85.140789 31.844542 
L 85.324429 29.151457 
L 85.508069 30.267209 
L 85.691709 28.714215 
L 86.058989 29.764362 
L 86.426269 27.980964 
L 86.609909 29.686565 
L 86.977189 28.552288 
L 87.160829 29.076647 
L 87.344469 28.193008 
L 87.528109 28.286474 
L 87.711749 28.366652 
L 87.895389 28.112126 
L 88.079029 26.362122 
L 88.446309 28.740543 
L 88.629949 26.08812 
L 88.813589 26.519867 
L 88.997229 27.779041 
L 89.180869 27.460551 
L 89.364509 26.569009 
L 89.548149 27.600173 
L 89.731789 27.365093 
L 89.915429 27.551919 
L 90.282709 27.069512 
L 90.466349 25.961111 
L 90.649989 27.780706 
L 90.833629 26.558714 
L 91.200909 28.327952 
L 91.568189 26.574356 
L 91.751829 28.048008 
L 91.935469 26.659564 
L 92.119109 28.560227 
L 92.486389 27.757173 
L 92.670029 27.459439 
L 92.853669 27.792783 
L 93.037309 29.070104 
L 93.220949 27.952612 
L 93.588229 29.648355 
L 93.771869 30.178485 
L 93.955509 29.686161 
L 94.139149 28.494631 
L 94.322789 28.914295 
L 94.690069 30.791309 
L 95.057349 29.343874 
L 95.608269 32.700514 
L 95.791909 31.791336 
L 96.159189 33.25638 
L 96.342829 31.701339 
L 96.526469 31.887535 
L 96.710109 32.722666 
L 96.893749 34.872091 
L 97.077389 34.366002 
L 97.261029 33.107751 
L 97.444669 33.264436 
L 97.811949 34.49486 
L 98.362869 36.686661 
L 98.546509 36.437559 
L 98.730149 38.411252 
L 99.097429 37.255274 
L 99.281069 39.357481 
L 99.464709 39.260848 
L 99.831989 40.853058 
L 100.015629 40.839362 
L 100.199269 41.832911 
L 100.382909 40.141991 
L 100.750189 41.461725 
L 100.933829 41.095673 
L 101.117469 42.894112 
L 101.301109 42.857124 
L 101.484749 43.032011 
L 101.668389 45.223862 
L 101.852029 44.193838 
L 102.035669 44.545264 
L 102.219309 45.552203 
L 102.402949 45.048225 
L 102.586589 46.689793 
L 102.770229 46.179631 
L 103.688429 48.680233 
L 104.055709 50.775386 
L 104.239349 50.449293 
L 104.606629 52.422473 
L 104.790269 53.427206 
L 104.973909 53.390665 
L 105.157549 54.234518 
L 105.341189 54.03057 
L 105.892109 57.013892 
L 106.075749 55.234792 
L 106.259389 57.39847 
L 106.443029 57.373636 
L 106.810309 59.289971 
L 106.993949 57.482778 
L 107.177589 59.281708 
L 107.361229 58.974838 
L 107.728509 61.295922 
L 108.27943 63.167671 
L 108.46307 61.424153 
L 108.64671 62.225449 
L 108.83035 63.992449 
L 109.01399 63.299543 
L 109.19763 63.556172 
L 109.38127 66.409288 
L 109.56491 65.529791 
L 109.74855 67.203634 
L 110.11583 66.061244 
L 110.66675 67.702877 
L 110.85039 67.838674 
L 111.58495 70.773529 
L 111.76859 71.777621 
L 112.13587 70.915921 
L 112.31951 70.986589 
L 112.68679 73.961157 
L 112.87043 73.227666 
L 113.42135 75.192938 
L 113.60499 73.829897 
L 113.78863 75.802754 
L 114.15591 74.141791 
L 114.33955 74.746664 
L 114.70683 77.483912 
L 114.89047 76.391486 
L 115.44139 77.716048 
L 115.62503 76.549451 
L 115.80867 78.742453 
L 115.99231 77.143498 
L 116.17595 77.184473 
L 116.35959 77.50057 
L 116.72687 79.397558 
L 116.91051 78.046879 
L 117.09415 78.250331 
L 117.46143 80.644726 
L 117.64507 79.399557 
L 117.82871 80.206093 
L 118.19599 79.879291 
L 118.37963 79.208412 
L 118.74691 80.830693 
L 118.93055 81.388362 
L 119.29783 80.698508 
L 119.48147 80.901586 
L 119.66511 81.984774 
L 119.84875 80.011776 
L 120.21603 82.440715 
L 120.39967 81.382304 
L 120.76695 82.349885 
L 121.31787 80.227335 
L 121.50151 80.668019 
L 121.68515 81.766396 
L 121.68515 81.766396 
" clip-path="url(#pb3ef3b838e)" style="fill: none; stroke: #cc3164; stroke-width: 1.5; stroke-linecap: square"/>
   </g>
   <g id="patch_3">
    <path d="M 25.466968 85.272434 
L 25.466968 22.974608 
" style="fill: none; stroke: #4d4f53; stroke-width: 0.8; stroke-linejoin: miter; stroke-linecap: square"/>
   </g>
   <g id="patch_4">
    <path d="M 126.266968 85.272434 
L 126.266968 22.974608 
" style="fill: none; stroke: #4d4f53; stroke-width: 0.8; stroke-linejoin: miter; stroke-linecap: square"/>
   </g>
   <g id="patch_5">
    <path d="M 25.466968 85.272434 
L 126.266968 85.272434 
" style="fill: none; stroke: #4d4f53; stroke-width: 0.8; stroke-linejoin: miter; stroke-linecap: square"/>
   </g>
   <g id="patch_6">
    <path d="M 25.466968 22.974608 
L 126.266968 22.974608 
" style="fill: none; stroke: #4d4f53; stroke-width: 0.8; stroke-linejoin: miter; stroke-linecap: square"/>
   </g>
   <g id="legend_1">
    <g id="patch_7">
     <path d="M 25.466968 22.974608 
L 126.266968 22.974608 
L 126.266968 7.2 
L 25.466968 7.2 
z
" style="fill: #ffffff; stroke: #4d4f53; stroke-width: 0.8; stroke-linejoin: miter"/>
    </g>
    <g id="text_6">
     <!-- title -->
     <g style="fill: #4d4f53" transform="translate(29.631968 17.196) scale(0.0833 -0.0833)">
      <defs>
       <path id="LMRoman17-Regular-74" d="M 1965 777 
L 1965 1140 
L 1850 1140 
L 1850 783 
C 1850 344 1677 51 1408 51 
C 1222 51 966 178 966 758 
L 966 2560 
L 1862 2560 
L 1862 2725 
L 966 2725 
L 966 3904 
L 851 3904 
C 838 3245 614 2668 70 2668 
L 70 2560 
L 627 2560 
L 627 771 
C 627 650 627 -64 1370 -64 
C 1747 -64 1965 306 1965 777 
z
" transform="scale(0.015625)"/>
       <path id="LMRoman17-Regular-69" d="M 1370 -13 
L 1370 153 
C 992 153 979 191 979 420 
L 979 2778 
L 243 2708 
L 243 2542 
C 602 2542 653 2503 653 2198 
L 653 427 
C 653 184 627 153 218 153 
L 218 -13 
C 371 0 646 0 806 0 
C 960 0 1222 0 1370 -13 
z
M 1056 3835 
C 1056 3988 934 4096 800 4096 
C 646 4096 538 3975 538 3835 
C 538 3682 659 3574 794 3574 
C 947 3574 1056 3695 1056 3835 
z
" transform="scale(0.015625)"/>
       <path id="LMRoman17-Regular-6c" d="M 1414 -13 
L 1414 153 
C 1005 153 979 178 979 426 
L 979 4396 
L 218 4326 
L 218 4160 
C 595 4160 653 4122 653 3817 
L 653 426 
C 653 184 627 153 218 153 
L 218 -13 
C 371 0 653 0 813 0 
C 979 0 1261 0 1414 -13 
z
" transform="scale(0.015625)"/>
       <path id="LMRoman17-Regular-65" d="M 2464 1576 
C 2464 2238 2118 2816 1389 2816 
C 710 2816 173 2169 173 1383 
C 173 551 781 -64 1459 -64 
C 2176 -64 2458 606 2458 739 
C 2458 784 2406 784 2406 784 
C 2362 784 2355 771 2330 695 
C 2189 265 1837 51 1504 51 
C 1229 51 954 203 781 480 
C 582 803 582 1176 582 1472 
L 2438 1472 
C 2464 1498 2464 1511 2464 1576 
z
M 2118 1568 
L 589 1568 
C 634 2505 1126 2714 1382 2714 
C 1818 2714 2112 2297 2118 1568 
z
" transform="scale(0.015625)"/>
      </defs>
      <use xlink:href="#LMRoman17-Regular-74" transform="scale(0.996264)"/>
      <use xlink:href="#LMRoman17-Regular-69" transform="translate(35.281528 0) scale(0.996264)"/>
      <use xlink:href="#LMRoman17-Regular-74" transform="translate(60.153544 0) scale(0.996264)"/>
      <use xlink:href="#LMRoman17-Regular-6c" transform="translate(95.435072 0) scale(0.996264)"/>
      <use xlink:href="#LMRoman17-Regular-65" transform="translate(120.307088 0) scale(0.996264)"/>
     </g>
    </g>
    <g id="line2d_13">
     <path d="M 59.364492 14.2805 
L 65.195492 14.2805 
L 71.026492 14.2805 
" style="fill: none; stroke: #3362b0; stroke-width: 1.5; stroke-linecap: square"/>
    </g>
    <g id="text_7">
     <!-- $x_1$ -->
     <g style="fill: #4d4f53" transform="translate(75.191492 17.196) scale(0.0833 -0.0833)">
      <defs>
       <path id="LMMathItalic12-Regular-78" d="M 3072 913 
C 3072 945 3046 971 3008 971 
C 2950 971 2944 939 2925 888 
C 2752 326 2381 64 2093 64 
C 1869 64 1747 230 1747 492 
C 1747 632 1773 734 1875 1156 
L 2099 2024 
C 2195 2408 2413 2689 2707 2689 
C 2707 2689 2899 2689 3034 2606 
C 2829 2567 2752 2414 2752 2293 
C 2752 2139 2874 2088 2963 2088 
C 3155 2088 3290 2254 3290 2427 
C 3290 2695 2982 2816 2714 2816 
C 2323 2816 2106 2433 2048 2312 
C 1901 2816 1504 2816 1389 2816 
C 736 2816 390 1980 390 1839 
C 390 1814 416 1782 461 1782 
C 512 1782 525 1820 538 1846 
C 755 2555 1184 2689 1370 2689 
C 1658 2689 1715 2420 1715 2267 
C 1715 2127 1677 1980 1600 1673 
L 1382 798 
C 1286 415 1101 64 762 64 
C 730 64 570 64 435 147 
C 666 192 717 383 717 460 
C 717 588 621 664 499 664 
C 346 664 179 530 179 326 
C 179 57 480 -64 755 -64 
C 1062 -64 1280 179 1414 441 
C 1517 64 1837 -64 2074 -64 
C 2726 -64 3072 773 3072 913 
z
" transform="scale(0.015625)"/>
      </defs>
      <use xlink:href="#LMMathItalic12-Regular-78" transform="scale(0.996264)"/>
      <use xlink:href="#LMRoman17-Regular-31" transform="translate(55.43406 -14.943915) scale(0.697382)"/>
     </g>
    </g>
    <g id="line2d_14">
     <path d="M 97.761392 14.2805 
L 103.592392 14.2805 
L 109.423392 14.2805 
" style="fill: none; stroke: #cc3164; stroke-width: 1.5; stroke-linecap: square"/>
    </g>
    <g id="text_8">
     <!-- $x_2$ -->
     <g style="fill: #4d4f53" transform="translate(113.588392 17.196) scale(0.0833 -0.0833)">
      <defs>
       <path id="LMRoman17-Regular-32" d="M 2669 989 
L 2554 989 
C 2490 536 2438 459 2413 420 
C 2381 369 1920 369 1830 369 
L 602 369 
L 1824 1597 
C 2214 1967 2669 2402 2669 3035 
C 2669 3790 2067 4224 1395 4224 
C 691 4224 262 3604 262 3030 
C 262 2780 448 2748 525 2748 
C 589 2748 781 2787 781 3010 
C 781 3207 614 3264 525 3264 
C 486 3264 448 3258 422 3245 
C 544 3790 915 4058 1306 4058 
C 1862 4058 2227 3617 2227 3035 
C 2227 2479 1901 2000 1536 1584 
L 262 146 
L 262 0 
L 2515 0 
L 2669 989 
z
" transform="scale(0.015625)"/>
      </defs>
      <use xlink:href="#LMMathItalic12-Regular-78" transform="scale(0.996264)"/>
      <use xlink:href="#LMRoman17-Regular-32" transform="translate(55.43406 -14.943915) scale(0.697382)"/>
     </g>
    </g>
   </g>
  </g>
 </g>
 <defs>
  <clipPath id="pb3ef3b838e">
   <rect x="25.466968" y="22.974608" width="100.8" height="62.297826"/>
  </clipPath>
 </defs>
</svg>
