<?xml version="1.0" encoding="utf-8" standalone="no"?>
<!DOCTYPE svg PUBLIC "-//W3C//DTD SVG 1.1//EN"
  "http://www.w3.org/Graphics/SVG/1.1/DTD/svg11.dtd">
<svg xmlns:xlink="http://www.w3.org/1999/xlink" width="134.480242pt" height="108.151582pt" viewBox="0 0 134.480242 108.151582" xmlns="http://www.w3.org/2000/svg" version="1.1">
 <metadata>
  <rdf:RDF xmlns:dc="http://purl.org/dc/elements/1.1/" xmlns:cc="http://creativecommons.org/ns#" xmlns:rdf="http://www.w3.org/1999/02/22-rdf-syntax-ns#">
   <cc:Work>
    <dc:type rdf:resource="http://purl.org/dc/dcmitype/StillImage"/>
    <dc:date>2025-08-12T06:26:56.166466</dc:date>
    <dc:format>image/svg+xml</dc:format>
    <dc:creator>
     <cc:Agent>
      <dc:title>Matplotlib v3.10.5, https://matplotlib.org/</dc:title>
     </cc:Agent>
    </dc:creator>
   </cc:Work>
  </rdf:RDF>
 </metadata>
 <defs>
  <style type="text/css">*{stroke-linejoin: round; stroke-linecap: butt}</style>
 </defs>
 <g id="figure_1">
  <g id="patch_1">
   <path d="M -0 108.151582 
L 134.480242 108.151582 
L 134.480242 0 
L -0 0 
L -0 108.151582 
z
" style="fill: none"/>
  </g>
  <g id="axes_1">
   <g id="patch_2">
    <path d="M 26.480242 85.889704 
L 127.280242 85.889704 
L 127.280242 23.591878 
L 26.480242 23.591878 
L 26.480242 85.889704 
z
" style="fill: none"/>
   </g>
   <g id="matplotlib.axis_1">
    <g id="xtick_1">
     <g id="line2d_1">
      <path d="M 31.06206 85.889704 
L 31.06206 23.591878 
" clip-path="url(#p67ec71273d)" style="fill: none; stroke-dasharray: 2.96,1.28; stroke-dashoffset: 0; stroke: #dddfe5; stroke-width: 0.8"/>
     </g>
     <g id="line2d_2">
      <defs>
       <path id="m231b0be48c" d="M 0 0 
L 0 3.5 
" style="stroke: #4d4f53; stroke-width: 0.8"/>
      </defs>
      <g>
       <use xlink:href="#m231b0be48c" x="31.06206" y="85.889704" style="fill: #4d4f53; stroke: #4d4f53; stroke-width: 0.8"/>
      </g>
     </g>
     <g id="text_1">
      <!-- 0 -->
      <g style="fill: #4d4f53" transform="translate(28.412079 99.219203) scale(0.0833 -0.0833)">
       <defs>
        <path id="DejaVuSans-30" d="M 2034 4250 
Q 1547 4250 1301 3770 
Q 1056 3291 1056 2328 
Q 1056 1369 1301 889 
Q 1547 409 2034 409 
Q 2525 409 2770 889 
Q 3016 1369 3016 2328 
Q 3016 3291 2770 3770 
Q 2525 4250 2034 4250 
z
M 2034 4750 
Q 2819 4750 3233 4129 
Q 3647 3509 3647 2328 
Q 3647 1150 3233 529 
Q 2819 -91 2034 -91 
Q 1250 -91 836 529 
Q 422 1150 422 2328 
Q 422 3509 836 4129 
Q 1250 4750 2034 4750 
z
" transform="scale(0.015625)"/>
       </defs>
       <use xlink:href="#DejaVuSans-30"/>
      </g>
     </g>
    </g>
    <g id="xtick_2">
     <g id="line2d_3">
      <path d="M 79.676661 85.889704 
L 79.676661 23.591878 
" clip-path="url(#p67ec71273d)" style="fill: none; stroke-dasharray: 2.96,1.28; stroke-dashoffset: 0; stroke: #dddfe5; stroke-width: 0.8"/>
     </g>
     <g id="line2d_4">
      <g>
       <use xlink:href="#m231b0be48c" x="79.676661" y="85.889704" style="fill: #4d4f53; stroke: #4d4f53; stroke-width: 0.8"/>
      </g>
     </g>
     <g id="text_2">
      <!-- 5 -->
      <g style="fill: #4d4f53" transform="translate(77.02668 99.219203) scale(0.0833 -0.0833)">
       <defs>
        <path id="DejaVuSans-35" d="M 691 4666 
L 3169 4666 
L 3169 4134 
L 1269 4134 
L 1269 2991 
Q 1406 3038 1543 3061 
Q 1681 3084 1819 3084 
Q 2600 3084 3056 2656 
Q 3513 2228 3513 1497 
Q 3513 744 3044 326 
Q 2575 -91 1722 -91 
Q 1428 -91 1123 -41 
Q 819 9 494 109 
L 494 744 
Q 775 591 1075 516 
Q 1375 441 1709 441 
Q 2250 441 2565 725 
Q 2881 1009 2881 1497 
Q 2881 1984 2565 2268 
Q 2250 2553 1709 2553 
Q 1456 2553 1204 2497 
Q 953 2441 691 2322 
L 691 4666 
z
" transform="scale(0.015625)"/>
       </defs>
       <use xlink:href="#DejaVuSans-35"/>
      </g>
     </g>
    </g>
   </g>
   <g id="matplotlib.axis_2">
    <g id="ytick_1">
     <g id="line2d_5">
      <path d="M 26.480242 83.083036 
L 127.280242 83.083036 
" clip-path="url(#p67ec71273d)" style="fill: none; stroke-dasharray: 2.96,1.28; stroke-dashoffset: 0; stroke: #dddfe5; stroke-width: 0.8"/>
     </g>
     <g id="line2d_6">
      <defs>
       <path id="mc56fc2bac4" d="M 0 0 
L -3.5 0 
" style="stroke: #4d4f53; stroke-width: 0.8"/>
      </defs>
      <g>
       <use xlink:href="#mc56fc2bac4" x="26.480242" y="83.083036" style="fill: #4d4f53; stroke: #4d4f53; stroke-width: 0.8"/>
      </g>
     </g>
     <g id="text_3">
      <!-- −1 -->
      <g style="fill: #4d4f53" transform="translate(7.2 86.247785) scale(0.0833 -0.0833)">
       <defs>
        <path id="DejaVuSans-2212" d="M 678 2272 
L 4684 2272 
L 4684 1741 
L 678 1741 
L 678 2272 
z
" transform="scale(0.015625)"/>
        <path id="DejaVuSans-31" d="M 794 531 
L 1825 531 
L 1825 4091 
L 703 3866 
L 703 4441 
L 1819 4666 
L 2450 4666 
L 2450 531 
L 3481 531 
L 3481 0 
L 794 0 
L 794 531 
z
" transform="scale(0.015625)"/>
       </defs>
       <use xlink:href="#DejaVuSans-2212"/>
       <use xlink:href="#DejaVuSans-31" transform="translate(83.789062 0)"/>
      </g>
     </g>
    </g>
    <g id="ytick_2">
     <g id="line2d_7">
      <path d="M 26.480242 56.097281 
L 127.280242 56.097281 
" clip-path="url(#p67ec71273d)" style="fill: none; stroke-dasharray: 2.96,1.28; stroke-dashoffset: 0; stroke: #dddfe5; stroke-width: 0.8"/>
     </g>
     <g id="line2d_8">
      <g>
       <use xlink:href="#mc56fc2bac4" x="26.480242" y="56.097281" style="fill: #4d4f53; stroke: #4d4f53; stroke-width: 0.8"/>
      </g>
     </g>
     <g id="text_4">
      <!-- 0 -->
      <g style="fill: #4d4f53" transform="translate(14.18028 59.26203) scale(0.0833 -0.0833)">
       <use xlink:href="#DejaVuSans-30"/>
      </g>
     </g>
    </g>
    <g id="ytick_3">
     <g id="line2d_9">
      <path d="M 26.480242 29.111527 
L 127.280242 29.111527 
" clip-path="url(#p67ec71273d)" style="fill: none; stroke-dasharray: 2.96,1.28; stroke-dashoffset: 0; stroke: #dddfe5; stroke-width: 0.8"/>
     </g>
     <g id="line2d_10">
      <g>
       <use xlink:href="#mc56fc2bac4" x="26.480242" y="29.111527" style="fill: #4d4f53; stroke: #4d4f53; stroke-width: 0.8"/>
      </g>
     </g>
     <g id="text_5">
      <!-- 1 -->
      <g style="fill: #4d4f53" transform="translate(14.18028 32.276276) scale(0.0833 -0.0833)">
       <use xlink:href="#DejaVuSans-31"/>
      </g>
     </g>
    </g>
   </g>
   <g id="line2d_11">
    <path d="M 31.06206 35.880189 
L 31.79662 33.581111 
L 31.98026 33.959609 
L 32.1639 31.726535 
L 32.34754 32.084867 
L 32.53118 33.461054 
L 32.89846 31.519479 
L 33.0821 32.611957 
L 33.26574 30.037411 
L 33.44938 31.24602 
L 33.81666 29.825518 
L 34.0003 30.76969 
L 34.367581 29.746205 
L 34.551221 29.073852 
L 34.734861 30.429689 
L 34.918501 29.97911 
L 35.102141 28.777401 
L 35.285781 29.076085 
L 35.469421 29.790087 
L 35.653061 29.013832 
L 35.836701 29.457202 
L 36.203981 27.50855 
L 36.387621 29.148936 
L 36.571261 26.968863 
L 36.754901 28.317344 
L 37.122181 27.942318 
L 37.305821 29.218817 
L 37.673101 26.492795 
L 38.040381 28.781857 
L 38.407661 27.241658 
L 38.591301 29.113359 
L 38.774941 28.143243 
L 38.958581 29.009349 
L 39.142221 27.075287 
L 39.325861 28.308755 
L 39.509501 27.41366 
L 39.693141 28.050249 
L 39.876781 26.826426 
L 40.427701 28.213085 
L 40.611341 27.158703 
L 40.978621 30.066979 
L 41.162261 30.007189 
L 41.345901 27.864494 
L 41.529541 27.931548 
L 41.896821 29.985917 
L 42.080461 29.142511 
L 42.264101 31.25995 
L 42.447741 29.443573 
L 42.631381 29.896318 
L 42.815021 31.416702 
L 43.182301 29.94265 
L 43.365941 32.211993 
L 43.549581 30.448676 
L 43.733221 32.295369 
L 43.916861 31.553777 
L 44.100501 33.008241 
L 44.284141 32.613103 
L 44.467781 33.831493 
L 44.651421 33.35251 
L 45.018701 34.178342 
L 45.202341 33.437358 
L 45.385981 34.577553 
L 45.569621 34.297196 
L 45.753261 34.45967 
L 45.936901 36.006922 
L 46.120541 34.863429 
L 46.304181 35.763777 
L 46.487821 35.642195 
L 46.855101 37.572876 
L 47.038741 36.790003 
L 47.589661 39.808353 
L 47.773301 38.313099 
L 48.324221 41.516089 
L 48.507861 41.432454 
L 49.058781 43.598557 
L 49.242421 42.549227 
L 49.426061 44.780717 
L 49.609701 44.689732 
L 49.976981 43.741772 
L 50.344261 46.119262 
L 50.527901 45.397384 
L 50.711541 45.508374 
L 51.078821 48.114727 
L 51.262461 47.77524 
L 51.629741 50.569594 
L 51.813381 50.213722 
L 51.997021 50.349671 
L 52.180661 52.03117 
L 52.364301 50.196981 
L 53.466141 55.376388 
L 53.649781 55.582092 
L 53.833421 54.893489 
L 54.017061 55.945184 
L 54.200701 55.225544 
L 54.751621 58.771056 
L 55.118901 59.117416 
L 55.302541 60.580838 
L 55.486181 59.572754 
L 55.669821 61.63066 
L 55.853461 60.33256 
L 56.037101 60.999103 
L 56.220741 63.24923 
L 56.404381 61.703555 
L 56.588021 63.33653 
L 56.771661 62.640072 
L 56.955301 64.309875 
L 57.138941 64.127463 
L 57.322581 65.704637 
L 57.506221 64.356184 
L 57.689861 66.375991 
L 57.873501 65.560927 
L 58.057141 66.509218 
L 58.240781 66.055693 
L 58.791701 69.604881 
L 58.975341 67.680211 
L 59.342621 70.718656 
L 59.526261 69.715602 
L 59.893542 70.877095 
L 60.077182 70.321418 
L 60.260822 70.739313 
L 60.444462 72.847134 
L 60.628102 72.000073 
L 61.179022 74.901345 
L 61.362662 74.864513 
L 61.546302 74.043055 
L 61.729942 75.343878 
L 61.913582 75.259589 
L 62.097222 75.851202 
L 62.464502 75.656646 
L 62.648142 75.170807 
L 62.831782 77.944371 
L 63.015422 76.825225 
L 63.199062 76.882295 
L 63.382702 78.460941 
L 63.566342 77.196965 
L 63.749982 78.396481 
L 63.933622 78.289769 
L 64.117262 78.353686 
L 64.300902 77.868443 
L 64.668182 78.896527 
L 65.035462 80.880546 
L 65.402742 79.265795 
L 65.586382 79.65532 
L 65.770022 81.186692 
L 65.953662 81.139474 
L 66.137302 81.438247 
L 66.504582 80.515654 
L 66.871862 81.754653 
L 67.239142 80.401754 
L 67.422782 81.304638 
L 67.606422 80.899022 
L 67.790062 81.745781 
L 68.157342 80.78472 
L 68.340982 82.997464 
L 68.524622 81.087193 
L 68.708262 81.143458 
L 69.075542 80.956108 
L 69.259182 80.533063 
L 69.626462 82.496838 
L 69.993742 80.232453 
L 70.361022 80.434644 
L 70.728302 82.57396 
L 71.095582 80.403776 
L 71.279222 80.351701 
L 71.462862 81.710061 
L 71.646502 81.675435 
L 71.830142 81.414626 
L 72.013782 79.469046 
L 72.381062 80.865626 
L 72.564702 79.46074 
L 72.748342 80.868704 
L 73.115622 80.257247 
L 73.482902 78.445073 
L 73.666542 78.325554 
L 74.033822 77.365194 
L 74.401102 78.605676 
L 74.584742 77.212726 
L 74.768382 77.431694 
L 74.952022 77.260831 
L 75.502942 74.60675 
L 75.686582 75.50545 
L 76.053862 73.875815 
L 76.237502 74.661578 
L 76.604782 72.340148 
L 76.788422 74.062157 
L 77.155702 71.931965 
L 77.339342 73.129871 
L 77.706622 70.709519 
L 79.175742 67.056432 
L 79.359382 68.262642 
L 79.543022 66.622092 
L 79.726662 67.469663 
L 79.910302 65.276344 
L 80.093942 66.943438 
L 80.461222 66.037338 
L 80.828502 63.701238 
L 81.012142 64.579742 
L 81.195782 64.097876 
L 81.563062 61.170587 
L 81.746702 62.073492 
L 82.113982 59.426873 
L 82.297622 58.964486 
L 82.481262 59.206238 
L 83.032182 57.197461 
L 83.215822 57.585661 
L 83.766742 54.959295 
L 83.950382 55.706662 
L 84.134022 54.726386 
L 84.317662 55.112458 
L 85.052223 51.854214 
L 85.235863 52.955876 
L 85.419503 52.286734 
L 85.603143 50.032561 
L 85.786783 50.378884 
L 85.970423 48.455495 
L 86.154063 50.241796 
L 86.888623 45.954902 
L 87.072263 47.578645 
L 87.439543 45.397394 
L 87.806823 46.057133 
L 87.990463 44.142009 
L 88.174103 44.736466 
L 88.357743 42.648102 
L 88.541383 43.291132 
L 88.725023 42.980114 
L 89.092303 41.275462 
L 89.275943 41.67781 
L 89.459583 40.06227 
L 89.643223 40.559549 
L 89.826863 39.155411 
L 90.010503 40.677847 
L 90.194143 37.924783 
L 90.745063 39.103522 
L 91.295983 35.495872 
L 91.479623 35.994849 
L 91.846903 35.777593 
L 92.030543 34.285329 
L 92.214183 34.624681 
L 92.397823 33.843276 
L 92.765103 34.884518 
L 92.948743 32.203683 
L 93.132383 34.475727 
L 93.499663 32.844108 
L 93.683303 33.031445 
L 93.866943 32.681045 
L 94.234223 31.216565 
L 94.417863 30.970122 
L 94.601503 30.305952 
L 94.785143 31.541626 
L 94.968783 29.481533 
L 95.152423 29.889801 
L 95.336063 31.337455 
L 95.519703 29.645269 
L 95.703343 30.042939 
L 95.886983 29.94646 
L 96.070623 30.162467 
L 96.437903 27.735274 
L 96.621543 29.473378 
L 96.805183 28.314133 
L 96.988823 28.772235 
L 97.172463 28.661734 
L 97.356103 29.433052 
L 97.539743 28.936947 
L 97.723383 27.179501 
L 97.907023 29.125768 
L 98.274303 27.370163 
L 98.641583 28.468575 
L 98.825223 26.607058 
L 99.008863 26.680159 
L 99.192503 27.47219 
L 99.559783 26.451822 
L 99.743423 26.757039 
L 99.927063 27.794652 
L 100.110703 26.988884 
L 100.294343 27.072256 
L 100.477983 28.791288 
L 100.661623 27.691396 
L 100.845263 29.135988 
L 101.028903 28.861727 
L 101.212543 29.181263 
L 101.579823 28.549736 
L 101.763463 29.090425 
L 102.130743 27.799403 
L 102.498023 30.295318 
L 102.681663 28.163432 
L 102.865303 29.868182 
L 103.232583 28.64162 
L 103.416223 29.172195 
L 103.599863 31.395302 
L 103.783503 30.694231 
L 103.967143 31.313833 
L 104.150783 30.502538 
L 104.334423 30.937448 
L 104.518063 30.23631 
L 104.701703 31.930359 
L 104.885343 31.0003 
L 105.436263 33.345071 
L 105.619903 32.508033 
L 105.803543 33.176566 
L 105.987183 32.411918 
L 106.354463 35.048367 
L 106.538103 34.150056 
L 106.721743 34.581391 
L 106.905383 34.235222 
L 107.089023 34.58765 
L 107.272663 36.757429 
L 107.456303 36.361743 
L 108.190863 39.130347 
L 108.374503 37.130411 
L 109.292703 40.028954 
L 109.476343 41.701002 
L 109.659983 40.240554 
L 109.843623 43.080817 
L 110.027264 41.928745 
L 110.210904 43.981726 
L 110.394544 41.920735 
L 110.945464 44.3567 
L 111.312744 46.485517 
L 111.496384 45.141488 
L 111.863664 47.993408 
L 112.047304 47.910714 
L 112.230944 46.66534 
L 112.598224 49.493515 
L 112.781864 50.147398 
L 112.965504 49.21405 
L 113.149144 51.430977 
L 113.332784 51.146305 
L 113.516424 50.492269 
L 113.700064 53.303796 
L 114.067344 51.715199 
L 114.250984 54.237088 
L 114.434624 53.376622 
L 114.801904 54.043593 
L 115.352824 57.702778 
L 115.536464 56.921607 
L 116.087384 58.475929 
L 116.454664 60.487332 
L 116.821944 59.264331 
L 117.005584 60.289204 
L 117.189224 62.49666 
L 117.372864 61.348169 
L 117.556504 63.142094 
L 117.740144 61.909237 
L 118.291064 65.584057 
L 118.474704 64.963257 
L 118.658344 66.558351 
L 118.841984 65.414104 
L 119.025624 67.352344 
L 119.209264 66.913291 
L 119.392904 67.967403 
L 119.576544 66.387193 
L 119.760184 68.793524 
L 119.943824 68.389385 
L 120.127464 70.364329 
L 120.311104 69.183698 
L 120.862024 71.00234 
L 121.045664 70.097815 
L 121.229304 72.404274 
L 121.412944 71.423054 
L 121.596584 71.586013 
L 122.147504 72.925248 
L 122.514784 75.30638 
L 122.698424 73.429442 
L 122.698424 73.429442 
" clip-path="url(#p67ec71273d)" style="fill: none; stroke: #3362b0; stroke-width: 1.5; stroke-linecap: square"/>
   </g>
   <g id="line2d_12">
    <path d="M 31.06206 28.629383 
L 31.2457 27.065716 
L 31.42934 27.211183 
L 31.61298 28.850613 
L 31.79662 27.231011 
L 31.98026 28.803431 
L 32.1639 28.762269 
L 32.53118 28.673879 
L 32.71482 29.528026 
L 32.89846 29.044647 
L 33.0821 29.772633 
L 33.26574 29.588214 
L 33.44938 28.422055 
L 33.81666 30.806267 
L 34.0003 29.434847 
L 34.18394 30.826318 
L 34.551221 29.357221 
L 34.918501 32.061025 
L 35.102141 31.605358 
L 35.285781 31.928492 
L 35.653061 33.378275 
L 35.836701 32.013843 
L 36.020341 32.680808 
L 36.203981 31.948657 
L 36.571261 33.227494 
L 37.122181 35.978112 
L 37.305821 35.739485 
L 37.489461 35.133991 
L 37.673101 36.946861 
L 38.040381 35.876167 
L 38.224021 38.18118 
L 38.407661 36.272111 
L 39.509501 40.391056 
L 39.693141 39.690134 
L 39.876781 41.867942 
L 40.060421 39.855328 
L 40.427701 43.19051 
L 40.611341 43.321856 
L 40.794981 41.804145 
L 41.162261 44.360726 
L 41.345901 44.366802 
L 41.529541 45.856114 
L 41.713181 44.373879 
L 41.896821 46.147607 
L 42.080461 45.318726 
L 42.447741 48.246089 
L 42.631381 46.70697 
L 43.182301 49.761476 
L 43.365941 48.356838 
L 43.549581 50.112469 
L 43.733221 49.438197 
L 44.284141 52.035393 
L 44.467781 51.295212 
L 44.651421 54.286125 
L 44.835061 52.607274 
L 45.018701 55.337762 
L 45.385981 54.942763 
L 46.487821 58.71844 
L 46.671461 57.631667 
L 46.855101 58.436201 
L 47.222381 61.294198 
L 47.406021 60.641279 
L 47.773301 62.199108 
L 48.140581 63.075539 
L 48.507861 62.349975 
L 49.058781 65.469449 
L 49.242421 65.901322 
L 49.426061 64.912777 
L 49.793341 68.090596 
L 49.976981 67.363161 
L 50.344261 69.385509 
L 50.527901 67.448073 
L 50.711541 69.243569 
L 50.895181 68.370243 
L 51.629741 72.357008 
L 51.813381 71.04324 
L 51.997021 72.550904 
L 52.180661 71.662923 
L 52.364301 73.306787 
L 52.547941 73.178725 
L 52.731581 73.178605 
L 52.915221 74.780972 
L 53.098861 73.905387 
L 53.282501 75.645679 
L 53.466141 75.33209 
L 53.649781 75.540639 
L 53.833421 76.30918 
L 54.017061 74.617362 
L 54.200701 77.417084 
L 54.384341 75.488085 
L 54.567981 76.471444 
L 54.751621 75.881102 
L 54.935261 77.18281 
L 55.118901 77.108765 
L 55.302541 76.98132 
L 55.486181 77.382623 
L 55.669821 79.266776 
L 55.853461 78.63415 
L 56.037101 79.362713 
L 56.220741 77.953685 
L 56.588021 79.507283 
L 56.771661 79.31478 
L 56.955301 80.948735 
L 57.138941 79.176954 
L 57.506221 81.569279 
L 57.873501 80.400195 
L 58.240781 82.147634 
L 58.424421 79.850373 
L 58.791701 82.249022 
L 58.975341 80.998916 
L 59.158981 82.508027 
L 59.342621 82.44182 
L 59.526261 82.624164 
L 59.893542 80.401468 
L 60.260822 82.728294 
L 60.444462 82.631862 
L 60.811742 81.214663 
L 60.995382 81.383545 
L 61.179022 82.949448 
L 61.362662 81.39428 
L 61.546302 82.812522 
L 61.729942 81.154986 
L 61.913582 81.881564 
L 62.097222 80.133995 
L 62.280862 80.276027 
L 62.464502 80.506878 
L 62.648142 80.200987 
L 63.199062 81.775017 
L 63.382702 80.577285 
L 63.566342 81.278755 
L 63.749982 79.490507 
L 63.933622 81.036132 
L 64.117262 80.925182 
L 64.484542 78.335325 
L 64.851822 80.045394 
L 65.035462 78.744047 
L 65.219102 79.580686 
L 65.402742 78.924732 
L 65.586382 76.981855 
L 65.770022 79.057523 
L 66.137302 78.403641 
L 66.320942 77.171002 
L 66.504582 77.56805 
L 66.688222 75.382192 
L 66.871862 76.568603 
L 67.422782 74.988448 
L 67.606422 73.866034 
L 67.790062 75.476694 
L 68.157342 73.114145 
L 68.340982 72.819233 
L 68.524622 74.004025 
L 68.891902 72.083476 
L 69.075542 73.151961 
L 69.442822 70.467685 
L 69.626462 71.968432 
L 69.993742 69.620018 
L 70.177382 70.2583 
L 70.361022 70.200468 
L 70.728302 67.40721 
L 70.911942 67.527222 
L 71.095582 67.980747 
L 71.462862 67.334397 
L 71.646502 65.906131 
L 71.830142 66.482802 
L 72.381062 65.132028 
L 72.564702 63.106704 
L 72.748342 63.30466 
L 72.931982 62.174762 
L 73.115622 62.457057 
L 73.299262 61.013378 
L 73.482902 61.104214 
L 73.850182 58.863825 
L 74.033822 60.333217 
L 74.217462 59.840852 
L 74.768382 56.865597 
L 74.952022 56.216742 
L 75.319302 57.280085 
L 75.686582 53.988647 
L 76.421142 51.787641 
L 76.604782 51.475667 
L 76.788422 50.744854 
L 76.972062 51.62301 
L 77.155702 50.056915 
L 77.339342 51.136781 
L 77.706622 48.322788 
L 77.890262 49.365356 
L 78.073902 48.987109 
L 78.441182 46.755492 
L 78.624822 47.084337 
L 78.992102 45.554604 
L 79.175742 46.869644 
L 79.726662 43.196403 
L 79.910302 44.40969 
L 80.277582 41.396112 
L 80.644862 42.677554 
L 81.012142 39.623344 
L 81.379422 40.957213 
L 81.746702 38.393427 
L 81.930342 40.167048 
L 82.297622 37.248939 
L 82.481262 37.725709 
L 82.848542 35.872876 
L 83.032182 36.127884 
L 83.399462 35.363811 
L 83.583102 36.612586 
L 83.950382 34.12346 
L 84.134022 35.414052 
L 84.317662 33.203186 
L 84.684942 34.676775 
L 85.052223 32.683116 
L 85.235863 32.521134 
L 85.603143 32.902622 
L 85.786783 31.80622 
L 86.154063 32.461812 
L 86.337703 29.768727 
L 86.521343 30.884479 
L 86.704983 29.331485 
L 87.072263 30.381632 
L 87.439543 28.598233 
L 87.623183 30.303835 
L 87.990463 29.169558 
L 88.174103 29.693917 
L 88.357743 28.810277 
L 88.541383 28.903744 
L 88.725023 28.983921 
L 88.908663 28.729396 
L 89.092303 26.979392 
L 89.459583 29.357812 
L 89.643223 26.70539 
L 89.826863 27.137136 
L 90.010503 28.396311 
L 90.194143 28.077821 
L 90.377783 27.186279 
L 90.561423 28.217443 
L 90.745063 27.982363 
L 90.928703 28.169189 
L 91.295983 27.686782 
L 91.479623 26.578381 
L 91.663263 28.397975 
L 91.846903 27.175984 
L 92.214183 28.945221 
L 92.581463 27.191625 
L 92.765103 28.665278 
L 92.948743 27.276833 
L 93.132383 29.177496 
L 93.499663 28.374442 
L 93.683303 28.076709 
L 93.866943 28.410053 
L 94.050583 29.687374 
L 94.234223 28.569882 
L 94.601503 30.265625 
L 94.785143 30.795754 
L 94.968783 30.303431 
L 95.152423 29.111901 
L 95.336063 29.531565 
L 95.703343 31.408579 
L 96.070623 29.961143 
L 96.621543 33.317784 
L 96.805183 32.408606 
L 97.172463 33.873649 
L 97.356103 32.318609 
L 97.539743 32.504805 
L 97.723383 33.339935 
L 97.907023 35.489361 
L 98.090663 34.983272 
L 98.274303 33.725021 
L 98.457943 33.881706 
L 98.825223 35.11213 
L 99.376143 37.303931 
L 99.559783 37.054829 
L 99.743423 39.028522 
L 100.110703 37.872544 
L 100.294343 39.974751 
L 100.477983 39.878118 
L 100.845263 41.470328 
L 101.028903 41.456631 
L 101.212543 42.450181 
L 101.396183 40.759261 
L 101.763463 42.078995 
L 101.947103 41.712943 
L 102.130743 43.511382 
L 102.314383 43.474393 
L 102.498023 43.649281 
L 102.681663 45.841132 
L 102.865303 44.811108 
L 103.048943 45.162533 
L 103.232583 46.169473 
L 103.416223 45.665495 
L 103.599863 47.307062 
L 103.783503 46.796901 
L 104.701703 49.297503 
L 105.068983 51.392656 
L 105.252623 51.066563 
L 105.619903 53.039743 
L 105.803543 54.044476 
L 105.987183 54.007934 
L 106.170823 54.851788 
L 106.354463 54.64784 
L 106.905383 57.631161 
L 107.089023 55.852062 
L 107.272663 58.01574 
L 107.456303 57.990905 
L 107.823583 59.907241 
L 108.007223 58.100048 
L 108.190863 59.898978 
L 108.374503 59.592107 
L 108.741783 61.913192 
L 109.292703 63.78494 
L 109.476343 62.041423 
L 109.659983 62.842719 
L 109.843623 64.609719 
L 110.027264 63.916813 
L 110.210904 64.173442 
L 110.394544 67.026558 
L 110.578184 66.147061 
L 110.761824 67.820903 
L 111.129104 66.678514 
L 111.680024 68.320146 
L 111.863664 68.455943 
L 112.598224 71.390798 
L 112.781864 72.394891 
L 113.149144 71.53319 
L 113.332784 71.603858 
L 113.700064 74.578426 
L 113.883704 73.844935 
L 114.434624 75.810208 
L 114.618264 74.447166 
L 114.801904 76.420023 
L 115.169184 74.759061 
L 115.352824 75.363934 
L 115.720104 78.101182 
L 115.903744 77.008756 
L 116.454664 78.333318 
L 116.638304 77.166721 
L 116.821944 79.359722 
L 117.005584 77.760768 
L 117.189224 77.801742 
L 117.372864 78.11784 
L 117.740144 80.014827 
L 117.923784 78.664149 
L 118.107424 78.867601 
L 118.474704 81.261996 
L 118.658344 80.016827 
L 118.841984 80.823363 
L 119.209264 80.496561 
L 119.392904 79.825682 
L 119.760184 81.447963 
L 119.943824 82.005632 
L 120.311104 81.315778 
L 120.494744 81.518856 
L 120.678384 82.602043 
L 120.862024 80.629045 
L 121.229304 83.057985 
L 121.412944 81.999574 
L 121.780224 82.967155 
L 122.331144 80.844605 
L 122.514784 81.285288 
L 122.698424 82.383666 
L 122.698424 82.383666 
" clip-path="url(#p67ec71273d)" style="fill: none; stroke: #cc3164; stroke-width: 1.5; stroke-linecap: square"/>
   </g>
   <g id="patch_3">
    <path d="M 26.480242 85.889704 
L 26.480242 23.591878 
" style="fill: none; stroke: #4d4f53; stroke-width: 0.8; stroke-linejoin: miter; stroke-linecap: square"/>
   </g>
   <g id="patch_4">
    <path d="M 127.280242 85.889704 
L 127.280242 23.591878 
" style="fill: none; stroke: #4d4f53; stroke-width: 0.8; stroke-linejoin: miter; stroke-linecap: square"/>
   </g>
   <g id="patch_5">
    <path d="M 26.480242 85.889704 
L 127.280242 85.889704 
" style="fill: none; stroke: #4d4f53; stroke-width: 0.8; stroke-linejoin: miter; stroke-linecap: square"/>
   </g>
   <g id="patch_6">
    <path d="M 26.480242 23.591878 
L 127.280242 23.591878 
" style="fill: none; stroke: #4d4f53; stroke-width: 0.8; stroke-linejoin: miter; stroke-linecap: square"/>
   </g>
   <g id="legend_1">
    <g id="patch_7">
     <path d="M 26.480242 23.591878 
L 127.280242 23.591878 
L 127.280242 7.2 
L 26.480242 7.2 
z
" style="fill: #ffffff; stroke: #4d4f53; stroke-width: 0.8; stroke-linejoin: miter"/>
    </g>
    <g id="text_6">
     <!-- title -->
     <g style="fill: #4d4f53" transform="translate(30.645242 17.694498) scale(0.0833 -0.0833)">
      <defs>
       <path id="DejaVuSans-74" d="M 1172 4494 
L 1172 3500 
L 2356 3500 
L 2356 3053 
L 1172 3053 
L 1172 1153 
Q 1172 725 1289 603 
Q 1406 481 1766 481 
L 2356 481 
L 2356 0 
L 1766 0 
Q 1100 0 847 248 
Q 594 497 594 1153 
L 594 3053 
L 172 3053 
L 172 3500 
L 594 3500 
L 594 4494 
L 1172 4494 
z
" transform="scale(0.015625)"/>
       <path id="DejaVuSans-69" d="M 603 3500 
L 1178 3500 
L 1178 0 
L 603 0 
L 603 3500 
z
M 603 4863 
L 1178 4863 
L 1178 4134 
L 603 4134 
L 603 4863 
z
" transform="scale(0.015625)"/>
       <path id="DejaVuSans-6c" d="M 603 4863 
L 1178 4863 
L 1178 0 
L 603 0 
L 603 4863 
z
" transform="scale(0.015625)"/>
       <path id="DejaVuSans-65" d="M 3597 1894 
L 3597 1613 
L 953 1613 
Q 991 1019 1311 708 
Q 1631 397 2203 397 
Q 2534 397 2845 478 
Q 3156 559 3463 722 
L 3463 178 
Q 3153 47 2828 -22 
Q 2503 -91 2169 -91 
Q 1331 -91 842 396 
Q 353 884 353 1716 
Q 353 2575 817 3079 
Q 1281 3584 2069 3584 
Q 2775 3584 3186 3129 
Q 3597 2675 3597 1894 
z
M 3022 2063 
Q 3016 2534 2758 2815 
Q 2500 3097 2075 3097 
Q 1594 3097 1305 2825 
Q 1016 2553 972 2059 
L 3022 2063 
z
" transform="scale(0.015625)"/>
      </defs>
      <use xlink:href="#DejaVuSans-74"/>
      <use xlink:href="#DejaVuSans-69" transform="translate(39.208984 0)"/>
      <use xlink:href="#DejaVuSans-74" transform="translate(66.992188 0)"/>
      <use xlink:href="#DejaVuSans-6c" transform="translate(106.201172 0)"/>
      <use xlink:href="#DejaVuSans-65" transform="translate(133.984375 0)"/>
     </g>
    </g>
    <g id="line2d_13">
     <path d="M 60.282717 14.778998 
L 66.113717 14.778998 
L 71.944717 14.778998 
" style="fill: none; stroke: #3362b0; stroke-width: 1.5; stroke-linecap: square"/>
    </g>
    <g id="text_7">
     <!-- $x_1$ -->
     <g style="fill: #4d4f53" transform="translate(76.109717 17.694498) scale(0.0833 -0.0833)">
      <defs>
       <path id="DejaVuSans-Oblique-78" d="M 3841 3500 
L 2234 1784 
L 3219 0 
L 2559 0 
L 1819 1388 
L 531 0 
L -166 0 
L 1556 1844 
L 641 3500 
L 1300 3500 
L 1972 2234 
L 3144 3500 
L 3841 3500 
z
" transform="scale(0.015625)"/>
      </defs>
      <use xlink:href="#DejaVuSans-Oblique-78" transform="translate(0 0.3125)"/>
      <use xlink:href="#DejaVuSans-31" transform="translate(59.179688 -16.09375) scale(0.7)"/>
     </g>
    </g>
    <g id="line2d_14">
     <path d="M 98.375142 14.778998 
L 104.206142 14.778998 
L 110.037142 14.778998 
" style="fill: none; stroke: #cc3164; stroke-width: 1.5; stroke-linecap: square"/>
    </g>
    <g id="text_8">
     <!-- $x_2$ -->
     <g style="fill: #4d4f53" transform="translate(114.202142 17.694498) scale(0.0833 -0.0833)">
      <defs>
       <path id="DejaVuSans-32" d="M 1228 531 
L 3431 531 
L 3431 0 
L 469 0 
L 469 531 
Q 828 903 1448 1529 
Q 2069 2156 2228 2338 
Q 2531 2678 2651 2914 
Q 2772 3150 2772 3378 
Q 2772 3750 2511 3984 
Q 2250 4219 1831 4219 
Q 1534 4219 1204 4116 
Q 875 4013 500 3803 
L 500 4441 
Q 881 4594 1212 4672 
Q 1544 4750 1819 4750 
Q 2544 4750 2975 4387 
Q 3406 4025 3406 3419 
Q 3406 3131 3298 2873 
Q 3191 2616 2906 2266 
Q 2828 2175 2409 1742 
Q 1991 1309 1228 531 
z
" transform="scale(0.015625)"/>
      </defs>
      <use xlink:href="#DejaVuSans-Oblique-78" transform="translate(0 0.3125)"/>
      <use xlink:href="#DejaVuSans-32" transform="translate(59.179688 -16.09375) scale(0.7)"/>
     </g>
    </g>
   </g>
  </g>
 </g>
 <defs>
  <clipPath id="p67ec71273d">
   <rect x="26.480242" y="23.591878" width="100.8" height="62.297826"/>
  </clipPath>
 </defs>
</svg>
